<svg width="558" height="560" viewBox="0 0 558 560" fill="none" xmlns="http://www.w3.org/2000/svg">
<path d="M117.975 213.034L120.691 249.425L186.411 251.054L215.198 316.774L230.949 310.257C230.949 310.257 213.025 248.338 204.878 228.785C196.731 209.232 165.772 223.354 165.772 223.354L163.056 217.922L117.975 213.034Z" fill="#060072"/>
<path d="M236.741 312.429L244.345 335.785L254.665 327.094L249.234 308.627L236.741 312.429Z" fill="#FFB9B9"/>
<path d="M241.086 331.439C241.086 331.439 242.172 348.82 243.802 349.906C245.431 350.992 257.923 348.82 257.923 348.82C257.923 348.82 261.677 349.654 276.933 345.561C294.085 340.96 274.761 334.155 274.761 334.155C274.761 334.155 262.269 326.008 256.837 322.206C251.406 318.404 247.604 326.551 247.604 326.551C248.69 329.81 241.086 331.439 241.086 331.439Z" fill="#2F2E41"/>
<path d="M514.871 247.211H318.775L229.858 247.211H32.9536C29.4357 247.211 26.0618 248.591 23.5743 251.048C21.0867 253.504 19.6892 256.835 19.6892 260.309V525.461C19.6892 528.935 21.0867 532.266 23.5743 534.722C26.0618 537.179 29.4357 538.559 32.9536 538.559H514.871C516.613 538.559 518.337 538.22 519.947 537.562C521.556 536.904 523.018 535.939 524.25 534.722C525.482 533.506 526.459 532.062 527.125 530.473C527.792 528.884 528.135 527.181 528.135 525.461V260.309C528.135 258.589 527.792 256.886 527.125 255.297C526.459 253.708 525.482 252.264 524.25 251.048C523.018 249.831 521.556 248.866 519.947 248.208C518.337 247.55 516.613 247.211 514.871 247.211Z" fill="#3F3D56"/>
<path opacity="0.1" d="M510.532 267.31H37.9668V533.885H510.532V267.31Z" fill="black"/>
<path d="M273.846 260.039C276.522 260.039 278.692 257.869 278.692 255.193C278.692 252.516 276.522 250.346 273.846 250.346C271.169 250.346 268.999 252.516 268.999 255.193C268.999 257.869 271.169 260.039 273.846 260.039Z" fill="#1B1B1B"/>
<path d="M508.341 267.176H38.7603V533.653H508.341V267.176Z" fill="#E6E6E6"/>
<path d="M494.914 285.385H52.1877V516.859H494.914V285.385Z" fill="white"/>
<g clip-path="url(#clip0)">
<path d="M184 309H93C89.134 309 86 312.134 86 316V386C86 389.866 89.134 393 93 393H184C187.866 393 191 389.866 191 386V316C191 312.134 187.866 309 184 309Z" fill="#E6E6E6"/>
<path d="M171.972 332.844C171.972 332.795 171.972 332.75 171.972 332.705C171.972 332.659 171.972 332.607 171.949 332.561H171.889C171.889 332.459 171.889 332.358 171.889 332.248C171.738 328.75 166.901 321.306 164.961 323.479C163.263 325.388 165.825 330.218 167.131 332.392L167.248 332.588L167.184 332.546C167.184 332.546 161.784 348.65 161.147 349.277C160.509 349.903 156.064 362.566 150.204 363.992C149.046 364.268 148.084 364.517 147.276 364.747L147.34 364.532C147.718 363.298 148.182 362.132 148.37 360.759C148.559 359.385 148.37 357.721 147.676 357.053C147.336 356.721 146.921 356.676 146.642 356.148C146.461 355.685 146.364 355.193 146.355 354.695L145.857 348.59L146.204 348.484C148.302 347.813 150.336 346.22 150.574 344.077C150.501 344.105 150.427 344.129 150.351 344.149C150.379 344.024 150.4 343.898 150.415 343.772C148.653 344.466 147.02 342.64 145.322 341.821C142.526 340.451 139.33 341.742 136.443 342.055C133.172 342.413 130.066 341.055 126.723 341.3C124.905 341.44 122.882 342.674 122.98 344.466C123.037 345.451 123.735 346.285 124.022 347.228C124.746 349.511 123.135 351.801 121.724 353.748C120.796 355.027 119.905 356.586 119.747 358.087C116.498 354.691 112.985 350.767 112.577 349.292L103.178 333.188C103.178 333.188 102.956 333.425 102.597 333.776C102.541 333.603 102.473 333.399 102.397 333.195C101.197 329.833 97.8014 321.687 93.4961 323.181C89.1908 324.675 95.2809 333.025 97.9297 336.353L98.307 336.814C98.0849 336.868 97.8517 336.858 97.6354 336.784L108.117 354.763C108.117 354.763 110.023 358.204 111.77 359.14C111.77 359.14 124.791 375.557 124.95 378.84C125.108 382.123 130.806 390.881 130.806 390.881C130.806 390.881 132.711 405.109 129.376 407.611H129.417H129.444H129.485H129.523H129.598H129.648H129.697H129.761H129.814H129.889H129.927C129.768 407.766 129.606 407.936 129.44 408.12C126.969 410.86 123.81 416.731 128.127 426.715C134.477 441.431 135.432 447.196 135.432 447.196C135.432 447.196 123.358 447.822 120.98 448.29C118.875 448.705 110.691 448.996 108.819 449.045C108.151 448.268 106.178 446.547 103.514 449.045C100.179 452.173 97.7976 462.629 97.7976 462.629C97.7976 462.629 96.526 471.073 100.816 468.881C100.816 468.881 105.899 461.844 107.325 461.531C108.034 461.376 108.785 460.331 109.359 459.323L109.389 459.342C109.423 459.342 109.563 459.267 109.789 459.176C110.845 458.757 113.755 457.75 116.049 458.252C117.305 458.527 122.693 458.591 128.342 458.576C127.067 461.633 124.78 469.519 124.78 469.519C124.78 469.519 123.825 476.873 126.995 476.571C129.259 476.348 132.73 470.564 134.541 467.262C135.855 466.3 139.616 462.851 142.397 463.112L161.135 455.92C161.135 455.92 165.58 453.418 163.199 445.132C161.313 438.544 155.943 425.059 153.823 419.802L153.759 419.667C153.245 418.395 152.936 417.64 152.936 417.64C152.065 415.241 151.493 412.743 151.234 410.203C151.215 410.003 151.2 409.8 151.185 409.6C151.448 409.489 151.695 409.346 151.921 409.173C151.921 409.173 150.174 391.507 151.921 389.628L151.951 389.594V389.571L151.981 389.533L152.049 389.447L152.132 389.341C152.227 389.217 152.34 389.062 152.468 388.873C153.468 387.409 155.332 384.066 154.796 380.119C154.774 379.948 154.746 379.776 154.713 379.602C154.508 378.532 154.141 377.499 153.626 376.538C153.551 376.139 153.504 375.734 153.487 375.327C153.487 375.097 153.487 374.844 153.487 374.573V374.527C153.487 374.454 153.487 374.381 153.487 374.308V374.256C153.487 374.078 153.517 373.878 153.543 373.712V373.644C153.543 373.576 153.555 373.507 153.577 373.437V373.35C153.577 373.282 153.608 373.214 153.623 373.146V373.075C153.645 372.984 153.668 372.894 153.698 372.803V372.758C153.721 372.682 153.746 372.608 153.774 372.535L153.808 372.448L153.883 372.267L153.921 372.177C153.951 372.109 153.985 372.041 154.019 371.973L154.045 371.916C154.091 371.833 154.138 371.751 154.189 371.671L154.23 371.607L154.355 371.429L154.415 371.35L154.547 371.192L154.608 371.124C154.675 371.052 154.743 370.98 154.819 370.913C156.883 369.026 166.093 355.122 166.093 355.122C166.093 355.122 168.316 351.994 168.316 349.964C168.44 349.918 172.368 336.825 171.972 332.844ZM147.246 449.72C147.02 447.577 146.793 444.921 146.586 442.174L150.178 447.773C150.178 447.773 149.838 449.479 147.246 449.72Z" fill="url(#paint0_linear)"/>
<path d="M138.681 349.719H129.153V373.845H138.681V349.719Z" fill="#2F2E41"/>
<path d="M138.681 349.719H129.153V373.845H138.681V349.719Z" fill="#FF3939"/>
<path d="M144.129 346.179C144.457 346.269 144.827 346.281 145.05 346.733C145.188 347.095 145.263 347.478 145.272 347.865L145.872 355.321C145.881 355.809 145.975 356.292 146.152 356.748C146.404 357.253 146.823 357.314 147.152 357.638C147.812 358.295 148.004 359.94 147.823 361.279C147.642 362.619 147.185 363.766 146.827 364.977C146.314 366.713 145.974 368.663 145.254 370.127C144.533 371.591 143.224 372.391 142.378 371.161C141.533 369.931 141.646 367.448 141.488 365.415C141.224 362.019 139.899 359.091 139.809 355.672C139.733 352.906 140.477 350.326 140.941 347.703C141.273 345.903 141.292 343.719 141.775 342.1C142.178 344.024 142.948 345.854 144.129 346.179Z" fill="#2F2E41"/>
<path d="M144.129 346.179C144.457 346.269 144.827 346.281 145.05 346.733C145.188 347.095 145.263 347.478 145.272 347.865L145.872 355.321C145.881 355.809 145.975 356.292 146.152 356.748C146.404 357.253 146.823 357.314 147.152 357.638C147.812 358.295 148.004 359.94 147.823 361.279C147.642 362.619 147.185 363.766 146.827 364.977C146.314 366.713 145.974 368.663 145.254 370.127C144.533 371.591 143.224 372.391 142.378 371.161C141.533 369.931 141.646 367.448 141.488 365.415C141.224 362.019 139.899 359.091 139.809 355.672C139.733 352.906 140.477 350.326 140.941 347.703C141.273 345.903 141.292 343.719 141.775 342.1C142.178 344.024 142.948 345.854 144.129 346.179Z" fill="#FF3939"/>
<path d="M103.797 335.58L100.111 338.655C100.111 338.655 99.6729 338.142 99.0202 337.312C96.4581 334.041 90.5681 325.834 94.73 324.366C98.8919 322.898 102.182 330.901 103.344 334.207C103.639 335.044 103.797 335.58 103.797 335.58Z" fill="#FFB9B9"/>
<path d="M170.342 334.505C168.806 336.81 166.655 334.505 166.655 334.505C166.655 334.505 166.38 334.093 165.991 333.429C164.727 331.29 162.248 326.547 163.89 324.668C165.776 322.521 170.451 329.848 170.595 333.286C170.639 333.708 170.551 334.134 170.342 334.505Z" fill="#FFB9B9"/>
<path d="M132.534 359.4C132.534 359.4 135.609 369.237 134.685 372.154C133.76 375.071 141.296 378.467 141.296 378.467H149.902C149.902 378.467 152.978 372.165 152.208 370.32C151.438 368.475 144.831 367.094 144.831 367.094C144.831 367.094 140.99 367.094 141.145 356.797L132.534 359.4Z" fill="#FFB9B9"/>
<path opacity="0.1" d="M103.797 335.58L100.111 338.655C100.111 338.655 99.673 338.142 99.0203 337.312C100.36 337.074 102.439 335.12 103.348 334.207C103.639 335.044 103.797 335.58 103.797 335.58Z" fill="black"/>
<path opacity="0.1" d="M170.342 334.504C168.806 336.81 166.655 334.504 166.655 334.504C166.655 334.504 166.38 334.093 165.991 333.429L166.04 333.274C167.036 333.987 170.134 333.38 170.595 333.274C170.641 333.701 170.553 334.131 170.342 334.504Z" fill="black"/>
<path d="M134.534 367.853C134.534 367.853 130.847 369.083 125.622 364.317C125.622 364.317 113.924 352.79 113.17 350.024L104.114 334.177C104.114 334.177 100.273 338.327 98.7334 337.712L108.876 355.386C108.876 355.386 110.721 358.782 112.411 359.688C112.411 359.688 125.014 375.826 125.165 379.052C125.316 382.278 130.844 390.919 130.844 390.919C130.844 390.919 132.689 404.902 129.459 407.363C129.459 407.363 147.438 411.973 151.28 408.898C151.28 408.898 149.589 391.541 151.28 389.689C151.28 389.689 156.505 383.542 152.97 376.78C152.97 376.78 152.215 373.094 154.2 371.249C156.185 369.404 165.112 355.726 165.112 355.726C165.112 355.726 167.263 352.651 167.263 350.655C167.263 350.655 171.259 337.131 170.659 333.596C170.659 333.596 167.123 334.35 166.048 333.596C166.048 333.596 160.822 349.443 160.207 350.039C159.592 350.636 155.302 363.102 149.604 364.487C143.907 365.872 142.997 366.483 142.997 366.483C142.997 366.483 154.06 373.4 148.684 376.471C143.307 379.542 134.534 367.853 134.534 367.853Z" fill="#FFE816"/>
<path opacity="0.1" d="M141.518 361.766C141.336 360.319 141.261 358.859 141.295 357.401L132.689 360.012C132.915 360.585 133.096 361.176 133.228 361.778C134.213 362.212 135.541 363.238 136.685 363.238C138.414 363.294 140.114 362.777 141.518 361.766Z" fill="black"/>
<path d="M136.53 362.781C140.944 362.781 144.522 359.203 144.522 354.789C144.522 350.376 140.944 346.798 136.53 346.798C132.116 346.798 128.538 350.376 128.538 354.789C128.538 359.203 132.116 362.781 136.53 362.781Z" fill="#FFB9B9"/>
<path opacity="0.1" d="M127.021 342.478C125.263 342.614 123.301 343.829 123.399 345.591C123.452 346.56 124.116 347.379 124.406 348.307C125.104 350.553 123.55 352.805 122.184 354.722C120.818 356.639 119.543 359.178 120.712 361.208C121.046 361.697 121.406 362.167 121.792 362.616C123.237 364.566 123.218 367.2 123.859 369.543C124.678 372.541 126.615 375.111 129.27 376.725C131.926 378.339 135.099 378.875 138.137 378.222C136.993 376.762 136.423 374.934 136.534 373.083C136.62 371.739 137.054 370.336 136.534 369.094C135.862 367.498 133.892 366.868 132.877 365.472C131.862 364.076 131.93 362.14 132.421 360.476C132.911 358.812 133.76 357.269 134.168 355.571C134.268 355.076 134.394 354.586 134.545 354.103C135.254 352.088 137.375 350.919 139.45 350.417C141.526 349.915 143.707 349.885 145.733 349.224C147.759 348.564 149.729 347.017 149.963 344.893C148.257 345.576 146.676 343.795 145.031 342.976C142.322 341.633 139.231 342.897 136.439 343.206C133.258 343.561 130.24 342.244 127.021 342.478Z" fill="black"/>
<path d="M126.867 342.172C125.108 342.307 123.146 343.522 123.244 345.285C123.297 346.254 123.961 347.073 124.252 348.001C124.95 350.246 123.395 352.499 122.029 354.416C120.664 356.333 119.388 358.872 120.558 360.902C120.891 361.391 121.252 361.861 121.637 362.309C123.082 364.26 123.063 366.894 123.705 369.237C124.524 372.235 126.46 374.805 129.116 376.419C131.771 378.033 134.944 378.569 137.983 377.916C136.839 376.456 136.269 374.628 136.379 372.776C136.466 371.433 136.9 370.029 136.379 368.788C135.707 367.192 133.738 366.562 132.723 365.166C131.708 363.77 131.776 361.834 132.266 360.17C132.757 358.506 133.606 356.963 134.013 355.265C134.114 354.769 134.24 354.279 134.391 353.797C135.1 351.782 137.221 350.612 139.296 350.111C141.371 349.609 143.552 349.578 145.578 348.918C147.604 348.258 149.574 346.711 149.808 344.586C148.103 345.269 146.522 343.488 144.876 342.67C142.167 341.326 139.077 342.59 136.285 342.9C133.111 343.251 130.104 341.919 126.867 342.172Z" fill="#FF3939"/>
<path opacity="0.1" d="M144.446 372.543C144.446 372.543 147.646 375.399 148.276 376.659L144.446 372.543Z" fill="black"/>
<path opacity="0.1" d="M151.37 389.601C151.37 389.601 147.374 389.601 145.529 390.062C143.684 390.522 139.228 390.062 139.228 390.062" fill="black"/>
<g opacity="0.1">
<path opacity="0.1" d="M148.672 376.459C148.328 376.656 147.955 376.799 147.567 376.882C148.569 377.104 149.618 376.954 150.517 376.459C155.898 373.384 144.831 366.471 144.831 366.471H142.986C142.986 366.471 154.053 373.388 148.672 376.459Z" fill="black"/>
<path opacity="0.1" d="M170.685 333.863C170.685 333.765 170.663 333.671 170.648 333.584C170.016 333.715 169.377 333.812 168.735 333.874C169.383 333.946 170.038 333.942 170.685 333.863Z" fill="black"/>
<path opacity="0.1" d="M131.308 407.351C134.534 404.89 132.693 390.907 132.693 390.907C132.693 390.907 127.161 382.3 127.006 379.074C126.852 375.848 114.253 359.71 114.253 359.71C112.562 358.789 110.717 355.408 110.717 355.408C110.717 355.408 100.265 338.349 98.7297 337.734L108.872 355.408C108.872 355.408 110.717 358.804 112.408 359.71C112.408 359.71 125.01 375.848 125.161 379.074C125.312 382.3 130.844 390.918 130.844 390.918C130.844 390.918 132.689 404.902 129.459 407.362C129.459 407.362 140.511 410.196 147.137 409.939C140.496 409.705 131.308 407.351 131.308 407.351Z" fill="black"/>
<path opacity="0.1" d="M134.625 367.973L134.534 367.856C134.429 367.887 134.322 367.911 134.213 367.927C134.357 367.946 134.493 367.961 134.625 367.973Z" fill="black"/>
</g>
<g opacity="0.1">
<path opacity="0.1" d="M170.647 333.565L170.553 333.584C170.391 338.304 167.116 349.393 167.116 349.393C167.116 351.389 164.965 354.465 164.965 354.465C164.965 354.465 156.053 368.143 154.053 369.988C152.053 371.833 152.823 375.519 152.823 375.519L152.842 375.557C152.781 374.316 152.932 372.391 154.204 371.214C156.2 369.369 165.116 355.691 165.116 355.691C165.116 355.691 167.267 352.616 167.267 350.62C167.267 350.642 171.262 337.119 170.647 333.565Z" fill="black"/>
<path opacity="0.1" d="M151.132 388.446C151.362 389.752 151.208 388.371 151.287 389.676C151.287 389.676 155.06 385.25 154.03 379.779C154.34 384.669 151.132 388.446 151.132 388.446Z" fill="black"/>
</g>
</g>
<path d="M541.286 527.896H495.191V525.196C495.191 525.125 495.174 525.056 495.141 524.991C495.108 524.926 495.059 524.867 494.998 524.817C494.937 524.768 494.864 524.728 494.784 524.701C494.704 524.674 494.619 524.66 494.532 524.66H478.728C478.642 524.66 478.556 524.674 478.477 524.701C478.397 524.728 478.324 524.768 478.263 524.817C478.202 524.867 478.153 524.926 478.12 524.991C478.087 525.056 478.07 525.125 478.07 525.196V527.896H468.193V525.196C468.193 525.125 468.176 525.056 468.142 524.991C468.109 524.926 468.061 524.867 468 524.817C467.939 524.768 467.866 524.728 467.786 524.701C467.706 524.674 467.621 524.66 467.534 524.66H451.73C451.644 524.66 451.558 524.674 451.478 524.701C451.398 524.728 451.326 524.768 451.264 524.817C451.203 524.867 451.155 524.926 451.122 524.991C451.089 525.056 451.072 525.125 451.072 525.196V527.896H441.194V525.196C441.194 525.125 441.177 525.056 441.144 524.991C441.111 524.926 441.062 524.867 441.001 524.817C440.94 524.768 440.867 524.728 440.788 524.701C440.708 524.674 440.622 524.66 440.536 524.66H424.732C424.645 524.66 424.559 524.674 424.48 524.701C424.4 524.728 424.327 524.768 424.266 524.817C424.205 524.867 424.156 524.926 424.123 524.991C424.09 525.056 424.073 525.125 424.073 525.196V527.896H414.196V525.196C414.196 525.125 414.179 525.056 414.146 524.991C414.112 524.926 414.064 524.867 414.003 524.817C413.942 524.768 413.869 524.728 413.789 524.701C413.709 524.674 413.624 524.66 413.537 524.66H397.733C397.647 524.66 397.561 524.674 397.481 524.701C397.401 524.728 397.329 524.768 397.268 524.817C397.206 524.867 397.158 524.926 397.125 524.991C397.092 525.056 397.075 525.125 397.075 525.196V527.896H387.197V525.196C387.197 525.125 387.18 525.056 387.147 524.991C387.114 524.926 387.065 524.867 387.004 524.817C386.943 524.768 386.871 524.728 386.791 524.701C386.711 524.674 386.625 524.66 386.539 524.66H370.735C370.648 524.66 370.563 524.674 370.483 524.701C370.403 524.728 370.33 524.768 370.269 524.817C370.208 524.867 370.159 524.926 370.126 524.991C370.093 525.056 370.076 525.125 370.076 525.196V527.896H360.199V525.196C360.199 525.125 360.182 525.056 360.149 524.991C360.116 524.926 360.067 524.867 360.006 524.817C359.945 524.768 359.872 524.728 359.792 524.701C359.712 524.674 359.627 524.66 359.54 524.66H343.736C343.65 524.66 343.564 524.674 343.484 524.701C343.404 524.728 343.332 524.768 343.271 524.817C343.21 524.867 343.161 524.926 343.128 524.991C343.095 525.056 343.078 525.125 343.078 525.196V527.896H333.2V525.196C333.2 525.125 333.183 525.056 333.15 524.991C333.117 524.926 333.069 524.867 333.007 524.817C332.946 524.768 332.874 524.728 332.794 524.701C332.714 524.674 332.628 524.66 332.542 524.66H208.744C208.569 524.66 208.402 524.717 208.278 524.817C208.155 524.918 208.086 525.054 208.086 525.196V527.896H198.208V525.196C198.208 525.126 198.191 525.056 198.158 524.991C198.125 524.926 198.076 524.867 198.015 524.817C197.954 524.768 197.881 524.728 197.802 524.701C197.722 524.674 197.636 524.66 197.55 524.66H181.746C181.571 524.66 181.403 524.717 181.28 524.817C181.157 524.918 181.087 525.054 181.087 525.196V527.896H171.21V525.196C171.21 525.126 171.193 525.056 171.159 524.991C171.126 524.926 171.078 524.867 171.017 524.817C170.956 524.768 170.883 524.728 170.803 524.701C170.723 524.674 170.638 524.66 170.551 524.66H154.747C154.573 524.66 154.405 524.717 154.282 524.817C154.158 524.918 154.089 525.054 154.089 525.196V527.896H144.211V525.196C144.211 525.126 144.194 525.056 144.161 524.991C144.128 524.926 144.079 524.867 144.018 524.817C143.957 524.768 143.885 524.728 143.805 524.701C143.725 524.674 143.639 524.66 143.553 524.66H127.749C127.574 524.66 127.407 524.717 127.283 524.817C127.16 524.918 127.09 525.054 127.09 525.196V527.896H117.213V525.196C117.213 525.126 117.196 525.056 117.163 524.991C117.13 524.926 117.081 524.867 117.02 524.817C116.959 524.768 116.886 524.728 116.806 524.701C116.726 524.674 116.641 524.66 116.554 524.66H100.75C100.576 524.66 100.408 524.717 100.285 524.817C100.161 524.918 100.092 525.054 100.092 525.196V527.896H90.2143V525.196C90.2143 525.126 90.1973 525.056 90.1642 524.991C90.1311 524.926 90.0826 524.867 90.0215 524.817C89.9603 524.768 89.8877 524.728 89.8078 524.701C89.728 524.674 89.6423 524.66 89.5558 524.66H73.7518C73.5772 524.66 73.4097 524.717 73.2862 524.817C73.1627 524.918 73.0933 525.054 73.0933 525.196V527.896H63.2158V525.196C63.2159 525.126 63.1988 525.056 63.1657 524.991C63.1326 524.926 63.0841 524.867 63.023 524.817C62.9618 524.768 62.8893 524.728 62.8094 524.701C62.7295 524.674 62.6438 524.66 62.5574 524.66H46.7534C46.5787 524.66 46.4113 524.717 46.2878 524.817C46.1643 524.918 46.0949 525.054 46.0949 525.196V527.896H15.804C11.6125 527.896 7.5927 529.25 4.62888 531.66C1.66506 534.07 0 537.338 0 540.746V546.556C6.7923e-06 549.964 1.66507 553.233 4.62889 555.643C7.59271 558.052 11.6125 559.406 15.804 559.406H541.286C545.477 559.406 549.497 558.052 552.461 555.643C555.425 553.233 557.09 549.964 557.09 546.556V540.746C557.09 537.338 555.425 534.07 552.461 531.66C549.497 529.25 545.477 527.896 541.286 527.896Z" fill="#3F3D56"/>
<g clip-path="url(#clip1)">
<path d="M300 409H209C205.134 409 202 412.134 202 416V486C202 489.866 205.134 493 209 493H300C303.866 493 307 489.866 307 486V416C307 412.134 303.866 409 300 409Z" fill="#E6E6E6"/>
<g clip-path="url(#clip2)">
<path d="M254.615 448.181C254.615 448.181 250.737 448.186 248.856 447.513C246.975 446.841 242.797 448.206 242.797 448.206L232.008 450.291C232.008 450.291 221.568 456.308 221.141 450.844C220.903 447.784 230.771 446.986 230.771 446.986L248.748 441.757L255.156 440.662L254.615 448.181Z" fill="#FFB9B9"/>
<path d="M257.575 471.75L254.881 474.332L255.362 485.582C255.362 485.582 255.915 500.336 255.731 500.889C255.546 501.443 252.227 523.943 252.227 523.943C252.227 523.943 256.1 525.787 259.604 524.68C259.604 524.68 263.108 508.082 263.108 503.287L267.165 486.504L273.436 505.685C273.436 505.685 273.804 518.594 274.542 522.836C275.28 527.078 275.28 527.631 275.28 527.631C275.28 527.631 281.181 529.291 282.657 527.631C282.657 527.631 281.919 505.869 281.366 503.656L280.075 477.283L257.575 471.75Z" fill="#2F2E41"/>
<path d="M268.364 430.715C271.725 430.715 274.45 427.99 274.45 424.629C274.45 421.268 271.725 418.543 268.364 418.543C265.003 418.543 262.278 421.268 262.278 424.629C262.278 427.99 265.003 430.715 268.364 430.715Z" fill="#FFB9B9"/>
<path d="M264.768 427.857C264.768 427.857 266.612 434.312 265.136 436.709C263.661 439.107 275.095 437.078 275.833 434.865C275.833 434.865 272.145 430.808 272.698 426.935L264.768 427.857Z" fill="#FFB9B9"/>
<path d="M267.718 436.525C267.718 436.525 272.767 436.866 275.222 434.113L281.791 436.921C282.508 437.227 283.101 437.769 283.471 438.456C283.841 439.143 283.966 439.935 283.827 440.703L280.444 459.394C280.444 459.394 281.992 471.197 281.182 479.127C280.449 486.292 253.886 479.127 254.809 473.041C254.907 472.389 254.999 471.722 255.083 471.051C255.858 465.057 256.979 459.112 258.441 453.247C258.931 451.243 255.5 439 255.5 439L265.693 434.466C265.693 434.466 266.059 436.525 267.718 436.525Z" fill="#61D1DB"/>
<path d="M262.337 438.561L261.058 436.754L248.904 441.288C248.904 441.288 251.277 447.516 252.563 447.736C253.055 447.821 258.869 449.028 260.594 447.358C263.371 444.67 262.337 438.561 262.337 438.561Z" fill="#61D1DB"/>
<path d="M266.869 420.647C267.772 420.506 268.682 420.415 269.596 420.377C270.257 420.348 270.947 420.353 271.545 420.638C272.447 421.067 272.952 422.038 273.283 422.98C273.613 423.923 273.848 424.93 274.462 425.718C275.483 424.652 275.687 423.068 275.839 421.6C275.945 420.567 276.04 419.466 275.563 418.545C275.269 417.977 274.784 417.535 274.292 417.126C271.946 415.173 268.967 413.637 265.947 414.075L265.876 414.542C265.361 414.526 264.845 414.559 264.335 414.638L264.443 415.795L262.839 415.897L262.777 417.103L261.155 417.159C261.186 417.622 261.388 418.058 261.721 418.381C261.471 418.562 261.188 418.69 260.887 418.758C261.158 419.805 261.421 420.855 261.7 421.9C261.906 422.67 261.869 423.35 262.695 422.974C263.324 422.688 263.749 421.778 264.385 421.403C265.133 420.96 266.02 420.78 266.869 420.647Z" fill="#2F2E41"/>
<path d="M286.85 447.519L286.939 454.018L285.067 472.647C285.067 472.647 286.077 482.496 283.024 482.817C277.574 483.392 281.591 472.031 281.591 472.031L281.68 461.043C281.68 461.043 282.262 456.686 281.259 454.959C280.255 453.232 279.555 449.418 279.555 449.418L286.85 447.519Z" fill="#FFB9B9"/>
<path d="M281.735 437.447C282.482 437.447 283.209 437.689 283.806 438.138C284.403 438.587 284.838 439.218 285.045 439.936C286.223 444.017 288.362 451.697 287.821 451.832C287.083 452.017 278.415 452.57 278.415 452.57L281.735 437.447Z" fill="#61D1DB"/>
<path d="M214.819 457.1L214.863 457.111C215.669 457.305 216.392 457.749 216.93 458.379C217.469 459.008 217.795 459.792 217.862 460.618C217.929 461.443 217.733 462.269 217.304 462.977C216.874 463.686 216.231 464.24 215.468 464.562C215.168 464.689 214.852 464.778 214.529 464.827C213.957 464.914 213.372 464.874 212.816 464.709C212.261 464.544 211.748 464.259 211.316 463.873C210.883 463.487 210.541 463.011 210.315 462.477C210.088 461.944 209.981 461.368 210.003 460.789C210.024 460.209 210.174 459.642 210.44 459.128C210.706 458.613 211.083 458.163 211.543 457.811C212.003 457.459 212.535 457.212 213.101 457.089C213.668 456.967 214.254 456.97 214.819 457.1V457.1Z" fill="#61D1DB"/>
<path d="M214.423 468.737C214.804 471.207 215.021 473.7 215.072 476.198C214.772 476.326 214.456 476.415 214.134 476.463C214.157 473.839 213.928 471.218 213.45 468.638C213.777 468.63 214.104 468.663 214.423 468.737Z" fill="#E6E6E6"/>
<path d="M230.483 457.922L216.983 458.47L217.363 462.939L230.78 460.915C231.019 460.882 231.234 460.758 231.382 460.568C231.529 460.377 231.596 460.137 231.569 459.898L231.551 459.74L232.08 459.719C232.145 459.716 232.209 459.7 232.267 459.671C232.326 459.642 232.377 459.601 232.419 459.551C232.46 459.501 232.491 459.443 232.508 459.38C232.526 459.317 232.53 459.252 232.521 459.187L232.518 459.165C232.501 459.046 232.438 458.938 232.343 458.864C232.248 458.791 232.128 458.756 232.008 458.769L231.446 458.829L231.435 458.737C231.408 458.506 231.296 458.294 231.119 458.142C230.943 457.991 230.715 457.913 230.483 457.922Z" fill="#3F3D56"/>
<path d="M223.005 460.553C222.991 460.611 222.959 460.663 222.913 460.701C222.866 460.739 222.809 460.76 222.75 460.763L221.78 460.803C221.714 460.806 221.649 460.784 221.597 460.743C221.546 460.702 221.511 460.643 221.499 460.578L221.4 460.042C221.393 460.005 221.394 459.967 221.403 459.93C221.412 459.894 221.428 459.859 221.45 459.829C221.473 459.798 221.502 459.773 221.534 459.754C221.567 459.736 221.604 459.724 221.641 459.72L222.622 459.615C222.693 459.608 222.764 459.628 222.82 459.671C222.876 459.715 222.913 459.779 222.923 459.849L222.923 459.849L223.01 460.449C223.015 460.484 223.013 460.519 223.005 460.553ZM221.581 459.971C221.578 459.984 221.578 459.997 221.58 460.009L221.679 460.545C221.683 460.567 221.694 460.586 221.712 460.6C221.729 460.614 221.75 460.621 221.772 460.62L222.742 460.58C222.755 460.58 222.767 460.576 222.779 460.571C222.79 460.565 222.8 460.557 222.809 460.547C222.817 460.537 222.823 460.526 222.826 460.513C222.83 460.501 222.831 460.488 222.829 460.476L222.742 459.875C222.739 459.852 222.726 459.831 222.708 459.816C222.689 459.802 222.665 459.795 222.642 459.797L221.661 459.902C221.648 459.903 221.636 459.907 221.625 459.913C221.614 459.92 221.604 459.928 221.597 459.938C221.59 459.948 221.584 459.959 221.581 459.971Z" fill="#E6E6E6"/>
</g>
</g>
<g clip-path="url(#clip3)">
<path d="M300 309H209C205.134 309 202 312.134 202 316V386C202 389.866 205.134 393 209 393H300C303.866 393 307 389.866 307 386V316C307 312.134 303.866 309 300 309Z" fill="#E6E6E6"/>
<path d="M265.312 349.569C270.159 349.569 274.089 344.404 274.089 338.032C274.089 331.661 270.159 326.496 265.312 326.496C260.464 326.496 256.534 331.661 256.534 338.032C256.534 344.404 260.464 349.569 265.312 349.569Z" fill="#2F2E41"/>
<path d="M261.362 346.42C261.362 346.42 260.684 353.111 259.326 354.003C257.969 354.895 260.005 359.802 260.005 359.802L266.114 361.14L271.544 355.341C271.544 355.341 270.526 346.866 270.526 346.42C270.526 345.974 261.362 346.42 261.362 346.42Z" fill="#9F616A"/>
<path opacity="0.1" d="M261.362 346.42C261.362 346.42 260.684 353.111 259.326 354.003C257.969 354.895 260.005 359.802 260.005 359.802L266.114 361.14L271.544 355.341C271.544 355.341 270.526 346.866 270.526 346.42C270.526 345.974 261.362 346.42 261.362 346.42Z" fill="black"/>
<path d="M265.095 352.219C269.594 352.219 273.24 347.426 273.24 341.513C273.24 335.601 269.594 330.808 265.095 330.808C260.597 330.808 256.95 335.601 256.95 341.513C256.95 347.426 260.597 352.219 265.095 352.219Z" fill="#9F616A"/>
<path d="M264.926 359.579C264.926 359.579 261.532 351.996 259.835 352.442C258.138 352.888 252.878 354.003 252.199 353.557C251.52 353.111 247.108 373.63 247.108 373.63C247.108 373.63 242.357 414.222 245.412 419.129C248.466 424.035 258.987 421.359 260.344 426.266C261.702 431.172 283.083 423.589 283.083 420.913C283.083 418.236 283.422 377.199 283.761 374.076C284.101 370.954 280.707 354.449 280.707 354.449C280.707 354.449 272.732 351.55 271.374 352.442C270.017 353.334 269.338 356.01 264.926 359.579Z" fill="#6361DB"/>
<path d="M252.878 354.895L252.199 353.557C252.199 353.557 245.072 354.895 243.036 354.449C241 354.003 234.891 354.895 234.891 354.895C234.891 354.895 236.248 349.989 237.606 349.542C238.963 349.096 240.66 347.758 240.66 347.758C240.66 347.758 237.266 341.067 240.66 338.837C240.66 338.837 225.049 346.866 224.031 354.449C223.012 362.032 247.787 373.63 247.787 373.63L252.878 354.895Z" fill="#6361DB"/>
<path d="M277.992 355.341L280.707 354.449L294.282 356.233L289.87 349.989C289.87 349.989 292.585 345.528 290.888 343.298C290.888 343.298 308.876 352.219 306.839 358.018C304.803 363.817 283.422 374.076 282.404 374.522C281.386 374.968 277.992 355.341 277.992 355.341Z" fill="#6361DB"/>
<path d="M242.509 340.038C243.349 340.258 244.067 340.948 244.755 341.619C245.421 342.245 246.06 342.92 246.669 343.64C249.756 347.433 250.89 353.155 251.872 358.556C251.173 359.33 250.032 358.687 249.563 357.656C249.094 356.625 249.061 355.366 248.877 354.189C248.693 353.013 248.242 351.748 247.371 351.385C247.554 352.132 247.112 352.943 246.559 353.239C246.007 353.536 245.384 353.454 244.791 353.367C244.515 353.347 244.244 353.266 243.989 353.127C243.528 352.834 243.259 352.204 243.008 351.618C242.355 350.091 241.636 348.613 240.856 347.192C240.679 346.825 240.448 346.508 240.178 346.259C239.091 345.386 237.923 344.246 238.464 342.175C238.911 340.466 241.323 339.729 242.509 340.038Z" fill="#9F616A"/>
<path d="M287.632 342.693C286.41 342.773 285.357 343.818 284.463 344.914C280.72 349.533 278.309 355.715 277.642 362.406C277.599 362.855 277.585 363.383 277.846 363.677C278.14 364.008 278.625 363.812 278.866 363.415C279.078 362.987 279.21 362.5 279.253 361.992C279.49 360.476 279.895 359.012 280.454 357.649C280.741 356.95 281.14 356.215 281.737 356.091C282.626 355.906 283.291 357.144 284.14 357.536C285.142 357.998 286.265 357.17 286.874 356.026C287.483 354.883 287.721 353.481 288.057 352.157C288.392 350.833 288.89 349.474 289.806 348.768C290.781 348.016 293.026 347.493 292.074 345.382C291.382 343.849 288.91 342.609 287.632 342.693Z" fill="#9F616A"/>
<path d="M256.274 335.59C256.274 335.59 254.109 328.193 257.248 325.775L258.114 329.047C258.114 329.047 266.014 322.788 268.07 324.21L266.122 327.624C266.122 327.624 275.321 327.624 275.97 332.318L272.723 332.46C272.723 332.46 276.187 335.447 276.295 340.284L269.369 340.853L272.723 343.413C272.723 343.413 260.17 345.689 257.14 339.146L256.274 335.59Z" fill="#2F2E41"/>
<path d="M235.4 343.967L240.491 338.614C240.491 338.614 238.794 345.305 240.491 347.535L234.042 349.319L235.4 343.967Z" fill="#575A88"/>
<path d="M294.791 347.089L290.379 342.629C290.379 342.629 291.058 348.427 289.701 349.766C288.343 351.104 293.434 351.55 293.434 351.55L294.791 347.089Z" fill="#6361DB"/>
</g>
<g clip-path="url(#clip4)">
<path d="M184 409H93C89.134 409 86 412.134 86 416V486.157C86 490.023 89.134 493.157 93 493.157H184C187.866 493.157 191 490.023 191 486.157V416C191 412.134 187.866 409 184 409Z" fill="#E6E6E6"/>
<path d="M146.352 435.051C143.003 429.39 136.379 429.126 136.379 429.126C136.379 429.126 129.924 428.3 125.783 436.922C121.923 444.958 116.596 452.717 124.925 454.598L126.43 449.913L127.361 454.947C128.547 455.032 129.737 455.052 130.925 455.007C139.845 454.719 148.339 455.092 148.066 451.889C147.702 447.632 149.573 440.498 146.352 435.051Z" fill="#683800"/>
<path d="M133.999 454.338C134.015 454.976 134.011 455.648 133.694 456.201C133.067 457.297 131.535 457.462 130.614 458.326C129.645 459.235 129.536 460.71 129.49 462.038C129.441 463.426 129.4 464.86 129.907 466.154C130.217 466.866 130.609 467.54 131.075 468.162C131.638 468.973 132.205 469.781 132.778 470.585C133.084 471.038 133.425 471.466 133.798 471.865C134.824 472.911 136.231 473.489 137.636 473.902C138.543 474.169 139.524 474.377 140.424 474.087C141.02 473.854 141.57 473.517 142.046 473.089C142.716 472.557 143.396 472.014 143.882 471.309C144.638 470.212 144.847 468.837 145.004 467.513C145.467 463.598 145.648 459.654 145.544 455.713C145.563 455.284 145.486 454.855 145.318 454.459C144.852 453.548 143.603 453.354 142.944 452.57C142.382 451.899 142.359 450.943 142.363 450.068L142.376 447.839C142.395 447.651 142.357 447.462 142.267 447.296C142.186 447.207 142.087 447.134 141.978 447.083C141.868 447.032 141.749 447.003 141.628 446.998C140.244 446.768 138.841 446.674 137.438 446.717C136.301 446.752 134.119 446.657 133.136 447.291C132.243 447.866 133.361 449.454 133.568 450.347C133.846 451.659 133.99 452.997 133.999 454.338Z" fill="#C78C89"/>
<path d="M136.61 450.513C141.582 450.513 145.612 446.48 145.612 441.505C145.612 436.53 141.582 432.498 136.61 432.498C131.638 432.498 127.607 436.53 127.607 441.505C127.607 446.48 131.638 450.513 136.61 450.513Z" fill="#C78C89"/>
<path d="M132.903 463.815C132.33 462.963 131.859 462.047 131.499 461.086C131.177 460.113 131.092 459.025 131.474 458.073C130.501 457.508 129.181 457.966 128.472 458.84C127.764 459.714 127.547 460.886 127.485 462.009C127.422 463.133 127.488 464.273 127.244 465.371C126.703 467.802 124.697 469.8 124.548 472.285C124.401 474.73 126.077 476.86 126.901 479.166C127.401 480.604 127.609 482.126 127.515 483.645C127.489 484.136 127.458 484.695 127.804 485.043C127.984 485.2 128.196 485.315 128.427 485.379C132.405 486.779 136.701 486.9 140.917 487.007L147.88 487.184C148.301 487.234 148.727 487.163 149.109 486.978C149.734 486.594 149.817 485.735 149.828 485.002C149.919 478.689 149.651 472.376 149.383 466.067C149.285 463.781 149.186 461.481 148.702 459.244C148.578 458.675 148.376 458.041 147.851 457.79C147.406 457.577 146.878 457.715 146.416 457.886C144.258 458.689 142.392 460.126 141.064 462.008C139.636 464.042 138.933 466.482 137.535 468.532C136.52 470.02 135.933 468.723 135.257 467.628C134.473 466.357 133.688 465.086 132.903 463.815Z" fill="white"/>
<path d="M131.825 458.229C131.648 458.354 131.473 458.487 131.306 458.627C130.679 459.145 130.118 459.736 129.633 460.389C128.832 461.483 128.194 462.687 127.74 463.965C126.923 466.204 126.569 468.581 126.229 470.939C126.081 471.807 126.002 472.686 125.991 473.567C126.043 476.805 127.956 479.805 127.958 483.046C127.958 483.169 127.956 483.29 127.949 483.413C127.926 483.943 127.863 484.471 127.762 484.993C127.621 485.753 127.42 486.504 127.221 487.252C126.719 489.127 126.178 491.071 125.199 492.717C125.101 492.885 124.995 493.049 124.887 493.209H118C118.054 493.045 118.111 492.882 118.165 492.717C119.338 489.24 120.51 485.764 121.682 482.288C122.041 481.225 122.4 480.157 122.653 479.064C122.943 477.715 123.141 476.348 123.246 474.972C123.517 472.12 123.695 469.262 123.78 466.399C123.812 465.37 123.834 464.319 124.166 463.345C124.477 462.551 124.889 461.8 125.391 461.11C126.102 460.04 126.812 458.969 127.523 457.899C127.919 457.303 128.335 456.69 128.945 456.319C129.454 456.006 130.059 455.893 130.595 455.63C130.932 455.438 131.256 455.224 131.564 454.988C132.366 454.419 133.308 453.821 133.999 454.402C134.111 454.495 134.207 454.605 134.284 454.729C134.324 454.79 134.359 454.853 134.39 454.919C135.054 456.356 132.718 457.596 131.825 458.229Z" fill="#2F2E41"/>
<path d="M154.511 493.212H122.616C122.788 493.055 122.958 492.89 123.123 492.72C123.147 492.695 123.17 492.671 123.194 492.646C124.414 491.379 124.692 489.821 125.304 488.172C125.764 486.93 126.224 485.688 126.684 484.447C126.757 484.205 126.876 483.98 127.036 483.785C127.169 483.647 127.336 483.547 127.52 483.494C127.66 483.451 127.803 483.425 127.948 483.415C128.156 483.402 128.363 483.402 128.571 483.415C134.294 483.711 140.013 484.071 145.728 484.496C146.466 484.552 147.204 484.609 147.941 484.666C148.544 485.113 149.139 485.588 149.707 486.09C151.554 487.715 153.156 489.627 154.073 491.886C154.184 492.159 154.284 492.437 154.368 492.72C154.422 492.882 154.469 493.047 154.511 493.212Z" fill="#2F2E41"/>
<path d="M144.872 434.507L138.327 431.076L129.289 432.48L127.419 440.743L132.074 440.564L133.374 437.528V440.514L135.522 440.431L136.769 435.598L137.548 440.743L145.183 440.587L144.872 434.507Z" fill="#683800"/>
<path d="M154.511 493.213H147.31C147.258 493.051 147.209 492.886 147.162 492.721C146.654 490.891 146.28 489.025 146.046 487.14C145.969 486.601 145.903 486.059 145.841 485.521C145.802 485.179 145.765 484.839 145.728 484.497C145.315 480.697 144.998 476.861 143.837 473.224C143.697 472.783 143.544 472.345 143.397 471.907C143.124 471.153 142.91 470.379 142.757 469.592C142.442 467.79 142.679 465.925 142.354 464.126C142.172 463.122 141.81 462.238 141.592 461.318C141.452 460.763 141.397 460.189 141.429 459.618C141.959 459.117 142.626 458.787 143.345 458.668C143.594 458.626 143.874 458.594 144.024 458.395C144.112 458.243 144.152 458.068 144.137 457.893C144.154 456.732 144.088 455.571 143.938 454.42C143.889 454.017 143.827 453.613 143.753 453.212C143.751 453.192 143.746 453.175 143.744 453.156C144.344 452.895 145.02 452.892 145.672 452.895C146.383 452.897 147.091 452.897 147.799 452.9C149.11 452.905 150.421 452.909 151.732 452.912C152.952 452.914 154.214 452.927 155.323 453.431C156.469 453.955 157.34 454.967 157.915 456.089C158.491 457.211 158.803 458.446 159.086 459.674C159.164 460.014 159.205 460.362 159.209 460.71C159.263 463.481 157.197 466.272 156.99 469.104C156.924 470.022 157 470.947 156.917 471.865C156.833 472.786 156.587 473.686 156.543 474.607C156.54 474.653 156.538 474.703 156.538 474.749C156.511 475.948 156.86 477.122 157.263 478.251C157.888 480.006 158.648 481.706 159.433 483.397C160.19 485.033 160.967 486.662 161.666 488.321C162.029 489.091 162.274 489.912 162.391 490.755C162.469 491.433 162.339 492.118 162.02 492.721C161.938 492.87 161.84 493.009 161.727 493.137L161.722 493.142C161.7 493.166 161.678 493.191 161.656 493.213H154.511Z" fill="#2F2E41"/>
<path d="M161.37 490.684C161.34 491.012 161.251 491.331 161.107 491.627C161.095 491.656 161.083 491.684 161.07 491.713C160.928 492.05 160.783 492.382 160.633 492.717C160.559 492.88 160.485 493.044 160.409 493.209H156.336C156.483 493.055 156.62 492.891 156.744 492.717C157.369 491.848 157.73 490.793 158.367 489.855C158.454 489.727 158.554 489.608 158.665 489.501C159.686 488.511 161.434 488.713 161.37 490.684Z" fill="#FFB8B8"/>
<path d="M164.022 493.21C164.074 493.048 164.117 492.884 164.152 492.718C164.182 492.587 164.206 492.459 164.226 492.329C164.356 491.47 164.354 490.592 164.558 489.747C164.846 488.539 165.709 487.109 164.998 486.093C165.551 485.98 166.072 485.746 166.525 485.409C166.948 485.04 167.194 484.4 166.939 483.898C166.685 483.403 165.999 483.076 166.093 482.527C166.139 482.353 166.221 482.191 166.334 482.05C166.707 481.461 166.899 480.776 166.889 480.079C166.878 479.382 166.663 478.704 166.272 478.127C166.048 477.807 165.773 477.527 165.569 477.192C165.345 476.783 165.174 476.347 165.06 475.895C164.349 473.605 163.302 471.434 161.953 469.453C161.654 469.071 161.422 468.642 161.267 468.183C161.176 467.685 161.158 467.177 161.213 466.674C161.262 464.686 160.519 462.744 159.449 461.071C159.371 460.948 159.29 460.827 159.208 460.707C158.175 459.184 156.894 457.847 155.618 456.521C155.091 456.767 154.626 456.927 154.353 457.439C154.22 457.728 154.137 458.037 154.11 458.354C153.761 460.791 153.458 463.242 153.222 465.69C153.104 466.928 152.983 468.176 153.124 469.411C153.264 470.646 153.684 471.884 154.521 472.802C155.045 473.378 155.709 473.806 156.277 474.338C156.368 474.424 156.456 474.512 156.542 474.603C156.952 475.04 157.315 475.517 157.627 476.028C158.99 478.231 159.622 480.809 159.432 483.394C159.398 483.859 159.336 484.323 159.248 484.781C159.14 485.438 158.918 486.071 158.594 486.652C158.335 487.077 157.996 487.449 157.762 487.889C157.529 488.33 157.418 488.879 157.649 489.319C157.996 489.319 158.34 489.381 158.665 489.501C159.431 489.797 160.096 490.305 160.583 490.966C160.763 491.203 160.926 491.453 161.07 491.714C161.253 492.038 161.415 492.373 161.557 492.718C161.616 492.853 161.673 492.993 161.727 493.134C161.739 493.158 161.749 493.183 161.756 493.21H164.022Z" fill="#2F2E41"/>
<path d="M143.913 450.398L138.698 452.674L137.474 452.795L131.915 451.586L132.16 456.536L137.595 454.02L138.819 453.899L144.642 455.3L143.913 450.398Z" fill="#61D1DB"/>
<path d="M128.51 432.165L128.552 431.954C128.564 431.891 129.768 425.599 126.666 419.703L126.442 419.276L126.919 419.344C127.056 419.364 130.187 419.867 132.432 424.813C132.629 424.059 132.828 422.474 132.212 419.803L132.124 419.422L132.505 419.507C132.623 419.533 135.325 420.171 136.397 423.454L140.65 419.853V425.703C141.794 425.121 145.302 423.555 147.534 424.95L147.874 425.163L147.53 425.369C147.501 425.387 144.76 427.05 144.217 428.734C144.857 428.739 146.384 428.761 147.895 428.852C151.778 429.085 152.103 429.532 152.103 429.933V430.073L151.982 430.145C151.913 430.185 145.096 434.252 144.945 437.425L144.929 437.751L128.51 432.165ZM143.904 429.224H143.614L143.661 428.937C143.931 427.317 146.051 425.755 146.916 425.178C144.479 424.101 140.568 426.303 140.526 426.327L140.159 426.537V420.914L136.133 424.322L136.032 423.95C135.326 421.362 133.568 420.413 132.783 420.111C133.593 423.99 132.702 425.537 132.662 425.603L132.41 426.023L132.224 425.57C130.597 421.617 128.354 420.36 127.359 419.983C129.917 425.263 129.249 430.704 129.07 431.836L144.487 437.081C144.981 434.038 150.281 430.613 151.495 429.865C150.746 429.466 147.13 429.224 143.904 429.224Z" fill="#61D1DB"/>
<path d="M125.207 416.883C125.207 416.708 125.259 416.537 125.355 416.392C125.452 416.247 125.59 416.134 125.751 416.067C125.913 416 126.09 415.983 126.261 416.017C126.432 416.051 126.589 416.135 126.713 416.259C126.836 416.382 126.92 416.539 126.954 416.71C126.988 416.882 126.971 417.059 126.904 417.22C126.837 417.382 126.724 417.52 126.579 417.617C126.434 417.714 126.263 417.765 126.089 417.765C125.855 417.765 125.631 417.672 125.465 417.507C125.3 417.341 125.207 417.117 125.207 416.883ZM125.699 416.883C125.699 416.96 125.722 417.035 125.764 417.1C125.807 417.164 125.868 417.214 125.94 417.243C126.011 417.273 126.089 417.281 126.165 417.266C126.241 417.251 126.31 417.213 126.365 417.159C126.42 417.104 126.457 417.035 126.472 416.959C126.487 416.883 126.479 416.805 126.45 416.733C126.42 416.662 126.37 416.601 126.306 416.558C126.242 416.515 126.166 416.492 126.089 416.492C125.985 416.492 125.886 416.533 125.813 416.607C125.74 416.68 125.699 416.779 125.699 416.883Z" fill="#61D1DB"/>
<path d="M131.57 416.883C131.57 416.708 131.621 416.537 131.718 416.392C131.815 416.247 131.953 416.134 132.114 416.067C132.275 416 132.453 415.983 132.624 416.017C132.795 416.051 132.952 416.135 133.076 416.259C133.199 416.382 133.283 416.539 133.317 416.71C133.351 416.882 133.334 417.059 133.267 417.22C133.2 417.382 133.087 417.52 132.942 417.617C132.797 417.714 132.626 417.765 132.452 417.765C132.218 417.765 131.994 417.672 131.828 417.507C131.663 417.341 131.57 417.117 131.57 416.883ZM132.061 416.883C132.061 416.96 132.084 417.035 132.127 417.1C132.17 417.164 132.231 417.214 132.302 417.243C132.374 417.273 132.452 417.281 132.528 417.266C132.604 417.251 132.673 417.213 132.728 417.159C132.782 417.104 132.819 417.035 132.835 416.959C132.85 416.883 132.842 416.805 132.812 416.733C132.783 416.662 132.733 416.601 132.669 416.558C132.604 416.515 132.529 416.492 132.452 416.492C132.348 416.492 132.249 416.533 132.176 416.607C132.103 416.68 132.062 416.779 132.061 416.883Z" fill="#61D1DB"/>
<path d="M140.795 418.474C140.795 418.299 140.847 418.128 140.944 417.983C141.041 417.838 141.178 417.725 141.34 417.658C141.501 417.591 141.678 417.574 141.849 417.608C142.02 417.642 142.178 417.726 142.301 417.849C142.424 417.973 142.508 418.13 142.542 418.301C142.576 418.473 142.559 418.65 142.492 418.811C142.425 418.973 142.312 419.11 142.167 419.207C142.022 419.304 141.852 419.356 141.677 419.356C141.443 419.356 141.219 419.263 141.054 419.097C140.888 418.932 140.795 418.708 140.795 418.474ZM141.287 418.474C141.287 418.551 141.31 418.626 141.353 418.69C141.395 418.755 141.456 418.805 141.528 418.834C141.599 418.864 141.678 418.872 141.753 418.857C141.829 418.841 141.899 418.804 141.953 418.75C142.008 418.695 142.045 418.625 142.06 418.55C142.075 418.474 142.067 418.395 142.038 418.324C142.008 418.253 141.958 418.192 141.894 418.149C141.83 418.106 141.754 418.083 141.677 418.083C141.574 418.083 141.474 418.124 141.401 418.198C141.328 418.271 141.287 418.37 141.287 418.474Z" fill="#61D1DB"/>
<path d="M153.202 429.298C153.202 429.123 153.254 428.953 153.351 428.807C153.448 428.662 153.585 428.549 153.747 428.482C153.908 428.415 154.085 428.398 154.256 428.432C154.427 428.466 154.585 428.55 154.708 428.674C154.831 428.797 154.915 428.954 154.949 429.126C154.983 429.297 154.966 429.474 154.899 429.636C154.832 429.797 154.719 429.935 154.574 430.032C154.429 430.129 154.259 430.18 154.084 430.18C153.85 430.18 153.626 430.087 153.461 429.922C153.295 429.756 153.202 429.532 153.202 429.298ZM153.694 429.298C153.694 429.375 153.717 429.451 153.76 429.515C153.802 429.579 153.863 429.629 153.935 429.659C154.006 429.688 154.085 429.696 154.16 429.681C154.236 429.666 154.306 429.629 154.36 429.574C154.415 429.519 154.452 429.45 154.467 429.374C154.482 429.298 154.474 429.22 154.445 429.148C154.415 429.077 154.365 429.016 154.301 428.973C154.237 428.93 154.161 428.907 154.084 428.907C153.981 428.907 153.881 428.949 153.808 429.022C153.735 429.095 153.694 429.194 153.694 429.298Z" fill="#61D1DB"/>
<path d="M148.748 423.884C148.748 423.709 148.8 423.538 148.897 423.393C148.994 423.248 149.132 423.135 149.293 423.068C149.454 423.001 149.632 422.984 149.803 423.018C149.974 423.052 150.131 423.136 150.254 423.26C150.378 423.383 150.462 423.54 150.496 423.712C150.53 423.883 150.512 424.06 150.446 424.222C150.379 424.383 150.266 424.521 150.121 424.618C149.976 424.715 149.805 424.766 149.631 424.766C149.397 424.766 149.172 424.673 149.007 424.508C148.842 424.342 148.749 424.118 148.748 423.884ZM149.24 423.884C149.24 423.961 149.263 424.037 149.306 424.101C149.349 424.165 149.41 424.215 149.481 424.245C149.552 424.274 149.631 424.282 149.707 424.267C149.782 424.252 149.852 424.215 149.907 424.16C149.961 424.105 149.998 424.036 150.013 423.96C150.029 423.884 150.021 423.806 149.991 423.734C149.962 423.663 149.912 423.602 149.847 423.559C149.783 423.516 149.708 423.493 149.631 423.493C149.527 423.493 149.428 423.535 149.355 423.608C149.281 423.681 149.24 423.78 149.24 423.884Z" fill="#61D1DB"/>
</g>
<path d="M472 309H334C328.477 309 324 313.477 324 319V482C324 487.523 328.477 492 334 492H472C477.523 492 482 487.523 482 482V319C482 313.477 477.523 309 472 309Z" fill="#DB61CF"/>
<path d="M337.458 392.5V375.784H331.746V372.9H346.782V375.784H341.042V392.5H337.458ZM350.483 392.5L346.423 378.612H349.979L352.387 388.608L355.187 378.612H359.163L361.963 388.608L364.399 378.612H367.955L363.867 392.5H360.143L357.175 382.112L354.207 392.5H350.483ZM376.388 392.836C375.044 392.836 373.831 392.528 372.748 391.912C371.684 391.296 370.835 390.447 370.2 389.364C369.584 388.263 369.276 386.993 369.276 385.556C369.276 384.119 369.594 382.859 370.228 381.776C370.863 380.675 371.712 379.816 372.776 379.2C373.859 378.584 375.072 378.276 376.416 378.276C377.742 378.276 378.936 378.584 380 379.2C381.083 379.816 381.932 380.675 382.548 381.776C383.183 382.859 383.5 384.119 383.5 385.556C383.5 386.993 383.183 388.263 382.548 389.364C381.932 390.447 381.083 391.296 380 391.912C378.918 392.528 377.714 392.836 376.388 392.836ZM376.388 389.728C377.322 389.728 378.134 389.383 378.824 388.692C379.515 387.983 379.86 386.937 379.86 385.556C379.86 384.175 379.515 383.139 378.824 382.448C378.134 381.739 377.331 381.384 376.416 381.384C375.464 381.384 374.643 381.739 373.952 382.448C373.28 383.139 372.944 384.175 372.944 385.556C372.944 386.937 373.28 387.983 373.952 388.692C374.643 389.383 375.455 389.728 376.388 389.728ZM399.565 392.5C398.109 392.5 396.942 392.145 396.065 391.436C395.187 390.727 394.749 389.467 394.749 387.656V381.608H392.369V378.612H394.749L395.169 374.888H398.333V378.612H402.085V381.608H398.333V387.684C398.333 388.356 398.473 388.823 398.753 389.084C399.051 389.327 399.555 389.448 400.265 389.448H402.001V392.5H399.565ZM405.162 392.5V378.612H408.354L408.69 381.216C409.194 380.32 409.875 379.611 410.734 379.088C411.611 378.547 412.638 378.276 413.814 378.276V382.056H412.806C412.022 382.056 411.322 382.177 410.706 382.42C410.09 382.663 409.604 383.083 409.25 383.68C408.914 384.277 408.746 385.108 408.746 386.172V392.5H405.162ZM421.471 392.836C419.735 392.836 418.391 392.295 417.439 391.212C416.506 390.129 416.039 388.543 416.039 386.452V378.612H419.595V386.116C419.595 387.311 419.838 388.225 420.323 388.86C420.809 389.495 421.574 389.812 422.619 389.812C423.609 389.812 424.421 389.457 425.055 388.748C425.709 388.039 426.035 387.049 426.035 385.78V378.612H429.619V392.5H426.455L426.175 390.148C425.746 390.969 425.121 391.623 424.299 392.108C423.497 392.593 422.554 392.836 421.471 392.836ZM439.487 392.5C438.031 392.5 436.864 392.145 435.987 391.436C435.109 390.727 434.671 389.467 434.671 387.656V381.608H432.291V378.612H434.671L435.091 374.888H438.255V378.612H442.007V381.608H438.255V387.684C438.255 388.356 438.395 388.823 438.675 389.084C438.973 389.327 439.477 389.448 440.187 389.448H441.923V392.5H439.487ZM445.084 392.5V372.34H448.668V380.74C449.134 379.975 449.76 379.377 450.544 378.948C451.346 378.5 452.261 378.276 453.288 378.276C455.005 378.276 456.33 378.817 457.264 379.9C458.216 380.983 458.692 382.569 458.692 384.66V392.5H455.136V384.996C455.136 383.801 454.893 382.887 454.408 382.252C453.941 381.617 453.194 381.3 452.168 381.3C451.16 381.3 450.32 381.655 449.648 382.364C448.994 383.073 448.668 384.063 448.668 385.332V392.5H445.084ZM467.859 392.836C466.627 392.836 465.544 392.64 464.611 392.248C463.677 391.837 462.931 391.277 462.371 390.568C461.811 389.859 461.475 389.037 461.363 388.104H464.975C465.087 388.645 465.385 389.112 465.871 389.504C466.375 389.877 467.019 390.064 467.803 390.064C468.587 390.064 469.156 389.905 469.511 389.588C469.884 389.271 470.071 388.907 470.071 388.496C470.071 387.899 469.809 387.497 469.287 387.292C468.764 387.068 468.036 386.853 467.103 386.648C466.505 386.517 465.899 386.359 465.283 386.172C464.667 385.985 464.097 385.752 463.575 385.472C463.071 385.173 462.66 384.8 462.343 384.352C462.025 383.885 461.867 383.316 461.867 382.644C461.867 381.412 462.352 380.376 463.323 379.536C464.312 378.696 465.693 378.276 467.467 378.276C469.109 378.276 470.416 378.659 471.387 379.424C472.376 380.189 472.964 381.244 473.151 382.588H469.763C469.557 381.561 468.783 381.048 467.439 381.048C466.767 381.048 466.244 381.179 465.871 381.44C465.516 381.701 465.339 382.028 465.339 382.42C465.339 382.831 465.609 383.157 466.151 383.4C466.692 383.643 467.411 383.867 468.307 384.072C469.277 384.296 470.164 384.548 470.967 384.828C471.788 385.089 472.441 385.491 472.927 386.032C473.412 386.555 473.655 387.311 473.655 388.3C473.673 389.159 473.449 389.933 472.983 390.624C472.516 391.315 471.844 391.856 470.967 392.248C470.089 392.64 469.053 392.836 467.859 392.836ZM362.908 428.836C361.564 428.836 360.35 428.528 359.268 427.912C358.204 427.296 357.354 426.447 356.72 425.364C356.104 424.263 355.796 422.993 355.796 421.556C355.796 420.119 356.113 418.859 356.748 417.776C357.382 416.675 358.232 415.816 359.296 415.2C360.378 414.584 361.592 414.276 362.936 414.276C364.261 414.276 365.456 414.584 366.52 415.2C367.602 415.816 368.452 416.675 369.068 417.776C369.702 418.859 370.02 420.119 370.02 421.556C370.02 422.993 369.702 424.263 369.068 425.364C368.452 426.447 367.602 427.296 366.52 427.912C365.437 428.528 364.233 428.836 362.908 428.836ZM362.908 425.728C363.841 425.728 364.653 425.383 365.344 424.692C366.034 423.983 366.38 422.937 366.38 421.556C366.38 420.175 366.034 419.139 365.344 418.448C364.653 417.739 363.85 417.384 362.936 417.384C361.984 417.384 361.162 417.739 360.472 418.448C359.8 419.139 359.464 420.175 359.464 421.556C359.464 422.937 359.8 423.983 360.472 424.692C361.162 425.383 361.974 425.728 362.908 425.728ZM373.224 428.5V414.612H376.388L376.668 416.964C377.098 416.143 377.714 415.489 378.516 415.004C379.338 414.519 380.299 414.276 381.4 414.276C383.118 414.276 384.452 414.817 385.404 415.9C386.356 416.983 386.832 418.569 386.832 420.66V428.5H383.248V420.996C383.248 419.801 383.006 418.887 382.52 418.252C382.035 417.617 381.279 417.3 380.252 417.3C379.244 417.3 378.414 417.655 377.76 418.364C377.126 419.073 376.808 420.063 376.808 421.332V428.5H373.224ZM397.007 428.836C395.607 428.836 394.366 428.537 393.283 427.94C392.201 427.343 391.351 426.503 390.735 425.42C390.119 424.337 389.811 423.087 389.811 421.668C389.811 420.231 390.11 418.952 390.707 417.832C391.323 416.712 392.163 415.844 393.227 415.228C394.31 414.593 395.579 414.276 397.035 414.276C398.398 414.276 399.602 414.575 400.647 415.172C401.693 415.769 402.505 416.591 403.083 417.636C403.681 418.663 403.979 419.811 403.979 421.08C403.979 421.285 403.97 421.5 403.951 421.724C403.951 421.948 403.942 422.181 403.923 422.424H393.367C393.442 423.507 393.815 424.356 394.487 424.972C395.178 425.588 396.009 425.896 396.979 425.896C397.707 425.896 398.314 425.737 398.799 425.42C399.303 425.084 399.677 424.655 399.919 424.132H403.559C403.298 425.009 402.859 425.812 402.243 426.54C401.646 427.249 400.899 427.809 400.003 428.22C399.126 428.631 398.127 428.836 397.007 428.836ZM397.035 417.188C396.158 417.188 395.383 417.44 394.711 417.944C394.039 418.429 393.61 419.176 393.423 420.184H400.339C400.283 419.269 399.947 418.541 399.331 418C398.715 417.459 397.95 417.188 397.035 417.188ZM413.666 428.5V408.34H417.25V428.5H413.666ZM422.844 412.456C422.19 412.456 421.649 412.26 421.22 411.868C420.809 411.476 420.604 410.981 420.604 410.384C420.604 409.787 420.809 409.301 421.22 408.928C421.649 408.536 422.19 408.34 422.844 408.34C423.497 408.34 424.029 408.536 424.44 408.928C424.869 409.301 425.084 409.787 425.084 410.384C425.084 410.981 424.869 411.476 424.44 411.868C424.029 412.26 423.497 412.456 422.844 412.456ZM421.052 428.5V414.612H424.636V428.5H421.052ZM435.125 428.836C433.725 428.836 432.483 428.537 431.401 427.94C430.318 427.343 429.469 426.503 428.853 425.42C428.237 424.337 427.929 423.087 427.929 421.668C427.929 420.231 428.227 418.952 428.825 417.832C429.441 416.712 430.281 415.844 431.345 415.228C432.427 414.593 433.697 414.276 435.153 414.276C436.515 414.276 437.719 414.575 438.765 415.172C439.81 415.769 440.622 416.591 441.201 417.636C441.798 418.663 442.097 419.811 442.097 421.08C442.097 421.285 442.087 421.5 442.069 421.724C442.069 421.948 442.059 422.181 442.041 422.424H431.485C431.559 423.507 431.933 424.356 432.605 424.972C433.295 425.588 434.126 425.896 435.097 425.896C435.825 425.896 436.431 425.737 436.917 425.42C437.421 425.084 437.794 424.655 438.037 424.132H441.677C441.415 425.009 440.977 425.812 440.361 426.54C439.763 427.249 439.017 427.809 438.121 428.22C437.243 428.631 436.245 428.836 435.125 428.836ZM435.153 417.188C434.275 417.188 433.501 417.44 432.829 417.944C432.157 418.429 431.727 419.176 431.541 420.184H438.457C438.401 419.269 438.065 418.541 437.449 418C436.833 417.459 436.067 417.188 435.153 417.188ZM445.867 422.312L445.475 408.9H449.311L448.891 422.312H445.867ZM447.463 428.696C446.791 428.696 446.24 428.491 445.811 428.08C445.4 427.669 445.195 427.175 445.195 426.596C445.195 425.999 445.4 425.495 445.811 425.084C446.24 424.673 446.791 424.468 447.463 424.468C448.098 424.468 448.62 424.673 449.031 425.084C449.46 425.495 449.675 425.999 449.675 426.596C449.675 427.175 449.46 427.669 449.031 428.08C448.62 428.491 448.098 428.696 447.463 428.696Z" fill="white"/>
<path d="M97.1632 67.0953C94.285 70.9409 92.5424 75.5165 92.1334 80.3025C91.5472 86.1282 89.8415 95.4461 84.878 100.344C77.3156 107.806 74.7949 113.402 74.7949 113.402L77.3157 116.201C77.3157 110.604 80.6767 109.671 80.6767 109.671L79.8364 116.201C102.523 137.654 152.939 118.066 152.939 118.066L151.258 101.277C155.459 103.142 157.14 116.201 157.14 116.201L163.862 114.335C163.862 114.335 152.098 93.8146 144.536 75.1595C136.974 56.5044 125.21 61.1682 125.21 61.1682C111.346 53.758 102.189 60.6298 97.1632 67.0953Z" fill="#2F2E41"/>
<path d="M176.091 76.7047L184.238 23.4766C184.238 23.4766 175.548 2.294 190.213 0.121429C204.878 -2.05114 195.101 25.6492 195.101 25.6492L190.213 76.7047H176.091Z" fill="#FFB9B9"/>
<path d="M138.362 98.3026C140.092 87.6431 132.853 77.5996 122.193 75.8699C111.533 74.1401 101.49 81.3791 99.7602 92.0386C98.0304 102.698 105.269 112.742 115.929 114.471C126.588 116.201 136.632 108.962 138.362 98.3026Z" fill="#FFB9B9"/>
<path d="M110.914 109.836C117.975 120.156 109.285 126.131 109.285 126.131L105.483 154.374C105.483 154.374 146.218 158.176 153.279 152.745C160.34 147.313 145.132 129.39 139.701 127.76C134.269 126.131 133.183 103.862 133.183 103.862L110.914 109.836Z" fill="#FFB9B9"/>
<path d="M158.168 141.339L179.894 113.638L195.102 76.1614L173.919 68.0146L165.228 98.9736L150.021 117.441L149.477 120.699L158.168 141.339Z" fill="#61D1DB"/>
<path d="M139.709 88.6623L103.836 89.5164L99.5652 71.5796H139.709V88.6623Z" fill="#2F2E41"/>
<path d="M169.573 327.094C172.289 331.439 172.832 353.708 172.832 353.708L191.842 341.759L186.411 322.206L169.573 327.094Z" fill="#FFB9B9"/>
<path d="M142.959 210.318C142.959 210.318 119.061 210.318 106.026 217.922C101.836 220.366 100.62 224.774 100.899 229.632C101.629 242.32 111.992 252.341 124.677 253.126L161.426 255.399C155.995 270.607 168.487 329.81 168.487 329.81L188.04 327.094C188.04 327.094 185.325 306.998 185.868 305.911C186.411 304.825 191.299 262.46 188.04 240.191C184.782 217.922 140.244 227.156 140.244 227.156L142.959 210.318Z" fill="#060072"/>
<path d="M171.746 348.82C171.746 348.82 170.117 364.571 170.66 366.744C171.203 368.916 193.472 370.003 213.568 364.028C233.665 358.053 210.853 351.536 210.853 351.536C210.853 351.536 197.274 342.302 193.472 339.043C189.67 335.784 184.239 343.389 184.239 343.389C183.152 348.277 171.746 348.82 171.746 348.82Z" fill="black"/>
<path d="M111.977 123.237L90.5461 119.885L88.102 142.968C88.102 142.968 89.1883 194.567 88.102 203.801C87.0157 213.034 106.569 223.354 106.569 223.354C106.569 223.354 134.812 221.181 140.244 218.465C145.675 215.75 163.056 221.181 163.056 221.181C164.992 221.289 166.93 221.012 168.759 220.366C172.018 219.28 160.34 141.882 160.34 141.882L150.02 117.984L137.528 122.872L133.726 140.796L111.977 123.237Z" fill="#61D1DB"/>
<path d="M89.7083 183.505L143.518 185.53C143.518 185.53 163.572 174.482 167.402 188.803C171.233 203.125 142.598 196.57 142.598 196.57L91.3183 197.535L89.7083 183.505Z" fill="#FFB9B9"/>
<path d="M94.3482 179.63L119.333 181.26L122.592 198.097C122.592 198.097 92.1756 197.554 80.2265 197.011C68.2773 196.468 80.2265 145.956 81.8559 130.747C83.4853 115.539 91.6325 119.885 91.6325 119.885L96.5208 123.687L94.3482 179.63Z" fill="#61D1DB"/>
<path opacity="0.15" d="M98.694 174.199L120.42 182.889L96.521 178L94.8914 147.042L98.694 174.199Z" fill="black"/>
<defs>
<linearGradient id="paint0_linear" x1="68304.8" y1="92778.1" x2="68304.8" y2="30271.1" gradientUnits="userSpaceOnUse">
<stop stop-color="#808080" stop-opacity="0.25"/>
<stop offset="0.54" stop-color="#808080" stop-opacity="0.12"/>
<stop offset="1" stop-color="#808080" stop-opacity="0.1"/>
</linearGradient>
<clipPath id="clip0">
<rect width="105" height="84" fill="white" transform="translate(86 309)"/>
</clipPath>
<clipPath id="clip1">
<rect width="105" height="84" fill="white" transform="translate(202 409)"/>
</clipPath>
<clipPath id="clip2">
<rect width="90" height="127.679" fill="white" transform="translate(199 414)"/>
</clipPath>
<clipPath id="clip3">
<rect width="105" height="84" fill="white" transform="translate(202 309)"/>
</clipPath>
<clipPath id="clip4">
<rect width="105" height="84.1566" fill="white" transform="translate(86 409)"/>
</clipPath>
</defs>
</svg>
