<svg width="620" height="537" viewBox="0 0 620 537" fill="none" xmlns="http://www.w3.org/2000/svg">
<path d="M443.744 318.699C443.744 318.699 448.546 311.739 455.757 318.072C462.968 324.406 468.107 345.47 468.107 345.47C468.107 345.47 470.853 362.483 461.587 358.067C461.587 358.067 450.635 343.893 447.518 343.266C444.401 342.64 440.997 334.76 440.997 334.76L443.744 318.699Z" fill="#2F2E41"/>
<path d="M392.279 335.703C392.279 335.703 398.8 332.865 400.855 335.076C402.911 337.288 409.777 359.327 409.777 359.327C409.777 359.327 411.832 373.819 404.975 373.184C398.117 372.55 386.104 349.862 386.104 349.862L392.279 335.703Z" fill="#2F2E41"/>
<path opacity="0.05" d="M392.279 335.703C392.279 335.703 398.8 332.865 400.855 335.076C402.911 337.288 409.777 359.327 409.777 359.327C409.777 359.327 411.832 373.819 404.975 373.184C398.117 372.55 386.104 349.862 386.104 349.862L392.279 335.703Z" fill="black"/>
<path d="M369.634 292.87L354.883 313.973C354.883 313.973 355.911 318.698 364.832 317.754L395.371 335.393C395.371 335.393 398.024 356.868 389.541 354.919C388.168 354.602 378.589 345.469 371.698 346.104L331.202 331.612C331.202 331.612 321.599 326.57 326.746 309.882C331.893 293.195 348.91 254.499 348.91 254.499L375.809 268.31L369.634 292.87Z" fill="#3E3D77"/>
<path opacity="0.05" d="M369.634 292.87L354.883 313.973C354.883 313.973 355.911 318.698 364.832 317.754L395.371 335.393C395.371 335.393 398.024 356.868 389.541 354.919C388.168 354.602 378.589 345.469 371.698 346.104L331.202 331.612C331.202 331.612 321.599 326.57 326.746 309.882C331.893 293.195 348.91 254.499 348.91 254.499L375.809 268.31L369.634 292.87Z" fill="black"/>
<path d="M360.369 324.05C358.313 336.02 369.972 336.964 369.972 336.964C369.972 336.964 422.473 337.907 428.648 336.647C434.823 335.386 443.062 338.851 443.062 338.851C453.702 332.865 445.118 318.064 445.118 318.064C445.118 318.064 423.155 317.438 418.008 316.518C412.861 315.597 386.787 314.291 386.787 314.291C386.787 314.291 388.843 302.637 402.575 273.035C411.9 252.929 405.102 241.098 399.736 235.584C398.366 234.121 396.781 232.841 395.026 231.78L352.82 233.667C352.866 235.62 352.787 237.575 352.585 239.52C351.863 246.199 349.971 252.728 346.982 258.853C349.383 258.853 364.825 272.084 364.825 272.084C364.825 272.084 362.433 312.087 360.369 324.05Z" fill="#3E3D77"/>
<path opacity="0.1" d="M442.033 319.326C442.033 319.326 420.071 318.7 414.923 317.78C409.776 316.859 383.703 315.576 383.703 315.576C383.703 315.576 385.758 303.922 399.49 274.32C408.816 254.215 402.017 242.383 396.651 236.87C395.282 235.407 393.697 234.126 391.942 233.065L352.836 234.813C352.836 234.441 352.836 234.039 352.836 233.691L395.042 231.804C396.797 232.865 398.382 234.146 399.751 235.609C405.092 241.13 411.916 252.954 402.59 273.06C388.825 302.638 386.786 314.292 386.786 314.292C386.786 314.292 412.902 315.553 418.007 316.496C423.112 317.439 445.116 318.043 445.116 318.043C445.116 318.043 453.692 332.851 443.061 338.86C443.061 338.86 442.741 338.721 442.218 338.519C449.286 331.846 442.033 319.326 442.033 319.326Z" fill="black"/>
<path d="M379.247 116.18H400.519V165.625H379.247V116.18Z" fill="#2F2E41"/>
<path d="M379.247 116.18H400.519V165.625H379.247V116.18Z" fill="#FF3939"/>
<path d="M367.081 108.925C366.349 109.111 365.523 109.134 365.026 110.062C364.717 110.804 364.549 111.588 364.529 112.382L363.189 127.662C363.171 128.663 362.96 129.652 362.566 130.585C362.002 131.622 361.067 131.745 360.334 132.41C358.859 133.756 358.43 137.127 358.834 139.873C359.238 142.618 360.258 144.969 361.058 147.451C362.204 151.008 362.962 155.006 364.571 158.006C366.18 161.007 369.103 162.646 370.99 160.125C372.877 157.604 372.625 152.516 372.979 148.348C373.568 141.388 376.525 135.387 376.727 128.381C376.896 122.713 375.236 117.424 374.2 112.049C373.459 108.361 373.417 103.883 372.338 100.566C371.437 104.51 369.718 108.26 367.081 108.925Z" fill="#2F2E41"/>
<path d="M367.081 108.925C366.349 109.111 365.523 109.134 365.026 110.062C364.717 110.804 364.549 111.588 364.529 112.382L363.189 127.662C363.171 128.663 362.96 129.652 362.566 130.585C362.002 131.622 361.067 131.745 360.334 132.41C358.859 133.756 358.43 137.127 358.834 139.873C359.238 142.618 360.258 144.969 361.058 147.451C362.204 151.008 362.962 155.006 364.571 158.006C366.18 161.007 369.103 162.646 370.99 160.125C372.877 157.604 372.625 152.516 372.979 148.348C373.568 141.388 376.525 135.387 376.727 128.381C376.896 122.713 375.236 117.424 374.2 112.049C373.459 108.361 373.417 103.883 372.338 100.566C371.437 104.51 369.718 108.26 367.081 108.925Z" fill="#FF3939"/>
<path d="M457.13 87.2041L465.36 93.5064C465.36 93.5064 466.338 92.4547 467.795 90.7535C473.515 84.049 486.666 67.2298 477.374 64.2217C468.081 61.2135 460.736 77.6152 458.141 84.3893C457.484 86.106 457.13 87.2041 457.13 87.2041Z" fill="#FFC1B9"/>
<path d="M308.558 85.0003C311.987 89.7252 316.789 85.0003 316.789 85.0003C316.789 85.0003 317.404 84.1574 318.271 82.7964C321.094 78.4118 326.628 68.6915 322.964 64.8405C318.752 60.4404 308.314 75.4578 307.994 82.5026C307.895 83.3688 308.092 84.2418 308.558 85.0003Z" fill="#FFC1B9"/>
<path d="M392.97 136.022C392.97 136.022 386.104 156.182 388.168 162.16C390.232 168.137 373.408 175.097 373.408 175.097H354.193C354.193 175.097 347.327 162.183 349.045 158.401C350.764 154.62 365.515 151.79 365.515 151.79C365.515 151.79 374.091 151.79 373.745 130.687L392.97 136.022Z" fill="#FFC1B9"/>
<path opacity="0.1" d="M457.13 87.2044L465.36 93.5068C465.36 93.5068 466.338 92.4551 467.795 90.7539C464.804 90.2667 460.163 86.261 458.132 84.3896C457.484 86.1064 457.13 87.2044 457.13 87.2044Z" fill="black"/>
<path opacity="0.1" d="M308.559 84.9997C311.988 89.7245 316.79 84.9997 316.79 84.9997C316.79 84.9997 317.405 84.1568 318.272 82.7958L318.163 82.4788C315.939 83.9403 309.023 82.6953 307.995 82.4788C307.89 83.3526 308.088 84.2345 308.559 84.9997Z" fill="black"/>
<path opacity="0.1" d="M352.601 239.513C363.216 243.959 397.705 236.041 399.777 235.569C398.408 234.106 396.823 232.825 395.068 231.764L352.862 233.651C352.9 235.608 352.812 237.565 352.601 239.513Z" fill="black"/>
<path d="M388.505 153.345C388.505 153.345 396.736 155.866 408.404 146.099C408.404 146.099 434.519 122.475 436.204 116.807L456.422 84.3283C456.422 84.3283 464.998 92.8346 468.436 91.5741L445.791 127.795C445.791 127.795 441.671 134.755 437.897 136.611C437.897 136.611 409.76 169.685 409.423 176.297C409.086 182.908 396.744 200.617 396.744 200.617C396.744 200.617 392.625 229.275 399.836 234.317C399.836 234.317 359.694 243.767 351.118 237.464C351.118 237.464 354.892 201.893 351.118 198.096C351.118 198.096 339.45 185.499 347.344 171.641C347.344 171.641 349.029 164.086 344.598 160.305C340.167 156.523 320.235 128.491 320.235 128.491C320.235 128.491 315.433 122.189 315.433 118.098C315.433 118.098 306.511 90.3832 307.851 83.1375C307.851 83.1375 315.744 84.684 318.145 83.1375C318.145 83.1375 329.813 115.616 331.186 116.838C332.559 118.06 342.138 143.609 354.859 146.447C367.579 149.285 369.61 150.538 369.61 150.538C369.61 150.538 344.909 164.713 356.914 171.007C368.919 177.302 388.505 153.345 388.505 153.345Z" fill="#FFE816"/>
<path opacity="0.1" d="M372.911 140.871C373.319 137.904 373.485 134.913 373.408 131.924L392.624 137.275C392.118 138.45 391.716 139.66 391.419 140.894C389.221 141.783 386.255 143.887 383.703 143.887C379.841 144.002 376.047 142.942 372.911 140.871Z" fill="black"/>
<path d="M384.049 142.951C374.195 142.951 366.206 135.618 366.206 126.572C366.206 117.527 374.195 110.194 384.049 110.194C393.903 110.194 401.892 117.527 401.892 126.572C401.892 135.618 393.903 142.951 384.049 142.951Z" fill="#FFC1B9"/>
<path opacity="0.1" d="M405.278 101.341C409.204 101.619 413.584 104.109 413.365 107.72C413.247 109.708 411.765 111.386 411.116 113.288C409.557 117.889 413.028 122.506 416.078 126.434C419.127 130.362 421.975 135.567 419.363 139.727C418.619 140.729 417.815 141.692 416.954 142.611C413.727 146.609 413.77 152.007 412.337 156.809C410.508 162.953 406.185 168.22 400.256 171.528C394.327 174.836 387.243 175.933 380.46 174.595C383.013 171.603 384.287 167.857 384.04 164.063C383.846 161.31 382.877 158.433 384.04 155.889C385.54 152.618 389.937 151.326 392.203 148.465C394.469 145.604 394.318 141.637 393.223 138.227C392.127 134.817 390.232 131.654 389.322 128.174C389.098 127.159 388.816 126.155 388.48 125.166C386.896 121.036 382.161 118.639 377.528 117.611C372.895 116.582 368.025 116.52 363.502 115.167C358.978 113.814 354.58 110.643 354.058 106.29C357.866 107.689 361.395 104.039 365.068 102.361C371.117 99.6083 378.017 102.199 384.251 102.833C391.352 103.56 398.092 100.861 405.278 101.341Z" fill="black"/>
<path d="M405.624 100.713C409.549 100.991 413.93 103.481 413.711 107.093C413.593 109.08 412.11 110.758 411.462 112.661C409.903 117.262 413.374 121.878 416.424 125.807C419.473 129.735 422.321 134.939 419.709 139.1C418.965 140.101 418.16 141.064 417.3 141.984C414.073 145.982 414.115 151.38 412.683 156.182C410.854 162.325 406.531 167.592 400.602 170.9C394.673 174.208 387.589 175.306 380.805 173.968C383.359 170.975 384.632 167.229 384.386 163.435C384.192 160.682 383.223 157.806 384.386 155.261C385.885 151.99 390.283 150.699 392.549 147.838C394.815 144.977 394.663 141.01 393.568 137.599C392.473 134.189 390.578 131.026 389.668 127.547C389.443 126.531 389.162 125.527 388.825 124.538C387.242 120.409 382.507 118.012 377.874 116.983C373.24 115.955 368.371 115.893 363.847 114.54C359.323 113.186 354.926 110.016 354.404 105.662C358.211 107.062 361.741 103.412 365.414 101.734C371.463 98.9809 378.362 101.571 384.596 102.206C391.681 102.925 398.395 100.195 405.624 100.713Z" fill="#FF3939"/>
<path opacity="0.1" d="M366.374 162.957C366.374 162.957 359.23 168.81 357.823 171.393L366.374 162.957Z" fill="black"/>
<path opacity="0.1" d="M350.917 197.917C350.917 197.917 359.838 197.917 363.958 198.86C368.077 199.804 378.026 198.86 378.026 198.86" fill="black"/>
<g opacity="0.1">
<path opacity="0.1" d="M356.939 170.983C357.708 171.387 358.541 171.679 359.408 171.849C357.17 172.304 354.828 171.996 352.82 170.983C340.807 164.68 365.515 150.513 365.515 150.513H369.635C369.635 150.513 344.926 164.688 356.939 170.983Z" fill="black"/>
<path opacity="0.1" d="M307.791 83.6853C307.791 83.4842 307.842 83.2909 307.875 83.113C309.286 83.3815 310.712 83.5802 312.146 83.7085C310.699 83.8547 309.237 83.8469 307.791 83.6853Z" fill="black"/>
<path opacity="0.1" d="M395.709 234.293C388.506 229.251 392.617 200.592 392.617 200.592C392.617 200.592 404.967 182.953 405.312 176.342C405.658 169.73 433.787 136.656 433.787 136.656C437.561 134.769 441.68 127.841 441.68 127.841C441.68 127.841 465.016 92.8799 468.444 91.6194L445.8 127.841C445.8 127.841 441.68 134.8 437.906 136.656C437.906 136.656 409.769 169.73 409.432 176.342C409.095 182.953 396.745 200.616 396.745 200.616C396.745 200.616 392.625 229.274 399.837 234.316C399.837 234.316 375.162 240.123 360.368 239.598C375.195 239.118 395.709 234.293 395.709 234.293Z" fill="black"/>
<path opacity="0.1" d="M388.303 153.591L388.506 153.351C388.74 153.415 388.98 153.464 389.222 153.498C388.902 153.537 388.598 153.568 388.303 153.591Z" fill="black"/>
</g>
<g opacity="0.1">
<path opacity="0.1" d="M307.877 83.0737L308.088 83.1124C308.45 92.7863 315.762 115.514 315.762 115.514C315.762 119.604 320.564 125.907 320.564 125.907C320.564 125.907 340.463 153.939 344.928 157.72C349.392 161.502 347.674 169.057 347.674 169.057L347.632 169.134C347.767 166.59 347.43 162.646 344.591 160.233C340.134 156.452 320.227 128.42 320.227 128.42C320.227 128.42 315.425 122.118 315.425 118.027C315.425 118.073 306.504 90.3582 307.877 83.0737Z" fill="black"/>
<path opacity="0.1" d="M351.447 195.549C350.933 198.225 351.279 195.395 351.102 198.07C351.102 198.07 342.678 189 344.977 177.787C344.287 187.809 351.447 195.549 351.447 195.549Z" fill="black"/>
</g>
<path d="M165.497 182.087L168.037 216.118L229.495 217.642L256.414 279.1L271.144 273.005C271.144 273.005 254.383 215.102 246.764 196.817C239.145 178.532 210.194 191.738 210.194 191.738L207.654 186.659L165.497 182.087Z" fill="#060072"/>
<path d="M221.387 273.166L228.498 295.007L238.148 286.88L233.069 269.611L221.387 273.166Z" fill="#FFB9B9"/>
<path d="M225.45 290.943C225.45 290.943 226.466 307.197 227.99 308.212C229.514 309.228 241.196 307.197 241.196 307.197C241.196 307.197 244.706 307.976 258.973 304.149C275.012 299.846 256.941 293.483 256.941 293.483C256.941 293.483 245.259 285.864 240.18 282.309C235.101 278.753 231.545 286.372 231.545 286.372C232.561 289.419 225.45 290.943 225.45 290.943Z" fill="#2F2E41"/>
<path d="M475.133 214.786H296.605L215.654 214.786H36.3896C33.1868 214.786 30.1152 216.039 27.8505 218.271C25.5858 220.502 24.3135 223.528 24.3135 226.684V467.534C24.3135 470.689 25.5858 473.715 27.8505 475.947C30.1152 478.178 33.1868 479.431 36.3896 479.431H475.133C476.719 479.431 478.29 479.124 479.755 478.526C481.22 477.928 482.551 477.051 483.672 475.947C484.794 474.842 485.683 473.53 486.29 472.087C486.897 470.643 487.209 469.096 487.209 467.534V226.684C487.209 225.121 486.897 223.574 486.29 222.131C485.683 220.687 484.794 219.376 483.672 218.271C482.551 217.166 481.22 216.289 479.755 215.692C478.29 215.094 476.719 214.786 475.133 214.786Z" fill="#3D3D3D"/>
<path d="M475.372 230.848H36.2461V480.042H475.372V230.848Z" fill="#E6E6E6"/>
<path d="M473.469 218.526H38.0547C32.5318 218.526 28.0547 223.004 28.0547 228.526V465.691C28.0547 471.214 32.5318 475.691 38.0547 475.691H473.469C478.992 475.691 483.469 471.214 483.469 465.691V228.526C483.469 223.004 478.992 218.526 473.469 218.526Z" fill="black"/>
<path d="M474.117 230.683H37.4053V460.729H474.117V230.683Z" fill="white"/>
<path d="M506.098 474.127H463V472.31C463 472.263 462.984 472.216 462.953 472.173C462.922 472.129 462.877 472.089 462.819 472.056C462.762 472.022 462.694 471.996 462.62 471.978C462.545 471.96 462.465 471.95 462.384 471.95H447.608C447.527 471.95 447.447 471.96 447.372 471.978C447.297 471.996 447.229 472.022 447.172 472.056C447.115 472.089 447.07 472.129 447.039 472.173C447.008 472.216 446.992 472.263 446.992 472.31V474.127H437.757V472.31C437.757 472.263 437.741 472.216 437.71 472.173C437.679 472.129 437.633 472.089 437.576 472.056C437.519 472.022 437.451 471.996 437.376 471.978C437.302 471.96 437.222 471.95 437.141 471.95H422.364C422.283 471.95 422.203 471.96 422.129 471.978C422.054 471.996 421.986 472.022 421.929 472.056C421.872 472.089 421.826 472.129 421.795 472.173C421.764 472.216 421.749 472.263 421.749 472.31V474.127H412.513V472.31C412.513 472.263 412.497 472.216 412.466 472.173C412.435 472.129 412.39 472.089 412.333 472.056C412.276 472.022 412.208 471.996 412.133 471.978C412.058 471.96 411.978 471.95 411.897 471.95H397.121C397.04 471.95 396.96 471.96 396.885 471.978C396.811 471.996 396.743 472.022 396.686 472.056C396.628 472.089 396.583 472.129 396.552 472.173C396.521 472.216 396.505 472.263 396.505 472.31V474.127H387.27V472.31C387.27 472.263 387.254 472.216 387.223 472.173C387.192 472.129 387.147 472.089 387.089 472.056C387.032 472.022 386.964 471.996 386.89 471.978C386.815 471.96 386.735 471.95 386.654 471.95H371.878C371.797 471.95 371.717 471.96 371.642 471.978C371.567 471.996 371.499 472.022 371.442 472.056C371.385 472.089 371.34 472.129 371.309 472.173C371.278 472.216 371.262 472.263 371.262 472.31V474.127H362.026V472.31C362.026 472.263 362.011 472.216 361.98 472.173C361.949 472.129 361.903 472.089 361.846 472.056C361.789 472.022 361.721 471.996 361.646 471.978C361.572 471.96 361.492 471.95 361.411 471.95H346.634C346.553 471.95 346.473 471.96 346.399 471.978C346.324 471.996 346.256 472.022 346.199 472.056C346.142 472.089 346.096 472.129 346.065 472.173C346.034 472.216 346.019 472.263 346.019 472.31V474.127H336.783V472.31C336.783 472.263 336.767 472.216 336.736 472.173C336.705 472.129 336.66 472.089 336.603 472.056C336.546 472.022 336.478 471.996 336.403 471.978C336.328 471.96 336.248 471.95 336.167 471.95H321.391C321.31 471.95 321.23 471.96 321.155 471.978C321.081 471.996 321.013 472.022 320.956 472.056C320.898 472.089 320.853 472.129 320.822 472.173C320.791 472.216 320.775 472.263 320.775 472.31V474.127H311.54V472.31C311.54 472.263 311.524 472.216 311.493 472.173C311.462 472.129 311.417 472.089 311.359 472.056C311.302 472.022 311.234 471.996 311.16 471.978C311.085 471.96 311.005 471.95 310.924 471.95H195.174C195.011 471.95 194.854 471.988 194.739 472.056C194.623 472.123 194.558 472.215 194.558 472.31V474.127H185.323V472.31C185.323 472.263 185.307 472.216 185.276 472.173C185.245 472.129 185.2 472.089 185.143 472.056C185.086 472.022 185.018 471.996 184.943 471.978C184.868 471.96 184.788 471.95 184.707 471.95H169.931C169.768 471.95 169.611 471.988 169.495 472.056C169.38 472.123 169.315 472.215 169.315 472.31V474.127H160.08V472.31C160.08 472.263 160.064 472.216 160.033 472.173C160.002 472.129 159.957 472.089 159.899 472.056C159.842 472.022 159.774 471.996 159.7 471.978C159.625 471.96 159.545 471.95 159.464 471.95H144.687C144.524 471.95 144.368 471.988 144.252 472.056C144.137 472.123 144.072 472.215 144.072 472.31V474.127H134.836V472.31C134.836 472.263 134.82 472.216 134.79 472.173C134.759 472.129 134.713 472.089 134.656 472.056C134.599 472.022 134.531 471.996 134.456 471.978C134.382 471.96 134.302 471.95 134.221 471.95H119.444C119.281 471.95 119.124 471.988 119.009 472.056C118.893 472.123 118.828 472.215 118.828 472.31V474.127H109.593V472.31C109.593 472.263 109.577 472.216 109.546 472.173C109.515 472.129 109.47 472.089 109.413 472.056C109.356 472.022 109.288 471.996 109.213 471.978C109.138 471.96 109.058 471.95 108.977 471.95H94.2008C94.0375 471.95 93.8809 471.988 93.7654 472.056C93.65 472.123 93.5851 472.215 93.5851 472.31V474.127H84.3497V472.31C84.3497 472.263 84.3338 472.216 84.3028 472.173C84.2719 472.129 84.2266 472.089 84.1694 472.056C84.1122 472.022 84.0444 471.996 83.9697 471.978C83.895 471.96 83.8149 471.95 83.7341 471.95H68.9574C68.7941 471.95 68.6375 471.988 68.5221 472.056C68.4066 472.123 68.3417 472.215 68.3417 472.31V474.127H59.1063V472.31C59.1063 472.263 59.0904 472.216 59.0595 472.173C59.0285 472.129 58.9832 472.089 58.926 472.056C58.8689 472.022 58.801 471.996 58.7263 471.978C58.6516 471.96 58.5715 471.95 58.4907 471.95H43.7141C43.5508 471.95 43.3942 471.988 43.2787 472.056C43.1633 472.123 43.0984 472.215 43.0984 472.31V474.127H14.7766C10.8576 474.127 7.09911 475.038 4.32797 476.66C1.55682 478.281 0 480.48 0 482.773V486.683C6.35075e-06 488.976 1.55683 491.175 4.32798 492.796C7.09912 494.418 10.8576 495.329 14.7766 495.329H506.098C510.017 495.329 513.776 494.418 516.547 492.796C519.318 491.175 520.875 488.976 520.875 486.683V482.773C520.875 480.48 519.318 478.281 516.547 476.66C513.776 475.038 510.017 474.127 506.098 474.127Z" fill="#86898B"/>
<g clip-path="url(#clip0)">
<path d="M228.504 350.382H72.6543C67.1314 350.382 62.6543 354.859 62.6543 360.382V438.572C62.6543 444.094 67.1314 448.572 72.6543 448.572H228.504C234.027 448.572 238.504 444.094 238.504 438.572V360.382C238.504 354.859 234.027 350.382 228.504 350.382Z" fill="#EDEDED"/>
<path d="M162.183 385.346C156.227 375.506 144.443 375.047 144.443 375.047C144.443 375.047 132.96 373.611 125.594 388.598C118.728 402.568 109.252 416.055 124.068 419.325L126.744 411.181L128.402 419.931C130.511 420.08 132.628 420.115 134.741 420.037C150.608 419.536 165.719 420.184 165.232 414.617C164.586 407.216 167.915 394.815 162.183 385.346Z" fill="#683800"/>
<path d="M140.21 418.874C140.239 419.982 140.23 421.15 139.667 422.111C138.551 424.018 135.827 424.303 134.188 425.805C132.465 427.385 132.27 429.95 132.188 432.258C132.102 434.672 132.029 437.164 132.93 439.413C133.482 440.652 134.179 441.823 135.008 442.904C136.009 444.314 137.018 445.718 138.037 447.115C138.581 447.903 139.188 448.647 139.851 449.341C141.676 451.159 144.179 452.165 146.678 452.882C148.293 453.346 150.037 453.707 151.639 453.204C152.699 452.799 153.676 452.212 154.524 451.469C155.715 450.544 156.925 449.6 157.789 448.375C159.134 446.467 159.507 444.078 159.786 441.776C160.61 434.97 160.931 428.115 160.746 421.264C160.779 420.517 160.643 419.773 160.345 419.084C159.515 417.5 157.293 417.162 156.122 415.799C155.121 414.634 155.08 412.971 155.088 411.45L155.11 407.576C155.145 407.249 155.078 406.92 154.918 406.632C154.772 406.477 154.597 406.351 154.402 406.262C154.207 406.173 153.996 406.123 153.781 406.114C151.319 405.714 148.822 405.551 146.327 405.626C144.304 405.686 140.423 405.521 138.674 406.622C137.086 407.622 139.074 410.384 139.442 411.935C139.936 414.217 140.194 416.542 140.21 418.874Z" fill="#C78C89"/>
<path d="M144.853 412.224C153.698 412.224 160.868 405.213 160.868 396.566C160.868 387.918 153.698 380.908 144.853 380.908C136.009 380.908 128.839 387.918 128.839 396.566C128.839 405.213 136.009 412.224 144.853 412.224Z" fill="#C78C89"/>
<path d="M138.259 435.347C137.24 433.866 136.402 432.275 135.761 430.604C135.188 428.912 135.038 427.02 135.718 425.366C133.987 424.385 131.638 425.18 130.377 426.699C129.117 428.218 128.731 430.255 128.62 432.208C128.509 434.161 128.627 436.143 128.192 438.053C127.23 442.277 123.661 445.751 123.396 450.071C123.135 454.321 126.116 458.024 127.582 462.033C128.471 464.532 128.842 467.178 128.675 469.819C128.628 470.671 128.573 471.643 129.188 472.249C129.508 472.522 129.887 472.722 130.296 472.833C137.373 475.267 145.016 475.477 152.515 475.663L164.9 475.97C165.65 476.057 166.409 475.933 167.088 475.612C168.199 474.946 168.348 473.452 168.366 472.178C168.529 461.203 168.052 450.229 167.574 439.263C167.401 435.288 167.225 431.29 166.363 427.402C166.144 426.412 165.784 425.311 164.849 424.874C164.058 424.504 163.119 424.744 162.296 425.041C158.457 426.437 155.139 428.934 152.777 432.205C150.236 435.742 148.986 439.984 146.498 443.548C144.693 446.134 143.65 443.88 142.447 441.976C141.051 439.766 139.655 437.556 138.259 435.347Z" fill="white"/>
<path d="M136.342 425.636C136.027 425.855 135.716 426.086 135.418 426.329C134.304 427.229 133.305 428.258 132.443 429.392C131.018 431.293 129.883 433.387 129.074 435.608C127.622 439.501 126.992 443.633 126.388 447.731C126.125 449.241 125.983 450.768 125.964 452.3C126.056 457.929 129.459 463.144 129.464 468.778C129.464 468.991 129.459 469.201 129.446 469.415C129.406 470.337 129.295 471.255 129.114 472.161C128.864 473.483 128.506 474.788 128.151 476.088C127.259 479.348 126.296 482.727 124.555 485.589C124.38 485.88 124.192 486.167 123.999 486.445H111.749C111.845 486.158 111.946 485.876 112.042 485.589C114.129 479.545 116.215 473.502 118.299 467.46C118.937 465.612 119.576 463.755 120.027 461.856C120.542 459.511 120.895 457.134 121.081 454.742C121.562 449.784 121.879 444.816 122.031 439.839C122.087 438.05 122.127 436.224 122.717 434.53C123.271 433.15 124.003 431.844 124.896 430.646C126.161 428.785 127.425 426.924 128.689 425.063C129.394 424.028 130.133 422.963 131.218 422.317C132.124 421.774 133.2 421.577 134.154 421.119C134.754 420.786 135.33 420.413 135.878 420.003C137.304 419.015 138.98 417.975 140.209 418.985C140.408 419.146 140.58 419.338 140.717 419.554C140.787 419.659 140.85 419.769 140.905 419.883C142.086 422.381 137.93 424.537 136.342 425.636Z" fill="#2F2E41"/>
<path d="M159.55 384.4L147.907 378.437L131.83 380.877L128.504 395.241L136.784 394.93L139.097 389.652V394.843L142.918 394.699L145.135 386.297L146.521 395.241L160.104 394.97L159.55 384.4Z" fill="#683800"/>
<path d="M176.698 486.451H163.888C163.796 486.169 163.708 485.882 163.625 485.596C162.72 482.414 162.056 479.171 161.639 475.894C161.503 474.957 161.385 474.016 161.276 473.079C161.206 472.484 161.14 471.894 161.074 471.299C160.339 464.695 159.775 458.026 157.71 451.703C157.461 450.937 157.189 450.176 156.927 449.415C156.442 448.103 156.062 446.758 155.789 445.389C155.229 442.258 155.649 439.015 155.072 435.888C154.748 434.143 154.105 432.607 153.715 431.007C153.468 430.042 153.37 429.045 153.427 428.051C154.369 427.182 155.556 426.607 156.835 426.4C157.277 426.328 157.776 426.272 158.042 425.925C158.2 425.662 158.27 425.357 158.244 425.053C158.274 423.035 158.156 421.018 157.889 419.017C157.802 418.315 157.692 417.614 157.561 416.916C157.557 416.882 157.548 416.852 157.544 416.818C158.611 416.365 159.814 416.36 160.974 416.365C162.238 416.369 163.498 416.369 164.758 416.373C167.09 416.382 169.422 416.389 171.754 416.395C173.924 416.399 176.169 416.42 178.142 417.297C180.181 418.208 181.729 419.967 182.753 421.917C183.777 423.868 184.332 426.015 184.836 428.15C184.975 428.741 185.049 429.344 185.054 429.951C185.151 434.768 181.476 439.618 181.108 444.542C180.99 446.138 181.126 447.746 180.977 449.342C180.828 450.942 180.391 452.507 180.312 454.107C180.307 454.188 180.303 454.274 180.303 454.355C180.255 456.439 180.876 458.479 181.594 460.443C182.705 463.493 184.057 466.448 185.453 469.387C186.8 472.232 188.183 475.064 189.425 477.947C190.071 479.285 190.506 480.712 190.716 482.178C190.854 483.356 190.623 484.548 190.055 485.596C189.909 485.855 189.735 486.097 189.534 486.319L189.526 486.327C189.486 486.37 189.447 486.413 189.408 486.451H176.698Z" fill="#2F2E41"/>
<path d="M193.616 486.445C193.708 486.164 193.786 485.879 193.848 485.59C193.9 485.363 193.944 485.141 193.979 484.914C194.211 483.421 194.206 481.894 194.569 480.426C195.081 478.326 196.617 475.841 195.353 474.074C196.336 473.877 197.264 473.471 198.07 472.885C198.822 472.243 199.26 471.131 198.805 470.258C198.354 469.398 197.133 468.829 197.3 467.876C197.382 467.573 197.528 467.29 197.728 467.046C198.392 466.022 198.735 464.832 198.715 463.62C198.696 462.409 198.315 461.229 197.619 460.227C197.221 459.671 196.731 459.183 196.368 458.601C195.971 457.89 195.666 457.133 195.462 456.347C194.199 452.367 192.336 448.592 189.936 445.148C189.404 444.485 188.991 443.739 188.716 442.941C188.554 442.076 188.522 441.192 188.619 440.318C188.707 436.862 187.385 433.487 185.482 430.578C185.342 430.364 185.198 430.154 185.054 429.945C183.216 427.297 180.937 424.974 178.666 422.668C177.73 423.096 176.903 423.374 176.417 424.264C176.179 424.766 176.032 425.304 175.984 425.855C175.363 430.09 174.824 434.351 174.404 438.607C174.194 440.759 173.98 442.928 174.229 445.075C174.479 447.223 175.227 449.374 176.715 450.97C177.646 451.971 178.828 452.715 179.838 453.639C180 453.789 180.158 453.943 180.311 454.101C181.039 454.86 181.686 455.69 182.24 456.578C184.665 460.408 185.789 464.889 185.452 469.381C185.391 470.191 185.281 470.997 185.124 471.794C184.931 472.935 184.537 474.036 183.96 475.045C183.5 475.785 182.897 476.431 182.481 477.197C182.065 477.963 181.868 478.916 182.28 479.682C182.897 479.682 183.508 479.789 184.087 479.999C185.449 480.512 186.633 481.395 187.499 482.544C187.819 482.957 188.108 483.392 188.366 483.844C188.69 484.409 188.979 484.991 189.232 485.59C189.337 485.825 189.437 486.069 189.534 486.313C189.556 486.355 189.573 486.399 189.586 486.445H193.616Z" fill="#2F2E41"/>
<path d="M157.845 412.025L148.568 415.981L146.391 416.191L136.501 414.089L136.937 422.694L146.606 418.32L148.783 418.109L159.142 420.546L157.845 412.025Z" fill="#61D1DB"/>
<path d="M130.444 380.33L130.519 379.962C130.541 379.853 132.683 368.915 127.166 358.666L126.767 357.925L127.615 358.043C127.858 358.077 133.429 358.951 137.422 367.549C137.773 366.239 138.126 363.483 137.03 358.84L136.874 358.179L137.551 358.326C137.762 358.372 142.569 359.479 144.475 365.188L152.041 358.928V369.097C154.076 368.085 160.317 365.362 164.286 367.787L164.891 368.157L164.279 368.517C164.227 368.547 159.352 371.439 158.385 374.365C159.524 374.374 162.24 374.412 164.929 374.57C171.836 374.975 172.414 375.753 172.414 376.449V376.694L172.199 376.818C172.077 376.888 159.949 383.957 159.681 389.473L159.653 390.04L130.444 380.33ZM157.829 375.217H157.312L157.397 374.719C157.877 371.902 161.649 369.186 163.187 368.184C158.852 366.311 151.894 370.14 151.821 370.181L151.166 370.546V360.772L144.006 366.696L143.825 366.049C142.57 361.551 139.442 359.902 138.046 359.376C139.486 366.118 137.902 368.808 137.831 368.923L137.383 369.653L137.052 368.866C134.158 361.994 130.167 359.809 128.398 359.153C132.948 368.332 131.759 377.789 131.442 379.758L158.867 388.875C159.744 383.586 169.174 377.631 171.332 376.331C170 375.639 163.567 375.217 157.829 375.217Z" fill="#61D1DB"/>
<path d="M124.568 353.764C124.568 353.461 124.66 353.164 124.833 352.912C125.005 352.659 125.25 352.463 125.537 352.346C125.824 352.23 126.139 352.2 126.444 352.259C126.748 352.318 127.028 352.464 127.247 352.679C127.467 352.894 127.616 353.167 127.677 353.465C127.737 353.762 127.706 354.071 127.587 354.351C127.469 354.632 127.268 354.871 127.009 355.04C126.751 355.208 126.448 355.298 126.138 355.298C125.722 355.298 125.323 355.136 125.028 354.849C124.734 354.561 124.569 354.171 124.568 353.764ZM125.443 353.764C125.443 353.898 125.484 354.03 125.56 354.141C125.637 354.253 125.745 354.34 125.872 354.391C125.999 354.443 126.138 354.456 126.273 354.43C126.408 354.404 126.531 354.339 126.629 354.244C126.726 354.149 126.792 354.028 126.819 353.896C126.845 353.765 126.832 353.628 126.779 353.504C126.727 353.38 126.638 353.274 126.523 353.2C126.409 353.125 126.275 353.085 126.138 353.085C125.954 353.085 125.777 353.157 125.647 353.284C125.517 353.412 125.444 353.584 125.443 353.764Z" fill="#61D1DB"/>
<path d="M135.888 353.764C135.888 353.461 135.98 353.164 136.152 352.912C136.325 352.659 136.57 352.463 136.856 352.346C137.143 352.23 137.459 352.2 137.763 352.259C138.068 352.318 138.347 352.464 138.567 352.679C138.786 352.894 138.936 353.167 138.996 353.465C139.057 353.762 139.026 354.071 138.907 354.351C138.788 354.632 138.587 354.871 138.329 355.04C138.071 355.208 137.767 355.298 137.457 355.298C137.041 355.298 136.642 355.136 136.348 354.849C136.054 354.561 135.888 354.171 135.888 353.764ZM136.763 353.764C136.763 353.898 136.803 354.03 136.88 354.141C136.956 354.253 137.064 354.34 137.191 354.391C137.318 354.443 137.458 354.456 137.592 354.43C137.727 354.404 137.851 354.339 137.948 354.244C138.045 354.149 138.111 354.028 138.138 353.896C138.165 353.765 138.151 353.628 138.098 353.504C138.046 353.38 137.957 353.274 137.843 353.2C137.729 353.125 137.594 353.085 137.457 353.085C137.273 353.085 137.096 353.157 136.966 353.284C136.836 353.412 136.763 353.584 136.763 353.764Z" fill="#61D1DB"/>
<path d="M152.298 356.529C152.298 356.226 152.39 355.929 152.562 355.677C152.735 355.424 152.98 355.228 153.267 355.112C153.553 354.996 153.869 354.965 154.173 355.024C154.478 355.084 154.757 355.23 154.977 355.444C155.196 355.659 155.346 355.932 155.406 356.23C155.467 356.528 155.436 356.836 155.317 357.116C155.198 357.397 154.997 357.637 154.739 357.805C154.481 357.974 154.178 358.064 153.867 358.064C153.451 358.063 153.052 357.901 152.758 357.614C152.464 357.326 152.298 356.936 152.298 356.529ZM153.173 356.529C153.173 356.664 153.214 356.795 153.29 356.906C153.366 357.018 153.475 357.105 153.601 357.156C153.728 357.208 153.868 357.221 154.003 357.195C154.137 357.169 154.261 357.104 154.358 357.009C154.455 356.914 154.521 356.793 154.548 356.662C154.575 356.53 154.561 356.394 154.509 356.269C154.456 356.145 154.367 356.039 154.253 355.965C154.139 355.89 154.005 355.85 153.867 355.85C153.683 355.851 153.507 355.922 153.376 356.049C153.246 356.177 153.173 356.349 153.173 356.529Z" fill="#61D1DB"/>
<path d="M174.369 375.345C174.369 375.042 174.461 374.745 174.634 374.493C174.806 374.241 175.051 374.044 175.338 373.928C175.625 373.812 175.94 373.781 176.245 373.841C176.549 373.9 176.829 374.046 177.048 374.26C177.268 374.475 177.417 374.748 177.478 375.046C177.538 375.344 177.507 375.652 177.388 375.933C177.27 376.213 177.068 376.453 176.81 376.621C176.552 376.79 176.249 376.88 175.938 376.88C175.522 376.88 175.123 376.718 174.829 376.43C174.535 376.142 174.37 375.752 174.369 375.345ZM175.244 375.345C175.244 375.48 175.285 375.611 175.361 375.723C175.437 375.834 175.546 375.921 175.673 375.973C175.8 376.024 175.939 376.038 176.074 376.011C176.209 375.985 176.332 375.92 176.429 375.826C176.527 375.731 176.593 375.61 176.619 375.478C176.646 375.346 176.633 375.21 176.58 375.086C176.527 374.962 176.438 374.856 176.324 374.781C176.21 374.706 176.076 374.667 175.938 374.667C175.754 374.667 175.578 374.738 175.448 374.866C175.318 374.993 175.244 375.166 175.244 375.345Z" fill="#61D1DB"/>
<path d="M166.446 365.934C166.446 365.63 166.538 365.334 166.711 365.081C166.883 364.829 167.128 364.632 167.415 364.516C167.702 364.4 168.017 364.37 168.322 364.429C168.626 364.488 168.906 364.634 169.126 364.849C169.345 365.063 169.495 365.337 169.555 365.635C169.616 365.932 169.585 366.241 169.466 366.521C169.347 366.802 169.146 367.041 168.888 367.21C168.63 367.378 168.326 367.468 168.016 367.468C167.6 367.468 167.201 367.306 166.906 367.018C166.612 366.731 166.447 366.341 166.446 365.934ZM167.321 365.934C167.321 366.068 167.362 366.2 167.438 366.311C167.515 366.423 167.623 366.51 167.75 366.561C167.877 366.613 168.016 366.626 168.151 366.6C168.286 366.574 168.41 366.509 168.507 366.414C168.604 366.319 168.67 366.198 168.697 366.067C168.724 365.935 168.71 365.798 168.657 365.674C168.605 365.55 168.516 365.444 168.401 365.37C168.287 365.295 168.153 365.255 168.016 365.255C167.832 365.255 167.655 365.327 167.525 365.454C167.395 365.581 167.322 365.754 167.321 365.934Z" fill="#61D1DB"/>
</g>
<g clip-path="url(#clip1)">
<path d="M228.081 242.84H72.6543C67.1314 242.84 62.6543 247.317 62.6543 252.84V331.03C62.6543 336.553 67.1315 341.03 72.6543 341.03H228.081C233.604 341.03 238.081 336.553 238.081 331.03V252.84C238.081 247.317 233.604 242.84 228.081 242.84Z" fill="#EDEDED"/>
<path d="M152.917 284.509C160.479 284.509 166.608 277.771 166.608 269.46C166.608 261.149 160.479 254.411 152.917 254.411C145.355 254.411 139.226 261.149 139.226 269.46C139.226 277.771 145.355 284.509 152.917 284.509Z" fill="#2F2E41"/>
<path d="M146.757 280.401C146.757 280.401 145.698 289.129 143.58 290.293C141.463 291.456 144.639 297.857 144.639 297.857L154.168 299.602L162.638 292.038C162.638 292.038 161.05 280.983 161.05 280.401C161.05 279.819 146.757 280.401 146.757 280.401Z" fill="#9F616A"/>
<path d="M146.757 280.401C146.757 280.401 145.698 289.129 143.58 290.293C141.463 291.456 144.639 297.857 144.639 297.857L154.168 299.602L162.638 292.038C162.638 292.038 161.05 280.983 161.05 280.401C161.05 279.819 146.757 280.401 146.757 280.401Z" fill="#FFB9B9"/>
<path d="M152.58 287.966C159.597 287.966 165.285 281.713 165.285 274.001C165.285 266.289 159.597 260.037 152.58 260.037C145.563 260.037 139.875 266.289 139.875 274.001C139.875 281.713 145.563 287.966 152.58 287.966Z" fill="#FFB9B9"/>
<path d="M152.315 297.566C152.315 297.566 147.022 287.675 144.375 288.257C141.728 288.838 133.523 290.293 132.464 289.711C131.405 289.129 124.524 315.895 124.524 315.895C124.524 315.895 117.112 368.843 121.877 375.244C126.641 381.644 143.051 378.153 145.169 384.553C147.286 390.954 180.637 381.062 180.637 377.571C180.637 374.08 181.166 320.549 181.695 316.476C182.225 312.403 176.931 290.875 176.931 290.875C176.931 290.875 164.491 287.093 162.373 288.257C160.256 289.42 159.197 292.911 152.315 297.566Z" fill="#6361DB"/>
<path d="M133.523 291.456L132.464 289.711C132.464 289.711 121.347 291.456 118.171 290.875C114.995 290.293 105.466 291.456 105.466 291.456C105.466 291.456 107.583 285.056 109.701 284.474C111.818 283.892 114.465 282.147 114.465 282.147C114.465 282.147 109.172 273.419 114.465 270.51C114.465 270.51 90.1143 280.983 88.5262 290.875C86.938 300.766 125.582 315.894 125.582 315.894L133.523 291.456Z" fill="#6361DB"/>
<path d="M172.696 292.039L176.931 290.875L198.106 293.202L191.224 285.056C191.224 285.056 195.459 279.238 192.812 276.329C192.812 276.329 220.869 287.966 217.693 295.53C214.517 303.094 181.166 316.476 179.578 317.058C177.99 317.64 172.696 292.039 172.696 292.039Z" fill="#6361DB"/>
<path d="M117.349 272.077C118.66 272.363 119.78 273.263 120.852 274.139C121.892 274.955 122.889 275.835 123.838 276.775C128.653 281.722 130.423 289.186 131.954 296.232C130.864 297.242 129.084 296.402 128.352 295.057C127.62 293.713 127.57 292.07 127.282 290.536C126.995 289.001 126.292 287.352 124.933 286.877C125.219 287.851 124.529 288.909 123.667 289.296C122.805 289.683 121.834 289.576 120.909 289.463C120.478 289.437 120.055 289.331 119.657 289.15C118.939 288.768 118.519 287.947 118.128 287.182C117.109 285.189 115.988 283.262 114.771 281.409C114.495 280.93 114.135 280.516 113.713 280.191C112.017 279.053 110.196 277.565 111.04 274.864C111.737 272.634 115.499 271.673 117.349 272.077Z" fill="#FFB9B9"/>
<path d="M187.733 275.54C185.827 275.644 184.185 277.007 182.79 278.437C176.951 284.462 173.191 292.525 172.151 301.254C172.083 301.839 172.061 302.528 172.469 302.912C172.928 303.343 173.683 303.088 174.06 302.569C174.39 302.011 174.597 301.376 174.663 300.714C175.033 298.735 175.665 296.827 176.537 295.049C176.985 294.137 177.607 293.177 178.538 293.016C179.924 292.776 180.961 294.39 182.285 294.901C183.849 295.504 185.6 294.424 186.55 292.932C187.5 291.441 187.872 289.612 188.395 287.884C188.919 286.157 189.695 284.386 191.124 283.464C192.645 282.483 196.147 281.801 194.662 279.048C193.583 277.047 189.726 275.431 187.733 275.54Z" fill="#FFB9B9"/>
<path d="M138.82 266.274C138.82 266.274 135.444 256.626 140.339 253.472L141.69 257.739C141.69 257.739 154.013 249.575 157.22 251.431L154.181 255.884C154.181 255.884 168.53 255.884 169.543 262.006L164.479 262.192C164.479 262.192 169.88 266.088 170.049 272.397L159.246 273.139L164.479 276.479C164.479 276.479 144.897 279.447 140.171 270.912L138.82 266.274Z" fill="#2F2E41"/>
<path d="M106.26 277.201L114.201 270.219C114.201 270.219 111.554 278.947 114.201 281.856L104.143 284.183L106.26 277.201Z" fill="#6368BA"/>
<path d="M198.899 281.274L192.017 275.456C192.017 275.456 193.076 283.02 190.959 284.765C188.841 286.511 196.782 287.093 196.782 287.093L198.899 281.274Z" fill="#6361DB"/>
</g>
<path d="M436.999 242.84H268.1C262.577 242.84 258.1 247.317 258.1 252.84V438.572C258.1 444.094 262.577 448.572 268.1 448.572H436.999C442.521 448.572 446.999 444.094 446.999 438.572V252.84C446.999 247.317 442.521 242.84 436.999 242.84Z" fill="#DB61CF"/>
<path d="M277.831 335.128L271.911 312.728H276.295L280.327 330.552L285.063 312.728H289.575L294.183 330.552L298.215 312.728H302.631L296.551 335.128H291.687L287.239 318.52L282.663 335.128H277.831ZM311.432 335.512C309.896 335.512 308.51 335.16 307.272 334.456C306.056 333.752 305.086 332.782 304.36 331.544C303.656 330.286 303.304 328.835 303.304 327.192C303.304 325.55 303.667 324.11 304.392 322.872C305.118 321.614 306.088 320.632 307.304 319.928C308.542 319.224 309.928 318.872 311.464 318.872C312.979 318.872 314.344 319.224 315.56 319.928C316.798 320.632 317.768 321.614 318.472 322.872C319.198 324.11 319.56 325.55 319.56 327.192C319.56 328.835 319.198 330.286 318.472 331.544C317.768 332.782 316.798 333.752 315.56 334.456C314.323 335.16 312.947 335.512 311.432 335.512ZM311.432 331.96C312.499 331.96 313.427 331.566 314.216 330.776C315.006 329.966 315.4 328.771 315.4 327.192C315.4 325.614 315.006 324.43 314.216 323.64C313.427 322.83 312.51 322.424 311.464 322.424C310.376 322.424 309.438 322.83 308.648 323.64C307.88 324.43 307.496 325.614 307.496 327.192C307.496 328.771 307.88 329.966 308.648 330.776C309.438 331.566 310.366 331.96 311.432 331.96ZM329.175 335.512C327.191 335.512 325.655 334.894 324.567 333.656C323.5 332.419 322.967 330.606 322.967 328.216V319.256H327.031V327.832C327.031 329.198 327.308 330.243 327.863 330.968C328.417 331.694 329.292 332.056 330.487 332.056C331.617 332.056 332.545 331.651 333.271 330.84C334.017 330.03 334.391 328.899 334.391 327.448V319.256H338.487V335.128H334.871L334.551 332.44C334.06 333.379 333.345 334.126 332.407 334.68C331.489 335.235 330.412 335.512 329.175 335.512ZM342.691 335.128V312.088H346.787V335.128H342.691ZM358.269 335.512C356.775 335.512 355.442 335.15 354.269 334.424C353.095 333.699 352.167 332.707 351.485 331.448C350.802 330.19 350.461 328.76 350.461 327.16C350.461 325.56 350.802 324.142 351.485 322.904C352.167 321.646 353.095 320.664 354.269 319.96C355.442 319.235 356.775 318.872 358.269 318.872C359.463 318.872 360.509 319.096 361.405 319.544C362.301 319.992 363.026 320.622 363.581 321.432V312.088H367.677V335.128H364.029L363.581 332.856C363.069 333.56 362.386 334.179 361.533 334.712C360.701 335.246 359.613 335.512 358.269 335.512ZM359.133 331.928C360.455 331.928 361.533 331.491 362.365 330.616C363.218 329.72 363.645 328.579 363.645 327.192C363.645 325.806 363.218 324.675 362.365 323.8C361.533 322.904 360.455 322.456 359.133 322.456C357.831 322.456 356.754 322.894 355.901 323.768C355.047 324.643 354.621 325.774 354.621 327.16C354.621 328.547 355.047 329.688 355.901 330.584C356.754 331.48 357.831 331.928 359.133 331.928ZM381.457 342.168L385.137 334.072H384.177L378.001 319.256H382.449L386.897 330.424L391.537 319.256H395.889L385.809 342.168H381.457ZM404.807 335.512C403.271 335.512 401.885 335.16 400.647 334.456C399.431 333.752 398.461 332.782 397.735 331.544C397.031 330.286 396.679 328.835 396.679 327.192C396.679 325.55 397.042 324.11 397.767 322.872C398.493 321.614 399.463 320.632 400.679 319.928C401.917 319.224 403.303 318.872 404.839 318.872C406.354 318.872 407.719 319.224 408.935 319.928C410.173 320.632 411.143 321.614 411.847 322.872C412.573 324.11 412.935 325.55 412.935 327.192C412.935 328.835 412.573 330.286 411.847 331.544C411.143 332.782 410.173 333.752 408.935 334.456C407.698 335.16 406.322 335.512 404.807 335.512ZM404.807 331.96C405.874 331.96 406.802 331.566 407.591 330.776C408.381 329.966 408.775 328.771 408.775 327.192C408.775 325.614 408.381 324.43 407.591 323.64C406.802 322.83 405.885 322.424 404.839 322.424C403.751 322.424 402.813 322.83 402.023 323.64C401.255 324.43 400.871 325.614 400.871 327.192C400.871 328.771 401.255 329.966 402.023 330.776C402.813 331.566 403.741 331.96 404.807 331.96ZM422.55 335.512C420.566 335.512 419.03 334.894 417.942 333.656C416.875 332.419 416.342 330.606 416.342 328.216V319.256H420.406V327.832C420.406 329.198 420.683 330.243 421.238 330.968C421.792 331.694 422.667 332.056 423.862 332.056C424.992 332.056 425.92 331.651 426.646 330.84C427.392 330.03 427.766 328.899 427.766 327.448V319.256H431.862V335.128H428.246L427.926 332.44C427.435 333.379 426.72 334.126 425.782 334.68C424.864 335.235 423.787 335.512 422.55 335.512ZM302.051 377.128V361.256H305.699L306.083 364.232C306.659 363.208 307.437 362.398 308.419 361.8C309.421 361.182 310.595 360.872 311.939 360.872V365.192H310.787C309.891 365.192 309.091 365.331 308.387 365.608C307.683 365.886 307.128 366.366 306.723 367.048C306.339 367.731 306.147 368.68 306.147 369.896V377.128H302.051ZM320.21 377.512C318.845 377.512 317.725 377.299 316.85 376.872C315.976 376.424 315.325 375.838 314.898 375.112C314.472 374.387 314.258 373.587 314.258 372.712C314.258 371.24 314.834 370.046 315.986 369.128C317.138 368.211 318.866 367.752 321.17 367.752H325.202V367.368C325.202 366.28 324.893 365.48 324.274 364.968C323.656 364.456 322.888 364.2 321.97 364.2C321.138 364.2 320.413 364.403 319.794 364.808C319.176 365.192 318.792 365.768 318.642 366.536H314.642C314.749 365.384 315.133 364.382 315.794 363.528C316.477 362.675 317.352 362.024 318.418 361.576C319.485 361.107 320.68 360.872 322.002 360.872C324.264 360.872 326.045 361.438 327.346 362.568C328.648 363.699 329.298 365.299 329.298 367.368V377.128H325.81L325.426 374.568C324.957 375.422 324.296 376.126 323.442 376.68C322.61 377.235 321.533 377.512 320.21 377.512ZM321.138 374.312C322.312 374.312 323.218 373.928 323.858 373.16C324.52 372.392 324.936 371.443 325.106 370.312H321.618C320.53 370.312 319.752 370.515 319.282 370.92C318.813 371.304 318.578 371.784 318.578 372.36C318.578 372.979 318.813 373.459 319.282 373.8C319.752 374.142 320.37 374.312 321.138 374.312ZM340.06 377.128C338.396 377.128 337.063 376.723 336.06 375.912C335.058 375.102 334.556 373.662 334.556 371.592V364.68H331.836V361.256H334.556L335.036 357H338.652V361.256H342.94V364.68H338.652V371.624C338.652 372.392 338.812 372.926 339.132 373.224C339.474 373.502 340.05 373.64 340.86 373.64H342.844V377.128H340.06ZM346.457 377.128V354.088H350.553V363.688C351.086 362.814 351.801 362.131 352.697 361.64C353.614 361.128 354.66 360.872 355.833 360.872C357.796 360.872 359.31 361.491 360.377 362.728C361.465 363.966 362.009 365.779 362.009 368.168V377.128H357.945V368.552C357.945 367.187 357.668 366.142 357.113 365.416C356.58 364.691 355.726 364.328 354.553 364.328C353.401 364.328 352.441 364.734 351.673 365.544C350.926 366.355 350.553 367.486 350.553 368.936V377.128H346.457ZM373.638 377.512C372.038 377.512 370.619 377.171 369.382 376.488C368.144 375.806 367.174 374.846 366.47 373.608C365.766 372.371 365.414 370.942 365.414 369.32C365.414 367.678 365.755 366.216 366.438 364.936C367.142 363.656 368.102 362.664 369.318 361.96C370.555 361.235 372.006 360.872 373.67 360.872C375.227 360.872 376.603 361.214 377.798 361.896C378.992 362.579 379.92 363.518 380.582 364.712C381.264 365.886 381.606 367.198 381.606 368.648C381.606 368.883 381.595 369.128 381.574 369.384C381.574 369.64 381.563 369.907 381.542 370.184H369.478C369.563 371.422 369.99 372.392 370.758 373.096C371.547 373.8 372.496 374.152 373.606 374.152C374.438 374.152 375.131 373.971 375.686 373.608C376.262 373.224 376.688 372.734 376.966 372.136H381.126C380.827 373.139 380.326 374.056 379.622 374.888C378.939 375.699 378.086 376.339 377.062 376.808C376.059 377.278 374.918 377.512 373.638 377.512ZM373.67 364.2C372.667 364.2 371.782 364.488 371.014 365.064C370.246 365.619 369.755 366.472 369.542 367.624H377.446C377.382 366.579 376.998 365.747 376.294 365.128C375.59 364.51 374.715 364.2 373.67 364.2ZM385.051 377.128V361.256H388.699L389.083 364.232C389.659 363.208 390.437 362.398 391.419 361.8C392.421 361.182 393.595 360.872 394.939 360.872V365.192H393.787C392.891 365.192 392.091 365.331 391.387 365.608C390.683 365.886 390.128 366.366 389.723 367.048C389.339 367.731 389.147 368.68 389.147 369.896V377.128H385.051ZM398.602 370.056L398.154 354.728H402.538L402.058 370.056H398.602ZM400.426 377.352C399.658 377.352 399.029 377.118 398.538 376.648C398.069 376.179 397.834 375.614 397.834 374.952C397.834 374.27 398.069 373.694 398.538 373.224C399.029 372.755 399.658 372.52 400.426 372.52C401.152 372.52 401.749 372.755 402.218 373.224C402.709 373.694 402.954 374.27 402.954 374.952C402.954 375.614 402.709 376.179 402.218 376.648C401.749 377.118 401.152 377.352 400.426 377.352Z" fill="white"/>
<path d="M252.489 227.878C254.038 227.878 255.294 226.622 255.294 225.073C255.294 223.523 254.038 222.267 252.489 222.267C250.94 222.267 249.684 223.523 249.684 225.073C249.684 226.622 250.94 227.878 252.489 227.878Z" fill="#181818"/>
<path d="M146.035 45.6139C143.343 49.2102 141.714 53.4889 141.331 57.9645C140.783 63.4124 139.188 72.126 134.546 76.7061C127.474 83.6842 125.117 88.9177 125.117 88.9177L127.474 91.5345C127.474 86.3009 130.617 85.4286 130.617 85.4286L129.832 91.5345C151.047 111.596 198.193 93.279 198.193 93.279L196.621 77.5783C200.55 79.3228 202.122 91.5345 202.122 91.5345L208.408 89.79C208.408 89.79 197.407 70.6003 190.335 53.1551C183.263 35.7099 172.263 40.0712 172.263 40.0712C159.298 33.1416 150.734 39.5678 146.035 45.6139Z" fill="#2F2E41"/>
<path d="M219.759 54.8762L227.308 17.2384C227.308 17.2384 219.256 2.26004 232.844 0.723802C246.433 -0.812435 237.374 18.7746 237.374 18.7746L232.844 54.8762H219.759Z" fill="#FFB9B9"/>
<path d="M184.561 74.7973C186.179 64.8292 179.409 55.4371 169.441 53.8195C159.473 52.2019 150.081 58.9714 148.463 68.9395C146.845 78.9077 153.615 88.2998 163.583 89.9174C173.551 91.535 182.943 84.7655 184.561 74.7973Z" fill="#FFB9B9"/>
<path d="M158.894 85.5829C165.497 95.2334 157.37 100.82 157.37 100.82L153.814 127.232C153.814 127.232 191.908 130.788 198.511 125.708C205.114 120.629 190.892 103.868 185.813 102.344C180.734 100.82 179.718 79.9958 179.718 79.9958L158.894 85.5829Z" fill="#FFB9B9"/>
<path d="M203.083 115.042L223.4 89.1382L237.621 54.092L217.813 46.4736L209.686 75.4247L195.464 92.6941L194.956 95.7413L203.083 115.042Z" fill="#61D1DB"/>
<path d="M185.822 65.7821L152.275 66.5809L148.281 49.8074H185.822V65.7821Z" fill="#2F2E41"/>
<path d="M213.749 288.75C216.289 292.813 216.797 313.638 216.797 313.638L234.574 302.464L229.494 284.179L213.749 288.75Z" fill="#FFB9B9"/>
<path d="M188.861 179.548C188.861 179.548 166.513 179.548 154.323 186.659C150.405 188.944 149.268 193.067 149.529 197.609C150.211 209.475 159.902 218.845 171.765 219.579L206.13 221.705C201.051 235.927 212.733 291.29 212.733 291.29L231.018 288.75C231.018 288.75 228.479 269.957 228.987 268.941C229.495 267.925 234.066 228.308 231.018 207.483C227.971 186.659 186.322 195.293 186.322 195.293L188.861 179.548Z" fill="#060072"/>
<path d="M252.351 311.606L252.07 312.02L252.136 312.065L252.213 312.087L252.351 311.606ZM252.351 311.606C252.07 312.02 252.07 312.02 252.069 312.02L252.069 312.019L252.067 312.018L252.06 312.013L252.033 311.995L251.926 311.922C251.832 311.858 251.693 311.763 251.516 311.642C251.162 311.4 250.651 311.05 250.028 310.622C248.781 309.764 247.081 308.588 245.27 307.317C241.658 304.782 237.572 301.847 235.772 300.304C235.024 299.663 234.212 299.553 233.367 299.759C232.495 299.972 231.595 300.523 230.763 301.201C229.936 301.874 229.212 302.644 228.691 303.25C228.432 303.552 228.225 303.811 228.083 303.994C228.015 304.082 227.962 304.153 227.926 304.202C227.602 305.48 226.635 306.432 225.467 307.138C224.264 307.865 222.781 308.372 221.362 308.726C219.938 309.083 218.55 309.292 217.521 309.413C217.006 309.473 216.579 309.511 216.28 309.535C216.265 309.536 216.25 309.537 216.235 309.538C216.229 309.603 216.222 309.675 216.214 309.753C216.173 310.16 216.116 310.742 216.048 311.448C215.913 312.859 215.739 314.761 215.581 316.726C215.422 318.692 215.28 320.716 215.209 322.373C215.173 323.202 215.156 323.934 215.163 324.519C215.169 325.095 215.2 325.484 215.244 325.682C215.255 325.695 215.287 325.727 215.361 325.774C215.496 325.859 215.71 325.956 216.018 326.056C216.63 326.253 217.523 326.433 218.669 326.578C220.954 326.868 224.165 327.01 227.958 326.915C235.543 326.726 245.403 325.588 254.748 322.809C257.077 322.117 258.758 321.424 259.927 320.749C261.103 320.071 261.711 319.439 261.97 318.892C262.214 318.377 262.174 317.883 261.903 317.37C261.621 316.835 261.089 316.289 260.369 315.753C258.934 314.684 256.907 313.767 255.21 313.112C254.367 312.787 253.616 312.53 253.076 312.355C252.806 312.267 252.589 312.2 252.441 312.155C252.366 312.132 252.309 312.115 252.27 312.104L252.227 312.091L252.216 312.088L252.214 312.087L252.213 312.087L252.351 311.606Z" fill="white" stroke="#D6D6D6"/>
<path d="M159.888 98.1149L139.847 94.9798L137.561 116.566C137.561 116.566 138.577 164.818 137.561 173.453C136.545 182.088 154.83 191.738 154.83 191.738C154.83 191.738 181.242 189.706 186.321 187.167C191.401 184.627 207.654 189.706 207.654 189.706C209.464 189.807 211.277 189.548 212.987 188.945C216.035 187.929 205.114 115.551 205.114 115.551L195.464 93.2021L183.782 97.7734L180.226 114.535L159.888 98.1149Z" fill="#61D1DB"/>
<path d="M139.063 154.473L189.383 156.368C189.383 156.368 208.137 146.035 211.719 159.428C215.3 172.821 188.523 166.691 188.523 166.691L140.569 167.593L139.063 154.473Z" fill="#FFB9B9"/>
<path d="M143.403 150.85L166.767 152.374L169.814 168.119C169.814 168.119 141.371 167.612 130.197 167.104C119.023 166.596 130.197 119.359 131.721 105.138C133.244 90.9161 140.863 94.9794 140.863 94.9794L145.434 98.5349L143.403 150.85Z" fill="#61D1DB"/>
<path opacity="0.15" d="M147.466 145.771L167.783 153.898L145.434 149.326L143.91 120.375L147.466 145.771Z" fill="black"/>
<path d="M387.379 459.214C387.586 469.303 379.357 477.573 369.273 477.924L367.87 477.973C366.63 478.012 365.454 478.534 364.595 479.429C363.941 480.085 363.5 480.921 363.327 481.831C363.245 482.199 363.211 482.575 363.226 482.952L363.845 500.753C363.973 504.174 363.113 507.56 361.368 510.506C358.87 514.721 357.487 519.494 357.657 524.389C357.696 525.529 357.508 526.666 357.103 527.732C356.698 528.799 356.085 529.774 355.299 530.601C354.513 531.428 353.571 532.09 352.526 532.548C351.482 533.007 350.356 533.253 349.216 533.272C344.497 533.349 340.658 529.424 340.493 524.705L340.338 520.253L338.011 520.609L338.166 525.068C338.205 526.208 338.016 527.344 337.611 528.411C337.206 529.477 336.592 530.452 335.806 531.279C335.02 532.106 334.077 532.768 333.032 533.227C331.988 533.685 330.862 533.931 329.722 533.95C325.003 534.028 321.166 530.102 321.002 525.383L320.924 523.13C318.618 524.187 305.362 524.648 301.649 523.834L300.647 523.791L300.737 526.37C300.776 527.51 300.587 528.647 300.183 529.713C299.778 530.78 299.164 531.755 298.379 532.582C297.593 533.409 296.65 534.071 295.606 534.529C294.561 534.988 293.436 535.234 292.295 535.253C287.573 535.33 283.737 531.405 283.573 526.686L283.444 522.984L282.66 522.94L282.802 526.994C282.826 527.713 282.763 528.431 282.612 529.134C282.195 531.022 281.153 532.714 279.656 533.937C278.159 535.161 276.293 535.844 274.36 535.877C270.045 535.949 266.474 532.676 265.757 528.51C265.695 528.115 265.655 527.716 265.638 527.316L264.989 508.684C264.757 502.283 266.683 495.991 270.458 490.818C271.112 489.903 271.457 488.804 271.445 487.68C271.432 486.556 271.062 485.465 270.387 484.565C265.799 478.323 258.966 467.757 258.913 460.099C258.889 457.883 259.429 455.92 260.759 454.367C260.84 454.271 260.923 454.175 261.007 454.085C267.062 447.284 278.313 452.078 277.661 461.157C277.443 464.199 277.775 467.255 278.64 470.179C279.131 471.832 279.774 473.436 280.563 474.969C281.35 476.508 282.603 477.76 284.142 478.547C285.682 479.334 287.43 479.616 289.139 479.353C290.301 479.171 304.953 480.416 306.129 480.377L328.695 477.767C330.81 477.689 332.847 476.951 334.521 475.657C336.195 474.364 337.422 472.578 338.031 470.551C338.359 469.488 338.505 468.377 338.461 467.265L337.486 439.225C337.46 438.493 337.581 437.764 337.843 437.08C338.105 436.397 338.501 435.773 339.009 435.245C339.516 434.718 340.125 434.298 340.798 434.01C341.471 433.723 342.195 433.573 342.927 433.571C343.642 433.568 344.351 433.709 345.01 433.986C345.67 434.263 346.266 434.671 346.764 435.184C347.777 436.228 348.367 437.61 348.421 439.063C348.434 439.443 348.522 439.816 348.68 440.162C348.837 440.508 349.061 440.819 349.34 441.078C349.618 441.338 349.944 441.539 350.3 441.672C350.656 441.805 351.035 441.866 351.415 441.853L368.405 441.262C370.834 441.176 373.255 441.574 375.529 442.434C377.802 443.293 379.882 444.596 381.648 446.267C383.413 447.937 384.828 449.942 385.811 452.165C386.794 454.388 387.325 456.784 387.373 459.215L387.379 459.214Z" fill="#F3AD55"/>
<path d="M282.595 529.134C282.177 531.022 281.136 532.715 279.638 533.938C278.141 535.161 276.275 535.845 274.342 535.878C270.028 535.95 266.457 532.677 265.739 528.511C270.885 526.924 278.048 525.71 282.595 529.134Z" fill="#FBDCA3"/>
<path d="M300.527 528.51C300.111 530.398 299.07 532.091 297.573 533.314C296.076 534.538 294.211 535.221 292.278 535.254C287.963 535.326 284.377 532.053 283.675 527.887C288.82 526.299 295.983 525.086 300.527 528.51Z" fill="#FBDCA3"/>
<path d="M337.956 527.208C337.539 529.096 336.498 530.789 335 532.012C333.503 533.236 331.637 533.919 329.703 533.951C325.389 534.023 321.803 530.751 321.104 526.584C326.246 524.997 333.409 523.783 337.956 527.208Z" fill="#FBDCA3"/>
<path d="M357.45 526.529C357.033 528.417 355.991 530.11 354.494 531.333C352.997 532.556 351.131 533.24 349.198 533.273C344.883 533.345 341.297 530.072 340.595 525.906C345.74 524.319 352.903 523.105 357.45 526.529Z" fill="#FBDCA3"/>
<path d="M277.722 465.565C271.578 463.343 264.834 463.488 258.811 459.821C258.787 457.605 259.327 455.642 260.657 454.089C260.738 453.993 260.821 453.897 260.905 453.807C266.96 447.006 277.619 451.851 277.932 460.845C278.055 464.378 277.502 462.862 277.722 465.565Z" fill="#FBDCA3"/>
<path d="M362.89 486.906C362.89 486.906 354.286 496.132 363.327 502.901L362.89 486.906Z" fill="#FBDCA3"/>
<path opacity="0.1" d="M363.918 480.453C363.278 481.099 363.523 481.692 363.355 482.612L334.105 476.026C335.622 474.775 337.505 473.278 338.079 471.352C341.644 473.928 348.672 478.213 363.918 480.453Z" fill="black"/>
<path d="M364.595 479.429C363.942 480.085 363.5 480.921 363.328 481.831L334.813 475.448C336.349 474.177 337.474 472.481 338.047 470.572C341.617 473.15 349.346 477.189 364.595 479.429Z" fill="#383F4D"/>
<path opacity="0.1" d="M339.163 472.094C339.163 472.094 348.236 478.435 363.122 479.975L339.163 472.094Z" fill="black"/>
<path d="M339.136 471.316C339.136 471.316 348.209 477.657 363.095 479.2L339.136 471.316Z" fill="#F3AD55"/>
<path opacity="0.1" d="M362.313 470.335C362.313 470.335 374.316 473.803 377.011 461.4L362.313 470.335Z" fill="black"/>
<path d="M362.279 469.334C362.279 469.334 374.282 472.806 376.977 460.4L362.279 469.334Z" fill="#FBDCA3"/>
<path d="M387.413 460.118C388.274 460.088 388.929 458.842 388.877 457.335C388.824 455.828 388.084 454.63 387.223 454.66C386.362 454.69 385.707 455.936 385.759 457.443C385.811 458.95 386.552 460.148 387.413 460.118Z" fill="#383F4D"/>
<path opacity="0.1" d="M270.645 509.128L273.049 493.035C273.049 493.035 264.494 502.838 270.645 509.128Z" fill="black"/>
<path d="M273.049 493.035C273.049 493.035 266.274 502.776 271.236 509.108L273.049 493.035Z" fill="#FBDCA3"/>
<g clip-path="url(#clip2)">
<path d="M528.484 234.774C528.484 234.774 517.847 234.788 512.688 233.014C507.528 231.241 496.068 234.84 496.068 234.84L466.473 240.339C466.473 240.339 437.833 256.202 436.663 241.796C436.008 233.728 463.078 231.623 463.078 231.623L512.391 217.835L529.967 214.95L528.484 234.774Z" fill="#A0616A"/>
<path d="M536.604 296.919L531.161 303.157L530.533 333.39C530.533 333.39 532.051 372.292 531.545 373.751C531.039 375.21 521.933 434.535 521.933 434.535C521.933 434.535 532.556 439.398 542.169 436.48C542.169 436.48 551.781 392.716 551.781 380.073L562.91 335.821L580.111 386.394C580.111 386.394 581.123 420.433 583.146 431.618C585.17 442.802 585.17 444.261 585.17 444.261C585.17 444.261 601.358 448.637 605.406 444.261C605.406 444.261 603.382 386.88 601.864 381.045L598.323 311.508L536.604 296.919Z" fill="#2F2E41"/>
<path d="M525.98 434.535C525.98 434.535 524.968 433.077 521.933 436.967C518.897 440.857 509.285 448.151 509.285 448.151C509.285 448.151 482.979 466.143 502.709 467.116C522.439 468.088 525.98 458.363 525.98 458.363C525.98 458.363 542.675 455.445 543.18 452.041C543.686 448.637 541.157 435.022 541.157 435.022L525.98 434.535Z" fill="#2F2E41"/>
<path d="M586.182 443.288C586.182 443.288 582.641 454.959 583.653 459.822C584.664 464.684 581.629 482.677 595.794 481.218C609.959 479.759 605.406 464.198 605.406 464.198L600.853 444.261L586.182 443.288Z" fill="#2F2E41"/>
<path d="M566.199 188.723C575.42 188.723 582.894 181.539 582.894 172.676C582.894 163.813 575.42 156.629 566.199 156.629C556.979 156.629 549.505 163.813 549.505 172.676C549.505 181.539 556.979 188.723 566.199 188.723Z" fill="#A0616A"/>
<path d="M556.334 181.186C556.334 181.186 561.393 198.205 557.346 204.527C553.299 210.849 584.664 205.5 586.688 199.664C586.688 199.664 576.57 188.966 578.088 178.754L556.334 181.186Z" fill="#A0616A"/>
<path d="M564.428 204.041C564.428 204.041 578.277 204.941 585.012 197.683L603.03 205.085C604.998 205.893 606.623 207.32 607.638 209.132C608.653 210.944 608.998 213.033 608.616 215.058L599.335 264.339C599.335 264.339 603.581 295.461 601.359 316.37C599.35 335.262 528.164 320.607 530.694 304.56C530.965 302.84 530.931 303.523 531.161 301.754C533.289 285.948 534.97 263.596 538.978 248.131C540.323 242.848 530.912 210.567 530.912 210.567L558.872 198.612C558.872 198.612 559.875 204.041 564.428 204.041Z" fill="#61D1DB"/>
<path d="M549.667 209.41L546.16 204.646L512.818 216.601C512.818 216.601 519.329 233.022 522.855 233.603C524.206 233.825 540.154 237.008 544.887 232.604C552.503 225.517 549.667 209.41 549.667 209.41Z" fill="#61D1DB"/>
<path d="M616.907 233.028L617.152 250.166L612.016 299.284C612.016 299.284 614.787 325.252 606.414 326.101C591.463 327.615 602.483 297.66 602.483 297.66L602.726 268.687C602.726 268.687 604.323 257.2 601.57 252.646C598.818 248.092 596.897 238.036 596.897 238.036L616.907 233.028Z" fill="#A0616A"/>
<path d="M602.877 206.472C604.926 206.472 606.92 207.111 608.558 208.295C610.196 209.479 611.389 211.142 611.957 213.035C615.188 223.795 621.056 244.045 619.571 244.402C617.548 244.888 593.771 246.347 593.771 246.347L602.877 206.472Z" fill="#61D1DB"/>
<path d="M419.32 258.292L419.442 258.321C421.651 258.833 423.635 260.003 425.112 261.663C426.589 263.323 427.483 265.389 427.667 267.566C427.851 269.744 427.315 271.921 426.136 273.788C424.957 275.656 423.195 277.118 421.101 277.966C420.277 278.302 419.412 278.536 418.526 278.664C416.955 278.895 415.35 278.789 413.826 278.354C412.302 277.919 410.897 277.167 409.711 276.149C408.525 275.132 407.587 273.876 406.964 272.47C406.342 271.064 406.05 269.544 406.109 268.017C406.169 266.49 406.578 264.995 407.308 263.638C408.039 262.281 409.072 261.095 410.334 260.166C411.596 259.237 413.055 258.588 414.609 258.264C416.162 257.94 417.771 257.95 419.32 258.292V258.292Z" fill="#61D1DB"/>
<path d="M462.29 260.459L425.257 261.904L426.3 273.687L463.105 268.351C463.759 268.265 464.351 267.935 464.755 267.434C465.159 266.933 465.343 266.3 465.268 265.67L465.218 265.254L466.671 265.196C466.849 265.189 467.024 265.146 467.184 265.07C467.344 264.993 467.485 264.886 467.599 264.754C467.713 264.622 467.797 264.468 467.846 264.303C467.894 264.138 467.906 263.965 467.88 263.795L467.871 263.736C467.824 263.422 467.652 263.138 467.392 262.944C467.131 262.749 466.802 262.659 466.474 262.693L464.93 262.851L464.901 262.607C464.828 261.998 464.518 261.439 464.034 261.04C463.55 260.642 462.927 260.434 462.29 260.459Z" fill="#3F3D56"/>
<path d="M441.777 267.396C441.739 267.549 441.649 267.686 441.523 267.786C441.397 267.886 441.24 267.943 441.076 267.95L438.416 268.056C438.235 268.062 438.057 268.006 437.916 267.897C437.774 267.788 437.678 267.634 437.644 267.463L437.375 266.05C437.356 265.952 437.359 265.851 437.382 265.754C437.406 265.657 437.45 265.566 437.512 265.486C437.574 265.406 437.653 265.34 437.743 265.29C437.833 265.241 437.933 265.21 438.036 265.2L440.727 264.924C440.921 264.904 441.115 264.956 441.269 265.071C441.423 265.186 441.525 265.354 441.552 265.54L441.552 265.54L441.79 267.123C441.804 267.214 441.799 267.307 441.777 267.396ZM437.871 265.863C437.863 265.896 437.862 265.93 437.868 265.963L438.138 267.376C438.149 267.433 438.181 267.484 438.228 267.521C438.276 267.557 438.335 267.576 438.395 267.574L441.055 267.468C441.09 267.466 441.125 267.458 441.156 267.443C441.188 267.428 441.216 267.407 441.238 267.381C441.26 267.355 441.277 267.324 441.287 267.292C441.296 267.259 441.298 267.225 441.293 267.192L441.055 265.609C441.046 265.547 441.012 265.491 440.961 265.453C440.91 265.415 440.845 265.397 440.78 265.404L438.089 265.68C438.054 265.683 438.021 265.693 437.991 265.71C437.961 265.726 437.935 265.748 437.914 265.775C437.894 265.801 437.879 265.831 437.871 265.863Z" fill="#E6E6E6"/>
<path d="M569.379 146.49L563.755 142.78L564.88 145.253L560.381 144.017L561.506 145.253L555.882 144.017L558.131 146.49C558.131 146.49 549.133 146.49 548.008 156.385L542.384 157.621L544.633 161.332V165.042L546.883 167.516V171.226L549.865 176.445L551.382 168.753C551.382 168.753 561.506 171.226 566.005 161.332C566.005 161.332 567.13 165.042 572.754 163.805L581.752 181.121C581.752 181.121 582.877 173.445 586.814 172.335C590.751 171.226 588.501 161.332 588.501 161.332C588.501 161.332 585.127 157.621 585.127 155.148C585.127 152.674 581.752 150.201 579.503 150.201C577.253 150.201 571.629 145.253 571.629 145.253L569.379 146.49Z" fill="#2F2E41"/>
</g>
<defs>
<clipPath id="clip0">
<rect width="175.849" height="98.19" fill="white" transform="translate(62.6543 350.382)"/>
</clipPath>
<clipPath id="clip1">
<rect width="175.427" height="98.19" fill="white" transform="translate(62.6543 242.84)"/>
</clipPath>
<clipPath id="clip2">
<rect width="214.148" height="338.522" fill="white" transform="translate(405.853 142.78)"/>
</clipPath>
</defs>
</svg>
