<svg width="466" height="281" viewBox="0 0 466 281" fill="none" xmlns="http://www.w3.org/2000/svg">
<g clip-path="url(#clip0)">
<path d="M32.2148 263.004L59.6983 223.516L32.2008 267.299L32.1848 271.792C30.2249 271.776 28.2847 271.712 26.3644 271.601C26.3557 270.581 28.6917 214.452 28.5924 213.436C28.7279 213.398 28.804 208.128 28.8578 207.897L0.145508 164.745L28.8886 203.813L28.9743 204.968L30.6795 161.359L5.99822 116.702L30.8747 153.696C30.884 153.103 32.0521 63.5643 32.0636 63.0118C32.0707 63.3052 32.6068 134.267 32.6108 134.566L56.2155 106.003L32.5881 140.704L32.4675 179.733L54.3724 141.991C27.0353 197.032 33.0851 177.771 32.3869 207.174L64.2052 154.62L32.3597 214.745L32.2148 263.004Z" fill="#D0CDE1"/>
<path d="M452.669 268.365L464.122 251.909L452.663 270.155L452.656 272.027C451.84 272.021 451.031 271.994 450.231 271.948C450.227 271.523 451.201 248.132 451.159 247.709C451.216 247.693 451.247 245.497 451.27 245.401L439.305 227.418L451.283 243.699L451.318 244.18L452.029 226.007L441.744 207.397L452.11 222.814C452.114 222.567 452.601 185.254 452.606 185.023C452.609 185.146 452.832 214.717 452.834 214.842L462.67 202.939L452.824 217.4L452.774 233.664L461.902 217.936C450.51 240.873 453.031 232.847 452.741 245.099L466 223.199L452.729 248.254L452.669 268.365Z" fill="#D0CDE1"/>
<path d="M232.238 280.289C360.5 280.289 464.477 276.215 464.477 271.19C464.477 266.165 360.5 262.091 232.238 262.091C103.977 262.091 0 266.165 0 271.19C0 276.215 103.977 280.289 232.238 280.289Z" fill="#D0CDE1"/>
<path d="M344.891 107.467H79.7236V265.558H344.891V107.467Z" fill="#3F3D56"/>
<path d="M145.348 107.467C145.077 124.103 138.279 139.965 126.419 151.635C114.559 163.304 98.5887 169.845 81.9507 169.846C81.2055 169.846 80.4645 169.833 79.7236 169.807V107.467H145.348Z" fill="#61D1DB"/>
<path d="M225.278 265.558H200.059C201.008 262.977 202.725 260.75 204.98 259.176C207.235 257.603 209.919 256.759 212.669 256.759C215.418 256.759 218.102 257.603 220.357 259.176C222.612 260.75 224.33 262.977 225.278 265.558Z" fill="#61D1DB"/>
<path d="M344.891 183.785V237.035C338.055 236.701 331.609 233.75 326.889 228.793C322.168 223.837 319.536 217.254 319.536 210.41C319.536 203.565 322.168 196.983 326.889 192.026C331.609 187.07 338.055 184.119 344.891 183.785Z" fill="#61D1DB"/>
<path d="M296.178 164.913H128.897C124.582 164.913 121.084 168.411 121.084 172.726V172.726C121.084 177.04 124.582 180.538 128.897 180.538H296.178C300.492 180.538 303.99 177.04 303.99 172.726C303.99 168.411 300.492 164.913 296.178 164.913Z" fill="white"/>
<path d="M296.178 195.704H128.897C124.582 195.704 121.084 199.202 121.084 203.516V203.516C121.084 207.831 124.582 211.329 128.897 211.329H296.178C300.492 211.329 303.99 207.831 303.99 203.516C303.99 199.202 300.492 195.704 296.178 195.704Z" fill="white"/>
<path d="M296.178 226.494H247.675C243.361 226.494 239.863 229.992 239.863 234.307C239.863 238.622 243.361 242.12 247.675 242.12H296.178C300.492 242.12 303.99 238.622 303.99 234.307C303.99 229.992 300.492 226.494 296.178 226.494Z" fill="white"/>
<path d="M386.942 48.5792C386.942 48.5792 394.233 51.4148 394.638 60.7318C395.044 70.0488 392.613 95.9744 392.613 95.9744C392.613 95.9744 401.525 108.937 394.638 112.583C387.752 116.229 386.942 97.9998 386.942 97.9998L378.84 59.5165C378.84 59.5165 383.701 48.1741 386.942 48.5792Z" fill="#A0616A"/>
<path d="M312.406 78.5557C312.406 78.5557 294.987 89.8981 294.177 80.9862C293.367 72.0743 299.443 37.2368 299.443 37.2368C299.443 37.2368 300.253 22.2486 308.76 25.8944C317.267 29.5402 306.33 42.0979 306.33 42.0979L307.545 70.4539L315.647 70.0489L312.406 78.5557Z" fill="#A0616A"/>
<path d="M340.357 89.0879C340.357 89.0879 286.885 69.2387 289.721 92.3286C292.557 115.419 306.33 144.585 306.33 144.585L311.191 152.282H321.318L314.836 110.558C314.836 110.558 337.926 123.52 344.813 121.495C344.813 121.495 353.725 181.043 356.965 185.499C360.206 189.955 365.877 243.831 365.877 243.831L371.143 250.313H381.271V159.168C381.271 159.168 398.689 102.456 385.322 99.6202C371.954 96.7846 340.357 89.0879 340.357 89.0879Z" fill="#2F2E41"/>
<path d="M309.975 147.015C309.975 147.015 307.545 142.559 303.494 147.015C299.443 151.471 289.721 156.737 289.721 156.737C289.721 156.737 268.657 161.599 285.67 165.649C302.684 169.7 304.709 165.649 304.709 165.649C304.709 165.649 307.545 166.46 309.975 167.27C312.406 168.08 328.204 165.244 328.204 162.814C328.204 160.383 322.841 145.858 320.662 148.057C318.482 150.256 309.975 147.015 309.975 147.015Z" fill="#2F2E41"/>
<path d="M371.92 246.303C371.92 246.303 365.947 241.384 364.541 242.789C363.136 244.195 355.758 253.681 355.758 253.681C355.758 253.681 336.083 268.789 354.001 271.248C371.92 273.707 370.866 267.032 370.866 267.032H376.487C377.19 267.032 386.676 262.816 386.325 261.059C385.973 259.302 381.757 244.978 380.352 245.992C378.947 247.006 371.92 246.303 371.92 246.303Z" fill="#2F2E41"/>
<path d="M317.672 33.1859C325.278 33.1859 331.445 27.0196 331.445 19.413C331.445 11.8064 325.278 5.64001 317.672 5.64001C310.065 5.64001 303.899 11.8064 303.899 19.413C303.899 27.0196 310.065 33.1859 317.672 33.1859Z" fill="#A0616A"/>
<path d="M327.394 17.7926C327.394 17.7926 337.926 26.7045 345.218 26.7045C352.509 26.7045 334.686 43.3131 334.686 43.3131L318.887 29.1351L327.394 17.7926Z" fill="#A0616A"/>
<path d="M331.445 43.3132L331.129 40.1218C331.129 40.1218 339.142 25.8944 341.572 24.6792C344.003 23.4639 345.623 23.4639 345.623 23.4639C345.623 23.4639 353.725 14.9571 362.637 19.413C371.549 23.869 392.613 52.2251 392.613 52.2251C392.613 52.2251 377.625 53.4403 379.65 65.1879C379.65 65.1879 394.638 103.671 390.588 104.076C386.537 104.481 374.384 101.646 361.826 107.317C349.269 112.988 343.598 109.342 343.598 109.342L337.116 88.2778C337.116 88.2778 324.964 81.3913 325.369 75.315L307.747 83.2142L309.368 68.226L320.102 55.8709C320.102 55.8709 318.077 54.2505 331.445 43.3132Z" fill="#6361DB"/>
<path d="M305.003 20.902C304.455 21.5104 303.769 21.9776 303.003 22.2641C302.218 22.4853 301.23 22.214 300.917 21.4613L301.5 20.7033L299.754 19.6184L300.514 18.7258L299.108 17.1988L300.218 16.3182L298.105 14.8069C300.844 10.3378 303.806 5.8127 308.13 2.85009C312.454 -0.112514 318.496 -1.16523 322.925 1.63699C325.225 3.09187 326.852 5.401 328.154 7.79032C330.774 12.5955 333.083 17.2795 333.424 22.7418C331.779 21.1392 329.376 20.2361 327.73 18.6336C327.002 17.8603 326.176 17.1845 325.274 16.6229C323.553 15.6522 321.493 15.5663 319.566 15.1285C317.946 14.7603 316.895 14.03 315.669 12.9859C314.211 11.7438 314.151 12.2241 312.679 13.6225C310.122 16.0507 307.563 18.4772 305.003 20.902Z" fill="#2F2E41"/>
</g>
<defs>
<clipPath id="clip0">
<rect width="466" height="280.289" fill="white"/>
</clipPath>
</defs>
</svg>
