<svg width="594" height="464" viewBox="0 0 594 464" fill="none" xmlns="http://www.w3.org/2000/svg">
<path fill-rule="evenodd" clip-rule="evenodd" d="M276.931 0.0770603C402.08 -2.02759 537.824 38.7084 577.651 155.598C618.364 275.089 585.5 359 428.5 435.5C356.619 470.525 238.925 481.14 152.625 420.385C63.4121 357.58 -24.436 268.913 6.23457 165.208C39.0543 54.236 159.61 2.05006 276.931 0.0770603Z" fill="#61D1DB"/>
<g clip-path="url(#clip0)">
<path d="M115.215 323.004L142.698 283.516L115.201 327.299L115.185 331.792C113.225 331.776 111.285 331.712 109.364 331.601C109.356 330.581 111.692 274.452 111.592 273.436C111.728 273.398 111.804 268.128 111.858 267.897L83.1455 224.745L111.889 263.813L111.974 264.968L113.679 221.359L88.9982 176.702L113.875 213.696C113.884 213.103 115.052 123.564 115.064 123.012C115.071 123.305 115.607 194.267 115.611 194.566L139.215 166.003L115.588 200.704L115.467 239.733L137.372 201.991C110.035 257.032 116.085 237.771 115.387 267.174L147.205 214.62L115.36 274.745L115.215 323.004Z" fill="#D0CDE1"/>
<path d="M535.669 328.365L547.122 311.909L535.663 330.155L535.656 332.027C534.84 332.021 534.031 331.994 533.231 331.948C533.227 331.523 534.201 308.132 534.159 307.709C534.216 307.693 534.247 305.497 534.27 305.401L522.305 287.418L534.283 303.699L534.318 304.18L535.029 286.007L524.744 267.397L535.11 282.814C535.114 282.567 535.601 245.254 535.606 245.023C535.609 245.146 535.832 274.717 535.834 274.842L545.67 262.939L535.824 277.4L535.774 293.664L544.902 277.936C533.51 300.873 536.031 292.847 535.741 305.099L549 283.199L535.729 308.254L535.669 328.365Z" fill="#D0CDE1"/>
<path d="M315.238 340.289C443.5 340.289 547.477 336.215 547.477 331.19C547.477 326.165 443.5 322.091 315.238 322.091C186.977 322.091 83 326.165 83 331.19C83 336.215 186.977 340.289 315.238 340.289Z" fill="#D0CDE1"/>
<path d="M427.891 167.467H162.724V325.558H427.891V167.467Z" fill="#3F3D56"/>
<path d="M228.348 167.467C228.077 184.103 221.279 199.965 209.419 211.635C197.559 223.304 181.589 229.845 164.951 229.846C164.205 229.846 163.465 229.833 162.724 229.807V167.467H228.348Z" fill="#3F3D56"/>
<path d="M308.278 325.558H283.059C284.008 322.977 285.725 320.75 287.98 319.176C290.235 317.603 292.919 316.759 295.669 316.759C298.418 316.759 301.102 317.603 303.357 319.176C305.612 320.75 307.33 322.977 308.278 325.558Z" fill="#61D1DB"/>
<path d="M427.891 243.785V297.035C421.055 296.701 414.609 293.75 409.889 288.793C405.168 283.837 402.536 277.254 402.536 270.41C402.536 263.565 405.168 256.983 409.889 252.026C414.609 247.07 421.055 244.119 427.891 243.785Z" fill="#3F3D56"/>
<path d="M379.178 224.913H211.897C207.582 224.913 204.084 228.411 204.084 232.726V232.726C204.084 237.04 207.582 240.538 211.897 240.538H379.178C383.493 240.538 386.99 237.04 386.99 232.726C386.99 228.411 383.493 224.913 379.178 224.913Z" fill="white"/>
<path d="M379.178 255.704H211.897C207.582 255.704 204.084 259.202 204.084 263.516V263.516C204.084 267.831 207.582 271.329 211.897 271.329H379.178C383.493 271.329 386.99 267.831 386.99 263.516C386.99 259.202 383.493 255.704 379.178 255.704Z" fill="white"/>
<path d="M379.178 286.494H330.675C326.361 286.494 322.863 289.992 322.863 294.307C322.863 298.622 326.361 302.12 330.675 302.12H379.178C383.492 302.12 386.99 298.622 386.99 294.307C386.99 289.992 383.492 286.494 379.178 286.494Z" fill="white"/>
<path d="M469.942 108.579C469.942 108.579 477.234 111.415 477.639 120.732C478.044 130.049 475.613 155.974 475.613 155.974C475.613 155.974 484.525 168.937 477.639 172.583C470.752 176.229 469.942 158 469.942 158L461.84 119.517C461.84 119.517 466.701 108.174 469.942 108.579Z" fill="#A0616A"/>
<path d="M395.406 138.556C395.406 138.556 377.987 149.898 377.177 140.986C376.367 132.074 382.443 97.2368 382.443 97.2368C382.443 97.2368 383.253 82.2486 391.76 85.8944C400.267 89.5402 389.33 102.098 389.33 102.098L390.545 130.454L398.647 130.049L395.406 138.556Z" fill="#A0616A"/>
<path d="M423.357 149.088C423.357 149.088 369.886 129.239 372.721 152.329C375.557 175.419 389.33 204.585 389.33 204.585L394.191 212.282H404.318L397.837 170.558C397.837 170.558 420.927 183.52 427.813 181.495C427.813 181.495 436.725 241.043 439.966 245.499C443.206 249.955 448.878 303.831 448.878 303.831L454.144 310.313H464.271V219.168C464.271 219.168 481.69 162.456 468.322 159.62C454.954 156.785 423.357 149.088 423.357 149.088Z" fill="#2F2E41"/>
<path d="M392.975 207.015C392.975 207.015 390.545 202.559 386.494 207.015C382.443 211.471 372.721 216.737 372.721 216.737C372.721 216.737 351.657 221.599 368.67 225.649C385.684 229.7 387.709 225.649 387.709 225.649C387.709 225.649 390.545 226.46 392.975 227.27C395.406 228.08 411.204 225.244 411.204 222.814C411.204 220.383 405.841 205.858 403.662 208.057C401.482 210.256 392.975 207.015 392.975 207.015Z" fill="#2F2E41"/>
<path d="M454.92 306.303C454.92 306.303 448.947 301.384 447.541 302.789C446.136 304.195 438.758 313.681 438.758 313.681C438.758 313.681 419.083 328.789 437.001 331.248C454.92 333.707 453.866 327.032 453.866 327.032H459.487C460.19 327.032 469.676 322.816 469.325 321.059C468.973 319.302 464.757 304.978 463.352 305.992C461.947 307.006 454.92 306.303 454.92 306.303Z" fill="#2F2E41"/>
<path d="M400.672 93.1859C408.278 93.1859 414.445 87.0196 414.445 79.413C414.445 71.8064 408.278 65.64 400.672 65.64C393.065 65.64 386.899 71.8064 386.899 79.413C386.899 87.0196 393.065 93.1859 400.672 93.1859Z" fill="#A0616A"/>
<path d="M410.394 77.7926C410.394 77.7926 420.926 86.7045 428.218 86.7045C435.509 86.7045 417.686 103.313 417.686 103.313L401.887 89.1351L410.394 77.7926Z" fill="#A0616A"/>
<path d="M414.445 103.313L414.13 100.122C414.13 100.122 422.142 85.8944 424.572 84.6792C427.003 83.4639 428.623 83.4639 428.623 83.4639C428.623 83.4639 436.725 74.9571 445.637 79.413C454.549 83.869 475.613 112.225 475.613 112.225C475.613 112.225 460.625 113.44 462.651 125.188C462.651 125.188 477.639 163.671 473.588 164.076C469.537 164.481 457.384 161.646 444.827 167.317C432.269 172.988 426.598 169.342 426.598 169.342L420.116 148.278C420.116 148.278 407.964 141.391 408.369 135.315L390.748 143.214L392.368 128.226L403.103 115.871C403.103 115.871 401.077 114.251 414.445 103.313Z" fill="#6361DB"/>
<path d="M388.003 80.902C387.455 81.5104 386.769 81.9776 386.003 82.2641C385.218 82.4853 384.23 82.214 383.917 81.4613L384.5 80.7033L382.754 79.6184L383.514 78.7258L382.108 77.1988L383.218 76.3182L381.105 74.8069C383.844 70.3378 386.806 65.8127 391.13 62.8501C395.454 59.8875 401.496 58.8348 405.925 61.637C408.225 63.0919 409.852 65.401 411.154 67.7903C413.774 72.5955 416.083 77.2795 416.424 82.7418C414.779 81.1392 412.376 80.2361 410.73 78.6336C410.002 77.8603 409.176 77.1845 408.274 76.6229C406.553 75.6522 404.493 75.5663 402.566 75.1285C400.946 74.7603 399.895 74.03 398.669 72.9859C397.211 71.7438 397.151 72.2241 395.679 73.6225C393.122 76.0507 390.563 78.4772 388.003 80.902Z" fill="#2F2E41"/>
</g>
<defs>
<clipPath id="clip0">
<rect width="466" height="280.289" fill="white" transform="translate(83 60)"/>
</clipPath>
</defs>
</svg>
