<svg width="466" height="327" viewBox="0 0 466 327" fill="none" xmlns="http://www.w3.org/2000/svg">
<path d="M316.064 263.063C316.064 263.063 319.851 250.316 305.445 243.059L316.064 263.063Z" fill="#E6E6E6"/>
<path d="M316.536 263.131C316.536 263.131 318.038 250.551 334.817 249.762L316.536 263.131Z" fill="#E6E6E6"/>
<path d="M447.349 266.767C444.684 277.73 304.789 276.809 305 266.767C307.665 255.804 447.56 256.725 447.349 266.767Z" fill="#E6E6E6"/>
<path d="M48.304 31.2927C49.5515 31.2927 50.5628 30.2814 50.5628 29.0339C50.5628 27.7863 49.5515 26.775 48.304 26.775C47.0565 26.775 46.0452 27.7863 46.0452 29.0339C46.0452 30.2814 47.0565 31.2927 48.304 31.2927Z" fill="white"/>
<path d="M56.877 31.2927C58.1245 31.2927 59.1358 30.2814 59.1358 29.0339C59.1358 27.7863 58.1245 26.775 56.877 26.775C55.6295 26.775 54.6182 27.7863 54.6182 29.0339C54.6182 30.2814 55.6295 31.2927 56.877 31.2927Z" fill="white"/>
<path d="M65.4502 31.2927C66.6978 31.2927 67.7091 30.2814 67.7091 29.0339C67.7091 27.7863 66.6978 26.775 65.4502 26.775C64.2027 26.775 63.1914 27.7863 63.1914 29.0339C63.1914 30.2814 64.2027 31.2927 65.4502 31.2927Z" fill="white"/>
<path d="M329.657 34.3406H42.8157V35.9349H329.657V34.3406Z" fill="white"/>
<path d="M417.497 210.967C417.497 210.967 415.837 205.34 418.542 207.176C421.247 209.011 429.12 211.768 426.284 216.182C423.447 220.597 406.468 244.997 403.723 240.162C402.199 237.478 407.51 214.709 407.51 214.709C407.51 214.709 411.288 213.836 411.83 214.709C412.371 215.582 417.497 210.967 417.497 210.967Z" fill="#2F2E41"/>
<path d="M393.137 67.3715L392.63 76.5023L386.034 89.6942L407.851 88.6794L406.329 74.9801L407.344 69.3989L393.137 67.3715Z" fill="#FFB8B8"/>
<path d="M390.601 83.0982C390.601 83.0982 394.153 87.1573 403.285 82.5908L410.389 117.091L411.404 148.041L380.961 147.026L381.468 115.569L390.601 83.0982Z" fill="#D1D1D1"/>
<path d="M373.583 148.781C373.583 148.781 376.861 164.884 382.989 160.982C389.117 157.081 381.668 145.776 381.668 145.776L373.583 148.781Z" fill="#FFB8B8"/>
<path d="M403.793 235.315L403.285 243.94L411.403 246.477V234.807L403.793 235.315Z" fill="#FFB8B8"/>
<path d="M376.902 145.001V195.739L405.822 220.601L412.925 208.424L392.63 191.681L397.704 178.996L419.014 165.296V145.508L376.902 145.001Z" fill="#2F2E41"/>
<path d="M398.211 176.458L401.255 202.335L402.27 236.835H415.462C415.462 236.835 420.028 206.392 414.955 198.781L419.014 165.298L414.955 152.106L398.211 176.458Z" fill="#2F2E41"/>
<path d="M409.881 243.433C409.881 243.433 410.389 241.404 406.837 241.404C403.285 241.404 401.763 241.911 401.763 242.418C401.644 243.273 401.475 244.12 401.256 244.955C401.256 244.955 392.125 267.787 401.256 266.773C410.387 265.758 411.911 261.193 411.911 261.193L412.926 246.478C412.926 246.478 411.911 245.236 411.404 245.35C410.896 245.464 409.881 243.433 409.881 243.433Z" fill="#2F2E41"/>
<path d="M401.256 72.4453C407.421 72.4453 412.418 67.4477 412.418 61.2829C412.418 55.1181 407.421 50.1205 401.256 50.1205C395.091 50.1205 390.094 55.1181 390.094 61.2829C390.094 67.4477 395.091 72.4453 401.256 72.4453Z" fill="#FFB8B8"/>
<path d="M403.286 86.1446L399.734 82.0856L406.601 73.4912L409.374 76.5002L425.612 83.6036L421.047 128.253C421.047 128.253 420.54 141.445 423.584 150.578C423.584 150.578 416.988 158.696 406.84 156.667L393.648 159.203C393.648 159.203 392.123 93.7553 403.286 86.1446Z" fill="#61D1DB"/>
<path d="M392.123 83.6077L392.706 75.1514L390.094 78.5334L376.395 88.681L377.917 145L382.482 147.538L390.094 87.162L392.123 83.6077Z" fill="#61D1DB"/>
<path d="M379.946 88.1742L376.394 88.6816C376.394 88.6816 373.857 93.247 373.857 93.7554C373.857 94.2638 372.843 120.647 372.843 120.647C372.843 120.647 371.067 147.284 374.111 152.358L383.093 142.694L379.946 133.839V88.1742Z" fill="#61D1DB"/>
<path opacity="0.3" d="M400.989 200.064L401.689 217.047L399.579 215.231L400.989 200.064Z" fill="black"/>
<path opacity="0.3" d="M417.857 206.839L417.117 207.206L416.323 229.958L418.157 227.597L417.857 206.839Z" fill="black"/>
<path d="M432.714 151.09C432.714 151.09 430.177 167.328 437.279 165.804C444.381 164.279 441.338 151.09 441.338 151.09H432.714Z" fill="#FFB8B8"/>
<path d="M421.043 83.6077H425.609C425.609 83.6077 428.653 85.1298 429.16 89.6963C429.668 94.2627 436.771 114.558 436.771 114.558C436.771 114.558 444.889 148.045 444.382 152.612H431.697L432.712 143.481L419.013 106.949L421.043 83.6077Z" fill="#61D1DB"/>
<path d="M391.761 50.5599L389.634 49.7081C389.634 49.7081 394.083 44.8096 400.273 45.2355L398.532 43.3186C398.532 43.3186 402.786 41.6148 406.657 46.0874C408.691 48.4386 411.044 51.2022 412.511 54.315H414.79L413.839 56.4093L417.168 58.5037L413.752 58.1276C413.956 59.2751 413.987 60.4467 413.845 61.6035C413.698 62.7598 413.108 63.8139 412.199 64.5435C412.199 64.5435 409.56 59.0811 409.56 58.2293V60.3589C409.56 60.3589 407.433 58.442 407.433 57.1642L406.272 58.6552L405.692 56.3123L398.532 58.6552L399.693 56.7382L395.244 57.3774L396.985 55.0345C396.985 55.0345 391.955 57.8033 391.762 60.1457C391.545 61.7698 390.977 63.3271 390.096 64.7085C390.096 64.7085 386.151 53.7547 391.761 50.5599Z" fill="#683800"/>
<path d="M329.903 0.186773H0.140625V211.381H329.903V0.186773Z" fill="#E6E6E6"/>
<path d="M329.762 0H0V14.0095H329.762V0Z" fill="#61D1DB"/>
<path d="M320.746 25.3094H9.84253V105.819H320.746V25.3094Z" fill="white"/>
<path d="M320.943 119.048H10.0393V199.558H320.943V119.048Z" fill="white"/>
<path d="M283.091 43.1197H114.83V50.6189H283.091V43.1197Z" fill="#E6E6E6"/>
<path d="M174.823 61.8674H114.83V69.3666H174.823V61.8674Z" fill="#E6E6E6"/>
<path d="M234.348 80.6151H114.83V88.1143H234.348V80.6151Z" fill="#E6E6E6"/>
<path d="M103.542 65.6012C103.551 71.0574 101.963 76.3969 98.9733 80.9611C98.3468 81.9236 97.6603 82.8456 96.9178 83.7216C95.1766 85.7843 93.1483 87.5865 90.8951 89.073C90.2826 89.479 89.6528 89.8595 89.0057 90.2143C85.6381 92.0769 81.9211 93.2215 78.0892 93.5761C77.2181 93.6612 76.3325 93.7017 75.4392 93.7017C72.9909 93.7041 70.5528 93.3852 68.1875 92.7533C66.8466 92.4011 65.535 91.9458 64.2643 91.3915C63.6148 91.111 62.98 90.806 62.3598 90.4763C60.8684 89.6931 59.4516 88.7753 58.127 87.7345C57.5106 87.2548 56.9165 86.7492 56.3444 86.2176C52.9205 83.0463 50.3404 79.0721 48.8369 74.654C47.3334 70.2359 46.9539 65.5129 47.7327 60.9115C48.5114 56.31 50.424 51.9749 53.2976 48.2976C56.1712 44.6203 59.9154 41.7166 64.1921 39.8486C68.4689 37.9806 73.1436 37.2071 77.7941 37.598C82.4446 37.9889 86.9245 39.5319 90.8295 42.0877C94.7344 44.6434 97.9413 48.1314 100.161 52.2369C102.38 56.3423 103.542 60.9358 103.542 65.6027L103.542 65.6012Z" fill="#E6E6E6"/>
<path d="M68.6289 68.1396C68.6289 68.1396 71.1871 75.2471 69.1996 79.2253C67.2121 83.2034 72.3264 87.7527 72.3264 87.7527C72.3264 87.7527 85.6864 80.9305 83.9806 77.5195C82.2748 74.1084 79.4328 69.5606 80.0009 66.7181L68.6289 68.1396Z" fill="#FFD0C1"/>
<path d="M73.6036 70.84C78.6272 70.84 82.6997 66.7675 82.6997 61.7439C82.6997 56.7203 78.6272 52.6479 73.6036 52.6479C68.58 52.6479 64.5076 56.7203 64.5076 61.7439C64.5076 66.7675 68.58 70.84 73.6036 70.84Z" fill="#FFD0C1"/>
<path d="M68.1875 92.7518C66.8467 92.3995 65.5351 91.9442 64.2644 91.39L64.5082 84.4848L67.0659 78.7978C67.6409 79.2482 68.2562 79.6446 68.904 79.9822C69.0596 80.0672 69.2153 80.1482 69.3875 80.2296C71.7864 81.3886 75.7054 82.4086 79.504 79.5656C80.8998 78.479 82.0844 77.1456 82.9991 75.6316L90.0921 79.6506L90.4646 84.0054L90.8962 89.0725C90.2837 89.4785 89.6539 89.859 89.0068 90.2138C85.6392 92.0764 81.9223 93.221 78.0903 93.5756C77.2192 93.6607 76.3337 93.7012 75.4403 93.7012C72.9916 93.7033 70.5532 93.3842 68.1875 92.7518Z" fill="#575A89"/>
<path d="M69.9333 74.5431V74.554L69.5753 78.2665L69.387 80.2296L69.1105 83.1489L68.188 92.7518C66.8472 92.3995 65.5356 91.9442 64.2649 91.39C63.6154 91.1095 62.9806 90.8044 62.3604 90.4748C60.869 89.6916 59.4522 88.7738 58.1276 87.733L57.1165 83.0638L57.1937 83.0119L69.9333 74.5431Z" fill="#575A89"/>
<path d="M89.0051 90.2128C85.6375 92.0754 81.9206 93.22 78.0886 93.5746C78.2961 90.1205 78.5981 86.7841 78.941 83.8135C79.1179 82.2893 79.3042 80.8647 79.5018 79.5656C80.1182 75.3919 80.7822 72.5572 81.2585 72.1738L84.4029 74.249L97.1943 78.7957L96.9173 83.7191C95.176 85.7818 93.1478 87.5839 90.8946 89.0704C90.282 89.4779 89.6522 89.8587 89.0051 90.2128Z" fill="#575A89"/>
<path d="M58.1271 87.733C57.5107 87.2532 56.9165 86.7476 56.3445 86.216L56.8316 83.0643L57.1948 83.0124L58.8222 82.78L62.3615 90.4748C60.87 89.6916 59.4532 88.7738 58.1286 87.733H58.1271Z" fill="#575A89"/>
<path d="M98.9737 80.9606C98.3472 81.9231 97.6607 82.8451 96.9182 83.7211C95.177 85.7838 93.1487 87.586 90.8955 89.0725C90.283 89.4785 89.6532 89.859 89.0061 90.2138L88.6704 88.7488L90.4639 84.0065L92.6485 78.2307L97.1953 78.8014C97.8255 79.4895 98.4191 80.2102 98.9737 80.9606Z" fill="#575A89"/>
<path d="M82.2775 53.5174C80.9023 51.284 78.7497 49.6382 76.234 48.8965L74.3861 50.375L75.1046 48.6506C74.5003 48.559 73.8887 48.5242 73.2779 48.5468L71.6152 50.6848L72.3036 48.62C70.8607 48.7993 69.4706 49.2756 68.221 50.019C66.9714 50.7623 65.8893 51.7565 65.0431 52.9389C62.9269 55.9905 62.5695 60.2342 64.6514 63.3096C65.2221 61.5535 65.9162 59.9058 66.4879 58.1497C66.9371 58.211 67.3923 58.2133 67.842 58.1564L68.5372 56.5342L68.7312 58.0874C70.8858 57.8996 74.0821 57.4877 76.1246 57.11L75.9259 55.9168L77.1144 56.9072C77.7401 56.763 78.1121 56.6322 78.0809 56.5326C79.6 58.9819 81.1055 60.546 82.6246 62.9953C83.1999 59.5422 84.2178 56.6691 82.2775 53.5174Z" fill="#EBD59D"/>
<path d="M81.7738 62.6902C82.1139 62.6902 82.3896 62.1388 82.3896 61.4586C82.3896 60.7784 82.1139 60.227 81.7738 60.227C81.4337 60.227 81.158 60.7784 81.158 61.4586C81.158 62.1388 81.4337 62.6902 81.7738 62.6902Z" fill="#FFD0C1"/>
<path d="M102.175 158.891C102.184 164.351 100.595 169.694 97.603 174.261C96.9761 175.224 96.2891 176.147 95.546 177.024C93.8035 179.088 91.7739 180.891 89.5191 182.379C88.9059 182.785 88.2756 183.166 87.6281 183.52C84.2581 185.384 80.5386 186.53 76.7039 186.885C75.8323 186.97 74.9462 187.01 74.0523 187.01C71.6022 187.013 69.1625 186.694 66.7954 186.061C65.4537 185.709 64.1412 185.253 62.8697 184.698C62.2198 184.418 61.5846 184.112 60.9641 183.783C59.4716 182.999 58.0537 182.08 56.7282 181.039C56.1115 180.559 55.517 180.053 54.9445 179.521C51.5196 176.347 48.939 172.371 47.4354 167.95C45.9319 163.53 45.5529 158.804 46.3325 154.2C47.1122 149.597 49.026 145.26 51.9013 141.581C54.7765 137.902 58.5226 134.997 62.8015 133.128C67.0804 131.259 71.7574 130.485 76.4102 130.876C81.0631 131.266 85.5454 132.81 89.4525 135.366C93.3597 137.923 96.5686 141.412 98.7898 145.519C101.011 149.627 102.174 154.222 102.175 158.891V158.891Z" fill="#61D1DB"/>
<path d="M75.7777 145.764H72.3303V172.011H75.7777V145.764Z" fill="white"/>
<path d="M87.1772 160.611V157.164H60.9304V160.611H87.1772Z" fill="white"/>
<path d="M278.873 136.859H110.612V144.358H278.873V136.859Z" fill="#E6E6E6"/>
<path d="M170.605 155.606H110.612V163.106H170.605V155.606Z" fill="#E6E6E6"/>
<path d="M230.129 174.354H110.612V181.853H230.129V174.354Z" fill="#E6E6E6"/>
<path d="M102.803 158.903C102.804 163.36 101.774 167.758 99.7922 171.751C97.8106 175.744 94.9314 179.224 91.3803 181.918C90.8656 182.309 90.3384 182.685 89.7985 183.043C89.6601 183.135 89.5218 183.224 89.3834 183.308C88.8802 183.631 88.3697 183.931 87.8514 184.215C87.6439 184.33 87.4364 184.441 87.2289 184.549C87.1868 184.572 87.1479 184.591 87.1059 184.61C86.8408 184.748 86.5762 184.883 86.3075 185.009C85.1325 185.571 83.9201 186.051 82.679 186.445C80.7121 187.072 78.6832 187.483 76.6278 187.674C75.7286 187.758 74.8198 187.801 73.9015 187.801C71.384 187.803 68.8771 187.475 66.4449 186.825C65.1965 186.497 63.9725 186.083 62.7817 185.585C62.6587 185.533 62.5321 185.481 62.4092 185.429C61.8257 185.176 61.2537 184.903 60.693 184.612L60.4513 184.485C59.8408 184.166 59.2444 183.826 58.6619 183.463C57.7752 182.911 56.919 182.311 56.097 181.666C55.6785 181.344 55.2714 181.006 54.8758 180.653C54.6683 180.476 54.4649 180.289 54.2652 180.107C53.4887 179.387 52.7516 178.625 52.0572 177.825C51.7807 177.506 51.5119 177.183 51.251 176.853C48.3863 173.238 46.4282 168.991 45.5405 164.465C44.6527 159.939 44.861 155.266 46.1479 150.837C47.4348 146.408 49.7629 142.352 52.9378 139.006C56.1127 135.661 60.0421 133.124 64.3977 131.607C68.7534 130.091 73.4087 129.638 77.9748 130.288C82.5409 130.938 86.8851 132.672 90.6445 135.344C94.4039 138.016 97.4692 141.548 99.5844 145.647C101.7 149.745 102.803 154.29 102.803 158.903H102.803Z" fill="#E6E6E6"/>
<path d="M82.9208 171.851C85.313 171.851 87.2522 169.911 87.2522 167.519C87.2522 165.127 85.313 163.188 82.9208 163.188C80.5286 163.188 78.5894 165.127 78.5894 167.519C78.5894 169.911 80.5286 171.851 82.9208 171.851Z" fill="#2F2E41"/>
<path d="M84.1276 163.307C84.8773 163.307 85.6141 163.502 86.2661 163.872C86.918 164.242 87.4628 164.775 87.8471 165.419C88.2314 166.062 88.442 166.795 88.4584 167.544C88.4748 168.294 88.2965 169.035 87.9407 169.695C88.3162 169.225 88.5896 168.682 88.7437 168.1C88.8977 167.519 88.9289 166.912 88.8354 166.318C88.7419 165.724 88.5256 165.156 88.2004 164.65C87.8752 164.144 87.4482 163.711 86.9465 163.379C86.4449 163.048 85.8797 162.824 85.2868 162.723C84.694 162.622 84.0866 162.645 83.5032 162.791C82.9199 162.938 82.3735 163.204 81.8988 163.573C81.4241 163.943 81.0315 164.407 80.7461 164.936C81.151 164.428 81.6654 164.017 82.251 163.735C82.8365 163.453 83.4782 163.307 84.1281 163.307H84.1276Z" fill="#2F2E41"/>
<path d="M74.8265 167.51C81.8538 167.51 87.5505 161.813 87.5505 154.786C87.5505 147.759 81.8538 142.062 74.8265 142.062C67.7993 142.062 62.1025 147.759 62.1025 154.786C62.1025 161.813 67.7993 167.51 74.8265 167.51Z" fill="#2F2E41"/>
<path d="M64.8402 146.891C67.0326 144.426 70.0973 142.908 73.3873 142.659C76.6774 142.41 79.9355 143.449 82.474 145.557C82.3703 145.458 82.2665 145.358 82.1591 145.262C80.9115 144.145 79.4555 143.284 77.8746 142.731C76.2937 142.177 74.6191 141.941 72.9468 142.036C71.2744 142.131 69.6373 142.556 68.1294 143.285C66.6215 144.014 65.2723 145.034 64.1595 146.286C63.0466 147.538 62.1918 148.997 61.6442 150.58C61.0966 152.163 60.867 153.839 60.9684 155.51C61.0699 157.182 61.5005 158.818 62.2355 160.323C62.9705 161.828 63.9954 163.173 65.2515 164.281C65.3595 164.377 65.4705 164.468 65.581 164.56C63.1905 162.286 61.777 159.172 61.6389 155.875C61.5008 152.579 62.6488 149.358 64.8407 146.891H64.8402Z" fill="#2F2E41"/>
<path d="M74.7186 167.402C79.2445 167.402 82.9135 163.733 82.9135 159.207C82.9135 154.681 79.2445 151.012 74.7186 151.012C70.1927 151.012 66.5237 154.681 66.5237 159.207C66.5237 163.733 70.1927 167.402 74.7186 167.402Z" fill="#C78C89"/>
<path d="M68.8957 161.795C68.8957 161.795 69.9738 171.716 68.2488 172.794C66.5238 173.872 78.1692 175.382 78.1692 175.382C78.1692 175.382 76.4437 164.598 80.757 161.795L68.8957 161.795Z" fill="#C78C89"/>
<path d="M89.3829 180.559V183.692C88.8797 184.014 88.3692 184.314 87.8509 184.598C87.6434 184.713 87.4359 184.825 87.2284 184.932V184.993H87.1054C86.8403 185.131 86.5757 185.266 86.3065 185.393C85.1315 185.954 83.9192 186.434 82.6781 186.829C80.7111 187.455 78.6822 187.867 76.6268 188.057C75.7276 188.142 74.8188 188.184 73.9006 188.184C71.383 188.186 68.8761 187.859 66.4439 187.209C65.1955 186.881 63.9714 186.466 62.7807 185.968C62.6577 185.916 62.5311 185.864 62.4082 185.812C61.8247 185.559 61.2527 185.286 60.692 184.995L60.4503 184.868C59.8398 184.55 59.2434 184.209 58.6609 183.847C57.7742 183.294 56.9179 182.695 56.096 182.05C55.6775 181.727 55.2704 181.389 54.8748 181.036C54.6672 180.859 54.4639 180.673 54.2641 180.491C53.4876 179.77 52.7506 179.008 52.0562 178.208C52.1475 177.557 52.2991 176.915 52.5091 176.292L52.5132 176.288C52.572 176.125 52.6413 175.966 52.7207 175.812C53.6499 174.073 55.3277 173.643 57.4169 173.551C58.5919 173.499 59.8936 173.554 61.272 173.539C61.9983 173.536 62.7465 173.509 63.5029 173.44C68.2488 173.01 67.385 170.207 67.6013 168.697C67.8125 167.234 69.1297 168.502 69.2179 168.586L69.2215 168.59C71.9076 169.848 74.8796 170.37 77.8335 170.102H77.8371C78.3429 170.038 78.8517 169.999 79.3614 169.987C80.6978 169.972 80.4057 170.356 79.9486 170.67C79.7235 170.818 79.4889 170.95 79.2462 171.066C79.2462 171.066 79.0314 172.36 78.8161 174.303C78.6086 176.161 82.1681 177.032 82.4638 177.098C82.4693 177.102 82.476 177.105 82.483 177.106C83.7833 176.768 85.1524 176.802 86.4341 177.205C87.1657 177.474 87.8185 177.922 88.3334 178.507C88.8483 179.093 89.209 179.797 89.3829 180.557V180.559Z" fill="#61D1DB"/>
<path d="M62.8314 184.993C62.82 185.343 62.8008 185.668 62.7795 185.969C62.6565 185.917 62.53 185.865 62.407 185.813C61.8235 185.559 61.2515 185.287 60.6908 184.995L60.4491 184.869C59.8386 184.55 59.2422 184.21 58.6598 183.847C58.6774 183.541 58.7106 183.236 58.7594 182.934C59.2255 179.743 58.7589 176.485 57.4157 173.553C57.3119 173.342 57.2507 173.227 57.2507 173.227C57.2507 173.227 58.7599 171.933 60.9139 173.227C61.0497 173.311 61.1704 173.418 61.2709 173.542C62.7006 175.233 62.9808 181.331 62.8314 184.993Z" fill="#2F2E41"/>
<path d="M86.3261 184.993C86.3225 185.124 86.3147 185.258 86.3069 185.393C85.132 185.954 83.9196 186.434 82.6785 186.829L82.6053 184.993L82.3288 177.706C82.3175 177.495 82.3639 177.285 82.4632 177.099C82.5622 176.906 82.7126 176.744 82.8979 176.631C83.0832 176.518 83.2962 176.459 83.5132 176.459H86.1472C86.2779 176.459 86.3697 176.724 86.4314 177.204C86.599 178.539 86.5181 181.523 86.3261 184.993Z" fill="#2F2E41"/>
<path d="M67.7097 148.964V157.16H69.6075L72.0225 154.573L71.6993 157.16H80.0882L79.5694 154.573L80.607 157.16H81.9444V148.964H67.7097Z" fill="#2F2E41"/>
<path d="M66.416 158.668C66.7733 158.668 67.0629 158.137 67.0629 157.482C67.0629 156.827 66.7733 156.296 66.416 156.296C66.0587 156.296 65.769 156.827 65.769 157.482C65.769 158.137 66.0587 158.668 66.416 158.668Z" fill="#C78C89"/>
<path d="M83.022 158.668C83.3793 158.668 83.6689 158.137 83.6689 157.482C83.6689 156.827 83.3793 156.296 83.022 156.296C82.6647 156.296 82.375 156.827 82.375 157.482C82.375 158.137 82.6647 158.668 83.022 158.668Z" fill="#C78C89"/>
<path d="M91.3792 182.302C90.8646 182.694 90.3373 183.069 89.7974 183.427C89.659 183.519 89.5207 183.608 89.3824 183.692C88.8791 184.015 88.3686 184.315 87.8503 184.598C87.6428 184.714 87.4353 184.825 87.2278 184.933V178.832C87.2278 178.832 88.061 179.496 89.3819 180.602C89.9624 181.089 90.6384 181.665 91.3792 182.302Z" fill="#61D1DB"/>
<path d="M21.8096 9.28641C23.0895 9.28641 24.1271 8.24884 24.1271 6.96895C24.1271 5.68905 23.0895 4.65149 21.8096 4.65149C20.5297 4.65149 19.4922 5.68905 19.4922 6.96895C19.4922 8.24884 20.5297 9.28641 21.8096 9.28641Z" fill="white"/>
<path d="M30.6063 9.28641C31.8862 9.28641 32.9237 8.24884 32.9237 6.96895C32.9237 5.68905 31.8862 4.65149 30.6063 4.65149C29.3264 4.65149 28.2888 5.68905 28.2888 6.96895C28.2888 8.24884 29.3264 9.28641 30.6063 9.28641Z" fill="white"/>
<path d="M12.9901 9.28641C14.27 9.28641 15.3075 8.24884 15.3075 6.96895C15.3075 5.68905 14.27 4.65149 12.9901 4.65149C11.7102 4.65149 10.6726 5.68905 10.6726 6.96895C10.6726 8.24884 11.7102 9.28641 12.9901 9.28641Z" fill="white"/>
</svg>
