<svg width="675" height="454" viewBox="0 0 675 454" fill="none" xmlns="http://www.w3.org/2000/svg">
<path fill-rule="evenodd" clip-rule="evenodd" d="M349.038 0.0324112C480.884 1.27801 606.63 47.3106 651.437 134.513C701.033 231.037 673.6 343.152 557.118 404.993C434.359 470.167 263.81 470.106 139.732 406.18C17.1325 343.017 -31.2282 229.031 20.5528 128.553C67.7505 36.9679 210.519 -1.27623 349.038 0.0324112Z" fill="#FFE816"/>
<path d="M411.064 375.063C411.064 375.063 414.851 362.316 400.445 355.059L411.064 375.063Z" fill="#E6E6E6"/>
<path d="M411.536 375.131C411.536 375.131 413.038 362.551 429.817 361.762L411.536 375.131Z" fill="#E6E6E6"/>
<path d="M542.349 378.767C539.684 389.73 399.789 388.809 400 378.767C402.665 367.804 542.56 368.725 542.349 378.767Z" fill="#E6E6E6"/>
<path d="M143.304 143.293C144.551 143.293 145.563 142.281 145.563 141.034C145.563 139.786 144.551 138.775 143.304 138.775C142.056 138.775 141.045 139.786 141.045 141.034C141.045 142.281 142.056 143.293 143.304 143.293Z" fill="white"/>
<path d="M151.877 143.293C153.125 143.293 154.136 142.281 154.136 141.034C154.136 139.786 153.125 138.775 151.877 138.775C150.629 138.775 149.618 139.786 149.618 141.034C149.618 142.281 150.629 143.293 151.877 143.293Z" fill="white"/>
<path d="M160.45 143.293C161.698 143.293 162.709 142.281 162.709 141.034C162.709 139.786 161.698 138.775 160.45 138.775C159.203 138.775 158.191 139.786 158.191 141.034C158.191 142.281 159.203 143.293 160.45 143.293Z" fill="white"/>
<path d="M424.657 146.341H137.815V147.935H424.657V146.341Z" fill="white"/>
<path d="M512.497 322.967C512.497 322.967 510.837 317.34 513.542 319.176C516.247 321.011 524.121 323.768 521.284 328.182C518.447 332.597 501.469 356.997 498.723 352.162C497.199 349.478 502.51 326.709 502.51 326.709C502.51 326.709 506.289 325.836 506.83 326.709C507.371 327.582 512.497 322.967 512.497 322.967Z" fill="#2F2E41"/>
<path d="M488.138 179.371L487.63 188.502L481.034 201.694L502.852 200.679L501.329 186.98L502.344 181.399L488.138 179.371Z" fill="#FFB8B8"/>
<path d="M485.601 195.098C485.601 195.098 489.153 199.157 498.286 194.591L505.389 229.091L506.404 260.041L475.961 259.026L476.468 227.569L485.601 195.098Z" fill="#D1D1D1"/>
<path d="M468.583 260.781C468.583 260.781 471.861 276.884 477.989 272.982C484.117 269.081 476.668 257.776 476.668 257.776L468.583 260.781Z" fill="#FFB8B8"/>
<path d="M498.793 347.315L498.285 355.94L506.403 358.477V346.807L498.793 347.315Z" fill="#FFB8B8"/>
<path d="M471.902 257.001V307.739L500.823 332.601L507.925 320.424L487.63 303.681L492.704 290.996L514.014 277.296V257.508L471.902 257.001Z" fill="#2F2E41"/>
<path d="M493.211 288.458L496.255 314.335L497.27 348.835H510.462C510.462 348.835 515.027 318.392 509.955 310.781L514.014 277.298L509.955 264.106L493.211 288.458Z" fill="#2F2E41"/>
<path d="M504.881 355.433C504.881 355.433 505.389 353.404 501.837 353.404C498.285 353.404 496.763 353.911 496.763 354.418C496.644 355.273 496.475 356.12 496.256 356.955C496.256 356.955 487.125 379.787 496.256 378.773C505.387 377.758 506.911 373.193 506.911 373.193L507.926 358.478C507.926 358.478 506.911 357.236 506.404 357.35C505.896 357.464 504.881 355.433 504.881 355.433Z" fill="#2F2E41"/>
<path d="M496.256 184.445C502.421 184.445 507.419 179.448 507.419 173.283C507.419 167.118 502.421 162.12 496.256 162.12C490.091 162.12 485.094 167.118 485.094 173.283C485.094 179.448 490.091 184.445 496.256 184.445Z" fill="#FFB8B8"/>
<path d="M498.286 198.145L494.734 194.086L501.601 185.491L504.374 188.5L520.612 195.604L516.047 240.253C516.047 240.253 515.54 253.445 518.584 262.578C518.584 262.578 511.988 270.696 501.84 268.667L488.648 271.203C488.648 271.203 487.123 205.755 498.286 198.145Z" fill="#61D1DB"/>
<path d="M487.123 195.608L487.706 187.151L485.094 190.533L471.395 200.681L472.917 257L477.482 259.538L485.093 199.162L487.123 195.608Z" fill="#61D1DB"/>
<path d="M474.946 200.174L471.394 200.682C471.394 200.682 468.857 205.247 468.857 205.755C468.857 206.264 467.843 232.647 467.843 232.647C467.843 232.647 466.067 259.284 469.111 264.358L478.093 254.694L474.946 245.839V200.174Z" fill="#61D1DB"/>
<path opacity="0.3" d="M495.989 312.064L496.689 329.047L494.579 327.231L495.989 312.064Z" fill="black"/>
<path opacity="0.3" d="M512.857 318.839L512.117 319.206L511.323 341.958L513.157 339.597L512.857 318.839Z" fill="black"/>
<path d="M527.714 263.09C527.714 263.09 525.177 279.328 532.279 277.804C539.382 276.279 536.338 263.09 536.338 263.09H527.714Z" fill="#FFB8B8"/>
<path d="M516.043 195.608H520.609C520.609 195.608 523.653 197.13 524.16 201.696C524.668 206.263 531.771 226.558 531.771 226.558C531.771 226.558 539.889 260.045 539.382 264.612H526.697L527.712 255.481L514.013 218.949L516.043 195.608Z" fill="#61D1DB"/>
<path d="M486.761 162.56L484.634 161.708C484.634 161.708 489.083 156.81 495.273 157.236L493.532 155.319C493.532 155.319 497.786 153.615 501.657 158.087C503.691 160.439 506.044 163.202 507.511 166.315H509.79L508.839 168.409L512.168 170.504L508.751 170.128C508.955 171.275 508.987 172.447 508.844 173.604C508.698 174.76 508.108 175.814 507.199 176.544C507.199 176.544 504.56 171.081 504.56 170.229V172.359C504.56 172.359 502.433 170.442 502.433 169.164L501.272 170.655L500.691 168.312L493.532 170.655L494.693 168.738L490.243 169.377L491.985 167.035C491.985 167.035 486.955 169.803 486.761 172.146C486.545 173.77 485.976 175.327 485.095 176.709C485.095 176.709 481.151 165.755 486.761 162.56Z" fill="#683800"/>
<path d="M424.903 112.187H95.1406V323.381H424.903V112.187Z" fill="#E6E6E6"/>
<path d="M424.762 112H95V126.01H424.762V112Z" fill="#61D1DB"/>
<path d="M415.746 137.309H104.843V217.819H415.746V137.309Z" fill="white"/>
<path d="M415.943 231.048H105.039V311.558H415.943V231.048Z" fill="white"/>
<path d="M378.091 155.12H209.83V162.619H378.091V155.12Z" fill="#E6E6E6"/>
<path d="M269.823 173.867H209.83V181.367H269.823V173.867Z" fill="#E6E6E6"/>
<path d="M329.348 192.615H209.83V200.114H329.348V192.615Z" fill="#E6E6E6"/>
<path d="M198.542 177.601C198.551 183.057 196.963 188.397 193.973 192.961C193.347 193.924 192.66 194.846 191.918 195.722C190.176 197.784 188.148 199.586 185.895 201.073C185.282 201.479 184.653 201.859 184.005 202.214C180.638 204.077 176.921 205.222 173.089 205.576C172.218 205.661 171.332 205.702 170.439 205.702C167.991 205.704 165.553 205.385 163.187 204.753C161.846 204.401 160.535 203.946 159.264 203.391C158.615 203.111 157.98 202.806 157.36 202.476C155.868 201.693 154.451 200.775 153.127 199.735C152.51 199.255 151.916 198.749 151.344 198.218C147.92 195.046 145.34 191.072 143.837 186.654C142.333 182.236 141.954 177.513 142.732 172.911C143.511 168.31 145.424 163.975 148.297 160.298C151.171 156.62 154.915 153.717 159.192 151.849C163.469 149.981 168.143 149.207 172.794 149.598C177.444 149.989 181.924 151.532 185.829 154.088C189.734 156.643 192.941 160.131 195.16 164.237C197.38 168.342 198.542 172.936 198.542 177.603L198.542 177.601Z" fill="#E6E6E6"/>
<path d="M163.629 180.14C163.629 180.14 166.187 187.247 164.2 191.225C162.212 195.203 167.326 199.753 167.326 199.753C167.326 199.753 180.686 192.931 178.981 189.519C177.275 186.108 174.433 181.561 175.001 178.718L163.629 180.14Z" fill="#FFD0C1"/>
<path d="M168.603 182.84C173.627 182.84 177.699 178.768 177.699 173.744C177.699 168.72 173.627 164.648 168.603 164.648C163.58 164.648 159.507 168.72 159.507 173.744C159.507 178.768 163.58 182.84 168.603 182.84Z" fill="#FFD0C1"/>
<path d="M163.187 204.752C161.846 204.4 160.535 203.944 159.264 203.39L159.508 196.485L162.066 190.798C162.641 191.248 163.256 191.645 163.904 191.982C164.059 192.067 164.215 192.148 164.387 192.23C166.786 193.389 170.705 194.409 174.504 191.566C175.9 190.479 177.084 189.146 177.999 187.632L185.092 191.651L185.464 196.005L185.896 201.072C185.283 201.479 184.654 201.859 184.007 202.214C180.639 204.076 176.922 205.221 173.09 205.576C172.219 205.661 171.333 205.701 170.44 205.701C167.991 205.703 165.553 205.384 163.187 204.752Z" fill="#575A89"/>
<path d="M164.933 186.543V186.554L164.575 190.267L164.387 192.23L164.11 195.149L163.188 204.752C161.847 204.4 160.535 203.944 159.265 203.39C158.615 203.109 157.98 202.804 157.36 202.475C155.869 201.692 154.452 200.774 153.127 199.733L152.116 195.064L152.194 195.012L164.933 186.543Z" fill="#575A89"/>
<path d="M184.005 202.213C180.637 204.075 176.92 205.22 173.088 205.575C173.296 202.12 173.598 198.784 173.941 195.813C174.118 194.289 174.304 192.865 174.502 191.566C175.118 187.392 175.782 184.557 176.258 184.174L179.403 186.249L192.194 190.796L191.917 195.719C190.176 197.782 188.148 199.584 185.894 201.07C185.282 201.478 184.652 201.859 184.005 202.213Z" fill="#575A89"/>
<path d="M153.127 199.733C152.51 199.253 151.916 198.748 151.344 198.216L151.831 195.064L152.195 195.012L153.822 194.78L157.361 202.475C155.87 201.692 154.453 200.774 153.128 199.733H153.127Z" fill="#575A89"/>
<path d="M193.974 192.961C193.347 193.923 192.661 194.845 191.918 195.721C190.177 197.784 188.149 199.586 185.896 201.072C185.283 201.479 184.653 201.859 184.006 202.214L183.67 200.749L185.464 196.006L187.649 190.231L192.195 190.801C192.825 191.489 193.419 192.21 193.974 192.961Z" fill="#575A89"/>
<path d="M177.277 165.517C175.902 163.284 173.749 161.638 171.234 160.896L169.386 162.375L170.104 160.651C169.5 160.559 168.888 160.524 168.278 160.547L166.615 162.685L167.303 160.62C165.86 160.799 164.47 161.276 163.221 162.019C161.971 162.762 160.889 163.757 160.043 164.939C157.927 167.99 157.569 172.234 159.651 175.31C160.222 173.554 160.916 171.906 161.488 170.15C161.937 170.211 162.392 170.213 162.842 170.156L163.537 168.534L163.731 170.087C165.886 169.9 169.082 169.488 171.124 169.11L170.926 167.917L172.114 168.907C172.74 168.763 173.112 168.632 173.081 168.533C174.6 170.982 176.105 172.546 177.624 174.995C178.2 171.542 179.218 168.669 177.277 165.517Z" fill="#EBD59D"/>
<path d="M176.774 174.69C177.114 174.69 177.389 174.139 177.389 173.459C177.389 172.778 177.114 172.227 176.774 172.227C176.433 172.227 176.158 172.778 176.158 173.459C176.158 174.139 176.433 174.69 176.774 174.69Z" fill="#FFD0C1"/>
<path d="M197.175 270.891C197.184 276.351 195.595 281.694 192.603 286.261C191.976 287.224 191.289 288.147 190.546 289.024C188.804 291.088 186.774 292.891 184.519 294.379C183.906 294.785 183.276 295.166 182.628 295.52C179.258 297.384 175.539 298.53 171.704 298.885C170.833 298.97 169.946 299.01 169.053 299.01C166.602 299.013 164.163 298.694 161.796 298.061C160.454 297.709 159.141 297.253 157.87 296.698C157.22 296.418 156.585 296.112 155.964 295.783C154.472 294.999 153.054 294.08 151.728 293.039C151.112 292.559 150.517 292.053 149.945 291.521C146.52 288.347 143.939 284.371 142.436 279.95C140.932 275.53 140.553 270.804 141.333 266.2C142.112 261.597 144.026 257.26 146.901 253.581C149.777 249.902 153.523 246.997 157.802 245.128C162.081 243.259 166.758 242.485 171.41 242.876C176.063 243.266 180.546 244.81 184.453 247.366C188.36 249.923 191.569 253.412 193.79 257.519C196.011 261.627 197.175 266.222 197.175 270.891V270.891Z" fill="#61D1DB"/>
<path d="M170.778 257.764H167.331V284.011H170.778V257.764Z" fill="white"/>
<path d="M182.178 272.611V269.164H155.931V272.611H182.178Z" fill="white"/>
<path d="M373.873 248.859H205.612V256.358H373.873V248.859Z" fill="#E6E6E6"/>
<path d="M265.605 267.606H205.612V275.106H265.605V267.606Z" fill="#E6E6E6"/>
<path d="M325.129 286.354H205.612V293.853H325.129V286.354Z" fill="#E6E6E6"/>
<path d="M197.803 270.903C197.804 275.36 196.774 279.758 194.792 283.751C192.811 287.744 189.931 291.224 186.38 293.918C185.866 294.309 185.338 294.685 184.798 295.043C184.66 295.135 184.522 295.224 184.383 295.308C183.88 295.631 183.37 295.931 182.851 296.215C182.644 296.33 182.436 296.441 182.229 296.549C182.187 296.572 182.148 296.591 182.106 296.61C181.841 296.748 181.576 296.883 181.307 297.009C180.132 297.571 178.92 298.051 177.679 298.445C175.712 299.072 173.683 299.483 171.628 299.674C170.729 299.758 169.82 299.801 168.902 299.801C166.384 299.803 163.877 299.475 161.445 298.825C160.196 298.497 158.972 298.083 157.782 297.585C157.659 297.533 157.532 297.481 157.409 297.429C156.826 297.176 156.254 296.903 155.693 296.612L155.451 296.485C154.841 296.166 154.244 295.826 153.662 295.463C152.775 294.911 151.919 294.311 151.097 293.666C150.679 293.344 150.271 293.006 149.876 292.653C149.668 292.476 149.465 292.289 149.265 292.107C148.489 291.387 147.752 290.625 147.057 289.825C146.781 289.506 146.512 289.183 146.251 288.853C143.386 285.238 141.428 280.991 140.54 276.465C139.653 271.939 139.861 267.266 141.148 262.837C142.435 258.408 144.763 254.352 147.938 251.006C151.113 247.661 155.042 245.124 159.398 243.607C163.753 242.091 168.409 241.638 172.975 242.288C177.541 242.938 181.885 244.672 185.645 247.344C189.404 250.016 192.469 253.548 194.584 257.647C196.7 261.745 197.803 266.29 197.803 270.903H197.803Z" fill="#E6E6E6"/>
<path d="M177.921 283.851C180.313 283.851 182.252 281.911 182.252 279.519C182.252 277.127 180.313 275.188 177.921 275.188C175.529 275.188 173.589 277.127 173.589 279.519C173.589 281.911 175.529 283.851 177.921 283.851Z" fill="#2F2E41"/>
<path d="M179.128 275.307C179.877 275.307 180.614 275.502 181.266 275.872C181.918 276.242 182.463 276.775 182.847 277.419C183.231 278.062 183.442 278.795 183.458 279.544C183.475 280.294 183.296 281.035 182.941 281.695C183.316 281.225 183.59 280.682 183.744 280.1C183.898 279.519 183.929 278.912 183.835 278.318C183.742 277.724 183.526 277.156 183.2 276.65C182.875 276.144 182.448 275.711 181.947 275.379C181.445 275.048 180.88 274.824 180.287 274.723C179.694 274.622 179.087 274.645 178.503 274.791C177.92 274.938 177.373 275.204 176.899 275.573C176.424 275.943 176.032 276.407 175.746 276.936C176.151 276.428 176.665 276.017 177.251 275.735C177.837 275.453 178.478 275.307 179.128 275.307H179.128Z" fill="#2F2E41"/>
<path d="M169.827 279.51C176.854 279.51 182.55 273.813 182.55 266.786C182.55 259.759 176.854 254.062 169.827 254.062C162.799 254.062 157.103 259.759 157.103 266.786C157.103 273.813 162.799 279.51 169.827 279.51Z" fill="#2F2E41"/>
<path d="M159.84 258.891C162.033 256.426 165.098 254.908 168.388 254.659C171.678 254.41 174.936 255.449 177.474 257.557C177.371 257.458 177.267 257.358 177.159 257.262C175.912 256.145 174.456 255.284 172.875 254.731C171.294 254.177 169.619 253.941 167.947 254.036C166.275 254.131 164.638 254.556 163.13 255.285C161.622 256.014 160.273 257.034 159.16 258.286C158.047 259.538 157.192 260.997 156.644 262.58C156.097 264.163 155.867 265.839 155.969 267.51C156.07 269.182 156.501 270.818 157.236 272.323C157.971 273.828 158.996 275.173 160.252 276.281C160.36 276.377 160.471 276.468 160.581 276.56C158.191 274.286 156.777 271.172 156.639 267.875C156.501 264.579 157.649 261.358 159.841 258.891H159.84Z" fill="#2F2E41"/>
<path d="M169.719 279.402C174.245 279.402 177.914 275.733 177.914 271.207C177.914 266.681 174.245 263.012 169.719 263.012C165.193 263.012 161.524 266.681 161.524 271.207C161.524 275.733 165.193 279.402 169.719 279.402Z" fill="#C78C89"/>
<path d="M163.895 273.795C163.895 273.795 164.974 283.716 163.249 284.794C161.524 285.872 173.169 287.382 173.169 287.382C173.169 287.382 171.443 276.598 175.757 273.795L163.895 273.795Z" fill="#C78C89"/>
<path d="M184.383 292.559V295.692C183.88 296.014 183.369 296.314 182.851 296.598C182.643 296.713 182.436 296.825 182.228 296.932V296.993H182.105C181.84 297.131 181.576 297.266 181.306 297.393C180.132 297.954 178.919 298.434 177.678 298.829C175.711 299.455 173.682 299.867 171.627 300.057C170.728 300.142 169.819 300.184 168.901 300.184C166.383 300.186 163.876 299.859 161.444 299.209C160.195 298.881 158.971 298.466 157.781 297.968C157.658 297.916 157.531 297.864 157.408 297.812C156.825 297.559 156.253 297.286 155.692 296.995L155.45 296.868C154.84 296.55 154.243 296.209 153.661 295.847C152.774 295.294 151.918 294.695 151.096 294.05C150.678 293.727 150.27 293.389 149.875 293.036C149.667 292.859 149.464 292.673 149.264 292.491C148.488 291.77 147.751 291.008 147.056 290.208C147.148 289.557 147.299 288.915 147.509 288.292L147.513 288.288C147.572 288.125 147.641 287.966 147.721 287.812C148.65 286.073 150.328 285.643 152.417 285.551C153.592 285.499 154.894 285.554 156.272 285.539C156.998 285.536 157.746 285.509 158.503 285.44C163.249 285.01 162.385 282.207 162.601 280.697C162.812 279.234 164.13 280.502 164.218 280.586L164.222 280.59C166.908 281.848 169.88 282.37 172.834 282.102H172.837C173.343 282.038 173.852 281.999 174.361 281.987C175.698 281.972 175.406 282.356 174.949 282.67C174.724 282.818 174.489 282.95 174.246 283.066C174.246 283.066 174.031 284.36 173.816 286.303C173.609 288.161 177.168 289.032 177.464 289.098C177.469 289.102 177.476 289.105 177.483 289.106C178.783 288.768 180.152 288.802 181.434 289.205C182.166 289.474 182.818 289.922 183.333 290.507C183.848 291.093 184.209 291.797 184.383 292.557V292.559Z" fill="#61D1DB"/>
<path d="M157.832 296.993C157.82 297.343 157.801 297.668 157.78 297.969C157.657 297.917 157.53 297.865 157.407 297.813C156.824 297.559 156.252 297.287 155.691 296.995L155.449 296.869C154.839 296.55 154.242 296.21 153.66 295.847C153.678 295.541 153.711 295.236 153.76 294.934C154.226 291.743 153.759 288.485 152.416 285.553C152.312 285.342 152.251 285.227 152.251 285.227C152.251 285.227 153.76 283.933 155.914 285.227C156.05 285.311 156.171 285.418 156.271 285.542C157.701 287.233 157.981 293.331 157.832 296.993Z" fill="#2F2E41"/>
<path d="M181.326 296.993C181.322 297.124 181.315 297.258 181.307 297.393C180.132 297.954 178.92 298.434 177.678 298.829L177.605 296.993L177.329 289.706C177.317 289.495 177.364 289.285 177.463 289.099C177.562 288.906 177.713 288.744 177.898 288.631C178.083 288.518 178.296 288.459 178.513 288.459H181.147C181.278 288.459 181.37 288.724 181.431 289.204C181.599 290.539 181.518 293.523 181.326 296.993Z" fill="#2F2E41"/>
<path d="M162.71 260.964V269.16H164.608L167.023 266.573L166.7 269.16H175.088L174.57 266.573L175.607 269.16H176.945V260.964H162.71Z" fill="#2F2E41"/>
<path d="M161.416 270.668C161.773 270.668 162.063 270.137 162.063 269.482C162.063 268.827 161.773 268.296 161.416 268.296C161.059 268.296 160.769 268.827 160.769 269.482C160.769 270.137 161.059 270.668 161.416 270.668Z" fill="#C78C89"/>
<path d="M178.022 270.668C178.379 270.668 178.669 270.137 178.669 269.482C178.669 268.827 178.379 268.296 178.022 268.296C177.665 268.296 177.375 268.827 177.375 269.482C177.375 270.137 177.665 270.668 178.022 270.668Z" fill="#C78C89"/>
<path d="M186.379 294.302C185.865 294.694 185.338 295.069 184.798 295.427C184.659 295.519 184.521 295.608 184.383 295.692C183.879 296.015 183.369 296.315 182.851 296.598C182.643 296.714 182.436 296.825 182.228 296.933V290.832C182.228 290.832 183.061 291.496 184.382 292.602C184.963 293.089 185.639 293.665 186.379 294.302Z" fill="#61D1DB"/>
<path d="M116.81 121.286C118.09 121.286 119.127 120.249 119.127 118.969C119.127 117.689 118.09 116.651 116.81 116.651C115.53 116.651 114.492 117.689 114.492 118.969C114.492 120.249 115.53 121.286 116.81 121.286Z" fill="white"/>
<path d="M125.607 121.286C126.886 121.286 127.924 120.249 127.924 118.969C127.924 117.689 126.886 116.651 125.607 116.651C124.327 116.651 123.289 117.689 123.289 118.969C123.289 120.249 124.327 121.286 125.607 121.286Z" fill="white"/>
<path d="M107.99 121.286C109.27 121.286 110.308 120.249 110.308 118.969C110.308 117.689 109.27 116.651 107.99 116.651C106.71 116.651 105.673 117.689 105.673 118.969C105.673 120.249 106.71 121.286 107.99 121.286Z" fill="white"/>
</svg>
