<svg width="680" height="433" viewBox="0 0 680 433" fill="none" xmlns="http://www.w3.org/2000/svg">
<path fill-rule="evenodd" clip-rule="evenodd" d="M353.479 431.458C477.697 429.788 627.569 430.469 669.213 322.367C712.897 208.972 616.878 97.2276 507.37 31.9849C416.663 -22.0566 305.807 -2.36206 215.264 51.9135C101.944 119.843 -34.9474 212.993 8.11987 331.258C50.6482 448.043 220.088 433.252 353.479 431.458Z" fill="#6361DB"/>
<path d="M230.991 259.831H192.773C190.586 259.831 188.813 261.604 188.813 263.791V274.237C188.813 276.424 190.586 278.196 192.773 278.196H230.991C233.178 278.196 234.951 276.424 234.951 274.237V263.791C234.951 261.604 233.178 259.831 230.991 259.831Z" fill="#61D1DB"/>
<path d="M277.129 259.831H238.911C236.724 259.831 234.951 261.604 234.951 263.791V274.237C234.951 276.424 236.724 278.196 238.911 278.196H277.129C279.316 278.196 281.089 276.424 281.089 274.237V263.791C281.089 261.604 279.316 259.831 277.129 259.831Z" fill="#61D1DB"/>
<path opacity="0.1" d="M277.129 259.831H238.911C236.724 259.831 234.951 261.604 234.951 263.791V274.237C234.951 276.424 236.724 278.196 238.911 278.196H277.129C279.316 278.196 281.089 276.424 281.089 274.237V263.791C281.089 261.604 279.316 259.831 277.129 259.831Z" fill="black"/>
<path d="M323.267 259.831H285.049C282.862 259.831 281.089 261.604 281.089 263.791V274.237C281.089 276.424 282.862 278.196 285.049 278.196H323.267C325.454 278.196 327.227 276.424 327.227 274.237V263.791C327.227 261.604 325.454 259.831 323.267 259.831Z" fill="#61D1DB"/>
<path d="M369.405 259.831H331.186C328.999 259.831 327.227 261.604 327.227 263.791V274.237C327.227 276.424 328.999 278.196 331.186 278.196H369.405C371.591 278.196 373.364 276.424 373.364 274.237V263.791C373.364 261.604 371.591 259.831 369.405 259.831Z" fill="#61D1DB"/>
<path opacity="0.1" d="M369.405 259.831H331.186C328.999 259.831 327.227 261.604 327.227 263.791V274.237C327.227 276.424 328.999 278.196 331.186 278.196H369.405C371.591 278.196 373.364 276.424 373.364 274.237V263.791C373.364 261.604 371.591 259.831 369.405 259.831Z" fill="black"/>
<path d="M415.543 259.831H377.325C375.138 259.831 373.365 261.604 373.365 263.791V274.237C373.365 276.424 375.138 278.196 377.325 278.196H415.543C417.73 278.196 419.502 276.424 419.502 274.237V263.791C419.502 261.604 417.73 259.831 415.543 259.831Z" fill="#61D1DB"/>
<path d="M461.68 259.831H423.462C421.275 259.831 419.502 261.604 419.502 263.791V274.237C419.502 276.424 421.275 278.196 423.462 278.196H461.68C463.867 278.196 465.64 276.424 465.64 274.237V263.791C465.64 261.604 463.867 259.831 461.68 259.831Z" fill="#61D1DB"/>
<path opacity="0.1" d="M461.68 259.831H423.462C421.275 259.831 419.502 261.604 419.502 263.791V274.237C419.502 276.424 421.275 278.196 423.462 278.196H461.68C463.867 278.196 465.64 276.424 465.64 274.237V263.791C465.64 261.604 463.867 259.831 461.68 259.831Z" fill="black"/>
<path d="M423.462 259.831H461.68C463.867 259.831 465.64 258.058 465.64 255.871V245.425C465.64 243.238 463.867 241.465 461.68 241.465H423.462C421.275 241.465 419.502 243.238 419.502 245.425V255.871C419.502 258.058 421.275 259.831 423.462 259.831Z" fill="#61D1DB"/>
<path d="M377.325 259.831H415.543C417.73 259.831 419.502 258.058 419.502 255.871V245.425C419.502 243.238 417.73 241.465 415.543 241.465H377.325C375.138 241.465 373.365 243.238 373.365 245.425V255.871C373.365 258.058 375.138 259.831 377.325 259.831Z" fill="#61D1DB"/>
<path opacity="0.1" d="M377.325 259.831H415.543C417.73 259.831 419.502 258.058 419.502 255.871V245.425C419.502 243.238 417.73 241.465 415.543 241.465H377.325C375.138 241.465 373.365 243.238 373.365 245.425V255.871C373.365 258.058 375.138 259.831 377.325 259.831Z" fill="black"/>
<path d="M331.187 259.831H369.405C371.592 259.831 373.365 258.058 373.365 255.871V245.425C373.365 243.238 371.592 241.465 369.405 241.465H331.187C329 241.465 327.227 243.238 327.227 245.425V255.871C327.227 258.058 329 259.831 331.187 259.831Z" fill="#61D1DB"/>
<path d="M285.049 259.831H323.267C325.454 259.831 327.227 258.058 327.227 255.871V245.425C327.227 243.238 325.454 241.465 323.267 241.465H285.049C282.862 241.465 281.089 243.238 281.089 245.425V255.871C281.089 258.058 282.862 259.831 285.049 259.831Z" fill="#61D1DB"/>
<path opacity="0.1" d="M285.049 259.831H323.267C325.454 259.831 327.227 258.058 327.227 255.871V245.425C327.227 243.238 325.454 241.465 323.267 241.465H285.049C282.862 241.465 281.089 243.238 281.089 245.425V255.871C281.089 258.058 282.862 259.831 285.049 259.831Z" fill="black"/>
<path d="M238.911 259.831H277.129C279.316 259.831 281.089 258.058 281.089 255.871V245.425C281.089 243.238 279.316 241.465 277.129 241.465H238.911C236.724 241.465 234.951 243.238 234.951 245.425V255.871C234.951 258.058 236.724 259.831 238.911 259.831Z" fill="#61D1DB"/>
<path d="M192.773 259.831H230.991C233.178 259.831 234.951 258.058 234.951 255.871V245.425C234.951 243.238 233.178 241.465 230.991 241.465H192.773C190.586 241.465 188.813 243.238 188.813 245.425V255.871C188.813 258.058 190.586 259.831 192.773 259.831Z" fill="#61D1DB"/>
<path opacity="0.1" d="M192.773 259.831H230.991C233.178 259.831 234.951 258.058 234.951 255.871V245.425C234.951 243.238 233.178 241.465 230.991 241.465H192.773C190.586 241.465 188.813 243.238 188.813 245.425V255.871C188.813 258.058 190.586 259.831 192.773 259.831Z" fill="black"/>
<path d="M230.991 223.1H192.773C190.586 223.1 188.813 224.873 188.813 227.06V237.506C188.813 239.693 190.586 241.465 192.773 241.465H230.991C233.178 241.465 234.951 239.693 234.951 237.506V227.06C234.951 224.873 233.178 223.1 230.991 223.1Z" fill="#61D1DB"/>
<path d="M277.129 223.1H238.911C236.724 223.1 234.951 224.873 234.951 227.06V237.506C234.951 239.693 236.724 241.465 238.911 241.465H277.129C279.316 241.465 281.089 239.693 281.089 237.506V227.06C281.089 224.873 279.316 223.1 277.129 223.1Z" fill="#61D1DB"/>
<path opacity="0.1" d="M277.129 223.1H238.911C236.724 223.1 234.951 224.873 234.951 227.06V237.506C234.951 239.693 236.724 241.465 238.911 241.465H277.129C279.316 241.465 281.089 239.693 281.089 237.506V227.06C281.089 224.873 279.316 223.1 277.129 223.1Z" fill="black"/>
<path d="M323.267 223.1H285.049C282.862 223.1 281.089 224.873 281.089 227.06V237.506C281.089 239.693 282.862 241.465 285.049 241.465H323.267C325.454 241.465 327.227 239.693 327.227 237.506V227.06C327.227 224.873 325.454 223.1 323.267 223.1Z" fill="#61D1DB"/>
<path d="M369.405 223.1H331.186C328.999 223.1 327.227 224.873 327.227 227.06V237.506C327.227 239.693 328.999 241.465 331.186 241.465H369.405C371.591 241.465 373.364 239.693 373.364 237.506V227.06C373.364 224.873 371.591 223.1 369.405 223.1Z" fill="#61D1DB"/>
<path opacity="0.1" d="M369.405 223.1H331.186C328.999 223.1 327.227 224.873 327.227 227.06V237.506C327.227 239.693 328.999 241.465 331.186 241.465H369.405C371.591 241.465 373.364 239.693 373.364 237.506V227.06C373.364 224.873 371.591 223.1 369.405 223.1Z" fill="black"/>
<path d="M415.543 223.1H377.325C375.138 223.1 373.365 224.873 373.365 227.06V237.506C373.365 239.693 375.138 241.465 377.325 241.465H415.543C417.73 241.465 419.502 239.693 419.502 237.506V227.06C419.502 224.873 417.73 223.1 415.543 223.1Z" fill="#61D1DB"/>
<path d="M461.68 223.1H423.462C421.275 223.1 419.502 224.873 419.502 227.06V237.506C419.502 239.693 421.275 241.465 423.462 241.465H461.68C463.867 241.465 465.64 239.693 465.64 237.506V227.06C465.64 224.873 463.867 223.1 461.68 223.1Z" fill="#61D1DB"/>
<path opacity="0.1" d="M461.68 223.1H423.462C421.275 223.1 419.502 224.873 419.502 227.06V237.506C419.502 239.693 421.275 241.465 423.462 241.465H461.68C463.867 241.465 465.64 239.693 465.64 237.506V227.06C465.64 224.873 463.867 223.1 461.68 223.1Z" fill="black"/>
<path d="M423.462 223.1H461.68C463.867 223.1 465.64 221.327 465.64 219.14V208.694C465.64 206.507 463.867 204.734 461.68 204.734H423.462C421.275 204.734 419.502 206.507 419.502 208.694V219.14C419.502 221.327 421.275 223.1 423.462 223.1Z" fill="#61D1DB"/>
<path d="M377.325 223.1H415.543C417.73 223.1 419.502 221.327 419.502 219.14V208.694C419.502 206.507 417.73 204.734 415.543 204.734H377.325C375.138 204.734 373.365 206.507 373.365 208.694V219.14C373.365 221.327 375.138 223.1 377.325 223.1Z" fill="#61D1DB"/>
<path opacity="0.1" d="M377.325 223.1H415.543C417.73 223.1 419.502 221.327 419.502 219.14V208.694C419.502 206.507 417.73 204.734 415.543 204.734H377.325C375.138 204.734 373.365 206.507 373.365 208.694V219.14C373.365 221.327 375.138 223.1 377.325 223.1Z" fill="black"/>
<path d="M331.187 223.1H369.405C371.592 223.1 373.365 221.327 373.365 219.14V208.694C373.365 206.507 371.592 204.734 369.405 204.734H331.187C329 204.734 327.227 206.507 327.227 208.694V219.14C327.227 221.327 329 223.1 331.187 223.1Z" fill="#61D1DB"/>
<path d="M285.049 223.1H323.267C325.454 223.1 327.227 221.327 327.227 219.14V208.694C327.227 206.507 325.454 204.734 323.267 204.734H285.049C282.862 204.734 281.089 206.507 281.089 208.694V219.14C281.089 221.327 282.862 223.1 285.049 223.1Z" fill="#61D1DB"/>
<path opacity="0.1" d="M285.049 223.1H323.267C325.454 223.1 327.227 221.327 327.227 219.14V208.694C327.227 206.507 325.454 204.734 323.267 204.734H285.049C282.862 204.734 281.089 206.507 281.089 208.694V219.14C281.089 221.327 282.862 223.1 285.049 223.1Z" fill="black"/>
<path d="M238.911 223.1H277.129C279.316 223.1 281.089 221.327 281.089 219.14V208.694C281.089 206.507 279.316 204.734 277.129 204.734H238.911C236.724 204.734 234.951 206.507 234.951 208.694V219.14C234.951 221.327 236.724 223.1 238.911 223.1Z" fill="#61D1DB"/>
<path d="M192.773 223.1H230.991C233.178 223.1 234.951 221.327 234.951 219.14V208.694C234.951 206.507 233.178 204.734 230.991 204.734H192.773C190.586 204.734 188.813 206.507 188.813 208.694V219.14C188.813 221.327 190.586 223.1 192.773 223.1Z" fill="#61D1DB"/>
<path opacity="0.1" d="M192.773 223.1H230.991C233.178 223.1 234.951 221.327 234.951 219.14V208.694C234.951 206.507 233.178 204.734 230.991 204.734H192.773C190.586 204.734 188.813 206.507 188.813 208.694V219.14C188.813 221.327 190.586 223.1 192.773 223.1Z" fill="black"/>
<path d="M230.991 187.265H192.773C190.586 187.265 188.813 189.038 188.813 191.225V201.67C188.813 203.857 190.586 205.63 192.773 205.63H230.991C233.178 205.63 234.951 203.857 234.951 201.67V191.225C234.951 189.038 233.178 187.265 230.991 187.265Z" fill="#61D1DB"/>
<path d="M277.129 187.265H238.911C236.724 187.265 234.951 189.038 234.951 191.225V201.67C234.951 203.857 236.724 205.63 238.911 205.63H277.129C279.316 205.63 281.089 203.857 281.089 201.67V191.225C281.089 189.038 279.316 187.265 277.129 187.265Z" fill="#61D1DB"/>
<path opacity="0.1" d="M277.129 187.265H238.911C236.724 187.265 234.951 189.038 234.951 191.225V201.67C234.951 203.857 236.724 205.63 238.911 205.63H277.129C279.316 205.63 281.089 203.857 281.089 201.67V191.225C281.089 189.038 279.316 187.265 277.129 187.265Z" fill="black"/>
<path d="M323.267 187.265H285.049C282.862 187.265 281.089 189.038 281.089 191.225V201.67C281.089 203.857 282.862 205.63 285.049 205.63H323.267C325.454 205.63 327.227 203.857 327.227 201.67V191.225C327.227 189.038 325.454 187.265 323.267 187.265Z" fill="#61D1DB"/>
<path d="M369.405 187.265H331.186C328.999 187.265 327.227 189.038 327.227 191.225V201.67C327.227 203.857 328.999 205.63 331.186 205.63H369.405C371.591 205.63 373.364 203.857 373.364 201.67V191.225C373.364 189.038 371.591 187.265 369.405 187.265Z" fill="#61D1DB"/>
<path opacity="0.1" d="M369.405 187.265H331.186C328.999 187.265 327.227 189.038 327.227 191.225V201.67C327.227 203.857 328.999 205.63 331.186 205.63H369.405C371.591 205.63 373.364 203.857 373.364 201.67V191.225C373.364 189.038 371.591 187.265 369.405 187.265Z" fill="black"/>
<path d="M415.543 187.265H377.325C375.138 187.265 373.365 189.038 373.365 191.225V201.67C373.365 203.857 375.138 205.63 377.325 205.63H415.543C417.73 205.63 419.502 203.857 419.502 201.67V191.225C419.502 189.038 417.73 187.265 415.543 187.265Z" fill="#61D1DB"/>
<path d="M461.68 187.265H423.462C421.275 187.265 419.502 189.038 419.502 191.225V201.67C419.502 203.857 421.275 205.63 423.462 205.63H461.68C463.867 205.63 465.64 203.857 465.64 201.67V191.225C465.64 189.038 463.867 187.265 461.68 187.265Z" fill="#61D1DB"/>
<path opacity="0.1" d="M461.68 187.265H423.462C421.275 187.265 419.502 189.038 419.502 191.225V201.67C419.502 203.857 421.275 205.63 423.462 205.63H461.68C463.867 205.63 465.64 203.857 465.64 201.67V191.225C465.64 189.038 463.867 187.265 461.68 187.265Z" fill="black"/>
<path d="M423.462 187.265H461.68C463.867 187.265 465.64 185.492 465.64 183.305V172.859C465.64 170.672 463.867 168.899 461.68 168.899H423.462C421.275 168.899 419.502 170.672 419.502 172.859V183.305C419.502 185.492 421.275 187.265 423.462 187.265Z" fill="#61D1DB"/>
<path d="M377.325 187.265H415.543C417.73 187.265 419.502 185.492 419.502 183.305V172.859C419.502 170.672 417.73 168.899 415.543 168.899H377.325C375.138 168.899 373.365 170.672 373.365 172.859V183.305C373.365 185.492 375.138 187.265 377.325 187.265Z" fill="#61D1DB"/>
<path opacity="0.1" d="M377.325 187.265H415.543C417.73 187.265 419.502 185.492 419.502 183.305V172.859C419.502 170.672 417.73 168.899 415.543 168.899H377.325C375.138 168.899 373.365 170.672 373.365 172.859V183.305C373.365 185.492 375.138 187.265 377.325 187.265Z" fill="black"/>
<path d="M331.187 187.265H369.405C371.592 187.265 373.365 185.492 373.365 183.305V172.859C373.365 170.672 371.592 168.899 369.405 168.899H331.187C329 168.899 327.227 170.672 327.227 172.859V183.305C327.227 185.492 329 187.265 331.187 187.265Z" fill="#61D1DB"/>
<path d="M285.049 187.265H323.267C325.454 187.265 327.227 185.492 327.227 183.305V172.859C327.227 170.672 325.454 168.899 323.267 168.899H285.049C282.862 168.899 281.089 170.672 281.089 172.859V183.305C281.089 185.492 282.862 187.265 285.049 187.265Z" fill="#61D1DB"/>
<path opacity="0.1" d="M285.049 187.265H323.267C325.454 187.265 327.227 185.492 327.227 183.305V172.859C327.227 170.672 325.454 168.899 323.267 168.899H285.049C282.862 168.899 281.089 170.672 281.089 172.859V183.305C281.089 185.492 282.862 187.265 285.049 187.265Z" fill="black"/>
<path d="M238.911 187.265H277.129C279.316 187.265 281.089 185.492 281.089 183.305V172.859C281.089 170.672 279.316 168.899 277.129 168.899H238.911C236.724 168.899 234.951 170.672 234.951 172.859V183.305C234.951 185.492 236.724 187.265 238.911 187.265Z" fill="#61D1DB"/>
<path d="M192.773 187.265H230.991C233.178 187.265 234.951 185.492 234.951 183.305V172.859C234.951 170.672 233.178 168.899 230.991 168.899H192.773C190.586 168.899 188.813 170.672 188.813 172.859V183.305C188.813 185.492 190.586 187.265 192.773 187.265Z" fill="#61D1DB"/>
<path opacity="0.1" d="M192.773 187.265H230.991C233.178 187.265 234.951 185.492 234.951 183.305V172.859C234.951 170.672 233.178 168.899 230.991 168.899H192.773C190.586 168.899 188.813 170.672 188.813 172.859V183.305C188.813 185.492 190.586 187.265 192.773 187.265Z" fill="black"/>
<path d="M230.991 150.534H192.773C190.586 150.534 188.813 152.307 188.813 154.494V164.939C188.813 167.126 190.586 168.899 192.773 168.899H230.991C233.178 168.899 234.951 167.126 234.951 164.939V154.494C234.951 152.307 233.178 150.534 230.991 150.534Z" fill="#61D1DB"/>
<path d="M277.129 150.534H238.911C236.724 150.534 234.951 152.307 234.951 154.494V164.939C234.951 167.126 236.724 168.899 238.911 168.899H277.129C279.316 168.899 281.089 167.126 281.089 164.939V154.494C281.089 152.307 279.316 150.534 277.129 150.534Z" fill="#61D1DB"/>
<path opacity="0.1" d="M277.129 150.534H238.911C236.724 150.534 234.951 152.307 234.951 154.494V164.939C234.951 167.126 236.724 168.899 238.911 168.899H277.129C279.316 168.899 281.089 167.126 281.089 164.939V154.494C281.089 152.307 279.316 150.534 277.129 150.534Z" fill="black"/>
<path d="M323.267 150.534H285.049C282.862 150.534 281.089 152.307 281.089 154.494V164.939C281.089 167.126 282.862 168.899 285.049 168.899H323.267C325.454 168.899 327.227 167.126 327.227 164.939V154.494C327.227 152.307 325.454 150.534 323.267 150.534Z" fill="#61D1DB"/>
<path d="M369.405 150.534H331.186C328.999 150.534 327.227 152.307 327.227 154.494V164.939C327.227 167.126 328.999 168.899 331.186 168.899H369.405C371.591 168.899 373.364 167.126 373.364 164.939V154.494C373.364 152.307 371.591 150.534 369.405 150.534Z" fill="#61D1DB"/>
<path opacity="0.1" d="M369.405 150.534H331.186C328.999 150.534 327.227 152.307 327.227 154.494V164.939C327.227 167.126 328.999 168.899 331.186 168.899H369.405C371.591 168.899 373.364 167.126 373.364 164.939V154.494C373.364 152.307 371.591 150.534 369.405 150.534Z" fill="black"/>
<path d="M415.543 150.534H377.325C375.138 150.534 373.365 152.307 373.365 154.494V164.939C373.365 167.126 375.138 168.899 377.325 168.899H415.543C417.73 168.899 419.502 167.126 419.502 164.939V154.494C419.502 152.307 417.73 150.534 415.543 150.534Z" fill="#61D1DB"/>
<path d="M461.68 150.534H423.462C421.275 150.534 419.502 152.307 419.502 154.494V164.939C419.502 167.126 421.275 168.899 423.462 168.899H461.68C463.867 168.899 465.64 167.126 465.64 164.939V154.494C465.64 152.307 463.867 150.534 461.68 150.534Z" fill="#61D1DB"/>
<path opacity="0.1" d="M461.68 150.534H423.462C421.275 150.534 419.502 152.307 419.502 154.494V164.939C419.502 167.126 421.275 168.899 423.462 168.899H461.68C463.867 168.899 465.64 167.126 465.64 164.939V154.494C465.64 152.307 463.867 150.534 461.68 150.534Z" fill="black"/>
<path d="M461.68 89.3497H419.879C417.692 89.3497 415.919 91.1226 415.919 93.3095V105.18C415.919 107.367 417.692 109.14 419.879 109.14H461.68C463.867 109.14 465.64 107.367 465.64 105.18V93.3095C465.64 91.1226 463.867 89.3497 461.68 89.3497Z" fill="url(#paint0_linear)"/>
<path d="M421.67 108.427H459.888C462.075 108.427 463.848 106.655 463.848 104.468V94.0217C463.848 91.8347 462.075 90.0619 459.888 90.0619H421.67C419.483 90.0619 417.71 91.8347 417.71 94.0217V104.468C417.71 106.655 419.483 108.427 421.67 108.427Z" fill="#61D1DB"/>
<path d="M377.325 150.534H415.543C417.73 150.534 419.502 148.761 419.502 146.574V136.128C419.502 133.941 417.73 132.168 415.543 132.168H377.325C375.138 132.168 373.365 133.941 373.365 136.128V146.574C373.365 148.761 375.138 150.534 377.325 150.534Z" fill="#61D1DB"/>
<path opacity="0.1" d="M377.325 150.534H415.543C417.73 150.534 419.502 148.761 419.502 146.574V136.128C419.502 133.941 417.73 132.168 415.543 132.168H377.325C375.138 132.168 373.365 133.941 373.365 136.128V146.574C373.365 148.761 375.138 150.534 377.325 150.534Z" fill="black"/>
<path d="M331.187 150.534H369.405C371.592 150.534 373.365 148.761 373.365 146.574V136.128C373.365 133.941 371.592 132.168 369.405 132.168H331.187C329 132.168 327.227 133.941 327.227 136.128V146.574C327.227 148.761 329 150.534 331.187 150.534Z" fill="#61D1DB"/>
<path d="M285.049 150.534H323.267C325.454 150.534 327.227 148.761 327.227 146.574V136.128C327.227 133.941 325.454 132.168 323.267 132.168H285.049C282.862 132.168 281.089 133.941 281.089 136.128V146.574C281.089 148.761 282.862 150.534 285.049 150.534Z" fill="#61D1DB"/>
<path opacity="0.1" d="M285.049 150.534H323.267C325.454 150.534 327.227 148.761 327.227 146.574V136.128C327.227 133.941 325.454 132.168 323.267 132.168H285.049C282.862 132.168 281.089 133.941 281.089 136.128V146.574C281.089 148.761 282.862 150.534 285.049 150.534Z" fill="black"/>
<path d="M238.911 150.534H277.129C279.316 150.534 281.089 148.761 281.089 146.574V136.128C281.089 133.941 279.316 132.168 277.129 132.168H238.911C236.724 132.168 234.951 133.941 234.951 136.128V146.574C234.951 148.761 236.724 150.534 238.911 150.534Z" fill="#61D1DB"/>
<path d="M192.773 150.534H230.991C233.178 150.534 234.951 148.761 234.951 146.574V136.128C234.951 133.941 233.178 132.168 230.991 132.168H192.773C190.586 132.168 188.813 133.941 188.813 136.128V146.574C188.813 148.761 190.586 150.534 192.773 150.534Z" fill="#61D1DB"/>
<path opacity="0.1" d="M192.773 150.534H230.991C233.178 150.534 234.951 148.761 234.951 146.574V136.128C234.951 133.941 233.178 132.168 230.991 132.168H192.773C190.586 132.168 188.813 133.941 188.813 136.128V146.574C188.813 148.761 190.586 150.534 192.773 150.534Z" fill="black"/>
<path d="M340.522 367.784C463.969 367.784 564.043 345.022 564.043 316.943C564.043 288.864 463.969 266.102 340.522 266.102C217.074 266.102 117 288.864 117 316.943C117 345.022 217.074 367.784 340.522 367.784Z" fill="#F5F5F5"/>
<path d="M168.043 294.125C168.043 294.125 172.074 280.503 167.29 270.474C165.263 266.281 164.651 261.543 165.548 256.973C165.99 254.806 166.631 252.685 167.461 250.635" stroke="#535461" stroke-width="2" stroke-miterlimit="10"/>
<path d="M164.495 244.301C164.495 245.972 167.519 250.814 167.519 250.814C167.519 250.814 170.542 245.972 170.542 244.301C170.542 243.499 170.224 242.73 169.657 242.163C169.09 241.596 168.321 241.277 167.519 241.277C166.717 241.277 165.948 241.596 165.381 242.163C164.814 242.73 164.495 243.499 164.495 244.301Z" fill="#61D1DB"/>
<path d="M159.496 253.551C160.392 254.953 165.575 257.372 165.575 257.372C165.575 257.372 165.481 251.665 164.571 250.263C164.133 249.595 163.448 249.127 162.666 248.962C161.885 248.797 161.069 248.949 160.399 249.383C159.728 249.818 159.257 250.5 159.088 251.281C158.918 252.062 159.065 252.878 159.496 253.551Z" fill="#61D1DB"/>
<path d="M159.715 269.354C161.207 270.107 166.882 269.587 166.882 269.587C166.882 269.587 163.922 264.709 162.43 263.956C161.717 263.615 160.898 263.567 160.149 263.822C159.401 264.077 158.782 264.616 158.426 265.322C158.069 266.028 158.004 266.845 158.243 267.599C158.483 268.353 159.008 268.983 159.706 269.354H159.715Z" fill="#61D1DB"/>
<path d="M162.573 281.274C163.917 282.268 169.606 282.716 169.606 282.716C169.606 282.716 167.51 277.408 166.17 276.413C165.524 275.988 164.739 275.828 163.977 275.964C163.215 276.1 162.535 276.523 162.076 277.146C161.617 277.768 161.414 278.544 161.509 279.311C161.604 280.079 161.99 280.782 162.587 281.274H162.573Z" fill="#61D1DB"/>
<path d="M171.922 257.694C170.726 258.859 165.145 260.064 165.145 260.064C165.145 260.064 166.511 254.523 167.707 253.345C167.991 253.068 168.328 252.85 168.697 252.703C169.066 252.556 169.46 252.484 169.857 252.489C170.254 252.495 170.646 252.579 171.011 252.736C171.375 252.893 171.706 253.12 171.982 253.405C172.259 253.69 172.477 254.026 172.624 254.395C172.771 254.764 172.843 255.158 172.838 255.555C172.832 255.952 172.748 256.344 172.591 256.709C172.434 257.074 172.207 257.404 171.922 257.681V257.694Z" fill="#61D1DB"/>
<path d="M175.089 271.665C173.597 272.418 167.922 271.898 167.922 271.898C167.922 271.898 170.883 267.02 172.374 266.268C173.085 265.947 173.893 265.913 174.628 266.174C175.363 266.434 175.969 266.969 176.319 267.665C176.669 268.362 176.737 269.167 176.508 269.913C176.279 270.658 175.77 271.286 175.089 271.665Z" fill="#61D1DB"/>
<path d="M176.298 285.695C174.954 286.689 169.266 287.137 169.266 287.137C169.266 287.137 171.362 281.829 172.701 280.835C173.348 280.41 174.133 280.249 174.894 280.385C175.656 280.521 176.337 280.944 176.796 281.567C177.255 282.19 177.458 282.965 177.363 283.733C177.268 284.501 176.882 285.203 176.285 285.695H176.298Z" fill="#61D1DB"/>
<path d="M384.411 216.927C384.411 216.927 399.143 231.66 390.825 253.519C382.507 275.379 405.083 311.751 405.083 311.751C405.083 311.751 404.841 311.716 404.393 311.635C374.135 306.273 359.102 271.665 375.927 245.963C382.18 236.404 387.318 225.196 384.411 216.927Z" fill="#61D1DB"/>
<path opacity="0.2" d="M384.411 216.927C384.411 216.927 399.143 231.66 390.825 253.519C382.507 275.379 405.083 311.751 405.083 311.751C405.083 311.751 404.841 311.716 404.393 311.635C374.135 306.273 359.102 271.665 375.927 245.963C382.18 236.404 387.318 225.196 384.411 216.927Z" fill="black"/>
<path d="M384.411 216.927C384.411 216.927 392.729 234.984 384.411 249.716C376.093 264.449 382.986 305.789 405.097 311.729" stroke="#535461" stroke-miterlimit="10"/>
<path d="M358.175 276.508C358.175 276.508 374.986 273.82 376.518 288.898C378.05 303.975 408.841 306.049 408.841 306.049L408.263 306.434C382.838 323.125 358.542 317.064 362.197 294.904C363.559 286.667 363.438 278.384 358.175 276.508Z" fill="#61D1DB"/>
<path opacity="0.2" d="M358.175 276.508C358.175 276.508 374.986 273.82 376.518 288.898C378.05 303.975 408.841 306.049 408.841 306.049L408.263 306.434C382.838 323.125 358.542 317.064 362.197 294.904C363.559 286.667 363.438 278.384 358.175 276.508Z" fill="#F5F5F5"/>
<path d="M358.175 276.508C358.175 276.508 371.223 279.37 370.153 291.236C369.082 303.102 389.531 317.324 408.841 306.049" stroke="#535461" stroke-miterlimit="10"/>
<path d="M486.071 311.187C486.071 311.187 461.12 306.197 454.464 299.541C447.808 292.884 417.867 281.242 414.539 289.561C411.211 297.879 369.629 326.162 397.93 331.152C426.23 336.142 464.466 337.804 472.785 334.48C481.103 331.156 486.071 311.187 486.071 311.187Z" fill="#A8A8A8"/>
<path opacity="0.2" d="M397.93 328.061C426.208 333.051 464.467 334.713 472.785 331.389C479.119 328.854 483.535 316.683 485.26 311.017L486.093 311.192C486.093 311.192 481.103 331.152 472.785 334.484C464.467 337.817 426.199 336.146 397.93 331.156C389.768 329.714 387.435 326.332 388.312 322.05C388.971 324.84 391.833 326.986 397.93 328.061Z" fill="black"/>
<path d="M536.553 89.6184C536.108 88.5104 535.399 87.5277 534.488 86.7561C527.791 80.6552 516.965 82.5052 508.651 78.7738C506.734 77.9138 504.772 76.7223 502.693 77.0493C499.791 77.4972 497.09 80.812 494.559 79.3427L494.738 79.8937L494.559 79.7996L496.422 85.4705C497.139 87.6475 497.892 89.8872 499.28 91.7014C497.224 93.4942 495.651 95.7741 494.703 98.3323C493.756 100.89 493.465 103.645 493.858 106.345C494.251 109.044 495.314 111.603 496.95 113.785C498.587 115.967 500.745 117.705 503.227 118.838C503.316 119.026 503.401 119.218 503.486 119.411L503.724 119.509C504.275 120.778 504.687 122.103 504.951 123.46C502.796 123.76 499.038 126.148 495.347 129.66L487.965 129.413C483.191 129.254 478.57 127.683 474.688 124.898L452.578 109.019C451.003 109.174 449.519 109.83 448.345 110.891C445.604 108.033 443.274 105.068 443.471 103.276C443.471 103.276 433.196 84.0461 429.46 93.6589C425.724 103.272 436.466 113.368 436.466 113.368L443.279 122.197C443.01 123.745 442.839 125.308 442.768 126.878C451.176 136.495 480.597 145.194 480.597 145.194L485.184 145.418L485.21 145.642C484.928 146.846 484.79 148.079 484.798 149.315C484.798 149.494 484.798 149.678 484.798 149.866C484.798 150.054 484.798 150.113 484.798 150.234C485.031 165.571 487.132 212.497 487.132 212.497C487.54 212.313 487.965 212.148 488.395 211.991L488.068 216.161C488.068 216.161 468.453 218.907 453.976 224.403C439.498 229.9 439.032 236.31 439.032 236.31V292.866C434.898 294.99 428.371 297.794 425.021 296.284C421.384 294.663 419.39 296.024 419.027 297.444C418.958 297.725 418.958 298.019 419.027 298.3C419.058 298.426 419.105 298.548 419.166 298.663V298.69C419.233 298.808 419.316 298.917 419.413 299.012C420.815 300.387 451.172 312.289 458.177 310.457C458.394 310.4 458.607 310.328 458.813 310.242C458.881 310.215 458.939 310.179 459.006 310.148C459.073 310.116 459.266 310.027 459.387 309.955C459.508 309.884 459.526 309.861 459.593 309.816C459.66 309.772 459.803 309.678 459.902 309.601C460 309.525 460.032 309.485 460.094 309.427C460.157 309.368 460.278 309.27 460.359 309.18C460.439 309.091 460.475 309.046 460.533 308.979C460.592 308.912 460.695 308.8 460.766 308.701C460.838 308.602 460.865 308.553 460.919 308.482C460.972 308.41 461.062 308.275 461.125 308.168C461.187 308.06 461.21 308.016 461.25 307.935C461.29 307.854 461.376 307.707 461.434 307.586C461.492 307.465 461.505 307.429 461.537 307.348C461.568 307.268 461.649 307.093 461.698 306.963C461.747 306.833 461.752 306.806 461.783 306.726C461.815 306.645 461.882 306.443 461.922 306.278C461.922 306.202 461.962 306.125 461.985 306.049C462.025 305.892 462.07 305.74 462.106 305.601C462.106 305.53 462.137 305.458 462.151 305.386C462.186 305.216 462.222 305.046 462.249 304.876C462.249 304.813 462.249 304.746 462.28 304.683C462.312 304.499 462.339 304.311 462.361 304.128V303.966C462.383 303.765 462.406 303.563 462.424 303.362V303.236C462.442 303.018 462.455 302.8 462.464 302.582V302.493C462.464 302.26 462.464 302.027 462.464 301.794V301.749C462.456 299.018 462.155 296.295 461.568 293.628L463.329 245.461C472.502 245.604 481.676 245.266 490.814 244.449L491.818 267.437C491.818 267.437 491.818 282.546 496.955 289.413C501.354 295.29 506.434 321.284 507.804 328.661C505.919 332.245 502.308 336.724 496.019 336.572C496.019 336.572 484.189 335.55 484.857 338.811C484.875 338.897 484.901 338.981 484.933 339.062C484.97 339.156 485.013 339.247 485.063 339.336C485.112 339.421 485.166 339.506 485.228 339.595L485.264 339.649C485.331 339.743 485.408 339.842 485.493 339.945V339.967C485.573 340.061 485.658 340.155 485.752 340.249L485.833 340.33C485.941 340.437 486.048 340.545 486.173 340.657C492.243 346.153 527.738 347.067 527.738 347.067V346.942C527.738 346.906 527.738 346.861 527.738 346.812C527.738 345.221 527.505 336.881 525.382 330.601H525.874C525.874 330.601 520.736 284.355 516.535 278.864C516.535 278.864 515.419 254.478 517.937 239.199L518.385 239.029C530.157 234.63 530.994 223.799 529.78 215.843C532.02 216.56 533.328 217.048 533.328 217.048C533.328 217.048 533.288 216.703 533.212 216.09L533.328 216.134C533.328 216.134 533.104 214.679 532.732 212.412C531.89 206.172 530.26 195.269 528.522 190.123C528.239 188.989 527.971 188.022 527.724 187.292C526.721 184.199 526.032 181.013 525.668 177.782C525.192 173.594 524.951 169.383 524.947 165.168C524.985 159.536 525.416 153.915 526.237 148.343C526.949 143.479 527.581 137.942 527.536 134.076C527.586 132.726 527.491 131.375 527.254 130.045C526.631 127.192 523.877 125.337 521.014 124.155C520.831 124.078 520.642 124.016 520.454 123.944C520.526 122.864 520.616 121.637 520.732 120.361C521.075 120.598 521.463 120.764 521.872 120.847C522.28 120.93 522.702 120.929 523.111 120.844C524.342 120.576 525.225 119.55 526.009 118.605C530.148 113.52 534.399 108.221 535.989 101.905C536.631 99.0849 536.932 96.1974 536.885 93.305C536.885 93.1467 536.885 92.9884 536.885 92.8302C536.961 91.7485 536.849 90.6617 536.553 89.6184Z" fill="url(#paint1_linear)"/>
<path d="M498.868 114.403C498.868 114.403 505.139 123.81 503.796 128.289C502.452 132.768 518.578 130.081 518.578 130.081C518.578 130.081 519.025 112.611 522.161 108.58C525.297 104.548 498.868 114.403 498.868 114.403Z" fill="#F7C4A7"/>
<path d="M457.434 120.45C457.434 120.45 444.444 109.7 444.892 105.668C444.892 105.668 435.037 86.8547 431.453 96.2614C427.87 105.668 438.172 115.523 438.172 115.523L450.715 132.097L457.434 120.45Z" fill="#F7C4A7"/>
<path d="M444.22 289.099C444.22 289.099 432.125 296.714 427.198 294.474C422.271 292.235 420.479 295.818 421.823 297.162C423.166 298.506 452.282 310.152 459.001 308.361C465.721 306.569 462.303 291.894 462.303 291.894L444.22 289.099Z" fill="#535461"/>
<path d="M508.275 321.799C508.275 321.799 505.363 334.117 495.284 333.893C495.284 333.893 480.054 332.549 485.878 337.925C491.701 343.3 525.744 344.196 525.744 344.196C525.744 344.196 525.744 325.83 519.473 321.799C513.202 317.767 508.275 321.799 508.275 321.799Z" fill="#535461"/>
<path d="M489.909 234.899L491.253 266.254C491.253 266.254 491.253 281.036 496.18 287.755C501.108 294.474 506.931 328.07 506.931 328.07H523.953C523.953 328.07 519.025 282.828 514.994 277.453C514.994 277.453 513.202 237.586 519.473 228.627L489.909 234.899Z" fill="#575988"/>
<path opacity="0.1" d="M489.909 234.899L491.253 266.254C491.253 266.254 491.253 281.036 496.18 287.755C501.108 294.474 506.931 328.07 506.931 328.07H523.953C523.953 328.07 519.025 282.828 514.994 277.453C514.994 277.453 513.202 237.586 519.473 228.627L489.909 234.899Z" fill="black"/>
<path d="M525.297 206.678C525.297 206.678 535.599 231.315 516.786 238.482C497.972 245.649 463.929 244.753 463.929 244.753L462.137 296.714C462.137 296.714 441.084 299.402 440.636 292.683V235.794C440.636 235.794 441.084 229.523 454.97 224.148C468.856 218.773 487.67 216.085 487.67 216.085L488.566 204.439L525.297 206.678Z" fill="#575988"/>
<path opacity="0.1" d="M508.79 125.516C512.368 125.12 515.988 125.632 519.317 127.003C522.063 128.159 524.692 129.973 525.301 132.764C526.009 136.07 525.225 143.483 524.325 149.759C522.882 159.593 522.699 169.572 523.778 179.453C524.226 183.569 524.876 187.157 525.749 188.756C528.437 193.684 531.124 216.976 531.124 216.976C531.124 216.976 501.56 205.778 486.778 212.497C486.778 212.497 484.763 166.583 484.539 151.577C484.364 139.958 499.097 126.717 504.024 126.269C506.909 126.009 505.919 125.816 508.79 125.516Z" fill="black"/>
<path d="M508.79 124.62C512.368 124.224 515.988 124.736 519.317 126.108C522.063 127.263 524.692 129.077 525.301 131.868C526.009 135.174 525.225 142.587 524.325 148.863C522.882 158.697 522.699 168.676 523.778 178.557C524.127 181.715 524.787 184.832 525.749 187.86C527.765 193.908 531.124 216.081 531.124 216.081C531.124 216.081 501.56 204.882 486.778 211.601C486.778 211.601 484.763 165.687 484.539 150.682C484.364 139.062 499.097 125.821 504.024 125.373C506.909 125.113 505.919 124.921 508.79 124.62Z" fill="#F12587"/>
<path opacity="0.1" d="M516.785 149.342L484.982 147.55C484.982 147.55 482.957 131.958 487.548 132.119L519.025 133.216C519.025 133.216 525.744 141.279 516.785 149.342Z" fill="black"/>
<path d="M516.786 148.446L480.503 146.655C480.503 146.655 452.283 138.144 444.22 128.737C444.22 128.737 444.668 112.163 453.626 111.267L474.818 126.806C478.522 129.523 482.958 131.062 487.549 131.223L519.026 132.32C519.026 132.32 525.745 140.383 516.786 148.446Z" fill="#F12587"/>
<path opacity="0.1" d="M518.354 116.419C518.887 112.172 520.813 110.761 522.161 109.028C525.297 104.996 498.868 114.851 498.868 114.851C500.234 116.949 501.433 119.153 502.452 121.44C504.559 122.411 506.851 122.914 509.171 122.914C513.05 122.914 515.567 118.717 518.354 116.419Z" fill="black"/>
<path d="M509.171 122.466C518.077 122.466 525.297 115.246 525.297 106.34C525.297 97.434 518.077 90.2142 509.171 90.2142C500.265 90.2142 493.045 97.434 493.045 106.34C493.045 115.246 500.265 122.466 509.171 122.466Z" fill="#F7C4A7"/>
<path opacity="0.1" d="M498.989 95.0385C497.273 93.1617 496.445 90.6622 495.665 88.2388L493.874 82.6889C496.301 84.1223 498.89 80.8971 501.677 80.4492C503.67 80.1311 505.556 81.2958 507.392 82.1334C515.366 85.7796 525.758 83.97 532.172 89.941C533.049 90.7002 533.728 91.6609 534.152 92.7406C534.448 93.758 534.569 94.8182 534.511 95.8762C534.563 98.7035 534.282 101.527 533.673 104.288C532.15 110.466 528.074 115.653 524.1 120.625C523.348 121.57 522.501 122.573 521.319 122.838C519.012 123.353 517.229 120.862 516.338 118.676C515.157 115.78 514.286 112.766 513.74 109.686C513.507 108.383 513.323 107.039 512.674 105.888C511.285 103.428 507.863 101.099 505.784 99.1909C503.706 97.2827 500.897 97.1215 498.989 95.0385Z" fill="black"/>
<path d="M498.989 94.5906C497.273 92.7137 496.445 90.2142 495.665 87.7909L493.874 82.2409C496.301 83.6743 498.89 80.4492 501.677 80.0012C503.67 79.6832 505.556 80.8478 507.392 81.6855C515.366 85.3317 525.758 83.522 532.172 89.4931C533.049 90.2523 533.728 91.213 534.152 92.2927C534.448 93.3101 534.569 94.3703 534.511 95.4282C534.563 98.2555 534.282 101.079 533.673 103.841C532.15 110.018 528.074 115.205 524.1 120.177C523.348 121.122 522.501 122.125 521.319 122.39C519.012 122.905 517.229 120.414 516.338 118.228C515.157 115.332 514.286 112.318 513.74 109.238C513.507 107.935 513.323 106.591 512.674 105.44C511.285 102.981 507.863 100.651 505.784 98.743C503.706 96.8348 500.897 96.6735 498.989 94.5906Z" fill="#632652"/>
<path d="M513.426 111.043C514.169 111.043 514.77 109.74 514.77 108.132C514.77 106.524 514.169 105.22 513.426 105.22C512.684 105.22 512.083 106.524 512.083 108.132C512.083 109.74 512.684 111.043 513.426 111.043Z" fill="#F7C4A7"/>
<path opacity="0.1" d="M521.489 185.849C521.489 185.849 520.593 188.537 516.114 188.089C511.634 187.641 498.644 186.745 498.644 188.089" fill="black"/>
<path opacity="0.5" d="M485.878 337.477C485.071 336.733 484.668 336.133 484.574 335.609C484.458 336.191 484.816 336.952 485.878 337.924C491.701 343.3 525.744 344.196 525.744 344.196C525.744 344.196 525.744 344.039 525.744 343.748C525.525 343.743 491.683 342.834 485.878 337.477Z" fill="white"/>
<path opacity="0.5" d="M459.001 307.465C452.282 309.256 423.166 297.61 421.822 296.266C421.643 296.084 421.515 295.859 421.451 295.612C421.373 295.881 421.367 296.165 421.432 296.436C421.497 296.708 421.632 296.958 421.822 297.162C423.166 298.506 452.282 310.152 459.001 308.361C462.46 307.438 463.23 303.106 463.167 299.115C463.1 302.833 462.2 306.605 459.001 307.465Z" fill="white"/>
<path d="M341.906 302.645C342.084 302.645 342.255 302.574 342.381 302.448C342.507 302.322 342.578 302.151 342.578 301.973C342.578 301.795 342.507 301.624 342.381 301.498C342.255 301.372 342.084 301.301 341.906 301.301C341.728 301.301 341.557 301.372 341.431 301.498C341.305 301.624 341.234 301.795 341.234 301.973C341.234 302.151 341.305 302.322 341.431 302.448C341.557 302.574 341.728 302.645 341.906 302.645Z" fill="#67647E"/>
<path d="M157.982 290.761C157.982 290.761 174.699 290.246 179.734 286.658C184.769 283.07 205.446 278.788 206.695 284.539C207.945 290.291 231.82 313.153 212.931 313.324C194.041 313.494 169.082 310.385 164.052 307.321C159.021 304.257 157.982 290.761 157.982 290.761Z" fill="#A8A8A8"/>
<path opacity="0.2" d="M213.285 311.304C194.413 311.456 169.436 308.365 164.405 305.301C160.575 302.967 159.03 294.6 158.542 290.739H157.982C157.982 290.739 159.039 304.222 164.069 307.281C169.1 310.34 194.077 313.458 212.931 313.324C218.378 313.279 220.259 311.344 220.156 308.473C219.417 310.188 217.338 311.272 213.285 311.304Z" fill="black"/>
<path d="M540.822 333.741H579.04C581.227 333.741 583 331.968 583 329.781V319.335C583 317.148 581.227 315.375 579.04 315.375H540.822C538.635 315.375 536.862 317.148 536.862 319.335V329.781C536.862 331.968 538.635 333.741 540.822 333.741Z" fill="#61D1DB"/>
<path opacity="0.1" d="M540.822 333.741H579.04C581.227 333.741 583 331.968 583 329.781V319.335C583 317.148 581.227 315.375 579.04 315.375H540.822C538.635 315.375 536.862 317.148 536.862 319.335V329.781C536.862 331.968 538.635 333.741 540.822 333.741Z" fill="black"/>
<path d="M579.04 297.906H540.822C538.635 297.906 536.862 299.679 536.862 301.865V312.311C536.862 314.498 538.635 316.271 540.822 316.271H579.04C581.227 316.271 583 314.498 583 312.311V301.865C583 299.679 581.227 297.906 579.04 297.906Z" fill="#61D1DB"/>
<path d="M540.822 297.906H579.04C581.227 297.906 583 296.133 583 293.946V283.5C583 281.313 581.227 279.54 579.04 279.54H540.822C538.635 279.54 536.862 281.313 536.862 283.5V293.946C536.862 296.133 538.635 297.906 540.822 297.906Z" fill="#61D1DB"/>
<path opacity="0.1" d="M540.822 297.906H579.04C581.227 297.906 583 296.133 583 293.946V283.5C583 281.313 581.227 279.54 579.04 279.54H540.822C538.635 279.54 536.862 281.313 536.862 283.5V293.946C536.862 296.133 538.635 297.906 540.822 297.906Z" fill="black"/>
<path d="M579.04 261.175H540.822C538.635 261.175 536.862 262.948 536.862 265.134V275.58C536.862 277.767 538.635 279.54 540.822 279.54H579.04C581.227 279.54 583 277.767 583 275.58V265.134C583 262.948 581.227 261.175 579.04 261.175Z" fill="#61D1DB"/>
<defs>
<linearGradient id="paint0_linear" x1="440.78" y1="109.14" x2="440.78" y2="89.3497" gradientUnits="userSpaceOnUse">
<stop stop-color="#808080" stop-opacity="0.25"/>
<stop offset="0.54" stop-color="#808080" stop-opacity="0.12"/>
<stop offset="1" stop-color="#808080" stop-opacity="0.1"/>
</linearGradient>
<linearGradient id="paint1_linear" x1="104867" y1="196804" x2="104867" y2="33949.6" gradientUnits="userSpaceOnUse">
<stop stop-color="#808080" stop-opacity="0.25"/>
<stop offset="0.54" stop-color="#808080" stop-opacity="0.12"/>
<stop offset="1" stop-color="#808080" stop-opacity="0.1"/>
</linearGradient>
</defs>
</svg>
