<svg width="466" height="292" viewBox="0 0 466 292" fill="none" xmlns="http://www.w3.org/2000/svg">
<path d="M113.991 183.831H75.7733C73.5863 183.831 71.8135 185.604 71.8135 187.791V198.237C71.8135 200.424 73.5863 202.196 75.7733 202.196H113.991C116.178 202.196 117.951 200.424 117.951 198.237V187.791C117.951 185.604 116.178 183.831 113.991 183.831Z" fill="#61D1DB"/>
<path d="M160.129 183.831H121.911C119.724 183.831 117.951 185.604 117.951 187.791V198.237C117.951 200.424 119.724 202.196 121.911 202.196H160.129C162.316 202.196 164.089 200.424 164.089 198.237V187.791C164.089 185.604 162.316 183.831 160.129 183.831Z" fill="#61D1DB"/>
<path opacity="0.1" d="M160.129 183.831H121.911C119.724 183.831 117.951 185.604 117.951 187.791V198.237C117.951 200.424 119.724 202.196 121.911 202.196H160.129C162.316 202.196 164.089 200.424 164.089 198.237V187.791C164.089 185.604 162.316 183.831 160.129 183.831Z" fill="black"/>
<path d="M206.267 183.831H168.049C165.862 183.831 164.089 185.604 164.089 187.791V198.237C164.089 200.424 165.862 202.196 168.049 202.196H206.267C208.454 202.196 210.227 200.424 210.227 198.237V187.791C210.227 185.604 208.454 183.831 206.267 183.831Z" fill="#61D1DB"/>
<path d="M252.405 183.831H214.187C212 183.831 210.227 185.604 210.227 187.791V198.237C210.227 200.424 212 202.196 214.187 202.196H252.405C254.592 202.196 256.365 200.424 256.365 198.237V187.791C256.365 185.604 254.592 183.831 252.405 183.831Z" fill="#61D1DB"/>
<path opacity="0.1" d="M252.405 183.831H214.187C212 183.831 210.227 185.604 210.227 187.791V198.237C210.227 200.424 212 202.196 214.187 202.196H252.405C254.592 202.196 256.365 200.424 256.365 198.237V187.791C256.365 185.604 254.592 183.831 252.405 183.831Z" fill="black"/>
<path d="M298.542 183.831H260.324C258.137 183.831 256.365 185.604 256.365 187.791V198.237C256.365 200.424 258.137 202.196 260.324 202.196H298.542C300.729 202.196 302.502 200.424 302.502 198.237V187.791C302.502 185.604 300.729 183.831 298.542 183.831Z" fill="#61D1DB"/>
<path d="M344.68 183.831H306.462C304.275 183.831 302.502 185.604 302.502 187.791V198.237C302.502 200.424 304.275 202.196 306.462 202.196H344.68C346.867 202.196 348.64 200.424 348.64 198.237V187.791C348.64 185.604 346.867 183.831 344.68 183.831Z" fill="#61D1DB"/>
<path opacity="0.1" d="M344.68 183.831H306.462C304.275 183.831 302.502 185.604 302.502 187.791V198.237C302.502 200.424 304.275 202.196 306.462 202.196H344.68C346.867 202.196 348.64 200.424 348.64 198.237V187.791C348.64 185.604 346.867 183.831 344.68 183.831Z" fill="black"/>
<path d="M306.462 183.831H344.68C346.867 183.831 348.64 182.058 348.64 179.871V169.425C348.64 167.238 346.867 165.465 344.68 165.465H306.462C304.275 165.465 302.502 167.238 302.502 169.425V179.871C302.502 182.058 304.275 183.831 306.462 183.831Z" fill="#61D1DB"/>
<path d="M260.324 183.831H298.542C300.729 183.831 302.502 182.058 302.502 179.871V169.425C302.502 167.238 300.729 165.465 298.542 165.465H260.324C258.137 165.465 256.365 167.238 256.365 169.425V179.871C256.365 182.058 258.137 183.831 260.324 183.831Z" fill="#61D1DB"/>
<path opacity="0.1" d="M260.324 183.831H298.542C300.729 183.831 302.502 182.058 302.502 179.871V169.425C302.502 167.238 300.729 165.465 298.542 165.465H260.324C258.137 165.465 256.365 167.238 256.365 169.425V179.871C256.365 182.058 258.137 183.831 260.324 183.831Z" fill="black"/>
<path d="M214.187 183.831H252.405C254.592 183.831 256.365 182.058 256.365 179.871V169.425C256.365 167.238 254.592 165.465 252.405 165.465H214.187C212 165.465 210.227 167.238 210.227 169.425V179.871C210.227 182.058 212 183.831 214.187 183.831Z" fill="#61D1DB"/>
<path d="M168.049 183.831H206.267C208.454 183.831 210.227 182.058 210.227 179.871V169.425C210.227 167.238 208.454 165.465 206.267 165.465H168.049C165.862 165.465 164.089 167.238 164.089 169.425V179.871C164.089 182.058 165.862 183.831 168.049 183.831Z" fill="#61D1DB"/>
<path opacity="0.1" d="M168.049 183.831H206.267C208.454 183.831 210.227 182.058 210.227 179.871V169.425C210.227 167.238 208.454 165.465 206.267 165.465H168.049C165.862 165.465 164.089 167.238 164.089 169.425V179.871C164.089 182.058 165.862 183.831 168.049 183.831Z" fill="black"/>
<path d="M121.911 183.831H160.129C162.316 183.831 164.089 182.058 164.089 179.871V169.425C164.089 167.238 162.316 165.465 160.129 165.465H121.911C119.724 165.465 117.951 167.238 117.951 169.425V179.871C117.951 182.058 119.724 183.831 121.911 183.831Z" fill="#61D1DB"/>
<path d="M75.7735 183.831H113.992C116.179 183.831 117.951 182.058 117.951 179.871V169.425C117.951 167.238 116.179 165.465 113.992 165.465H75.7735C73.5865 165.465 71.8137 167.238 71.8137 169.425V179.871C71.8137 182.058 73.5865 183.831 75.7735 183.831Z" fill="#61D1DB"/>
<path opacity="0.1" d="M75.7735 183.831H113.992C116.179 183.831 117.951 182.058 117.951 179.871V169.425C117.951 167.238 116.179 165.465 113.992 165.465H75.7735C73.5865 165.465 71.8137 167.238 71.8137 169.425V179.871C71.8137 182.058 73.5865 183.831 75.7735 183.831Z" fill="black"/>
<path d="M113.991 147.1H75.7733C73.5863 147.1 71.8135 148.873 71.8135 151.06V161.506C71.8135 163.693 73.5863 165.465 75.7733 165.465H113.991C116.178 165.465 117.951 163.693 117.951 161.506V151.06C117.951 148.873 116.178 147.1 113.991 147.1Z" fill="#61D1DB"/>
<path d="M160.129 147.1H121.911C119.724 147.1 117.951 148.873 117.951 151.06V161.506C117.951 163.693 119.724 165.465 121.911 165.465H160.129C162.316 165.465 164.089 163.693 164.089 161.506V151.06C164.089 148.873 162.316 147.1 160.129 147.1Z" fill="#61D1DB"/>
<path opacity="0.1" d="M160.129 147.1H121.911C119.724 147.1 117.951 148.873 117.951 151.06V161.506C117.951 163.693 119.724 165.465 121.911 165.465H160.129C162.316 165.465 164.089 163.693 164.089 161.506V151.06C164.089 148.873 162.316 147.1 160.129 147.1Z" fill="black"/>
<path d="M206.267 147.1H168.049C165.862 147.1 164.089 148.873 164.089 151.06V161.506C164.089 163.693 165.862 165.465 168.049 165.465H206.267C208.454 165.465 210.227 163.693 210.227 161.506V151.06C210.227 148.873 208.454 147.1 206.267 147.1Z" fill="#61D1DB"/>
<path d="M252.405 147.1H214.187C212 147.1 210.227 148.873 210.227 151.06V161.506C210.227 163.693 212 165.465 214.187 165.465H252.405C254.592 165.465 256.365 163.693 256.365 161.506V151.06C256.365 148.873 254.592 147.1 252.405 147.1Z" fill="#61D1DB"/>
<path opacity="0.1" d="M252.405 147.1H214.187C212 147.1 210.227 148.873 210.227 151.06V161.506C210.227 163.693 212 165.465 214.187 165.465H252.405C254.592 165.465 256.365 163.693 256.365 161.506V151.06C256.365 148.873 254.592 147.1 252.405 147.1Z" fill="black"/>
<path d="M298.542 147.1H260.324C258.137 147.1 256.365 148.873 256.365 151.06V161.506C256.365 163.693 258.137 165.465 260.324 165.465H298.542C300.729 165.465 302.502 163.693 302.502 161.506V151.06C302.502 148.873 300.729 147.1 298.542 147.1Z" fill="#61D1DB"/>
<path d="M344.68 147.1H306.462C304.275 147.1 302.502 148.873 302.502 151.06V161.506C302.502 163.693 304.275 165.465 306.462 165.465H344.68C346.867 165.465 348.64 163.693 348.64 161.506V151.06C348.64 148.873 346.867 147.1 344.68 147.1Z" fill="#61D1DB"/>
<path opacity="0.1" d="M344.68 147.1H306.462C304.275 147.1 302.502 148.873 302.502 151.06V161.506C302.502 163.693 304.275 165.465 306.462 165.465H344.68C346.867 165.465 348.64 163.693 348.64 161.506V151.06C348.64 148.873 346.867 147.1 344.68 147.1Z" fill="black"/>
<path d="M306.462 147.1H344.68C346.867 147.1 348.64 145.327 348.64 143.14V132.694C348.64 130.507 346.867 128.734 344.68 128.734H306.462C304.275 128.734 302.502 130.507 302.502 132.694V143.14C302.502 145.327 304.275 147.1 306.462 147.1Z" fill="#61D1DB"/>
<path d="M260.324 147.1H298.542C300.729 147.1 302.502 145.327 302.502 143.14V132.694C302.502 130.507 300.729 128.734 298.542 128.734H260.324C258.137 128.734 256.365 130.507 256.365 132.694V143.14C256.365 145.327 258.137 147.1 260.324 147.1Z" fill="#61D1DB"/>
<path opacity="0.1" d="M260.324 147.1H298.542C300.729 147.1 302.502 145.327 302.502 143.14V132.694C302.502 130.507 300.729 128.734 298.542 128.734H260.324C258.137 128.734 256.365 130.507 256.365 132.694V143.14C256.365 145.327 258.137 147.1 260.324 147.1Z" fill="black"/>
<path d="M214.187 147.1H252.405C254.592 147.1 256.365 145.327 256.365 143.14V132.694C256.365 130.507 254.592 128.734 252.405 128.734H214.187C212 128.734 210.227 130.507 210.227 132.694V143.14C210.227 145.327 212 147.1 214.187 147.1Z" fill="#61D1DB"/>
<path d="M168.049 147.1H206.267C208.454 147.1 210.227 145.327 210.227 143.14V132.694C210.227 130.507 208.454 128.734 206.267 128.734H168.049C165.862 128.734 164.089 130.507 164.089 132.694V143.14C164.089 145.327 165.862 147.1 168.049 147.1Z" fill="#61D1DB"/>
<path opacity="0.1" d="M168.049 147.1H206.267C208.454 147.1 210.227 145.327 210.227 143.14V132.694C210.227 130.507 208.454 128.734 206.267 128.734H168.049C165.862 128.734 164.089 130.507 164.089 132.694V143.14C164.089 145.327 165.862 147.1 168.049 147.1Z" fill="black"/>
<path d="M121.911 147.1H160.129C162.316 147.1 164.089 145.327 164.089 143.14V132.694C164.089 130.507 162.316 128.734 160.129 128.734H121.911C119.724 128.734 117.951 130.507 117.951 132.694V143.14C117.951 145.327 119.724 147.1 121.911 147.1Z" fill="#61D1DB"/>
<path d="M75.7735 147.1H113.992C116.179 147.1 117.951 145.327 117.951 143.14V132.694C117.951 130.507 116.179 128.734 113.992 128.734H75.7735C73.5865 128.734 71.8137 130.507 71.8137 132.694V143.14C71.8137 145.327 73.5865 147.1 75.7735 147.1Z" fill="#61D1DB"/>
<path opacity="0.1" d="M75.7735 147.1H113.992C116.179 147.1 117.951 145.327 117.951 143.14V132.694C117.951 130.507 116.179 128.734 113.992 128.734H75.7735C73.5865 128.734 71.8137 130.507 71.8137 132.694V143.14C71.8137 145.327 73.5865 147.1 75.7735 147.1Z" fill="black"/>
<path d="M113.991 111.265H75.7733C73.5863 111.265 71.8135 113.038 71.8135 115.224V125.67C71.8135 127.857 73.5863 129.63 75.7733 129.63H113.991C116.178 129.63 117.951 127.857 117.951 125.67V115.224C117.951 113.038 116.178 111.265 113.991 111.265Z" fill="#61D1DB"/>
<path d="M160.129 111.265H121.911C119.724 111.265 117.951 113.038 117.951 115.224V125.67C117.951 127.857 119.724 129.63 121.911 129.63H160.129C162.316 129.63 164.089 127.857 164.089 125.67V115.224C164.089 113.038 162.316 111.265 160.129 111.265Z" fill="#61D1DB"/>
<path opacity="0.1" d="M160.129 111.265H121.911C119.724 111.265 117.951 113.038 117.951 115.224V125.67C117.951 127.857 119.724 129.63 121.911 129.63H160.129C162.316 129.63 164.089 127.857 164.089 125.67V115.224C164.089 113.038 162.316 111.265 160.129 111.265Z" fill="black"/>
<path d="M206.267 111.265H168.049C165.862 111.265 164.089 113.038 164.089 115.224V125.67C164.089 127.857 165.862 129.63 168.049 129.63H206.267C208.454 129.63 210.227 127.857 210.227 125.67V115.224C210.227 113.038 208.454 111.265 206.267 111.265Z" fill="#61D1DB"/>
<path d="M252.405 111.265H214.187C212 111.265 210.227 113.038 210.227 115.224V125.67C210.227 127.857 212 129.63 214.187 129.63H252.405C254.592 129.63 256.365 127.857 256.365 125.67V115.224C256.365 113.038 254.592 111.265 252.405 111.265Z" fill="#61D1DB"/>
<path opacity="0.1" d="M252.405 111.265H214.187C212 111.265 210.227 113.038 210.227 115.224V125.67C210.227 127.857 212 129.63 214.187 129.63H252.405C254.592 129.63 256.365 127.857 256.365 125.67V115.224C256.365 113.038 254.592 111.265 252.405 111.265Z" fill="black"/>
<path d="M298.542 111.265H260.324C258.137 111.265 256.365 113.038 256.365 115.224V125.67C256.365 127.857 258.137 129.63 260.324 129.63H298.542C300.729 129.63 302.502 127.857 302.502 125.67V115.224C302.502 113.038 300.729 111.265 298.542 111.265Z" fill="#61D1DB"/>
<path d="M344.68 111.265H306.462C304.275 111.265 302.502 113.038 302.502 115.224V125.67C302.502 127.857 304.275 129.63 306.462 129.63H344.68C346.867 129.63 348.64 127.857 348.64 125.67V115.224C348.64 113.038 346.867 111.265 344.68 111.265Z" fill="#61D1DB"/>
<path opacity="0.1" d="M344.68 111.265H306.462C304.275 111.265 302.502 113.038 302.502 115.224V125.67C302.502 127.857 304.275 129.63 306.462 129.63H344.68C346.867 129.63 348.64 127.857 348.64 125.67V115.224C348.64 113.038 346.867 111.265 344.68 111.265Z" fill="black"/>
<path d="M306.462 111.265H344.68C346.867 111.265 348.64 109.492 348.64 107.305V96.8591C348.64 94.6721 346.867 92.8993 344.68 92.8993H306.462C304.275 92.8993 302.502 94.6721 302.502 96.8591V107.305C302.502 109.492 304.275 111.265 306.462 111.265Z" fill="#61D1DB"/>
<path d="M260.324 111.265H298.542C300.729 111.265 302.502 109.492 302.502 107.305V96.8591C302.502 94.6721 300.729 92.8993 298.542 92.8993H260.324C258.137 92.8993 256.365 94.6721 256.365 96.8591V107.305C256.365 109.492 258.137 111.265 260.324 111.265Z" fill="#61D1DB"/>
<path opacity="0.1" d="M260.324 111.265H298.542C300.729 111.265 302.502 109.492 302.502 107.305V96.8591C302.502 94.6721 300.729 92.8993 298.542 92.8993H260.324C258.137 92.8993 256.365 94.6721 256.365 96.8591V107.305C256.365 109.492 258.137 111.265 260.324 111.265Z" fill="black"/>
<path d="M214.187 111.265H252.405C254.592 111.265 256.365 109.492 256.365 107.305V96.8591C256.365 94.6721 254.592 92.8993 252.405 92.8993H214.187C212 92.8993 210.227 94.6721 210.227 96.8591V107.305C210.227 109.492 212 111.265 214.187 111.265Z" fill="#61D1DB"/>
<path d="M168.049 111.265H206.267C208.454 111.265 210.227 109.492 210.227 107.305V96.8591C210.227 94.6721 208.454 92.8993 206.267 92.8993H168.049C165.862 92.8993 164.089 94.6721 164.089 96.8591V107.305C164.089 109.492 165.862 111.265 168.049 111.265Z" fill="#61D1DB"/>
<path opacity="0.1" d="M168.049 111.265H206.267C208.454 111.265 210.227 109.492 210.227 107.305V96.8591C210.227 94.6721 208.454 92.8993 206.267 92.8993H168.049C165.862 92.8993 164.089 94.6721 164.089 96.8591V107.305C164.089 109.492 165.862 111.265 168.049 111.265Z" fill="black"/>
<path d="M121.911 111.265H160.129C162.316 111.265 164.089 109.492 164.089 107.305V96.8591C164.089 94.6721 162.316 92.8993 160.129 92.8993H121.911C119.724 92.8993 117.951 94.6721 117.951 96.8591V107.305C117.951 109.492 119.724 111.265 121.911 111.265Z" fill="#61D1DB"/>
<path d="M75.7735 111.265H113.992C116.179 111.265 117.951 109.492 117.951 107.305V96.8591C117.951 94.6721 116.179 92.8993 113.992 92.8993H75.7735C73.5865 92.8993 71.8137 94.6721 71.8137 96.8591V107.305C71.8137 109.492 73.5865 111.265 75.7735 111.265Z" fill="#61D1DB"/>
<path opacity="0.1" d="M75.7735 111.265H113.992C116.179 111.265 117.951 109.492 117.951 107.305V96.8591C117.951 94.6721 116.179 92.8993 113.992 92.8993H75.7735C73.5865 92.8993 71.8137 94.6721 71.8137 96.8591V107.305C71.8137 109.492 73.5865 111.265 75.7735 111.265Z" fill="black"/>
<path d="M113.991 74.5338H75.7733C73.5863 74.5338 71.8135 76.3066 71.8135 78.4935V88.9395C71.8135 91.1264 73.5863 92.8993 75.7733 92.8993H113.991C116.178 92.8993 117.951 91.1264 117.951 88.9395V78.4935C117.951 76.3066 116.178 74.5338 113.991 74.5338Z" fill="#61D1DB"/>
<path d="M160.129 74.5338H121.911C119.724 74.5338 117.951 76.3066 117.951 78.4935V88.9395C117.951 91.1264 119.724 92.8993 121.911 92.8993H160.129C162.316 92.8993 164.089 91.1264 164.089 88.9395V78.4935C164.089 76.3066 162.316 74.5338 160.129 74.5338Z" fill="#61D1DB"/>
<path opacity="0.1" d="M160.129 74.5338H121.911C119.724 74.5338 117.951 76.3066 117.951 78.4935V88.9395C117.951 91.1264 119.724 92.8993 121.911 92.8993H160.129C162.316 92.8993 164.089 91.1264 164.089 88.9395V78.4935C164.089 76.3066 162.316 74.5338 160.129 74.5338Z" fill="black"/>
<path d="M206.267 74.5338H168.049C165.862 74.5338 164.089 76.3066 164.089 78.4935V88.9395C164.089 91.1264 165.862 92.8993 168.049 92.8993H206.267C208.454 92.8993 210.227 91.1264 210.227 88.9395V78.4935C210.227 76.3066 208.454 74.5338 206.267 74.5338Z" fill="#61D1DB"/>
<path d="M252.405 74.5338H214.187C212 74.5338 210.227 76.3066 210.227 78.4935V88.9395C210.227 91.1264 212 92.8993 214.187 92.8993H252.405C254.592 92.8993 256.365 91.1264 256.365 88.9395V78.4935C256.365 76.3066 254.592 74.5338 252.405 74.5338Z" fill="#61D1DB"/>
<path opacity="0.1" d="M252.405 74.5338H214.187C212 74.5338 210.227 76.3066 210.227 78.4935V88.9395C210.227 91.1264 212 92.8993 214.187 92.8993H252.405C254.592 92.8993 256.365 91.1264 256.365 88.9395V78.4935C256.365 76.3066 254.592 74.5338 252.405 74.5338Z" fill="black"/>
<path d="M298.542 74.5338H260.324C258.137 74.5338 256.365 76.3066 256.365 78.4935V88.9395C256.365 91.1264 258.137 92.8993 260.324 92.8993H298.542C300.729 92.8993 302.502 91.1264 302.502 88.9395V78.4935C302.502 76.3066 300.729 74.5338 298.542 74.5338Z" fill="#61D1DB"/>
<path d="M344.68 74.5338H306.462C304.275 74.5338 302.502 76.3066 302.502 78.4935V88.9395C302.502 91.1264 304.275 92.8993 306.462 92.8993H344.68C346.867 92.8993 348.64 91.1264 348.64 88.9395V78.4935C348.64 76.3066 346.867 74.5338 344.68 74.5338Z" fill="#61D1DB"/>
<path opacity="0.1" d="M344.68 74.5338H306.462C304.275 74.5338 302.502 76.3066 302.502 78.4935V88.9395C302.502 91.1264 304.275 92.8993 306.462 92.8993H344.68C346.867 92.8993 348.64 91.1264 348.64 88.9395V78.4935C348.64 76.3066 346.867 74.5338 344.68 74.5338Z" fill="black"/>
<path d="M344.68 13.3497H302.878C300.692 13.3497 298.919 15.1226 298.919 17.3095V29.1799C298.919 31.3668 300.692 33.1397 302.878 33.1397H344.68C346.867 33.1397 348.64 31.3668 348.64 29.1799V17.3095C348.64 15.1226 346.867 13.3497 344.68 13.3497Z" fill="url(#paint0_linear)"/>
<path d="M304.67 32.4274L342.888 32.4274C345.075 32.4274 346.848 30.6545 346.848 28.4676V18.0216C346.848 15.8347 345.075 14.0619 342.888 14.0619L304.67 14.0619C302.483 14.0619 300.71 15.8347 300.71 18.0216V28.4676C300.71 30.6545 302.483 32.4274 304.67 32.4274Z" fill="#61D1DB"/>
<path d="M260.324 74.5338H298.542C300.729 74.5338 302.502 72.7609 302.502 70.574V60.128C302.502 57.9411 300.729 56.1683 298.542 56.1683H260.324C258.137 56.1683 256.365 57.9411 256.365 60.128V70.574C256.365 72.7609 258.137 74.5338 260.324 74.5338Z" fill="#61D1DB"/>
<path opacity="0.1" d="M260.324 74.5338H298.542C300.729 74.5338 302.502 72.7609 302.502 70.574V60.128C302.502 57.9411 300.729 56.1683 298.542 56.1683H260.324C258.137 56.1683 256.365 57.9411 256.365 60.128V70.574C256.365 72.7609 258.137 74.5338 260.324 74.5338Z" fill="black"/>
<path d="M214.187 74.5338H252.405C254.592 74.5338 256.365 72.7609 256.365 70.574V60.128C256.365 57.9411 254.592 56.1683 252.405 56.1683H214.187C212 56.1683 210.227 57.9411 210.227 60.128V70.574C210.227 72.7609 212 74.5338 214.187 74.5338Z" fill="#61D1DB"/>
<path d="M168.049 74.5338H206.267C208.454 74.5338 210.227 72.7609 210.227 70.574V60.128C210.227 57.9411 208.454 56.1683 206.267 56.1683H168.049C165.862 56.1683 164.089 57.9411 164.089 60.128V70.574C164.089 72.7609 165.862 74.5338 168.049 74.5338Z" fill="#61D1DB"/>
<path opacity="0.1" d="M168.049 74.5338H206.267C208.454 74.5338 210.227 72.7609 210.227 70.574V60.128C210.227 57.9411 208.454 56.1683 206.267 56.1683H168.049C165.862 56.1683 164.089 57.9411 164.089 60.128V70.574C164.089 72.7609 165.862 74.5338 168.049 74.5338Z" fill="black"/>
<path d="M121.911 74.5338H160.129C162.316 74.5338 164.089 72.7609 164.089 70.574V60.128C164.089 57.9411 162.316 56.1683 160.129 56.1683H121.911C119.724 56.1683 117.951 57.9411 117.951 60.128V70.574C117.951 72.7609 119.724 74.5338 121.911 74.5338Z" fill="#61D1DB"/>
<path d="M75.7735 74.5338H113.992C116.179 74.5338 117.951 72.7609 117.951 70.574V60.128C117.951 57.9411 116.179 56.1683 113.992 56.1683H75.7735C73.5865 56.1683 71.8137 57.9411 71.8137 60.128V70.574C71.8137 72.7609 73.5865 74.5338 75.7735 74.5338Z" fill="#61D1DB"/>
<path opacity="0.1" d="M75.7735 74.5338H113.992C116.179 74.5338 117.951 72.7609 117.951 70.574V60.128C117.951 57.9411 116.179 56.1683 113.992 56.1683H75.7735C73.5865 56.1683 71.8137 57.9411 71.8137 60.128V70.574C71.8137 72.7609 73.5865 74.5338 75.7735 74.5338Z" fill="black"/>
<path d="M223.522 291.784C346.969 291.784 447.043 269.022 447.043 240.943C447.043 212.864 346.969 190.102 223.522 190.102C100.074 190.102 0 212.864 0 240.943C0 269.022 100.074 291.784 223.522 291.784Z" fill="#F5F5F5"/>
<path d="M51.0426 218.125C51.0426 218.125 55.0741 204.503 50.2901 194.474C48.2623 190.281 47.6509 185.543 48.5476 180.973C48.9901 178.806 49.6304 176.685 50.4603 174.635" stroke="#535461" stroke-width="2" stroke-miterlimit="10"/>
<path d="M47.4949 168.301C47.4949 169.972 50.5185 174.814 50.5185 174.814C50.5185 174.814 53.542 169.972 53.542 168.301C53.542 167.499 53.2235 166.73 52.6565 166.163C52.0894 165.596 51.3204 165.277 50.5185 165.277C49.7166 165.277 48.9475 165.596 48.3805 166.163C47.8134 166.73 47.4949 167.499 47.4949 168.301Z" fill="#61D1DB"/>
<path d="M42.496 177.551C43.3919 178.953 48.5746 181.372 48.5746 181.372C48.5746 181.372 48.4805 175.665 47.5712 174.263C47.1331 173.595 46.4483 173.127 45.6664 172.962C44.8846 172.797 44.0693 172.949 43.3987 173.383C42.7281 173.818 42.2567 174.5 42.0876 175.281C41.9184 176.062 42.0653 176.878 42.496 177.551Z" fill="#61D1DB"/>
<path d="M42.7154 193.354C44.2071 194.107 49.8825 193.587 49.8825 193.587C49.8825 193.587 46.9216 188.709 45.4299 187.956C44.7165 187.615 43.8978 187.567 43.1492 187.822C42.4007 188.077 41.782 188.616 41.4257 189.322C41.0695 190.028 41.004 190.845 41.2434 191.599C41.4829 192.353 42.0081 192.983 42.7065 193.354H42.7154Z" fill="#61D1DB"/>
<path d="M45.5733 205.274C46.9171 206.268 52.606 206.716 52.606 206.716C52.606 206.716 50.5096 201.408 49.1703 200.413C48.5237 199.988 47.7388 199.828 46.9771 199.964C46.2155 200.1 45.535 200.523 45.0758 201.146C44.6167 201.768 44.4137 202.544 44.5087 203.311C44.6038 204.079 44.9896 204.782 45.5868 205.274H45.5733Z" fill="#61D1DB"/>
<path d="M54.9218 181.694C53.7258 182.859 48.1445 184.064 48.1445 184.064C48.1445 184.064 49.5107 178.523 50.7067 177.345C50.9914 177.068 51.3279 176.85 51.6968 176.703C52.0658 176.556 52.46 176.484 52.857 176.489C53.2541 176.495 53.6461 176.579 54.0108 176.736C54.3754 176.893 54.7056 177.12 54.9823 177.405C55.2591 177.69 55.4771 178.026 55.6238 178.395C55.7706 178.764 55.8432 179.158 55.8376 179.555C55.832 179.952 55.7482 180.344 55.5911 180.709C55.434 181.074 55.2066 181.404 54.9218 181.681V181.694Z" fill="#61D1DB"/>
<path d="M58.0887 195.665C56.597 196.418 50.9216 195.898 50.9216 195.898C50.9216 195.898 53.8825 191.02 55.3741 190.268C56.085 189.947 56.8923 189.913 57.6273 190.174C58.3624 190.434 58.9684 190.969 59.3188 191.665C59.6691 192.362 59.7368 193.167 59.5075 193.913C59.2783 194.658 58.77 195.286 58.0887 195.665Z" fill="#61D1DB"/>
<path d="M59.2983 209.695C57.9544 210.689 52.2656 211.137 52.2656 211.137C52.2656 211.137 54.362 205.829 55.7013 204.835C56.3479 204.41 57.1328 204.249 57.8944 204.385C58.6561 204.521 59.3366 204.944 59.7957 205.567C60.2549 206.19 60.4579 206.965 60.3628 207.733C60.2678 208.501 59.882 209.203 59.2848 209.695H59.2983Z" fill="#61D1DB"/>
<path d="M267.411 140.927C267.411 140.927 282.143 155.66 273.825 177.519C265.507 199.379 288.083 235.751 288.083 235.751C288.083 235.751 287.841 235.716 287.393 235.635C257.135 230.273 242.102 195.665 258.927 169.963C265.18 160.404 270.318 149.196 267.411 140.927Z" fill="#61D1DB"/>
<path opacity="0.2" d="M267.411 140.927C267.411 140.927 282.143 155.66 273.825 177.519C265.507 199.379 288.083 235.751 288.083 235.751C288.083 235.751 287.841 235.716 287.393 235.635C257.135 230.273 242.102 195.665 258.927 169.963C265.18 160.404 270.318 149.196 267.411 140.927Z" fill="black"/>
<path d="M267.411 140.927C267.411 140.927 275.729 158.984 267.411 173.716C259.092 188.449 265.986 229.789 288.096 235.729" stroke="#535461" stroke-miterlimit="10"/>
<path d="M241.175 200.508C241.175 200.508 257.986 197.82 259.518 212.898C261.05 227.975 291.841 230.049 291.841 230.049L291.263 230.434C265.838 247.125 241.542 241.064 245.197 218.904C246.559 210.667 246.438 202.384 241.175 200.508Z" fill="#61D1DB"/>
<path opacity="0.2" d="M241.175 200.508C241.175 200.508 257.986 197.82 259.518 212.898C261.05 227.975 291.841 230.049 291.841 230.049L291.263 230.434C265.838 247.125 241.542 241.064 245.197 218.904C246.559 210.667 246.438 202.384 241.175 200.508Z" fill="#F5F5F5"/>
<path d="M241.175 200.508C241.175 200.508 254.223 203.37 253.153 215.236C252.082 227.102 272.531 241.324 291.841 230.049" stroke="#535461" stroke-miterlimit="10"/>
<path d="M369.071 235.187C369.071 235.187 344.12 230.197 337.464 223.541C330.808 216.884 300.867 205.242 297.539 213.561C294.211 221.879 252.629 250.162 280.93 255.152C309.23 260.142 347.466 261.804 355.785 258.48C364.103 255.156 369.071 235.187 369.071 235.187Z" fill="#A8A8A8"/>
<path opacity="0.2" d="M280.929 252.061C309.208 257.051 347.466 258.713 355.785 255.389C362.118 252.854 366.535 240.683 368.26 235.017L369.093 235.192C369.093 235.192 364.103 255.152 355.785 258.484C347.466 261.817 309.199 260.146 280.929 255.156C272.768 253.714 270.434 250.332 271.312 246.05C271.971 248.84 274.833 250.986 280.929 252.061Z" fill="black"/>
<path d="M419.553 13.6184C419.108 12.5104 418.399 11.5277 417.488 10.7561C410.791 4.65519 399.965 6.50518 391.651 2.77385C389.734 1.9138 387.772 0.722284 385.693 1.04928C382.791 1.49722 380.09 4.81197 377.559 3.34273L377.738 3.8937L377.559 3.79963L379.422 9.47054C380.139 11.6475 380.892 13.8872 382.28 15.7014C380.224 17.4942 378.651 19.7741 377.703 22.3323C376.756 24.8905 376.465 27.6454 376.858 30.3449C377.251 33.0445 378.314 35.6025 379.95 37.7849C381.587 39.9674 383.745 41.7045 386.227 42.8375C386.316 43.0257 386.401 43.2183 386.486 43.4109L386.724 43.5094C387.275 44.7779 387.687 46.1027 387.951 47.4603C385.796 47.7604 382.038 50.1479 378.347 53.6597L370.965 53.4134C366.191 53.254 361.57 51.6827 357.688 48.8981L335.578 33.0187C334.003 33.1738 332.519 33.8301 331.345 34.8911C328.604 32.0332 326.274 29.0679 326.471 27.2761C326.471 27.2761 316.196 8.04609 312.46 17.6589C308.724 27.2716 319.466 37.3682 319.466 37.3682L326.279 46.1971C326.01 47.745 325.839 49.3085 325.768 50.878C334.176 60.4953 363.597 69.1943 363.597 69.1943L368.184 69.4182L368.21 69.6422C367.928 70.8459 367.79 72.0789 367.798 73.3153C367.798 73.4945 367.798 73.6781 367.798 73.8663C367.798 74.0544 367.798 74.1126 367.798 74.2336C368.031 89.571 370.132 136.497 370.132 136.497C370.54 136.313 370.965 136.148 371.395 135.991L371.068 140.161C371.068 140.161 351.453 142.907 336.976 148.403C322.498 153.9 322.032 160.31 322.032 160.31V216.866C317.898 218.99 311.371 221.794 308.021 220.284C304.384 218.663 302.39 220.024 302.027 221.444C301.958 221.725 301.958 222.019 302.027 222.3C302.058 222.426 302.105 222.548 302.166 222.663V222.69C302.233 222.808 302.316 222.917 302.413 223.012C303.815 224.387 334.172 236.289 341.177 234.457C341.394 234.4 341.607 234.328 341.813 234.242C341.881 234.215 341.939 234.179 342.006 234.148C342.073 234.116 342.266 234.027 342.387 233.955C342.508 233.884 342.526 233.861 342.593 233.816C342.66 233.772 342.803 233.678 342.902 233.601C343 233.525 343.032 233.485 343.094 233.427C343.157 233.368 343.278 233.27 343.359 233.18C343.439 233.091 343.475 233.046 343.533 232.979C343.592 232.912 343.695 232.8 343.766 232.701C343.838 232.602 343.865 232.553 343.919 232.482C343.972 232.41 344.062 232.275 344.125 232.168C344.187 232.06 344.21 232.016 344.25 231.935C344.29 231.854 344.376 231.707 344.434 231.586C344.492 231.465 344.505 231.429 344.537 231.348C344.568 231.268 344.649 231.093 344.698 230.963C344.747 230.833 344.752 230.806 344.783 230.726C344.815 230.645 344.882 230.443 344.922 230.278C344.922 230.202 344.962 230.125 344.985 230.049C345.025 229.892 345.07 229.74 345.106 229.601C345.106 229.53 345.137 229.458 345.151 229.386C345.186 229.216 345.222 229.046 345.249 228.876C345.249 228.813 345.249 228.746 345.28 228.683C345.312 228.499 345.339 228.311 345.361 228.128V227.966C345.383 227.765 345.406 227.563 345.424 227.362V227.236C345.442 227.018 345.455 226.8 345.464 226.582V226.493C345.464 226.26 345.464 226.027 345.464 225.794V225.749C345.456 223.018 345.155 220.295 344.568 217.628L346.329 169.461C355.502 169.604 364.676 169.266 373.814 168.449L374.818 191.437C374.818 191.437 374.818 206.546 379.955 213.413C384.354 219.29 389.434 245.284 390.804 252.661C388.919 256.245 385.308 260.724 379.019 260.572C379.019 260.572 367.189 259.55 367.857 262.811C367.875 262.897 367.901 262.981 367.933 263.062C367.97 263.156 368.013 263.247 368.063 263.336C368.112 263.421 368.166 263.506 368.228 263.595L368.264 263.649C368.331 263.743 368.408 263.842 368.493 263.945V263.967C368.573 264.061 368.658 264.155 368.752 264.249L368.833 264.33C368.941 264.437 369.048 264.545 369.173 264.657C375.243 270.153 410.738 271.067 410.738 271.067V270.942C410.738 270.906 410.738 270.861 410.738 270.812C410.738 269.221 410.505 260.881 408.382 254.601H408.874C408.874 254.601 403.736 208.355 399.535 202.864C399.535 202.864 398.419 178.478 400.937 163.199L401.385 163.029C413.157 158.63 413.994 147.799 412.78 139.843C415.02 140.56 416.328 141.048 416.328 141.048C416.328 141.048 416.288 140.703 416.212 140.09L416.328 140.134C416.328 140.134 416.104 138.679 415.732 136.412C414.89 130.172 413.26 119.269 411.522 114.123C411.239 112.989 410.971 112.022 410.724 111.292C409.721 108.199 409.032 105.013 408.668 101.782C408.192 97.594 407.951 93.3827 407.947 89.1679C407.985 83.5365 408.416 77.9146 409.237 72.3433C409.949 67.4787 410.581 61.9421 410.536 58.0764C410.586 56.7264 410.491 55.3749 410.254 54.045C409.631 51.1916 406.877 49.3371 404.014 48.1546C403.831 48.0784 403.642 48.0157 403.454 47.944C403.526 46.8645 403.616 45.6371 403.732 44.3605C404.075 44.5982 404.463 44.7637 404.872 44.8468C405.28 44.93 405.702 44.9291 406.111 44.8443C407.342 44.5755 408.225 43.5497 409.009 42.6046C413.148 37.5205 417.399 32.2214 418.989 25.9054C419.631 23.0849 419.932 20.1974 419.885 17.305C419.885 17.1467 419.885 16.9884 419.885 16.8302C419.961 15.7485 419.849 14.6617 419.553 13.6184Z" fill="url(#paint1_linear)"/>
<path d="M381.868 38.4029C381.868 38.4029 388.139 47.8096 386.796 52.289C385.452 56.7684 401.578 54.0808 401.578 54.0808C401.578 54.0808 402.025 36.6112 405.161 32.5797C408.297 28.5483 381.868 38.4029 381.868 38.4029Z" fill="#F7C4A7"/>
<path d="M340.434 44.4501C340.434 44.4501 327.444 33.6996 327.892 29.6681C327.892 29.6681 318.037 10.8547 314.453 20.2614C310.87 29.6681 321.172 39.5228 321.172 39.5228L333.715 56.0965L340.434 44.4501Z" fill="#F7C4A7"/>
<path d="M327.22 213.099C327.22 213.099 315.125 220.714 310.198 218.474C305.271 216.235 303.479 219.818 304.823 221.162C306.166 222.506 335.282 234.152 342.001 232.361C348.721 230.569 345.303 215.894 345.303 215.894L327.22 213.099Z" fill="#535461"/>
<path d="M391.275 245.799C391.275 245.799 388.363 258.117 378.285 257.893C378.285 257.893 363.055 256.549 368.878 261.925C374.701 267.3 408.745 268.196 408.745 268.196C408.745 268.196 408.745 249.83 402.473 245.799C396.202 241.767 391.275 245.799 391.275 245.799Z" fill="#535461"/>
<path d="M372.909 158.899L374.253 190.254C374.253 190.254 374.253 205.036 379.18 211.755C384.108 218.474 389.931 252.07 389.931 252.07H406.953C406.953 252.07 402.025 206.828 397.994 201.453C397.994 201.453 396.202 161.586 402.473 152.627L372.909 158.899Z" fill="#575988"/>
<path opacity="0.1" d="M372.909 158.899L374.253 190.254C374.253 190.254 374.253 205.036 379.18 211.755C384.108 218.474 389.931 252.07 389.931 252.07H406.953C406.953 252.07 402.025 206.828 397.994 201.453C397.994 201.453 396.202 161.586 402.473 152.627L372.909 158.899Z" fill="black"/>
<path d="M408.296 130.678C408.296 130.678 418.599 155.315 399.786 162.482C380.972 169.649 346.929 168.753 346.929 168.753L345.137 220.714C345.137 220.714 324.084 223.402 323.636 216.683V159.794C323.636 159.794 324.084 153.523 337.97 148.148C351.856 142.773 370.67 140.085 370.67 140.085L371.565 128.439L408.296 130.678Z" fill="#575988"/>
<path opacity="0.1" d="M391.79 49.5163C395.368 49.1201 398.988 49.6316 402.316 51.0034C405.062 52.1591 407.692 53.9733 408.301 56.7639C409.009 60.0697 408.225 67.4831 407.324 73.7587C405.882 83.5933 405.698 93.5716 406.778 103.453C407.226 107.569 407.875 111.157 408.749 112.756C411.436 117.684 414.124 140.976 414.124 140.976C414.124 140.976 384.56 129.778 369.778 136.497C369.778 136.497 367.762 90.5833 367.538 75.5774C367.364 63.9578 382.096 50.7168 387.024 50.2688C389.909 50.009 388.919 49.8164 391.79 49.5163Z" fill="black"/>
<path d="M391.79 48.6204C395.368 48.2243 398.988 48.7357 402.316 50.1076C405.062 51.2633 407.692 53.0774 408.301 55.8681C409.009 59.1739 408.225 66.5873 407.324 72.8629C405.882 82.6975 405.698 92.6758 406.778 102.557C407.126 105.715 407.787 108.832 408.749 111.86C410.765 117.908 414.124 140.081 414.124 140.081C414.124 140.081 384.56 128.882 369.778 135.601C369.778 135.601 367.762 89.6875 367.538 74.6815C367.364 63.062 382.096 49.8209 387.024 49.3729C389.909 49.1131 388.919 48.9205 391.79 48.6204Z" fill="#6361DB"/>
<path opacity="0.1" d="M399.786 73.3422L367.982 71.5504C367.982 71.5504 365.957 55.9577 370.549 56.1189L402.025 57.2164C402.025 57.2164 408.744 65.2793 399.786 73.3422Z" fill="black"/>
<path d="M399.786 72.4463L363.503 70.6545C363.503 70.6545 335.282 62.1437 327.219 52.737C327.219 52.737 327.667 36.1632 336.626 35.2673L357.818 50.8063C361.522 53.523 365.958 55.062 370.549 55.223L402.025 56.3205C402.025 56.3205 408.744 64.3834 399.786 72.4463Z" fill="#6361DB"/>
<path opacity="0.1" d="M401.354 40.4186C401.887 36.1722 403.813 34.7612 405.161 33.0277C408.297 28.9962 381.868 38.8509 381.868 38.8509C383.234 40.9494 384.433 43.1527 385.452 45.44C387.559 46.4108 389.851 46.9136 392.171 46.9138C396.05 46.9138 398.567 42.7166 401.354 40.4186Z" fill="black"/>
<path d="M392.171 46.4659C401.077 46.4659 408.297 39.2461 408.297 30.34C408.297 21.434 401.077 14.2142 392.171 14.2142C383.265 14.2142 376.045 21.434 376.045 30.34C376.045 39.2461 383.265 46.4659 392.171 46.4659Z" fill="#F7C4A7"/>
<path opacity="0.1" d="M381.989 19.0385C380.273 17.1617 379.445 14.6622 378.665 12.2388L376.874 6.68885C379.301 8.12226 381.89 4.8971 384.677 4.44916C386.67 4.13112 388.556 5.29577 390.392 6.13341C398.366 9.77964 408.758 7.96996 415.172 13.941C416.049 14.7002 416.728 15.6609 417.152 16.7406C417.448 17.758 417.569 18.8182 417.511 19.8762C417.563 22.7035 417.282 25.527 416.673 28.2885C415.15 34.4656 411.074 39.6527 407.1 44.6248C406.348 45.57 405.501 46.5734 404.319 46.8376C402.012 47.3528 400.229 44.8622 399.338 42.6763C398.157 39.7797 397.286 36.7662 396.74 33.6861C396.507 32.3826 396.323 31.0388 395.674 29.8876C394.285 27.4284 390.863 25.0992 388.784 23.1909C386.706 21.2827 383.897 21.1215 381.989 19.0385Z" fill="black"/>
<path d="M381.989 18.5906C380.273 16.7137 379.445 14.2142 378.665 11.7909L376.874 6.24092C379.301 7.67432 381.89 4.44916 384.677 4.00122C386.67 3.68318 388.556 4.84783 390.392 5.68548C398.366 9.3317 408.758 7.52202 415.172 13.4931C416.049 14.2523 416.728 15.213 417.152 16.2927C417.448 17.3101 417.569 18.3703 417.511 19.4282C417.563 22.2555 417.282 25.0791 416.673 27.8405C415.15 34.0176 411.074 39.2048 407.1 44.1769C406.348 45.122 405.501 46.1254 404.319 46.3897C402.012 46.9048 400.229 44.4143 399.338 42.2284C398.157 39.3318 397.286 36.3182 396.74 33.2382C396.507 31.9347 396.323 30.5909 395.674 29.4397C394.285 26.9805 390.863 24.6512 388.784 22.743C386.706 20.8348 383.897 20.6735 381.989 18.5906Z" fill="#632652"/>
<path d="M396.426 35.0434C397.168 35.0434 397.77 33.7398 397.77 32.1318C397.77 30.5237 397.168 29.2202 396.426 29.2202C395.684 29.2202 395.082 30.5237 395.082 32.1318C395.082 33.7398 395.684 35.0434 396.426 35.0434Z" fill="#F7C4A7"/>
<path opacity="0.1" d="M404.489 109.849C404.489 109.849 403.593 112.537 399.114 112.089C394.634 111.641 381.644 110.745 381.644 112.089" fill="black"/>
<path opacity="0.5" d="M368.878 261.477C368.071 260.733 367.668 260.133 367.574 259.609C367.458 260.191 367.816 260.952 368.878 261.924C374.701 267.3 408.744 268.196 408.744 268.196C408.744 268.196 408.744 268.039 408.744 267.748C408.525 267.743 374.683 266.834 368.878 261.477Z" fill="white"/>
<path opacity="0.5" d="M342.001 231.465C335.282 233.256 306.166 221.61 304.822 220.266C304.643 220.084 304.515 219.859 304.451 219.612C304.373 219.881 304.367 220.165 304.432 220.436C304.497 220.708 304.632 220.958 304.822 221.162C306.166 222.506 335.282 234.152 342.001 232.361C345.46 231.438 346.23 227.106 346.167 223.115C346.1 226.833 345.2 230.605 342.001 231.465Z" fill="white"/>
<path d="M224.906 226.645C225.084 226.645 225.255 226.574 225.381 226.448C225.507 226.322 225.578 226.151 225.578 225.973C225.578 225.795 225.507 225.624 225.381 225.498C225.255 225.372 225.084 225.301 224.906 225.301C224.728 225.301 224.557 225.372 224.431 225.498C224.305 225.624 224.234 225.795 224.234 225.973C224.234 226.151 224.305 226.322 224.431 226.448C224.557 226.574 224.728 226.645 224.906 226.645Z" fill="#67647E"/>
<path d="M40.9819 214.761C40.9819 214.761 57.699 214.246 62.7339 210.658C67.7687 207.07 88.4455 202.788 89.6953 208.539C90.945 214.291 114.82 237.153 95.9306 237.324C77.041 237.494 52.0819 234.385 47.0515 231.321C42.0212 228.257 40.9819 214.761 40.9819 214.761Z" fill="#A8A8A8"/>
<path opacity="0.2" d="M96.2845 235.304C77.4128 235.456 52.4357 232.365 47.4054 229.301C43.5755 226.967 42.0301 218.6 41.5419 214.739H40.9819C40.9819 214.739 42.0391 228.222 47.0694 231.281C52.0998 234.34 77.0769 237.458 95.9306 237.324C101.378 237.279 103.259 235.344 103.156 232.473C102.417 234.188 100.338 235.272 96.2845 235.304Z" fill="black"/>
<path d="M423.822 257.741H462.04C464.227 257.741 466 255.968 466 253.781V243.335C466 241.148 464.227 239.375 462.04 239.375H423.822C421.635 239.375 419.862 241.148 419.862 243.335V253.781C419.862 255.968 421.635 257.741 423.822 257.741Z" fill="#61D1DB"/>
<path opacity="0.1" d="M423.822 257.741H462.04C464.227 257.741 466 255.968 466 253.781V243.335C466 241.148 464.227 239.375 462.04 239.375H423.822C421.635 239.375 419.862 241.148 419.862 243.335V253.781C419.862 255.968 421.635 257.741 423.822 257.741Z" fill="black"/>
<path d="M462.04 221.906H423.822C421.635 221.906 419.862 223.679 419.862 225.865V236.311C419.862 238.498 421.635 240.271 423.822 240.271H462.04C464.227 240.271 466 238.498 466 236.311V225.865C466 223.679 464.227 221.906 462.04 221.906Z" fill="#61D1DB"/>
<path d="M423.822 221.906H462.04C464.227 221.906 466 220.133 466 217.946V207.5C466 205.313 464.227 203.54 462.04 203.54H423.822C421.635 203.54 419.862 205.313 419.862 207.5V217.946C419.862 220.133 421.635 221.906 423.822 221.906Z" fill="#61D1DB"/>
<path opacity="0.1" d="M423.822 221.906H462.04C464.227 221.906 466 220.133 466 217.946V207.5C466 205.313 464.227 203.54 462.04 203.54H423.822C421.635 203.54 419.862 205.313 419.862 207.5V217.946C419.862 220.133 421.635 221.906 423.822 221.906Z" fill="black"/>
<path d="M462.04 185.175H423.822C421.635 185.175 419.862 186.948 419.862 189.134V199.58C419.862 201.767 421.635 203.54 423.822 203.54H462.04C464.227 203.54 466 201.767 466 199.58V189.134C466 186.948 464.227 185.175 462.04 185.175Z" fill="#61D1DB"/>
<defs>
<linearGradient id="paint0_linear" x1="323.779" y1="33.1397" x2="323.779" y2="13.3497" gradientUnits="userSpaceOnUse">
<stop stop-color="#808080" stop-opacity="0.25"/>
<stop offset="0.54" stop-color="#808080" stop-opacity="0.12"/>
<stop offset="1" stop-color="#808080" stop-opacity="0.1"/>
</linearGradient>
<linearGradient id="paint1_linear" x1="104750" y1="196728" x2="104750" y2="33873.6" gradientUnits="userSpaceOnUse">
<stop stop-color="#808080" stop-opacity="0.25"/>
<stop offset="0.54" stop-color="#808080" stop-opacity="0.12"/>
<stop offset="1" stop-color="#808080" stop-opacity="0.1"/>
</linearGradient>
</defs>
</svg>
