<svg width="649" height="481" viewBox="0 0 649 481" fill="none" xmlns="http://www.w3.org/2000/svg">
<path fill-rule="evenodd" clip-rule="evenodd" d="M317.071 5.0662e-05C458.199 -0.0703989 592.92 73.3372 634.295 197.645C673.896 316.623 629.847 481 492.499 481C399.499 481 354.498 415 220.999 425.5C120.141 433.433 -9.58468 367.782 0.902064 197.961C23.9176 33.4347 176.194 0.0703749 317.071 5.0662e-05Z" fill="#DB61CF"/>
<path d="M446.121 404.883L446.573 415.722V425.207H458.315V404.883H446.121Z" fill="#FFB9B9"/>
<path d="M510.707 394.947L511.159 405.787V415.271H522.901L520.643 393.141L510.707 394.947Z" fill="#FFB9B9"/>
<path d="M498.963 219.258L495.35 247.711L483.607 281.584L478.188 262.164L484.962 249.969L483.607 224.226L498.963 219.258Z" fill="#FFB9B9"/>
<path d="M442.509 216.549C442.509 216.549 432.573 234.163 433.928 235.969C435.283 237.776 436.186 247.712 436.186 247.712H439.947L446.122 232.356L442.509 216.549Z" fill="#3A359E"/>
<path d="M467.124 169.804C475.854 169.804 482.931 162.727 482.931 153.997C482.931 145.267 475.854 138.189 467.124 138.189C458.394 138.189 451.316 145.267 451.316 153.997C451.316 162.727 458.394 169.804 467.124 169.804Z" fill="#FFB9B9"/>
<path d="M461.25 166.642C461.25 166.642 469.831 178.385 467.121 184.256C464.411 190.128 493.317 181.095 493.317 181.095C493.317 181.095 478.864 164.836 478.412 159.416L461.25 166.642Z" fill="#FFB9B9"/>
<path d="M493.318 219.033C492.301 220.559 491.303 222.262 490.337 224.059C489.881 224.913 489.433 225.789 488.991 226.674C483.743 237.252 479.768 249.744 479.768 249.744L437.766 248.389L439.071 244.56L444.992 227.162C434.604 220.839 444.54 208.645 449.96 197.354C454.937 186.984 465.253 180.088 466.897 179.031C467.046 178.94 467.122 178.891 467.122 178.891L467.312 178.859L474.85 177.59L488.426 175.305H488.431C490.816 175.706 493.101 176.565 495.16 177.834C496.877 178.917 498.329 180.371 499.41 182.088C501.059 184.708 501.831 187.86 501.971 191.234C502.378 201.112 497.391 212.922 493.318 219.033Z" fill="#00D5E0"/>
<path d="M495.804 181.771C495.804 181.771 503.933 191.256 504.385 199.386C504.837 207.515 503.03 222.871 498.965 222.871C494.9 222.871 487.674 225.581 488.126 222.871C488.577 220.161 495.804 181.771 495.804 181.771Z" fill="#00D5E0"/>
<path d="M488.126 198.934L483.158 199.838C481.473 186.347 471.726 180.914 466.898 179.031C467.047 178.94 467.124 178.891 467.124 178.891L467.314 178.859L474.852 177.59C484.811 182.725 488.126 198.934 488.126 198.934Z" fill="#3A359E"/>
<path d="M521.996 393.141C521.545 395.851 508.447 400.819 504.834 400.367C501.221 399.916 465.541 312.749 465.541 312.749C465.541 312.749 465.541 409.852 464.638 411.658C463.734 413.465 448.379 411.658 442.959 405.335C437.539 399.012 433.926 300.103 431.668 283.392C429.41 266.681 436.184 245.002 436.184 245.002L439.07 244.56L447.927 243.196C447.927 243.196 447.927 240.937 461.476 230.098C475.026 219.259 483.155 199.838 483.155 199.838L484.51 197.128L488.123 198.935C491.998 191.767 494.424 184.722 495.16 177.834C496.876 178.917 498.328 180.371 499.41 182.088C499.066 183.037 498.723 184.062 498.371 185.16C495.327 194.64 491.876 209.323 488.444 223.78C488.335 224.231 488.232 224.683 488.123 225.13C488.45 225.623 488.74 226.139 488.99 226.675C489.903 228.603 490.869 231.882 488.123 233.711C484.058 236.421 482.703 249.97 482.703 249.97C490.381 256.745 492.188 288.812 491.285 291.07C490.381 293.328 490.381 292.876 492.64 294.231C494.898 295.586 494.898 306.877 494.898 306.877C494.898 306.877 522.448 390.431 521.996 393.141Z" fill="#3A359E"/>
<path d="M452.895 419.789C452.895 419.789 450.185 422.498 448.378 421.143C446.572 419.789 446.501 414.025 446.501 414.025C446.501 414.025 425.796 412.111 429.861 425.66C433.926 439.209 462.379 441.016 463.282 438.306C464.186 435.596 460.121 418.434 460.121 418.434L452.895 419.789Z" fill="#2F2E41"/>
<path d="M517.48 409.851C517.48 409.851 514.771 412.561 512.964 411.206C511.157 409.851 511.087 404.087 511.087 404.087C511.087 404.087 490.382 402.173 494.447 415.722C498.512 429.272 526.965 431.078 527.868 428.368C528.772 425.658 524.707 408.496 524.707 408.496L517.48 409.851Z" fill="#2F2E41"/>
<path d="M454.253 208.871L452.446 232.808L429.413 258.552C429.413 258.552 421.735 262.165 426.251 268.488C430.768 274.811 432.574 275.263 432.574 275.263L433.026 267.133L464.189 242.293L467.351 208.871H454.253Z" fill="#FFB9B9"/>
<path d="M468.702 198.934C468.702 198.934 470.509 178.61 461.476 180.416C452.443 182.223 451.991 190.804 451.991 190.804C451.991 190.804 447.926 211.58 451.54 212.483C455.153 213.386 467.347 215.193 468.702 212.483C470.057 209.773 468.702 198.934 468.702 198.934Z" fill="#00D5E0"/>
<path d="M507.827 167.301C506.068 166.43 502.184 164.672 498.875 162.554C499.107 155.664 498.259 149.409 495.775 146.094C494.381 142.928 491.454 139.759 489.161 137.263C483.53 131.134 471.079 127.713 468.871 130.775C452.169 131.105 450.41 144.197 450.41 144.197C450.497 149.673 456.188 149.846 461.174 149.647C460.728 153.385 461.917 157.27 465.363 158.993C471.951 162.287 473.928 166.569 470.634 169.534C467.339 172.499 461.41 180.405 469.316 182.382C477.222 184.358 478.21 188.312 475.904 189.959C473.598 191.606 481.175 186.994 481.175 186.994C481.175 186.994 482.493 194.9 489.411 192.924C490.137 192.666 490.777 192.213 491.26 191.614C493.128 193.667 494.795 194.88 496.051 194.887C503.246 194.925 502.383 186.957 502.383 186.957C502.383 186.957 510.923 189.355 508.258 188.39C505.593 187.426 505.479 183.353 512.56 179.318C519.64 175.283 511.799 169.268 507.827 167.301Z" fill="#EBD59D"/>
<path d="M394 119H62V323H394V119Z" fill="#F2F2F2"/>
<path d="M77.7993 139.196C80.9072 139.196 83.4267 136.677 83.4267 133.569C83.4267 130.461 80.9072 127.941 77.7993 127.941C74.6914 127.941 72.1719 130.461 72.1719 133.569C72.1719 136.677 74.6914 139.196 77.7993 139.196Z" fill="#00D5E0"/>
<path d="M92.7016 139.196C95.8096 139.196 98.329 136.677 98.329 133.569C98.329 130.461 95.8096 127.941 92.7016 127.941C89.5937 127.941 87.0742 130.461 87.0742 133.569C87.0742 136.677 89.5937 139.196 92.7016 139.196Z" fill="#00D5E0"/>
<path d="M107.608 139.196C110.716 139.196 113.235 136.677 113.235 133.569C113.235 130.461 110.716 127.941 107.608 127.941C104.5 127.941 101.98 130.461 101.98 133.569C101.98 136.677 104.5 139.196 107.608 139.196Z" fill="#00D5E0"/>
<path d="M359.182 148.576H107.617V149.479H359.182V148.576Z" fill="#9B9B9B"/>
<path d="M183 161H93C87.4772 161 83 165.477 83 171V221.241C83 226.764 87.4771 231.241 93 231.241H183C188.523 231.241 193 226.764 193 221.241V171C193 165.477 188.523 161 183 161Z" fill="white"/>
<path d="M143.938 176.165C140.902 171.036 134.897 170.797 134.897 170.797C134.897 170.797 129.045 170.048 125.292 177.86C121.793 185.14 116.964 192.17 124.514 193.874L125.878 189.629L126.723 194.19C127.798 194.268 128.876 194.286 129.953 194.246C138.039 193.984 145.739 194.322 145.491 191.42C145.162 187.563 146.858 181.099 143.938 176.165Z" fill="#2F2E41"/>
<path d="M135.501 190.751C139.83 190.751 143.339 187.242 143.339 182.914C143.339 178.585 139.83 175.076 135.501 175.076C131.173 175.076 127.664 178.585 127.664 182.914C127.664 187.242 131.173 190.751 135.501 190.751Z" fill="#A0616A"/>
<path d="M132.297 188.019C132.297 188.019 135.859 196.331 131.109 197.994L135.859 213.669L143.934 213.194L146.072 207.969L145.597 200.131L144.884 194.907C144.884 194.907 139.897 196.094 140.372 187.307L132.297 188.019Z" fill="#A0616A"/>
<path d="M130.395 197.755C130.395 197.755 122.558 197.043 123.27 202.742C123.983 208.442 124.695 209.63 124.695 209.63L125.408 218.18L121.133 220.792H117.095C117.095 220.792 104.745 223.642 110.92 226.73C117.095 229.817 119.233 224.355 119.233 224.355C119.233 224.355 130.633 224.355 131.345 222.455C132.057 220.555 130.395 197.755 130.395 197.755Z" fill="#A0616A"/>
<path d="M145.594 195.381C145.594 195.381 152.956 192.768 153.431 198.468C153.906 204.168 153.906 204.643 153.906 204.643L155.331 212.718C155.331 212.718 158.181 219.843 158.181 221.98C158.181 224.118 160.318 230.768 160.318 230.768C160.318 230.768 163.168 240.03 160.081 239.792C156.994 239.555 156.519 229.818 156.519 229.818L150.106 216.993L148.206 209.155L145.594 195.381Z" fill="#A0616A"/>
<path d="M131.582 196.806H129.682L129.445 206.781C129.445 206.781 126.357 211.056 130.157 214.855L131.107 221.03L148.445 220.318L149.632 213.905C149.632 213.905 152.007 208.681 148.682 203.931L145.595 194.193H143.932C143.932 194.193 147.783 208.39 139.657 208.681C133.007 208.918 131.582 196.806 131.582 196.806Z" fill="#00D5E0"/>
<path d="M153.319 231.032H128.395C129.709 227.204 130.548 224.829 130.627 224.612C130.628 224.606 130.63 224.6 130.632 224.595L131.21 222.67L131.45 221.872L131.709 221.007L132.058 219.843L147.493 219.369L147.925 220.34L149.393 223.644C149.521 223.682 149.642 223.739 149.753 223.814C150.849 224.534 152.06 227.14 153.319 231.032Z" fill="#2F2E41"/>
<path d="M149.158 217.469L130.396 218.181C130.396 218.181 129.54 224.594 130.396 224.594C130.634 224.594 150.108 226.256 149.871 223.406C149.633 220.556 149.158 217.469 149.158 217.469Z" fill="#3F3D56"/>
<path d="M135.631 175.165C138.029 175.165 139.973 173.221 139.973 170.823C139.973 168.424 138.029 166.48 135.631 166.48C133.233 166.48 131.289 168.424 131.289 170.823C131.289 173.221 133.233 175.165 135.631 175.165Z" fill="#2F2E41"/>
<path d="M130.831 169.68C130.831 168.608 131.228 167.573 131.945 166.776C132.663 165.979 133.65 165.475 134.716 165.362C134.564 165.346 134.412 165.338 134.259 165.338C133.669 165.338 133.086 165.457 132.544 165.69C132.002 165.922 131.513 166.263 131.107 166.691C130.701 167.118 130.386 167.624 130.182 168.178C129.978 168.731 129.889 169.32 129.92 169.909C129.951 170.498 130.102 171.074 130.363 171.603C130.624 172.132 130.99 172.602 131.439 172.984C131.888 173.367 132.41 173.654 132.973 173.828C133.537 174.002 134.13 174.06 134.716 173.998C133.65 173.885 132.663 173.381 131.945 172.584C131.228 171.787 130.831 170.752 130.831 169.68Z" fill="#2F2E41"/>
<path d="M142.594 175.67L136.662 172.562L128.468 173.834L126.773 181.32L130.993 181.158L132.172 178.407V181.113L134.119 181.038L135.249 176.659L135.955 181.32L142.877 181.179L142.594 175.67Z" fill="#2F2E41"/>
<path d="M183 240H93C87.4772 240 83 244.477 83 250V300.241C83 305.764 87.4771 310.241 93 310.241H183C188.523 310.241 193 305.764 193 300.241V250C193 244.477 188.523 240 183 240Z" fill="white"/>
<path d="M130.926 265.024C135.29 265.024 138.828 261.486 138.828 257.121C138.828 252.757 135.29 249.219 130.926 249.219C126.562 249.219 123.023 252.757 123.023 257.121C123.023 261.486 126.562 265.024 130.926 265.024Z" fill="#FFB9B9"/>
<path d="M127.836 263.171C127.836 263.171 128.824 267.863 128.824 268.357C128.824 268.851 133.516 271.073 133.516 271.073L137.714 270.332L139.196 265.887C139.196 265.887 136.726 262.183 136.726 260.701L127.836 263.171Z" fill="#FFB9B9"/>
<path d="M149.133 310.032L150.151 308.168L150.313 307.87L148.337 286.88L148.455 285.931L150.558 268.853L138.379 264.57H138.377C138.353 265.646 137.99 266.688 137.34 267.545C136.69 268.403 135.785 269.034 134.755 269.347C131.05 270.58 128.5 266.429 128.5 266.429L118.207 274.285L123.207 288.783L125.618 295.769C125.618 295.769 125.863 303.919 126.111 304.661C126.357 305.401 125.863 305.649 125.618 305.895C125.369 306.143 125.863 306.882 126.111 306.882C126.234 306.882 126.48 307.809 126.697 308.735C126.809 309.209 126.912 309.683 126.985 310.032H149.133Z" fill="#00D5E0"/>
<path d="M168.462 308.734C168.462 308.734 175.129 312.933 174.389 315.649C173.648 318.365 165.992 310.957 165.992 310.71C165.992 310.463 168.462 308.734 168.462 308.734Z" fill="#FFB9B9"/>
<path d="M149.132 310.032H150.99L150.435 307.992C150.343 308.056 150.248 308.114 150.151 308.168C149.422 308.581 147.249 309.616 143.145 310.032C140.583 310.27 138.005 310.27 135.444 310.032C132.596 309.779 129.766 309.346 126.973 308.734H126.479L126.203 310.032H149.132Z" fill="#2F2E41"/>
<path d="M124.073 250.754C124.073 250.754 126.582 245.318 131.391 246.573C136.2 247.827 138.918 249.709 139.127 251.591C139.336 253.472 139.023 256.295 139.023 256.295C139.023 256.295 138.5 252.427 135.155 253.263C131.809 254.1 126.582 253.472 126.582 253.472L125.746 260.999C125.746 260.999 124.805 259.64 123.76 260.477C122.714 261.313 120.728 252.427 124.073 250.754Z" fill="#2F2E41"/>
<path d="M123.758 310.032H116.961L116.479 309.106C113.516 303.919 113.516 296.757 113.516 296.757L115.243 282.187C114.997 277 118.206 274.285 118.206 274.285H121.911L124.629 283.423L123.206 288.783L121.417 295.523L120.923 296.263C120.923 296.263 121.417 297.005 121.169 297.25C120.923 297.499 120.675 298.486 120.675 298.486C120.675 298.486 121.417 303.425 122.159 303.919C122.899 304.413 121.911 304.413 121.911 304.661C121.911 304.907 122.653 305.894 122.653 305.894V307.13L123.758 310.032Z" fill="#00D5E0"/>
<path d="M146.357 268.111L150.555 268.852C150.555 268.852 153.025 271.322 154.013 274.285L155.988 283.175L159.199 289.596C159.199 289.596 162.903 293.3 165.619 301.697L169.571 309.105L165.372 311.575C165.372 311.575 153.766 297.993 152.284 293.3L145.863 280.953L146.357 268.111Z" fill="#00D5E0"/>
<path d="M360 161H222C216.477 161 212 165.477 212 171V300C212 305.523 216.477 310 222 310H360C365.523 310 370 305.523 370 300V171C370 165.477 365.523 161 360 161Z" fill="#00D5E0"/>
<path d="M239.825 228.834L235.755 213.434H238.769L241.541 225.688L244.797 213.434H247.899L251.067 225.688L253.839 213.434H256.875L252.695 228.834H249.351L246.293 217.416L243.147 228.834H239.825ZM262.926 229.098C261.87 229.098 260.916 228.856 260.066 228.372C259.23 227.888 258.562 227.221 258.064 226.37C257.58 225.505 257.338 224.507 257.338 223.378C257.338 222.249 257.587 221.259 258.086 220.408C258.584 219.543 259.252 218.868 260.088 218.384C260.938 217.9 261.892 217.658 262.948 217.658C263.989 217.658 264.928 217.9 265.764 218.384C266.614 218.868 267.282 219.543 267.766 220.408C268.264 221.259 268.514 222.249 268.514 223.378C268.514 224.507 268.264 225.505 267.766 226.37C267.282 227.221 266.614 227.888 265.764 228.372C264.913 228.856 263.967 229.098 262.926 229.098ZM262.926 226.656C263.659 226.656 264.297 226.385 264.84 225.842C265.382 225.285 265.654 224.463 265.654 223.378C265.654 222.293 265.382 221.479 264.84 220.936C264.297 220.379 263.666 220.1 262.948 220.1C262.2 220.1 261.554 220.379 261.012 220.936C260.484 221.479 260.22 222.293 260.22 223.378C260.22 224.463 260.484 225.285 261.012 225.842C261.554 226.385 262.192 226.656 262.926 226.656ZM275.124 229.098C273.76 229.098 272.704 228.673 271.956 227.822C271.222 226.971 270.856 225.725 270.856 224.082V217.922H273.65V223.818C273.65 224.757 273.84 225.475 274.222 225.974C274.603 226.473 275.204 226.722 276.026 226.722C276.803 226.722 277.441 226.443 277.94 225.886C278.453 225.329 278.71 224.551 278.71 223.554V217.922H281.526V228.834H279.04L278.82 226.986C278.482 227.631 277.991 228.145 277.346 228.526C276.715 228.907 275.974 229.098 275.124 229.098ZM284.416 228.834V212.994H287.232V228.834H284.416ZM295.126 229.098C294.099 229.098 293.182 228.849 292.376 228.35C291.569 227.851 290.931 227.169 290.462 226.304C289.992 225.439 289.758 224.456 289.758 223.356C289.758 222.256 289.992 221.281 290.462 220.43C290.931 219.565 291.569 218.89 292.376 218.406C293.182 217.907 294.099 217.658 295.126 217.658C295.947 217.658 296.666 217.812 297.282 218.12C297.898 218.428 298.396 218.861 298.778 219.418V212.994H301.594V228.834H299.086L298.778 227.272C298.426 227.756 297.956 228.181 297.37 228.548C296.798 228.915 296.05 229.098 295.126 229.098ZM295.72 226.634C296.629 226.634 297.37 226.333 297.942 225.732C298.528 225.116 298.822 224.331 298.822 223.378C298.822 222.425 298.528 221.647 297.942 221.046C297.37 220.43 296.629 220.122 295.72 220.122C294.825 220.122 294.084 220.423 293.498 221.024C292.911 221.625 292.618 222.403 292.618 223.356C292.618 224.309 292.911 225.094 293.498 225.71C294.084 226.326 294.825 226.634 295.72 226.634ZM313.751 228.834V223.356L308.581 213.434H311.771L315.181 220.54L318.569 213.434H321.715L316.567 223.356V228.834H313.751ZM326.734 229.098C325.678 229.098 324.725 228.856 323.874 228.372C323.038 227.888 322.371 227.221 321.872 226.37C321.388 225.505 321.146 224.507 321.146 223.378C321.146 222.249 321.396 221.259 321.894 220.408C322.393 219.543 323.06 218.868 323.896 218.384C324.747 217.9 325.7 217.658 326.756 217.658C327.798 217.658 328.736 217.9 329.572 218.384C330.423 218.868 331.09 219.543 331.574 220.408C332.073 221.259 332.322 222.249 332.322 223.378C332.322 224.507 332.073 225.505 331.574 226.37C331.09 227.221 330.423 227.888 329.572 228.372C328.722 228.856 327.776 229.098 326.734 229.098ZM326.734 226.656C327.468 226.656 328.106 226.385 328.648 225.842C329.191 225.285 329.462 224.463 329.462 223.378C329.462 222.293 329.191 221.479 328.648 220.936C328.106 220.379 327.475 220.1 326.756 220.1C326.008 220.1 325.363 220.379 324.82 220.936C324.292 221.479 324.028 222.293 324.028 223.378C324.028 224.463 324.292 225.285 324.82 225.842C325.363 226.385 326.001 226.656 326.734 226.656ZM338.932 229.098C337.568 229.098 336.512 228.673 335.764 227.822C335.031 226.971 334.664 225.725 334.664 224.082V217.922H337.458V223.818C337.458 224.757 337.649 225.475 338.03 225.974C338.411 226.473 339.013 226.722 339.834 226.722C340.611 226.722 341.249 226.443 341.748 225.886C342.261 225.329 342.518 224.551 342.518 223.554V217.922H345.334V228.834H342.848L342.628 226.986C342.291 227.631 341.799 228.145 341.154 228.526C340.523 228.907 339.783 229.098 338.932 229.098ZM257.315 257.834V242.434H262.969C264.201 242.434 265.213 242.647 266.005 243.072C266.812 243.483 267.413 244.047 267.809 244.766C268.205 245.47 268.403 246.255 268.403 247.12C268.403 248.059 268.154 248.917 267.655 249.694C267.171 250.471 266.409 251.036 265.367 251.388L268.557 257.834H265.323L262.463 251.762H260.131V257.834H257.315ZM260.131 249.694H262.793C263.732 249.694 264.421 249.467 264.861 249.012C265.301 248.557 265.521 247.956 265.521 247.208C265.521 246.475 265.301 245.888 264.861 245.448C264.436 245.008 263.739 244.788 262.771 244.788H260.131V249.694ZM274.31 258.098C273.371 258.098 272.601 257.951 272 257.658C271.399 257.35 270.951 256.947 270.658 256.448C270.365 255.949 270.218 255.399 270.218 254.798C270.218 253.786 270.614 252.965 271.406 252.334C272.198 251.703 273.386 251.388 274.97 251.388H277.742V251.124C277.742 250.376 277.529 249.826 277.104 249.474C276.679 249.122 276.151 248.946 275.52 248.946C274.948 248.946 274.449 249.085 274.024 249.364C273.599 249.628 273.335 250.024 273.232 250.552H270.482C270.555 249.76 270.819 249.071 271.274 248.484C271.743 247.897 272.345 247.45 273.078 247.142C273.811 246.819 274.633 246.658 275.542 246.658C277.097 246.658 278.321 247.047 279.216 247.824C280.111 248.601 280.558 249.701 280.558 251.124V257.834H278.16L277.896 256.074C277.573 256.661 277.119 257.145 276.532 257.526C275.96 257.907 275.219 258.098 274.31 258.098ZM274.948 255.898C275.755 255.898 276.378 255.634 276.818 255.106C277.273 254.578 277.559 253.925 277.676 253.148H275.278C274.53 253.148 273.995 253.287 273.672 253.566C273.349 253.83 273.188 254.16 273.188 254.556C273.188 254.981 273.349 255.311 273.672 255.546C273.995 255.781 274.42 255.898 274.948 255.898ZM287.957 257.834C286.813 257.834 285.896 257.555 285.207 256.998C284.518 256.441 284.173 255.451 284.173 254.028V249.276H282.303V246.922H284.173L284.503 243.996H286.989V246.922H289.937V249.276H286.989V254.05C286.989 254.578 287.099 254.945 287.319 255.15C287.554 255.341 287.95 255.436 288.507 255.436H289.871V257.834H287.957ZM292.355 257.834V241.994H295.171V248.594C295.537 247.993 296.029 247.523 296.645 247.186C297.275 246.834 297.994 246.658 298.801 246.658C300.15 246.658 301.191 247.083 301.925 247.934C302.673 248.785 303.047 250.031 303.047 251.674V257.834H300.253V251.938C300.253 250.999 300.062 250.281 299.681 249.782C299.314 249.283 298.727 249.034 297.921 249.034C297.129 249.034 296.469 249.313 295.941 249.87C295.427 250.427 295.171 251.205 295.171 252.202V257.834H292.355ZM311.042 258.098C309.942 258.098 308.966 257.863 308.116 257.394C307.265 256.925 306.598 256.265 306.114 255.414C305.63 254.563 305.388 253.581 305.388 252.466C305.388 251.337 305.622 250.332 306.092 249.452C306.576 248.572 307.236 247.89 308.072 247.406C308.922 246.907 309.92 246.658 311.064 246.658C312.134 246.658 313.08 246.893 313.902 247.362C314.723 247.831 315.361 248.477 315.816 249.298C316.285 250.105 316.52 251.007 316.52 252.004C316.52 252.165 316.512 252.334 316.498 252.51C316.498 252.686 316.49 252.869 316.476 253.06H308.182C308.24 253.911 308.534 254.578 309.062 255.062C309.604 255.546 310.257 255.788 311.02 255.788C311.592 255.788 312.068 255.663 312.45 255.414C312.846 255.15 313.139 254.813 313.33 254.402H316.19C315.984 255.091 315.64 255.722 315.156 256.294C314.686 256.851 314.1 257.291 313.396 257.614C312.706 257.937 311.922 258.098 311.042 258.098ZM311.064 248.946C310.374 248.946 309.766 249.144 309.238 249.54C308.71 249.921 308.372 250.508 308.226 251.3H313.66C313.616 250.581 313.352 250.009 312.868 249.584C312.384 249.159 311.782 248.946 311.064 248.946ZM318.888 257.834V246.922H321.396L321.66 248.968C322.056 248.264 322.591 247.707 323.266 247.296C323.955 246.871 324.762 246.658 325.686 246.658V249.628H324.894C324.278 249.628 323.728 249.723 323.244 249.914C322.76 250.105 322.379 250.435 322.1 250.904C321.836 251.373 321.704 252.026 321.704 252.862V257.834H318.888Z" fill="white"/>
</svg>
