<svg width="466" height="321" viewBox="0 0 466 321" fill="none" xmlns="http://www.w3.org/2000/svg">
<path d="M384.122 285.883L384.573 296.723V306.207H396.316V285.883H384.122Z" fill="#FFB9B9"/>
<path d="M448.707 275.947L449.158 286.787V296.271H460.901L458.643 274.141L448.707 275.947Z" fill="#FFB9B9"/>
<path d="M436.964 100.258L433.351 128.712L421.608 162.585L416.188 143.164L422.963 130.97L421.608 105.226L436.964 100.258Z" fill="#FFB9B9"/>
<path d="M380.509 97.5486C380.509 97.5486 370.573 115.163 371.928 116.969C373.282 118.776 374.186 128.712 374.186 128.712H377.946L384.122 113.356L380.509 97.5486Z" fill="#3A359E"/>
<path d="M405.123 50.8036C413.853 50.8036 420.931 43.7263 420.931 34.9961C420.931 26.2658 413.853 19.1886 405.123 19.1886C396.393 19.1886 389.316 26.2658 389.316 34.9961C389.316 43.7263 396.393 50.8036 405.123 50.8036Z" fill="#FFB9B9"/>
<path d="M399.252 47.642C399.252 47.642 407.833 59.3847 405.123 65.2561C402.413 71.1274 431.318 62.0946 431.318 62.0946C431.318 62.0946 416.866 45.8355 416.414 40.4158L399.252 47.642Z" fill="#FFB9B9"/>
<path d="M431.318 100.033C430.302 101.559 429.304 103.262 428.337 105.059C427.881 105.913 427.434 106.789 426.992 107.674C421.744 118.252 417.769 130.744 417.769 130.744L375.766 129.389L377.072 125.559L382.993 108.162C372.605 101.839 382.541 89.6448 387.961 78.3537C392.938 67.984 403.253 61.0875 404.897 60.0306C405.046 59.9403 405.123 59.8906 405.123 59.8906L405.313 59.859L412.851 58.5899L426.427 56.3046H426.432C428.817 56.7058 431.102 57.5647 433.161 58.8338C434.878 59.9168 436.33 61.3706 437.411 63.0883C439.059 65.7078 439.832 68.8602 439.972 72.234C440.378 82.1114 435.392 93.9218 431.318 100.033Z" fill="#61D1DB"/>
<path d="M433.802 62.7721C433.802 62.7721 441.932 72.2566 442.384 80.3861C442.835 88.5157 441.029 103.872 436.964 103.872C432.899 103.872 425.673 106.581 426.124 103.872C426.576 101.162 433.802 62.7721 433.802 62.7721Z" fill="#61D1DB"/>
<path d="M426.124 79.9346L421.156 80.8379C419.472 67.3473 409.725 61.9141 404.897 60.0307C405.046 59.9404 405.123 59.8907 405.123 59.8907L405.313 59.8591L412.851 58.59C422.809 63.7251 426.124 79.9346 426.124 79.9346Z" fill="#3A359E"/>
<path d="M459.998 274.141C459.546 276.851 446.449 281.819 442.835 281.367C439.222 280.915 403.543 193.748 403.543 193.748C403.543 193.748 403.543 290.851 402.639 292.658C401.736 294.465 386.38 292.658 380.96 286.335C375.541 280.012 371.928 181.102 369.669 164.392C367.411 147.681 374.186 126.002 374.186 126.002L377.072 125.559L385.928 124.195C385.928 124.195 385.928 121.937 399.478 111.098C413.027 100.258 421.157 80.8378 421.157 80.8378L422.511 78.1279L426.125 79.9345C430 72.7669 432.425 65.7213 433.161 58.8337C434.878 59.9168 436.33 61.3705 437.411 63.0882C437.068 64.0367 436.725 65.0619 436.372 66.1594C433.328 75.6394 429.878 90.3223 426.445 104.779C426.337 105.231 426.233 105.683 426.125 106.13C426.451 106.622 426.741 107.139 426.992 107.674C427.904 109.603 428.871 112.882 426.125 114.711C422.06 117.421 420.705 130.97 420.705 130.97C428.383 137.745 430.189 169.811 429.286 172.07C428.383 174.328 428.383 173.876 430.641 175.231C432.899 176.586 432.899 187.877 432.899 187.877C432.899 187.877 460.449 271.431 459.998 274.141Z" fill="#3A359E"/>
<path d="M390.896 300.788C390.896 300.788 388.187 303.497 386.38 302.142C384.573 300.788 384.503 295.024 384.503 295.024C384.503 295.024 363.798 293.11 367.863 306.659C371.928 320.208 400.381 322.015 401.284 319.305C402.188 316.595 398.123 299.433 398.123 299.433L390.896 300.788Z" fill="#2F2E41"/>
<path d="M455.481 290.851C455.481 290.851 452.771 293.561 450.965 292.206C449.158 290.851 449.087 285.087 449.087 285.087C449.087 285.087 428.383 283.173 432.447 296.723C436.512 310.272 464.966 312.079 465.869 309.369C466.772 306.659 462.707 289.496 462.707 289.496L455.481 290.851Z" fill="#2F2E41"/>
<path d="M392.251 89.8706L390.445 113.808L367.411 139.551C367.411 139.551 359.733 143.164 364.249 149.487C368.766 155.81 370.572 156.262 370.572 156.262L371.024 148.132L402.187 123.292L405.349 89.8706H392.251Z" fill="#FFB9B9"/>
<path d="M406.704 79.9345C406.704 79.9345 408.511 59.6106 399.478 61.4171C390.445 63.2237 389.993 71.8049 389.993 71.8049C389.993 71.8049 385.928 92.5805 389.541 93.4837C393.155 94.387 405.349 96.1936 406.704 93.4837C408.059 90.7739 406.704 79.9345 406.704 79.9345Z" fill="#61D1DB"/>
<path d="M445.828 48.301C444.069 47.4299 440.185 45.6719 436.876 43.5539C437.108 36.6637 436.26 30.4088 433.776 27.0933C432.382 23.9278 429.454 20.7587 427.162 18.2629C421.531 12.1339 409.08 8.71274 406.872 11.775C390.169 12.1048 388.411 25.1968 388.411 25.1968C388.498 30.6729 394.189 30.8462 399.175 30.6467C398.729 34.3851 399.918 38.2696 403.364 39.9923C409.952 43.2866 411.929 47.5691 408.635 50.534C405.34 53.4988 399.411 61.4051 407.317 63.3816C415.223 65.3581 416.211 69.3113 413.905 70.9584C411.599 72.6056 419.176 67.9936 419.176 67.9936C419.176 67.9936 420.494 75.8999 427.412 73.9233C428.138 73.6661 428.777 73.2127 429.261 72.6135C431.129 74.6664 432.796 75.8802 434.052 75.8869C441.247 75.925 440.384 67.9563 440.384 67.9563C440.384 67.9563 448.924 70.3546 446.259 69.3902C443.594 68.4258 443.48 64.3526 450.561 60.3176C457.641 56.2826 449.8 50.2678 445.828 48.301Z" fill="#EBD59D"/>
<path d="M331.957 0.451782H0.45166V189.226H331.957V0.451782Z" fill="#F2F2F2"/>
<path d="M15.799 20.1957C18.907 20.1957 21.4264 17.6763 21.4264 14.5683C21.4264 11.4604 18.907 8.94092 15.799 8.94092C12.6911 8.94092 10.1716 11.4604 10.1716 14.5683C10.1716 17.6763 12.6911 20.1957 15.799 20.1957Z" fill="#61D1DB"/>
<path d="M30.7033 20.1957C33.8113 20.1957 36.3307 17.6763 36.3307 14.5683C36.3307 11.4604 33.8113 8.94092 30.7033 8.94092C27.5954 8.94092 25.0759 11.4604 25.0759 14.5683C25.0759 17.6763 27.5954 20.1957 30.7033 20.1957Z" fill="#61D1DB"/>
<path d="M45.6074 20.1957C48.7153 20.1957 51.2348 17.6763 51.2348 14.5683C51.2348 11.4604 48.7153 8.94092 45.6074 8.94092C42.4995 8.94092 39.98 11.4604 39.98 14.5683C39.98 17.6763 42.4995 20.1957 45.6074 20.1957Z" fill="#61D1DB"/>
<path d="M297.181 29.5764H45.616V30.4797H297.181V29.5764Z" fill="#9B9B9B"/>
<path d="M119 47H36V100H119V47Z" fill="white"/>
<path d="M81.9801 58.4427C79.6898 54.5728 75.1586 54.3924 75.1586 54.3924C75.1586 54.3924 70.7432 53.8278 67.9108 59.7217C65.2707 65.2153 61.6271 70.5195 67.3242 71.8055L68.3533 68.6026L68.9905 72.044C69.8017 72.1023 70.6154 72.1162 71.4281 72.0856C77.5292 71.8886 83.3396 72.1432 83.1525 69.9539C82.9038 67.0435 84.1838 62.1663 81.9801 58.4427Z" fill="#2F2E41"/>
<path d="M75.6148 69.4481C78.8808 69.4481 81.5285 66.8005 81.5285 63.5345C81.5285 60.2685 78.8808 57.6208 75.6148 57.6208C72.3488 57.6208 69.7012 60.2685 69.7012 63.5345C69.7012 66.8005 72.3488 69.4481 75.6148 69.4481Z" fill="#A0616A"/>
<path d="M73.1958 67.3872C73.1958 67.3872 75.8838 73.6593 72.2998 74.9137L75.8838 86.741L81.9767 86.3825L83.5895 82.4401L83.2311 76.5265L82.6935 72.584C82.6935 72.584 78.9302 73.4801 79.2887 66.8496L73.1958 67.3872Z" fill="#A0616A"/>
<path d="M71.7618 74.7345C71.7618 74.7345 65.8481 74.1969 66.3857 78.4977C66.9233 82.7986 67.4609 83.6946 67.4609 83.6946L67.9986 90.1458L64.7729 92.117H61.7265C61.7265 92.117 52.408 94.2675 57.0673 96.5971C61.7265 98.9267 63.3393 94.8051 63.3393 94.8051C63.3393 94.8051 71.941 94.8051 72.4786 93.3715C73.0162 91.9378 71.7618 74.7345 71.7618 74.7345Z" fill="#A0616A"/>
<path d="M83.2307 72.9425C83.2307 72.9425 88.786 70.9712 89.1444 75.2721C89.5028 79.5729 89.5028 79.9313 89.5028 79.9313L90.578 86.0242C90.578 86.0242 92.7284 91.4002 92.7284 93.013C92.7284 94.6258 94.3412 99.6434 94.3412 99.6434C94.3412 99.6434 96.4916 106.632 94.162 106.453C91.8324 106.274 91.474 98.9266 91.474 98.9266L86.6355 89.2498L85.2019 83.3361L83.2307 72.9425Z" fill="#A0616A"/>
<path d="M72.6579 74.0177H71.2243L71.0451 81.5442C71.0451 81.5442 68.7155 84.7698 71.5827 87.637L72.2995 92.2962L85.3812 91.7586L86.2772 86.9202C86.2772 86.9202 88.0692 82.9778 85.5604 79.3938L83.2308 72.0465H81.9764C81.9764 72.0465 84.8817 82.7588 78.7508 82.9778C73.7331 83.157 72.6579 74.0177 72.6579 74.0177Z" fill="#61D1DB"/>
<path d="M89.0592 99.8421H70.2529C71.2445 96.9537 71.8782 95.1621 71.9371 94.9979C71.9381 94.9936 71.9395 94.9893 71.9414 94.9853L72.3771 93.5326L72.5582 92.9305L72.754 92.2779L73.0171 91.4L84.6635 91.0421L84.9898 91.7747L86.0971 94.2674C86.1937 94.2961 86.2853 94.3394 86.3687 94.3958C87.1961 94.9389 88.1098 96.9053 89.0592 99.8421Z" fill="#2F2E41"/>
<path d="M85.9187 89.6082L71.7618 90.1458C71.7618 90.1458 71.1157 94.9842 71.7618 94.9842C71.941 94.9842 86.6355 96.2386 86.4563 94.0882C86.2771 91.9378 85.9187 89.6082 85.9187 89.6082Z" fill="#3F3D56"/>
<path d="M75.7128 57.6883C77.5223 57.6883 78.9891 56.2215 78.9891 54.412C78.9891 52.6026 77.5223 51.1357 75.7128 51.1357C73.9034 51.1357 72.4365 52.6026 72.4365 54.412C72.4365 56.2215 73.9034 57.6883 75.7128 57.6883Z" fill="#2F2E41"/>
<path d="M72.0917 53.5499C72.0918 52.7407 72.3913 51.9602 72.9325 51.3587C73.4738 50.7571 74.2185 50.3772 75.0231 50.292C74.9086 50.2798 74.7935 50.2737 74.6783 50.2736C74.2333 50.2733 73.7929 50.3636 73.384 50.5391C72.9751 50.7146 72.6063 50.9716 72.2999 51.2943C71.9936 51.617 71.7562 51.9988 71.6023 52.4162C71.4483 52.8337 71.381 53.2782 71.4045 53.7225C71.4279 54.1669 71.5416 54.6018 71.7387 55.0007C71.9357 55.3997 72.212 55.7543 72.5506 56.043C72.8892 56.3317 73.2831 56.5484 73.7082 56.6799C74.1332 56.8113 74.5807 56.8548 75.0231 56.8077C74.2185 56.7225 73.4738 56.3426 72.9325 55.741C72.3913 55.1395 72.0918 54.359 72.0917 53.5499Z" fill="#2F2E41"/>
<path d="M80.9673 58.0697L76.4908 55.7249L70.3087 56.684L69.0298 62.3331L72.2136 62.2107L73.103 60.1352V62.1764L74.5723 62.12L75.4249 58.8158L75.9578 62.3331L81.1805 62.2265L80.9673 58.0697Z" fill="#2F2E41"/>
<path d="M119 111H36V164H119V111Z" fill="white"/>
<path d="M72.1615 129.881C75.4547 129.881 78.1243 127.212 78.1243 123.919C78.1243 120.626 75.4547 117.956 72.1615 117.956C68.8684 117.956 66.1987 120.626 66.1987 123.919C66.1987 127.212 68.8684 129.881 72.1615 129.881Z" fill="#FFB9B9"/>
<path d="M69.8323 128.484C69.8323 128.484 70.5776 132.024 70.5776 132.397C70.5776 132.77 74.118 134.447 74.118 134.447L77.2858 133.888L78.4038 130.534C78.4038 130.534 76.5404 127.739 76.5404 126.621L69.8323 128.484Z" fill="#FFB9B9"/>
<path d="M85.8992 163.842L86.6676 162.436L86.7897 162.211L85.2992 146.373L85.3876 145.657L86.9749 132.771L77.7855 129.539H77.7834C77.7655 130.351 77.4917 131.137 77.001 131.784C76.5103 132.431 75.8278 132.907 75.0507 133.143C72.255 134.074 70.3308 130.941 70.3308 130.941L62.5645 136.87L66.3371 147.808L68.156 153.08C68.156 153.08 68.3413 159.23 68.5287 159.79C68.7139 160.347 68.3413 160.535 68.156 160.72C67.9687 160.907 68.3413 161.465 68.5287 161.465C68.6213 161.465 68.8066 162.164 68.9708 162.863C69.055 163.221 69.1329 163.579 69.1876 163.842H85.8992Z" fill="#61D1DB"/>
<path d="M100.485 162.863C100.485 162.863 105.516 166.031 104.957 168.08C104.398 170.13 98.6213 164.54 98.6213 164.354C98.6213 164.167 100.485 162.863 100.485 162.863Z" fill="#FFB9B9"/>
<path d="M85.8992 163.842H87.3013L86.8823 162.303C86.813 162.351 86.7414 162.395 86.6676 162.436C86.1181 162.747 84.4781 163.528 81.3813 163.842C79.4486 164.022 77.5034 164.022 75.5708 163.842C73.4216 163.652 71.2868 163.325 69.1792 162.863H68.8066L68.5981 163.842H85.8992Z" fill="#2F2E41"/>
<path d="M66.9905 119.115C66.9905 119.115 68.8836 115.013 72.5122 115.959C76.1407 116.906 78.1917 118.326 78.3494 119.746C78.5072 121.166 78.2705 123.295 78.2705 123.295C78.2705 123.295 77.8761 120.377 75.3519 121.008C72.8277 121.639 68.8836 121.166 68.8836 121.166L68.2526 126.845C68.2526 126.845 67.5427 125.82 66.7538 126.451C65.965 127.082 64.4663 120.377 66.9905 119.115Z" fill="#2F2E41"/>
<path d="M66.7538 163.842H61.6254L61.2612 163.143C59.0254 159.229 59.0254 153.825 59.0254 153.825L60.3285 142.832C60.1433 138.918 62.5643 136.87 62.5643 136.87H65.3601L67.4106 143.764L66.337 147.808L64.9875 152.895L64.6149 153.453C64.6149 153.453 64.9875 154.013 64.8001 154.198C64.6149 154.385 64.4275 155.131 64.4275 155.131C64.4275 155.131 64.9875 158.857 65.5475 159.229C66.1054 159.602 65.3601 159.602 65.3601 159.789C65.3601 159.975 65.9201 160.72 65.9201 160.72V161.653L66.7538 163.842Z" fill="#61D1DB"/>
<path d="M83.8075 132.211L86.9752 132.77C86.9752 132.77 88.8386 134.633 89.5839 136.869L91.0746 143.577L93.497 148.422C93.497 148.422 96.292 151.217 98.3417 157.552L101.323 163.143L98.1554 165.006C98.1554 165.006 89.3976 154.757 88.2796 151.217L83.4348 141.9L83.8075 132.211Z" fill="#61D1DB"/>
<path d="M295 47H142C136.477 47 132 51.4772 132 57V154C132 159.523 136.477 164 142 164H295C300.523 164 305 159.523 305 154V57C305 51.4772 300.523 47 295 47Z" fill="#61D1DB"/>
<path d="M153.122 97.4999L147.942 77.8999H151.778L155.306 93.4959L159.45 77.8999H163.398L167.43 93.4959L170.958 77.8999H174.822L169.502 97.4999H165.246L161.354 82.9679L157.35 97.4999H153.122ZM182.523 97.8359C181.179 97.8359 179.965 97.5279 178.883 96.9119C177.819 96.2959 176.969 95.4465 176.335 94.3639C175.719 93.2625 175.411 91.9932 175.411 90.5559C175.411 89.1185 175.728 87.8585 176.363 86.7759C176.997 85.6745 177.847 84.8159 178.911 84.1999C179.993 83.5839 181.207 83.2759 182.551 83.2759C183.876 83.2759 185.071 83.5839 186.135 84.1999C187.217 84.8159 188.067 85.6745 188.683 86.7759C189.317 87.8585 189.635 89.1185 189.635 90.5559C189.635 91.9932 189.317 93.2625 188.683 94.3639C188.067 95.4465 187.217 96.2959 186.135 96.9119C185.052 97.5279 183.848 97.8359 182.523 97.8359ZM182.523 94.7279C183.456 94.7279 184.268 94.3825 184.959 93.6919C185.649 92.9825 185.995 91.9372 185.995 90.5559C185.995 89.1745 185.649 88.1385 184.959 87.4479C184.268 86.7385 183.465 86.3839 182.551 86.3839C181.599 86.3839 180.777 86.7385 180.087 87.4479C179.415 88.1385 179.079 89.1745 179.079 90.5559C179.079 91.9372 179.415 92.9825 180.087 93.6919C180.777 94.3825 181.589 94.7279 182.523 94.7279ZM198.047 97.8359C196.311 97.8359 194.967 97.2945 194.015 96.2119C193.082 95.1292 192.615 93.5425 192.615 91.4519V83.6119H196.171V91.1159C196.171 92.3105 196.414 93.2252 196.899 93.8599C197.385 94.4945 198.15 94.8119 199.195 94.8119C200.185 94.8119 200.997 94.4572 201.631 93.7479C202.285 93.0385 202.611 92.0492 202.611 90.7799V83.6119H206.195V97.4999H203.031L202.751 95.1479C202.322 95.9692 201.697 96.6225 200.875 97.1079C200.073 97.5932 199.13 97.8359 198.047 97.8359ZM209.874 97.4999V77.3399H213.458V97.4999H209.874ZM223.504 97.8359C222.198 97.8359 221.031 97.5185 220.004 96.8839C218.978 96.2492 218.166 95.3812 217.568 94.2799C216.971 93.1785 216.672 91.9279 216.672 90.5279C216.672 89.1279 216.971 87.8865 217.568 86.8039C218.166 85.7025 218.978 84.8439 220.004 84.2279C221.031 83.5932 222.198 83.2759 223.504 83.2759C224.55 83.2759 225.464 83.4719 226.248 83.8639C227.032 84.2559 227.667 84.8065 228.152 85.5159V77.3399H231.736V97.4999H228.544L228.152 95.5119C227.704 96.1279 227.107 96.6692 226.36 97.1359C225.632 97.6025 224.68 97.8359 223.504 97.8359ZM224.26 94.6999C225.418 94.6999 226.36 94.3172 227.088 93.5519C227.835 92.7679 228.208 91.7692 228.208 90.5559C228.208 89.3425 227.835 88.3532 227.088 87.5879C226.36 86.8039 225.418 86.4119 224.26 86.4119C223.122 86.4119 222.179 86.7945 221.432 87.5599C220.686 88.3252 220.312 89.3145 220.312 90.5279C220.312 91.7412 220.686 92.7399 221.432 93.5239C222.179 94.3079 223.122 94.6999 224.26 94.6999ZM243.794 103.66L247.014 96.5759H246.174L240.77 83.6119H244.662L248.554 93.3839L252.614 83.6119H256.422L247.602 103.66H243.794ZM264.226 97.8359C262.882 97.8359 261.669 97.5279 260.586 96.9119C259.522 96.2959 258.673 95.4465 258.038 94.3639C257.422 93.2625 257.114 91.9932 257.114 90.5559C257.114 89.1185 257.431 87.8585 258.066 86.7759C258.701 85.6745 259.55 84.8159 260.614 84.1999C261.697 83.5839 262.91 83.2759 264.254 83.2759C265.579 83.2759 266.774 83.5839 267.838 84.1999C268.921 84.8159 269.77 85.6745 270.386 86.7759C271.021 87.8585 271.338 89.1185 271.338 90.5559C271.338 91.9932 271.021 93.2625 270.386 94.3639C269.77 95.4465 268.921 96.2959 267.838 96.9119C266.755 97.5279 265.551 97.8359 264.226 97.8359ZM264.226 94.7279C265.159 94.7279 265.971 94.3825 266.662 93.6919C267.353 92.9825 267.698 91.9372 267.698 90.5559C267.698 89.1745 267.353 88.1385 266.662 87.4479C265.971 86.7385 265.169 86.3839 264.254 86.3839C263.302 86.3839 262.481 86.7385 261.79 87.4479C261.118 88.1385 260.782 89.1745 260.782 90.5559C260.782 91.9372 261.118 92.9825 261.79 93.6919C262.481 94.3825 263.293 94.7279 264.226 94.7279ZM279.75 97.8359C278.014 97.8359 276.67 97.2945 275.718 96.2119C274.785 95.1292 274.318 93.5425 274.318 91.4519V83.6119H277.874V91.1159C277.874 92.3105 278.117 93.2252 278.602 93.8599C279.088 94.4945 279.853 94.8119 280.898 94.8119C281.888 94.8119 282.7 94.4572 283.334 93.7479C283.988 93.0385 284.314 92.0492 284.314 90.7799V83.6119H287.898V97.4999H284.734L284.454 95.1479C284.025 95.9692 283.4 96.6225 282.578 97.1079C281.776 97.5932 280.833 97.8359 279.75 97.8359ZM174.314 133.5V119.612H177.506L177.842 122.216C178.346 121.32 179.027 120.611 179.886 120.088C180.763 119.547 181.79 119.276 182.966 119.276V123.056H181.958C181.174 123.056 180.474 123.177 179.858 123.42C179.242 123.663 178.756 124.083 178.402 124.68C178.066 125.277 177.898 126.108 177.898 127.172V133.5H174.314ZM190.203 133.836C189.009 133.836 188.029 133.649 187.263 133.276C186.498 132.884 185.929 132.371 185.555 131.736C185.182 131.101 184.995 130.401 184.995 129.636C184.995 128.348 185.499 127.303 186.507 126.5C187.515 125.697 189.027 125.296 191.043 125.296H194.571V124.96C194.571 124.008 194.301 123.308 193.759 122.86C193.218 122.412 192.546 122.188 191.743 122.188C191.015 122.188 190.381 122.365 189.839 122.72C189.298 123.056 188.962 123.56 188.831 124.232H185.331C185.425 123.224 185.761 122.347 186.339 121.6C186.937 120.853 187.702 120.284 188.635 119.892C189.569 119.481 190.614 119.276 191.771 119.276C193.75 119.276 195.309 119.771 196.447 120.76C197.586 121.749 198.155 123.149 198.155 124.96V133.5H195.103L194.767 131.26C194.357 132.007 193.778 132.623 193.031 133.108C192.303 133.593 191.361 133.836 190.203 133.836ZM191.015 131.036C192.042 131.036 192.835 130.7 193.395 130.028C193.974 129.356 194.338 128.525 194.487 127.536H191.435C190.483 127.536 189.802 127.713 189.391 128.068C188.981 128.404 188.775 128.824 188.775 129.328C188.775 129.869 188.981 130.289 189.391 130.588C189.802 130.887 190.343 131.036 191.015 131.036ZM207.572 133.5C206.116 133.5 204.949 133.145 204.072 132.436C203.195 131.727 202.756 130.467 202.756 128.656V122.608H200.376V119.612H202.756L203.176 115.888H206.34V119.612H210.092V122.608H206.34V128.684C206.34 129.356 206.48 129.823 206.76 130.084C207.059 130.327 207.563 130.448 208.272 130.448H210.008V133.5H207.572ZM213.169 133.5V113.34H216.753V121.74C217.22 120.975 217.845 120.377 218.629 119.948C219.432 119.5 220.347 119.276 221.373 119.276C223.091 119.276 224.416 119.817 225.349 120.9C226.301 121.983 226.777 123.569 226.777 125.66V133.5H223.221V125.996C223.221 124.801 222.979 123.887 222.493 123.252C222.027 122.617 221.28 122.3 220.253 122.3C219.245 122.3 218.405 122.655 217.733 123.364C217.08 124.073 216.753 125.063 216.753 126.332V133.5H213.169ZM236.952 133.836C235.552 133.836 234.311 133.537 233.228 132.94C232.146 132.343 231.296 131.503 230.68 130.42C230.064 129.337 229.756 128.087 229.756 126.668C229.756 125.231 230.055 123.952 230.652 122.832C231.268 121.712 232.108 120.844 233.172 120.228C234.255 119.593 235.524 119.276 236.98 119.276C238.343 119.276 239.547 119.575 240.592 120.172C241.638 120.769 242.45 121.591 243.028 122.636C243.626 123.663 243.924 124.811 243.924 126.08C243.924 126.285 243.915 126.5 243.896 126.724C243.896 126.948 243.887 127.181 243.868 127.424H233.312C233.387 128.507 233.76 129.356 234.432 129.972C235.123 130.588 235.954 130.896 236.924 130.896C237.652 130.896 238.259 130.737 238.744 130.42C239.248 130.084 239.622 129.655 239.864 129.132H243.504C243.243 130.009 242.804 130.812 242.188 131.54C241.591 132.249 240.844 132.809 239.948 133.22C239.071 133.631 238.072 133.836 236.952 133.836ZM236.98 122.188C236.103 122.188 235.328 122.44 234.656 122.944C233.984 123.429 233.555 124.176 233.368 125.184H240.284C240.228 124.269 239.892 123.541 239.276 123C238.66 122.459 237.895 122.188 236.98 122.188ZM246.939 133.5V119.612H250.131L250.467 122.216C250.971 121.32 251.652 120.611 252.511 120.088C253.388 119.547 254.415 119.276 255.591 119.276V123.056H254.583C253.799 123.056 253.099 123.177 252.483 123.42C251.867 123.663 251.381 124.083 251.027 124.68C250.691 125.277 250.523 126.108 250.523 127.172V133.5H246.939ZM258.796 127.312L258.404 113.9H262.24L261.82 127.312H258.796ZM260.392 133.696C259.72 133.696 259.17 133.491 258.74 133.08C258.33 132.669 258.124 132.175 258.124 131.596C258.124 130.999 258.33 130.495 258.74 130.084C259.17 129.673 259.72 129.468 260.392 129.468C261.027 129.468 261.55 129.673 261.96 130.084C262.39 130.495 262.604 130.999 262.604 131.596C262.604 132.175 262.39 132.669 261.96 133.08C261.55 133.491 261.027 133.696 260.392 133.696Z" fill="white"/>
</svg>
