<svg width="649" height="481" viewBox="0 0 649 481" fill="none" xmlns="http://www.w3.org/2000/svg">
<path fill-rule="evenodd" clip-rule="evenodd" d="M317.073 0.000538943C458.201 -0.0699107 592.922 73.3377 634.297 197.645C673.898 316.623 629.849 481 492.5 481C399.5 481 354.5 415 221.001 425.5C120.143 433.433 -9.58273 367.782 0.904017 197.961C23.9196 33.4352 176.196 0.0708631 317.073 0.000538943Z" fill="#DB61CF"/>
<path d="M446.122 404.883L446.574 415.723V425.207H458.316V404.883H446.122Z" fill="#FFB9B9"/>
<path d="M510.707 394.947L511.159 405.787V415.271H522.901L520.643 393.141L510.707 394.947Z" fill="#FFB9B9"/>
<path d="M498.964 219.258L495.351 247.712L483.608 281.585L478.188 262.164L484.963 249.97L483.608 224.226L498.964 219.258Z" fill="#FFB9B9"/>
<path d="M442.509 216.549C442.509 216.549 432.573 234.163 433.928 235.969C435.283 237.776 436.186 247.712 436.186 247.712H439.947L446.122 232.356L442.509 216.549Z" fill="#3A359E"/>
<path d="M467.123 169.804C475.853 169.804 482.93 162.726 482.93 153.996C482.93 145.266 475.853 138.189 467.123 138.189C458.393 138.189 451.315 145.266 451.315 153.996C451.315 162.726 458.393 169.804 467.123 169.804Z" fill="#FFB9B9"/>
<path d="M461.252 166.642C461.252 166.642 469.833 178.385 467.123 184.256C464.413 190.127 493.319 181.095 493.319 181.095C493.319 181.095 478.866 164.835 478.414 159.416L461.252 166.642Z" fill="#FFB9B9"/>
<path d="M493.319 219.033C492.302 220.559 491.304 222.262 490.338 224.059C489.882 224.913 489.434 225.789 488.992 226.674C483.744 237.252 479.769 249.744 479.769 249.744L437.767 248.389L439.072 244.559L444.993 227.162C434.605 220.839 444.541 208.645 449.961 197.354C454.938 186.984 465.254 180.087 466.898 179.031C467.047 178.94 467.123 178.891 467.123 178.891L467.313 178.859L474.851 177.59L488.427 175.305H488.432C490.817 175.706 493.102 176.565 495.161 177.834C496.878 178.917 498.33 180.371 499.411 182.088C501.06 184.708 501.832 187.86 501.972 191.234C502.379 201.111 497.392 212.922 493.319 219.033Z" fill="#61D1DB"/>
<path d="M495.803 181.772C495.803 181.772 503.932 191.257 504.384 199.386C504.836 207.516 503.029 222.872 498.964 222.872C494.899 222.872 487.673 225.581 488.125 222.872C488.576 220.162 495.803 181.772 495.803 181.772Z" fill="#61D1DB"/>
<path d="M488.125 198.935L483.157 199.838C481.472 186.347 471.726 180.914 466.897 179.031C467.047 178.94 467.123 178.891 467.123 178.891L467.313 178.859L474.851 177.59C484.81 182.725 488.125 198.935 488.125 198.935Z" fill="#3A359E"/>
<path d="M521.997 393.141C521.546 395.851 508.448 400.819 504.835 400.367C501.222 399.915 465.542 312.748 465.542 312.748C465.542 312.748 465.542 409.851 464.639 411.658C463.735 413.465 448.38 411.658 442.96 405.335C437.54 399.012 433.927 300.102 431.669 283.392C429.411 266.681 436.185 245.002 436.185 245.002L439.071 244.559L447.928 243.195C447.928 243.195 447.928 240.937 461.477 230.098C475.027 219.258 483.156 199.838 483.156 199.838L484.511 197.128L488.124 198.934C491.999 191.767 494.425 184.721 495.161 177.834C496.877 178.917 498.329 180.371 499.411 182.088C499.067 183.037 498.724 184.062 498.372 185.159C495.328 194.639 491.877 209.322 488.445 223.779C488.336 224.231 488.233 224.683 488.124 225.13C488.451 225.622 488.741 226.139 488.991 226.674C489.904 228.603 490.87 231.882 488.124 233.711C484.059 236.421 482.704 249.97 482.704 249.97C490.382 256.745 492.189 288.811 491.286 291.07C490.382 293.328 490.382 292.876 492.641 294.231C494.899 295.586 494.899 306.877 494.899 306.877C494.899 306.877 522.449 390.431 521.997 393.141Z" fill="#3A359E"/>
<path d="M452.896 419.788C452.896 419.788 450.187 422.497 448.38 421.142C446.573 419.788 446.503 414.024 446.503 414.024C446.503 414.024 425.798 412.11 429.863 425.659C433.928 439.208 462.381 441.015 463.284 438.305C464.188 435.595 460.123 418.433 460.123 418.433L452.896 419.788Z" fill="#2F2E41"/>
<path d="M517.481 409.851C517.481 409.851 514.772 412.561 512.965 411.206C511.158 409.851 511.088 404.087 511.088 404.087C511.088 404.087 490.383 402.173 494.448 415.723C498.512 429.272 526.966 431.079 527.869 428.369C528.773 425.659 524.708 408.496 524.708 408.496L517.481 409.851Z" fill="#2F2E41"/>
<path d="M454.251 208.871L452.444 232.808L429.411 258.551C429.411 258.551 421.733 262.164 426.249 268.487C430.766 274.81 432.572 275.262 432.572 275.262L433.024 267.133L464.187 242.292L467.349 208.871H454.251Z" fill="#FFB9B9"/>
<path d="M468.704 198.934C468.704 198.934 470.511 178.611 461.478 180.417C452.445 182.224 451.993 190.805 451.993 190.805C451.993 190.805 447.928 211.58 451.541 212.484C455.155 213.387 467.349 215.194 468.704 212.484C470.059 209.774 468.704 198.934 468.704 198.934Z" fill="#61D1DB"/>
<path d="M507.828 167.301C506.069 166.43 502.185 164.672 498.876 162.554C499.108 155.664 498.26 149.409 495.776 146.093C494.382 142.928 491.454 139.759 489.162 137.263C483.531 131.134 471.08 127.713 468.872 130.775C452.169 131.105 450.411 144.197 450.411 144.197C450.498 149.673 456.189 149.846 461.175 149.647C460.729 153.385 461.918 157.27 465.364 158.992C471.952 162.287 473.929 166.569 470.635 169.534C467.34 172.499 461.411 180.405 469.317 182.382C477.223 184.358 478.211 188.311 475.905 189.958C473.599 191.606 481.176 186.994 481.176 186.994C481.176 186.994 482.494 194.9 489.412 192.923C490.138 192.666 490.777 192.213 491.261 191.614C493.129 193.666 494.796 194.88 496.052 194.887C503.247 194.925 502.384 186.956 502.384 186.956C502.384 186.956 510.924 189.355 508.259 188.39C505.594 187.426 505.48 183.353 512.561 179.318C519.641 175.283 511.8 169.268 507.828 167.301Z" fill="#EBD59D"/>
<path d="M394 119H62V323H394V119Z" fill="#F2F2F2"/>
<path d="M77.7993 139.196C80.9072 139.196 83.4267 136.676 83.4267 133.568C83.4267 130.46 80.9072 127.941 77.7993 127.941C74.6914 127.941 72.1719 130.46 72.1719 133.568C72.1719 136.676 74.6914 139.196 77.7993 139.196Z" fill="#61D1DB"/>
<path d="M92.7036 139.196C95.8115 139.196 98.331 136.676 98.331 133.568C98.331 130.46 95.8115 127.941 92.7036 127.941C89.5957 127.941 87.0762 130.46 87.0762 133.568C87.0762 136.676 89.5957 139.196 92.7036 139.196Z" fill="#61D1DB"/>
<path d="M107.608 139.196C110.716 139.196 113.235 136.676 113.235 133.568C113.235 130.46 110.716 127.941 107.608 127.941C104.5 127.941 101.98 130.46 101.98 133.568C101.98 136.676 104.5 139.196 107.608 139.196Z" fill="#61D1DB"/>
<path d="M359.181 148.576H107.616V149.48H359.181V148.576Z" fill="#9B9B9B"/>
<path d="M183 161H93C87.4772 161 83 165.477 83 171V221.241C83 226.764 87.4771 231.241 93 231.241H183C188.523 231.241 193 226.764 193 221.241V171C193 165.477 188.523 161 183 161Z" fill="white"/>
<path d="M143.937 176.165C140.901 171.036 134.896 170.797 134.896 170.797C134.896 170.797 129.044 170.049 125.291 177.86C121.792 185.141 116.963 192.17 124.513 193.875L125.877 189.63L126.722 194.191C127.797 194.268 128.875 194.287 129.952 194.246C138.038 193.985 145.738 194.322 145.49 191.421C145.161 187.564 146.857 181.1 143.937 176.165Z" fill="#2F2E41"/>
<path d="M135.501 190.751C139.83 190.751 143.339 187.242 143.339 182.913C143.339 178.585 139.83 175.076 135.501 175.076C131.173 175.076 127.664 178.585 127.664 182.913C127.664 187.242 131.173 190.751 135.501 190.751Z" fill="#A0616A"/>
<path d="M132.296 188.019C132.296 188.019 135.858 196.332 131.108 197.994L135.858 213.669L143.933 213.194L146.071 207.969L145.596 200.131L144.883 194.907C144.883 194.907 139.896 196.094 140.371 187.307L132.296 188.019Z" fill="#A0616A"/>
<path d="M130.395 197.757C130.395 197.757 122.558 197.044 123.27 202.744C123.983 208.444 124.695 209.631 124.695 209.631L125.408 218.181L121.133 220.794H117.095C117.095 220.794 104.745 223.644 110.92 226.731C117.095 229.819 119.233 224.356 119.233 224.356C119.233 224.356 130.633 224.356 131.345 222.456C132.057 220.556 130.395 197.757 130.395 197.757Z" fill="#A0616A"/>
<path d="M145.595 195.382C145.595 195.382 152.957 192.769 153.432 198.469C153.907 204.169 153.907 204.644 153.907 204.644L155.332 212.719C155.332 212.719 158.182 219.844 158.182 221.981C158.182 224.119 160.319 230.768 160.319 230.768C160.319 230.768 163.169 240.031 160.082 239.793C156.995 239.556 156.52 229.818 156.52 229.818L150.107 216.994L148.207 209.156L145.595 195.382Z" fill="#A0616A"/>
<path d="M131.582 196.807H129.682L129.445 206.781C129.445 206.781 126.357 211.056 130.157 214.856L131.107 221.031L148.445 220.319L149.632 213.906C149.632 213.906 152.007 208.681 148.682 203.931L145.595 194.194H143.932C143.932 194.194 147.783 208.391 139.657 208.681C133.007 208.919 131.582 196.807 131.582 196.807Z" fill="#61D1DB"/>
<path d="M153.32 231.032H128.396C129.71 227.204 130.549 224.829 130.628 224.612C130.629 224.606 130.631 224.6 130.633 224.595L131.211 222.67L131.451 221.872L131.71 221.007L132.059 219.843L147.494 219.369L147.926 220.34L149.394 223.643C149.522 223.682 149.643 223.739 149.754 223.814C150.85 224.533 152.061 227.139 153.32 231.032Z" fill="#2F2E41"/>
<path d="M149.157 217.469L130.395 218.181C130.395 218.181 129.539 224.593 130.395 224.593C130.633 224.593 150.107 226.256 149.87 223.406C149.632 220.556 149.157 217.469 149.157 217.469Z" fill="#3F3D56"/>
<path d="M135.631 175.165C138.029 175.165 139.973 173.221 139.973 170.823C139.973 168.425 138.029 166.481 135.631 166.481C133.233 166.481 131.289 168.425 131.289 170.823C131.289 173.221 133.233 175.165 135.631 175.165Z" fill="#2F2E41"/>
<path d="M130.832 169.681C130.832 168.608 131.229 167.574 131.946 166.777C132.664 165.979 133.65 165.476 134.717 165.363C134.565 165.347 134.413 165.339 134.26 165.339C133.67 165.338 133.087 165.458 132.545 165.69C132.003 165.923 131.514 166.264 131.108 166.691C130.702 167.119 130.387 167.625 130.183 168.178C129.979 168.731 129.89 169.321 129.921 169.909C129.952 170.498 130.103 171.075 130.364 171.603C130.625 172.132 130.991 172.602 131.44 172.985C131.889 173.367 132.411 173.655 132.974 173.829C133.538 174.003 134.131 174.061 134.717 173.998C133.65 173.885 132.664 173.382 131.946 172.585C131.229 171.787 130.832 170.753 130.832 169.681Z" fill="#2F2E41"/>
<path d="M142.595 175.671L136.663 172.563L128.469 173.834L126.774 181.321L130.994 181.159L132.173 178.408V181.113L134.12 181.039L135.25 176.659L135.956 181.321L142.878 181.18L142.595 175.671Z" fill="#2F2E41"/>
<path d="M183 240H93C87.4772 240 83 244.477 83 250V300.241C83 305.764 87.4771 310.241 93 310.241H183C188.523 310.241 193 305.764 193 300.241V250C193 244.477 188.523 240 183 240Z" fill="white"/>
<path d="M130.925 265.024C135.289 265.024 138.827 261.486 138.827 257.121C138.827 252.757 135.289 249.219 130.925 249.219C126.561 249.219 123.022 252.757 123.022 257.121C123.022 261.486 126.561 265.024 130.925 265.024Z" fill="#FFB9B9"/>
<path d="M127.838 263.172C127.838 263.172 128.826 267.864 128.826 268.358C128.826 268.852 133.518 271.074 133.518 271.074L137.716 270.333L139.198 265.888C139.198 265.888 136.728 262.184 136.728 260.702L127.838 263.172Z" fill="#FFB9B9"/>
<path d="M149.132 310.032L150.15 308.168L150.312 307.87L148.336 286.88L148.454 285.931L150.557 268.853L138.379 264.57H138.376C138.352 265.646 137.989 266.687 137.339 267.545C136.689 268.403 135.784 269.033 134.754 269.347C131.049 270.58 128.499 266.428 128.499 266.428L118.206 274.285L123.206 288.782L125.617 295.769C125.617 295.769 125.862 303.919 126.11 304.661C126.356 305.4 125.862 305.649 125.617 305.894C125.368 306.142 125.862 306.882 126.11 306.882C126.233 306.882 126.479 307.808 126.696 308.734C126.808 309.209 126.911 309.683 126.984 310.032H149.132Z" fill="#61D1DB"/>
<path d="M168.462 308.734C168.462 308.734 175.129 312.932 174.389 315.649C173.648 318.365 165.992 310.957 165.992 310.71C165.992 310.463 168.462 308.734 168.462 308.734Z" fill="#FFB9B9"/>
<path d="M149.131 310.032H150.989L150.434 307.992C150.342 308.056 150.247 308.114 150.15 308.168C149.421 308.581 147.248 309.616 143.144 310.032C140.582 310.27 138.004 310.27 135.443 310.032C132.595 309.779 129.765 309.346 126.972 308.734H126.478L126.202 310.032H149.131Z" fill="#2F2E41"/>
<path d="M124.072 250.755C124.072 250.755 126.581 245.318 131.39 246.573C136.199 247.827 138.917 249.709 139.126 251.591C139.336 253.473 139.022 256.295 139.022 256.295C139.022 256.295 138.499 252.427 135.154 253.264C131.809 254.1 126.581 253.473 126.581 253.473L125.745 261C125.745 261 124.804 259.641 123.759 260.477C122.713 261.313 120.727 252.427 124.072 250.755Z" fill="#2F2E41"/>
<path d="M123.758 310.032H116.961L116.479 309.106C113.516 303.919 113.516 296.757 113.516 296.757L115.243 282.187C114.997 277 118.206 274.285 118.206 274.285H121.911L124.629 283.423L123.206 288.782L121.417 295.523L120.923 296.263C120.923 296.263 121.417 297.005 121.169 297.25C120.923 297.499 120.675 298.486 120.675 298.486C120.675 298.486 121.417 303.425 122.159 303.919C122.899 304.413 121.911 304.413 121.911 304.661C121.911 304.906 122.653 305.894 122.653 305.894V307.13L123.758 310.032Z" fill="#61D1DB"/>
<path d="M146.359 268.111L150.557 268.852C150.557 268.852 153.027 271.321 154.015 274.285L155.99 283.175L159.201 289.596C159.201 289.596 162.905 293.3 165.621 301.696L169.573 309.105L165.374 311.574C165.374 311.574 153.768 297.992 152.286 293.3L145.865 280.952L146.359 268.111Z" fill="#61D1DB"/>
<path d="M360 161H222C216.477 161 212 165.477 212 171V300C212 305.523 216.477 310 222 310H360C365.523 310 370 305.523 370 300V171C370 165.477 365.523 161 360 161Z" fill="#61D1DB"/>
<path d="M225.458 226.833V210.117H219.746V207.233H234.782V210.117H229.042V226.833H225.458ZM238.483 226.833L234.423 212.945H237.979L240.387 222.941L243.187 212.945H247.163L249.963 222.941L252.399 212.945H255.955L251.867 226.833H248.143L245.175 216.445L242.207 226.833H238.483ZM264.388 227.169C263.044 227.169 261.831 226.861 260.748 226.245C259.684 225.629 258.835 224.78 258.2 223.697C257.584 222.596 257.276 221.327 257.276 219.889C257.276 218.452 257.594 217.192 258.228 216.109C258.863 215.008 259.712 214.149 260.776 213.533C261.859 212.917 263.072 212.609 264.416 212.609C265.742 212.609 266.936 212.917 268 213.533C269.083 214.149 269.932 215.008 270.548 216.109C271.183 217.192 271.5 218.452 271.5 219.889C271.5 221.327 271.183 222.596 270.548 223.697C269.932 224.78 269.083 225.629 268 226.245C266.918 226.861 265.714 227.169 264.388 227.169ZM264.388 224.061C265.322 224.061 266.134 223.716 266.824 223.025C267.515 222.316 267.86 221.271 267.86 219.889C267.86 218.508 267.515 217.472 266.824 216.781C266.134 216.072 265.331 215.717 264.416 215.717C263.464 215.717 262.643 216.072 261.952 216.781C261.28 217.472 260.944 218.508 260.944 219.889C260.944 221.271 261.28 222.316 261.952 223.025C262.643 223.716 263.455 224.061 264.388 224.061ZM287.565 226.833C286.109 226.833 284.942 226.479 284.065 225.769C283.187 225.06 282.749 223.8 282.749 221.989V215.941H280.369V212.945H282.749L283.169 209.221H286.333V212.945H290.085V215.941H286.333V222.017C286.333 222.689 286.473 223.156 286.753 223.417C287.051 223.66 287.555 223.781 288.265 223.781H290.001V226.833H287.565ZM293.162 226.833V212.945H296.354L296.69 215.549C297.194 214.653 297.875 213.944 298.734 213.421C299.611 212.88 300.638 212.609 301.814 212.609V216.389H300.806C300.022 216.389 299.322 216.511 298.706 216.753C298.09 216.996 297.604 217.416 297.25 218.013C296.914 218.611 296.746 219.441 296.746 220.505V226.833H293.162ZM309.471 227.169C307.735 227.169 306.391 226.628 305.439 225.545C304.506 224.463 304.039 222.876 304.039 220.785V212.945H307.595V220.449C307.595 221.644 307.838 222.559 308.323 223.193C308.809 223.828 309.574 224.145 310.619 224.145C311.609 224.145 312.421 223.791 313.055 223.081C313.709 222.372 314.035 221.383 314.035 220.113V212.945H317.619V226.833H314.455L314.175 224.481C313.746 225.303 313.121 225.956 312.299 226.441C311.497 226.927 310.554 227.169 309.471 227.169ZM327.487 226.833C326.031 226.833 324.864 226.479 323.987 225.769C323.109 225.06 322.671 223.8 322.671 221.989V215.941H320.291V212.945H322.671L323.091 209.221H326.255V212.945H330.007V215.941H326.255V222.017C326.255 222.689 326.395 223.156 326.675 223.417C326.973 223.66 327.477 223.781 328.187 223.781H329.923V226.833H327.487ZM333.084 226.833V206.673H336.668V215.073C337.134 214.308 337.76 213.711 338.544 213.281C339.346 212.833 340.261 212.609 341.288 212.609C343.005 212.609 344.33 213.151 345.264 214.233C346.216 215.316 346.692 216.903 346.692 218.993V226.833H343.136V219.329C343.136 218.135 342.893 217.22 342.408 216.585C341.941 215.951 341.194 215.633 340.168 215.633C339.16 215.633 338.32 215.988 337.648 216.697C336.994 217.407 336.668 218.396 336.668 219.665V226.833H333.084ZM355.859 227.169C354.627 227.169 353.544 226.973 352.611 226.581C351.677 226.171 350.931 225.611 350.371 224.901C349.811 224.192 349.475 223.371 349.363 222.437H352.975C353.087 222.979 353.385 223.445 353.871 223.837C354.375 224.211 355.019 224.397 355.803 224.397C356.587 224.397 357.156 224.239 357.511 223.921C357.884 223.604 358.071 223.24 358.071 222.829C358.071 222.232 357.809 221.831 357.287 221.625C356.764 221.401 356.036 221.187 355.103 220.981C354.505 220.851 353.899 220.692 353.283 220.505C352.667 220.319 352.097 220.085 351.575 219.805C351.071 219.507 350.66 219.133 350.343 218.685C350.025 218.219 349.867 217.649 349.867 216.977C349.867 215.745 350.352 214.709 351.323 213.869C352.312 213.029 353.693 212.609 355.467 212.609C357.109 212.609 358.416 212.992 359.387 213.757C360.376 214.523 360.964 215.577 361.151 216.921H357.763C357.557 215.895 356.783 215.381 355.439 215.381C354.767 215.381 354.244 215.512 353.871 215.773C353.516 216.035 353.339 216.361 353.339 216.753C353.339 217.164 353.609 217.491 354.151 217.733C354.692 217.976 355.411 218.2 356.307 218.405C357.277 218.629 358.164 218.881 358.967 219.161C359.788 219.423 360.441 219.824 360.927 220.365C361.412 220.888 361.655 221.644 361.655 222.633C361.673 223.492 361.449 224.267 360.983 224.957C360.516 225.648 359.844 226.189 358.967 226.581C358.089 226.973 357.053 227.169 355.859 227.169ZM255.05 263.169C253.706 263.169 252.493 262.861 251.41 262.245C250.346 261.629 249.497 260.78 248.862 259.697C248.246 258.596 247.938 257.327 247.938 255.889C247.938 254.452 248.256 253.192 248.89 252.109C249.525 251.008 250.374 250.149 251.438 249.533C252.521 248.917 253.734 248.609 255.078 248.609C256.404 248.609 257.598 248.917 258.662 249.533C259.745 250.149 260.594 251.008 261.21 252.109C261.845 253.192 262.162 254.452 262.162 255.889C262.162 257.327 261.845 258.596 261.21 259.697C260.594 260.78 259.745 261.629 258.662 262.245C257.58 262.861 256.376 263.169 255.05 263.169ZM255.05 260.061C255.984 260.061 256.796 259.716 257.486 259.025C258.177 258.316 258.522 257.271 258.522 255.889C258.522 254.508 258.177 253.472 257.486 252.781C256.796 252.072 255.993 251.717 255.078 251.717C254.126 251.717 253.305 252.072 252.614 252.781C251.942 253.472 251.606 254.508 251.606 255.889C251.606 257.271 251.942 258.316 252.614 259.025C253.305 259.716 254.117 260.061 255.05 260.061ZM265.367 262.833V248.945H268.531L268.811 251.297C269.24 250.476 269.856 249.823 270.659 249.337C271.48 248.852 272.442 248.609 273.543 248.609C275.26 248.609 276.595 249.151 277.547 250.233C278.499 251.316 278.975 252.903 278.975 254.993V262.833H275.391V255.329C275.391 254.135 275.148 253.22 274.663 252.585C274.178 251.951 273.422 251.633 272.395 251.633C271.387 251.633 270.556 251.988 269.903 252.697C269.268 253.407 268.951 254.396 268.951 255.665V262.833H265.367ZM289.15 263.169C287.75 263.169 286.509 262.871 285.426 262.273C284.343 261.676 283.494 260.836 282.878 259.753C282.262 258.671 281.954 257.42 281.954 256.001C281.954 254.564 282.253 253.285 282.85 252.165C283.466 251.045 284.306 250.177 285.37 249.561C286.453 248.927 287.722 248.609 289.178 248.609C290.541 248.609 291.745 248.908 292.79 249.505C293.835 250.103 294.647 250.924 295.226 251.969C295.823 252.996 296.122 254.144 296.122 255.413C296.122 255.619 296.113 255.833 296.094 256.057C296.094 256.281 296.085 256.515 296.066 256.757H285.51C285.585 257.84 285.958 258.689 286.63 259.305C287.321 259.921 288.151 260.229 289.122 260.229C289.85 260.229 290.457 260.071 290.942 259.753C291.446 259.417 291.819 258.988 292.062 258.465H295.702C295.441 259.343 295.002 260.145 294.386 260.873C293.789 261.583 293.042 262.143 292.146 262.553C291.269 262.964 290.27 263.169 289.15 263.169ZM289.178 251.521C288.301 251.521 287.526 251.773 286.854 252.277C286.182 252.763 285.753 253.509 285.566 254.517H292.482C292.426 253.603 292.09 252.875 291.474 252.333C290.858 251.792 290.093 251.521 289.178 251.521ZM305.808 262.833V242.673H309.392V262.833H305.808ZM314.986 246.789C314.333 246.789 313.792 246.593 313.362 246.201C312.952 245.809 312.746 245.315 312.746 244.717C312.746 244.12 312.952 243.635 313.362 243.261C313.792 242.869 314.333 242.673 314.986 242.673C315.64 242.673 316.172 242.869 316.582 243.261C317.012 243.635 317.226 244.12 317.226 244.717C317.226 245.315 317.012 245.809 316.582 246.201C316.172 246.593 315.64 246.789 314.986 246.789ZM313.194 262.833V248.945H316.778V262.833H313.194ZM327.267 263.169C325.867 263.169 324.626 262.871 323.543 262.273C322.461 261.676 321.611 260.836 320.995 259.753C320.379 258.671 320.071 257.42 320.071 256.001C320.071 254.564 320.37 253.285 320.967 252.165C321.583 251.045 322.423 250.177 323.487 249.561C324.57 248.927 325.839 248.609 327.295 248.609C328.658 248.609 329.862 248.908 330.907 249.505C331.953 250.103 332.765 250.924 333.343 251.969C333.941 252.996 334.239 254.144 334.239 255.413C334.239 255.619 334.23 255.833 334.211 256.057C334.211 256.281 334.202 256.515 334.183 256.757H323.627C323.702 257.84 324.075 258.689 324.747 259.305C325.438 259.921 326.269 260.229 327.239 260.229C327.967 260.229 328.574 260.071 329.059 259.753C329.563 259.417 329.937 258.988 330.179 258.465H333.819C333.558 259.343 333.119 260.145 332.503 260.873C331.906 261.583 331.159 262.143 330.263 262.553C329.386 262.964 328.387 263.169 327.267 263.169ZM327.295 251.521C326.418 251.521 325.643 251.773 324.971 252.277C324.299 252.763 323.87 253.509 323.683 254.517H330.599C330.543 253.603 330.207 252.875 329.591 252.333C328.975 251.792 328.21 251.521 327.295 251.521Z" fill="white"/>
</svg>
