<svg width="800" height="315" viewBox="0 0 800 315" fill="none" xmlns="http://www.w3.org/2000/svg">
<path d="M397.446 225.122C424.479 225.122 446.394 221.734 446.394 217.555C446.394 213.377 424.479 209.989 397.446 209.989C370.412 209.989 348.498 213.377 348.498 217.555C348.498 221.734 370.412 225.122 397.446 225.122Z" fill="#61D1DB"/>
<path d="M399.029 150.544L448.348 94.1253C451.956 90.4369 454.802 86.074 456.724 81.2857C458.646 76.4974 459.606 71.3774 459.549 66.2181C459.492 61.0588 458.419 55.9612 456.393 51.2164C454.366 46.4716 451.424 42.1725 447.736 38.5645C444.047 34.9565 439.684 32.1104 434.896 30.1885C430.108 28.2666 424.988 27.3067 419.829 27.3636C414.669 27.4204 409.572 28.4929 404.827 30.5198C400.082 32.5467 395.783 35.4883 392.175 39.1767C388.487 35.5687 384.124 32.7225 379.335 30.8007C374.547 28.8788 369.427 27.9189 364.268 27.9757C359.108 28.0326 354.011 29.1051 349.266 31.1319C344.521 33.1588 340.222 36.1005 336.614 39.7888C333.006 43.4772 330.16 47.8401 328.238 52.6284C326.316 57.4167 325.356 62.5367 325.413 67.696C325.47 72.8553 326.543 77.9528 328.569 82.6976C330.596 87.4425 333.538 91.7416 337.226 95.3496L392.096 150.544" fill="#F12587"/>
<path d="M268.063 30.2404H1.90991V271.572H268.063V30.2404Z" stroke="#3F3D56" stroke-width="2" stroke-miterlimit="10"/>
<path d="M798.09 1.73608H531.937V243.068H798.09V1.73608Z" stroke="#3F3D56" stroke-width="2" stroke-miterlimit="10"/>
<path d="M271.915 146.692C271.915 146.692 313.516 132.055 331.235 152.085C348.954 172.115 398.259 140.529 398.259 140.529" stroke="#3F3D56" stroke-width="2" stroke-miterlimit="10"/>
<path d="M610.115 152.085C610.115 152.085 602.412 133.596 550.025 150.544C497.639 167.493 423.682 166.722 405.192 140.529L454.511 84.1104C458.119 80.422 460.965 76.0591 462.887 71.2708C464.809 66.4825 465.769 61.3625 465.712 56.2032C465.655 51.0439 464.583 45.9463 462.556 41.2015C460.529 36.4567 457.587 32.1576 453.899 28.5496C450.21 24.9416 445.848 22.0955 441.059 20.1736C436.271 18.2518 431.151 17.2919 425.992 17.3487C420.832 17.4055 415.735 18.478 410.99 20.5049C406.245 22.5318 401.946 25.4734 398.338 29.1618C390.889 21.8751 380.851 17.846 370.431 17.9608C360.011 18.0756 350.064 22.3249 342.777 29.7739C335.491 37.2229 331.462 47.2614 331.576 57.6811C331.691 68.1007 335.94 78.048 343.389 85.3347L398.259 140.529" stroke="#3F3D56" stroke-width="2" stroke-miterlimit="10"/>
<path d="M403.694 218.834C430.728 218.834 452.643 215.446 452.643 211.267C452.643 207.089 430.728 203.701 403.694 203.701C376.661 203.701 354.746 207.089 354.746 211.267C354.746 215.446 376.661 218.834 403.694 218.834Z" stroke="#3F3D56" stroke-width="2" stroke-miterlimit="10"/>
<path d="M398.487 270.451C419.769 270.451 437.021 267.784 437.021 264.495C437.021 261.205 419.769 258.538 398.487 258.538C377.206 258.538 359.954 261.205 359.954 264.495C359.954 267.784 377.206 270.451 398.487 270.451Z" fill="#61D1DB"/>
<path d="M398.487 313.866C412.867 313.866 424.523 312.064 424.523 309.842C424.523 307.619 412.867 305.817 398.487 305.817C384.108 305.817 372.451 307.619 372.451 309.842C372.451 312.064 384.108 313.866 398.487 313.866Z" fill="#61D1DB"/>
<path d="M403.694 265.144C424.976 265.144 442.228 262.478 442.228 259.188C442.228 255.898 424.976 253.231 403.694 253.231C382.413 253.231 365.161 255.898 365.161 259.188C365.161 262.478 382.413 265.144 403.694 265.144Z" stroke="#3F3D56" stroke-width="2" stroke-miterlimit="10"/>
<path d="M403.694 309.872C418.074 309.872 429.731 308.07 429.731 305.847C429.731 303.625 418.074 301.823 403.694 301.823C389.315 301.823 377.658 303.625 377.658 305.847C377.658 308.07 389.315 309.872 403.694 309.872Z" stroke="#3F3D56" stroke-width="2" stroke-miterlimit="10"/>
<path d="M157.219 156.289C171.367 156.289 182.836 144.82 182.836 130.672C182.836 116.524 171.367 105.055 157.219 105.055C143.071 105.055 131.602 116.524 131.602 130.672C131.602 144.82 143.071 156.289 157.219 156.289Z" fill="#2F2E41"/>
<path d="M144.99 143.614C144.99 143.614 136.646 162.089 134.262 162.685C131.878 163.281 153.93 174.009 153.93 174.009C153.93 174.009 158.102 151.361 159.89 150.169C161.678 148.977 144.99 143.614 144.99 143.614Z" fill="#9F616A"/>
<path d="M157.506 157.322C167.052 157.322 174.79 149.583 174.79 140.038C174.79 130.492 167.052 122.754 157.506 122.754C147.96 122.754 140.222 130.492 140.222 140.038C140.222 149.583 147.96 157.322 157.506 157.322Z" fill="#9F616A"/>
<path d="M171.981 271.572H98.4858C100.943 262.643 103.57 253.791 105.05 248.876C105.797 246.411 106.251 244.932 106.251 244.932C106.251 244.932 161.681 256.85 162.867 257.451C163.534 258.163 164.126 258.943 164.631 259.777C166.365 262.32 169.13 266.688 171.981 271.572Z" fill="#2F2E41"/>
<path d="M80.6227 103.086L62.7429 75.6701C62.7429 75.6701 67.1644 46.9106 61.2045 52.2746C55.2445 57.6386 53.3584 79.2999 53.3584 79.2999L74.0668 110.834L80.6227 103.086Z" fill="#9F616A"/>
<path d="M242.734 153.149L258.825 151.957C258.825 151.957 277.897 131.694 279.089 138.25C280.281 144.806 263.593 159.109 263.593 159.109L241.542 161.493L242.734 153.149Z" fill="#9F616A"/>
<path d="M125.322 159.109V153.149C125.322 153.149 109.826 143.018 110.422 141.23C111.018 139.442 109.23 138.25 109.23 138.25C109.23 138.25 107.442 135.866 107.442 135.27C107.442 134.674 105.058 134.078 105.058 134.078L90.1586 116.794C90.1586 116.794 81.8147 100.106 80.0267 100.702C78.2387 101.298 68.7027 104.874 69.8947 107.258C71.0867 109.642 104.463 160.897 104.463 160.897C104.463 160.897 106.25 172.221 109.23 172.221C112.21 172.221 125.322 159.109 125.322 159.109Z" fill="#FFE816"/>
<path d="M165.254 166.261C165.254 166.261 178.366 165.665 178.962 166.261C179.558 166.857 187.902 166.261 187.902 166.261C187.902 166.261 210.55 160.897 212.338 159.109C214.126 157.321 243.925 149.574 245.117 153.149C246.309 156.725 249.289 163.877 246.309 165.069C243.33 166.261 162.87 186.525 162.87 186.525L165.254 166.261Z" fill="#FFE816"/>
<path d="M148.258 114.31C154.112 114.31 158.858 109.564 158.858 103.71C158.858 97.8555 154.112 93.1096 148.258 93.1096C142.403 93.1096 137.657 97.8555 137.657 103.71C137.657 109.564 142.403 114.31 148.258 114.31Z" fill="#2F2E41"/>
<path d="M134.124 97.9681C134.124 95.3479 135.095 92.8206 136.848 90.8738C138.602 88.9269 141.014 87.6984 143.62 87.4252C143.253 87.3871 142.885 87.368 142.516 87.3679C139.705 87.3679 137.008 88.4847 135.02 90.4726C133.033 92.4605 131.916 95.1567 131.916 97.9681C131.916 100.779 133.033 103.476 135.02 105.464C137.008 107.451 139.705 108.568 142.516 108.568C142.885 108.568 143.253 108.549 143.62 108.511C141.014 108.238 138.602 107.009 136.848 105.062C135.095 103.115 134.124 100.588 134.124 97.9681Z" fill="#2F2E41"/>
<path d="M160.199 135.84C169.956 135.84 177.866 131.095 177.866 125.24C177.866 119.386 169.956 114.64 160.199 114.64C150.442 114.64 142.532 119.386 142.532 125.24C142.532 131.095 150.442 135.84 160.199 135.84Z" fill="#2F2E41"/>
<path d="M139.924 152.852C139.924 152.852 134.56 157.024 133.368 157.62C132.176 158.216 125.024 152.256 123.832 152.256C122.64 152.256 107.144 170.135 107.144 170.135C107.144 170.135 110.024 173.453 107.144 190.399C106.064 196.755 103.922 223.927 103.922 227.503C103.922 231.079 92.2445 239.867 102.972 247.615C113.7 255.363 164.956 263.707 165.552 258.939C166.148 254.171 159.592 241.655 162.572 235.695C165.552 229.735 165.552 207.683 165.552 207.683L169.128 184.439L172.108 165.964C172.108 165.964 158.102 162.09 156.91 162.09C155.718 162.09 150.354 170.434 139.924 152.852Z" fill="#FFE816"/>
<path d="M676.991 95.9279L664.795 96.4009L665.403 112.081L677.599 111.608L676.991 95.9279Z" fill="#F6F6F6"/>
<path d="M621.976 150.844C621.976 150.844 605.087 142.774 605.357 149.743C605.627 156.712 622.381 161.297 622.381 161.297L621.976 150.844Z" fill="#FFB9B9"/>
<path d="M700.513 243.068H620.4C622.072 235.225 625.254 225.765 627.742 218.947C629.714 213.554 631.239 209.81 631.239 209.81C640.338 199.548 653.542 199.286 665.93 201.821C667.409 202.121 668.881 202.46 670.329 202.838C670.498 202.876 670.668 202.923 670.837 202.969C673.734 203.716 676.546 204.579 679.204 205.442C683.788 206.936 687.925 208.446 691.268 209.471C692.949 210.027 694.677 210.432 696.43 210.68C696.813 210.721 697.199 210.737 697.585 210.727C698.91 210.673 699.827 212.098 700.42 214.586C701.761 220.202 701.453 231.265 700.513 243.068Z" fill="#2F2E41"/>
<path d="M684.71 81.2334C684.71 81.2334 693.995 95.7048 697.615 99.0542C701.234 102.404 691.051 109.778 691.051 109.778L672.825 112.23C672.825 112.23 673.054 95.6444 672.116 93.9359C671.177 92.2275 684.71 81.2334 684.71 81.2334Z" fill="#FFB9B9"/>
<path d="M668.867 100.169C668.867 100.169 672.622 107.003 676.107 106.868C679.591 106.733 697.615 99.0542 698.385 96.407C699.154 93.7598 704.354 115.369 704.354 115.369L660.252 192.982L649.495 185.547L654.707 139.978L658.988 115.383L668.867 100.169Z" fill="#F7F7F7"/>
<path d="M700.011 169.629C698.19 173.167 697.261 177.096 697.306 181.075C697.312 181.25 697.319 181.424 697.335 181.598C697.752 189.66 700.722 198.985 701.788 205.766C702.561 210.63 702.341 214.181 699.494 215.016C692.593 217.028 700.5 218.466 673.8 227.354C647.099 236.241 642.439 228.57 642.371 226.828C642.304 225.085 646.153 211.849 645.248 211.012C644.343 210.175 632.586 221.972 629.034 220.365C625.482 218.758 628.629 209.912 628.629 209.912C628.629 209.912 636.631 191.28 636.462 186.925C636.293 182.569 648.583 162.026 648.583 162.026L656.942 107.611C656.942 107.611 660.156 100.507 664.478 99.4668C667.201 98.901 670.037 99.4168 672.386 100.905L665.154 116.889L657.523 145.103L658.8 155.523C658.8 155.523 667.673 136.858 673.501 129.652C679.328 122.447 691.753 105.389 691.753 105.389C691.753 105.389 694.654 95.6007 692.464 92.6757C690.274 89.742 701.599 89.3029 706.427 101.33C708.987 107.704 713.142 117.209 715.744 126.06C718.064 133.9 719.159 141.23 716.862 145.42C713.349 151.82 704.515 160.232 700.011 169.629Z" fill="#6361DB"/>
<path opacity="0.1" d="M716.861 145.42C713.349 151.82 704.515 160.232 700.011 169.629C698.835 165.391 697.4 161.006 697.4 161.006C697.4 161.006 691.896 131.556 708.177 123.945C710.874 123.685 713.573 124.438 715.744 126.06C718.064 133.9 719.159 141.23 716.861 145.42Z" fill="black"/>
<path d="M652.229 143.564L638.426 147.589L619.261 148.332L617.29 164.985L648.786 167.253C648.786 167.253 656.652 145.137 652.229 143.564Z" fill="#6361DB"/>
<path d="M674.737 199.555C674.737 199.555 656.271 202.619 660.486 208.176C664.7 213.733 681.059 207.891 681.059 207.891L674.737 199.555Z" fill="#FFB9B9"/>
<path opacity="0.1" d="M697.335 181.598C697.752 189.66 700.722 198.985 701.788 205.766C695.905 211.333 690.311 216.244 688.203 216.326C683.848 216.495 676.845 215.894 674.265 216.866C671.686 217.839 670.173 201.321 670.173 201.321C670.173 201.321 671.712 196.027 678.58 193.143C683.215 191.192 692.101 185.901 697.335 181.598Z" fill="black"/>
<path d="M707.974 118.719C707.974 118.719 722.716 116.402 721.919 140.861C721.123 165.32 723.473 180.933 717.544 185.525C711.615 190.117 692.356 210.93 688.001 211.099C683.645 211.268 676.642 210.667 674.063 211.64C671.483 212.612 669.97 196.094 669.97 196.094C669.97 196.094 671.51 190.8 678.377 187.916C685.245 185.033 701.425 174.809 701.29 171.324C701.155 167.84 697.197 155.779 697.197 155.779C697.197 155.779 691.693 126.329 707.974 118.719Z" fill="#6361DB"/>
<path d="M671.71 102.662C682.302 102.662 690.889 94.0747 690.889 83.4823C690.889 72.8899 682.302 64.3031 671.71 64.3031C661.118 64.3031 652.531 72.8899 652.531 83.4823C652.531 94.0747 661.118 102.662 671.71 102.662Z" fill="#FFB9B9"/>
<path d="M658.796 55.9929C658.334 56.3915 657.78 56.6695 657.184 56.8021C656.885 56.8555 656.576 56.7883 656.327 56.6152C656.077 56.4421 655.905 56.1773 655.85 55.8784C655.505 56.8354 654.864 57.6575 654.02 58.2252C653.125 58.6922 651.739 58.3006 651.61 57.2986C651.479 58.0594 651.143 58.7699 650.637 59.353C650.373 59.632 650.01 59.7956 649.626 59.8084C649.243 59.8213 648.869 59.6822 648.588 59.4215C648.98 61.5657 648.738 63.7707 648.861 65.9469C648.984 68.1231 649.565 70.4303 651.209 71.8613C653.607 73.9483 657.212 73.4332 660.367 73.0378C660.844 72.9377 661.339 72.9648 661.802 73.1163C662.983 73.6195 662.929 75.2635 662.945 76.5472C663.041 78.7995 663.933 80.9448 665.461 82.6021C666.989 84.2594 669.055 85.3215 671.292 85.5998C672.544 85.7931 673.822 85.4813 674.844 84.733C675.74 83.9739 676.197 82.7367 677.223 82.1665C678.893 81.239 680.917 82.5917 682.137 84.0605C683.358 85.5293 684.561 87.336 686.451 87.6049C688.952 87.9605 690.856 85.4122 691.791 83.0657C693.08 79.777 693.698 76.2635 693.607 72.7322C693.517 69.201 692.72 65.7236 691.265 62.5051C686.044 51.1239 668.208 49.3237 658.796 55.9929Z" fill="#6D3004"/>
</svg>
