<svg width="629" height="516" viewBox="0 0 629 516" fill="none" xmlns="http://www.w3.org/2000/svg">
<path fill-rule="evenodd" clip-rule="evenodd" d="M265.334 1.22932C401.042 -5.60483 559.282 12.8132 606.897 139.792C659.148 279.134 621.833 469.572 461.979 504.941C332.5 533.589 208.483 504.941 96.8697 437.926C1.52075 380.676 -18.7289 274.993 15.6191 169.568C49.9537 64.1846 154.413 6.8152 265.334 1.22932Z" fill="#DB61CF"/>
<g clip-path="url(#clip0)">
<path opacity="0.1" d="M470.949 458.805C513.208 458.805 547.467 455.478 547.467 451.374C547.467 447.271 513.208 443.944 470.949 443.944C428.689 443.944 394.431 447.271 394.431 451.374C394.431 455.478 428.689 458.805 470.949 458.805Z" fill="#61D1DB"/>
<path d="M540.227 110.672H87.879C84.507 110.672 81.7734 113.406 81.7734 116.778V367.724C81.7734 371.096 84.507 373.829 87.879 373.829H540.227C543.599 373.829 546.332 371.096 546.332 367.724V116.778C546.332 113.406 543.599 110.672 540.227 110.672Z" fill="url(#paint0_linear)"/>
<path d="M539.543 114.373H88.6173C85.2453 114.373 82.5117 117.107 82.5117 120.479V366.849C82.5117 370.221 85.2453 372.955 88.6173 372.955H539.543C542.915 372.955 545.648 370.221 545.648 366.849V120.479C545.648 117.107 542.915 114.373 539.543 114.373Z" fill="white"/>
<path d="M539.543 114.373H88.6173C85.2453 114.373 82.5117 117.107 82.5117 120.479V366.849C82.5117 370.221 85.2453 372.955 88.6173 372.955H539.543C542.915 372.955 545.648 370.221 545.648 366.849V120.479C545.648 117.107 542.915 114.373 539.543 114.373Z" fill="white"/>
<path opacity="0.04" d="M539.543 114.373H88.6173C85.2453 114.373 82.5117 117.107 82.5117 120.479V366.849C82.5117 370.221 85.2453 372.955 88.6173 372.955H539.543C542.915 372.955 545.648 370.221 545.648 366.849V120.479C545.648 117.107 542.915 114.373 539.543 114.373Z" fill="white"/>
<path d="M543.297 111.406H84.863C84.2394 111.406 83.6414 111.653 83.2004 112.094C82.7595 112.535 82.5117 113.133 82.5117 113.757V123.695H545.629V113.757C545.629 113.137 545.384 112.542 544.947 112.101C544.51 111.661 543.917 111.411 543.297 111.406Z" fill="#5A5773"/>
<path d="M91.7605 120.728C93.5153 120.728 94.9379 119.305 94.9379 117.551C94.9379 115.796 93.5153 114.373 91.7605 114.373C90.0056 114.373 88.583 115.796 88.583 117.551C88.583 119.305 90.0056 120.728 91.7605 120.728Z" fill="#F12587"/>
<path d="M100.315 120.728C102.07 120.728 103.493 119.305 103.493 117.551C103.493 115.796 102.07 114.373 100.315 114.373C98.5603 114.373 97.1377 115.796 97.1377 117.551C97.1377 119.305 98.5603 120.728 100.315 120.728Z" fill="#FFE816"/>
<path d="M108.87 120.728C110.625 120.728 112.047 119.305 112.047 117.551C112.047 115.796 110.625 114.373 108.87 114.373C107.115 114.373 105.692 115.796 105.692 117.551C105.692 119.305 107.115 120.728 108.87 120.728Z" fill="#61D1DB"/>
<path opacity="0.2" d="M244.944 146.808H120.656V157.357H244.944V146.808Z" fill="#61D1DB"/>
<path opacity="0.1" d="M507.504 189.107H120.656V351.382H507.504V189.107Z" fill="#5A5773"/>
<path opacity="0.1" d="M347.16 199.69H340.537V186.824C340.537 172.305 328.961 160.236 314.442 160.016C310.941 159.979 307.468 160.636 304.222 161.947C300.976 163.259 298.021 165.2 295.529 167.659C293.036 170.118 291.055 173.046 289.7 176.274C288.344 179.502 287.64 182.966 287.629 186.467V199.69H281.02C278.1 199.699 275.301 200.863 273.236 202.929C271.17 204.994 270.006 207.793 269.997 210.713V263.616C270.006 266.536 271.17 269.335 273.236 271.4C275.301 273.466 278.1 274.63 281.02 274.639H347.16C350.081 274.63 352.879 273.466 354.943 271.4C357.008 269.335 358.171 266.536 358.179 263.616V210.713C358.171 207.793 357.008 204.994 354.943 202.929C352.879 200.864 350.081 199.699 347.16 199.69ZM317.952 234.08V253.027C317.959 254.031 317.583 254.999 316.903 255.736C316.222 256.473 315.287 256.924 314.286 256.997C313.764 257.021 313.242 256.939 312.752 256.756C312.262 256.573 311.814 256.293 311.436 255.932C311.057 255.571 310.756 255.137 310.55 254.656C310.345 254.175 310.238 253.658 310.238 253.135V234.07C308.45 233.198 307.01 231.746 306.153 229.95C305.297 228.154 305.074 226.121 305.522 224.182C305.969 222.244 307.061 220.514 308.618 219.275C310.175 218.037 312.106 217.362 314.095 217.362C316.085 217.362 318.016 218.037 319.573 219.275C321.13 220.514 322.221 222.244 322.669 224.182C323.116 226.121 322.894 228.154 322.037 229.95C321.18 231.746 319.741 233.198 317.952 234.07V234.08ZM332.832 199.69H295.343V186.467C295.343 181.498 297.317 176.732 300.831 173.218C304.345 169.704 309.111 167.73 314.081 167.73C319.05 167.73 323.816 169.704 327.33 173.218C330.844 176.732 332.818 181.498 332.818 186.467L332.832 199.69Z" fill="black"/>
<path d="M347.16 198.713H340.537V185.846C340.537 171.328 328.961 159.258 314.442 159.038C310.941 159.002 307.468 159.658 304.222 160.97C300.976 162.282 298.021 164.223 295.529 166.682C293.036 169.14 291.055 172.068 289.7 175.296C288.344 178.524 287.64 181.988 287.629 185.489V198.713H281.02C278.1 198.722 275.301 199.886 273.236 201.951C271.17 204.017 270.006 206.815 269.997 209.736V262.638C270.006 265.559 271.17 268.357 273.236 270.423C275.301 272.488 278.1 273.652 281.02 273.661H347.16C350.081 273.652 352.879 272.488 354.943 270.423C357.008 268.357 358.171 265.558 358.179 262.638V209.736C358.171 206.816 357.008 204.017 354.943 201.951C352.879 199.886 350.081 198.722 347.16 198.713ZM317.952 233.102V252.05C317.959 253.053 317.583 254.021 316.903 254.758C316.222 255.495 315.287 255.946 314.286 256.019C313.764 256.044 313.242 255.962 312.752 255.779C312.262 255.596 311.814 255.315 311.436 254.954C311.057 254.593 310.756 254.159 310.55 253.679C310.345 253.198 310.238 252.68 310.238 252.157V233.093C308.45 232.221 307.01 230.768 306.153 228.972C305.297 227.176 305.074 225.143 305.522 223.205C305.969 221.266 307.061 219.536 308.618 218.298C310.175 217.059 312.106 216.385 314.095 216.385C316.085 216.385 318.016 217.059 319.573 218.298C321.13 219.536 322.221 221.266 322.669 223.205C323.116 225.143 322.894 227.176 322.037 228.972C321.18 230.768 319.741 232.221 317.952 233.093V233.102ZM332.832 198.713H295.343V185.489C295.343 180.52 297.317 175.754 300.831 172.24C304.345 168.726 309.111 166.752 314.081 166.752C319.05 166.752 323.816 168.726 327.33 172.24C330.844 175.754 332.818 180.52 332.818 185.489L332.832 198.713Z" fill="#61D1DB"/>
<path opacity="0.1" d="M507.505 173.488H468.349V182.732H507.505V173.488Z" fill="#5A5773"/>
<path d="M486.245 225.613V231.694L473.77 237.966C473.77 237.966 461.383 230.472 464.438 227.49C466.393 225.603 466.017 220.422 465.489 216.858C465.181 214.785 464.824 213.265 464.824 213.265C464.824 213.265 487.076 206.91 483.713 211.735C482.588 213.348 482.5 215.436 482.877 217.503C483.639 221.605 486.245 225.613 486.245 225.613Z" fill="#FFB8B8"/>
<path d="M452.07 285.081L450.461 304.889C450.461 304.889 448.052 302.703 444.933 299.858C439.15 294.584 430.937 287.041 431.035 286.841C431.187 286.533 432.502 268.563 432.643 264.046C432.777 260.84 433.475 257.682 434.706 254.719C435 254.132 435.826 250.398 436.173 248.652C436.29 248.11 436.363 247.758 436.363 247.758L439.062 246.673C439.062 246.673 450.305 259.216 450.305 259.446C450.305 259.676 449.538 269.311 449.538 269.311L448.741 270.005L448.394 270.303C448.394 270.303 447.856 274.512 447.475 275.773C447.093 277.034 447.504 279.224 447.548 279.459C447.512 280.118 447.419 280.772 447.269 281.414C447.206 281.662 447.119 281.902 447.01 282.133C446.873 282.561 446.9 283.025 447.088 283.433C447.306 284 447.588 284.54 447.929 285.042L452.07 285.081Z" fill="#3F3D56"/>
<path d="M520.21 286.84C520.327 287.08 508.336 298.025 503.139 302.752L500.783 304.888L499.189 285.08H503.32C503.32 285.08 504.699 283.091 504.239 282.172C503.919 281.315 503.739 280.412 503.706 279.498C503.706 279.498 504.161 277.054 503.78 275.788C503.398 274.522 502.861 270.318 502.861 270.318L502.338 269.868L501.717 269.325C501.717 269.325 500.949 259.69 500.949 259.46C500.949 259.231 512.193 246.687 512.193 246.687L514.871 247.758C514.871 247.758 514.93 248.046 515.028 248.505C515.39 250.172 516.255 254.117 516.553 254.719C517.784 257.682 518.482 260.84 518.616 264.046C518.743 268.563 520.053 286.532 520.21 286.84Z" fill="#3F3D56"/>
<path d="M520.258 454.972C519.54 456.4 514.495 455.461 513.454 455.383C512.412 455.305 505.06 451.604 504.958 450.739C504.855 449.874 502.308 448.089 501.594 448.089C500.881 448.089 497.415 445.332 497.107 444.927C497.029 444.724 496.994 444.508 497.004 444.291C496.897 442.614 497.107 438.298 497.107 438.298L511.894 439.114L519.08 449.922C519.686 451.089 520.124 452.334 520.38 453.623C520.468 454.075 520.425 454.543 520.258 454.972Z" fill="#3F3D56"/>
<path opacity="0.1" d="M520.258 454.972C519.54 456.4 514.495 455.461 513.454 455.383C512.412 455.305 505.06 451.604 504.958 450.739C504.855 449.874 502.308 448.089 501.594 448.089C500.881 448.089 497.415 445.332 497.107 444.927C497.029 444.724 496.994 444.508 497.004 444.291C496.897 442.614 497.107 438.298 497.107 438.298L511.894 439.114L519.08 449.922C519.686 451.089 520.124 452.334 520.38 453.623C520.468 454.075 520.425 454.543 520.258 454.972Z" fill="black"/>
<path opacity="0.1" d="M520.258 454.972C519.539 456.399 514.494 455.461 513.453 455.383C512.412 455.304 505.06 451.604 504.957 450.739C504.854 449.873 502.308 448.089 501.594 448.089C500.88 448.089 497.414 445.332 497.106 444.926C497.028 444.724 496.993 444.507 497.004 444.291L501.794 447.322C501.794 447.322 504.854 449.277 505.671 450.435C506.487 451.594 512.92 454.004 513.453 454.053C513.849 454.092 518.073 453.281 520.38 453.623C520.467 454.075 520.425 454.543 520.258 454.972Z" fill="black"/>
<path d="M450.354 446.051C450.354 446.051 448.262 448.651 445.465 448.852C444.727 448.857 444.02 449.146 443.489 449.658C442.957 450.17 442.643 450.867 442.611 451.604C442.611 451.604 443.099 453.188 436.339 455.383C432.257 456.698 429.691 456.282 428.195 455.383C427.392 454.94 426.786 454.21 426.498 453.339C426.039 451.711 435.063 439.319 435.063 439.319L443.275 438.831L449.141 441.48L450.041 444.838L450.354 446.051Z" fill="#3F3D56"/>
<path opacity="0.1" d="M450.354 446.051C450.354 446.051 448.262 448.651 445.465 448.852C444.727 448.857 444.02 449.146 443.489 449.658C442.957 450.17 442.643 450.867 442.611 451.604C442.611 451.604 443.099 453.188 436.339 455.383C432.257 456.698 429.691 456.282 428.195 455.383C427.392 454.94 426.786 454.21 426.498 453.339C426.039 451.711 435.063 439.319 435.063 439.319L443.275 438.831L449.141 441.48L450.041 444.838L450.354 446.051Z" fill="black"/>
<path opacity="0.1" d="M450.354 446.051C450.354 446.051 448.262 448.651 445.466 448.852C444.728 448.857 444.021 449.146 443.489 449.658C442.958 450.17 442.644 450.867 442.611 451.604C442.611 451.604 443.1 453.188 436.339 455.383C432.258 456.698 429.691 456.282 428.195 455.383C432.042 454.982 440.543 452.552 441.394 451.711C442.416 450.69 443.691 447.884 444.557 447.835C445.158 447.796 448.213 445.958 450.046 444.819L450.354 446.051Z" fill="black"/>
<path d="M513.321 434.68C512.402 436.821 513.321 441.206 513.321 441.206C513.321 441.206 499.634 441.92 496.29 439.676C492.946 437.433 490.58 424.581 490.58 424.581C490.58 424.581 491.069 409.49 490.58 408.777C490.092 408.063 488.234 404.7 488.845 403.986C489.456 403.272 488.356 399.499 487.52 397.866C486.684 396.233 487.032 391.545 487.032 391.545L484.988 379.099L481.83 364.317L479.147 354.423C479.147 354.423 476.394 346.367 475.461 343.003C474.527 339.64 473.54 342.695 473.54 342.695C473.442 345.961 465.894 360.646 465.894 360.646C465.894 360.646 464.77 369.518 463.548 372.676C462.326 375.834 460.996 386.852 460.996 386.852C460.996 386.852 459.041 409.285 457.427 413.059C455.814 416.833 454.704 422.44 454.704 422.44C454.704 422.44 455.115 430.193 454.093 430.804C453.072 431.415 453.238 436.108 453.238 436.108C453.238 436.108 453.849 440.59 451.503 441.309C449.156 442.028 449.547 443.553 449.547 443.553C449.547 443.553 436.495 445.694 434.354 439.979C432.213 434.265 435.17 432.745 435.332 432.334C435.493 431.923 437.121 431.214 435.693 429.577C434.266 427.939 437.527 423.461 437.527 423.461C437.527 423.461 438.04 417.141 438.954 416.935C439.868 416.73 439.57 407.555 439.57 407.555L440.587 397.968C440.587 397.968 441.916 376.552 441.608 375.736C441.301 374.92 441.506 370.848 442.527 368.892C443.549 366.937 444.361 349.104 444.361 349.104C444.361 349.104 444.155 340.339 444.972 338.706C445.461 337.783 445.666 334.229 445.783 331.33C445.871 329.115 445.891 327.282 445.891 327.282L457.31 323L471.975 318.312L484.314 324.227L502.366 327.693L502.591 330.807L506.038 378.376L507.993 396.321C507.993 396.321 508.809 404.783 508.912 406.313C509.015 407.843 510.031 417.84 510.031 417.84C510.031 417.84 512.173 422.63 510.848 424.263C509.523 425.896 510.031 427.196 510.031 427.196C510.031 427.196 514.24 432.539 513.321 434.68Z" fill="#3F3D56"/>
<path opacity="0.1" d="M483.723 211.735C482.598 213.348 482.51 215.436 482.887 217.503C480.318 219.316 477.225 220.234 474.083 220.116C470.941 219.999 467.925 218.852 465.499 216.853C465.191 214.781 464.834 213.26 464.834 213.26C464.834 213.26 487.086 206.915 483.723 211.735Z" fill="black"/>
<path d="M488.923 205.497C488.923 208.33 488.083 211.1 486.51 213.455C484.936 215.81 482.699 217.646 480.082 218.73C477.464 219.814 474.584 220.098 471.806 219.545C469.028 218.993 466.476 217.628 464.472 215.625C462.469 213.622 461.105 211.07 460.553 208.292C460 205.513 460.284 202.633 461.368 200.016C462.452 197.399 464.288 195.162 466.643 193.588C468.998 192.015 471.768 191.174 474.6 191.174C476.484 191.165 478.35 191.53 480.092 192.246C481.834 192.963 483.417 194.018 484.748 195.349C486.08 196.681 487.135 198.264 487.852 200.006C488.568 201.747 488.932 203.614 488.923 205.497Z" fill="#FFB8B8"/>
<path opacity="0.1" d="M491.906 229.299L487.213 312.866L461.72 307.513L456.67 274.013L461.671 229.04L465.435 229.524L472.073 230.37L478.648 230.775L485.775 229.983L491.906 229.299Z" fill="black"/>
<path d="M491.906 229.91L487.213 313.477L461.72 308.125L456.67 274.624L461.671 229.656L465.435 230.135L472.073 230.981L478.648 231.387L485.775 230.595L491.906 229.91Z" fill="#DB61CF"/>
<path d="M470.949 232.154L480.13 232.462L477.549 236.075C477.549 236.075 477.729 243.373 478.956 245.465C480.183 247.557 479.822 279.879 479.822 279.879L477.377 284.519L473.198 279.317L473.252 236.642L470.949 232.154Z" fill="#3F3D56"/>
<path opacity="0.1" d="M470.949 232.154L480.13 232.462L477.549 236.075C477.549 236.075 477.729 243.373 478.956 245.465C480.183 247.557 479.822 279.879 479.822 279.879L477.377 284.519L473.198 279.317L473.252 236.642L470.949 232.154Z" fill="black"/>
<path opacity="0.1" d="M485.325 222.671L476.761 232.154L481.654 237.253L489.764 229.348L485.325 222.671Z" fill="black"/>
<path d="M485.325 222.06L476.761 231.543L481.654 236.642L489.764 228.737L485.325 222.06Z" fill="#DB61CF"/>
<path opacity="0.1" d="M473.144 231.694L464.472 223.027L463.655 227.564L467.634 237.507L473.144 231.694Z" fill="black"/>
<path d="M473.447 231.084L464.78 222.417L463.964 226.953L467.943 236.896L473.447 231.084Z" fill="#DB61CF"/>
<path opacity="0.1" d="M502.635 330.821C498.473 332.804 494.015 334.094 489.437 334.639C481.024 335.71 475.519 325.004 475.519 325.004L472.308 329.184C471.286 333.622 455.736 334.742 449.415 333.06C448.104 332.736 446.87 332.153 445.788 331.344C445.876 329.13 445.896 327.297 445.896 327.297L457.315 323.015L471.98 318.327L484.318 324.242L502.371 327.707L502.635 330.821Z" fill="black"/>
<path opacity="0.1" d="M491.905 229.915L487.218 313.477L461.72 308.125L456.66 274.629L461.656 229.656L465.42 230.145C465.324 231.783 465.14 233.415 464.868 235.033C464.257 237.893 468.031 258.185 468.031 258.185C468.031 258.185 475.202 280.94 478.428 277.66C481.655 274.38 486.25 257.06 486.25 257.06C489.364 250.637 486.303 232.618 486.074 232.257C485.914 231.724 485.815 231.174 485.78 230.619L491.905 229.915Z" fill="black"/>
<path opacity="0.1" d="M502.919 294.579L503.134 302.767L500.778 304.903L499.189 285.081H502.709L502.919 294.579Z" fill="black"/>
<path opacity="0.1" d="M447.553 279.474C447.517 280.132 447.424 280.786 447.275 281.429C447.275 281.248 447.275 281.145 447.235 281.131C447.089 281.092 447.265 280.344 447.553 279.474Z" fill="black"/>
<path opacity="0.1" d="M452.07 285.081L450.461 304.889C450.461 304.889 448.051 302.703 444.933 299.858L445.304 296.348C445.304 296.348 446.619 287.725 447.098 283.472C447.315 284.039 447.598 284.579 447.939 285.081H452.07Z" fill="black"/>
<path d="M465.9 222.719C465.9 222.719 464.374 220.476 462.282 224.807C462.282 224.807 456.827 227.97 454.95 228.326C453.072 228.683 446.395 231.03 446.395 231.03C445.386 231.759 444.173 232.15 442.929 232.149C440.837 232.149 439.101 236.739 439.356 239.237C439.61 241.735 439.204 243.573 437.268 243.676C435.332 243.779 436.398 247.802 436.398 247.802L449.299 262.589C449.299 262.589 450.115 276.203 449.709 276.614C449.303 277.025 447.822 281.014 448.179 281.15C448.536 281.287 446.224 296.344 446.224 296.344L443.115 325.561C443.115 325.561 443.115 330.45 449.44 332.136C455.766 333.823 471.326 332.708 472.328 328.27L475.539 324.085C475.539 324.085 481.044 334.796 489.457 333.725C497.87 332.655 503.227 329.594 503.227 329.594L502.308 294.579L501.697 269.34L514.832 247.758C514.832 247.758 511.313 241.026 511.621 237.981C511.929 234.936 512.535 232.628 505.041 231.558C505.041 231.558 498.72 230.614 494.995 228.038C492.782 226.501 490.363 225.283 487.809 224.421C487.809 224.421 485.707 220.51 484.246 221.849C484.246 221.849 485.712 227.378 485.59 228.204C485.468 229.03 485.82 232.765 486.05 233.151C486.279 233.537 489.339 251.532 486.226 257.955C486.226 257.955 481.655 275.275 478.404 278.555C475.153 281.835 468.006 259.079 468.006 259.079C468.006 259.079 464.233 238.783 464.844 235.928C465.455 233.073 465.9 222.719 465.9 222.719Z" fill="#3F3D56"/>
<path d="M476.81 289.568C478.049 289.568 479.054 288.564 479.054 287.325C479.054 286.085 478.049 285.081 476.81 285.081C475.571 285.081 474.566 286.085 474.566 287.325C474.566 288.564 475.571 289.568 476.81 289.568Z" fill="#3F3D56"/>
<path d="M476.81 300.147C478.049 300.147 479.054 299.142 479.054 297.903C479.054 296.664 478.049 295.659 476.81 295.659C475.571 295.659 474.566 296.664 474.566 297.903C474.566 299.142 475.571 300.147 476.81 300.147Z" fill="#3F3D56"/>
<path d="M476.81 289.568C478.049 289.568 479.054 288.564 479.054 287.325C479.054 286.085 478.049 285.081 476.81 285.081C475.571 285.081 474.566 286.085 474.566 287.325C474.566 288.564 475.571 289.568 476.81 289.568Z" fill="#DB61CF"/>
<path d="M476.81 300.147C478.049 300.147 479.054 299.142 479.054 297.903C479.054 296.664 478.049 295.659 476.81 295.659C475.571 295.659 474.566 296.664 474.566 297.903C474.566 299.142 475.571 300.147 476.81 300.147Z" fill="#DB61CF"/>
<path opacity="0.1" d="M496.975 431.62C496.975 431.62 506.184 432.334 507.099 433.048C508.013 433.761 496.975 431.62 496.975 431.62Z" fill="black" stroke="#61D1DB" stroke-miterlimit="10"/>
<path opacity="0.1" d="M442.142 424.38C442.142 424.38 444.097 426.824 443.266 427.949C442.435 429.073 442.142 424.38 442.142 424.38Z" fill="black" stroke="#61D1DB" stroke-miterlimit="10"/>
<path opacity="0.1" d="M444.488 433.194C444.488 433.194 448.057 430.848 449.484 432.407C450.912 433.966 444.488 433.194 444.488 433.194Z" fill="black" stroke="#61D1DB" stroke-miterlimit="10"/>
<g opacity="0.1">
<path opacity="0.1" d="M463.294 204.173C463.04 205.37 462.194 206.729 460.977 206.583C460.6 206.534 460.258 206.343 459.887 206.26C458.865 206.035 458.259 206.993 457.296 206.749C456.817 206.612 456.372 206.379 455.987 206.063C455.602 205.748 455.286 205.358 455.057 204.916C454.801 204.418 454.647 203.875 454.602 203.317C454.505 204.183 454.663 205.058 455.057 205.835C455.286 206.277 455.602 206.667 455.987 206.982C456.372 207.298 456.817 207.531 457.296 207.668C458.273 207.893 458.865 206.935 459.887 207.179C460.244 207.304 460.608 207.41 460.977 207.497C462.194 207.648 463.04 206.289 463.294 205.092C463.494 204.034 463.573 202.956 463.529 201.88C463.524 202.65 463.445 203.418 463.294 204.173Z" fill="black"/>
<path opacity="0.1" d="M456.597 196.811C456.659 196.01 456.549 195.205 456.274 194.45C456.053 193.948 455.865 193.432 455.712 192.905C455.691 192.987 455.674 193.07 455.663 193.154C455.58 193.922 456.01 194.621 456.274 195.369C456.445 195.833 456.553 196.318 456.597 196.811Z" fill="black"/>
<path opacity="0.1" d="M493.944 194.235C493.714 195.623 492.59 196.928 492.477 198.39C492.45 198.64 492.45 198.892 492.477 199.143C492.722 197.437 494.232 195.926 493.944 194.235Z" fill="black"/>
<path opacity="0.1" d="M494.028 204.549C493.986 204.754 493.89 204.943 493.749 205.097C493.387 205.483 492.771 205.512 492.282 205.703C491.094 206.158 490.327 207.595 489.036 207.58C488.706 207.561 488.389 207.443 488.127 207.241C487.865 207.038 487.671 206.761 487.57 206.446C487.54 206.552 487.517 206.66 487.501 206.769C487.488 206.983 487.516 207.197 487.586 207.4C487.655 207.603 487.764 207.79 487.907 207.95C488.049 208.111 488.222 208.242 488.415 208.335C488.608 208.428 488.817 208.482 489.032 208.494C490.307 208.494 491.09 207.072 492.277 206.622C492.766 206.431 493.363 206.402 493.744 206.016C493.888 205.83 493.989 205.616 494.041 205.387C494.094 205.158 494.096 204.921 494.047 204.691C494.042 204.632 494.032 204.593 494.028 204.549Z" fill="black"/>
<path opacity="0.1" d="M487.898 204.143C487.775 203.254 486.7 202.892 486.133 202.188C485.785 201.726 485.597 201.163 485.595 200.585C485.556 201.494 485.571 202.423 486.133 203.107C486.695 203.791 487.55 204.085 487.824 204.789C487.893 204.581 487.918 204.361 487.898 204.143Z" fill="black"/>
<path opacity="0.1" d="M485.624 199.025C485.663 197.925 485.399 196.581 484.368 196.205C484.065 196.092 483.727 196.078 483.429 195.955C482.618 195.613 482.364 194.606 481.826 193.912C480.736 192.519 478.58 192.543 476.937 193.208C476.204 193.506 475.505 193.902 474.743 194.127C474.368 194.259 473.97 194.312 473.573 194.283C473.177 194.253 472.791 194.142 472.44 193.956C472.118 193.751 471.854 193.467 471.526 193.262C470.416 192.597 468.969 193.262 468.016 194.117C467.063 194.973 466.291 196.117 465.083 196.645C464.536 196.889 463.871 197.036 463.587 197.564C463.463 197.851 463.411 198.165 463.436 198.478C463.436 198.668 463.436 198.859 463.436 199.05C463.442 198.853 463.491 198.66 463.578 198.483C463.861 197.955 464.526 197.808 465.073 197.564C466.256 197.036 467.029 195.911 468.006 195.036C468.984 194.161 470.407 193.516 471.516 194.181C471.844 194.376 472.108 194.67 472.43 194.87C472.781 195.057 473.167 195.169 473.564 195.199C473.96 195.228 474.358 195.175 474.733 195.041C475.48 194.775 476.213 194.47 476.928 194.127C478.565 193.462 480.721 193.433 481.816 194.826C482.354 195.52 482.608 196.527 483.419 196.87C483.718 196.997 484.055 197.011 484.358 197.124C485.194 197.437 485.526 198.375 485.6 199.304L485.624 199.025Z" fill="black"/>
</g>
<g opacity="0.1">
<path opacity="0.1" d="M461.548 204.144C461.576 203.332 461.867 202.552 462.376 201.92C462.886 201.288 463.587 200.838 464.374 200.639C466.554 200.106 468.841 200.209 470.963 200.937C475.602 202.472 470.377 207.996 470.377 207.996C470.377 207.996 466.901 211.417 463.66 209.027C462.703 208.303 462.033 207.264 461.768 206.094C461.61 205.456 461.536 204.801 461.548 204.144Z" fill="black"/>
<path opacity="0.1" d="M487.051 204.144C487.023 203.332 486.731 202.551 486.221 201.919C485.71 201.286 485.008 200.837 484.221 200.639C482.042 200.107 479.757 200.21 477.636 200.937C472.997 202.472 478.222 207.996 478.222 207.996C478.222 207.996 481.693 211.417 484.939 209.027C485.896 208.304 486.567 207.264 486.831 206.094C486.99 205.456 487.064 204.801 487.051 204.144Z" fill="black"/>
<path opacity="0.1" d="M470.088 200.487V200.717H478.559V200.443L470.088 200.487Z" fill="black"/>
<path opacity="0.1" d="M472.791 202.936H473.06V202.159C473.06 202.159 473.921 201.489 475.348 202.159V202.853H475.837V202.398H475.597C475.597 202.398 475.695 201.455 474.101 201.606C474.101 201.606 472.821 201.484 472.85 202.296H472.557L472.791 202.936Z" fill="black"/>
</g>
<path d="M461.548 203.826C461.576 203.014 461.867 202.234 462.377 201.602C462.886 200.97 463.587 200.52 464.374 200.321C466.554 199.791 468.84 199.895 470.963 200.619C475.603 202.159 470.377 207.678 470.377 207.678C470.377 207.678 466.901 211.1 463.66 208.709C462.701 207.987 462.03 206.948 461.768 205.776C461.609 205.139 461.535 204.483 461.548 203.826Z" fill="#6361DB"/>
<path d="M487.051 203.826C487.023 203.014 486.731 202.233 486.221 201.601C485.71 200.969 485.008 200.52 484.221 200.321C482.042 199.791 479.758 199.895 477.636 200.619C472.997 202.159 478.222 207.678 478.222 207.678C478.222 207.678 481.693 211.1 484.939 208.709C485.898 207.988 486.569 206.948 486.831 205.776C486.99 205.139 487.064 204.483 487.051 203.826Z" fill="#6361DB"/>
<path d="M470.088 200.179V200.414H478.56V200.135L470.088 200.179Z" fill="#6361DB"/>
<path d="M472.792 202.628H473.061V201.851C473.061 201.851 473.921 201.186 475.349 201.851V202.55H475.838V202.09H475.598C475.598 202.09 475.696 201.152 474.102 201.298C474.102 201.298 472.822 201.181 472.851 201.988H472.558L472.792 202.628Z" fill="#6361DB"/>
<path d="M470.678 195.495C472.864 195.191 475.068 194.997 477.279 194.913C478.881 194.853 480.55 194.862 481.997 195.475C484.18 196.398 485.403 198.486 486.203 200.513C487.004 202.539 487.572 204.705 489.057 206.4C491.528 204.108 492.022 200.701 492.39 197.544C492.649 195.324 492.878 192.956 491.723 190.974C491.011 189.753 489.837 188.801 488.647 187.922C482.969 183.723 475.757 180.419 468.446 181.362L468.275 182.365C467.028 182.331 465.779 182.401 464.546 182.573L464.807 185.061L460.924 185.28L460.775 187.873L456.847 187.994C456.923 188.99 457.411 189.927 458.217 190.622C457.613 191.01 456.927 191.286 456.2 191.432C456.855 193.684 457.491 195.942 458.167 198.189C460.867 202.2 460.4 203.133 461.334 201.267C462.734 200.333 463.127 197.928 464.665 197.12C466.478 196.168 468.623 195.78 470.678 195.495Z" fill="#6D3004"/>
</g>
<defs>
<linearGradient id="paint0_linear" x1="314.051" y1="373.829" x2="314.051" y2="110.672" gradientUnits="userSpaceOnUse">
<stop stop-color="#808080" stop-opacity="0.25"/>
<stop offset="0.54" stop-color="#808080" stop-opacity="0.12"/>
<stop offset="1" stop-color="#808080" stop-opacity="0.1"/>
</linearGradient>
<clipPath id="clip0">
<rect width="560" height="400.805" fill="white" transform="translate(25 58)"/>
</clipPath>
</defs>
</svg>
