<svg width="600" height="430" viewBox="0 0 600 430" fill="none" xmlns="http://www.w3.org/2000/svg">
<g clip-path="url(#clip0)">
<path opacity="0.1" d="M477.802 429.433C523.081 429.433 559.786 425.869 559.786 421.472C559.786 417.076 523.081 413.511 477.802 413.511C432.524 413.511 395.819 417.076 395.819 421.472C395.819 425.869 432.524 429.433 477.802 429.433Z" fill="#61D1DB"/>
<path d="M552.029 56.4348H67.3708C63.7579 56.4348 60.8291 59.3636 60.8291 62.9765V331.847C60.8291 335.46 63.7579 338.389 67.3708 338.389H552.029C555.642 338.389 558.571 335.46 558.571 331.847V62.9765C558.571 59.3636 555.642 56.4348 552.029 56.4348Z" fill="url(#paint0_linear)"/>
<path d="M551.296 60.3997H68.1616C64.5487 60.3997 61.6199 63.3285 61.6199 66.9414V330.91C61.6199 334.522 64.5487 337.451 68.1616 337.451H551.296C554.909 337.451 557.837 334.522 557.837 330.91V66.9414C557.837 63.3285 554.909 60.3997 551.296 60.3997Z" fill="white"/>
<path d="M551.296 60.3997H68.1616C64.5487 60.3997 61.6199 63.3285 61.6199 66.9414V330.91C61.6199 334.522 64.5487 337.451 68.1616 337.451H551.296C554.909 337.451 557.837 334.522 557.837 330.91V66.9414C557.837 63.3285 554.909 60.3997 551.296 60.3997Z" fill="white"/>
<path opacity="0.04" d="M551.296 60.3997H68.1616C64.5487 60.3997 61.6199 63.3285 61.6199 66.9414V330.91C61.6199 334.522 64.5487 337.451 68.1616 337.451H551.296C554.909 337.451 557.837 334.522 557.837 330.91V66.9414C557.837 63.3285 554.909 60.3997 551.296 60.3997Z" fill="white"/>
<path d="M555.318 57.2205H64.1391C63.471 57.2205 62.8302 57.4859 62.3578 57.9583C61.8853 58.4308 61.6199 59.0716 61.6199 59.7397V70.3877H557.817V59.7397C557.817 59.0752 557.554 58.4376 557.086 57.9657C556.618 57.4938 555.983 57.226 555.318 57.2205Z" fill="#5A5773"/>
<path d="M71.5294 67.2085C73.4096 67.2085 74.9338 65.6843 74.9338 63.8041C74.9338 61.9239 73.4096 60.3997 71.5294 60.3997C69.6492 60.3997 68.125 61.9239 68.125 63.8041C68.125 65.6843 69.6492 67.2085 71.5294 67.2085Z" fill="white"/>
<path d="M80.6952 67.2085C82.5754 67.2085 84.0996 65.6843 84.0996 63.8041C84.0996 61.9239 82.5754 60.3997 80.6952 60.3997C78.815 60.3997 77.2908 61.9239 77.2908 63.8041C77.2908 65.6843 78.815 67.2085 80.6952 67.2085Z" fill="white"/>
<path d="M89.861 67.2085C91.7412 67.2085 93.2654 65.6843 93.2654 63.8041C93.2654 61.9239 91.7412 60.3997 89.861 60.3997C87.9808 60.3997 86.4565 61.9239 86.4565 63.8041C86.4565 65.6843 87.9808 67.2085 89.861 67.2085Z" fill="white"/>
<path opacity="0.2" d="M235.654 95.1509H102.489V106.454H235.654V95.1509Z" fill="#61D1DB"/>
<path opacity="0.1" d="M516.969 140.471H102.489V314.338H516.969V140.471Z" fill="#5A5773"/>
<path opacity="0.1" d="M345.171 151.811H338.074V138.026C338.074 122.47 325.672 109.539 310.116 109.303C306.365 109.263 302.644 109.967 299.166 111.372C295.688 112.778 292.522 114.858 289.852 117.492C287.181 120.126 285.059 123.263 283.606 126.722C282.154 130.18 281.4 133.892 281.388 137.643V151.811H274.307C271.178 151.821 268.179 153.068 265.966 155.281C263.753 157.494 262.506 160.492 262.496 163.622V220.303C262.506 223.432 263.753 226.431 265.966 228.643C268.179 230.856 271.178 232.104 274.307 232.113H345.171C348.3 232.104 351.298 230.856 353.51 228.643C355.722 226.43 356.969 223.432 356.977 220.303V163.622C356.969 160.493 355.722 157.494 353.51 155.281C351.298 153.068 348.3 151.821 345.171 151.811ZM313.877 188.657V208.958C313.884 210.033 313.482 211.07 312.752 211.86C312.023 212.65 311.021 213.133 309.949 213.211C309.389 213.237 308.83 213.15 308.305 212.953C307.78 212.757 307.3 212.457 306.895 212.07C306.49 211.683 306.167 211.218 305.946 210.703C305.726 210.188 305.612 209.634 305.612 209.073V188.647C303.696 187.712 302.153 186.156 301.235 184.232C300.318 182.308 300.079 180.13 300.558 178.053C301.038 175.975 302.207 174.122 303.876 172.795C305.544 171.468 307.613 170.745 309.744 170.745C311.876 170.745 313.945 171.468 315.613 172.795C317.282 174.122 318.451 175.975 318.93 178.053C319.41 180.13 319.171 182.308 318.254 184.232C317.336 186.156 315.793 187.712 313.877 188.647V188.657ZM329.82 151.811H289.653V137.643C289.653 132.319 291.768 127.213 295.533 123.448C299.298 119.683 304.404 117.568 309.729 117.568C315.053 117.568 320.159 119.683 323.924 123.448C327.689 127.213 329.804 132.319 329.804 137.643L329.82 151.811Z" fill="black"/>
<path d="M345.171 150.763H338.074V136.978C338.074 121.422 325.672 108.491 310.116 108.255C306.365 108.216 302.644 108.919 299.166 110.325C295.688 111.73 292.522 113.81 289.852 116.444C287.181 119.079 285.059 122.216 283.606 125.674C282.154 129.133 281.4 132.845 281.388 136.596V150.763H274.307C271.178 150.773 268.179 152.02 265.966 154.233C263.753 156.446 262.506 159.445 262.496 162.574V219.255C262.506 222.384 263.753 225.383 265.966 227.596C268.179 229.809 271.178 231.056 274.307 231.066H345.171C348.3 231.056 351.298 229.808 353.51 227.595C355.722 225.382 356.969 222.384 356.977 219.255V162.574C356.969 159.445 355.722 156.447 353.51 154.234C351.298 152.021 348.3 150.773 345.171 150.763ZM313.877 187.61V207.91C313.884 208.985 313.482 210.023 312.752 210.812C312.023 211.602 311.021 212.085 309.949 212.163C309.389 212.19 308.83 212.102 308.305 211.906C307.78 211.71 307.3 211.409 306.895 211.022C306.49 210.636 306.167 210.171 305.946 209.656C305.726 209.14 305.612 208.586 305.612 208.026V187.599C303.696 186.665 302.153 185.108 301.235 183.184C300.318 181.26 300.079 179.082 300.558 177.005C301.038 174.928 302.207 173.074 303.876 171.747C305.544 170.42 307.613 169.698 309.744 169.698C311.876 169.698 313.945 170.42 315.613 171.747C317.282 173.074 318.451 174.928 318.93 177.005C319.41 179.082 319.171 181.26 318.254 183.184C317.336 185.108 315.793 186.665 313.877 187.599V187.61ZM329.82 150.763H289.653V136.596C289.653 131.271 291.768 126.165 295.533 122.4C299.298 118.635 304.404 116.52 309.729 116.52C315.053 116.52 320.159 118.635 323.924 122.4C327.689 126.165 329.804 131.271 329.804 136.596L329.82 150.763Z" fill="#61D1DB"/>
<path opacity="0.1" d="M516.969 123.738H475.016V133.642H516.969V123.738Z" fill="#5A5773"/>
<path d="M494.191 179.586V186.101L480.824 192.821C480.824 192.821 467.552 184.792 470.826 181.597C472.921 179.575 472.518 174.023 471.952 170.205C471.622 167.985 471.24 166.356 471.24 166.356C471.24 166.356 495.081 159.547 491.478 164.716C490.273 166.445 490.179 168.681 490.582 170.897C491.399 175.291 494.191 179.586 494.191 179.586Z" fill="#FFB8B8"/>
<path d="M457.575 243.301L455.852 264.523C455.852 264.523 453.27 262.182 449.928 259.134C443.732 253.483 434.933 245.401 435.038 245.186C435.2 244.856 436.609 225.603 436.761 220.763C436.904 217.328 437.652 213.945 438.971 210.77C439.285 210.142 440.17 206.14 440.542 204.27C440.668 203.689 440.746 203.312 440.746 203.312L443.638 202.149C443.638 202.149 455.684 215.589 455.684 215.835C455.684 216.081 454.862 226.404 454.862 226.404L454.008 227.148L453.636 227.468C453.636 227.468 453.06 231.977 452.652 233.328C452.243 234.68 452.683 237.026 452.73 237.278C452.692 237.983 452.592 238.684 452.432 239.373C452.363 239.637 452.27 239.895 452.154 240.142C452.006 240.601 452.036 241.098 452.238 241.536C452.47 242.143 452.773 242.721 453.139 243.259L457.575 243.301Z" fill="#3F3D56"/>
<path d="M530.581 245.186C530.707 245.443 517.859 257.17 512.292 262.234L509.767 264.523L508.06 243.301H512.486C512.486 243.301 513.963 241.169 513.47 240.184C513.127 239.266 512.934 238.299 512.899 237.319C512.899 237.319 513.386 234.701 512.978 233.344C512.569 231.988 511.993 227.483 511.993 227.483L511.433 227.001L510.768 226.42C510.768 226.42 509.945 216.097 509.945 215.851C509.945 215.604 521.992 202.165 521.992 202.165L524.862 203.312C524.862 203.312 524.925 203.621 525.03 204.113C525.417 205.899 526.344 210.126 526.664 210.77C527.983 213.945 528.731 217.328 528.874 220.763C529.01 225.603 530.414 244.856 530.581 245.186Z" fill="#3F3D56"/>
<path d="M530.634 425.327C529.864 426.857 524.459 425.851 523.343 425.767C522.227 425.683 514.35 421.719 514.24 420.792C514.13 419.864 511.401 417.953 510.637 417.953C509.872 417.953 506.159 414.999 505.829 414.564C505.745 414.347 505.708 414.115 505.719 413.883C505.603 412.087 505.829 407.462 505.829 407.462L521.672 408.337L529.371 419.917C530.02 421.166 530.489 422.501 530.765 423.882C530.858 424.366 530.813 424.867 530.634 425.327Z" fill="#3F3D56"/>
<path opacity="0.1" d="M530.634 425.327C529.864 426.857 524.459 425.851 523.343 425.767C522.227 425.683 514.35 421.719 514.24 420.792C514.13 419.864 511.401 417.953 510.637 417.953C509.872 417.953 506.159 414.999 505.829 414.564C505.745 414.347 505.708 414.115 505.719 413.883C505.603 412.087 505.829 407.462 505.829 407.462L521.672 408.337L529.371 419.917C530.02 421.166 530.489 422.501 530.765 423.882C530.858 424.366 530.813 424.867 530.634 425.327Z" fill="black"/>
<path opacity="0.1" d="M530.634 425.327C529.864 426.857 524.459 425.851 523.343 425.767C522.227 425.683 514.35 421.718 514.24 420.791C514.13 419.864 511.401 417.953 510.637 417.953C509.872 417.953 506.159 414.999 505.829 414.564C505.745 414.347 505.708 414.115 505.719 413.883L510.851 417.13C510.851 417.13 514.13 419.225 515.005 420.467C515.88 421.708 522.772 424.29 523.343 424.342C523.767 424.384 528.293 423.515 530.765 423.882C530.858 424.366 530.813 424.867 530.634 425.327Z" fill="black"/>
<path d="M455.736 415.769C455.736 415.769 453.495 418.555 450.499 418.77C449.708 418.776 448.95 419.085 448.381 419.634C447.812 420.182 447.475 420.929 447.44 421.718C447.44 421.718 447.964 423.415 440.72 425.767C436.347 427.176 433.597 426.731 431.995 425.767C431.134 425.292 430.485 424.511 430.177 423.578C429.685 421.834 439.353 408.556 439.353 408.556L448.152 408.033L454.438 410.871L455.401 414.47L455.736 415.769Z" fill="#3F3D56"/>
<path opacity="0.1" d="M455.736 415.769C455.736 415.769 453.495 418.555 450.499 418.77C449.708 418.776 448.95 419.085 448.381 419.634C447.812 420.182 447.475 420.929 447.44 421.718C447.44 421.718 447.964 423.415 440.72 425.767C436.347 427.176 433.597 426.731 431.995 425.767C431.134 425.292 430.485 424.511 430.177 423.578C429.685 421.834 439.353 408.556 439.353 408.556L448.152 408.033L454.438 410.871L455.401 414.47L455.736 415.769Z" fill="black"/>
<path opacity="0.1" d="M455.736 415.769C455.736 415.769 453.495 418.555 450.499 418.77C449.708 418.776 448.95 419.085 448.381 419.634C447.812 420.182 447.475 420.929 447.44 421.718C447.44 421.718 447.964 423.415 440.72 425.767C436.347 427.176 433.597 426.731 431.995 425.767C436.117 425.338 445.225 422.735 446.136 421.834C447.231 420.739 448.598 417.733 449.525 417.68C450.169 417.638 453.442 415.669 455.406 414.449L455.736 415.769Z" fill="black"/>
<path d="M523.202 403.586C522.217 405.88 523.202 410.578 523.202 410.578C523.202 410.578 508.537 411.343 504.954 408.939C501.372 406.535 498.837 392.765 498.837 392.765C498.837 392.765 499.36 376.597 498.837 375.832C498.313 375.067 496.323 371.464 496.977 370.699C497.632 369.935 496.453 365.891 495.558 364.142C494.662 362.393 495.034 357.37 495.034 357.37L492.845 344.035L489.461 328.196L486.586 317.596C486.586 317.596 483.637 308.964 482.637 305.361C481.636 301.757 480.578 305.031 480.578 305.031C480.474 308.529 472.387 324.263 472.387 324.263C472.387 324.263 471.182 333.769 469.873 337.153C468.563 340.536 467.139 352.342 467.139 352.342C467.139 352.342 465.044 376.377 463.315 380.42C461.587 384.464 460.398 390.471 460.398 390.471C460.398 390.471 460.838 398.778 459.743 399.433C458.649 400.087 458.827 405.115 458.827 405.115C458.827 405.115 459.481 409.918 456.967 410.688C454.453 411.458 454.872 413.092 454.872 413.092C454.872 413.092 440.888 415.386 438.594 409.264C436.3 403.141 439.469 401.512 439.642 401.072C439.814 400.632 441.558 399.873 440.029 398.118C438.5 396.363 441.993 391.566 441.993 391.566C441.993 391.566 442.543 384.794 443.523 384.574C444.502 384.354 444.182 374.523 444.182 374.523L445.272 364.252C445.272 364.252 446.697 341.306 446.367 340.431C446.037 339.557 446.257 335.194 447.351 333.099C448.446 331.004 449.315 311.897 449.315 311.897C449.315 311.897 449.095 302.506 449.97 300.757C450.494 299.767 450.714 295.959 450.839 292.853C450.934 290.481 450.955 288.517 450.955 288.517L463.19 283.929L478.902 278.906L492.122 285.243L511.464 288.957L511.705 292.293L515.398 343.26L517.493 362.487C517.493 362.487 518.367 371.553 518.477 373.192C518.587 374.832 519.677 385.543 519.677 385.543C519.677 385.543 521.971 390.675 520.552 392.425C519.132 394.174 519.677 395.567 519.677 395.567C519.677 395.567 524.186 401.292 523.202 403.586Z" fill="#3F3D56"/>
<path opacity="0.1" d="M491.488 164.716C490.284 166.445 490.189 168.681 490.593 170.897C487.84 172.838 484.526 173.822 481.16 173.696C477.794 173.57 474.562 172.342 471.963 170.2C471.633 167.979 471.25 166.35 471.25 166.35C471.25 166.35 495.092 159.552 491.488 164.716Z" fill="black"/>
<path d="M497.061 158.033C497.061 161.068 496.161 164.035 494.474 166.559C492.788 169.082 490.392 171.049 487.587 172.211C484.783 173.372 481.698 173.676 478.721 173.084C475.744 172.492 473.01 171.031 470.863 168.884C468.717 166.738 467.256 164.004 466.664 161.027C466.071 158.05 466.375 154.964 467.537 152.16C468.698 149.356 470.665 146.959 473.189 145.273C475.713 143.587 478.68 142.687 481.715 142.687C483.733 142.677 485.733 143.068 487.599 143.835C489.465 144.603 491.161 145.733 492.588 147.16C494.015 148.587 495.145 150.283 495.912 152.149C496.68 154.015 497.07 156.015 497.061 158.033Z" fill="#FFB8B8"/>
<path opacity="0.1" d="M500.256 183.535L495.228 273.071L467.914 267.336L462.503 231.443L467.861 183.257L471.894 183.776L479.007 184.682L486.052 185.117L493.688 184.268L500.256 183.535Z" fill="black"/>
<path d="M500.256 184.19L495.228 273.726L467.914 267.991L462.503 232.098L467.861 183.917L471.894 184.431L479.007 185.337L486.052 185.771L493.688 184.923L500.256 184.19Z" fill="#61D1DB"/>
<path d="M477.802 186.594L487.638 186.924L484.873 190.794C484.873 190.794 485.067 198.614 486.381 200.856C487.696 203.097 487.308 237.728 487.308 237.728L484.69 242.699L480.212 237.126L480.269 191.402L477.802 186.594Z" fill="#3F3D56"/>
<path opacity="0.1" d="M477.802 186.594L487.638 186.924L484.873 190.794C484.873 190.794 485.067 198.614 486.381 200.856C487.696 203.097 487.308 237.728 487.308 237.728L484.69 242.699L480.212 237.126L480.269 191.402L477.802 186.594Z" fill="black"/>
<path opacity="0.1" d="M493.206 176.433L484.03 186.594L489.273 192.056L497.962 183.587L493.206 176.433Z" fill="black"/>
<path d="M493.206 175.778L484.03 185.939L489.273 191.402L497.962 182.933L493.206 175.778Z" fill="#61D1DB"/>
<path opacity="0.1" d="M480.154 186.101L470.862 176.815L469.988 181.676L474.251 192.329L480.154 186.101Z" fill="black"/>
<path d="M480.479 185.447L471.193 176.16L470.318 181.021L474.581 191.674L480.479 185.447Z" fill="#61D1DB"/>
<path opacity="0.1" d="M511.752 292.309C507.293 294.433 502.516 295.815 497.611 296.399C488.597 297.546 482.7 286.076 482.7 286.076L479.259 290.554C478.164 295.31 461.503 296.509 454.731 294.707C453.326 294.36 452.004 293.735 450.845 292.869C450.939 290.496 450.96 288.532 450.96 288.532L463.195 283.944L478.908 278.921L492.127 285.259L511.47 288.972L511.752 292.309Z" fill="black"/>
<path opacity="0.1" d="M500.256 184.195L495.233 273.726L467.914 267.991L462.493 232.103L467.846 183.917L471.879 184.441C471.776 186.196 471.578 187.945 471.287 189.679C470.632 192.743 474.676 214.484 474.676 214.484C474.676 214.484 482.359 238.865 485.816 235.35C489.273 231.836 494.196 213.279 494.196 213.279C497.532 206.397 494.254 187.091 494.007 186.704C493.836 186.133 493.73 185.544 493.693 184.949L500.256 184.195Z" fill="black"/>
<path opacity="0.1" d="M512.056 253.477L512.287 262.25L509.762 264.539L508.06 243.301H511.831L512.056 253.477Z" fill="black"/>
<path opacity="0.1" d="M452.735 237.293C452.697 237.999 452.597 238.7 452.437 239.388C452.437 239.194 452.437 239.084 452.395 239.069C452.238 239.027 452.426 238.225 452.735 237.293Z" fill="black"/>
<path opacity="0.1" d="M457.575 243.301L455.852 264.523C455.852 264.523 453.27 262.182 449.928 259.134L450.326 255.373C450.326 255.373 451.735 246.134 452.248 241.577C452.481 242.185 452.783 242.763 453.149 243.301H457.575Z" fill="black"/>
<path d="M472.392 176.485C472.392 176.485 470.758 174.081 468.516 178.722C468.516 178.722 462.671 182.11 460.66 182.493C458.649 182.875 451.494 185.389 451.494 185.389C450.414 186.17 449.114 186.59 447.781 186.588C445.539 186.588 443.68 191.506 443.952 194.183C444.224 196.859 443.79 198.829 441.716 198.939C439.641 199.049 440.783 203.359 440.783 203.359L454.605 219.203C454.605 219.203 455.48 233.789 455.045 234.229C454.61 234.669 453.023 238.943 453.406 239.09C453.788 239.236 451.311 255.368 451.311 255.368L447.98 286.673C447.98 286.673 447.98 291.911 454.757 293.718C461.535 295.525 478.206 294.33 479.279 289.575L482.72 285.091C482.72 285.091 488.618 296.567 497.632 295.42C506.646 294.273 512.386 290.994 512.386 290.994L511.401 253.477L510.747 226.436L524.82 203.312C524.82 203.312 521.049 196.1 521.379 192.837C521.709 189.574 522.358 187.102 514.329 185.955C514.329 185.955 507.557 184.944 503.566 182.184C501.194 180.537 498.602 179.232 495.867 178.308C495.867 178.308 493.615 174.118 492.049 175.553C492.049 175.553 493.62 181.477 493.489 182.362C493.358 183.247 493.735 187.248 493.981 187.662C494.227 188.076 497.506 207.355 494.17 214.237C494.17 214.237 489.273 232.794 485.79 236.309C482.307 239.823 474.649 215.442 474.649 215.442C474.649 215.442 470.606 193.696 471.261 190.637C471.915 187.578 472.392 176.485 472.392 176.485Z" fill="#3F3D56"/>
<path d="M484.082 248.109C485.41 248.109 486.486 247.033 486.486 245.705C486.486 244.377 485.41 243.301 484.082 243.301C482.755 243.301 481.678 244.377 481.678 245.705C481.678 247.033 482.755 248.109 484.082 248.109Z" fill="#3F3D56"/>
<path d="M484.082 259.443C485.41 259.443 486.486 258.367 486.486 257.039C486.486 255.711 485.41 254.635 484.082 254.635C482.755 254.635 481.678 255.711 481.678 257.039C481.678 258.367 482.755 259.443 484.082 259.443Z" fill="#3F3D56"/>
<path d="M484.082 248.109C485.41 248.109 486.486 247.033 486.486 245.705C486.486 244.377 485.41 243.301 484.082 243.301C482.755 243.301 481.678 244.377 481.678 245.705C481.678 247.033 482.755 248.109 484.082 248.109Z" fill="#61D1DB"/>
<path d="M484.082 259.443C485.41 259.443 486.486 258.367 486.486 257.039C486.486 255.711 485.41 254.635 484.082 254.635C482.755 254.635 481.678 255.711 481.678 257.039C481.678 258.367 482.755 259.443 484.082 259.443Z" fill="#61D1DB"/>
<path opacity="0.1" d="M505.687 400.307C505.687 400.307 515.555 401.072 516.534 401.837C517.513 402.601 505.687 400.307 505.687 400.307Z" fill="black" stroke="#61D1DB" stroke-miterlimit="10"/>
<path opacity="0.1" d="M446.937 392.55C446.937 392.55 449.032 395.169 448.142 396.374C447.252 397.578 446.937 392.55 446.937 392.55Z" fill="black" stroke="#61D1DB" stroke-miterlimit="10"/>
<path opacity="0.1" d="M449.451 401.994C449.451 401.994 453.275 399.48 454.804 401.15C456.334 402.821 449.451 401.994 449.451 401.994Z" fill="black" stroke="#61D1DB" stroke-miterlimit="10"/>
<g opacity="0.1">
<path opacity="0.1" d="M469.6 156.614C469.328 157.897 468.422 159.353 467.118 159.196C466.714 159.144 466.348 158.939 465.95 158.85C464.855 158.609 464.206 159.636 463.174 159.374C462.661 159.227 462.184 158.977 461.772 158.639C461.359 158.302 461.02 157.883 460.775 157.41C460.501 156.877 460.335 156.295 460.288 155.697C460.183 156.625 460.353 157.562 460.775 158.395C461.02 158.868 461.359 159.286 461.772 159.624C462.184 159.962 462.661 160.212 463.174 160.359C464.221 160.6 464.855 159.573 465.95 159.835C466.333 159.968 466.723 160.082 467.118 160.175C468.422 160.338 469.328 158.882 469.6 157.599C469.815 156.465 469.899 155.31 469.852 154.157C469.847 154.982 469.762 155.805 469.6 156.614Z" fill="black"/>
<path opacity="0.1" d="M462.425 148.726C462.491 147.868 462.374 147.005 462.079 146.196C461.842 145.658 461.641 145.105 461.477 144.541C461.454 144.629 461.437 144.718 461.424 144.808C461.335 145.63 461.796 146.379 462.079 147.181C462.262 147.678 462.378 148.198 462.425 148.726Z" fill="black"/>
<path opacity="0.1" d="M502.44 145.966C502.194 147.453 500.989 148.851 500.868 150.418C500.839 150.686 500.839 150.956 500.868 151.224C501.13 149.396 502.749 147.778 502.44 145.966Z" fill="black"/>
<path opacity="0.1" d="M502.529 157.017C502.484 157.236 502.381 157.439 502.23 157.604C501.843 158.017 501.183 158.049 500.659 158.253C499.386 158.74 498.564 160.28 497.181 160.264C496.827 160.244 496.488 160.117 496.207 159.901C495.927 159.684 495.718 159.387 495.61 159.049C495.578 159.163 495.554 159.278 495.537 159.395C495.522 159.624 495.552 159.854 495.627 160.072C495.701 160.289 495.818 160.489 495.971 160.661C496.123 160.833 496.308 160.973 496.515 161.073C496.722 161.173 496.947 161.231 497.176 161.244C498.543 161.244 499.381 159.72 500.654 159.238C501.178 159.034 501.816 159.002 502.225 158.588C502.379 158.389 502.488 158.16 502.544 157.914C502.6 157.669 502.602 157.415 502.55 157.169C502.545 157.106 502.534 157.064 502.529 157.017Z" fill="black"/>
<path opacity="0.1" d="M495.961 156.582C495.83 155.629 494.678 155.241 494.07 154.487C493.698 153.992 493.496 153.389 493.494 152.769C493.452 153.743 493.468 154.739 494.07 155.472C494.672 156.205 495.589 156.519 495.882 157.274C495.956 157.051 495.983 156.816 495.961 156.582Z" fill="black"/>
<path opacity="0.1" d="M493.525 151.099C493.567 149.92 493.284 148.48 492.179 148.076C491.855 147.956 491.493 147.94 491.174 147.809C490.304 147.443 490.032 146.364 489.456 145.62C488.288 144.127 485.978 144.154 484.218 144.866C483.433 145.185 482.684 145.61 481.867 145.851C481.465 145.992 481.039 146.049 480.614 146.017C480.189 145.986 479.776 145.867 479.4 145.667C479.054 145.447 478.771 145.143 478.42 144.923C477.231 144.211 475.681 144.923 474.66 145.84C473.638 146.757 472.811 147.982 471.517 148.548C470.931 148.81 470.218 148.967 469.914 149.533C469.781 149.841 469.725 150.177 469.752 150.512C469.752 150.716 469.752 150.92 469.752 151.125C469.759 150.914 469.811 150.707 469.904 150.517C470.208 149.952 470.92 149.794 471.507 149.533C472.774 148.967 473.602 147.762 474.649 146.825C475.697 145.887 477.221 145.196 478.41 145.908C478.761 146.118 479.044 146.432 479.389 146.647C479.765 146.847 480.178 146.967 480.603 146.999C481.028 147.03 481.455 146.973 481.856 146.83C482.657 146.545 483.442 146.218 484.208 145.851C485.962 145.138 488.272 145.107 489.445 146.6C490.021 147.343 490.294 148.422 491.163 148.789C491.483 148.925 491.844 148.941 492.169 149.061C493.064 149.396 493.421 150.402 493.499 151.397L493.525 151.099Z" fill="black"/>
</g>
<g opacity="0.1">
<path opacity="0.1" d="M467.73 156.582C467.761 155.713 468.072 154.877 468.618 154.2C469.164 153.523 469.915 153.041 470.758 152.827C473.093 152.256 475.544 152.367 477.818 153.147C482.789 154.791 477.19 160.71 477.19 160.71C477.19 160.71 473.466 164.376 469.993 161.815C468.967 161.04 468.249 159.926 467.966 158.672C467.796 157.989 467.717 157.286 467.73 156.582Z" fill="black"/>
<path opacity="0.1" d="M495.055 156.582C495.025 155.712 494.712 154.876 494.166 154.198C493.619 153.521 492.866 153.04 492.022 152.827C489.688 152.257 487.24 152.368 484.967 153.147C479.997 154.791 485.596 160.71 485.596 160.71C485.596 160.71 489.314 164.376 492.792 161.815C493.818 161.04 494.536 159.926 494.819 158.672C494.989 157.989 495.068 157.286 495.055 156.582Z" fill="black"/>
<path opacity="0.1" d="M476.881 152.665V152.911H485.957V152.617L476.881 152.665Z" fill="black"/>
<path opacity="0.1" d="M479.777 155.289H480.065V154.456C480.065 154.456 480.987 153.738 482.516 154.456V155.2H483.04V154.713H482.783C482.783 154.713 482.888 153.702 481.18 153.864C481.18 153.864 479.808 153.733 479.84 154.603H479.525L479.777 155.289Z" fill="black"/>
</g>
<path d="M467.731 156.242C467.761 155.372 468.072 154.536 468.618 153.859C469.164 153.182 469.915 152.7 470.758 152.486C473.094 151.919 475.543 152.03 477.818 152.806C482.789 154.456 477.19 160.369 477.19 160.369C477.19 160.369 473.466 164.035 469.993 161.474C468.966 160.701 468.247 159.587 467.966 158.332C467.796 157.648 467.716 156.946 467.731 156.242Z" fill="#61D1DB"/>
<path d="M495.055 156.242C495.025 155.372 494.712 154.535 494.166 153.858C493.619 153.181 492.866 152.7 492.022 152.487C489.688 151.919 487.241 152.03 484.967 152.806C479.997 154.456 485.596 160.369 485.596 160.369C485.596 160.369 489.314 164.036 492.792 161.474C493.82 160.701 494.539 159.587 494.819 158.332C494.99 157.649 495.069 156.946 495.055 156.242Z" fill="#61D1DB"/>
<path d="M476.881 152.335V152.586H485.957V152.288L476.881 152.335Z" fill="#61D1DB"/>
<path d="M479.777 154.959H480.065V154.126C480.065 154.126 480.987 153.414 482.516 154.126V154.875H483.04V154.382H482.783C482.783 154.382 482.888 153.377 481.18 153.534C481.18 153.534 479.808 153.408 479.84 154.272H479.525L479.777 154.959Z" fill="#61D1DB"/>
<path d="M477.512 147.316C479.854 146.99 482.216 146.782 484.584 146.693C486.301 146.628 488.089 146.638 489.64 147.295C491.978 148.284 493.288 150.521 494.146 152.692C495.004 154.864 495.613 157.184 497.204 159C499.852 156.545 500.381 152.894 500.775 149.512C501.052 147.132 501.298 144.596 500.06 142.472C499.297 141.164 498.039 140.144 496.765 139.202C490.681 134.703 482.954 131.163 475.121 132.174L474.937 133.248C473.601 133.212 472.263 133.287 470.942 133.471L471.222 136.137L467.061 136.371L466.901 139.15L462.693 139.279C462.774 140.347 463.297 141.35 464.161 142.096C463.514 142.511 462.779 142.806 462 142.963C462.702 145.376 463.383 147.795 464.108 150.203C467 154.5 466.5 155.5 467.5 153.5C469 152.5 469.421 149.923 471.07 149.057C473.012 148.037 475.31 147.622 477.512 147.316Z" fill="#6D3004"/>
</g>
<defs>
<linearGradient id="paint0_linear" x1="309.697" y1="338.389" x2="309.697" y2="56.4348" gradientUnits="userSpaceOnUse">
<stop stop-color="#808080" stop-opacity="0.25"/>
<stop offset="0.54" stop-color="#808080" stop-opacity="0.12"/>
<stop offset="1" stop-color="#808080" stop-opacity="0.1"/>
</linearGradient>
<clipPath id="clip0">
<rect width="600" height="429.433" fill="white"/>
</clipPath>
</defs>
</svg>
