<svg width="540" height="337" viewBox="0 0 540 337" fill="none" xmlns="http://www.w3.org/2000/svg">
<g clip-path="url(#clip0)">
<path d="M92.6943 300.971C92.6943 300.971 93.1225 292.001 101.899 293.043L92.6943 300.971Z" fill="#E6E6E6"/>
<path d="M90.214 292.435C92.64 292.435 94.6067 290.468 94.6067 288.042C94.6067 285.616 92.64 283.649 90.214 283.649C87.788 283.649 85.8213 285.616 85.8213 288.042C85.8213 290.468 87.788 292.435 90.214 292.435Z" fill="#E6E6E6"/>
<path d="M90.739 295.439H89.499V304.119H90.739V295.439Z" fill="#E6E6E6"/>
<path d="M411.362 294.152C411.362 294.152 411.79 285.181 420.567 286.224L411.362 294.152Z" fill="#E6E6E6"/>
<path d="M408.882 285.615C411.308 285.615 413.275 283.648 413.275 281.222C413.275 278.796 411.308 276.83 408.882 276.83C406.456 276.83 404.489 278.796 404.489 281.222C404.489 283.648 406.456 285.615 408.882 285.615Z" fill="#E6E6E6"/>
<path d="M409.407 288.619H408.167V297.299H409.407V288.619Z" fill="#E6E6E6"/>
<path d="M539.415 328.269C386.757 279.943 248.331 282.518 159.088 293.187C62.404 304.747 1.05318 328.023 0.445003 328.257L0 327.099C0.609983 326.865 62.1052 303.533 158.941 291.956C215.901 285.154 273.372 283.684 330.606 287.565C401.657 292.374 471.881 305.642 539.79 327.087L539.415 328.269Z" fill="#3F3D56"/>
<path d="M356.185 316.471C356.185 316.471 356.613 307.5 365.389 308.543L356.185 316.471Z" fill="#3F3D56"/>
<path d="M354.229 310.938H352.989V319.618H354.229V310.938Z" fill="#3F3D56"/>
<path d="M132.444 70.5132C129.226 75.6059 127.238 81.3773 126.636 87.371C126.105 93.5575 127.652 99.407 130.647 104.802C133.828 110.532 137.762 115.756 140.635 121.672C143.46 127.52 145.609 133.67 147.04 140.005C149.931 152.632 149.95 165.747 147.096 178.382C141.817 201.409 126.415 221.677 105.916 233.336C103.439 234.742 100.893 236.022 98.2871 237.172" stroke="#AAAAAA"/>
<path d="M139.085 320.6L132.948 322.342L108.838 245.563L126.53 242.512L139.085 320.6Z" fill="#9F616A"/>
<path d="M67.0625 321.042L60.9941 319.741L76.692 241.061L93.7618 246.622L67.0625 321.042Z" fill="#9F616A"/>
<path d="M131.689 335.515C133.37 336.282 134.777 331.529 136.194 332.922C140.159 336.818 149.669 335.944 149.669 335.944C149.988 335.842 150.283 335.675 150.537 335.455C150.79 335.235 150.996 334.966 151.142 334.664C151.288 334.362 151.371 334.034 151.386 333.699C151.402 333.364 151.349 333.029 151.231 332.715C151.09 332.339 150.86 332.003 150.56 331.736C150.261 331.469 149.901 331.278 149.512 331.181L145.296 330.127L138.676 318.485L131.461 317.572L131.279 317.87C129.884 320.118 128.985 322.637 128.641 325.26C128.297 327.883 128.517 330.549 129.285 333.08C129.885 335.003 130.702 335.064 131.689 335.515Z" fill="#2F2E41"/>
<path d="M58.2477 332.128C59.7595 333.189 62.0118 328.773 63.1507 330.402C66.3363 334.956 75.8461 335.836 75.8461 335.836C76.1788 335.793 76.4994 335.684 76.7885 335.514C77.0775 335.344 77.3291 335.117 77.5278 334.846C77.7266 334.576 77.8684 334.269 77.9448 333.942C78.0211 333.615 78.0304 333.277 77.972 332.946C77.9021 332.551 77.7373 332.179 77.4917 331.861C77.2461 331.544 76.927 331.291 76.562 331.124L72.6095 329.317L68.2286 316.662L61.3024 314.445L61.0688 314.705C59.2868 316.66 57.9422 318.973 57.1249 321.489C56.3076 324.005 56.0363 326.666 56.3292 329.295C56.5677 331.295 57.3594 331.504 58.2477 332.128Z" fill="#2F2E41"/>
<path d="M118.637 187.077C121.868 192.047 125 197.065 126.386 202.777C129.737 216.757 132.129 230.949 133.547 245.255C122.32 251.697 112.58 255.394 103.066 256.031C102.624 256.061 102.182 256.081 101.74 256.098L98.272 236.517L95.5052 255.882C94.1352 255.736 92.7631 255.529 91.3844 255.251C85.42 254.055 79.3472 251.61 72.8584 247.856C70.5321 238.603 69.5554 229.062 69.9585 219.53C70.4917 206.782 73.3742 195.867 76.1657 187.103L118.637 187.077Z" fill="#6361DB"/>
<path d="M94.8063 129.345L79.5547 124.159C85.0722 118.758 87.3256 112.828 85.0453 106.162L102.127 109.213C98.0738 117.025 92.7668 121.729 94.8063 129.345Z" fill="#9F616A"/>
<path d="M118.637 187.078C104.763 198.114 90.6382 199.386 76.1653 187.103C81.9996 168.785 70.0969 151.559 71.8307 138.556C72.9124 130.443 76.2867 120.394 84.1322 118.057L92.5587 120.632C95.4815 121.524 98.1265 123.152 100.24 125.359C102.354 127.566 103.866 130.278 104.63 133.237L105.627 137.117C110.452 142.249 112.06 148.993 110.807 157.181C111.865 159.505 111.379 162.435 110.894 165.369C110.434 168.161 109.975 170.957 110.842 173.232C112.707 178.125 115.713 182.581 118.637 187.078" fill="#E6E6E6"/>
<path d="M97.8563 116.229C105.437 116.229 111.583 110.083 111.583 102.502C111.583 94.9212 105.437 88.7756 97.8563 88.7756C90.2754 88.7756 84.1299 94.9212 84.1299 102.502C84.1299 110.083 90.2754 116.229 97.8563 116.229Z" fill="#9F616A"/>
<path d="M144.992 180.658L135.376 177.51L136.077 169.794L146.635 169.56C147.468 169.541 148.295 169.706 149.057 170.042C149.82 170.378 150.499 170.877 151.047 171.504C151.595 172.131 151.999 172.871 152.23 173.672C152.461 174.472 152.513 175.314 152.383 176.137C152.255 176.95 151.951 177.727 151.493 178.412C151.035 179.096 150.434 179.674 149.731 180.104C149.028 180.534 148.241 180.806 147.422 180.901C146.604 180.997 145.775 180.914 144.992 180.658Z" fill="#9F616A"/>
<path opacity="0.2" d="M126.385 202.777C122.411 200.913 113.364 196.214 100.296 186.691C82.2985 173.575 86.8758 141.546 86.8758 141.546L110.894 165.369C110.434 168.161 109.975 170.957 110.842 173.232C114.769 183.531 123.746 191.897 126.385 202.777Z" fill="black"/>
<path d="M137.206 179.98C124.185 182.865 113.531 184.595 104.873 178.455C91.141 162.485 83.3367 146.452 86.2578 130.306C86.5289 128.852 87.2065 127.504 88.2121 126.419C89.2178 125.334 90.5103 124.556 91.9399 124.176C93.8161 123.669 95.8135 123.873 97.5479 124.75C99.2822 125.627 100.631 127.115 101.335 128.926L111.709 163.696L138.584 168.898L137.206 179.98Z" fill="#2F2E41"/>
<path d="M116.797 214.448C115.269 214.445 113.787 213.923 112.596 212.967C111.404 212.01 110.573 210.677 110.239 209.186L109.44 205.588L122.558 202.674L123.357 206.271C123.743 208.011 123.423 209.832 122.466 211.336C121.509 212.839 119.995 213.901 118.255 214.287C117.777 214.394 117.288 214.447 116.797 214.448ZM110.475 206.247L111.086 208.998C111.422 210.513 112.347 211.832 113.656 212.665C114.965 213.498 116.552 213.777 118.067 213.441C119.582 213.104 120.901 212.179 121.735 210.87C122.568 209.561 122.847 207.974 122.51 206.459L121.899 203.709L110.475 206.247Z" fill="#3F3D56"/>
<path d="M111.533 96.7649C111.533 96.7649 113.736 79.6158 95.7567 85.2394C95.7567 85.2394 82.9156 82.8832 78.7045 98.9455L74.4404 115.783L76.5185 114.652L77.4873 116.769L80.8548 117.622L82.2958 114.762L82.9929 118.235L110.574 120.985C110.574 120.985 98.2211 113.679 98.0252 100.586L100.378 103.073L111.533 96.7649Z" fill="#2F2E41"/>
<path d="M203.756 75.8022H234.458L230.816 108.068L203.756 107.396V75.8022Z" fill="#2F2E41"/>
<path d="M194.866 148.565C185.647 151.858 191.573 184.782 191.573 184.782L199.475 222.975L206.719 274.996L218.572 273.02L214.621 232.194L212.645 182.149L229.766 225.609L242.277 273.679L254.13 271.045L251.496 253.924C250.838 242.071 242.277 217.707 242.277 217.707L232.4 149.224L194.866 148.565Z" fill="#2F2E41"/>
<path d="M251.441 267.409C251.441 267.409 255.89 284.547 255.776 286.52L255.773 286.578C255.706 287.474 255.355 288.324 254.77 289.004C254.185 289.685 253.397 290.16 252.522 290.361C250.632 290.808 248.134 291.413 246.796 291.793C245.529 292.152 239.334 294.186 234.808 292.605C230.283 291.024 244.388 282.87 244.388 282.87L243.07 266.842L251.441 267.409Z" fill="#2F2E41"/>
<path d="M217.097 272.076C217.097 272.076 218.238 289.175 217.749 291.089C217.261 293.003 216.148 292.039 216.148 292.039C216.148 292.039 210.126 292.242 207.706 292.446C206.394 292.556 199.925 293.369 195.785 290.953C191.644 288.536 207.706 282.569 207.706 282.569L208.817 267.243L217.097 272.076Z" fill="#2F2E41"/>
<path d="M218.571 93.9106C225.481 93.9106 231.082 88.3091 231.082 81.3993C231.082 74.4895 225.481 68.8879 218.571 68.8879C211.661 68.8879 206.06 74.4895 206.06 81.3993C206.06 88.3091 211.661 93.9106 218.571 93.9106Z" fill="#FFB8B8"/>
<path d="M214.62 89.9594L217.254 108.398L228.448 103.13L225.814 88.6426L214.62 89.9594Z" fill="#FFB8B8"/>
<path d="M217.913 101.154L215.71 97.5844L213.303 100.495L202.768 103.788L200.134 119.592C199.475 123.543 201.45 130.786 201.45 130.786C201.45 130.786 194.207 145.273 194.866 150.541C195.524 155.809 229.107 153.833 229.107 153.833L238.985 101.154L230.424 98.52L227.79 95.2275L219.888 99.1785L218.571 104.446L217.913 101.154Z" fill="#DB61CF"/>
<path d="M233.142 71.9103C233.142 71.3993 233.042 70.8932 232.846 70.4211C232.651 69.949 232.364 69.52 232.003 69.1586C231.641 68.7972 231.212 68.5106 230.74 68.315C230.268 68.1194 229.762 68.0188 229.251 68.0188H210.488C209.182 68.0188 207.929 68.5378 207.005 69.4616C206.081 70.3854 205.562 71.6383 205.562 72.9447V80.5078C214.551 75.9552 223.781 76.7556 233.142 80.5078V71.9103Z" fill="#2F2E41"/>
<path d="M219.23 152.516L208.036 163.711C208.036 163.711 198.158 176.881 202.768 179.515C207.377 182.149 213.303 167.003 213.303 167.003L227.132 157.126L219.23 152.516Z" fill="#FFB8B8"/>
<path d="M192.891 153.175L192.232 159.76C192.232 159.76 197.5 170.296 193.549 173.588C189.598 176.881 186.306 160.418 186.306 160.418L187.623 152.516L192.891 153.175Z" fill="#FFB8B8"/>
<path d="M232.4 118.933L229.107 138.03L215.938 153.175L228.449 159.101C228.449 159.101 237.668 145.273 240.96 140.664C244.253 136.054 245.57 112.348 244.253 107.08C242.936 101.813 238.985 101.154 238.985 101.154L237.009 102.471L232.4 118.933Z" fill="#DB61CF"/>
<path d="M204.085 127.494L198.817 141.322L193.549 155.15L184.33 154.492C184.33 154.492 190.915 141.322 190.256 139.346C189.598 137.371 196.841 114.324 198.158 109.714C199.475 105.105 202.768 103.788 202.768 103.788L208.036 105.105L204.085 127.494Z" fill="#DB61CF"/>
<path d="M235.171 101.034C232.22 102.466 228.792 102.545 225.532 102.186C224.544 102.173 223.568 101.967 222.66 101.578C225.257 100.072 226.661 97.1279 227.49 94.2422C227.92 92.7406 228.235 91.2087 228.434 89.6596C228.601 88.3245 228.885 87.0065 229.28 85.7203C229.775 84.1219 229.92 82.4354 229.704 80.7759C229.488 79.1164 228.916 77.5232 228.028 76.1051C227.139 74.687 225.955 73.4774 224.556 72.5591C223.157 71.6408 221.576 71.0354 219.922 70.7842C218.267 70.5331 216.578 70.6422 214.97 71.104C213.361 71.5658 211.871 72.3695 210.602 73.4601C209.333 74.5508 208.314 75.9026 207.615 77.4232C206.916 78.9438 206.554 80.5974 206.553 82.2708C206.647 84.5499 207.364 86.7595 208.628 88.6588C209.533 90.0401 210.744 91.1947 212.167 92.0334C213.59 92.872 215.187 93.3723 216.834 93.4955C217.292 93.5104 217.726 93.6973 218.052 94.0188C219.147 95.1179 217.234 97.3307 217.489 98.8614C217.811 100.797 218.082 102.968 216.935 104.56C216.296 105.344 215.484 105.969 214.564 106.386C210.998 108.265 207.034 109.264 203.003 109.298C205.315 107.345 206.87 104.645 207.4 101.665C207.908 98.7426 207.354 95.735 205.839 93.1849C206.035 96.1328 205.659 99.0907 204.733 101.896C204.248 103.654 203.292 105.246 201.969 106.502C200.589 107.678 198.795 108.256 197.166 107.458C198.855 106.571 200.176 105.116 200.897 103.35C201.607 101.593 201.956 99.7105 201.924 97.8156C202.044 96.124 201.973 94.4244 201.714 92.7486C200.913 95.8449 199.075 98.5728 196.505 100.477C195.822 101.031 195.017 101.414 194.156 101.595C193.744 101.678 193.317 101.648 192.92 101.509C192.524 101.369 192.172 101.125 191.902 100.802C193.224 100.296 194.378 99.4309 195.233 98.3039C196.089 97.1769 196.613 95.8332 196.745 94.4243C196.863 92.934 196.541 91.3612 197.128 89.9859C197.737 88.5563 199.171 87.6976 200.412 86.7625C201.654 85.8275 203.154 84.3577 202.841 82.8353C201.879 78.1526 202.644 72.8517 205.964 69.4122C206.591 68.7818 207.265 68.1988 207.978 67.6681C209.179 66.6807 210.523 65.8808 211.963 65.2952C213.417 64.7107 215.031 64.6594 216.519 65.1503C216.643 64.3528 216.856 64.3847 217.505 64.1245C218.349 63.7906 219.251 63.6249 220.158 63.6368C226.441 63.695 232.405 67.3933 235.836 72.6509C236.285 73.2867 236.626 73.9925 236.845 74.7396C236.978 75.3415 237.031 75.9584 237.001 76.5741C236.944 79.5838 236.214 82.5617 236.302 85.5706C236.389 88.5795 237.617 91.8316 240.256 93.2806C240.466 96.5533 238.121 99.6022 235.171 101.034Z" fill="#2F2E41"/>
<path d="M230.229 85.1911C230.992 85.1911 231.609 84.2027 231.609 82.9834C231.609 81.7641 230.992 80.7756 230.229 80.7756C229.467 80.7756 228.85 81.7641 228.85 82.9834C228.85 84.2027 229.467 85.1911 230.229 85.1911Z" fill="#FFB8B8"/>
<path d="M274.967 300.352C274.967 300.352 275.395 291.381 284.172 292.423L274.967 300.352Z" fill="#3F3D56"/>
<path d="M272.487 291.815C274.913 291.815 276.88 289.848 276.88 287.422C276.88 284.996 274.913 283.029 272.487 283.029C270.061 283.029 268.095 284.996 268.095 287.422C268.095 289.848 270.061 291.815 272.487 291.815Z" fill="#6C63FF"/>
<path d="M273.012 294.819H271.772V303.499H273.012V294.819Z" fill="#3F3D56"/>
<path d="M196.23 314.611C196.23 314.611 196.659 305.64 205.435 306.683L196.23 314.611Z" fill="#3F3D56"/>
<path d="M193.75 306.074C196.176 306.074 198.143 304.108 198.143 301.682C198.143 299.255 196.176 297.289 193.75 297.289C191.324 297.289 189.357 299.255 189.357 301.682C189.357 304.108 191.324 306.074 193.75 306.074Z" fill="#6C63FF"/>
<path d="M194.275 309.078H193.035V317.758H194.275V309.078Z" fill="#3F3D56"/>
<path d="M343.558 278.882C343.558 278.882 347.85 284.649 350.875 287.903C352.8 289.974 354.196 291.9 355.112 291.362C356.029 290.823 359.807 294.821 359.017 297.076C358.228 299.331 353.71 299.771 351.227 298.875C348.745 297.978 339.861 294.91 339.861 294.91C339.861 294.91 331.628 293.155 332.55 289.974C333.473 286.793 335.444 282.146 335.444 282.146L343.558 278.882Z" fill="#2F2E41"/>
<path d="M319.862 276.965C319.862 276.965 324.306 287.836 325.288 288.459C326.271 289.082 329.952 294.808 322.855 294.97C315.759 295.132 311.844 293.285 311.844 293.285L309.527 290.756C309.527 290.756 309.372 283.982 309.995 283C310.618 282.017 309.862 277.194 309.862 277.194L319.862 276.965Z" fill="#2F2E41"/>
<path d="M346.277 175.989C346.277 175.989 352.235 210.709 347.977 222.102C346.5 235.8 346.5 253.8 346.5 253.8L346.5 269.1L346.5 282.15L346.314 283.04C346.314 283.04 333.744 285.9 334.631 282.33C334.631 282.33 334.159 279.188 334.46 278.213C334.76 277.238 334.446 273.219 334.446 273.219C334.446 273.219 334.53 271.817 334.501 270.527C334.471 269.236 334.501 270.527 333.668 265.812C333.668 265.812 329.29 223.497 328.953 222.86C328.615 222.222 329.854 219.934 329.854 219.934L326.341 207.428L305.945 204.667C305.945 204.667 296.88 175.182 303.925 172.762C310.969 170.342 346.277 175.989 346.277 175.989Z" fill="#161449"/>
<path d="M306.471 199.491L305.944 204.667C305.944 204.667 306.254 218.215 306.929 219.49C307.603 220.766 307.97 222.694 307.032 224.006C306.094 225.319 304.554 228.581 305.229 229.857C305.904 231.132 304.802 267.627 307.441 270.149C310.081 272.67 309.187 275.918 308.872 276.248C308.556 276.578 309.231 277.853 309.231 277.853C309.231 277.853 322.508 279.809 321.489 277.573C320.469 275.337 320.44 274.047 319.78 273.417C319.12 272.786 319.743 271.804 319.743 271.804C319.743 271.804 318.539 261.504 319.492 260.836C320.445 260.169 322.641 229.136 322.633 228.813C322.626 228.491 323.579 227.824 323.549 226.533C323.52 225.243 323.424 221.05 325.022 220.368C326.62 219.686 325.936 203.887 325.936 203.887L306.471 199.491Z" fill="#161449"/>
<path d="M402.365 212.032C394.761 206.894 387.969 199.634 382.398 190.69C376.827 181.745 372.591 171.299 369.946 159.981C364.221 135.122 367.051 106.796 377.243 85.0265C379.91 79.329 382.974 73.8198 383.936 66.9575" stroke="black"/>
<path d="M381.978 206.983C382.587 207.508 383.306 207.891 384.082 208.102C384.858 208.314 385.671 208.349 386.463 208.205C387.254 208.062 388.003 207.743 388.655 207.272C389.307 206.801 389.846 206.19 390.231 205.484L395.916 195.069L391.617 191.505L382.245 198.605C381.604 199.091 381.08 199.713 380.711 200.427C380.342 201.14 380.138 201.928 380.112 202.731C380.087 203.534 380.241 204.332 380.564 205.068C380.887 205.804 381.37 206.458 381.978 206.983Z" fill="#FFB9B9"/>
<path d="M388.635 192.46L395.274 197.814L431.466 169.76L429.324 120.933C427.289 122.561 425.596 124.577 424.345 126.864C423.093 129.15 422.308 131.662 422.033 134.254L415.832 161.836L388.635 192.46Z" fill="#6C63FF"/>
<path d="M458.448 305.962H467.443L468.3 227.154H450.311L458.448 305.962Z" fill="#FFB9B9"/>
<path d="M436.177 310.245H445.171L446.028 226.296L428.039 225.44L436.177 310.245Z" fill="#FFB9B9"/>
<path d="M424.613 234.006L446.885 234.863L447.741 230.151L449.026 236.576L469.585 235.719C469.582 214.888 469.137 191.87 471.727 183.894L424.185 188.605C420.44 204.745 419.979 220.035 424.613 234.006Z" fill="#2F2E41"/>
<path d="M463.629 326.521C468.436 326.521 472.206 328.388 471.768 323.6L470.523 307.41C470.499 306.725 470.276 306.061 469.881 305.499C469.487 304.938 468.937 304.504 468.3 304.249C464.874 300.232 461.447 299.804 458.021 302.964C456.907 304.356 456.257 306.063 456.163 307.844L455.466 323.923C455.225 328.596 458.949 326.521 463.629 326.521Z" fill="#2F2E41"/>
<path d="M419.723 326.748L442.583 326.143C443.529 326.011 444.394 325.535 445.01 324.805C445.627 324.075 445.952 323.142 445.923 322.187L446.353 311.016C446.381 310.466 446.193 309.927 445.829 309.513C445.464 309.1 444.953 308.845 444.404 308.802L440.888 308.532C440.472 304.707 438.143 303.779 434.892 304.249L424.613 315.813L417.839 317.71C416.753 318.014 415.815 318.704 415.203 319.651C414.59 320.598 414.344 321.736 414.511 322.851C414.692 324.056 415.341 325.141 416.316 325.871C417.292 326.6 418.516 326.915 419.723 326.748Z" fill="#2F2E41"/>
<path d="M446.028 104.657C453.361 104.657 459.305 98.7124 459.305 91.3794C459.305 84.0464 453.361 78.1018 446.028 78.1018C438.695 78.1018 432.75 84.0464 432.75 91.3794C432.75 98.7124 438.695 104.657 446.028 104.657Z" fill="#FFB9B9"/>
<path d="M439.175 114.936L461.875 108.512C456.798 106.537 454.839 103.092 455.879 98.2324H440.888C442.815 105.553 442.823 111.527 439.175 114.936Z" fill="#FFB9B9"/>
<path d="M422.899 194.173C435.71 195.811 447.514 190.85 458.663 187.106C463.697 185.416 468.767 187.181 473.44 184.322C471.419 164.42 473.381 142.002 477.673 118.112C477.918 116.759 477.663 115.364 476.954 114.186C476.246 113.008 475.134 112.128 473.824 111.71L459.734 107.227L447.313 111.51L440.888 112.795L427.659 121.734C426.887 122.255 426.282 122.988 425.916 123.846C425.551 124.703 425.441 125.647 425.6 126.565C429.574 149.033 428.653 172.094 422.899 194.173Z" fill="#6C63FF"/>
<path d="M458.877 187.32L463.16 198.456L467.443 192.032L461.875 186.464L458.877 187.32Z" fill="#FFB9B9"/>
<path d="M433.287 86.6451C438.449 83.3317 443.598 82.2404 448.733 83.1726C450.295 83.4641 451.78 84.0734 453.097 84.9628C454.414 85.8521 455.534 87.0025 456.388 88.3427C457.241 89.6828 457.811 91.1841 458.06 92.7534C458.31 94.3227 458.234 95.9265 457.839 97.4654L457.806 97.5899L458.574 96.1475C460.609 92.3224 461.304 87.9254 460.547 83.6591C459.965 80.383 458.215 77.4291 455.621 75.3454C453.027 73.2616 449.765 72.1896 446.441 72.3281L443.551 72.4485C440.228 72.587 437.065 73.9173 434.641 76.1963C432.218 78.4753 430.696 81.5505 430.353 84.8595C430.317 85.2169 430.383 85.5772 430.543 85.8988C430.703 86.2204 430.95 86.4901 431.257 86.6769C431.564 86.8636 431.917 86.9598 432.277 86.9541C432.636 86.9485 432.986 86.8413 433.287 86.6451Z" fill="#2F2E41"/>
<path d="M461.019 186.464L467.015 194.174L488.002 162.907L486.187 131.142C485.956 127.097 484.705 123.175 482.551 119.742C480.397 116.31 477.41 113.478 473.868 111.51L474.296 160.337L461.019 186.464Z" fill="#6C63FF"/>
<path d="M170.896 38.0337C166.939 54.6276 147.171 77.9034 130.577 73.9461C113.983 69.9888 106.847 40.2969 110.805 23.7031C112.709 15.7392 117.699 8.85754 124.675 4.57083C131.652 0.284115 140.046 -1.05685 148.011 0.842686C155.976 2.74223 162.861 7.72681 167.152 14.7008C171.444 21.6747 172.79 30.0673 170.896 38.0337Z" fill="#FFE816"/>
<path d="M132.782 77.5326C132.082 76.7268 131.146 76.1604 130.108 75.9127C129.069 75.6651 127.979 75.7485 126.99 76.1513L128.372 70.3594L134.163 71.7406L132.782 77.5326Z" fill="#FFE816"/>
<path d="M127.726 73.1362C128.517 73.8065 129.456 74.2793 130.466 74.5157C131.475 74.7522 132.527 74.7454 133.534 74.4962" stroke="#2F2E41" stroke-width="2" stroke-miterlimit="10"/>
<path opacity="0.4" d="M163.043 20.4411C164.045 16.2426 162.02 12.1627 158.521 11.3284C155.023 10.494 151.375 13.2211 150.373 17.4196C149.372 21.618 151.397 25.6979 154.896 26.5323C158.394 27.3666 162.042 24.6395 163.043 20.4411Z" fill="white"/>
<path d="M423.728 51.1044C416.972 64.3807 395.426 80.0929 382.15 73.3367C368.873 66.5806 368.894 39.9144 375.65 26.6381C378.896 20.2651 384.54 15.4422 391.341 13.2299C398.142 11.0176 405.544 11.5969 411.918 14.8406C418.292 18.0843 423.117 23.7267 425.331 30.5271C427.546 37.3276 426.969 44.7291 423.728 51.1044Z" fill="#61D1DB"/>
<path d="M383.288 76.8329C382.858 76.0055 382.18 75.3332 381.349 74.9104C380.518 74.4875 379.576 74.3352 378.654 74.4747L381.012 69.8407L385.646 72.1989L383.288 76.8329Z" fill="#61D1DB"/>
<path d="M379.895 72.0657C380.429 72.7967 381.13 73.3903 381.938 73.7977C382.747 74.2051 383.641 74.4146 384.547 74.409" stroke="#2F2E41" stroke-width="2" stroke-miterlimit="10"/>
<path opacity="0.4" d="M419.908 36.3984C421.617 33.0393 420.734 29.1615 417.934 27.737C415.135 26.3125 411.48 27.8808 409.771 31.2399C408.062 34.5989 408.945 38.4768 411.744 39.9013C414.543 41.3258 418.198 39.7575 419.908 36.3984Z" fill="white"/>
<path d="M319.276 84.0567L318.099 99.3521L333.666 101.286L334.61 92.4856L335.554 83.6845L319.276 84.0567Z" fill="#A0616A"/>
<path d="M344.608 162.493L350.271 181.05C350.271 181.05 349.57 197.619 354.531 194.267C359.608 190.837 357.373 176.93 357.373 176.93L353.972 160.243L344.608 162.493Z" fill="#A0616A"/>
<path d="M346.208 110.034L350.631 114.259L351.102 134.861C351.102 134.861 353.732 138.618 353.247 139.647C352.762 140.676 352.253 140.687 352.779 141.439C353.305 142.19 353.825 142.687 353.328 143.208C352.831 143.728 352.86 145 353.381 145.497C353.901 145.994 354.936 146.733 354.19 147.514C353.445 148.294 352.416 147.809 353.497 150.583C354.578 153.358 356.376 154.08 355.891 155.109C355.405 156.138 355.463 158.682 355.463 158.682L344.562 160.458L341.615 131.769L346.208 110.034Z" fill="#333346"/>
<path d="M355.966 158.416L343.261 159.215L343.891 164.545L355.036 162.254L355.966 158.416Z" fill="#61D1DB"/>
<path opacity="0.1" d="M319.274 83.9741L318.097 99.2697L333.664 101.204L334.608 92.4031L335.552 83.602L319.274 83.9741Z" fill="black"/>
<path d="M287.235 157.442L296.308 175.812C296.308 175.812 298.031 184.425 300.326 184.627C302.621 184.829 304.701 175.62 304.701 175.62L301.538 170.857L297.663 157.204L287.235 157.442Z" fill="#A0616A"/>
<path d="M327.909 88.8217C334.652 88.6675 339.993 83.0766 339.839 76.3341C339.685 69.5915 334.094 64.2506 327.351 64.4047C320.609 64.5589 315.268 70.1498 315.422 76.8923C315.576 83.6349 321.167 88.9759 327.909 88.8217Z" fill="#A0616A"/>
<path d="M300.986 102.161L299.182 101.184C299.182 101.184 291.42 106.706 289.149 118.718C286.879 130.73 285.169 133.823 285.169 133.823C285.169 133.823 282.637 134.39 284.458 136.13C286.279 137.869 286.273 137.615 284.771 138.667C283.268 139.72 282.204 137.708 283.268 139.72C284.332 141.731 285.592 141.193 284.603 142.488C283.615 143.783 281.835 143.824 282.875 144.818C283.916 145.812 281.934 148.148 283.229 149.136C284.524 150.124 285.038 150.367 285.079 152.148C285.095 153.187 285.29 154.216 285.657 155.188L298.883 154.886C298.883 154.886 296.229 150.111 296.969 149.077C297.709 148.042 297.94 147.018 297.419 146.521C296.899 146.024 295.396 147.077 296.893 145.77C298.39 144.463 298.916 145.215 298.373 143.7C297.829 142.186 296.829 142.972 297.829 142.186C298.829 141.4 299.598 141.637 299.072 140.885C298.546 140.134 297.528 140.157 298.534 139.625C299.54 139.093 300.315 139.584 300.031 138.318C299.748 137.053 299.505 137.567 300.002 137.047C300.499 136.526 305.445 119.109 305.433 118.6C305.422 118.092 300.986 102.161 300.986 102.161Z" fill="#333346"/>
<path d="M299.622 153.851L283.622 155.235L287.779 158.957L298.976 158.955L299.622 153.851Z" fill="#61D1DB"/>
<path d="M304.638 172.822L301.471 179.002C301.471 179.002 311.419 180.047 315.009 181.237C318.599 182.427 327.796 183.998 327.796 183.998L329.881 175.044L304.638 172.822Z" fill="#61D1DB"/>
<path d="M333.696 174.957L336.686 183.286L347.825 180.741L346.372 172.886L333.696 174.957Z" fill="#61D1DB"/>
<path d="M336.396 92.6991C336.396 92.6991 335.621 92.2079 333.864 93.2659C332.107 94.324 326.269 94.9664 323.401 91.9783C320.533 88.9901 318.441 86.4932 317.689 87.0193C316.938 87.5455 316.563 93.407 316.563 93.407L314.066 95.4999L299.182 101.184L301.238 135.492L303.708 143.324C303.708 143.324 302.067 149.469 304.437 152.977C306.808 156.486 303.276 157.839 303.276 157.839C303.276 157.839 302.536 158.874 303.103 161.406C303.67 163.937 302.868 173.371 302.868 173.371C302.868 173.371 324.708 182.542 347.153 173.631L344.388 164.024L342.622 142.434C342.622 142.434 343.813 138.844 343.523 137.324C343.234 135.804 350.63 114.259 350.63 114.259C350.63 114.259 349.115 103.605 342.449 101.467C335.784 99.3295 334.714 97.0637 334.714 97.0637C334.714 97.0637 337.691 93.6874 336.396 92.6991Z" fill="#333346"/>
<path d="M315.373 78.4579C315.373 78.4579 314.062 76.5852 314.502 74.5261C314.767 73.3567 314.855 72.1542 314.762 70.9588C314.762 70.9588 315.711 67.6196 316.692 65.7433C317.674 63.8669 317.168 63.0979 320.373 62.4392C323.578 61.7805 322.166 57.6171 330.754 61.9579C331.049 62.351 331.454 62.6479 331.918 62.8109C332.382 62.974 332.884 62.9959 333.36 62.874C335.108 62.4926 335.798 64.9162 335.798 64.9162C335.798 64.9162 336.952 64.2067 337.413 65.1719C337.875 66.1371 340.968 64.505 341.118 71.0878C341.269 77.6706 337.843 83.6321 337.843 83.6321C337.843 83.6321 337.85 72.5531 332.022 71.5643C326.194 70.5754 319.878 67.4511 318.462 71.6791C317.047 75.9072 315.373 78.4579 315.373 78.4579Z" fill="#2F2E41"/>
<path d="M337.9 80.5772C338.532 80.5628 339.029 79.8678 339.01 79.025C338.99 78.1822 338.462 77.5106 337.83 77.5251C337.198 77.5396 336.701 78.2345 336.72 79.0773C336.74 79.9202 337.268 80.5917 337.9 80.5772Z" fill="#A0616A"/>
<path d="M353.704 307.934C356.13 307.934 358.097 305.967 358.097 303.541C358.097 301.115 356.13 299.149 353.704 299.149C351.278 299.149 349.312 301.115 349.312 303.541C349.312 305.967 351.278 307.934 353.704 307.934Z" fill="#6C63FF"/>
</g>
<defs>
<clipPath id="clip0">
<rect width="540" height="336.028" fill="white"/>
</clipPath>
</defs>
</svg>
