<svg width="713" height="50" viewBox="0 0 713 50" fill="none" xmlns="http://www.w3.org/2000/svg">
<path d="M0.7925 15V0.999999H9.4525V2.38H2.4725V7.26H8.8525V8.62H2.4725V13.62H9.4525V15H0.7925ZM11.9816 15V5.08H13.5016L13.6216 6.52C13.9416 5.98667 14.3682 5.57333 14.9016 5.28C15.4349 4.98667 16.0349 4.84 16.7016 4.84C17.4882 4.84 18.1616 5 18.7216 5.32C19.2949 5.64 19.7349 6.12667 20.0416 6.78C20.3882 6.18 20.8616 5.70667 21.4616 5.36C22.0749 5.01333 22.7349 4.84 23.4416 4.84C24.6282 4.84 25.5749 5.2 26.2816 5.92C26.9882 6.62667 27.3416 7.72 27.3416 9.2V15H25.6816V9.38C25.6816 8.35333 25.4749 7.58 25.0616 7.06C24.6482 6.54 24.0549 6.28 23.2816 6.28C22.4816 6.28 21.8149 6.59333 21.2816 7.22C20.7616 7.83333 20.5016 8.71333 20.5016 9.86V15H18.8216V9.38C18.8216 8.35333 18.6149 7.58 18.2016 7.06C17.7882 6.54 17.1949 6.28 16.4216 6.28C15.6349 6.28 14.9749 6.59333 14.4416 7.22C13.9216 7.83333 13.6616 8.71333 13.6616 9.86V15H11.9816ZM29.8722 19.4V5.08H31.3922L31.5522 6.72C31.8722 6.24 32.3255 5.80667 32.9122 5.42C33.5122 5.03333 34.2722 4.84 35.1922 4.84C36.1789 4.84 37.0389 5.06667 37.7722 5.52C38.5055 5.97333 39.0722 6.59333 39.4722 7.38C39.8855 8.16667 40.0922 9.06 40.0922 10.06C40.0922 11.06 39.8855 11.9533 39.4722 12.74C39.0722 13.5133 38.4989 14.1267 37.7522 14.58C37.0189 15.02 36.1589 15.24 35.1722 15.24C34.3589 15.24 33.6322 15.0733 32.9922 14.74C32.3655 14.4067 31.8855 13.94 31.5522 13.34V19.4H29.8722ZM34.9922 13.78C35.6589 13.78 36.2455 13.6267 36.7522 13.32C37.2589 13 37.6589 12.56 37.9522 12C38.2455 11.44 38.3922 10.7867 38.3922 10.04C38.3922 9.29333 38.2455 8.64 37.9522 8.08C37.6589 7.52 37.2589 7.08667 36.7522 6.78C36.2455 6.46 35.6589 6.3 34.9922 6.3C34.3255 6.3 33.7389 6.46 33.2322 6.78C32.7255 7.08667 32.3255 7.52 32.0322 8.08C31.7389 8.64 31.5922 9.29333 31.5922 10.04C31.5922 10.7867 31.7389 11.44 32.0322 12C32.3255 12.56 32.7255 13 33.2322 13.32C33.7389 13.6267 34.3255 13.78 34.9922 13.78ZM42.4308 15V0.599999H44.1108V15H42.4308ZM51.3844 15.24C50.451 15.24 49.611 15.0267 48.8644 14.6C48.1177 14.1733 47.5244 13.5733 47.0844 12.8C46.6577 12.0133 46.4444 11.0933 46.4444 10.04C46.4444 8.98667 46.6644 8.07333 47.1044 7.3C47.5444 6.51333 48.1377 5.90667 48.8844 5.48C49.6444 5.05333 50.491 4.84 51.4244 4.84C52.3577 4.84 53.1977 5.05333 53.9444 5.48C54.691 5.90667 55.2777 6.51333 55.7044 7.3C56.1444 8.07333 56.3644 8.98667 56.3644 10.04C56.3644 11.0933 56.1444 12.0133 55.7044 12.8C55.2644 13.5733 54.6644 14.1733 53.9044 14.6C53.1577 15.0267 52.3177 15.24 51.3844 15.24ZM51.3844 13.8C51.9577 13.8 52.491 13.66 52.9844 13.38C53.4777 13.1 53.8777 12.68 54.1844 12.12C54.491 11.56 54.6444 10.8667 54.6444 10.04C54.6444 9.21333 54.491 8.52 54.1844 7.96C53.891 7.4 53.4977 6.98 53.0044 6.7C52.511 6.42 51.9844 6.28 51.4244 6.28C50.851 6.28 50.3177 6.42 49.8244 6.7C49.331 6.98 48.931 7.4 48.6244 7.96C48.3177 8.52 48.1644 9.21333 48.1644 10.04C48.1644 10.8667 48.3177 11.56 48.6244 12.12C48.931 12.68 49.3244 13.1 49.8044 13.38C50.2977 13.66 50.8244 13.8 51.3844 13.8ZM58.9795 19.4L61.4395 14.04H60.8595L56.9195 5.08H58.7395L62.0195 12.8L65.4995 5.08H67.2395L60.7395 19.4H58.9795ZM72.5353 15.24C71.5886 15.24 70.7486 15.0267 70.0153 14.6C69.282 14.16 68.702 13.5533 68.2753 12.78C67.862 12.0067 67.6553 11.0933 67.6553 10.04C67.6553 9 67.862 8.09333 68.2753 7.32C68.6886 6.53333 69.262 5.92667 69.9953 5.5C70.742 5.06 71.602 4.84 72.5753 4.84C73.5353 4.84 74.362 5.06 75.0553 5.5C75.762 5.92667 76.302 6.49333 76.6753 7.2C77.0486 7.90667 77.2353 8.66667 77.2353 9.48C77.2353 9.62667 77.2286 9.77333 77.2153 9.92C77.2153 10.0667 77.2153 10.2333 77.2153 10.42H69.3153C69.3553 11.18 69.5286 11.8133 69.8353 12.32C70.1553 12.8133 70.5486 13.1867 71.0153 13.44C71.4953 13.6933 72.002 13.82 72.5353 13.82C73.2286 13.82 73.8086 13.66 74.2753 13.34C74.742 13.02 75.082 12.5867 75.2953 12.04H76.9553C76.6886 12.96 76.1753 13.7267 75.4153 14.34C74.6686 14.94 73.7086 15.24 72.5353 15.24ZM72.5353 6.26C71.7353 6.26 71.022 6.50667 70.3953 7C69.782 7.48 69.4286 8.18667 69.3353 9.12H75.5753C75.5353 8.22667 75.2286 7.52667 74.6553 7.02C74.082 6.51333 73.3753 6.26 72.5353 6.26ZM83.922 15.24C82.9754 15.24 82.1354 15.0267 81.402 14.6C80.6687 14.16 80.0887 13.5533 79.662 12.78C79.2487 12.0067 79.042 11.0933 79.042 10.04C79.042 9 79.2487 8.09333 79.662 7.32C80.0754 6.53333 80.6487 5.92667 81.382 5.5C82.1287 5.06 82.9887 4.84 83.962 4.84C84.922 4.84 85.7487 5.06 86.442 5.5C87.1487 5.92667 87.6887 6.49333 88.062 7.2C88.4354 7.90667 88.622 8.66667 88.622 9.48C88.622 9.62667 88.6154 9.77333 88.602 9.92C88.602 10.0667 88.602 10.2333 88.602 10.42H80.702C80.742 11.18 80.9154 11.8133 81.222 12.32C81.542 12.8133 81.9354 13.1867 82.402 13.44C82.882 13.6933 83.3887 13.82 83.922 13.82C84.6154 13.82 85.1954 13.66 85.662 13.34C86.1287 13.02 86.4687 12.5867 86.682 12.04H88.342C88.0754 12.96 87.562 13.7267 86.802 14.34C86.0554 14.94 85.0954 15.24 83.922 15.24ZM83.922 6.26C83.122 6.26 82.4087 6.50667 81.782 7C81.1687 7.48 80.8154 8.18667 80.722 9.12H86.962C86.922 8.22667 86.6154 7.52667 86.042 7.02C85.4687 6.51333 84.762 6.26 83.922 6.26ZM94.6488 15.24C93.4621 15.24 92.4754 14.94 91.6888 14.34C90.9021 13.74 90.4421 12.9267 90.3088 11.9H92.0288C92.1354 12.42 92.4088 12.8733 92.8488 13.26C93.3021 13.6333 93.9088 13.82 94.6688 13.82C95.3754 13.82 95.8954 13.6733 96.2288 13.38C96.5621 13.0733 96.7288 12.7133 96.7288 12.3C96.7288 11.7 96.5088 11.3 96.0688 11.1C95.6421 10.9 95.0354 10.72 94.2488 10.56C93.7154 10.4533 93.1821 10.3 92.6488 10.1C92.1154 9.9 91.6688 9.62 91.3088 9.26C90.9488 8.88667 90.7688 8.4 90.7688 7.8C90.7688 6.93333 91.0888 6.22667 91.7288 5.68C92.3821 5.12 93.2621 4.84 94.3688 4.84C95.4221 4.84 96.2821 5.10667 96.9488 5.64C97.6288 6.16 98.0221 6.90667 98.1288 7.88H96.4688C96.4021 7.37333 96.1821 6.98 95.8088 6.7C95.4488 6.40667 94.9621 6.26 94.3488 6.26C93.7488 6.26 93.2821 6.38667 92.9488 6.64C92.6288 6.89333 92.4688 7.22667 92.4688 7.64C92.4688 8.04 92.6754 8.35333 93.0888 8.58C93.5154 8.80667 94.0888 9 94.8088 9.16C95.4221 9.29333 96.0021 9.46 96.5488 9.66C97.1088 9.84667 97.5621 10.1333 97.9088 10.52C98.2688 10.8933 98.4488 11.44 98.4488 12.16C98.4621 13.0533 98.1221 13.7933 97.4288 14.38C96.7488 14.9533 95.8221 15.24 94.6488 15.24ZM108.142 15L105.242 5.08H106.922L109.022 12.86L111.342 5.08H113.242L115.582 12.86L117.662 5.08H119.362L116.462 15H114.742L112.302 6.82L109.862 15H108.142ZM122.24 2.88C121.907 2.88 121.627 2.77333 121.4 2.56C121.187 2.33333 121.08 2.05333 121.08 1.72C121.08 1.4 121.187 1.13333 121.4 0.919999C121.627 0.706666 121.907 0.599999 122.24 0.599999C122.56 0.599999 122.833 0.706666 123.06 0.919999C123.287 1.13333 123.4 1.4 123.4 1.72C123.4 2.05333 123.287 2.33333 123.06 2.56C122.833 2.77333 122.56 2.88 122.24 2.88ZM121.4 15V5.08H123.08V15H121.4ZM129.925 15C129.018 15 128.305 14.78 127.785 14.34C127.265 13.9 127.005 13.1067 127.005 11.96V6.5H125.285V5.08H127.005L127.225 2.7H128.685V5.08H131.605V6.5H128.685V11.96C128.685 12.5867 128.812 13.0133 129.065 13.24C129.318 13.4533 129.765 13.56 130.405 13.56H131.445V15H129.925ZM133.739 15V0.599999H135.419V6.78C135.753 6.16667 136.226 5.69333 136.839 5.36C137.453 5.01333 138.119 4.84 138.839 4.84C139.986 4.84 140.906 5.2 141.599 5.92C142.293 6.62667 142.639 7.72 142.639 9.2V15H140.979V9.38C140.979 7.31333 140.146 6.28 138.479 6.28C137.613 6.28 136.886 6.59333 136.299 7.22C135.713 7.83333 135.419 8.71333 135.419 9.86V15H133.739ZM154.278 15.24C153.091 15.24 152.104 14.94 151.318 14.34C150.531 13.74 150.071 12.9267 149.938 11.9H151.658C151.764 12.42 152.038 12.8733 152.478 13.26C152.931 13.6333 153.538 13.82 154.298 13.82C155.004 13.82 155.524 13.6733 155.858 13.38C156.191 13.0733 156.358 12.7133 156.358 12.3C156.358 11.7 156.138 11.3 155.698 11.1C155.271 10.9 154.664 10.72 153.878 10.56C153.344 10.4533 152.811 10.3 152.278 10.1C151.744 9.9 151.298 9.62 150.938 9.26C150.578 8.88667 150.398 8.4 150.398 7.8C150.398 6.93333 150.718 6.22667 151.358 5.68C152.011 5.12 152.891 4.84 153.998 4.84C155.051 4.84 155.911 5.10667 156.578 5.64C157.258 6.16 157.651 6.90667 157.758 7.88H156.098C156.031 7.37333 155.811 6.98 155.438 6.7C155.078 6.40667 154.591 6.26 153.978 6.26C153.378 6.26 152.911 6.38667 152.578 6.64C152.258 6.89333 152.098 7.22667 152.098 7.64C152.098 8.04 152.304 8.35333 152.718 8.58C153.144 8.80667 153.718 9 154.438 9.16C155.051 9.29333 155.631 9.46 156.178 9.66C156.738 9.84667 157.191 10.1333 157.538 10.52C157.898 10.8933 158.078 11.44 158.078 12.16C158.091 13.0533 157.751 13.7933 157.058 14.38C156.378 14.9533 155.451 15.24 154.278 15.24ZM163.948 15C163.042 15 162.328 14.78 161.808 14.34C161.288 13.9 161.028 13.1067 161.028 11.96V6.5H159.308V5.08H161.028L161.248 2.7H162.708V5.08H165.628V6.5H162.708V11.96C162.708 12.5867 162.835 13.0133 163.088 13.24C163.342 13.4533 163.788 13.56 164.428 13.56H165.468V15H163.948ZM167.763 15V5.08H169.283L169.423 6.98C169.729 6.32667 170.196 5.80667 170.823 5.42C171.449 5.03333 172.223 4.84 173.143 4.84V6.6H172.683C172.096 6.6 171.556 6.70667 171.063 6.92C170.569 7.12 170.176 7.46667 169.883 7.96C169.589 8.45333 169.443 9.13333 169.443 10V15H167.763ZM179.177 15.24C178.244 15.24 177.404 15.0267 176.657 14.6C175.911 14.1733 175.317 13.5733 174.877 12.8C174.451 12.0133 174.237 11.0933 174.237 10.04C174.237 8.98667 174.457 8.07333 174.897 7.3C175.337 6.51333 175.931 5.90667 176.677 5.48C177.437 5.05333 178.284 4.84 179.217 4.84C180.151 4.84 180.991 5.05333 181.737 5.48C182.484 5.90667 183.071 6.51333 183.497 7.3C183.937 8.07333 184.157 8.98667 184.157 10.04C184.157 11.0933 183.937 12.0133 183.497 12.8C183.057 13.5733 182.457 14.1733 181.697 14.6C180.951 15.0267 180.111 15.24 179.177 15.24ZM179.177 13.8C179.751 13.8 180.284 13.66 180.777 13.38C181.271 13.1 181.671 12.68 181.977 12.12C182.284 11.56 182.437 10.8667 182.437 10.04C182.437 9.21333 182.284 8.52 181.977 7.96C181.684 7.4 181.291 6.98 180.797 6.7C180.304 6.42 179.777 6.28 179.217 6.28C178.644 6.28 178.111 6.42 177.617 6.7C177.124 6.98 176.724 7.4 176.417 7.96C176.111 8.52 175.957 9.21333 175.957 10.04C175.957 10.8667 176.111 11.56 176.417 12.12C176.724 12.68 177.117 13.1 177.597 13.38C178.091 13.66 178.617 13.8 179.177 13.8ZM186.493 15V5.08H188.013L188.113 6.86C188.433 6.23333 188.893 5.74 189.493 5.38C190.093 5.02 190.773 4.84 191.533 4.84C192.707 4.84 193.64 5.2 194.333 5.92C195.04 6.62667 195.393 7.72 195.393 9.2V15H193.713V9.38C193.713 7.31333 192.86 6.28 191.153 6.28C190.3 6.28 189.587 6.59333 189.013 7.22C188.453 7.83333 188.173 8.71333 188.173 9.86V15H186.493ZM201.859 11.88C201.299 11.88 200.785 11.8067 200.319 11.66L199.319 12.6C199.465 12.7067 199.645 12.8 199.859 12.88C200.085 12.9467 200.405 13.0133 200.819 13.08C201.232 13.1333 201.812 13.1933 202.559 13.26C203.892 13.3533 204.845 13.66 205.419 14.18C205.992 14.7 206.279 15.38 206.279 16.22C206.279 16.7933 206.119 17.34 205.799 17.86C205.492 18.38 205.012 18.8067 204.359 19.14C203.719 19.4733 202.892 19.64 201.879 19.64C200.985 19.64 200.192 19.52 199.499 19.28C198.805 19.0533 198.265 18.7 197.879 18.22C197.492 17.7533 197.299 17.16 197.299 16.44C197.299 16.0667 197.399 15.66 197.599 15.22C197.799 14.7933 198.172 14.3867 198.719 14C198.425 13.88 198.172 13.7533 197.959 13.62C197.759 13.4733 197.572 13.3133 197.399 13.14V12.68L199.099 11C198.312 10.3333 197.919 9.45333 197.919 8.36C197.919 7.70667 198.072 7.11333 198.379 6.58C198.685 6.04667 199.132 5.62667 199.719 5.32C200.305 5 201.019 4.84 201.859 4.84C202.432 4.84 202.952 4.92 203.419 5.08H207.079V6.34L205.219 6.42C205.605 6.98 205.799 7.62667 205.799 8.36C205.799 9.01333 205.639 9.60667 205.319 10.14C205.012 10.6733 204.565 11.1 203.979 11.42C203.405 11.7267 202.699 11.88 201.859 11.88ZM201.859 10.5C202.565 10.5 203.125 10.32 203.539 9.96C203.965 9.58667 204.179 9.05333 204.179 8.36C204.179 7.68 203.965 7.16 203.539 6.8C203.125 6.42667 202.565 6.24 201.859 6.24C201.139 6.24 200.565 6.42667 200.139 6.8C199.725 7.16 199.519 7.68 199.519 8.36C199.519 9.05333 199.725 9.58667 200.139 9.96C200.565 10.32 201.139 10.5 201.859 10.5ZM198.939 16.28C198.939 16.9467 199.219 17.44 199.779 17.76C200.339 18.0933 201.039 18.26 201.879 18.26C202.705 18.26 203.365 18.08 203.859 17.72C204.365 17.36 204.619 16.88 204.619 16.28C204.619 15.8533 204.445 15.48 204.099 15.16C203.752 14.8533 203.112 14.6733 202.179 14.62C201.445 14.5667 200.812 14.5 200.279 14.42C199.732 14.7133 199.372 15.0267 199.199 15.36C199.025 15.7067 198.939 16.0133 198.939 16.28ZM218.067 15.24C216.88 15.24 215.893 14.94 215.107 14.34C214.32 13.74 213.86 12.9267 213.727 11.9H215.447C215.553 12.42 215.827 12.8733 216.267 13.26C216.72 13.6333 217.327 13.82 218.087 13.82C218.793 13.82 219.313 13.6733 219.647 13.38C219.98 13.0733 220.147 12.7133 220.147 12.3C220.147 11.7 219.927 11.3 219.487 11.1C219.06 10.9 218.453 10.72 217.667 10.56C217.133 10.4533 216.6 10.3 216.067 10.1C215.533 9.9 215.087 9.62 214.727 9.26C214.367 8.88667 214.187 8.4 214.187 7.8C214.187 6.93333 214.507 6.22667 215.147 5.68C215.8 5.12 216.68 4.84 217.787 4.84C218.84 4.84 219.7 5.10667 220.367 5.64C221.047 6.16 221.44 6.90667 221.547 7.88H219.887C219.82 7.37333 219.6 6.98 219.227 6.7C218.867 6.40667 218.38 6.26 217.767 6.26C217.167 6.26 216.7 6.38667 216.367 6.64C216.047 6.89333 215.887 7.22667 215.887 7.64C215.887 8.04 216.093 8.35333 216.507 8.58C216.933 8.80667 217.507 9 218.227 9.16C218.84 9.29333 219.42 9.46 219.967 9.66C220.527 9.84667 220.98 10.1333 221.327 10.52C221.687 10.8933 221.867 11.44 221.867 12.16C221.88 13.0533 221.54 13.7933 220.847 14.38C220.167 14.9533 219.24 15.24 218.067 15.24ZM228.787 15.24C227.853 15.24 227.013 15.0267 226.267 14.6C225.52 14.1733 224.927 13.5733 224.487 12.8C224.06 12.0133 223.847 11.0933 223.847 10.04C223.847 8.98667 224.067 8.07333 224.507 7.3C224.947 6.51333 225.54 5.90667 226.287 5.48C227.047 5.05333 227.893 4.84 228.827 4.84C229.76 4.84 230.6 5.05333 231.347 5.48C232.093 5.90667 232.68 6.51333 233.107 7.3C233.547 8.07333 233.767 8.98667 233.767 10.04C233.767 11.0933 233.547 12.0133 233.107 12.8C232.667 13.5733 232.067 14.1733 231.307 14.6C230.56 15.0267 229.72 15.24 228.787 15.24ZM228.787 13.8C229.36 13.8 229.893 13.66 230.387 13.38C230.88 13.1 231.28 12.68 231.587 12.12C231.893 11.56 232.047 10.8667 232.047 10.04C232.047 9.21333 231.893 8.52 231.587 7.96C231.293 7.4 230.9 6.98 230.407 6.7C229.913 6.42 229.387 6.28 228.827 6.28C228.253 6.28 227.72 6.42 227.227 6.7C226.733 6.98 226.333 7.4 226.027 7.96C225.72 8.52 225.567 9.21333 225.567 10.04C225.567 10.8667 225.72 11.56 226.027 12.12C226.333 12.68 226.727 13.1 227.207 13.38C227.7 13.66 228.227 13.8 228.787 13.8ZM240.663 15.24C239.716 15.24 238.863 15.0267 238.103 14.6C237.356 14.16 236.763 13.5533 236.323 12.78C235.896 11.9933 235.683 11.08 235.683 10.04C235.683 9 235.896 8.09333 236.323 7.32C236.763 6.53333 237.356 5.92667 238.103 5.5C238.863 5.06 239.716 4.84 240.663 4.84C241.836 4.84 242.823 5.14667 243.623 5.76C244.436 6.37333 244.949 7.19333 245.163 8.22H243.443C243.309 7.60667 242.983 7.13333 242.463 6.8C241.943 6.45333 241.336 6.28 240.643 6.28C240.083 6.28 239.556 6.42 239.063 6.7C238.569 6.98 238.169 7.4 237.863 7.96C237.556 8.52 237.403 9.21333 237.403 10.04C237.403 10.8667 237.556 11.56 237.863 12.12C238.169 12.68 238.569 13.1067 239.063 13.4C239.556 13.68 240.083 13.82 240.643 13.82C241.336 13.82 241.943 13.6533 242.463 13.32C242.983 12.9733 243.309 12.4867 243.443 11.86H245.163C244.963 12.86 244.456 13.6733 243.643 14.3C242.829 14.9267 241.836 15.24 240.663 15.24ZM248.529 2.88C248.196 2.88 247.916 2.77333 247.689 2.56C247.476 2.33333 247.369 2.05333 247.369 1.72C247.369 1.4 247.476 1.13333 247.689 0.919999C247.916 0.706666 248.196 0.599999 248.529 0.599999C248.849 0.599999 249.122 0.706666 249.349 0.919999C249.576 1.13333 249.689 1.4 249.689 1.72C249.689 2.05333 249.576 2.33333 249.349 2.56C249.122 2.77333 248.849 2.88 248.529 2.88ZM247.689 15V5.08H249.369V15H247.689ZM255.594 15.24C254.767 15.24 254.081 15.1 253.534 14.82C252.987 14.54 252.581 14.1667 252.314 13.7C252.047 13.2333 251.914 12.7267 251.914 12.18C251.914 11.1667 252.301 10.3867 253.074 9.84C253.847 9.29333 254.901 9.02 256.234 9.02H258.914V8.9C258.914 8.03333 258.687 7.38 258.234 6.94C257.781 6.48667 257.174 6.26 256.414 6.26C255.761 6.26 255.194 6.42667 254.714 6.76C254.247 7.08 253.954 7.55333 253.834 8.18H252.114C252.181 7.46 252.421 6.85333 252.834 6.36C253.261 5.86667 253.787 5.49333 254.414 5.24C255.041 4.97333 255.707 4.84 256.414 4.84C257.801 4.84 258.841 5.21333 259.534 5.96C260.241 6.69333 260.594 7.67333 260.594 8.9V15H259.094L258.994 13.22C258.714 13.78 258.301 14.26 257.754 14.66C257.221 15.0467 256.501 15.24 255.594 15.24ZM255.854 13.82C256.494 13.82 257.041 13.6533 257.494 13.32C257.961 12.9867 258.314 12.5533 258.554 12.02C258.794 11.4867 258.914 10.9267 258.914 10.34V10.32H256.374C255.387 10.32 254.687 10.4933 254.274 10.84C253.874 11.1733 253.674 11.5933 253.674 12.1C253.674 12.62 253.861 13.04 254.234 13.36C254.621 13.6667 255.161 13.82 255.854 13.82ZM263.114 15V0.599999H264.794V15H263.114ZM276.761 15C275.854 15 275.141 14.78 274.621 14.34C274.101 13.9 273.841 13.1067 273.841 11.96V6.5H272.121V5.08H273.841L274.061 2.7H275.521V5.08H278.441V6.5H275.521V11.96C275.521 12.5867 275.648 13.0133 275.901 13.24C276.154 13.4533 276.601 13.56 277.241 13.56H278.281V15H276.761ZM281.595 2.88C281.262 2.88 280.982 2.77333 280.755 2.56C280.542 2.33333 280.435 2.05333 280.435 1.72C280.435 1.4 280.542 1.13333 280.755 0.919999C280.982 0.706666 281.262 0.599999 281.595 0.599999C281.915 0.599999 282.189 0.706666 282.415 0.919999C282.642 1.13333 282.755 1.4 282.755 1.72C282.755 2.05333 282.642 2.33333 282.415 2.56C282.189 2.77333 281.915 2.88 281.595 2.88ZM280.755 15V5.08H282.435V15H280.755ZM289.82 15.24C288.874 15.24 288.034 15.0267 287.3 14.6C286.567 14.16 285.987 13.5533 285.56 12.78C285.147 12.0067 284.94 11.0933 284.94 10.04C284.94 9 285.147 8.09333 285.56 7.32C285.974 6.53333 286.547 5.92667 287.28 5.5C288.027 5.06 288.887 4.84 289.86 4.84C290.82 4.84 291.647 5.06 292.34 5.5C293.047 5.92667 293.587 6.49333 293.96 7.2C294.334 7.90667 294.52 8.66667 294.52 9.48C294.52 9.62667 294.514 9.77333 294.5 9.92C294.5 10.0667 294.5 10.2333 294.5 10.42H286.6C286.64 11.18 286.814 11.8133 287.12 12.32C287.44 12.8133 287.834 13.1867 288.3 13.44C288.78 13.6933 289.287 13.82 289.82 13.82C290.514 13.82 291.094 13.66 291.56 13.34C292.027 13.02 292.367 12.5867 292.58 12.04H294.24C293.974 12.96 293.46 13.7267 292.7 14.34C291.954 14.94 290.994 15.24 289.82 15.24ZM289.82 6.26C289.02 6.26 288.307 6.50667 287.68 7C287.067 7.48 286.714 8.18667 286.62 9.12H292.86C292.82 8.22667 292.514 7.52667 291.94 7.02C291.367 6.51333 290.66 6.26 289.82 6.26ZM300.547 15.24C299.361 15.24 298.374 14.94 297.587 14.34C296.801 13.74 296.341 12.9267 296.207 11.9H297.927C298.034 12.42 298.307 12.8733 298.747 13.26C299.201 13.6333 299.807 13.82 300.567 13.82C301.274 13.82 301.794 13.6733 302.127 13.38C302.461 13.0733 302.627 12.7133 302.627 12.3C302.627 11.7 302.407 11.3 301.967 11.1C301.541 10.9 300.934 10.72 300.147 10.56C299.614 10.4533 299.081 10.3 298.547 10.1C298.014 9.9 297.567 9.62 297.207 9.26C296.847 8.88667 296.667 8.4 296.667 7.8C296.667 6.93333 296.987 6.22667 297.627 5.68C298.281 5.12 299.161 4.84 300.267 4.84C301.321 4.84 302.181 5.10667 302.847 5.64C303.527 6.16 303.921 6.90667 304.027 7.88H302.367C302.301 7.37333 302.081 6.98 301.707 6.7C301.347 6.40667 300.861 6.26 300.247 6.26C299.647 6.26 299.181 6.38667 298.847 6.64C298.527 6.89333 298.367 7.22667 298.367 7.64C298.367 8.04 298.574 8.35333 298.987 8.58C299.414 8.80667 299.987 9 300.707 9.16C301.321 9.29333 301.901 9.46 302.447 9.66C303.007 9.84667 303.461 10.1333 303.807 10.52C304.167 10.8933 304.347 11.44 304.347 12.16C304.361 13.0533 304.021 13.7933 303.327 14.38C302.647 14.9533 301.721 15.24 300.547 15.24ZM316.6 15.24C315.653 15.24 314.8 15.0267 314.04 14.6C313.293 14.16 312.7 13.5533 312.26 12.78C311.833 11.9933 311.62 11.08 311.62 10.04C311.62 9 311.833 8.09333 312.26 7.32C312.7 6.53333 313.293 5.92667 314.04 5.5C314.8 5.06 315.653 4.84 316.6 4.84C317.773 4.84 318.76 5.14667 319.56 5.76C320.373 6.37333 320.887 7.19333 321.1 8.22H319.38C319.247 7.60667 318.92 7.13333 318.4 6.8C317.88 6.45333 317.273 6.28 316.58 6.28C316.02 6.28 315.493 6.42 315 6.7C314.507 6.98 314.107 7.4 313.8 7.96C313.493 8.52 313.34 9.21333 313.34 10.04C313.34 10.8667 313.493 11.56 313.8 12.12C314.107 12.68 314.507 13.1067 315 13.4C315.493 13.68 316.02 13.82 316.58 13.82C317.273 13.82 317.88 13.6533 318.4 13.32C318.92 12.9733 319.247 12.4867 319.38 11.86H321.1C320.9 12.86 320.393 13.6733 319.58 14.3C318.767 14.9267 317.773 15.24 316.6 15.24ZM327.966 15.24C327.033 15.24 326.193 15.0267 325.446 14.6C324.7 14.1733 324.106 13.5733 323.666 12.8C323.24 12.0133 323.026 11.0933 323.026 10.04C323.026 8.98667 323.246 8.07333 323.686 7.3C324.126 6.51333 324.72 5.90667 325.466 5.48C326.226 5.05333 327.073 4.84 328.006 4.84C328.94 4.84 329.78 5.05333 330.526 5.48C331.273 5.90667 331.86 6.51333 332.286 7.3C332.726 8.07333 332.946 8.98667 332.946 10.04C332.946 11.0933 332.726 12.0133 332.286 12.8C331.846 13.5733 331.246 14.1733 330.486 14.6C329.74 15.0267 328.9 15.24 327.966 15.24ZM327.966 13.8C328.54 13.8 329.073 13.66 329.566 13.38C330.06 13.1 330.46 12.68 330.766 12.12C331.073 11.56 331.226 10.8667 331.226 10.04C331.226 9.21333 331.073 8.52 330.766 7.96C330.473 7.4 330.08 6.98 329.586 6.7C329.093 6.42 328.566 6.28 328.006 6.28C327.433 6.28 326.9 6.42 326.406 6.7C325.913 6.98 325.513 7.4 325.206 7.96C324.9 8.52 324.746 9.21333 324.746 10.04C324.746 10.8667 324.9 11.56 325.206 12.12C325.513 12.68 325.906 13.1 326.386 13.38C326.88 13.66 327.406 13.8 327.966 13.8ZM335.282 15V0.599999H336.962V15H335.282ZM339.716 15V0.599999H341.396V15H339.716ZM347.45 15.24C346.623 15.24 345.936 15.1 345.39 14.82C344.843 14.54 344.436 14.1667 344.17 13.7C343.903 13.2333 343.77 12.7267 343.77 12.18C343.77 11.1667 344.156 10.3867 344.93 9.84C345.703 9.29333 346.756 9.02 348.09 9.02H350.77V8.9C350.77 8.03333 350.543 7.38 350.09 6.94C349.636 6.48667 349.03 6.26 348.27 6.26C347.616 6.26 347.05 6.42667 346.57 6.76C346.103 7.08 345.81 7.55333 345.69 8.18H343.97C344.036 7.46 344.276 6.85333 344.69 6.36C345.116 5.86667 345.643 5.49333 346.27 5.24C346.896 4.97333 347.563 4.84 348.27 4.84C349.656 4.84 350.696 5.21333 351.39 5.96C352.096 6.69333 352.45 7.67333 352.45 8.9V15H350.95L350.85 13.22C350.57 13.78 350.156 14.26 349.61 14.66C349.076 15.0467 348.356 15.24 347.45 15.24ZM347.71 13.82C348.35 13.82 348.896 13.6533 349.35 13.32C349.816 12.9867 350.17 12.5533 350.41 12.02C350.65 11.4867 350.77 10.9267 350.77 10.34V10.32H348.23C347.243 10.32 346.543 10.4933 346.13 10.84C345.73 11.1733 345.53 11.5933 345.53 12.1C345.53 12.62 345.716 13.04 346.09 13.36C346.476 13.6667 347.016 13.82 347.71 13.82ZM360.27 15.24C359.457 15.24 358.73 15.0733 358.09 14.74C357.463 14.4067 356.983 13.94 356.65 13.34L356.49 15H354.97V0.599999H356.65V6.72C356.97 6.24 357.423 5.80667 358.01 5.42C358.61 5.03333 359.37 4.84 360.29 4.84C361.277 4.84 362.137 5.06667 362.87 5.52C363.603 5.97333 364.17 6.59333 364.57 7.38C364.983 8.16667 365.19 9.06 365.19 10.06C365.19 11.06 364.983 11.9533 364.57 12.74C364.17 13.5133 363.597 14.1267 362.85 14.58C362.117 15.02 361.257 15.24 360.27 15.24ZM360.09 13.78C360.757 13.78 361.343 13.6267 361.85 13.32C362.357 13 362.757 12.56 363.05 12C363.343 11.44 363.49 10.7867 363.49 10.04C363.49 9.29333 363.343 8.64 363.05 8.08C362.757 7.52 362.357 7.08667 361.85 6.78C361.343 6.46 360.757 6.3 360.09 6.3C359.423 6.3 358.837 6.46 358.33 6.78C357.823 7.08667 357.423 7.52 357.13 8.08C356.837 8.64 356.69 9.29333 356.69 10.04C356.69 10.7867 356.837 11.44 357.13 12C357.423 12.56 357.823 13 358.33 13.32C358.837 13.6267 359.423 13.78 360.09 13.78ZM372.048 15.24C371.115 15.24 370.275 15.0267 369.528 14.6C368.782 14.1733 368.188 13.5733 367.748 12.8C367.322 12.0133 367.108 11.0933 367.108 10.04C367.108 8.98667 367.328 8.07333 367.768 7.3C368.208 6.51333 368.802 5.90667 369.548 5.48C370.308 5.05333 371.155 4.84 372.088 4.84C373.022 4.84 373.862 5.05333 374.608 5.48C375.355 5.90667 375.942 6.51333 376.368 7.3C376.808 8.07333 377.028 8.98667 377.028 10.04C377.028 11.0933 376.808 12.0133 376.368 12.8C375.928 13.5733 375.328 14.1733 374.568 14.6C373.822 15.0267 372.982 15.24 372.048 15.24ZM372.048 13.8C372.622 13.8 373.155 13.66 373.648 13.38C374.142 13.1 374.542 12.68 374.848 12.12C375.155 11.56 375.308 10.8667 375.308 10.04C375.308 9.21333 375.155 8.52 374.848 7.96C374.555 7.4 374.162 6.98 373.668 6.7C373.175 6.42 372.648 6.28 372.088 6.28C371.515 6.28 370.982 6.42 370.488 6.7C369.995 6.98 369.595 7.4 369.288 7.96C368.982 8.52 368.828 9.21333 368.828 10.04C368.828 10.8667 368.982 11.56 369.288 12.12C369.595 12.68 369.988 13.1 370.468 13.38C370.962 13.66 371.488 13.8 372.048 13.8ZM379.364 15V5.08H380.884L381.024 6.98C381.331 6.32667 381.798 5.80667 382.424 5.42C383.051 5.03333 383.824 4.84 384.744 4.84V6.6H384.284C383.698 6.6 383.158 6.70667 382.664 6.92C382.171 7.12 381.778 7.46667 381.484 7.96C381.191 8.45333 381.044 9.13333 381.044 10V15H379.364ZM389.93 15.24C389.103 15.24 388.417 15.1 387.87 14.82C387.323 14.54 386.917 14.1667 386.65 13.7C386.383 13.2333 386.25 12.7267 386.25 12.18C386.25 11.1667 386.637 10.3867 387.41 9.84C388.183 9.29333 389.237 9.02 390.57 9.02H393.25V8.9C393.25 8.03333 393.023 7.38 392.57 6.94C392.117 6.48667 391.51 6.26 390.75 6.26C390.097 6.26 389.53 6.42667 389.05 6.76C388.583 7.08 388.29 7.55333 388.17 8.18H386.45C386.517 7.46 386.757 6.85333 387.17 6.36C387.597 5.86667 388.123 5.49333 388.75 5.24C389.377 4.97333 390.043 4.84 390.75 4.84C392.137 4.84 393.177 5.21333 393.87 5.96C394.577 6.69333 394.93 7.67333 394.93 8.9V15H393.43L393.33 13.22C393.05 13.78 392.637 14.26 392.09 14.66C391.557 15.0467 390.837 15.24 389.93 15.24ZM390.19 13.82C390.83 13.82 391.377 13.6533 391.83 13.32C392.297 12.9867 392.65 12.5533 392.89 12.02C393.13 11.4867 393.25 10.9267 393.25 10.34V10.32H390.71C389.723 10.32 389.023 10.4933 388.61 10.84C388.21 11.1733 388.01 11.5933 388.01 12.1C388.01 12.62 388.197 13.04 388.57 13.36C388.957 13.6667 389.497 13.82 390.19 13.82ZM401.097 15C400.19 15 399.477 14.78 398.957 14.34C398.437 13.9 398.177 13.1067 398.177 11.96V6.5H396.457V5.08H398.177L398.397 2.7H399.857V5.08H402.777V6.5H399.857V11.96C399.857 12.5867 399.984 13.0133 400.237 13.24C400.49 13.4533 400.937 13.56 401.577 13.56H402.617V15H401.097ZM409.098 15.24C408.151 15.24 407.311 15.0267 406.578 14.6C405.844 14.16 405.264 13.5533 404.838 12.78C404.424 12.0067 404.218 11.0933 404.218 10.04C404.218 9 404.424 8.09333 404.838 7.32C405.251 6.53333 405.824 5.92667 406.558 5.5C407.304 5.06 408.164 4.84 409.138 4.84C410.098 4.84 410.924 5.06 411.618 5.5C412.324 5.92667 412.864 6.49333 413.238 7.2C413.611 7.90667 413.798 8.66667 413.798 9.48C413.798 9.62667 413.791 9.77333 413.778 9.92C413.778 10.0667 413.778 10.2333 413.778 10.42H405.878C405.918 11.18 406.091 11.8133 406.398 12.32C406.718 12.8133 407.111 13.1867 407.578 13.44C408.058 13.6933 408.564 13.82 409.098 13.82C409.791 13.82 410.371 13.66 410.838 13.34C411.304 13.02 411.644 12.5867 411.858 12.04H413.518C413.251 12.96 412.738 13.7267 411.978 14.34C411.231 14.94 410.271 15.24 409.098 15.24ZM409.098 6.26C408.298 6.26 407.584 6.50667 406.958 7C406.344 7.48 405.991 8.18667 405.898 9.12H412.138C412.098 8.22667 411.791 7.52667 411.218 7.02C410.644 6.51333 409.938 6.26 409.098 6.26ZM426.618 15.24C425.804 15.24 425.078 15.0733 424.438 14.74C423.811 14.4067 423.331 13.94 422.998 13.34L422.838 15H421.318V0.599999H422.998V6.72C423.318 6.24 423.771 5.80667 424.358 5.42C424.958 5.03333 425.718 4.84 426.638 4.84C427.624 4.84 428.484 5.06667 429.218 5.52C429.951 5.97333 430.518 6.59333 430.918 7.38C431.331 8.16667 431.538 9.06 431.538 10.06C431.538 11.06 431.331 11.9533 430.918 12.74C430.518 13.5133 429.944 14.1267 429.198 14.58C428.464 15.02 427.604 15.24 426.618 15.24ZM426.438 13.78C427.104 13.78 427.691 13.6267 428.198 13.32C428.704 13 429.104 12.56 429.398 12C429.691 11.44 429.838 10.7867 429.838 10.04C429.838 9.29333 429.691 8.64 429.398 8.08C429.104 7.52 428.704 7.08667 428.198 6.78C427.691 6.46 427.104 6.3 426.438 6.3C425.771 6.3 425.184 6.46 424.678 6.78C424.171 7.08667 423.771 7.52 423.478 8.08C423.184 8.64 423.038 9.29333 423.038 10.04C423.038 10.7867 423.184 11.44 423.478 12C423.771 12.56 424.171 13 424.678 13.32C425.184 13.6267 425.771 13.78 426.438 13.78ZM438.336 15.24C437.389 15.24 436.549 15.0267 435.816 14.6C435.083 14.16 434.503 13.5533 434.076 12.78C433.663 12.0067 433.456 11.0933 433.456 10.04C433.456 9 433.663 8.09333 434.076 7.32C434.489 6.53333 435.063 5.92667 435.796 5.5C436.543 5.06 437.403 4.84 438.376 4.84C439.336 4.84 440.163 5.06 440.856 5.5C441.563 5.92667 442.103 6.49333 442.476 7.2C442.849 7.90667 443.036 8.66667 443.036 9.48C443.036 9.62667 443.029 9.77333 443.016 9.92C443.016 10.0667 443.016 10.2333 443.016 10.42H435.116C435.156 11.18 435.329 11.8133 435.636 12.32C435.956 12.8133 436.349 13.1867 436.816 13.44C437.296 13.6933 437.803 13.82 438.336 13.82C439.029 13.82 439.609 13.66 440.076 13.34C440.543 13.02 440.883 12.5867 441.096 12.04H442.756C442.489 12.96 441.976 13.7267 441.216 14.34C440.469 14.94 439.509 15.24 438.336 15.24ZM438.336 6.26C437.536 6.26 436.823 6.50667 436.196 7C435.583 7.48 435.229 8.18667 435.136 9.12H441.376C441.336 8.22667 441.029 7.52667 440.456 7.02C439.883 6.51333 439.176 6.26 438.336 6.26ZM448.851 15C447.944 15 447.231 14.78 446.711 14.34C446.191 13.9 445.931 13.1067 445.931 11.96V6.5H444.211V5.08H445.931L446.151 2.7H447.611V5.08H450.531V6.5H447.611V11.96C447.611 12.5867 447.737 13.0133 447.991 13.24C448.244 13.4533 448.691 13.56 449.331 13.56H450.371V15H448.851ZM456.585 15C455.678 15 454.965 14.78 454.445 14.34C453.925 13.9 453.665 13.1067 453.665 11.96V6.5H451.945V5.08H453.665L453.885 2.7H455.345V5.08H458.265V6.5H455.345V11.96C455.345 12.5867 455.472 13.0133 455.725 13.24C455.978 13.4533 456.425 13.56 457.065 13.56H458.105V15H456.585ZM464.586 15.24C463.639 15.24 462.799 15.0267 462.066 14.6C461.333 14.16 460.753 13.5533 460.326 12.78C459.913 12.0067 459.706 11.0933 459.706 10.04C459.706 9 459.913 8.09333 460.326 7.32C460.739 6.53333 461.313 5.92667 462.046 5.5C462.793 5.06 463.653 4.84 464.626 4.84C465.586 4.84 466.413 5.06 467.106 5.5C467.813 5.92667 468.353 6.49333 468.726 7.2C469.099 7.90667 469.286 8.66667 469.286 9.48C469.286 9.62667 469.279 9.77333 469.266 9.92C469.266 10.0667 469.266 10.2333 469.266 10.42H461.366C461.406 11.18 461.579 11.8133 461.886 12.32C462.206 12.8133 462.599 13.1867 463.066 13.44C463.546 13.6933 464.053 13.82 464.586 13.82C465.279 13.82 465.859 13.66 466.326 13.34C466.793 13.02 467.133 12.5867 467.346 12.04H469.006C468.739 12.96 468.226 13.7267 467.466 14.34C466.719 14.94 465.759 15.24 464.586 15.24ZM464.586 6.26C463.786 6.26 463.073 6.50667 462.446 7C461.833 7.48 461.479 8.18667 461.386 9.12H467.626C467.586 8.22667 467.279 7.52667 466.706 7.02C466.133 6.51333 465.426 6.26 464.586 6.26ZM471.513 15V5.08H473.033L473.173 6.98C473.479 6.32667 473.946 5.80667 474.573 5.42C475.199 5.03333 475.973 4.84 476.893 4.84V6.6H476.433C475.846 6.6 475.306 6.70667 474.813 6.92C474.319 7.12 473.926 7.46667 473.633 7.96C473.339 8.45333 473.193 9.13333 473.193 10V15H471.513ZM476.813 17.38L477.973 12.96H479.713L477.973 17.38H476.813ZM490.301 15.24C489.474 15.24 488.788 15.1 488.241 14.82C487.694 14.54 487.288 14.1667 487.021 13.7C486.754 13.2333 486.621 12.7267 486.621 12.18C486.621 11.1667 487.008 10.3867 487.781 9.84C488.554 9.29333 489.608 9.02 490.941 9.02H493.621V8.9C493.621 8.03333 493.394 7.38 492.941 6.94C492.488 6.48667 491.881 6.26 491.121 6.26C490.468 6.26 489.901 6.42667 489.421 6.76C488.954 7.08 488.661 7.55333 488.541 8.18H486.821C486.888 7.46 487.128 6.85333 487.541 6.36C487.968 5.86667 488.494 5.49333 489.121 5.24C489.748 4.97333 490.414 4.84 491.121 4.84C492.508 4.84 493.548 5.21333 494.241 5.96C494.948 6.69333 495.301 7.67333 495.301 8.9V15H493.801L493.701 13.22C493.421 13.78 493.008 14.26 492.461 14.66C491.928 15.0467 491.208 15.24 490.301 15.24ZM490.561 13.82C491.201 13.82 491.748 13.6533 492.201 13.32C492.668 12.9867 493.021 12.5533 493.261 12.02C493.501 11.4867 493.621 10.9267 493.621 10.34V10.32H491.081C490.094 10.32 489.394 10.4933 488.981 10.84C488.581 11.1733 488.381 11.5933 488.381 12.1C488.381 12.62 488.568 13.04 488.941 13.36C489.328 13.6667 489.868 13.82 490.561 13.82ZM497.821 15V5.08H499.341L499.481 6.98C499.788 6.32667 500.255 5.80667 500.881 5.42C501.508 5.03333 502.281 4.84 503.201 4.84V6.6H502.741C502.155 6.6 501.615 6.70667 501.121 6.92C500.628 7.12 500.235 7.46667 499.941 7.96C499.648 8.45333 499.501 9.13333 499.501 10V15H497.821ZM509.176 15.24C508.229 15.24 507.389 15.0267 506.656 14.6C505.923 14.16 505.343 13.5533 504.916 12.78C504.503 12.0067 504.296 11.0933 504.296 10.04C504.296 9 504.503 8.09333 504.916 7.32C505.329 6.53333 505.903 5.92667 506.636 5.5C507.383 5.06 508.243 4.84 509.216 4.84C510.176 4.84 511.003 5.06 511.696 5.5C512.403 5.92667 512.943 6.49333 513.316 7.2C513.689 7.90667 513.876 8.66667 513.876 9.48C513.876 9.62667 513.869 9.77333 513.856 9.92C513.856 10.0667 513.856 10.2333 513.856 10.42H505.956C505.996 11.18 506.169 11.8133 506.476 12.32C506.796 12.8133 507.189 13.1867 507.656 13.44C508.136 13.6933 508.643 13.82 509.176 13.82C509.869 13.82 510.449 13.66 510.916 13.34C511.383 13.02 511.723 12.5867 511.936 12.04H513.596C513.329 12.96 512.816 13.7267 512.056 14.34C511.309 14.94 510.349 15.24 509.176 15.24ZM509.176 6.26C508.376 6.26 507.663 6.50667 507.036 7C506.423 7.48 506.069 8.18667 505.976 9.12H512.216C512.176 8.22667 511.869 7.52667 511.296 7.02C510.723 6.51333 510.016 6.26 509.176 6.26ZM521.396 15V5.08H522.916L523.036 6.52C523.356 5.98667 523.782 5.57333 524.316 5.28C524.849 4.98667 525.449 4.84 526.116 4.84C526.902 4.84 527.576 5 528.136 5.32C528.709 5.64 529.149 6.12667 529.456 6.78C529.802 6.18 530.276 5.70667 530.876 5.36C531.489 5.01333 532.149 4.84 532.856 4.84C534.042 4.84 534.989 5.2 535.696 5.92C536.402 6.62667 536.756 7.72 536.756 9.2V15H535.096V9.38C535.096 8.35333 534.889 7.58 534.476 7.06C534.062 6.54 533.469 6.28 532.696 6.28C531.896 6.28 531.229 6.59333 530.696 7.22C530.176 7.83333 529.916 8.71333 529.916 9.86V15H528.236V9.38C528.236 8.35333 528.029 7.58 527.616 7.06C527.202 6.54 526.609 6.28 525.836 6.28C525.049 6.28 524.389 6.59333 523.856 7.22C523.336 7.83333 523.076 8.71333 523.076 9.86V15H521.396ZM543.806 15.24C542.873 15.24 542.033 15.0267 541.286 14.6C540.54 14.1733 539.946 13.5733 539.506 12.8C539.08 12.0133 538.866 11.0933 538.866 10.04C538.866 8.98667 539.086 8.07333 539.526 7.3C539.966 6.51333 540.56 5.90667 541.306 5.48C542.066 5.05333 542.913 4.84 543.846 4.84C544.78 4.84 545.62 5.05333 546.366 5.48C547.113 5.90667 547.7 6.51333 548.126 7.3C548.566 8.07333 548.786 8.98667 548.786 10.04C548.786 11.0933 548.566 12.0133 548.126 12.8C547.686 13.5733 547.086 14.1733 546.326 14.6C545.58 15.0267 544.74 15.24 543.806 15.24ZM543.806 13.8C544.38 13.8 544.913 13.66 545.406 13.38C545.9 13.1 546.3 12.68 546.606 12.12C546.913 11.56 547.066 10.8667 547.066 10.04C547.066 9.21333 546.913 8.52 546.606 7.96C546.313 7.4 545.92 6.98 545.426 6.7C544.933 6.42 544.406 6.28 543.846 6.28C543.273 6.28 542.74 6.42 542.246 6.7C541.753 6.98 541.353 7.4 541.046 7.96C540.74 8.52 540.586 9.21333 540.586 10.04C540.586 10.8667 540.74 11.56 541.046 12.12C541.353 12.68 541.746 13.1 542.226 13.38C542.72 13.66 543.246 13.8 543.806 13.8ZM551.122 15V5.08H552.642L552.782 6.98C553.089 6.32667 553.556 5.80667 554.182 5.42C554.809 5.03333 555.582 4.84 556.502 4.84V6.6H556.042C555.456 6.6 554.916 6.70667 554.422 6.92C553.929 7.12 553.536 7.46667 553.242 7.96C552.949 8.45333 552.802 9.13333 552.802 10V15H551.122ZM562.477 15.24C561.53 15.24 560.69 15.0267 559.957 14.6C559.223 14.16 558.643 13.5533 558.217 12.78C557.803 12.0067 557.597 11.0933 557.597 10.04C557.597 9 557.803 8.09333 558.217 7.32C558.63 6.53333 559.203 5.92667 559.937 5.5C560.683 5.06 561.543 4.84 562.517 4.84C563.477 4.84 564.303 5.06 564.997 5.5C565.703 5.92667 566.243 6.49333 566.617 7.2C566.99 7.90667 567.177 8.66667 567.177 9.48C567.177 9.62667 567.17 9.77333 567.157 9.92C567.157 10.0667 567.157 10.2333 567.157 10.42H559.257C559.297 11.18 559.47 11.8133 559.777 12.32C560.097 12.8133 560.49 13.1867 560.957 13.44C561.437 13.6933 561.943 13.82 562.477 13.82C563.17 13.82 563.75 13.66 564.217 13.34C564.683 13.02 565.023 12.5867 565.237 12.04H566.897C566.63 12.96 566.117 13.7267 565.357 14.34C564.61 14.94 563.65 15.24 562.477 15.24ZM562.477 6.26C561.677 6.26 560.963 6.50667 560.337 7C559.723 7.48 559.37 8.18667 559.277 9.12H565.517C565.477 8.22667 565.17 7.52667 564.597 7.02C564.023 6.51333 563.317 6.26 562.477 6.26ZM574.696 19.4V5.08H576.216L576.376 6.72C576.696 6.24 577.15 5.80667 577.736 5.42C578.336 5.03333 579.096 4.84 580.016 4.84C581.003 4.84 581.863 5.06667 582.596 5.52C583.33 5.97333 583.896 6.59333 584.296 7.38C584.71 8.16667 584.916 9.06 584.916 10.06C584.916 11.06 584.71 11.9533 584.296 12.74C583.896 13.5133 583.323 14.1267 582.576 14.58C581.843 15.02 580.983 15.24 579.996 15.24C579.183 15.24 578.456 15.0733 577.816 14.74C577.19 14.4067 576.71 13.94 576.376 13.34V19.4H574.696ZM579.816 13.78C580.483 13.78 581.07 13.6267 581.576 13.32C582.083 13 582.483 12.56 582.776 12C583.07 11.44 583.216 10.7867 583.216 10.04C583.216 9.29333 583.07 8.64 582.776 8.08C582.483 7.52 582.083 7.08667 581.576 6.78C581.07 6.46 580.483 6.3 579.816 6.3C579.15 6.3 578.563 6.46 578.056 6.78C577.55 7.08667 577.15 7.52 576.856 8.08C576.563 8.64 576.416 9.29333 576.416 10.04C576.416 10.7867 576.563 11.44 576.856 12C577.15 12.56 577.55 13 578.056 13.32C578.563 13.6267 579.15 13.78 579.816 13.78ZM587.255 15V5.08H588.775L588.915 6.98C589.222 6.32667 589.688 5.80667 590.315 5.42C590.942 5.03333 591.715 4.84 592.635 4.84V6.6H592.175C591.588 6.6 591.048 6.70667 590.555 6.92C590.062 7.12 589.668 7.46667 589.375 7.96C589.082 8.45333 588.935 9.13333 588.935 10V15H587.255ZM598.67 15.24C597.736 15.24 596.896 15.0267 596.15 14.6C595.403 14.1733 594.81 13.5733 594.37 12.8C593.943 12.0133 593.73 11.0933 593.73 10.04C593.73 8.98667 593.95 8.07333 594.39 7.3C594.83 6.51333 595.423 5.90667 596.17 5.48C596.93 5.05333 597.776 4.84 598.71 4.84C599.643 4.84 600.483 5.05333 601.23 5.48C601.976 5.90667 602.563 6.51333 602.99 7.3C603.43 8.07333 603.65 8.98667 603.65 10.04C603.65 11.0933 603.43 12.0133 602.99 12.8C602.55 13.5733 601.95 14.1733 601.19 14.6C600.443 15.0267 599.603 15.24 598.67 15.24ZM598.67 13.8C599.243 13.8 599.776 13.66 600.27 13.38C600.763 13.1 601.163 12.68 601.47 12.12C601.776 11.56 601.93 10.8667 601.93 10.04C601.93 9.21333 601.776 8.52 601.47 7.96C601.176 7.4 600.783 6.98 600.29 6.7C599.796 6.42 599.27 6.28 598.71 6.28C598.136 6.28 597.603 6.42 597.11 6.7C596.616 6.98 596.216 7.4 595.91 7.96C595.603 8.52 595.45 9.21333 595.45 10.04C595.45 10.8667 595.603 11.56 595.91 12.12C596.216 12.68 596.61 13.1 597.09 13.38C597.583 13.66 598.11 13.8 598.67 13.8ZM610.485 15.24C609.499 15.24 608.632 15.0133 607.885 14.56C607.152 14.1067 606.579 13.4867 606.165 12.7C605.765 11.9133 605.565 11.02 605.565 10.02C605.565 9.02 605.772 8.13333 606.185 7.36C606.599 6.57333 607.172 5.96 607.905 5.52C608.639 5.06667 609.505 4.84 610.505 4.84C611.319 4.84 612.039 5.00667 612.665 5.34C613.292 5.67333 613.779 6.14 614.125 6.74V0.599999H615.805V15H614.285L614.125 13.36C613.805 13.84 613.345 14.2733 612.745 14.66C612.145 15.0467 611.392 15.24 610.485 15.24ZM610.665 13.78C611.332 13.78 611.919 13.6267 612.425 13.32C612.945 13 613.345 12.56 613.625 12C613.919 11.44 614.065 10.7867 614.065 10.04C614.065 9.29333 613.919 8.64 613.625 8.08C613.345 7.52 612.945 7.08667 612.425 6.78C611.919 6.46 611.332 6.3 610.665 6.3C610.012 6.3 609.425 6.46 608.905 6.78C608.399 7.08667 607.999 7.52 607.705 8.08C607.425 8.64 607.285 9.29333 607.285 10.04C607.285 10.7867 607.425 11.44 607.705 12C607.999 12.56 608.399 13 608.905 13.32C609.425 13.6267 610.012 13.78 610.665 13.78ZM622.164 15.24C620.991 15.24 620.057 14.8867 619.364 14.18C618.671 13.46 618.324 12.36 618.324 10.88V5.08H620.004V10.7C620.004 12.7667 620.851 13.8 622.544 13.8C623.411 13.8 624.124 13.4933 624.684 12.88C625.257 12.2533 625.544 11.3667 625.544 10.22V5.08H627.224V15H625.704L625.584 13.22C625.277 13.8467 624.817 14.34 624.204 14.7C623.604 15.06 622.924 15.24 622.164 15.24ZM634.549 15.24C633.603 15.24 632.749 15.0267 631.989 14.6C631.243 14.16 630.649 13.5533 630.209 12.78C629.783 11.9933 629.569 11.08 629.569 10.04C629.569 9 629.783 8.09333 630.209 7.32C630.649 6.53333 631.243 5.92667 631.989 5.5C632.749 5.06 633.603 4.84 634.549 4.84C635.723 4.84 636.709 5.14667 637.509 5.76C638.323 6.37333 638.836 7.19333 639.049 8.22H637.329C637.196 7.60667 636.869 7.13333 636.349 6.8C635.829 6.45333 635.223 6.28 634.529 6.28C633.969 6.28 633.443 6.42 632.949 6.7C632.456 6.98 632.056 7.4 631.749 7.96C631.443 8.52 631.289 9.21333 631.289 10.04C631.289 10.8667 631.443 11.56 631.749 12.12C632.056 12.68 632.456 13.1067 632.949 13.4C633.443 13.68 633.969 13.82 634.529 13.82C635.223 13.82 635.829 13.6533 636.349 13.32C636.869 12.9733 637.196 12.4867 637.329 11.86H639.049C638.849 12.86 638.343 13.6733 637.529 14.3C636.716 14.9267 635.723 15.24 634.549 15.24ZM645.042 15C644.136 15 643.422 14.78 642.902 14.34C642.382 13.9 642.122 13.1067 642.122 11.96V6.5H640.402V5.08H642.122L642.342 2.7H643.802V5.08H646.722V6.5H643.802V11.96C643.802 12.5867 643.929 13.0133 644.182 13.24C644.436 13.4533 644.882 13.56 645.522 13.56H646.562V15H645.042ZM649.877 2.88C649.543 2.88 649.263 2.77333 649.037 2.56C648.823 2.33333 648.717 2.05333 648.717 1.72C648.717 1.4 648.823 1.13333 649.037 0.919999C649.263 0.706666 649.543 0.599999 649.877 0.599999C650.197 0.599999 650.47 0.706666 650.697 0.919999C650.923 1.13333 651.037 1.4 651.037 1.72C651.037 2.05333 650.923 2.33333 650.697 2.56C650.47 2.77333 650.197 2.88 649.877 2.88ZM649.037 15V5.08H650.717V15H649.037ZM656.502 15L652.742 5.08H654.502L657.482 13.38L660.482 5.08H662.202L658.442 15H656.502ZM668.024 15.24C667.077 15.24 666.237 15.0267 665.504 14.6C664.77 14.16 664.19 13.5533 663.764 12.78C663.35 12.0067 663.144 11.0933 663.144 10.04C663.144 9 663.35 8.09333 663.764 7.32C664.177 6.53333 664.75 5.92667 665.484 5.5C666.23 5.06 667.09 4.84 668.064 4.84C669.024 4.84 669.85 5.06 670.544 5.5C671.25 5.92667 671.79 6.49333 672.164 7.2C672.537 7.90667 672.724 8.66667 672.724 9.48C672.724 9.62667 672.717 9.77333 672.704 9.92C672.704 10.0667 672.704 10.2333 672.704 10.42H664.804C664.844 11.18 665.017 11.8133 665.324 12.32C665.644 12.8133 666.037 13.1867 666.504 13.44C666.984 13.6933 667.49 13.82 668.024 13.82C668.717 13.82 669.297 13.66 669.764 13.34C670.23 13.02 670.57 12.5867 670.784 12.04H672.444C672.177 12.96 671.664 13.7267 670.904 14.34C670.157 14.94 669.197 15.24 668.024 15.24ZM668.024 6.26C667.224 6.26 666.51 6.50667 665.884 7C665.27 7.48 664.917 8.18667 664.824 9.12H671.064C671.024 8.22667 670.717 7.52667 670.144 7.02C669.57 6.51333 668.864 6.26 668.024 6.26ZM683.543 15.24C682.717 15.24 682.03 15.1 681.483 14.82C680.937 14.54 680.53 14.1667 680.263 13.7C679.997 13.2333 679.863 12.7267 679.863 12.18C679.863 11.1667 680.25 10.3867 681.023 9.84C681.797 9.29333 682.85 9.02 684.183 9.02H686.863V8.9C686.863 8.03333 686.637 7.38 686.183 6.94C685.73 6.48667 685.123 6.26 684.363 6.26C683.71 6.26 683.143 6.42667 682.663 6.76C682.197 7.08 681.903 7.55333 681.783 8.18H680.063C680.13 7.46 680.37 6.85333 680.783 6.36C681.21 5.86667 681.737 5.49333 682.363 5.24C682.99 4.97333 683.657 4.84 684.363 4.84C685.75 4.84 686.79 5.21333 687.483 5.96C688.19 6.69333 688.543 7.67333 688.543 8.9V15H687.043L686.943 13.22C686.663 13.78 686.25 14.26 685.703 14.66C685.17 15.0467 684.45 15.24 683.543 15.24ZM683.803 13.82C684.443 13.82 684.99 13.6533 685.443 13.32C685.91 12.9867 686.263 12.5533 686.503 12.02C686.743 11.4867 686.863 10.9267 686.863 10.34V10.32H684.323C683.337 10.32 682.637 10.4933 682.223 10.84C681.823 11.1733 681.623 11.5933 681.623 12.1C681.623 12.62 681.81 13.04 682.183 13.36C682.57 13.6667 683.11 13.82 683.803 13.82ZM691.064 15V5.08H692.584L692.684 6.86C693.004 6.23333 693.464 5.74 694.064 5.38C694.664 5.02 695.344 4.84 696.104 4.84C697.277 4.84 698.21 5.2 698.904 5.92C699.61 6.62667 699.964 7.72 699.964 9.2V15H698.284V9.38C698.284 7.31333 697.43 6.28 695.724 6.28C694.87 6.28 694.157 6.59333 693.584 7.22C693.024 7.83333 692.744 8.71333 692.744 9.86V15H691.064ZM707.009 15.24C706.022 15.24 705.156 15.0133 704.409 14.56C703.676 14.1067 703.102 13.4867 702.689 12.7C702.289 11.9133 702.089 11.02 702.089 10.02C702.089 9.02 702.296 8.13333 702.709 7.36C703.122 6.57333 703.696 5.96 704.429 5.52C705.162 5.06667 706.029 4.84 707.029 4.84C707.842 4.84 708.562 5.00667 709.189 5.34C709.816 5.67333 710.302 6.14 710.649 6.74V0.599999H712.329V15H710.809L710.649 13.36C710.329 13.84 709.869 14.2733 709.269 14.66C708.669 15.0467 707.916 15.24 707.009 15.24ZM707.189 13.78C707.856 13.78 708.442 13.6267 708.949 13.32C709.469 13 709.869 12.56 710.149 12C710.442 11.44 710.589 10.7867 710.589 10.04C710.589 9.29333 710.442 8.64 710.149 8.08C709.869 7.52 709.469 7.08667 708.949 6.78C708.442 6.46 707.856 6.3 707.189 6.3C706.536 6.3 705.949 6.46 705.429 6.78C704.922 7.08667 704.522 7.52 704.229 8.08C703.949 8.64 703.809 9.29333 703.809 10.04C703.809 10.7867 703.949 11.44 704.229 12C704.522 12.56 704.922 13 705.429 13.32C705.949 13.6267 706.536 13.78 707.189 13.78ZM231.571 45.24C230.744 45.24 230.057 45.1 229.511 44.82C228.964 44.54 228.557 44.1667 228.291 43.7C228.024 43.2333 227.891 42.7267 227.891 42.18C227.891 41.1667 228.277 40.3867 229.051 39.84C229.824 39.2933 230.877 39.02 232.211 39.02H234.891V38.9C234.891 38.0333 234.664 37.38 234.211 36.94C233.757 36.4867 233.151 36.26 232.391 36.26C231.737 36.26 231.171 36.4267 230.691 36.76C230.224 37.08 229.931 37.5533 229.811 38.18H228.091C228.157 37.46 228.397 36.8533 228.811 36.36C229.237 35.8667 229.764 35.4933 230.391 35.24C231.017 34.9733 231.684 34.84 232.391 34.84C233.777 34.84 234.817 35.2133 235.511 35.96C236.217 36.6933 236.571 37.6733 236.571 38.9V45H235.071L234.971 43.22C234.691 43.78 234.277 44.26 233.731 44.66C233.197 45.0467 232.477 45.24 231.571 45.24ZM231.831 43.82C232.471 43.82 233.017 43.6533 233.471 43.32C233.937 42.9867 234.291 42.5533 234.531 42.02C234.771 41.4867 234.891 40.9267 234.891 40.34V40.32H232.351C231.364 40.32 230.664 40.4933 230.251 40.84C229.851 41.1733 229.651 41.5933 229.651 42.1C229.651 42.62 229.837 43.04 230.211 43.36C230.597 43.6667 231.137 43.82 231.831 43.82ZM239.091 45V35.08H240.611L240.751 36.98C241.058 36.3267 241.524 35.8067 242.151 35.42C242.778 35.0333 243.551 34.84 244.471 34.84V36.6H244.011C243.424 36.6 242.884 36.7067 242.391 36.92C241.898 37.12 241.504 37.4667 241.211 37.96C240.918 38.4533 240.771 39.1333 240.771 40V45H239.091ZM250.445 45.24C249.499 45.24 248.659 45.0267 247.925 44.6C247.192 44.16 246.612 43.5533 246.185 42.78C245.772 42.0067 245.565 41.0933 245.565 40.04C245.565 39 245.772 38.0933 246.185 37.32C246.599 36.5333 247.172 35.9267 247.905 35.5C248.652 35.06 249.512 34.84 250.485 34.84C251.445 34.84 252.272 35.06 252.965 35.5C253.672 35.9267 254.212 36.4933 254.585 37.2C254.959 37.9067 255.145 38.6667 255.145 39.48C255.145 39.6267 255.139 39.7733 255.125 39.92C255.125 40.0667 255.125 40.2333 255.125 40.42H247.225C247.265 41.18 247.439 41.8133 247.745 42.32C248.065 42.8133 248.459 43.1867 248.925 43.44C249.405 43.6933 249.912 43.82 250.445 43.82C251.139 43.82 251.719 43.66 252.185 43.34C252.652 43.02 252.992 42.5867 253.205 42.04H254.865C254.599 42.96 254.085 43.7267 253.325 44.34C252.579 44.94 251.619 45.24 250.445 45.24ZM250.445 36.26C249.645 36.26 248.932 36.5067 248.305 37C247.692 37.48 247.339 38.1867 247.245 39.12H253.485C253.445 38.2267 253.139 37.5267 252.565 37.02C251.992 36.5133 251.285 36.26 250.445 36.26ZM266.285 45.24C265.112 45.24 264.178 44.8867 263.485 44.18C262.792 43.46 262.445 42.36 262.445 40.88V35.08H264.125V40.7C264.125 42.7667 264.972 43.8 266.665 43.8C267.532 43.8 268.245 43.4933 268.805 42.88C269.378 42.2533 269.665 41.3667 269.665 40.22V35.08H271.345V45H269.825L269.705 43.22C269.398 43.8467 268.938 44.34 268.325 44.7C267.725 45.06 267.045 45.24 266.285 45.24ZM274.11 45V30.6H275.79V45H274.11ZM279.564 32.88C279.231 32.88 278.951 32.7733 278.724 32.56C278.511 32.3333 278.404 32.0533 278.404 31.72C278.404 31.4 278.511 31.1333 278.724 30.92C278.951 30.7067 279.231 30.6 279.564 30.6C279.884 30.6 280.157 30.7067 280.384 30.92C280.611 31.1333 280.724 31.4 280.724 31.72C280.724 32.0533 280.611 32.3333 280.384 32.56C280.157 32.7733 279.884 32.88 279.564 32.88ZM278.724 45V35.08H280.404V45H278.724ZM283.329 45V35.08H284.849L284.969 36.52C285.289 35.9867 285.716 35.5733 286.249 35.28C286.783 34.9867 287.383 34.84 288.049 34.84C288.836 34.84 289.509 35 290.069 35.32C290.643 35.64 291.083 36.1267 291.389 36.78C291.736 36.18 292.209 35.7067 292.809 35.36C293.423 35.0133 294.083 34.84 294.789 34.84C295.976 34.84 296.923 35.2 297.629 35.92C298.336 36.6267 298.689 37.72 298.689 39.2V45H297.029V39.38C297.029 38.3533 296.823 37.58 296.409 37.06C295.996 36.54 295.403 36.28 294.629 36.28C293.829 36.28 293.163 36.5933 292.629 37.22C292.109 37.8333 291.849 38.7133 291.849 39.86V45H290.169V39.38C290.169 38.3533 289.963 37.58 289.549 37.06C289.136 36.54 288.543 36.28 287.769 36.28C286.983 36.28 286.323 36.5933 285.789 37.22C285.269 37.8333 285.009 38.7133 285.009 39.86V45H283.329ZM305.14 45C304.233 45 303.52 44.78 303 44.34C302.48 43.9 302.22 43.1067 302.22 41.96V36.5H300.5V35.08H302.22L302.44 32.7H303.9V35.08H306.82V36.5H303.9V41.96C303.9 42.5867 304.027 43.0133 304.28 43.24C304.533 43.4533 304.98 43.56 305.62 43.56H306.66V45H305.14ZM312.254 45.24C311.428 45.24 310.741 45.1 310.194 44.82C309.648 44.54 309.241 44.1667 308.974 43.7C308.708 43.2333 308.574 42.7267 308.574 42.18C308.574 41.1667 308.961 40.3867 309.734 39.84C310.508 39.2933 311.561 39.02 312.894 39.02H315.574V38.9C315.574 38.0333 315.348 37.38 314.894 36.94C314.441 36.4867 313.834 36.26 313.074 36.26C312.421 36.26 311.854 36.4267 311.374 36.76C310.908 37.08 310.614 37.5533 310.494 38.18H308.774C308.841 37.46 309.081 36.8533 309.494 36.36C309.921 35.8667 310.448 35.4933 311.074 35.24C311.701 34.9733 312.368 34.84 313.074 34.84C314.461 34.84 315.501 35.2133 316.194 35.96C316.901 36.6933 317.254 37.6733 317.254 38.9V45H315.754L315.654 43.22C315.374 43.78 314.961 44.26 314.414 44.66C313.881 45.0467 313.161 45.24 312.254 45.24ZM312.514 43.82C313.154 43.82 313.701 43.6533 314.154 43.32C314.621 42.9867 314.974 42.5533 315.214 42.02C315.454 41.4867 315.574 40.9267 315.574 40.34V40.32H313.034C312.048 40.32 311.348 40.4933 310.934 40.84C310.534 41.1733 310.334 41.5933 310.334 42.1C310.334 42.62 310.521 43.04 310.894 43.36C311.281 43.6667 311.821 43.82 312.514 43.82ZM323.421 45C322.514 45 321.801 44.78 321.281 44.34C320.761 43.9 320.501 43.1067 320.501 41.96V36.5H318.781V35.08H320.501L320.721 32.7H322.181V35.08H325.101V36.5H322.181V41.96C322.181 42.5867 322.308 43.0133 322.561 43.24C322.814 43.4533 323.261 43.56 323.901 43.56H324.941V45H323.421ZM331.422 45.24C330.475 45.24 329.635 45.0267 328.902 44.6C328.169 44.16 327.589 43.5533 327.162 42.78C326.749 42.0067 326.542 41.0933 326.542 40.04C326.542 39 326.749 38.0933 327.162 37.32C327.575 36.5333 328.149 35.9267 328.882 35.5C329.629 35.06 330.489 34.84 331.462 34.84C332.422 34.84 333.249 35.06 333.942 35.5C334.649 35.9267 335.189 36.4933 335.562 37.2C335.935 37.9067 336.122 38.6667 336.122 39.48C336.122 39.6267 336.115 39.7733 336.102 39.92C336.102 40.0667 336.102 40.2333 336.102 40.42H328.202C328.242 41.18 328.415 41.8133 328.722 42.32C329.042 42.8133 329.435 43.1867 329.902 43.44C330.382 43.6933 330.889 43.82 331.422 43.82C332.115 43.82 332.695 43.66 333.162 43.34C333.629 43.02 333.969 42.5867 334.182 42.04H335.842C335.575 42.96 335.062 43.7267 334.302 44.34C333.555 44.94 332.595 45.24 331.422 45.24ZM331.422 36.26C330.622 36.26 329.909 36.5067 329.282 37C328.669 37.48 328.315 38.1867 328.222 39.12H334.462C334.422 38.2267 334.115 37.5267 333.542 37.02C332.969 36.5133 332.262 36.26 331.422 36.26ZM338.349 45V30.6H340.029V45H338.349ZM343.862 49.4L346.322 44.04H345.742L341.802 35.08H343.622L346.902 42.8L350.382 35.08H352.122L345.622 49.4H343.862ZM359.189 45V35.08H360.709L360.829 36.52C361.149 35.9867 361.575 35.5733 362.109 35.28C362.642 34.9867 363.242 34.84 363.909 34.84C364.695 34.84 365.369 35 365.929 35.32C366.502 35.64 366.942 36.1267 367.249 36.78C367.595 36.18 368.069 35.7067 368.669 35.36C369.282 35.0133 369.942 34.84 370.649 34.84C371.835 34.84 372.782 35.2 373.489 35.92C374.195 36.6267 374.549 37.72 374.549 39.2V45H372.889V39.38C372.889 38.3533 372.682 37.58 372.269 37.06C371.855 36.54 371.262 36.28 370.489 36.28C369.689 36.28 369.022 36.5933 368.489 37.22C367.969 37.8333 367.709 38.7133 367.709 39.86V45H366.029V39.38C366.029 38.3533 365.822 37.58 365.409 37.06C364.995 36.54 364.402 36.28 363.629 36.28C362.842 36.28 362.182 36.5933 361.649 37.22C361.129 37.8333 360.869 38.7133 360.869 39.86V45H359.189ZM380.699 45.24C379.526 45.24 378.593 44.8867 377.899 44.18C377.206 43.46 376.859 42.36 376.859 40.88V35.08H378.539V40.7C378.539 42.7667 379.386 43.8 381.079 43.8C381.946 43.8 382.659 43.4933 383.219 42.88C383.793 42.2533 384.079 41.3667 384.079 40.22V35.08H385.759V45H384.239L384.119 43.22C383.813 43.8467 383.353 44.34 382.739 44.7C382.139 45.06 381.459 45.24 380.699 45.24ZM393.085 45.24C392.138 45.24 391.285 45.0267 390.525 44.6C389.778 44.16 389.185 43.5533 388.745 42.78C388.318 41.9933 388.105 41.08 388.105 40.04C388.105 39 388.318 38.0933 388.745 37.32C389.185 36.5333 389.778 35.9267 390.525 35.5C391.285 35.06 392.138 34.84 393.085 34.84C394.258 34.84 395.245 35.1467 396.045 35.76C396.858 36.3733 397.371 37.1933 397.585 38.22H395.865C395.731 37.6067 395.405 37.1333 394.885 36.8C394.365 36.4533 393.758 36.28 393.065 36.28C392.505 36.28 391.978 36.42 391.485 36.7C390.991 36.98 390.591 37.4 390.285 37.96C389.978 38.52 389.825 39.2133 389.825 40.04C389.825 40.8667 389.978 41.56 390.285 42.12C390.591 42.68 390.991 43.1067 391.485 43.4C391.978 43.68 392.505 43.82 393.065 43.82C393.758 43.82 394.365 43.6533 394.885 43.32C395.405 42.9733 395.731 42.4867 395.865 41.86H397.585C397.385 42.86 396.878 43.6733 396.065 44.3C395.251 44.9267 394.258 45.24 393.085 45.24ZM399.931 45V30.6H401.611V36.78C401.944 36.1667 402.417 35.6933 403.031 35.36C403.644 35.0133 404.311 34.84 405.031 34.84C406.177 34.84 407.097 35.2 407.791 35.92C408.484 36.6267 408.831 37.72 408.831 39.2V45H407.171V39.38C407.171 37.3133 406.337 36.28 404.671 36.28C403.804 36.28 403.077 36.5933 402.491 37.22C401.904 37.8333 401.611 38.7133 401.611 39.86V45H399.931ZM416.669 45V30.6H418.349V36.78C418.682 36.1667 419.156 35.6933 419.769 35.36C420.382 35.0133 421.049 34.84 421.769 34.84C422.916 34.84 423.836 35.2 424.529 35.92C425.222 36.6267 425.569 37.72 425.569 39.2V45H423.909V39.38C423.909 37.3133 423.076 36.28 421.409 36.28C420.542 36.28 419.816 36.5933 419.229 37.22C418.642 37.8333 418.349 38.7133 418.349 39.86V45H416.669ZM431.414 45.24C430.588 45.24 429.901 45.1 429.354 44.82C428.808 44.54 428.401 44.1667 428.134 43.7C427.868 43.2333 427.734 42.7267 427.734 42.18C427.734 41.1667 428.121 40.3867 428.894 39.84C429.668 39.2933 430.721 39.02 432.054 39.02H434.734V38.9C434.734 38.0333 434.508 37.38 434.054 36.94C433.601 36.4867 432.994 36.26 432.234 36.26C431.581 36.26 431.014 36.4267 430.534 36.76C430.068 37.08 429.774 37.5533 429.654 38.18H427.934C428.001 37.46 428.241 36.8533 428.654 36.36C429.081 35.8667 429.608 35.4933 430.234 35.24C430.861 34.9733 431.528 34.84 432.234 34.84C433.621 34.84 434.661 35.2133 435.354 35.96C436.061 36.6933 436.414 37.6733 436.414 38.9V45H434.914L434.814 43.22C434.534 43.78 434.121 44.26 433.574 44.66C433.041 45.0467 432.321 45.24 431.414 45.24ZM431.674 43.82C432.314 43.82 432.861 43.6533 433.314 43.32C433.781 42.9867 434.134 42.5533 434.374 42.02C434.614 41.4867 434.734 40.9267 434.734 40.34V40.32H432.194C431.208 40.32 430.508 40.4933 430.094 40.84C429.694 41.1733 429.494 41.5933 429.494 42.1C429.494 42.62 429.681 43.04 430.054 43.36C430.441 43.6667 430.981 43.82 431.674 43.82ZM438.935 49.4V35.08H440.455L440.615 36.72C440.935 36.24 441.388 35.8067 441.975 35.42C442.575 35.0333 443.335 34.84 444.255 34.84C445.241 34.84 446.101 35.0667 446.835 35.52C447.568 35.9733 448.135 36.5933 448.535 37.38C448.948 38.1667 449.155 39.06 449.155 40.06C449.155 41.06 448.948 41.9533 448.535 42.74C448.135 43.5133 447.561 44.1267 446.815 44.58C446.081 45.02 445.221 45.24 444.235 45.24C443.421 45.24 442.695 45.0733 442.055 44.74C441.428 44.4067 440.948 43.94 440.615 43.34V49.4H438.935ZM444.055 43.78C444.721 43.78 445.308 43.6267 445.815 43.32C446.321 43 446.721 42.56 447.015 42C447.308 41.44 447.455 40.7867 447.455 40.04C447.455 39.2933 447.308 38.64 447.015 38.08C446.721 37.52 446.321 37.0867 445.815 36.78C445.308 36.46 444.721 36.3 444.055 36.3C443.388 36.3 442.801 36.46 442.295 36.78C441.788 37.0867 441.388 37.52 441.095 38.08C440.801 38.64 440.655 39.2933 440.655 40.04C440.655 40.7867 440.801 41.44 441.095 42C441.388 42.56 441.788 43 442.295 43.32C442.801 43.6267 443.388 43.78 444.055 43.78ZM451.493 49.4V35.08H453.013L453.173 36.72C453.493 36.24 453.947 35.8067 454.533 35.42C455.133 35.0333 455.893 34.84 456.813 34.84C457.8 34.84 458.66 35.0667 459.393 35.52C460.127 35.9733 460.693 36.5933 461.093 37.38C461.507 38.1667 461.713 39.06 461.713 40.06C461.713 41.06 461.507 41.9533 461.093 42.74C460.693 43.5133 460.12 44.1267 459.373 44.58C458.64 45.02 457.78 45.24 456.793 45.24C455.98 45.24 455.253 45.0733 454.613 44.74C453.987 44.4067 453.507 43.94 453.173 43.34V49.4H451.493ZM456.613 43.78C457.28 43.78 457.867 43.6267 458.373 43.32C458.88 43 459.28 42.56 459.573 42C459.867 41.44 460.013 40.7867 460.013 40.04C460.013 39.2933 459.867 38.64 459.573 38.08C459.28 37.52 458.88 37.0867 458.373 36.78C457.867 36.46 457.28 36.3 456.613 36.3C455.947 36.3 455.36 36.46 454.853 36.78C454.347 37.0867 453.947 37.52 453.653 38.08C453.36 38.64 453.213 39.2933 453.213 40.04C453.213 40.7867 453.36 41.44 453.653 42C453.947 42.56 454.347 43 454.853 43.32C455.36 43.6267 455.947 43.78 456.613 43.78ZM465.072 32.88C464.739 32.88 464.459 32.7733 464.232 32.56C464.019 32.3333 463.912 32.0533 463.912 31.72C463.912 31.4 464.019 31.1333 464.232 30.92C464.459 30.7067 464.739 30.6 465.072 30.6C465.392 30.6 465.665 30.7067 465.892 30.92C466.119 31.1333 466.232 31.4 466.232 31.72C466.232 32.0533 466.119 32.3333 465.892 32.56C465.665 32.7733 465.392 32.88 465.072 32.88ZM464.232 45V35.08H465.912V45H464.232ZM473.297 45.24C472.35 45.24 471.51 45.0267 470.777 44.6C470.044 44.16 469.464 43.5533 469.037 42.78C468.624 42.0067 468.417 41.0933 468.417 40.04C468.417 39 468.624 38.0933 469.037 37.32C469.45 36.5333 470.024 35.9267 470.757 35.5C471.504 35.06 472.364 34.84 473.337 34.84C474.297 34.84 475.124 35.06 475.817 35.5C476.524 35.9267 477.064 36.4933 477.437 37.2C477.81 37.9067 477.997 38.6667 477.997 39.48C477.997 39.6267 477.99 39.7733 477.977 39.92C477.977 40.0667 477.977 40.2333 477.977 40.42H470.077C470.117 41.18 470.29 41.8133 470.597 42.32C470.917 42.8133 471.31 43.1867 471.777 43.44C472.257 43.6933 472.764 43.82 473.297 43.82C473.99 43.82 474.57 43.66 475.037 43.34C475.504 43.02 475.844 42.5867 476.057 42.04H477.717C477.45 42.96 476.937 43.7267 476.177 44.34C475.43 44.94 474.47 45.24 473.297 45.24ZM473.297 36.26C472.497 36.26 471.784 36.5067 471.157 37C470.544 37.48 470.19 38.1867 470.097 39.12H476.337C476.297 38.2267 475.99 37.5267 475.417 37.02C474.844 36.5133 474.137 36.26 473.297 36.26ZM480.224 45V35.08H481.744L481.884 36.98C482.19 36.3267 482.657 35.8067 483.284 35.42C483.91 35.0333 484.684 34.84 485.604 34.84V36.6H485.144C484.557 36.6 484.017 36.7067 483.524 36.92C483.03 37.12 482.637 37.4667 482.344 37.96C482.05 38.4533 481.904 39.1333 481.904 40V45H480.224Z" fill="#696D91"/>
</svg>
