<svg width="71" height="69" viewBox="0 0 71 69" fill="none" xmlns="http://www.w3.org/2000/svg">
<path d="M1.77688 64L5.90488 52.8H7.32888L11.4409 64H10.0169L8.99288 61.12H4.22488L3.18488 64H1.77688ZM4.62488 60.032H8.59288L6.60888 54.496L4.62488 60.032ZM16.2364 64.192C15.479 64.192 14.7964 64.0213 14.1884 63.68C13.591 63.328 13.1164 62.8427 12.7644 62.224C12.423 61.5947 12.2524 60.864 12.2524 60.032C12.2524 59.2 12.423 58.4747 12.7644 57.856C13.1164 57.2267 13.591 56.7413 14.1884 56.4C14.7964 56.048 15.479 55.872 16.2364 55.872C17.175 55.872 17.9644 56.1173 18.6044 56.608C19.255 57.0987 19.6657 57.7547 19.8364 58.576H18.4604C18.3537 58.0853 18.0924 57.7067 17.6764 57.44C17.2604 57.1627 16.775 57.024 16.2204 57.024C15.7724 57.024 15.351 57.136 14.9564 57.36C14.5617 57.584 14.2417 57.92 13.9964 58.368C13.751 58.816 13.6284 59.3707 13.6284 60.032C13.6284 60.6933 13.751 61.248 13.9964 61.696C14.2417 62.144 14.5617 62.4853 14.9564 62.72C15.351 62.944 15.7724 63.056 16.2204 63.056C16.775 63.056 17.2604 62.9227 17.6764 62.656C18.0924 62.3787 18.3537 61.9893 18.4604 61.488H19.8364C19.6764 62.288 19.271 62.9387 18.6204 63.44C17.9697 63.9413 17.175 64.192 16.2364 64.192ZM24.6306 64C23.9053 64 23.3346 63.824 22.9186 63.472C22.5026 63.12 22.2946 62.4853 22.2946 61.568V57.2H20.9186V56.064H22.2946L22.4706 54.16H23.6386V56.064H25.9746V57.2H23.6386V61.568C23.6386 62.0693 23.74 62.4107 23.9426 62.592C24.1453 62.7627 24.5026 62.848 25.0146 62.848H25.8466V64H24.6306ZM28.4981 54.304C28.2315 54.304 28.0075 54.2187 27.8261 54.048C27.6555 53.8667 27.5701 53.6427 27.5701 53.376C27.5701 53.12 27.6555 52.9067 27.8261 52.736C28.0075 52.5653 28.2315 52.48 28.4981 52.48C28.7541 52.48 28.9728 52.5653 29.1541 52.736C29.3355 52.9067 29.4261 53.12 29.4261 53.376C29.4261 53.6427 29.3355 53.8667 29.1541 54.048C28.9728 54.2187 28.7541 54.304 28.4981 54.304ZM27.8261 64V56.064H29.1701V64H27.8261ZM33.7983 64L30.7903 56.064H32.1983L34.5823 62.704L36.9823 56.064H38.3583L35.3503 64H33.7983ZM40.67 54.304C40.4033 54.304 40.1793 54.2187 39.998 54.048C39.8273 53.8667 39.742 53.6427 39.742 53.376C39.742 53.12 39.8273 52.9067 39.998 52.736C40.1793 52.5653 40.4033 52.48 40.67 52.48C40.926 52.48 41.1447 52.5653 41.326 52.736C41.5073 52.9067 41.598 53.12 41.598 53.376C41.598 53.6427 41.5073 53.8667 41.326 54.048C41.1447 54.2187 40.926 54.304 40.67 54.304ZM39.998 64V56.064H41.342V64H39.998ZM46.8181 64C46.0928 64 45.5221 63.824 45.1061 63.472C44.6901 63.12 44.4821 62.4853 44.4821 61.568V57.2H43.1061V56.064H44.4821L44.6581 54.16H45.8261V56.064H48.1621V57.2H45.8261V61.568C45.8261 62.0693 45.9275 62.4107 46.1301 62.592C46.3328 62.7627 46.6901 62.848 47.2021 62.848H48.0341V64H46.8181ZM50.6856 54.304C50.419 54.304 50.195 54.2187 50.0136 54.048C49.843 53.8667 49.7576 53.6427 49.7576 53.376C49.7576 53.12 49.843 52.9067 50.0136 52.736C50.195 52.5653 50.419 52.48 50.6856 52.48C50.9416 52.48 51.1603 52.5653 51.3416 52.736C51.523 52.9067 51.6136 53.12 51.6136 53.376C51.6136 53.6427 51.523 53.8667 51.3416 54.048C51.1603 54.2187 50.9416 54.304 50.6856 54.304ZM50.0136 64V56.064H51.3576V64H50.0136ZM57.2658 64.192C56.5084 64.192 55.8364 64.0213 55.2498 63.68C54.6631 63.328 54.1991 62.8427 53.8578 62.224C53.5271 61.6053 53.3618 60.8747 53.3618 60.032C53.3618 59.2 53.5271 58.4747 53.8578 57.856C54.1884 57.2267 54.6471 56.7413 55.2338 56.4C55.8311 56.048 56.5191 55.872 57.2977 55.872C58.0658 55.872 58.7271 56.048 59.2818 56.4C59.8471 56.7413 60.2791 57.1947 60.5778 57.76C60.8764 58.3253 61.0258 58.9333 61.0258 59.584C61.0258 59.7013 61.0204 59.8187 61.0098 59.936C61.0098 60.0533 61.0098 60.1867 61.0098 60.336H54.6898C54.7218 60.944 54.8604 61.4507 55.1058 61.856C55.3618 62.2507 55.6764 62.5493 56.0498 62.752C56.4338 62.9547 56.8391 63.056 57.2658 63.056C57.8204 63.056 58.2844 62.928 58.6578 62.672C59.0311 62.416 59.3031 62.0693 59.4738 61.632H60.8018C60.5884 62.368 60.1778 62.9813 59.5698 63.472C58.9724 63.952 58.2044 64.192 57.2658 64.192ZM57.2658 57.008C56.6258 57.008 56.0551 57.2053 55.5538 57.6C55.0631 57.984 54.7804 58.5493 54.7057 59.296H59.6978C59.6658 58.5813 59.4204 58.0213 58.9618 57.616C58.5031 57.2107 57.9378 57.008 57.2658 57.008ZM65.8471 64.192C64.8978 64.192 64.1085 63.952 63.4791 63.472C62.8498 62.992 62.4818 62.3413 62.3751 61.52H63.7511C63.8365 61.936 64.0551 62.2987 64.4071 62.608C64.7698 62.9067 65.2551 63.056 65.8631 63.056C66.4285 63.056 66.8445 62.9387 67.1111 62.704C67.3778 62.4587 67.5111 62.1707 67.5111 61.84C67.5111 61.36 67.3351 61.04 66.9831 60.88C66.6418 60.72 66.1565 60.576 65.5271 60.448C65.1005 60.3627 64.6738 60.24 64.2471 60.08C63.8205 59.92 63.4631 59.696 63.1751 59.408C62.8871 59.1093 62.7431 58.72 62.7431 58.24C62.7431 57.5467 62.9991 56.9813 63.5111 56.544C64.0338 56.096 64.7378 55.872 65.6231 55.872C66.4658 55.872 67.1538 56.0853 67.6871 56.512C68.2311 56.928 68.5458 57.5253 68.6311 58.304H67.3031C67.2498 57.8987 67.0738 57.584 66.7751 57.36C66.4871 57.1253 66.0978 57.008 65.6071 57.008C65.1271 57.008 64.7538 57.1093 64.4871 57.312C64.2311 57.5147 64.1031 57.7813 64.1031 58.112C64.1031 58.432 64.2685 58.6827 64.5991 58.864C64.9405 59.0453 65.3991 59.2 65.9751 59.328C66.4658 59.4347 66.9298 59.568 67.3671 59.728C67.8151 59.8773 68.1778 60.1067 68.4551 60.416C68.7431 60.7147 68.8871 61.152 68.8871 61.728C68.8978 62.4427 68.6258 63.0347 68.0711 63.504C67.5271 63.9627 66.7858 64.192 65.8471 64.192Z" fill="#696D91"/>
<g filter="url(#filter0_d)">
<rect x="10" width="48" height="45.3333" rx="18" fill="#00D5E0"/>
</g>
<path d="M40.6988 26.4423L40.6988 26.4424C40.8223 26.5692 40.8757 26.7484 40.842 26.922L40.842 26.9221C40.8082 27.0956 40.6915 27.2418 40.5296 27.3131L40.5296 27.3131L31.8732 31.1244L31.8732 31.1245L31.8356 31.141C31.8352 31.1412 31.8347 31.1414 31.8343 31.1416L30.6577 31.6596L30.6577 31.6596L20.7822 36.0102L40.6988 26.4423ZM40.6988 26.4423L35.4295 21.0311L35.4295 21.031M40.6988 26.4423L35.4295 21.031M35.4295 21.031L30.1599 15.6206C30.1599 15.6206 30.1599 15.6206 30.1599 15.6206C30.0365 15.4939 29.8587 15.4356 29.6842 15.4648L29.6841 15.4648L35.4295 21.031ZM24.6805 25.5241L24.6805 25.5241L29.285 15.7669L29.285 15.7669L29.3754 15.8096L24.6805 25.5241ZM24.6805 25.5241L20.0764 35.286M24.6805 25.5241L20.0764 35.286M20.0764 35.286C20.0764 35.286 20.0764 35.286 20.0764 35.286M20.0764 35.286L20.0764 35.286M20.0764 35.286C19.9803 35.4897 20.0208 35.7317 20.178 35.893M20.0764 35.286L20.178 35.893M20.178 35.893C20.2356 35.9521 20.3044 35.9958 20.3785 36.023M20.178 35.893L20.3785 36.023M20.3785 36.023C20.5069 36.0701 20.6516 36.0678 20.7822 36.0102L20.7419 35.9187L20.3785 36.023ZM31.8154 31.1477L31.8176 31.1472L31.8146 31.1479L31.8146 31.1479L31.8148 31.1478L31.8154 31.1477ZM25.6569 25.9848L27.3447 22.4081L30.9007 30.373L30.2226 30.6715L30.2226 30.6716L26.5512 32.289L24.6697 28.0778L25.6568 25.9848L25.6569 25.9848ZM27.9523 21.1208L29.9294 16.9313L32.439 19.5083L36.2412 28.0216L31.8888 29.938L27.9523 21.1208ZM21.6693 34.4397L24.0624 29.3655L25.5632 32.7243L21.6693 34.4397ZM37.2293 27.5866L34.623 21.751L39.3827 26.6384L37.2293 27.5866Z" fill="white" stroke="white" stroke-width="0.2"/>
<path d="M30.2275 11.0972C30.2765 10.9624 30.2217 10.8169 30.1252 10.7369L29.2632 9.94788L29.4166 8.80997C29.431 8.67161 29.3726 8.56064 29.276 8.48066C29.1794 8.40068 29.0411 8.38628 28.8919 8.47565L27.8896 9.03569L26.8568 8.5436C26.7221 8.49461 26.5801 8.5148 26.5037 8.57679C26.3892 8.66976 26.3402 8.80452 26.364 8.9119L26.5947 10.0548L25.8093 10.8822C25.7293 10.9787 25.6803 11.1135 25.7351 11.2591C25.7899 11.4046 25.8864 11.4846 26.0248 11.499L27.1663 11.6178L27.7264 12.6202C27.7847 12.7311 27.8849 12.7765 27.9887 12.7873L28.0233 12.7909C28.1652 12.7707 28.2762 12.7123 28.3252 12.5776L28.7863 11.5067L29.9256 11.3105C30.064 11.3249 30.1785 11.232 30.2275 11.0972ZM28.5016 10.8826C28.3942 10.9064 28.2832 10.9648 28.2378 11.065L28.0001 11.6696L27.7082 11.1147C27.6498 11.0038 27.5496 10.9584 27.4459 10.9476L26.8232 10.8828L27.2541 10.4381C27.3341 10.3415 27.3795 10.2414 27.3557 10.134L27.1783 9.48616L27.7448 9.7549C27.845 9.80029 27.9833 9.81469 28.0597 9.75271L28.6182 9.4262L28.5188 10.0452C28.508 10.149 28.5318 10.2564 28.6284 10.3364L29.1076 10.7709L28.5016 10.8826Z" fill="white"/>
<path d="M48.4603 9.25297C48.4019 9.142 48.2672 9.09301 48.1252 9.1132L46.9931 9.24015L46.2457 8.35816C46.1527 8.24359 46.0144 8.22919 45.907 8.25299C45.765 8.27318 45.6814 8.40434 45.6706 8.50811L45.3789 9.63162L44.3146 10.1153C44.2036 10.1737 44.1236 10.2702 44.1092 10.4086C44.0948 10.547 44.1878 10.6615 44.2844 10.7415L45.2753 11.2992L45.364 12.4623C45.3842 12.6042 45.4772 12.7188 45.5774 12.7642C45.612 12.7678 45.6466 12.7714 45.6812 12.775C45.7849 12.7858 45.8923 12.762 45.9687 12.7L46.8197 11.9145L47.9468 12.1716C48.0851 12.186 48.1925 12.1622 48.3071 12.0692C48.3871 11.9727 48.4015 11.8343 48.3467 11.6887L47.8666 10.5898L48.4589 9.60248C48.5389 9.50591 48.5187 9.36394 48.4603 9.25297ZM46.8261 11.1808C46.7223 11.17 46.5804 11.1902 46.504 11.2522L46.0385 11.6933L45.9649 11.0563C45.9411 10.9489 45.8827 10.8379 45.7826 10.7925L45.2197 10.4892L45.8056 10.2355C45.9165 10.1771 45.9965 10.0805 46.0073 9.97674L46.1413 9.3613L46.5478 9.82319C46.6098 9.89957 46.7445 9.94856 46.8519 9.92477L47.4889 9.8512L47.1546 10.3759C47.1092 10.476 47.0984 10.5798 47.1222 10.6872L47.3759 11.273L46.8261 11.1808Z" fill="white"/>
<path d="M43.3658 21.5902C43.5951 21.614 43.8002 21.4475 43.8241 21.2183C43.848 20.989 43.6814 20.7838 43.4522 20.76C43.223 20.7361 43.0178 20.9026 42.9939 21.1319C42.9701 21.3611 43.1366 21.5663 43.3658 21.5902Z" fill="white"/>
<path d="M47.6861 15.3617C47.9154 15.3855 48.1206 15.219 48.1444 14.9898C48.1683 14.7605 48.0018 14.5553 47.7725 14.5315C47.5433 14.5076 47.3381 14.6741 47.3142 14.9034C47.2904 15.1326 47.4569 15.3378 47.6861 15.3617Z" fill="white"/>
<path d="M37.357 13.4847C37.5863 13.5086 37.7915 13.3421 37.8153 13.1128C37.8392 12.8836 37.6727 12.6784 37.4434 12.6545C37.2142 12.6307 37.009 12.7972 36.9851 13.0264C36.9613 13.2557 37.1278 13.4609 37.357 13.4847Z" fill="white"/>
<path d="M45.058 27.8513C44.297 27.7721 43.6442 28.3336 43.5686 29.06C43.4894 29.821 44.0508 30.4738 44.7773 30.5494C45.5383 30.6286 46.1911 30.0672 46.2667 29.3408C46.3423 28.6143 45.819 27.9305 45.058 27.8513ZM44.8493 29.8576C44.4688 29.818 44.2244 29.4779 44.2604 29.132C44.2964 28.7861 44.6401 28.5071 44.986 28.5431C45.3319 28.5791 45.6109 28.9229 45.5749 29.2688C45.5389 29.6147 45.2298 29.8972 44.8493 29.8576Z" fill="white"/>
<path d="M36.6723 7.29273C35.9113 7.21354 35.2584 7.77498 35.1829 8.50139C35.1037 9.26239 35.6651 9.91523 36.3915 9.99083C37.1525 10.07 37.8054 9.50858 37.881 8.78216C37.9565 8.05575 37.4333 7.37192 36.6723 7.29273ZM36.4635 9.29901C36.083 9.25941 35.8387 8.91929 35.8747 8.57338C35.9107 8.22748 36.2544 7.94855 36.6003 7.98455C36.9462 8.02055 37.2251 8.36426 37.1891 8.71017C37.1531 9.05608 36.844 9.3386 36.4635 9.29901Z" fill="white"/>
<path d="M42.5561 13.2537C41.7951 13.1745 41.1422 13.7359 41.0666 14.4623C40.9875 15.2233 41.5489 15.8762 42.2753 15.9518C43.0363 16.031 43.6891 15.4695 43.7647 14.7431C43.8403 14.0167 43.3171 13.3329 42.5561 13.2537ZM42.3437 15.2945C41.9632 15.2549 41.7189 14.9148 41.7549 14.5689C41.7909 14.223 42.1346 13.9441 42.4805 13.9801C42.8264 14.0161 43.1053 14.3598 43.0693 14.7057C43.0333 15.0516 42.7242 15.3341 42.3437 15.2945Z" fill="white"/>
<path d="M36.1998 17.2096C36.2618 17.286 36.3274 17.3278 36.4312 17.3386C36.5349 17.3494 36.6077 17.322 36.6841 17.26C36.8369 17.136 40.39 13.9043 40.878 7.87108C40.8996 7.66354 40.741 7.50718 40.5681 7.48918C40.3605 7.46758 40.2042 7.62614 40.1862 7.79909C39.727 13.5556 36.2884 16.6943 36.2502 16.7253C36.0975 16.8493 36.0723 17.0914 36.1998 17.2096Z" fill="white"/>
<path d="M48.8591 17.8635C42.9684 16.3414 38.872 20.4256 38.7956 20.4876C38.6775 20.6152 38.6523 20.8573 38.8144 20.9791C38.88 21.0209 38.9456 21.0627 39.0148 21.0699C39.1185 21.0807 39.2259 21.0569 39.3059 20.9603C39.3441 20.9293 43.2042 17.1002 48.6833 18.5445C48.8527 18.5971 49.0746 18.4803 49.0926 18.3074C49.1106 18.1344 49.063 17.9197 48.8591 17.8635Z" fill="white"/>
<path d="M33.7535 14.5071C33.7881 14.5107 33.8227 14.5143 33.8227 14.5143C33.9957 14.5323 34.1448 14.4429 34.1974 14.2736C34.2464 14.1388 35.3674 10.7589 33.2312 8.43866C33.1072 8.2859 32.896 8.29889 32.7433 8.42286C32.5905 8.54682 32.6035 8.75797 32.7275 8.91073C34.5812 10.9218 33.5582 14.0322 33.5546 14.0668C33.502 14.2362 33.5878 14.4199 33.7535 14.5071Z" fill="white"/>
<path d="M41.4014 23.3434C41.2213 23.3946 41.0995 23.5567 41.1161 23.7333C41.1673 23.9134 41.3294 24.0352 41.506 24.0186C41.5406 24.0222 45.5372 23.2493 46.9837 25.8124C47.0421 25.9234 47.1423 25.9688 47.2461 25.9796C47.3153 25.9868 47.388 25.9594 47.4608 25.932C47.61 25.8426 47.7008 25.6423 47.5804 25.4549C45.9313 22.4861 41.578 23.3268 41.4014 23.3434Z" fill="white"/>
<defs>
<filter id="filter0_d" x="6" y="0" width="56" height="53.3333" filterUnits="userSpaceOnUse" color-interpolation-filters="sRGB">
<feFlood flood-opacity="0" result="BackgroundImageFix"/>
<feColorMatrix in="SourceAlpha" type="matrix" values="0 0 0 0 0 0 0 0 0 0 0 0 0 0 0 0 0 0 127 0"/>
<feOffset dy="4"/>
<feGaussianBlur stdDeviation="2"/>
<feColorMatrix type="matrix" values="0 0 0 0 0.0588235 0 0 0 0 0.0588235 0 0 0 0 0.0588235 0 0 0 0.1 0"/>
<feBlend mode="normal" in2="BackgroundImageFix" result="effect1_dropShadow"/>
<feBlend mode="normal" in="SourceGraphic" in2="effect1_dropShadow" result="shape"/>
</filter>
</defs>
</svg>
