<svg width="600" height="60" viewBox="100 0 600 60" fill="none" xmlns="http://www.w3.org/2000/svg">
<path fill-rule="evenodd" clip-rule="evenodd" d="M1141.87 247.743C1102.94 278.256 1076.22 309.505 1040.96 340.681C1004.93 372.544 970.776 403.332 930.732 434.47C870.293 481.467 874.419 562.401 743.419 572.046C607.49 582.055 560.723 488.061 430.517 471.299C321.148 457.219 185.925 512.244 89.4032 487.85C-3.68908 464.322 13.8561 406.612 2.10757 363.024C-7.40289 327.74 20.5313 293.475 27.4422 257.97C33.8192 225.208 21.9415 192.875 41.4646 160.827C63.6717 124.373 85.4715 86.0002 149.319 57.9039C215.532 28.7667 306.727 3.74969 404.958 0.869727C503.103 -2.00773 685.898 70.221 783.499 74.0417C896.04 78.4472 609.084 166.734 720 175.042C850.049 184.782 836.524 172.394 867 223.042C901.287 280.024 1209.48 194.76 1141.87 247.743Z" fill="#61D1DB"/>
</svg>
