<svg width="214" height="237" viewBox="0 0 214 237" fill="none" xmlns="http://www.w3.org/2000/svg">
<g filter="url(#filter0_d)">
<rect x="2" y="19.5762" width="210" height="213.559" rx="20" fill="#01AD5A"/>
</g>
<path d="M33.1445 10C33.1445 4.47715 37.6217 0 43.1445 0H170.856C176.379 0 180.856 4.47715 180.856 10V19.5763H33.1445V10Z" fill="#F12587"/>
<path d="M92.044 14.9473C91.12 14.9473 90.3127 14.7373 89.622 14.3173C88.9313 13.8973 88.3947 13.314 88.012 12.5673C87.6293 11.8113 87.438 10.934 87.438 9.9353C87.438 8.9273 87.634 8.04063 88.026 7.2753C88.4273 6.50063 88.992 5.89863 89.72 5.4693C90.4573 5.03063 91.33 4.8113 92.338 4.8113C93.486 4.8113 94.438 5.08663 95.194 5.6373C95.95 6.18796 96.44 6.94863 96.664 7.9193H94.662C94.5127 7.46196 94.242 7.1073 93.85 6.8553C93.458 6.59396 92.954 6.4633 92.338 6.4633C91.358 6.4633 90.602 6.77596 90.07 7.4013C89.538 8.0173 89.272 8.86663 89.272 9.9493C89.272 11.032 89.5333 11.872 90.056 12.4693C90.588 13.0573 91.3067 13.3513 92.212 13.3513C93.0987 13.3513 93.766 13.1133 94.214 12.6373C94.6713 12.152 94.9467 11.5173 95.04 10.7333H92.562V9.3893H96.846V14.7793H95.194L95.054 13.4913C94.7367 13.958 94.34 14.3173 93.864 14.5693C93.388 14.8213 92.7813 14.9473 92.044 14.9473ZM100.94 14.9473C100.343 14.9473 99.8528 14.854 99.4701 14.6673C99.0875 14.4713 98.8028 14.2146 98.6161 13.8973C98.4295 13.58 98.3361 13.23 98.3361 12.8473C98.3361 12.2033 98.5881 11.6806 99.0921 11.2793C99.5961 10.878 100.352 10.6773 101.36 10.6773H103.124V10.5093C103.124 10.0333 102.989 9.6833 102.718 9.4593C102.447 9.2353 102.111 9.1233 101.71 9.1233C101.346 9.1233 101.029 9.21196 100.758 9.3893C100.487 9.5573 100.319 9.8093 100.254 10.1453H98.5041C98.5508 9.6413 98.7188 9.20263 99.0081 8.8293C99.3068 8.45596 99.6895 8.1713 100.156 7.9753C100.623 7.76996 101.145 7.6673 101.724 7.6673C102.713 7.6673 103.493 7.91463 104.062 8.4093C104.631 8.90396 104.916 9.60396 104.916 10.5093V14.7793H103.39L103.222 13.6593C103.017 14.0326 102.727 14.3406 102.354 14.5833C101.99 14.826 101.519 14.9473 100.94 14.9473ZM101.346 13.5473C101.859 13.5473 102.256 13.3793 102.536 13.0433C102.825 12.7073 103.007 12.292 103.082 11.7973H101.556C101.08 11.7973 100.739 11.886 100.534 12.0633C100.329 12.2313 100.226 12.4413 100.226 12.6933C100.226 12.964 100.329 13.174 100.534 13.3233C100.739 13.4726 101.01 13.5473 101.346 13.5473ZM106.626 14.7793V7.8353H108.208L108.362 8.7733C108.586 8.4373 108.88 8.1713 109.244 7.9753C109.618 7.76996 110.047 7.6673 110.532 7.6673C111.606 7.6673 112.366 8.08263 112.814 8.9133C113.066 8.53063 113.402 8.2273 113.822 8.0033C114.252 7.7793 114.718 7.6673 115.222 7.6673C116.128 7.6673 116.823 7.93796 117.308 8.4793C117.794 9.02063 118.036 9.81396 118.036 10.8593V14.7793H116.244V11.0273C116.244 10.43 116.128 9.97263 115.894 9.6553C115.67 9.33796 115.32 9.1793 114.844 9.1793C114.359 9.1793 113.967 9.35663 113.668 9.7113C113.379 10.066 113.234 10.5606 113.234 11.1953V14.7793H111.442V11.0273C111.442 10.43 111.326 9.97263 111.092 9.6553C110.859 9.33796 110.5 9.1793 110.014 9.1793C109.538 9.1793 109.151 9.35663 108.852 9.7113C108.563 10.066 108.418 10.5606 108.418 11.1953V14.7793H106.626ZM123.112 14.9473C122.412 14.9473 121.791 14.798 121.25 14.4993C120.708 14.2006 120.284 13.7806 119.976 13.2393C119.668 12.698 119.514 12.0726 119.514 11.3633C119.514 10.6446 119.663 10.0053 119.962 9.4453C120.27 8.8853 120.69 8.4513 121.222 8.1433C121.763 7.82596 122.398 7.6673 123.126 7.6673C123.807 7.6673 124.409 7.81663 124.932 8.1153C125.454 8.41396 125.86 8.82463 126.15 9.3473C126.448 9.86063 126.598 10.4346 126.598 11.0693C126.598 11.172 126.593 11.2793 126.584 11.3913C126.584 11.5033 126.579 11.62 126.57 11.7413H121.292C121.329 12.2826 121.516 12.7073 121.852 13.0153C122.197 13.3233 122.612 13.4773 123.098 13.4773C123.462 13.4773 123.765 13.398 124.008 13.2393C124.26 13.0713 124.446 12.8566 124.568 12.5953H126.388C126.257 13.034 126.038 13.4353 125.73 13.7993C125.431 14.154 125.058 14.434 124.61 14.6393C124.171 14.8446 123.672 14.9473 123.112 14.9473ZM123.126 9.1233C122.687 9.1233 122.3 9.2493 121.964 9.5013C121.628 9.74396 121.413 10.1173 121.32 10.6213H124.778C124.75 10.164 124.582 9.79996 124.274 9.5293C123.966 9.25863 123.583 9.1233 123.126 9.1233Z" fill="white"/>
<path d="M69.9322 62.0425C68.5895 62.0425 67.4369 61.7575 66.4742 61.1875C65.5115 60.6048 64.7705 59.8005 64.2512 58.7745C63.7319 57.7358 63.4722 56.5388 63.4722 55.1835C63.4722 53.8281 63.7319 52.6311 64.2512 51.5925C64.7705 50.5538 65.5115 49.7431 66.4742 49.1605C67.4369 48.5778 68.5895 48.2865 69.9322 48.2865C71.5282 48.2865 72.8329 48.6855 73.8462 49.4835C74.8722 50.2688 75.5119 51.3771 75.7652 52.8085H73.0862C72.9215 52.0865 72.5669 51.5228 72.0222 51.1175C71.4902 50.6995 70.7809 50.4905 69.8942 50.4905C68.6655 50.4905 67.7029 50.9085 67.0062 51.7445C66.3095 52.5805 65.9612 53.7268 65.9612 55.1835C65.9612 56.6401 66.3095 57.7865 67.0062 58.6225C67.7029 59.4458 68.6655 59.8575 69.8942 59.8575C70.7809 59.8575 71.4902 59.6675 72.0222 59.2875C72.5669 58.8948 72.9215 58.3565 73.0862 57.6725H75.7652C75.5119 59.0405 74.8722 60.1108 73.8462 60.8835C72.8329 61.6561 71.5282 62.0425 69.9322 62.0425ZM77.861 61.8145V48.1345H80.293V53.8345C80.6096 53.3151 81.034 52.9098 81.566 52.6185C82.1106 52.3145 82.7313 52.1625 83.428 52.1625C84.5933 52.1625 85.4926 52.5298 86.126 53.2645C86.772 53.9991 87.095 55.0758 87.095 56.4945V61.8145H84.682V56.7225C84.682 55.9118 84.5173 55.2911 84.188 54.8605C83.8713 54.4298 83.3646 54.2145 82.668 54.2145C81.984 54.2145 81.414 54.4551 80.958 54.9365C80.5146 55.4178 80.293 56.0891 80.293 56.9505V61.8145H77.861ZM92.6695 62.0425C91.8589 62.0425 91.1939 61.9158 90.6745 61.6625C90.1552 61.3965 89.7689 61.0481 89.5155 60.6175C89.2622 60.1868 89.1355 59.7118 89.1355 59.1925C89.1355 58.3185 89.4775 57.6091 90.1615 57.0645C90.8455 56.5198 91.8715 56.2475 93.2395 56.2475H95.6335V56.0195C95.6335 55.3735 95.4499 54.8985 95.0825 54.5945C94.7152 54.2905 94.2592 54.1385 93.7145 54.1385C93.2205 54.1385 92.7899 54.2588 92.4225 54.4995C92.0552 54.7275 91.8272 55.0695 91.7385 55.5255H89.3635C89.4269 54.8415 89.6549 54.2461 90.0475 53.7395C90.4529 53.2328 90.9722 52.8465 91.6055 52.5805C92.2389 52.3018 92.9482 52.1625 93.7335 52.1625C95.0762 52.1625 96.1339 52.4981 96.9065 53.1695C97.6792 53.8408 98.0655 54.7908 98.0655 56.0195V61.8145H95.9945L95.7665 60.2945C95.4879 60.8011 95.0952 61.2191 94.5885 61.5485C94.0945 61.8778 93.4549 62.0425 92.6695 62.0425ZM93.2205 60.1425C93.9172 60.1425 94.4555 59.9145 94.8355 59.4585C95.2282 59.0025 95.4752 58.4388 95.5765 57.7675H93.5055C92.8595 57.7675 92.3972 57.8878 92.1185 58.1285C91.8399 58.3565 91.7005 58.6415 91.7005 58.9835C91.7005 59.3508 91.8399 59.6358 92.1185 59.8385C92.3972 60.0411 92.7645 60.1425 93.2205 60.1425ZM100.386 61.8145V52.3905H102.552L102.78 54.1575C103.122 53.5495 103.585 53.0681 104.167 52.7135C104.763 52.3461 105.459 52.1625 106.257 52.1625V54.7275H105.573C105.041 54.7275 104.566 54.8098 104.148 54.9745C103.73 55.1391 103.401 55.4241 103.16 55.8295C102.932 56.2348 102.818 56.7985 102.818 57.5205V61.8145H100.386ZM111.169 62.0425C110.358 62.0425 109.693 61.9158 109.174 61.6625C108.654 61.3965 108.268 61.0481 108.015 60.6175C107.761 60.1868 107.635 59.7118 107.635 59.1925C107.635 58.3185 107.977 57.6091 108.661 57.0645C109.345 56.5198 110.371 56.2475 111.739 56.2475H114.133V56.0195C114.133 55.3735 113.949 54.8985 113.582 54.5945C113.214 54.2905 112.758 54.1385 112.214 54.1385C111.72 54.1385 111.289 54.2588 110.922 54.4995C110.554 54.7275 110.326 55.0695 110.238 55.5255H107.863C107.926 54.8415 108.154 54.2461 108.547 53.7395C108.952 53.2328 109.471 52.8465 110.105 52.5805C110.738 52.3018 111.447 52.1625 112.233 52.1625C113.575 52.1625 114.633 52.4981 115.406 53.1695C116.178 53.8408 116.565 54.7908 116.565 56.0195V61.8145H114.494L114.266 60.2945C113.987 60.8011 113.594 61.2191 113.088 61.5485C112.594 61.8778 111.954 62.0425 111.169 62.0425ZM111.72 60.1425C112.416 60.1425 112.955 59.9145 113.335 59.4585C113.727 59.0025 113.974 58.4388 114.076 57.7675H112.005C111.359 57.7675 110.896 57.8878 110.618 58.1285C110.339 58.3565 110.2 58.6415 110.2 58.9835C110.2 59.3508 110.339 59.6358 110.618 59.8385C110.896 60.0411 111.264 60.1425 111.72 60.1425ZM123.217 62.0425C122.331 62.0425 121.539 61.8271 120.842 61.3965C120.146 60.9658 119.595 60.3768 119.189 59.6295C118.784 58.8821 118.581 58.0335 118.581 57.0835C118.581 56.1335 118.784 55.2911 119.189 54.5565C119.595 53.8091 120.146 53.2265 120.842 52.8085C121.539 52.3778 122.331 52.1625 123.217 52.1625C123.927 52.1625 124.547 52.2955 125.079 52.5615C125.611 52.8275 126.042 53.2011 126.371 53.6825V48.1345H128.803V61.8145H126.637L126.371 60.4655C126.067 60.8835 125.662 61.2508 125.155 61.5675C124.661 61.8841 124.015 62.0425 123.217 62.0425ZM123.73 59.9145C124.516 59.9145 125.155 59.6548 125.649 59.1355C126.156 58.6035 126.409 57.9258 126.409 57.1025C126.409 56.2791 126.156 55.6078 125.649 55.0885C125.155 54.5565 124.516 54.2905 123.73 54.2905C122.958 54.2905 122.318 54.5501 121.811 55.0695C121.305 55.5888 121.051 56.2601 121.051 57.0835C121.051 57.9068 121.305 58.5845 121.811 59.1165C122.318 59.6485 122.958 59.9145 123.73 59.9145ZM135.859 62.0425C134.909 62.0425 134.067 61.8398 133.332 61.4345C132.597 61.0291 132.021 60.4591 131.603 59.7245C131.185 58.9898 130.976 58.1411 130.976 57.1785C130.976 56.2031 131.179 55.3355 131.584 54.5755C132.002 53.8155 132.572 53.2265 133.294 52.8085C134.029 52.3778 134.89 52.1625 135.878 52.1625C136.803 52.1625 137.62 52.3651 138.329 52.7705C139.038 53.1758 139.589 53.7331 139.982 54.4425C140.387 55.1391 140.59 55.9181 140.59 56.7795C140.59 56.9188 140.584 57.0645 140.571 57.2165C140.571 57.3685 140.565 57.5268 140.552 57.6915H133.389C133.44 58.4261 133.693 59.0025 134.149 59.4205C134.618 59.8385 135.181 60.0475 135.84 60.0475C136.334 60.0475 136.746 59.9398 137.075 59.7245C137.417 59.4965 137.67 59.2051 137.835 58.8505H140.305C140.128 59.4458 139.83 59.9905 139.412 60.4845C139.007 60.9658 138.5 61.3458 137.892 61.6245C137.297 61.9031 136.619 62.0425 135.859 62.0425ZM135.878 54.1385C135.283 54.1385 134.757 54.3095 134.301 54.6515C133.845 54.9808 133.554 55.4875 133.427 56.1715H138.12C138.082 55.5508 137.854 55.0568 137.436 54.6895C137.018 54.3221 136.499 54.1385 135.878 54.1385ZM146.53 62.0425C145.694 62.0425 144.96 61.9095 144.326 61.6435C143.693 61.3648 143.186 60.9848 142.806 60.5035C142.426 60.0221 142.198 59.4648 142.122 58.8315H144.573C144.649 59.1988 144.852 59.5155 145.181 59.7815C145.523 60.0348 145.96 60.1615 146.492 60.1615C147.024 60.1615 147.411 60.0538 147.651 59.8385C147.905 59.6231 148.031 59.3761 148.031 59.0975C148.031 58.6921 147.854 58.4198 147.499 58.2805C147.145 58.1285 146.651 57.9828 146.017 57.8435C145.612 57.7548 145.2 57.6471 144.782 57.5205C144.364 57.3938 143.978 57.2355 143.623 57.0455C143.281 56.8428 143.003 56.5895 142.787 56.2855C142.572 55.9688 142.464 55.5825 142.464 55.1265C142.464 54.2905 142.794 53.5875 143.452 53.0175C144.124 52.4475 145.061 52.1625 146.264 52.1625C147.379 52.1625 148.266 52.4221 148.924 52.9415C149.596 53.4608 149.995 54.1765 150.121 55.0885H147.822C147.683 54.3918 147.157 54.0435 146.245 54.0435C145.789 54.0435 145.435 54.1321 145.181 54.3095C144.941 54.4868 144.82 54.7085 144.82 54.9745C144.82 55.2531 145.004 55.4748 145.371 55.6395C145.739 55.8041 146.226 55.9561 146.834 56.0955C147.493 56.2475 148.095 56.4185 148.639 56.6085C149.197 56.7858 149.64 57.0581 149.969 57.4255C150.299 57.7801 150.463 58.2931 150.463 58.9645C150.476 59.5471 150.324 60.0728 150.007 60.5415C149.691 61.0101 149.235 61.3775 148.639 61.6435C148.044 61.9095 147.341 62.0425 146.53 62.0425Z" fill="white"/>
<path d="M120.636 107.869C118.721 111.056 118.428 114.892 117.783 118.534C116.77 124.177 114.786 129.62 113.786 135.266C113.437 137.241 113.212 139.244 112.658 141.173C111.898 143.823 110.542 146.27 109.269 148.717C107.101 152.9 105.135 157.248 104.325 161.871C104.073 163.312 104.27 165.268 105.728 165.577C106.144 165.668 106.612 165.596 106.967 165.828C107.176 165.962 107.308 166.18 107.475 166.36C108.116 167.052 109.218 167.133 110.133 166.881C111.048 166.629 111.846 166.076 112.695 165.645C116.064 163.946 120.057 164.149 123.837 164.39C124.532 164.433 125.313 164.518 125.753 165.049C125.975 165.319 126.069 165.667 126.234 165.976C126.821 167.095 128.37 167.616 129.534 167.085C129.969 166.885 130.343 166.566 130.796 166.402C132.179 165.897 133.635 166.992 135.116 167C137.245 167.009 138.848 164.801 140.976 164.725C142.427 164.674 143.753 165.642 145.204 165.651C146.293 165.651 147.296 165.114 148.242 164.59L154.709 161.014C152.98 158.646 150.863 156.575 148.443 154.886C146.662 153.65 146.181 151.179 145.094 149.326C144.376 148.1 143.651 146.855 143.301 145.485C143.048 144.497 142.998 143.468 142.749 142.478C142.403 141.113 141.692 139.87 141.127 138.577C138.887 133.456 138.963 127.612 136.911 122.415C136.334 120.951 135.591 119.55 135.078 118.063C134.403 116.105 134.14 114.029 133.458 112.074C132.777 110.119 131.565 108.199 129.633 107.357C128.795 107.02 127.902 106.83 126.996 106.797C124.739 106.655 122.731 107.035 120.636 107.869Z" fill="#3F3D56"/>
<path d="M129.054 81.8965H120.057V93.643H129.054V81.8965Z" fill="#FBC661"/>
<path d="M128.81 91.0094C128.353 90.9399 127.886 91.0094 127.424 91.0094C126.287 90.9955 125.963 92.3407 124.829 92.4503C123.446 92.5831 121.528 91.726 120.372 92.4827C120.16 92.627 119.937 92.753 119.703 92.8596C118.757 93.2673 117.6 93.1159 116.735 93.6704C115.869 94.2248 115.552 95.3198 115.552 96.3329C115.53 96.6954 115.584 97.0584 115.709 97.4C115.831 97.6888 116.033 97.939 116.154 98.2278C116.239 98.4317 116.283 98.6494 116.354 98.8595C116.548 99.3403 116.814 99.7901 117.143 100.194L119.146 102.923C119.671 103.639 119.462 104.526 119.547 105.405C119.61 106.079 119.771 106.747 119.769 107.423C119.768 108.099 119.578 108.813 119.063 109.276C120.249 109.205 121.431 109.099 122.61 108.957C123.582 108.839 124.55 108.699 125.526 108.631C127.577 108.489 129.637 108.672 131.678 108.856C131.34 108.445 131.187 107.872 131.104 107.352C130.826 105.625 130.651 103.817 131.232 102.164C131.418 101.67 131.637 101.189 131.886 100.722L132.509 99.4942C133.391 97.7583 134.214 95.9792 134.402 94.0487C134.472 93.5531 134.412 93.048 134.227 92.5816C133.954 91.9839 133.364 91.5638 132.728 91.36C132.083 91.1799 131.409 91.1222 130.741 91.1901C130.12 91.2194 129.432 91.1021 128.81 91.0094Z" fill="#3F3D56"/>
<path d="M122.333 90.1964C122.476 90.564 122.648 90.9578 122.536 91.3377C122.328 92.0913 121.265 92.2442 120.801 92.8821C120.761 92.9253 120.733 92.9783 120.72 93.0356C120.708 93.0928 120.711 93.1523 120.73 93.2079C120.752 93.2451 120.781 93.2781 120.815 93.3052C121.681 94.0434 122.934 94.1068 124.082 94.0944C125.755 94.079 127.542 93.94 128.869 92.9469C129.24 92.6689 129.588 92.2056 129.399 91.7871C129.252 91.4674 128.866 91.347 128.546 91.1894C127.828 90.8358 127.314 90.1624 127.03 89.4257C126.746 88.6891 126.673 87.8937 126.661 87.1092C126.673 86.975 126.644 86.8402 126.576 86.7231C126.465 86.5686 126.26 86.5455 126.066 86.5331C124.985 86.4625 123.9 86.5049 122.828 86.6598C122.525 86.703 121.948 86.7432 121.735 86.9856C121.522 87.2281 121.645 87.5154 121.686 87.7794C121.814 88.6051 122.031 89.4153 122.333 90.1964Z" fill="#FBB3B2"/>
<path opacity="0.05" d="M122.333 90.1964C122.476 90.564 122.648 90.9578 122.536 91.3377C122.328 92.0913 121.265 92.2442 120.801 92.8821C120.761 92.9253 120.733 92.9783 120.72 93.0356C120.708 93.0928 120.711 93.1523 120.73 93.2079C120.752 93.2451 120.781 93.2781 120.815 93.3052C121.681 94.0434 122.934 94.1068 124.082 94.0944C125.755 94.079 127.542 93.94 128.869 92.9469C129.24 92.6689 129.588 92.2056 129.399 91.7871C129.252 91.4674 128.866 91.347 128.546 91.1894C127.828 90.8358 127.314 90.1624 127.03 89.4257C126.746 88.6891 126.673 87.8937 126.661 87.1092C126.673 86.975 126.644 86.8402 126.576 86.7231C126.465 86.5686 126.26 86.5455 126.066 86.5331C124.985 86.4625 123.9 86.5049 122.828 86.6598C122.525 86.703 121.948 86.7432 121.735 86.9856C121.522 87.2281 121.645 87.5154 121.686 87.7794C121.814 88.6051 122.031 89.4153 122.333 90.1964Z" fill="black"/>
<path d="M124.37 88.6974C126.6 88.6974 128.409 86.9266 128.409 84.7423C128.409 82.5579 126.6 80.7871 124.37 80.7871C122.139 80.7871 120.33 82.5579 120.33 84.7423C120.33 86.9266 122.139 88.6974 124.37 88.6974Z" fill="#FBB3B2"/>
<path opacity="0.1" d="M128.22 166.408C127.9 166.546 127.594 166.712 127.307 166.906C127.663 167.126 128.068 167.258 128.488 167.29C128.908 167.322 129.33 167.254 129.717 167.091C130.023 166.95 130.297 166.751 130.591 166.589C129.783 166.342 128.99 166.127 128.22 166.408Z" fill="black"/>
<path opacity="0.1" d="M110.123 165.651C109.44 165.993 108.789 166.412 108.084 166.698C108.724 167.071 109.581 167.088 110.317 166.88C111.232 166.619 112.03 166.075 112.877 165.644C114.726 164.718 116.764 164.355 118.849 164.255C115.827 164.156 112.781 164.313 110.123 165.651Z" fill="black"/>
<path opacity="0.1" d="M148.623 154.882C146.842 153.646 146.363 151.175 145.275 149.322C144.557 148.096 143.831 146.851 143.481 145.481C143.229 144.493 143.178 143.464 142.929 142.474C142.585 141.109 141.874 139.866 141.309 138.573C139.069 133.452 139.144 127.608 137.093 122.411C136.514 120.947 135.771 119.546 135.259 118.059C134.585 116.101 134.312 114.025 133.639 112.07C132.965 110.115 131.746 108.195 129.814 107.354C128.989 106.992 128.079 106.852 127.177 106.793C126.415 106.744 125.651 106.757 124.893 106.832C125.64 106.893 126.374 107.07 127.065 107.357C128.992 108.198 130.208 110.118 130.889 112.073C131.571 114.028 131.836 116.104 132.509 118.062C133.022 119.55 133.771 120.95 134.342 122.414C136.393 127.611 136.319 133.455 138.558 138.576C139.125 139.869 139.836 141.112 140.18 142.477C140.429 143.467 140.48 144.496 140.732 145.484C141.082 146.854 141.808 148.099 142.525 149.325C143.612 151.178 144.093 153.64 145.874 154.885C148.295 156.574 150.414 158.643 152.144 161.01L145.677 164.587C145.136 164.904 144.569 165.176 143.981 165.399C144.439 165.552 144.917 165.636 145.401 165.648C146.487 165.648 147.491 165.11 148.437 164.587L154.904 161.01C153.171 158.641 151.049 156.57 148.623 154.882Z" fill="black"/>
<path opacity="0.1" d="M138.402 164.733C136.735 164.791 135.389 166.161 133.859 166.74C134.323 166.894 134.807 166.982 135.296 167.001C137.009 167.001 138.381 165.582 139.96 164.984C139.459 164.814 138.932 164.729 138.402 164.733Z" fill="black"/>
<path d="M124.124 107.378V104.461H122.677C122.755 104.024 123.013 102.496 122.961 101.883C122.961 101.883 123.635 100.085 123.084 98.5873C123.158 98.6048 123.234 98.6055 123.308 98.5895C123.382 98.5735 123.451 98.5411 123.51 98.4949C123.569 98.4487 123.617 98.3898 123.649 98.3229C123.681 98.2559 123.698 98.1826 123.696 98.1086C123.756 97.5093 124.614 96.0113 122.961 95.5912L122.793 95.1279C122.907 94.9415 122.965 94.7275 122.961 94.5102C122.961 94.0144 122.687 93.6113 122.349 93.6113C122.012 93.6113 121.737 94.0144 121.737 94.5102C121.731 94.7497 121.803 94.9849 121.942 95.182L121.859 95.7163C121.859 95.7163 120.146 95.2962 120.881 98.1132C120.881 98.1132 121.064 98.5919 121.37 98.5919C121.37 98.5919 121.187 100.754 121.493 101.526C121.493 101.526 121.37 103.443 121.614 103.863V104.462H120.084V107.429C119.296 107.605 118.799 107.875 118.799 108.178C118.799 108.708 120.334 109.137 122.226 109.137C124.119 109.137 125.654 108.708 125.654 108.178C125.654 107.843 125.047 107.549 124.124 107.378Z" fill="#5B59E3"/>
<path opacity="0.1" d="M122.381 94.4789C122.385 94.6961 122.327 94.91 122.214 95.0967L122.381 95.56C124.034 95.9785 123.178 97.4765 123.116 98.0758C123.117 98.1498 123.101 98.2232 123.069 98.2902C123.037 98.3572 122.989 98.4161 122.93 98.4624C122.871 98.5088 122.802 98.5413 122.728 98.5575C122.655 98.5737 122.578 98.5732 122.504 98.5561C123.055 100.054 122.381 101.852 122.381 101.852C122.433 102.47 122.175 103.991 122.097 104.429H122.649C122.727 103.991 122.987 102.465 122.935 101.852C122.935 101.852 123.607 100.054 123.056 98.5561C123.13 98.5732 123.207 98.5737 123.28 98.5575C123.354 98.5413 123.423 98.5088 123.482 98.4624C123.541 98.4161 123.589 98.3572 123.621 98.2902C123.653 98.2232 123.669 98.1498 123.668 98.0758C123.73 97.4765 124.586 95.9785 122.935 95.56L122.766 95.0967C122.88 94.9102 122.939 94.6962 122.935 94.4789C122.935 93.9832 122.66 93.5801 122.323 93.5801C122.222 93.5816 122.125 93.6158 122.047 93.6774C122.16 93.7786 122.248 93.9029 122.306 94.0415C122.364 94.18 122.389 94.3294 122.381 94.4789Z" fill="black"/>
<path opacity="0.1" d="M124.093 107.345V104.43H123.543V107.345C124.464 107.518 125.073 107.809 125.073 108.144C125.073 108.649 123.685 109.061 121.918 109.1H122.194C124.087 109.1 125.621 108.671 125.621 108.141C125.623 107.812 125.013 107.518 124.093 107.345Z" fill="black"/>
<path d="M125.729 79.1895C124.467 78.8806 123.111 78.6444 121.909 79.1185C121.357 79.3578 120.85 79.685 120.407 80.0868C119.999 80.4343 119.601 80.8188 119.384 81.3053C119.123 81.8922 119.153 82.5563 119.138 83.1956C119.122 83.835 119.035 84.5207 118.601 84.9979C118.433 85.1833 118.213 85.3346 118.104 85.5601C117.947 85.869 118.051 86.2504 118.205 86.5639C118.36 86.8774 118.567 87.174 118.638 87.5168C118.734 87.9909 118.546 88.482 118.28 88.8898C118.013 89.2975 117.666 89.6496 117.39 90.0527C117.114 90.4558 116.899 91.0334 117.15 91.4766C117.308 91.7623 117.633 91.9399 117.797 92.221C117.876 92.3553 117.915 92.5113 117.999 92.6426C118.231 93.0024 118.718 93.0905 119.149 93.1337C119.838 93.2048 120.606 93.2264 121.141 92.794C121.508 92.4974 121.694 92.0357 121.784 91.577C121.874 91.1183 121.877 90.6504 121.961 90.187C122.021 89.8565 122.119 89.526 122.09 89.1925C122.051 88.7477 121.787 88.357 121.581 87.957C121.27 87.4016 121.124 86.7717 121.161 86.1392C121.223 85.5122 121.56 84.8929 122.125 84.5948C122.522 84.3802 123.013 84.3261 123.351 84.0296C123.885 83.5663 123.805 82.7447 123.901 82.0513C123.914 81.8967 123.965 81.7477 124.051 81.6173C124.218 81.3949 124.524 81.3347 124.808 81.3084C125.469 81.2528 126.171 81.3223 126.724 81.6822C127.238 82.0389 127.593 82.5733 127.718 83.1771C127.84 83.7774 127.828 84.3961 127.685 84.9918C127.707 84.7308 128.117 84.6597 128.306 84.8373C128.496 85.0149 128.505 85.3207 128.452 85.5771C128.231 86.6581 127.231 87.4303 126.895 88.4805C126.762 88.9133 126.745 89.3724 126.846 89.8134C126.947 90.2544 127.163 90.6624 127.472 90.9978C127.555 91.0974 127.664 91.1731 127.788 91.2171C127.914 91.2412 128.043 91.2474 128.171 91.2357C128.674 91.2357 129.106 91.5739 129.489 91.8951C129.873 92.2164 130.278 92.5607 130.789 92.5994C131.3 92.638 131.851 92.187 131.699 91.716C131.644 91.5753 131.556 91.4494 131.442 91.3484C131.127 91.0303 130.713 90.7801 130.496 90.3909C130.116 89.7376 130.348 88.9207 130.587 88.2056C130.827 87.4906 131.06 86.672 130.671 86.0219C130.488 85.713 130.182 85.4813 130.04 85.1539C129.962 84.9644 129.921 84.7622 129.918 84.5578C129.885 83.8103 130.076 83.0489 129.918 82.32C129.825 81.9685 129.66 81.6388 129.434 81.3503C129.209 81.0618 128.927 80.8202 128.605 80.6397C128.278 80.4449 127.922 80.2996 127.551 80.2088C127.407 80.1733 127.19 80.181 127.089 80.076C126.988 79.971 126.953 79.7841 126.825 79.6667C126.516 79.4073 126.106 79.2806 125.729 79.1895Z" fill="#FBC661"/>
<path opacity="0.05" d="M128.307 84.0047C128.239 83.9463 128.153 83.9109 128.062 83.9037C127.972 83.8965 127.881 83.9178 127.804 83.9645C127.8 84.2925 127.764 84.6194 127.695 84.9406C127.765 84.7228 128.131 84.6734 128.307 84.8433C128.343 84.8776 128.373 84.9166 128.397 84.9591C128.42 84.8885 128.438 84.8169 128.452 84.7444C128.506 84.4881 128.498 84.1884 128.307 84.0047Z" fill="black"/>
<path opacity="0.05" d="M129.906 83.7259C129.907 83.7874 129.912 83.8487 129.92 83.9097C129.966 83.4876 129.976 83.0624 129.95 82.6387C129.915 83 129.9 83.363 129.906 83.7259Z" fill="black"/>
<path opacity="0.05" d="M127.697 84.9434C127.692 84.9601 127.689 84.9772 127.688 84.9945L127.697 84.9434Z" fill="black"/>
<path opacity="0.05" d="M130.326 89.1466C130.386 88.8321 130.471 88.5224 130.578 88.22C130.769 87.6547 130.952 87.0231 130.827 86.4609C130.769 86.7757 130.685 87.0855 130.578 87.3876C130.387 87.9466 130.201 88.5814 130.326 89.1466Z" fill="black"/>
<path opacity="0.05" d="M127.72 83.1828C127.748 83.3035 127.769 83.4257 127.783 83.5488C127.828 83.1465 127.807 82.7397 127.72 82.3442C127.595 81.7398 127.24 81.2046 126.726 80.8477C126.172 80.4894 125.464 80.4183 124.81 80.4739C124.529 80.4986 124.22 80.5589 124.053 80.7828C123.967 80.9126 123.915 81.0612 123.903 81.2152C123.806 81.9102 123.887 82.7272 123.352 83.1936C123.015 83.4916 122.524 83.5457 122.127 83.7604C121.562 84.0692 121.224 84.687 121.163 85.3047C121.143 85.5278 121.151 85.7524 121.188 85.9734C121.231 85.6889 121.338 85.4173 121.502 85.1785C121.666 84.9397 121.882 84.7396 122.135 84.5928C122.532 84.3781 123.023 84.3241 123.36 84.0275C123.895 83.5642 123.814 82.7426 123.911 82.0492C123.923 81.8947 123.975 81.7456 124.06 81.6152C124.228 81.3928 124.534 81.3326 124.818 81.3063C125.478 81.2507 126.18 81.3202 126.734 81.6801C127.246 82.04 127.598 82.5774 127.72 83.1828Z" fill="black"/>
<path opacity="0.05" d="M131.54 91.4659C131.446 91.5687 131.329 91.6497 131.199 91.7031C131.068 91.7565 130.928 91.781 130.787 91.7748C130.283 91.7362 129.869 91.3918 129.487 91.0706C129.105 90.7493 128.671 90.4173 128.168 90.4111C128.04 90.4221 127.911 90.4158 127.785 90.3926C127.662 90.348 127.553 90.2723 127.469 90.1733C127.12 89.798 126.89 89.3302 126.81 88.8281C126.746 89.2172 126.771 89.6156 126.885 89.9936C127 90.3717 127.199 90.7197 127.469 91.0119C127.553 91.1114 127.662 91.1872 127.785 91.2312C127.911 91.2552 128.04 91.2614 128.168 91.2497C128.671 91.2497 129.104 91.5879 129.487 91.9092C129.87 92.2304 130.275 92.5748 130.787 92.6134C131.298 92.652 131.848 92.201 131.697 91.73C131.663 91.6326 131.61 91.5428 131.54 91.4659Z" fill="black"/>
<path opacity="0.05" d="M118.601 87.3737C118.67 87.1477 118.683 86.909 118.639 86.6772C118.568 86.3359 118.36 86.0393 118.207 85.7258C118.175 85.662 118.147 85.5971 118.122 85.5312C118.122 85.5405 118.111 85.5498 118.106 85.5606C117.948 85.8695 118.052 86.2509 118.207 86.5644C118.357 86.8249 118.489 87.0953 118.601 87.3737Z" fill="black"/>
<path opacity="0.05" d="M122.046 88.9414C122.019 89.0789 121.987 89.2148 121.962 89.3522C121.878 89.8155 121.874 90.2788 121.785 90.7421C121.697 91.2055 121.509 91.6688 121.142 91.9591C120.607 92.39 119.839 92.3699 119.15 92.2989C118.719 92.2556 118.232 92.1661 118 91.8078C117.916 91.675 117.877 91.5205 117.798 91.3846C117.64 91.1004 117.314 90.9213 117.151 90.6402C117.14 90.6217 117.131 90.6001 117.121 90.58C117.061 90.7236 117.033 90.8781 117.038 91.0333C117.043 91.1885 117.082 91.3409 117.151 91.4804C117.309 91.7661 117.634 91.9437 117.798 92.2247C117.877 92.3591 117.916 92.5151 118 92.6464C118.232 93.0062 118.719 93.0942 119.15 93.1375C119.839 93.2085 120.607 93.2301 121.142 92.7977C121.509 92.5012 121.695 92.0394 121.785 91.5807C121.875 91.1221 121.878 90.6541 121.962 90.1908C122.022 89.8603 122.12 89.5298 122.091 89.1962C122.083 89.1102 122.068 89.0249 122.046 88.9414Z" fill="black"/>
<path d="M116.167 94.8086C116.167 94.8086 115.378 95.2287 114.882 99.1236C114.385 103.019 114.146 107.154 114.146 107.154C114.146 107.154 114.146 110.631 117.512 110.75C117.512 110.75 118.859 110.991 119.289 111.29C119.718 111.59 126.45 109.551 123.267 109.128C120.083 108.705 118.921 108.887 118.921 108.887C118.921 108.887 117.206 107.806 117.206 106.79C117.206 105.774 118.921 99.729 118.921 99.729L116.167 94.8086Z" fill="#FBB3B2"/>
<path d="M116.157 97.8662C116.242 98.0701 116.286 98.2878 116.357 98.4979C116.55 98.9789 116.816 99.4287 117.146 99.8322C117.546 100.379 118.19 101.667 118.589 102.214C118.828 101.411 119.178 100.645 119.63 99.9357L116.173 94.4531C116.173 94.4531 115.901 94.5952 115.578 95.4879C115.561 95.65 115.551 95.8122 115.55 95.9712C115.528 96.3338 115.582 96.6968 115.707 97.0384C115.834 97.3272 116.035 97.5774 116.157 97.8662Z" fill="#3F3D56"/>
<path d="M128.012 86.7593C128.012 86.7225 128 86.6865 127.978 86.6564C127.956 86.6262 127.926 86.6034 127.89 86.591V86.3887C127.926 86.3765 127.957 86.3537 127.978 86.3235C128 86.2934 128.012 86.2573 128.012 86.2204C128.012 86.1871 128.003 86.1543 127.986 86.1256C127.968 86.097 127.943 86.0736 127.913 86.058C127.883 86.0425 127.849 86.0354 127.815 86.0375C127.781 86.0396 127.749 86.0508 127.721 86.07C127.693 86.0892 127.671 86.1155 127.658 86.146C127.644 86.1766 127.64 86.2102 127.644 86.2432C127.649 86.2762 127.663 86.3072 127.685 86.3329C127.707 86.3586 127.735 86.3779 127.767 86.3887V86.591C127.731 86.6033 127.7 86.6261 127.678 86.6564C127.656 86.6867 127.645 86.723 127.645 86.7601C127.645 86.7973 127.656 86.8335 127.678 86.8638C127.7 86.8941 127.731 86.917 127.767 86.9292V87.13C127.731 87.1423 127.7 87.1651 127.678 87.1954C127.656 87.2257 127.645 87.2619 127.645 87.2991C127.645 87.3363 127.656 87.3725 127.678 87.4028C127.7 87.4331 127.731 87.4559 127.767 87.4682V87.6705C127.727 87.6847 127.692 87.7125 127.671 87.749C127.649 87.7854 127.641 87.8282 127.648 87.8698C127.656 87.9114 127.678 87.9491 127.711 87.9763C127.744 88.0035 127.786 88.0184 127.829 88.0184C127.872 88.0184 127.914 88.0035 127.946 87.9763C127.979 87.9491 128.002 87.9114 128.009 87.8698C128.016 87.8282 128.008 87.7854 127.987 87.749C127.965 87.7125 127.931 87.6847 127.89 87.6705V87.4682C127.926 87.4559 127.957 87.4331 127.979 87.4028C128.001 87.3725 128.013 87.3363 128.013 87.2991C128.013 87.2619 128.001 87.2257 127.979 87.1954C127.957 87.1651 127.926 87.1423 127.89 87.13V86.9292C127.926 86.9167 127.957 86.8937 127.979 86.8632C128 86.8328 128.012 86.7965 128.012 86.7593Z" fill="#EEEFF3"/>
<path d="M133.921 92.4141C134.862 93.9556 135.544 95.6351 135.94 97.3885C136.552 100.205 136.981 100.805 136.981 100.805C136.981 100.805 139.675 107.517 136.675 107.937C133.675 108.357 128.413 107.937 128.413 107.937C128.413 107.937 117.763 109.734 121.497 107.337C125.23 104.941 128.172 105.239 128.172 105.239C128.172 105.239 132.64 105.12 133.252 104.7L134.415 104.581L131.661 96.9098L133.921 92.4141Z" fill="#FBB3B2"/>
<path d="M131.074 96.8173L132.358 99.7516C133.226 98.0389 134.224 95.9401 134.409 94.0374C134.426 93.6852 134.418 93.3322 134.385 92.9811C134.244 92.6946 134.058 92.4315 133.835 92.2012L131.074 96.8173Z" fill="#3F3D56"/>
<path d="M89.124 130.618C89.124 130.618 86.0278 136.929 88.1776 139.156C90.3275 141.383 91.7802 130.371 91.7802 130.371L89.124 130.618Z" fill="#A0616A"/>
<path d="M74.1501 160.127L70.68 164.396C70.68 164.396 63.6657 167.119 70.1106 167.485C70.1106 167.485 73.2652 167.238 73.8961 166.804C74.527 166.37 74.9072 165.505 76.1706 166.001C77.434 166.497 78.8883 165.505 78.8883 165.505C78.8883 165.505 79.0776 160.679 77.8141 160.123C76.5507 159.567 74.1501 160.127 74.1501 160.127Z" fill="#36344A"/>
<path d="M87.1043 161.672L86.2825 165.199C86.2825 165.199 84.4497 169.406 87.1043 168.787C89.7589 168.168 91.0854 167.488 91.3378 166.251C91.5902 165.014 92.2842 163.652 92.2842 163.652C92.2842 163.652 91.5255 161.734 90.8315 161.672C90.1375 161.61 87.1043 161.672 87.1043 161.672Z" fill="#36344A"/>
<path d="M70.1688 119.043C70.1688 119.043 67.8943 134.332 69.4748 142.672C71.0552 151.011 72.9448 159.562 72.9448 159.562C72.9448 159.562 70.7366 164.504 78.3077 161.233C78.3077 161.233 77.8029 148.982 76.2856 144.219C74.7682 139.456 77.0648 133.025 77.6957 132.84C77.6957 132.84 80.2194 145.277 82.6879 149.365C85.1563 153.453 86.5286 162.972 86.5286 162.972C86.5286 162.972 91.8378 163.652 91.7747 162.291C91.7116 160.931 90.7637 149.422 87.6737 145.339C87.6737 145.339 85.0191 138.533 86.7273 131.479C88.4356 124.426 84.8945 122.012 84.8945 122.012L79.273 115.517L73.6499 114.281L70.1688 119.043Z" fill="#3F3D56"/>
<path d="M86.8428 92.7026C86.7836 92.904 86.6879 93.0934 86.5604 93.2617C86.4286 93.4002 86.2726 93.5147 86.0999 93.5999C85.5446 93.9067 84.9571 94.1537 84.3475 94.3366C84.1898 94.6454 84.4453 94.9929 84.6882 95.2431L85.4011 95.9813C85.8175 96.4107 86.2339 96.84 86.6835 97.2354C87.5527 97.999 88.5389 98.6244 89.6062 99.0886C90.1646 99.3311 90.8854 99.5041 91.3334 99.0979C91.7813 98.6917 91.6693 97.9782 91.9406 97.4485C91.9749 97.4169 92.0012 97.378 92.0175 97.3348C92.0338 97.2916 92.0396 97.2453 92.0346 97.1995C92.0295 97.1537 92.0137 97.1097 91.9884 97.0709C91.9631 97.0321 91.9289 96.9996 91.8886 96.9759C91.5226 96.6222 91.4485 96.0632 91.5258 95.5659C91.6031 95.0686 91.8097 94.5991 91.928 94.1095C92.0463 93.62 92.0684 93.0733 91.8018 92.6424C91.645 92.4132 91.4422 92.2177 91.2056 92.0679C90.6878 91.7081 90.1104 91.4385 89.499 91.271C89.1835 91.186 88.868 91.1289 88.5526 91.0378C88.357 90.9791 87.827 90.6208 87.6598 90.6501C87.316 90.7057 86.9642 92.3428 86.8428 92.7026Z" fill="#A0616A"/>
<path opacity="0.1" d="M86.8428 92.7026C86.7836 92.904 86.6879 93.0934 86.5604 93.2617C86.4286 93.4002 86.2726 93.5147 86.0999 93.5999C85.5446 93.9067 84.9571 94.1537 84.3475 94.3366C84.1898 94.6454 84.4453 94.9929 84.6882 95.2431L85.4011 95.9813C85.8175 96.4107 86.2339 96.84 86.6835 97.2354C87.5527 97.999 88.5389 98.6244 89.6062 99.0886C90.1646 99.3311 90.8854 99.5041 91.3334 99.0979C91.7813 98.6917 91.6693 97.9782 91.9406 97.4485C91.9749 97.4169 92.0012 97.378 92.0175 97.3348C92.0338 97.2916 92.0396 97.2453 92.0346 97.1995C92.0295 97.1537 92.0137 97.1097 91.9884 97.0709C91.9631 97.0321 91.9289 96.9996 91.8886 96.9759C91.5226 96.6222 91.4485 96.0632 91.5258 95.5659C91.6031 95.0686 91.8097 94.5991 91.928 94.1095C92.0463 93.62 92.0684 93.0733 91.8018 92.6424C91.645 92.4132 91.4422 92.2177 91.2056 92.0679C90.6878 91.7081 90.1104 91.4385 89.499 91.271C89.1835 91.186 88.868 91.1289 88.5526 91.0378C88.357 90.9791 87.827 90.6208 87.6598 90.6501C87.316 90.7057 86.9642 92.3428 86.8428 92.7026Z" fill="black"/>
<path d="M86.1337 93.813C86.1258 93.691 86.1116 93.5489 86.006 93.4825C85.9444 93.4493 85.8741 93.4348 85.8041 93.4408C84.3119 93.4408 83.1021 94.5898 82.1636 95.7234C80.1857 98.1094 78.6257 100.803 77.274 103.578C76.4427 105.288 75.6714 107.21 76.2061 109.031C76.3752 109.571 76.6267 110.083 76.9522 110.549C77.4005 111.216 77.9445 111.816 78.5674 112.33C78.8011 112.55 79.0909 112.705 79.4065 112.778C79.8797 112.852 80.3292 112.597 80.733 112.352C81.5438 111.857 82.3508 111.358 83.1542 110.854C84.4586 110.035 85.7631 109.203 86.9129 108.187C88.0628 107.17 89.0612 105.956 89.6275 104.545C89.8688 103.946 90.0297 103.309 90.301 102.729C90.7142 101.834 91.3814 101.045 91.618 100.091C91.73 99.6353 91.7395 99.1642 91.8594 98.7086C91.954 98.3457 92.118 98.0029 92.1969 97.6368C92.2758 97.2708 92.2568 96.8647 92.0187 96.5651C91.618 96.0678 90.8388 96.1419 90.2048 96.2701C89.3783 96.4369 87.905 96.8477 87.118 96.3581C86.4445 95.9365 86.181 94.5296 86.1337 93.813Z" fill="#EEEFF3"/>
<path d="M85.715 96.7706L84.8301 96.8324L84.1992 96.5838L84.7055 95.0996C84.7055 95.0996 86.4879 95.2973 86.6709 95.8471C86.6709 95.8471 86.8033 96.2255 87.0179 96.2811C87.2324 96.3367 88.122 96.2131 88.3065 96.6455C88.4911 97.078 88.4327 99.4254 87.2324 99.1165L86.6645 97.6309L86.4106 97.2602C86.4106 97.2602 85.6519 97.1413 85.715 96.7706Z" fill="#3F3D56"/>
<path d="M78.4462 110.568C78.4462 110.568 80.4052 97.9458 86.5346 93.4254C86.5346 93.4254 86.5977 92.2502 85.5236 92.3737C84.4494 92.4973 79.9636 91.6309 79.9636 91.6309L75.7301 99.6755C75.7301 99.6755 74.7837 107.161 74.0865 108.398C73.3893 109.635 69.0312 119.474 69.0312 119.474C69.0312 119.474 71.4966 127.579 75.1607 116.695C75.1607 116.695 72.3215 125.542 80.3421 126.409C88.3627 127.275 87.4195 125.913 87.4195 125.913L88.3659 119.479V114.651L90.1356 111.254L97.3392 102.282C97.3392 102.282 92.4495 95.654 91.5158 96.2455C91.5173 96.2393 85.4605 105.618 78.4462 110.568Z" fill="#3F3D56"/>
<path d="M80.9091 92.1286L79.9627 91.6328C79.9627 91.6328 77.0558 92.6845 76.0447 96.7694C76.0447 96.7694 73.581 98.5007 71.9437 99.801C71.9437 99.801 69.7355 95.7856 69.7355 94.4173C69.7355 94.4173 66.0698 96.8312 65.248 96.2119C65.248 96.2119 67.4563 106.173 71.6314 105.43C75.8065 104.687 77.3775 102.275 77.3775 102.275L80.9091 92.1286Z" fill="#3F3D56"/>
<path d="M94.9397 102.646L97.3403 102.273C97.3403 102.273 98.8577 104.253 96.14 107.161L94.4964 116.999C94.4964 116.999 94.6857 120.278 94.1179 122.753C93.55 125.229 92.6636 132.838 92.6636 132.838C92.6636 132.838 89.7582 131.787 88.1777 131.972L90.5784 109.147L94.9397 102.646Z" fill="#3F3D56"/>
<path d="M69.5988 95.0944C69.5988 95.0944 68.2707 87.2983 65.9962 90.2064C63.7218 93.1145 66.2486 97.136 66.2486 97.136L69.5988 95.0944Z" fill="#A0616A"/>
<path d="M91.6848 95.5035C94.5116 95.5035 96.8031 93.2598 96.8031 90.492C96.8031 87.7242 94.5116 85.4805 91.6848 85.4805C88.858 85.4805 86.5664 87.7242 86.5664 90.492C86.5664 93.2598 88.858 95.5035 91.6848 95.5035Z" fill="#A0616A"/>
<path d="M95.7794 85.0833C95.6625 84.9407 95.557 84.7894 95.464 84.6308C95.1564 84.1891 94.6753 83.9003 94.2021 83.6409C93.3362 83.1776 92.3488 82.7421 91.385 82.9675C90.7178 83.122 90.1516 83.5853 89.4797 83.7181C88.8077 83.8509 88.0096 83.7042 87.5569 84.1984C87.1042 84.6926 87.3046 85.471 86.915 85.9822C86.6989 86.2648 86.2982 86.5242 86.4071 86.8609C86.4528 87.003 86.5869 87.1034 86.6484 87.2408C86.7572 87.4818 86.6232 87.7582 86.6168 88.0223C86.609 88.413 86.8818 88.7481 87.0743 89.091C87.2667 89.4338 87.3708 89.9126 87.0743 90.1813C88.078 89.3952 89.178 88.7348 90.3488 88.2153C90.347 88.3739 90.3047 88.5294 90.2257 88.6678C90.8597 88.5764 91.4871 88.4459 92.1043 88.2771L91.7794 88.8871L93.1737 88.291C93.5507 88.1289 94.0239 87.9821 94.3457 88.2292C94.4939 88.3677 94.598 88.5453 94.6453 88.7404C94.8292 89.2983 94.9384 89.8771 94.9703 90.4624C95.005 91.1234 94.9703 91.8523 95.4072 92.3574C95.531 92.4853 95.6803 92.587 95.8458 92.6561C96.0114 92.7252 96.1897 92.7603 96.3697 92.7591C96.5497 92.7579 96.7275 92.7206 96.8921 92.6494C97.0568 92.5781 97.2047 92.4745 97.3268 92.345C97.4498 91.8817 97.2652 91.4029 97.2558 90.9273C97.2416 90.2338 97.5981 89.5821 97.6627 88.8918C97.7463 88.0192 97.2195 87.5018 96.9798 86.7296C96.8867 86.4331 96.9435 86.0825 96.7652 85.803C96.535 85.4571 96.0649 85.3799 95.7794 85.0833Z" fill="#3F3D56"/>
<path d="M66.0308 99.2184L67.8557 96.2176L66.3668 95.3497C66.7201 94.9451 67.9441 93.5304 68.2706 92.8694C68.2706 92.8694 70.0876 91.4239 70.4583 89.5521C70.4583 89.5521 70.9504 90.0062 71.3889 89.4255C71.8274 88.8448 73.6445 87.8193 72.2075 86.3969L72.3227 85.8209C72.5567 85.6976 72.7507 85.5125 72.8826 85.2865C73.1981 84.7753 73.1618 84.2055 72.8148 83.9954C72.4678 83.7854 71.9331 84.0418 71.6224 84.553C71.4674 84.7956 71.3946 85.0798 71.4142 85.3653L70.9993 85.8595C70.9993 85.8595 69.4977 84.4001 68.4914 87.7375C68.4914 87.7375 68.381 88.3413 68.6965 88.5251C68.6965 88.5251 67.157 90.6332 66.9851 91.6139C66.9851 91.6139 65.6601 93.5134 65.6491 94.0849L65.2737 94.7026L63.6964 93.7852L61.8415 96.8385C60.9251 96.5497 60.2405 96.5296 60.0512 96.8385C59.72 97.3836 61.0292 98.7458 62.9771 99.8809C64.9251 101.016 66.7706 101.493 67.1018 100.95C67.3147 100.614 66.8715 99.9473 66.0308 99.2184Z" fill="#5B59E3"/>
<path opacity="0.1" d="M72.3034 84.9007C72.1716 85.1266 71.9783 85.3121 71.745 85.4366L71.6283 86.0111C73.0668 87.4335 71.2481 88.4605 70.8096 89.0412C70.7645 89.118 70.702 89.1837 70.6269 89.2332C70.5518 89.2827 70.4661 89.3147 70.3764 89.3268C70.2868 89.3388 70.1955 89.3306 70.1095 89.3028C70.0236 89.275 69.9453 89.2283 69.8806 89.1663C69.5099 91.0381 67.6929 92.4836 67.6929 92.4836C67.3632 93.1461 66.1424 94.5608 65.7891 94.9639L66.3553 95.2944C66.7086 94.8913 67.9326 93.4751 68.2591 92.8141C68.2591 92.8141 70.0762 91.3686 70.4469 89.4968C70.4469 89.4968 70.939 89.9508 71.3775 89.3701C71.816 88.7894 73.633 87.764 72.1961 86.3416L72.3112 85.7656C72.5447 85.642 72.7382 85.4569 72.8696 85.2312C73.1851 84.7216 73.1504 84.1501 72.8034 83.9401C72.6992 83.8818 72.5785 83.8584 72.4595 83.8737C72.5127 84.0455 72.5262 84.2268 72.4992 84.4044C72.4722 84.582 72.4053 84.7515 72.3034 84.9007Z" fill="black"/>
<path opacity="0.1" d="M66.0231 99.1711L67.848 96.1703L67.2849 95.8398L65.46 98.8406C66.3007 99.5711 66.7423 100.231 66.5341 100.58C66.2186 101.097 64.5325 100.689 62.6934 99.673C62.7864 99.7286 62.8795 99.7857 62.9757 99.8413C64.9221 100.976 66.7691 101.455 67.1004 100.91C67.3007 100.567 66.859 99.9 66.0231 99.1711Z" fill="black"/>
<defs>
<filter id="filter0_d" x="0" y="18.5762" width="214" height="217.559" filterUnits="userSpaceOnUse" color-interpolation-filters="sRGB">
<feFlood flood-opacity="0" result="BackgroundImageFix"/>
<feColorMatrix in="SourceAlpha" type="matrix" values="0 0 0 0 0 0 0 0 0 0 0 0 0 0 0 0 0 0 127 0"/>
<feOffset dy="1"/>
<feGaussianBlur stdDeviation="1"/>
<feColorMatrix type="matrix" values="0 0 0 0 0.0588235 0 0 0 0 0.0588235 0 0 0 0 0.0588235 0 0 0 0.1 0"/>
<feBlend mode="normal" in2="BackgroundImageFix" result="effect1_dropShadow"/>
<feBlend mode="normal" in="SourceGraphic" in2="effect1_dropShadow" result="shape"/>
</filter>
</defs>
</svg>
