<svg width="214" height="237" viewBox="0 0 214 237" fill="none" xmlns="http://www.w3.org/2000/svg">
<g filter="url(#filter0_d)">
<rect x="2" y="19.5762" width="210" height="213.559" rx="20" fill="#01AD5A"/>
</g>
<path d="M33.1445 10C33.1445 4.47715 37.6217 0 43.1445 0H170.856C176.379 0 180.856 4.47715 180.856 10V19.5763H33.1445V10Z" fill="#F12587"/>
<path d="M92.044 14.9473C91.12 14.9473 90.3127 14.7373 89.622 14.3173C88.9313 13.8973 88.3947 13.314 88.012 12.5673C87.6293 11.8113 87.438 10.934 87.438 9.9353C87.438 8.9273 87.634 8.04063 88.026 7.2753C88.4273 6.50063 88.992 5.89863 89.72 5.4693C90.4573 5.03063 91.33 4.8113 92.338 4.8113C93.486 4.8113 94.438 5.08663 95.194 5.6373C95.95 6.18796 96.44 6.94863 96.664 7.9193H94.662C94.5127 7.46196 94.242 7.1073 93.85 6.8553C93.458 6.59396 92.954 6.4633 92.338 6.4633C91.358 6.4633 90.602 6.77596 90.07 7.4013C89.538 8.0173 89.272 8.86663 89.272 9.9493C89.272 11.032 89.5333 11.872 90.056 12.4693C90.588 13.0573 91.3067 13.3513 92.212 13.3513C93.0987 13.3513 93.766 13.1133 94.214 12.6373C94.6713 12.152 94.9467 11.5173 95.04 10.7333H92.562V9.3893H96.846V14.7793H95.194L95.054 13.4913C94.7367 13.958 94.34 14.3173 93.864 14.5693C93.388 14.8213 92.7813 14.9473 92.044 14.9473ZM100.94 14.9473C100.343 14.9473 99.8528 14.854 99.4701 14.6673C99.0875 14.4713 98.8028 14.2146 98.6161 13.8973C98.4295 13.58 98.3361 13.23 98.3361 12.8473C98.3361 12.2033 98.5881 11.6806 99.0921 11.2793C99.5961 10.878 100.352 10.6773 101.36 10.6773H103.124V10.5093C103.124 10.0333 102.989 9.6833 102.718 9.4593C102.447 9.2353 102.111 9.1233 101.71 9.1233C101.346 9.1233 101.029 9.21196 100.758 9.3893C100.487 9.5573 100.319 9.8093 100.254 10.1453H98.5041C98.5508 9.6413 98.7188 9.20263 99.0081 8.8293C99.3068 8.45596 99.6895 8.1713 100.156 7.9753C100.623 7.76996 101.145 7.6673 101.724 7.6673C102.713 7.6673 103.493 7.91463 104.062 8.4093C104.631 8.90396 104.916 9.60396 104.916 10.5093V14.7793H103.39L103.222 13.6593C103.017 14.0326 102.727 14.3406 102.354 14.5833C101.99 14.826 101.519 14.9473 100.94 14.9473ZM101.346 13.5473C101.859 13.5473 102.256 13.3793 102.536 13.0433C102.825 12.7073 103.007 12.292 103.082 11.7973H101.556C101.08 11.7973 100.739 11.886 100.534 12.0633C100.329 12.2313 100.226 12.4413 100.226 12.6933C100.226 12.964 100.329 13.174 100.534 13.3233C100.739 13.4726 101.01 13.5473 101.346 13.5473ZM106.626 14.7793V7.8353H108.208L108.362 8.7733C108.586 8.4373 108.88 8.1713 109.244 7.9753C109.618 7.76996 110.047 7.6673 110.532 7.6673C111.606 7.6673 112.366 8.08263 112.814 8.9133C113.066 8.53063 113.402 8.2273 113.822 8.0033C114.252 7.7793 114.718 7.6673 115.222 7.6673C116.128 7.6673 116.823 7.93796 117.308 8.4793C117.794 9.02063 118.036 9.81396 118.036 10.8593V14.7793H116.244V11.0273C116.244 10.43 116.128 9.97263 115.894 9.6553C115.67 9.33796 115.32 9.1793 114.844 9.1793C114.359 9.1793 113.967 9.35663 113.668 9.7113C113.379 10.066 113.234 10.5606 113.234 11.1953V14.7793H111.442V11.0273C111.442 10.43 111.326 9.97263 111.092 9.6553C110.859 9.33796 110.5 9.1793 110.014 9.1793C109.538 9.1793 109.151 9.35663 108.852 9.7113C108.563 10.066 108.418 10.5606 108.418 11.1953V14.7793H106.626ZM123.112 14.9473C122.412 14.9473 121.791 14.798 121.25 14.4993C120.708 14.2006 120.284 13.7806 119.976 13.2393C119.668 12.698 119.514 12.0726 119.514 11.3633C119.514 10.6446 119.663 10.0053 119.962 9.4453C120.27 8.8853 120.69 8.4513 121.222 8.1433C121.763 7.82596 122.398 7.6673 123.126 7.6673C123.807 7.6673 124.409 7.81663 124.932 8.1153C125.454 8.41396 125.86 8.82463 126.15 9.3473C126.448 9.86063 126.598 10.4346 126.598 11.0693C126.598 11.172 126.593 11.2793 126.584 11.3913C126.584 11.5033 126.579 11.62 126.57 11.7413H121.292C121.329 12.2826 121.516 12.7073 121.852 13.0153C122.197 13.3233 122.612 13.4773 123.098 13.4773C123.462 13.4773 123.765 13.398 124.008 13.2393C124.26 13.0713 124.446 12.8566 124.568 12.5953H126.388C126.257 13.034 126.038 13.4353 125.73 13.7993C125.431 14.154 125.058 14.434 124.61 14.6393C124.171 14.8446 123.672 14.9473 123.112 14.9473ZM123.126 9.1233C122.687 9.1233 122.3 9.2493 121.964 9.5013C121.628 9.74396 121.413 10.1173 121.32 10.6213H124.778C124.75 10.164 124.582 9.79996 124.274 9.5293C123.966 9.25863 123.583 9.1233 123.126 9.1233Z" fill="white"/>
<path d="M32.0919 98.8145L35.9619 88.3145H37.2969L41.1519 98.8145H39.8169L38.8569 96.1145H34.3869L33.4119 98.8145H32.0919ZM34.7619 95.0945H38.4819L36.6219 89.9045L34.7619 95.0945ZM47.0125 98.8145V92.4395H45.8875V91.3745H47.0125V90.0845C47.0125 89.3645 47.1925 88.8395 47.5525 88.5095C47.9125 88.1795 48.4375 88.0145 49.1275 88.0145H49.8775V89.0945H49.3225C48.9425 89.0945 48.6725 89.1745 48.5125 89.3345C48.3525 89.4845 48.2725 89.7445 48.2725 90.1145V91.3745H50.1025V92.4395H48.2725V98.8145H47.0125ZM54.3177 98.9945C53.4377 98.9945 52.7377 98.7295 52.2177 98.1995C51.6977 97.6595 51.4377 96.8345 51.4377 95.7245V91.3745H52.6977V95.5895C52.6977 97.1395 53.3327 97.9145 54.6027 97.9145C55.2527 97.9145 55.7877 97.6845 56.2077 97.2245C56.6377 96.7545 56.8527 96.0895 56.8527 95.2295V91.3745H58.1127V98.8145H56.9727L56.8827 97.4795C56.6527 97.9495 56.3077 98.3195 55.8477 98.5895C55.3977 98.8595 54.8877 98.9945 54.3177 98.9945ZM60.1866 98.8145V91.3745H61.3266L61.4016 92.7095C61.6416 92.2395 61.9866 91.8695 62.4366 91.5995C62.8866 91.3295 63.3966 91.1945 63.9666 91.1945C64.8466 91.1945 65.5466 91.4645 66.0666 92.0045C66.5966 92.5345 66.8616 93.3545 66.8616 94.4645V98.8145H65.6016V94.5995C65.6016 93.0495 64.9616 92.2745 63.6816 92.2745C63.0416 92.2745 62.5066 92.5095 62.0766 92.9795C61.6566 93.4395 61.4466 94.0995 61.4466 94.9595V98.8145H60.1866ZM67.7656 100.599L68.6356 97.2845H69.9406L68.6356 100.599H67.7656ZM78.3464 98.8145C77.6664 98.8145 77.1314 98.6495 76.7414 98.3195C76.3514 97.9895 76.1564 97.3945 76.1564 96.5345V92.4395H74.8664V91.3745H76.1564L76.3214 89.5895H77.4164V91.3745H79.6064V92.4395H77.4164V96.5345C77.4164 97.0045 77.5114 97.3245 77.7014 97.4945C77.8914 97.6545 78.2264 97.7345 78.7064 97.7345H79.4864V98.8145H78.3464ZM81.2071 98.8145V88.0145H82.4671V92.6495C82.7171 92.1895 83.0721 91.8345 83.5321 91.5845C83.9921 91.3245 84.4921 91.1945 85.0321 91.1945C85.8921 91.1945 86.5821 91.4645 87.1021 92.0045C87.6221 92.5345 87.8821 93.3545 87.8821 94.4645V98.8145H86.6372V94.5995C86.6372 93.0495 86.0122 92.2745 84.7622 92.2745C84.1121 92.2745 83.5671 92.5095 83.1271 92.9795C82.6871 93.4395 82.4671 94.0995 82.4671 94.9595V98.8145H81.2071ZM93.1361 98.9945C92.4261 98.9945 91.7961 98.8345 91.2461 98.5145C90.6961 98.1845 90.2611 97.7295 89.9411 97.1495C89.6311 96.5695 89.4761 95.8845 89.4761 95.0945C89.4761 94.3145 89.6311 93.6345 89.9411 93.0545C90.2511 92.4645 90.6811 92.0095 91.2311 91.6895C91.7911 91.3595 92.4361 91.1945 93.1661 91.1945C93.8861 91.1945 94.5061 91.3595 95.0261 91.6895C95.5561 92.0095 95.9611 92.4345 96.2411 92.9645C96.5211 93.4945 96.6611 94.0645 96.6611 94.6745C96.6611 94.7845 96.6561 94.8945 96.6461 95.0045C96.6461 95.1145 96.6461 95.2395 96.6461 95.3795H90.7211C90.7511 95.9495 90.8811 96.4245 91.1111 96.8045C91.3511 97.1745 91.6461 97.4545 91.9961 97.6445C92.3561 97.8345 92.7361 97.9295 93.1361 97.9295C93.6561 97.9295 94.0911 97.8095 94.4411 97.5695C94.7911 97.3295 95.0461 97.0045 95.2061 96.5945H96.4511C96.2511 97.2845 95.8661 97.8595 95.2961 98.3195C94.7361 98.7695 94.0161 98.9945 93.1361 98.9945ZM93.1361 92.2595C92.5361 92.2595 92.0011 92.4445 91.5311 92.8145C91.0711 93.1745 90.8061 93.7045 90.7361 94.4045H95.4161C95.3861 93.7345 95.1561 93.2095 94.7261 92.8295C94.2961 92.4495 93.7661 92.2595 93.1361 92.2595ZM100.806 98.9945C100.186 98.9945 99.6712 98.8895 99.2612 98.6795C98.8512 98.4695 98.5462 98.1895 98.3462 97.8395C98.1462 97.4895 98.0462 97.1095 98.0462 96.6995C98.0462 95.9395 98.3362 95.3545 98.9162 94.9445C99.4962 94.5345 100.286 94.3295 101.286 94.3295H103.296V94.2395C103.296 93.5895 103.126 93.0995 102.786 92.7695C102.446 92.4295 101.991 92.2595 101.421 92.2595C100.931 92.2595 100.506 92.3845 100.146 92.6345C99.7962 92.8745 99.5762 93.2295 99.4862 93.6995H98.1962C98.2462 93.1595 98.4262 92.7045 98.7362 92.3345C99.0562 91.9645 99.4512 91.6845 99.9212 91.4945C100.391 91.2945 100.891 91.1945 101.421 91.1945C102.461 91.1945 103.241 91.4745 103.761 92.0345C104.291 92.5845 104.556 93.3195 104.556 94.2395V98.8145H103.431L103.356 97.4795C103.146 97.8995 102.836 98.2595 102.426 98.5595C102.026 98.8495 101.486 98.9945 100.806 98.9945ZM101.001 97.9295C101.481 97.9295 101.891 97.8045 102.231 97.5545C102.581 97.3045 102.846 96.9795 103.026 96.5795C103.206 96.1795 103.296 95.7595 103.296 95.3195V95.3045H101.391C100.651 95.3045 100.126 95.4345 99.8162 95.6945C99.5162 95.9445 99.3662 96.2595 99.3662 96.6395C99.3662 97.0295 99.5062 97.3445 99.7862 97.5845C100.076 97.8145 100.481 97.9295 101.001 97.9295ZM109.181 98.8145C108.501 98.8145 107.966 98.6495 107.576 98.3195C107.186 97.9895 106.991 97.3945 106.991 96.5345V92.4395H105.701V91.3745H106.991L107.156 89.5895H108.251V91.3745H110.441V92.4395H108.251V96.5345C108.251 97.0045 108.346 97.3245 108.536 97.4945C108.726 97.6545 109.061 97.7345 109.541 97.7345H110.321V98.8145H109.181ZM112.042 98.8145V91.3745H113.182L113.287 92.7995C113.517 92.3095 113.867 91.9195 114.337 91.6295C114.807 91.3395 115.387 91.1945 116.077 91.1945V92.5145H115.732C115.292 92.5145 114.887 92.5945 114.517 92.7545C114.147 92.9045 113.852 93.1645 113.632 93.5345C113.412 93.9045 113.302 94.4145 113.302 95.0645V98.8145H112.042ZM118.256 89.7245C118.006 89.7245 117.796 89.6445 117.626 89.4845C117.466 89.3145 117.386 89.1045 117.386 88.8545C117.386 88.6145 117.466 88.4145 117.626 88.2545C117.796 88.0945 118.006 88.0145 118.256 88.0145C118.496 88.0145 118.701 88.0945 118.871 88.2545C119.041 88.4145 119.126 88.6145 119.126 88.8545C119.126 89.1045 119.041 89.3145 118.871 89.4845C118.701 89.6445 118.496 89.7245 118.256 89.7245ZM117.626 98.8145V91.3745H118.886V98.8145H117.626ZM124.5 98.9945C123.79 98.9945 123.15 98.8345 122.58 98.5145C122.02 98.1845 121.575 97.7295 121.245 97.1495C120.925 96.5595 120.765 95.8745 120.765 95.0945C120.765 94.3145 120.925 93.6345 121.245 93.0545C121.575 92.4645 122.02 92.0095 122.58 91.6895C123.15 91.3595 123.79 91.1945 124.5 91.1945C125.38 91.1945 126.12 91.4245 126.72 91.8845C127.33 92.3445 127.715 92.9595 127.875 93.7295H126.585C126.485 93.2695 126.24 92.9145 125.85 92.6645C125.46 92.4045 125.005 92.2745 124.485 92.2745C124.065 92.2745 123.67 92.3795 123.3 92.5895C122.93 92.7995 122.63 93.1145 122.4 93.5345C122.17 93.9545 122.055 94.4745 122.055 95.0945C122.055 95.7145 122.17 96.2345 122.4 96.6545C122.63 97.0745 122.93 97.3945 123.3 97.6145C123.67 97.8245 124.065 97.9295 124.485 97.9295C125.005 97.9295 125.46 97.8045 125.85 97.5545C126.24 97.2945 126.485 96.9295 126.585 96.4595H127.875C127.725 97.2095 127.345 97.8195 126.735 98.2895C126.125 98.7595 125.38 98.9945 124.5 98.9945ZM132.11 98.9945C131.49 98.9945 130.975 98.8895 130.565 98.6795C130.155 98.4695 129.85 98.1895 129.65 97.8395C129.45 97.4895 129.35 97.1095 129.35 96.6995C129.35 95.9395 129.64 95.3545 130.22 94.9445C130.8 94.5345 131.59 94.3295 132.59 94.3295H134.6V94.2395C134.6 93.5895 134.43 93.0995 134.09 92.7695C133.75 92.4295 133.295 92.2595 132.725 92.2595C132.235 92.2595 131.81 92.3845 131.45 92.6345C131.1 92.8745 130.88 93.2295 130.79 93.6995H129.5C129.55 93.1595 129.73 92.7045 130.04 92.3345C130.36 91.9645 130.755 91.6845 131.225 91.4945C131.695 91.2945 132.195 91.1945 132.725 91.1945C133.765 91.1945 134.545 91.4745 135.065 92.0345C135.595 92.5845 135.86 93.3195 135.86 94.2395V98.8145H134.735L134.66 97.4795C134.45 97.8995 134.14 98.2595 133.73 98.5595C133.33 98.8495 132.79 98.9945 132.11 98.9945ZM132.305 97.9295C132.785 97.9295 133.195 97.8045 133.535 97.5545C133.885 97.3045 134.15 96.9795 134.33 96.5795C134.51 96.1795 134.6 95.7595 134.6 95.3195V95.3045H132.695C131.955 95.3045 131.43 95.4345 131.12 95.6945C130.82 95.9445 130.67 96.2595 130.67 96.6395C130.67 97.0295 130.81 97.3445 131.09 97.5845C131.38 97.8145 131.785 97.9295 132.305 97.9295ZM137.75 98.8145V88.0145H139.01V98.8145H137.75ZM147.985 96.4745C147.565 96.4745 147.18 96.4195 146.83 96.3095L146.08 97.0145C146.19 97.0945 146.325 97.1645 146.485 97.2245C146.655 97.2745 146.895 97.3245 147.205 97.3745C147.515 97.4145 147.95 97.4595 148.51 97.5095C149.51 97.5795 150.225 97.8095 150.655 98.1995C151.085 98.5895 151.3 99.0995 151.3 99.7295C151.3 100.159 151.18 100.569 150.94 100.959C150.71 101.349 150.35 101.669 149.86 101.919C149.38 102.169 148.76 102.294 148 102.294C147.33 102.294 146.735 102.204 146.215 102.024C145.695 101.854 145.29 101.589 145 101.229C144.71 100.879 144.565 100.434 144.565 99.8945C144.565 99.6145 144.64 99.3095 144.79 98.9795C144.94 98.6595 145.22 98.3545 145.63 98.0645C145.41 97.9745 145.22 97.8795 145.06 97.7795C144.91 97.6695 144.77 97.5495 144.64 97.4195V97.0745L145.915 95.8145C145.325 95.3145 145.03 94.6545 145.03 93.8345C145.03 93.3445 145.145 92.8995 145.375 92.4995C145.605 92.0995 145.94 91.7845 146.38 91.5545C146.82 91.3145 147.355 91.1945 147.985 91.1945C148.415 91.1945 148.805 91.2545 149.155 91.3745H151.9V92.3195L150.505 92.3795C150.795 92.7995 150.94 93.2845 150.94 93.8345C150.94 94.3245 150.82 94.7695 150.58 95.1695C150.35 95.5695 150.015 95.8895 149.575 96.1295C149.145 96.3595 148.615 96.4745 147.985 96.4745ZM147.985 95.4395C148.515 95.4395 148.935 95.3045 149.245 95.0345C149.565 94.7545 149.725 94.3545 149.725 93.8345C149.725 93.3245 149.565 92.9345 149.245 92.6645C148.935 92.3845 148.515 92.2445 147.985 92.2445C147.445 92.2445 147.015 92.3845 146.695 92.6645C146.385 92.9345 146.23 93.3245 146.23 93.8345C146.23 94.3545 146.385 94.7545 146.695 95.0345C147.015 95.3045 147.445 95.4395 147.985 95.4395ZM145.795 99.7745C145.795 100.274 146.005 100.644 146.425 100.884C146.845 101.134 147.37 101.259 148 101.259C148.62 101.259 149.115 101.124 149.485 100.854C149.865 100.584 150.055 100.224 150.055 99.7745C150.055 99.4545 149.925 99.1745 149.665 98.9345C149.405 98.7045 148.925 98.5695 148.225 98.5295C147.675 98.4895 147.2 98.4395 146.8 98.3795C146.39 98.5995 146.12 98.8345 145.99 99.0845C145.86 99.3445 145.795 99.5745 145.795 99.7745ZM155.796 98.9945C155.176 98.9945 154.661 98.8895 154.251 98.6795C153.841 98.4695 153.536 98.1895 153.336 97.8395C153.136 97.4895 153.036 97.1095 153.036 96.6995C153.036 95.9395 153.326 95.3545 153.906 94.9445C154.486 94.5345 155.276 94.3295 156.276 94.3295H158.286V94.2395C158.286 93.5895 158.116 93.0995 157.776 92.7695C157.436 92.4295 156.981 92.2595 156.411 92.2595C155.921 92.2595 155.496 92.3845 155.136 92.6345C154.786 92.8745 154.566 93.2295 154.476 93.6995H153.186C153.236 93.1595 153.416 92.7045 153.726 92.3345C154.046 91.9645 154.441 91.6845 154.911 91.4945C155.381 91.2945 155.881 91.1945 156.411 91.1945C157.451 91.1945 158.231 91.4745 158.751 92.0345C159.281 92.5845 159.546 93.3195 159.546 94.2395V98.8145H158.421L158.346 97.4795C158.136 97.8995 157.826 98.2595 157.416 98.5595C157.016 98.8495 156.476 98.9945 155.796 98.9945ZM155.991 97.9295C156.471 97.9295 156.881 97.8045 157.221 97.5545C157.571 97.3045 157.836 96.9795 158.016 96.5795C158.196 96.1795 158.286 95.7595 158.286 95.3195V95.3045H156.381C155.641 95.3045 155.116 95.4345 154.806 95.6945C154.506 95.9445 154.356 96.2595 154.356 96.6395C154.356 97.0295 154.496 97.3445 154.776 97.5845C155.066 97.8145 155.471 97.9295 155.991 97.9295ZM161.437 98.8145V91.3745H162.577L162.667 92.4545C162.907 92.0545 163.227 91.7445 163.627 91.5245C164.027 91.3045 164.477 91.1945 164.977 91.1945C165.567 91.1945 166.072 91.3145 166.492 91.5545C166.922 91.7945 167.252 92.1595 167.482 92.6495C167.742 92.1995 168.097 91.8445 168.547 91.5845C169.007 91.3245 169.502 91.1945 170.032 91.1945C170.922 91.1945 171.632 91.4645 172.162 92.0045C172.692 92.5345 172.957 93.3545 172.957 94.4645V98.8145H171.712V94.5995C171.712 93.8295 171.557 93.2495 171.247 92.8595C170.937 92.4695 170.492 92.2745 169.912 92.2745C169.312 92.2745 168.812 92.5095 168.412 92.9795C168.022 93.4395 167.827 94.0995 167.827 94.9595V98.8145H166.567V94.5995C166.567 93.8295 166.412 93.2495 166.102 92.8595C165.792 92.4695 165.347 92.2745 164.767 92.2745C164.177 92.2745 163.682 92.5095 163.282 92.9795C162.892 93.4395 162.697 94.0995 162.697 94.9595V98.8145H161.437ZM178.2 98.9945C177.49 98.9945 176.86 98.8345 176.31 98.5145C175.76 98.1845 175.325 97.7295 175.005 97.1495C174.695 96.5695 174.54 95.8845 174.54 95.0945C174.54 94.3145 174.695 93.6345 175.005 93.0545C175.315 92.4645 175.745 92.0095 176.295 91.6895C176.855 91.3595 177.5 91.1945 178.23 91.1945C178.95 91.1945 179.57 91.3595 180.09 91.6895C180.62 92.0095 181.025 92.4345 181.305 92.9645C181.585 93.4945 181.725 94.0645 181.725 94.6745C181.725 94.7845 181.72 94.8945 181.71 95.0045C181.71 95.1145 181.71 95.2395 181.71 95.3795H175.785C175.815 95.9495 175.945 96.4245 176.175 96.8045C176.415 97.1745 176.71 97.4545 177.06 97.6445C177.42 97.8345 177.8 97.9295 178.2 97.9295C178.72 97.9295 179.155 97.8095 179.505 97.5695C179.855 97.3295 180.11 97.0045 180.27 96.5945H181.515C181.315 97.2845 180.93 97.8595 180.36 98.3195C179.8 98.7695 179.08 98.9945 178.2 98.9945ZM178.2 92.2595C177.6 92.2595 177.065 92.4445 176.595 92.8145C176.135 93.1745 175.87 93.7045 175.8 94.4045H180.48C180.45 93.7345 180.22 93.2095 179.79 92.8295C179.36 92.4495 178.83 92.2595 178.2 92.2595ZM31.3691 109.724C31.1191 109.724 30.9091 109.644 30.7391 109.484C30.5791 109.314 30.4991 109.104 30.4991 108.854C30.4991 108.614 30.5791 108.414 30.7391 108.254C30.9091 108.094 31.1191 108.014 31.3691 108.014C31.6091 108.014 31.8141 108.094 31.9841 108.254C32.1541 108.414 32.2391 108.614 32.2391 108.854C32.2391 109.104 32.1541 109.314 31.9841 109.484C31.8141 109.644 31.6091 109.724 31.3691 109.724ZM30.7391 118.814V111.374H31.9991V118.814H30.7391ZM34.193 118.814V111.374H35.333L35.408 112.709C35.648 112.239 35.993 111.869 36.443 111.599C36.893 111.329 37.403 111.194 37.973 111.194C38.853 111.194 39.553 111.464 40.073 112.004C40.603 112.534 40.868 113.354 40.868 114.464V118.814H39.608V114.599C39.608 113.049 38.968 112.274 37.688 112.274C37.048 112.274 36.513 112.509 36.083 112.979C35.663 113.439 35.453 114.099 35.453 114.959V118.814H34.193ZM48.2467 118.814L46.0717 111.374H47.3317L48.9067 117.209L50.6467 111.374H52.0717L53.8267 117.209L55.3867 111.374H56.6617L54.4867 118.814H53.1967L51.3667 112.679L49.5367 118.814H48.2467ZM58.0553 118.814V108.014H59.3153V112.649C59.5653 112.189 59.9203 111.834 60.3803 111.584C60.8403 111.324 61.3403 111.194 61.8803 111.194C62.7403 111.194 63.4303 111.464 63.9503 112.004C64.4703 112.534 64.7303 113.354 64.7303 114.464V118.814H63.4853V114.599C63.4853 113.049 62.8603 112.274 61.6103 112.274C60.9603 112.274 60.4153 112.509 59.9753 112.979C59.5353 113.439 59.3153 114.099 59.3153 114.959V118.814H58.0553ZM67.4043 109.724C67.1543 109.724 66.9443 109.644 66.7743 109.484C66.6143 109.314 66.5343 109.104 66.5343 108.854C66.5343 108.614 66.6143 108.414 66.7743 108.254C66.9443 108.094 67.1543 108.014 67.4043 108.014C67.6443 108.014 67.8493 108.094 68.0193 108.254C68.1893 108.414 68.2743 108.614 68.2743 108.854C68.2743 109.104 68.1893 109.314 68.0193 109.484C67.8493 109.644 67.6443 109.724 67.4043 109.724ZM66.7743 118.814V111.374H68.0343V118.814H66.7743ZM73.6481 118.994C72.9381 118.994 72.2981 118.834 71.7281 118.514C71.1681 118.184 70.7231 117.729 70.3931 117.149C70.0731 116.559 69.9131 115.874 69.9131 115.094C69.9131 114.314 70.0731 113.634 70.3931 113.054C70.7231 112.464 71.1681 112.009 71.7281 111.689C72.2981 111.359 72.9381 111.194 73.6481 111.194C74.5281 111.194 75.2681 111.424 75.8681 111.884C76.4781 112.344 76.8631 112.959 77.0231 113.729H75.7331C75.6331 113.269 75.3881 112.914 74.9981 112.664C74.6081 112.404 74.1531 112.274 73.6331 112.274C73.2131 112.274 72.8181 112.379 72.4481 112.589C72.0781 112.799 71.7781 113.114 71.5481 113.534C71.3181 113.954 71.2031 114.474 71.2031 115.094C71.2031 115.714 71.3181 116.234 71.5481 116.654C71.7781 117.074 72.0781 117.394 72.4481 117.614C72.8181 117.824 73.2131 117.929 73.6331 117.929C74.1531 117.929 74.6081 117.804 74.9981 117.554C75.3881 117.294 75.6331 116.929 75.7331 116.459H77.0231C76.8731 117.209 76.4931 117.819 75.8831 118.289C75.2731 118.759 74.5281 118.994 73.6481 118.994ZM78.7828 118.814V108.014H80.0428V112.649C80.2928 112.189 80.6478 111.834 81.1078 111.584C81.5678 111.324 82.0678 111.194 82.6078 111.194C83.4678 111.194 84.1578 111.464 84.6778 112.004C85.1978 112.534 85.4578 113.354 85.4578 114.464V118.814H84.2128V114.599C84.2128 113.049 83.5878 112.274 82.3378 112.274C81.6878 112.274 81.1428 112.509 80.7028 112.979C80.2628 113.439 80.0428 114.099 80.0428 114.959V118.814H78.7828ZM91.3365 122.114V111.374H92.4765L92.5965 112.604C92.8365 112.244 93.1765 111.919 93.6165 111.629C94.0665 111.339 94.6365 111.194 95.3265 111.194C96.0665 111.194 96.7115 111.364 97.2615 111.704C97.8115 112.044 98.2365 112.509 98.5365 113.099C98.8465 113.689 99.0015 114.359 99.0015 115.109C99.0015 115.859 98.8465 116.529 98.5365 117.119C98.2365 117.699 97.8065 118.159 97.2465 118.499C96.6965 118.829 96.0515 118.994 95.3115 118.994C94.7015 118.994 94.1565 118.869 93.6765 118.619C93.2065 118.369 92.8465 118.019 92.5965 117.569V122.114H91.3365ZM95.1765 117.899C95.6765 117.899 96.1165 117.784 96.4965 117.554C96.8765 117.314 97.1765 116.984 97.3965 116.564C97.6165 116.144 97.7265 115.654 97.7265 115.094C97.7265 114.534 97.6165 114.044 97.3965 113.624C97.1765 113.204 96.8765 112.879 96.4965 112.649C96.1165 112.409 95.6765 112.289 95.1765 112.289C94.6765 112.289 94.2365 112.409 93.8565 112.649C93.4765 112.879 93.1765 113.204 92.9565 113.624C92.7365 114.044 92.6265 114.534 92.6265 115.094C92.6265 115.654 92.7365 116.144 92.9565 116.564C93.1765 116.984 93.4765 117.314 93.8565 117.554C94.2365 117.784 94.6765 117.899 95.1765 117.899ZM100.755 118.814V108.014H102.015V118.814H100.755ZM106.556 118.994C105.936 118.994 105.421 118.889 105.011 118.679C104.601 118.469 104.296 118.189 104.096 117.839C103.896 117.489 103.796 117.109 103.796 116.699C103.796 115.939 104.086 115.354 104.666 114.944C105.246 114.534 106.036 114.329 107.036 114.329H109.046V114.239C109.046 113.589 108.876 113.099 108.536 112.769C108.196 112.429 107.741 112.259 107.171 112.259C106.681 112.259 106.256 112.384 105.896 112.634C105.546 112.874 105.326 113.229 105.236 113.699H103.946C103.996 113.159 104.176 112.704 104.486 112.334C104.806 111.964 105.201 111.684 105.671 111.494C106.141 111.294 106.641 111.194 107.171 111.194C108.211 111.194 108.991 111.474 109.511 112.034C110.041 112.584 110.306 113.319 110.306 114.239V118.814H109.181L109.106 117.479C108.896 117.899 108.586 118.259 108.176 118.559C107.776 118.849 107.236 118.994 106.556 118.994ZM106.751 117.929C107.231 117.929 107.641 117.804 107.981 117.554C108.331 117.304 108.596 116.979 108.776 116.579C108.956 116.179 109.046 115.759 109.046 115.319V115.304H107.141C106.401 115.304 105.876 115.434 105.566 115.694C105.266 115.944 105.116 116.259 105.116 116.639C105.116 117.029 105.256 117.344 105.536 117.584C105.826 117.814 106.231 117.929 106.751 117.929ZM112.786 122.114L114.631 118.094H114.196L111.241 111.374H112.606L115.066 117.164L117.676 111.374H118.981L114.106 122.114H112.786ZM122.953 118.994C122.243 118.994 121.613 118.834 121.063 118.514C120.513 118.184 120.078 117.729 119.758 117.149C119.448 116.569 119.293 115.884 119.293 115.094C119.293 114.314 119.448 113.634 119.758 113.054C120.068 112.464 120.498 112.009 121.048 111.689C121.608 111.359 122.253 111.194 122.983 111.194C123.703 111.194 124.323 111.359 124.843 111.689C125.373 112.009 125.778 112.434 126.058 112.964C126.338 113.494 126.478 114.064 126.478 114.674C126.478 114.784 126.473 114.894 126.463 115.004C126.463 115.114 126.463 115.239 126.463 115.379H120.538C120.568 115.949 120.698 116.424 120.928 116.804C121.168 117.174 121.463 117.454 121.813 117.644C122.173 117.834 122.553 117.929 122.953 117.929C123.473 117.929 123.908 117.809 124.258 117.569C124.608 117.329 124.863 117.004 125.023 116.594H126.268C126.068 117.284 125.683 117.859 125.113 118.319C124.553 118.769 123.833 118.994 122.953 118.994ZM122.953 112.259C122.353 112.259 121.818 112.444 121.348 112.814C120.888 113.174 120.623 113.704 120.553 114.404H125.233C125.203 113.734 124.973 113.209 124.543 112.829C124.113 112.449 123.583 112.259 122.953 112.259ZM128.148 118.814V111.374H129.288L129.393 112.799C129.623 112.309 129.973 111.919 130.443 111.629C130.913 111.339 131.493 111.194 132.183 111.194V112.514H131.838C131.398 112.514 130.993 112.594 130.623 112.754C130.253 112.904 129.958 113.164 129.738 113.534C129.518 113.904 129.408 114.414 129.408 115.064V118.814H128.148ZM136.447 118.994C135.557 118.994 134.817 118.769 134.227 118.319C133.637 117.869 133.292 117.259 133.192 116.489H134.482C134.562 116.879 134.767 117.219 135.097 117.509C135.437 117.789 135.892 117.929 136.462 117.929C136.992 117.929 137.382 117.819 137.632 117.599C137.882 117.369 138.007 117.099 138.007 116.789C138.007 116.339 137.842 116.039 137.512 115.889C137.192 115.739 136.737 115.604 136.147 115.484C135.747 115.404 135.347 115.289 134.947 115.139C134.547 114.989 134.212 114.779 133.942 114.509C133.672 114.229 133.537 113.864 133.537 113.414C133.537 112.764 133.777 112.234 134.257 111.824C134.747 111.404 135.407 111.194 136.237 111.194C137.027 111.194 137.672 111.394 138.172 111.794C138.682 112.184 138.977 112.744 139.057 113.474H137.812C137.762 113.094 137.597 112.799 137.317 112.589C137.047 112.369 136.682 112.259 136.222 112.259C135.772 112.259 135.422 112.354 135.172 112.544C134.932 112.734 134.812 112.984 134.812 113.294C134.812 113.594 134.967 113.829 135.277 113.999C135.597 114.169 136.027 114.314 136.567 114.434C137.027 114.534 137.462 114.659 137.872 114.809C138.292 114.949 138.632 115.164 138.892 115.454C139.162 115.734 139.297 116.144 139.297 116.684C139.307 117.354 139.052 117.909 138.532 118.349C138.022 118.779 137.327 118.994 136.447 118.994ZM148.007 116.474C147.587 116.474 147.202 116.419 146.852 116.309L146.102 117.014C146.212 117.094 146.347 117.164 146.507 117.224C146.677 117.274 146.917 117.324 147.227 117.374C147.537 117.414 147.972 117.459 148.532 117.509C149.532 117.579 150.247 117.809 150.677 118.199C151.107 118.589 151.322 119.099 151.322 119.729C151.322 120.159 151.202 120.569 150.962 120.959C150.732 121.349 150.372 121.669 149.882 121.919C149.402 122.169 148.782 122.294 148.022 122.294C147.352 122.294 146.757 122.204 146.237 122.024C145.717 121.854 145.312 121.589 145.022 121.229C144.732 120.879 144.587 120.434 144.587 119.894C144.587 119.614 144.662 119.309 144.812 118.979C144.962 118.659 145.242 118.354 145.652 118.064C145.432 117.974 145.242 117.879 145.082 117.779C144.932 117.669 144.792 117.549 144.662 117.419V117.074L145.937 115.814C145.347 115.314 145.052 114.654 145.052 113.834C145.052 113.344 145.167 112.899 145.397 112.499C145.627 112.099 145.962 111.784 146.402 111.554C146.842 111.314 147.377 111.194 148.007 111.194C148.437 111.194 148.827 111.254 149.177 111.374H151.922V112.319L150.527 112.379C150.817 112.799 150.962 113.284 150.962 113.834C150.962 114.324 150.842 114.769 150.602 115.169C150.372 115.569 150.037 115.889 149.597 116.129C149.167 116.359 148.637 116.474 148.007 116.474ZM148.007 115.439C148.537 115.439 148.957 115.304 149.267 115.034C149.587 114.754 149.747 114.354 149.747 113.834C149.747 113.324 149.587 112.934 149.267 112.664C148.957 112.384 148.537 112.244 148.007 112.244C147.467 112.244 147.037 112.384 146.717 112.664C146.407 112.934 146.252 113.324 146.252 113.834C146.252 114.354 146.407 114.754 146.717 115.034C147.037 115.304 147.467 115.439 148.007 115.439ZM145.817 119.774C145.817 120.274 146.027 120.644 146.447 120.884C146.867 121.134 147.392 121.259 148.022 121.259C148.642 121.259 149.137 121.124 149.507 120.854C149.887 120.584 150.077 120.224 150.077 119.774C150.077 119.454 149.947 119.174 149.687 118.934C149.427 118.704 148.947 118.569 148.247 118.529C147.697 118.489 147.222 118.439 146.822 118.379C146.412 118.599 146.142 118.834 146.012 119.084C145.882 119.344 145.817 119.574 145.817 119.774ZM156.058 118.994C155.178 118.994 154.478 118.729 153.958 118.199C153.438 117.659 153.178 116.834 153.178 115.724V111.374H154.438V115.589C154.438 117.139 155.073 117.914 156.343 117.914C156.993 117.914 157.528 117.684 157.948 117.224C158.378 116.754 158.593 116.089 158.593 115.229V111.374H159.853V118.814H158.713L158.623 117.479C158.393 117.949 158.048 118.319 157.588 118.589C157.138 118.859 156.628 118.994 156.058 118.994ZM165.272 118.994C164.562 118.994 163.932 118.834 163.382 118.514C162.832 118.184 162.397 117.729 162.077 117.149C161.767 116.569 161.612 115.884 161.612 115.094C161.612 114.314 161.767 113.634 162.077 113.054C162.387 112.464 162.817 112.009 163.367 111.689C163.927 111.359 164.572 111.194 165.302 111.194C166.022 111.194 166.642 111.359 167.162 111.689C167.692 112.009 168.097 112.434 168.377 112.964C168.657 113.494 168.797 114.064 168.797 114.674C168.797 114.784 168.792 114.894 168.782 115.004C168.782 115.114 168.782 115.239 168.782 115.379H162.857C162.887 115.949 163.017 116.424 163.247 116.804C163.487 117.174 163.782 117.454 164.132 117.644C164.492 117.834 164.872 117.929 165.272 117.929C165.792 117.929 166.227 117.809 166.577 117.569C166.927 117.329 167.182 117.004 167.342 116.594H168.587C168.387 117.284 168.002 117.859 167.432 118.319C166.872 118.769 166.152 118.994 165.272 118.994ZM165.272 112.259C164.672 112.259 164.137 112.444 163.667 112.814C163.207 113.174 162.942 113.704 162.872 114.404H167.552C167.522 113.734 167.292 113.209 166.862 112.829C166.432 112.449 165.902 112.259 165.272 112.259ZM173.317 118.994C172.427 118.994 171.687 118.769 171.097 118.319C170.507 117.869 170.162 117.259 170.062 116.489H171.352C171.432 116.879 171.637 117.219 171.967 117.509C172.307 117.789 172.762 117.929 173.332 117.929C173.862 117.929 174.252 117.819 174.502 117.599C174.752 117.369 174.877 117.099 174.877 116.789C174.877 116.339 174.712 116.039 174.382 115.889C174.062 115.739 173.607 115.604 173.017 115.484C172.617 115.404 172.217 115.289 171.817 115.139C171.417 114.989 171.082 114.779 170.812 114.509C170.542 114.229 170.407 113.864 170.407 113.414C170.407 112.764 170.647 112.234 171.127 111.824C171.617 111.404 172.277 111.194 173.107 111.194C173.897 111.194 174.542 111.394 175.042 111.794C175.552 112.184 175.847 112.744 175.927 113.474H174.682C174.632 113.094 174.467 112.799 174.187 112.589C173.917 112.369 173.552 112.259 173.092 112.259C172.642 112.259 172.292 112.354 172.042 112.544C171.802 112.734 171.682 112.984 171.682 113.294C171.682 113.594 171.837 113.829 172.147 113.999C172.467 114.169 172.897 114.314 173.437 114.434C173.897 114.534 174.332 114.659 174.742 114.809C175.162 114.949 175.502 115.164 175.762 115.454C176.032 115.734 176.167 116.144 176.167 116.684C176.177 117.354 175.922 117.909 175.402 118.349C174.892 118.779 174.197 118.994 173.317 118.994ZM180.817 118.994C179.927 118.994 179.187 118.769 178.597 118.319C178.007 117.869 177.662 117.259 177.562 116.489H178.852C178.932 116.879 179.137 117.219 179.467 117.509C179.807 117.789 180.262 117.929 180.832 117.929C181.362 117.929 181.752 117.819 182.002 117.599C182.252 117.369 182.377 117.099 182.377 116.789C182.377 116.339 182.212 116.039 181.882 115.889C181.562 115.739 181.107 115.604 180.517 115.484C180.117 115.404 179.717 115.289 179.317 115.139C178.917 114.989 178.582 114.779 178.312 114.509C178.042 114.229 177.907 113.864 177.907 113.414C177.907 112.764 178.147 112.234 178.627 111.824C179.117 111.404 179.777 111.194 180.607 111.194C181.397 111.194 182.042 111.394 182.542 111.794C183.052 112.184 183.347 112.744 183.427 113.474H182.182C182.132 113.094 181.967 112.799 181.687 112.589C181.417 112.369 181.052 112.259 180.592 112.259C180.142 112.259 179.792 112.354 179.542 112.544C179.302 112.734 179.182 112.984 179.182 113.294C179.182 113.594 179.337 113.829 179.647 113.999C179.967 114.169 180.397 114.314 180.937 114.434C181.397 114.534 181.832 114.659 182.242 114.809C182.662 114.949 183.002 115.164 183.262 115.454C183.532 115.734 183.667 116.144 183.667 116.684C183.677 117.354 183.422 117.909 182.902 118.349C182.392 118.779 181.697 118.994 180.817 118.994ZM34.0679 138.994C33.4479 138.994 32.9329 138.889 32.5229 138.679C32.1129 138.469 31.8079 138.189 31.6079 137.839C31.4079 137.489 31.3079 137.109 31.3079 136.699C31.3079 135.939 31.5979 135.354 32.1779 134.944C32.7579 134.534 33.5479 134.329 34.5479 134.329H36.5579V134.239C36.5579 133.589 36.3879 133.099 36.0479 132.769C35.7079 132.429 35.2529 132.259 34.6829 132.259C34.1929 132.259 33.7679 132.384 33.4079 132.634C33.0579 132.874 32.8379 133.229 32.7479 133.699H31.4579C31.5079 133.159 31.6879 132.704 31.9979 132.334C32.3179 131.964 32.7129 131.684 33.1829 131.494C33.6529 131.294 34.1529 131.194 34.6829 131.194C35.7229 131.194 36.5029 131.474 37.0229 132.034C37.5529 132.584 37.8179 133.319 37.8179 134.239V138.814H36.6929L36.6179 137.479C36.4079 137.899 36.0979 138.259 35.6879 138.559C35.2879 138.849 34.7479 138.994 34.0679 138.994ZM34.2629 137.929C34.7429 137.929 35.1529 137.804 35.4929 137.554C35.8429 137.304 36.1079 136.979 36.2879 136.579C36.4679 136.179 36.5579 135.759 36.5579 135.319V135.304H34.6529C33.9129 135.304 33.3879 135.434 33.0779 135.694C32.7779 135.944 32.6279 136.259 32.6279 136.639C32.6279 137.029 32.7679 137.344 33.0479 137.584C33.3379 137.814 33.7429 137.929 34.2629 137.929ZM45.1779 138.814L43.0029 131.374H44.2629L45.8379 137.209L47.5779 131.374H49.0029L50.7579 137.209L52.3179 131.374H53.5929L51.4179 138.814H50.1279L48.2979 132.679L46.4679 138.814H45.1779ZM58.0981 138.994C57.3981 138.994 56.7681 138.834 56.2081 138.514C55.6481 138.194 55.2031 137.744 54.8731 137.164C54.5531 136.574 54.3931 135.884 54.3931 135.094C54.3931 134.304 54.5581 133.619 54.8881 133.039C55.2181 132.449 55.6631 131.994 56.2231 131.674C56.7931 131.354 57.4281 131.194 58.1281 131.194C58.8281 131.194 59.4581 131.354 60.0181 131.674C60.5781 131.994 61.0181 132.449 61.3381 133.039C61.6681 133.619 61.8331 134.304 61.8331 135.094C61.8331 135.884 61.6681 136.574 61.3381 137.164C61.0081 137.744 60.5581 138.194 59.9881 138.514C59.4281 138.834 58.7981 138.994 58.0981 138.994ZM58.0981 137.914C58.5281 137.914 58.9281 137.809 59.2981 137.599C59.6681 137.389 59.9681 137.074 60.1981 136.654C60.4281 136.234 60.5431 135.714 60.5431 135.094C60.5431 134.474 60.4281 133.954 60.1981 133.534C59.9781 133.114 59.6831 132.799 59.3131 132.589C58.9431 132.379 58.5481 132.274 58.1281 132.274C57.6981 132.274 57.2981 132.379 56.9281 132.589C56.5581 132.799 56.2581 133.114 56.0281 133.534C55.7981 133.954 55.6831 134.474 55.6831 135.094C55.6831 135.714 55.7981 136.234 56.0281 136.654C56.2581 137.074 56.5531 137.389 56.9131 137.599C57.2831 137.809 57.6781 137.914 58.0981 137.914ZM63.5851 138.814V131.374H64.7251L64.8301 132.799C65.0601 132.309 65.4101 131.919 65.8801 131.629C66.3501 131.339 66.9301 131.194 67.6201 131.194V132.514H67.2751C66.8351 132.514 66.4301 132.594 66.0601 132.754C65.6901 132.904 65.3951 133.164 65.1751 133.534C64.9551 133.904 64.8451 134.414 64.8451 135.064V138.814H63.5851ZM72.131 138.994C71.391 138.994 70.741 138.824 70.181 138.484C69.631 138.144 69.201 137.679 68.891 137.089C68.591 136.499 68.441 135.829 68.441 135.079C68.441 134.329 68.596 133.664 68.906 133.084C69.216 132.494 69.646 132.034 70.196 131.704C70.746 131.364 71.396 131.194 72.146 131.194C72.756 131.194 73.296 131.319 73.766 131.569C74.236 131.819 74.601 132.169 74.861 132.619V128.014H76.121V138.814H74.981L74.861 137.584C74.621 137.944 74.276 138.269 73.826 138.559C73.376 138.849 72.811 138.994 72.131 138.994ZM72.266 137.899C72.766 137.899 73.206 137.784 73.586 137.554C73.976 137.314 74.276 136.984 74.486 136.564C74.706 136.144 74.816 135.654 74.816 135.094C74.816 134.534 74.706 134.044 74.486 133.624C74.276 133.204 73.976 132.879 73.586 132.649C73.206 132.409 72.766 132.289 72.266 132.289C71.776 132.289 71.336 132.409 70.946 132.649C70.566 132.879 70.266 133.204 70.046 133.624C69.836 134.044 69.731 134.534 69.731 135.094C69.731 135.654 69.836 136.144 70.046 136.564C70.266 136.984 70.566 137.314 70.946 137.554C71.336 137.784 71.776 137.899 72.266 137.899ZM85.5346 138.994C84.8346 138.994 84.2046 138.834 83.6446 138.514C83.0846 138.194 82.6396 137.744 82.3096 137.164C81.9896 136.574 81.8296 135.884 81.8296 135.094C81.8296 134.304 81.9946 133.619 82.3246 133.039C82.6546 132.449 83.0996 131.994 83.6596 131.674C84.2296 131.354 84.8646 131.194 85.5646 131.194C86.2646 131.194 86.8946 131.354 87.4546 131.674C88.0147 131.994 88.4547 132.449 88.7747 133.039C89.1047 133.619 89.2697 134.304 89.2697 135.094C89.2697 135.884 89.1047 136.574 88.7747 137.164C88.4446 137.744 87.9946 138.194 87.4247 138.514C86.8646 138.834 86.2346 138.994 85.5346 138.994ZM85.5346 137.914C85.9647 137.914 86.3647 137.809 86.7347 137.599C87.1047 137.389 87.4047 137.074 87.6347 136.654C87.8647 136.234 87.9797 135.714 87.9797 135.094C87.9797 134.474 87.8647 133.954 87.6347 133.534C87.4146 133.114 87.1196 132.799 86.7496 132.589C86.3796 132.379 85.9846 132.274 85.5646 132.274C85.1346 132.274 84.7346 132.379 84.3646 132.589C83.9946 132.799 83.6946 133.114 83.4646 133.534C83.2346 133.954 83.1196 134.474 83.1196 135.094C83.1196 135.714 83.2346 136.234 83.4646 136.654C83.6946 137.074 83.9896 137.389 84.3496 137.599C84.7196 137.809 85.1146 137.914 85.5346 137.914ZM91.0216 138.814V131.374H92.1616L92.2666 132.799C92.4966 132.309 92.8466 131.919 93.3166 131.629C93.7866 131.339 94.3666 131.194 95.0566 131.194V132.514H94.7116C94.2716 132.514 93.8666 132.594 93.4966 132.754C93.1266 132.904 92.8316 133.164 92.6116 133.534C92.3916 133.904 92.2816 134.414 92.2816 135.064V138.814H91.0216ZM100.441 142.114V131.374H101.581L101.701 132.604C101.941 132.244 102.281 131.919 102.721 131.629C103.171 131.339 103.741 131.194 104.431 131.194C105.171 131.194 105.816 131.364 106.366 131.704C106.916 132.044 107.341 132.509 107.641 133.099C107.951 133.689 108.106 134.359 108.106 135.109C108.106 135.859 107.951 136.529 107.641 137.119C107.341 137.699 106.911 138.159 106.351 138.499C105.801 138.829 105.156 138.994 104.416 138.994C103.806 138.994 103.261 138.869 102.781 138.619C102.311 138.369 101.951 138.019 101.701 137.569V142.114H100.441ZM104.281 137.899C104.781 137.899 105.221 137.784 105.601 137.554C105.981 137.314 106.281 136.984 106.501 136.564C106.721 136.144 106.831 135.654 106.831 135.094C106.831 134.534 106.721 134.044 106.501 133.624C106.281 133.204 105.981 132.879 105.601 132.649C105.221 132.409 104.781 132.289 104.281 132.289C103.781 132.289 103.341 132.409 102.961 132.649C102.581 132.879 102.281 133.204 102.061 133.624C101.841 134.044 101.731 134.534 101.731 135.094C101.731 135.654 101.841 136.144 102.061 136.564C102.281 136.984 102.581 137.314 102.961 137.554C103.341 137.784 103.781 137.899 104.281 137.899ZM109.859 138.814V128.014H111.119V132.649C111.369 132.189 111.724 131.834 112.184 131.584C112.644 131.324 113.144 131.194 113.684 131.194C114.544 131.194 115.234 131.464 115.754 132.004C116.274 132.534 116.534 133.354 116.534 134.464V138.814H115.289V134.599C115.289 133.049 114.664 132.274 113.414 132.274C112.764 132.274 112.219 132.509 111.779 132.979C111.339 133.439 111.119 134.099 111.119 134.959V138.814H109.859ZM118.443 138.814V131.374H119.583L119.688 132.799C119.918 132.309 120.268 131.919 120.738 131.629C121.208 131.339 121.788 131.194 122.478 131.194V132.514H122.133C121.693 132.514 121.288 132.594 120.918 132.754C120.548 132.904 120.253 133.164 120.033 133.534C119.813 133.904 119.703 134.414 119.703 135.064V138.814H118.443ZM126.368 138.994C125.748 138.994 125.233 138.889 124.823 138.679C124.413 138.469 124.108 138.189 123.908 137.839C123.708 137.489 123.608 137.109 123.608 136.699C123.608 135.939 123.898 135.354 124.478 134.944C125.058 134.534 125.848 134.329 126.848 134.329H128.858V134.239C128.858 133.589 128.688 133.099 128.348 132.769C128.008 132.429 127.553 132.259 126.983 132.259C126.493 132.259 126.068 132.384 125.708 132.634C125.358 132.874 125.138 133.229 125.048 133.699H123.758C123.808 133.159 123.988 132.704 124.298 132.334C124.618 131.964 125.013 131.684 125.483 131.494C125.953 131.294 126.453 131.194 126.983 131.194C128.023 131.194 128.803 131.474 129.323 132.034C129.853 132.584 130.118 133.319 130.118 134.239V138.814H128.993L128.918 137.479C128.708 137.899 128.398 138.259 127.988 138.559C127.588 138.849 127.048 138.994 126.368 138.994ZM126.563 137.929C127.043 137.929 127.453 137.804 127.793 137.554C128.143 137.304 128.408 136.979 128.588 136.579C128.768 136.179 128.858 135.759 128.858 135.319V135.304H126.953C126.213 135.304 125.688 135.434 125.378 135.694C125.078 135.944 124.928 136.259 124.928 136.639C124.928 137.029 125.068 137.344 125.348 137.584C125.638 137.814 126.043 137.929 126.563 137.929ZM134.858 138.994C133.968 138.994 133.228 138.769 132.638 138.319C132.048 137.869 131.703 137.259 131.603 136.489H132.893C132.973 136.879 133.178 137.219 133.508 137.509C133.848 137.789 134.303 137.929 134.873 137.929C135.403 137.929 135.793 137.819 136.043 137.599C136.293 137.369 136.418 137.099 136.418 136.789C136.418 136.339 136.253 136.039 135.923 135.889C135.603 135.739 135.148 135.604 134.558 135.484C134.158 135.404 133.758 135.289 133.358 135.139C132.958 134.989 132.623 134.779 132.353 134.509C132.083 134.229 131.948 133.864 131.948 133.414C131.948 132.764 132.188 132.234 132.668 131.824C133.158 131.404 133.818 131.194 134.648 131.194C135.438 131.194 136.083 131.394 136.583 131.794C137.093 132.184 137.388 132.744 137.468 133.474H136.223C136.173 133.094 136.008 132.799 135.728 132.589C135.458 132.369 135.093 132.259 134.633 132.259C134.183 132.259 133.833 132.354 133.583 132.544C133.343 132.734 133.223 132.984 133.223 133.294C133.223 133.594 133.378 133.829 133.688 133.999C134.008 134.169 134.438 134.314 134.978 134.434C135.438 134.534 135.873 134.659 136.283 134.809C136.703 134.949 137.043 135.164 137.303 135.454C137.573 135.734 137.708 136.144 137.708 136.684C137.718 137.354 137.463 137.909 136.943 138.349C136.433 138.779 135.738 138.994 134.858 138.994ZM142.853 138.994C142.143 138.994 141.513 138.834 140.963 138.514C140.413 138.184 139.978 137.729 139.658 137.149C139.348 136.569 139.193 135.884 139.193 135.094C139.193 134.314 139.348 133.634 139.658 133.054C139.968 132.464 140.398 132.009 140.948 131.689C141.508 131.359 142.153 131.194 142.883 131.194C143.603 131.194 144.223 131.359 144.743 131.689C145.273 132.009 145.678 132.434 145.958 132.964C146.238 133.494 146.378 134.064 146.378 134.674C146.378 134.784 146.373 134.894 146.363 135.004C146.363 135.114 146.363 135.239 146.363 135.379H140.438C140.468 135.949 140.598 136.424 140.828 136.804C141.068 137.174 141.363 137.454 141.713 137.644C142.073 137.834 142.453 137.929 142.853 137.929C143.373 137.929 143.808 137.809 144.158 137.569C144.508 137.329 144.763 137.004 144.923 136.594H146.168C145.968 137.284 145.583 137.859 145.013 138.319C144.453 138.769 143.733 138.994 142.853 138.994ZM142.853 132.259C142.253 132.259 141.718 132.444 141.248 132.814C140.788 133.174 140.523 133.704 140.453 134.404H145.133C145.103 133.734 144.873 133.209 144.443 132.829C144.013 132.449 143.483 132.259 142.853 132.259ZM152.423 138.814V132.439H151.298V131.374H152.423V130.084C152.423 129.364 152.603 128.839 152.963 128.509C153.323 128.179 153.848 128.014 154.538 128.014H155.288V129.094H154.733C154.353 129.094 154.083 129.174 153.923 129.334C153.763 129.484 153.683 129.744 153.683 130.114V131.374H155.513V132.439H153.683V138.814H152.423ZM157.013 138.814V131.374H158.153L158.258 132.799C158.488 132.309 158.838 131.919 159.308 131.629C159.778 131.339 160.358 131.194 161.048 131.194V132.514H160.703C160.263 132.514 159.858 132.594 159.488 132.754C159.118 132.904 158.823 133.164 158.603 133.534C158.383 133.904 158.273 134.414 158.273 135.064V138.814H157.013ZM165.574 138.994C164.874 138.994 164.244 138.834 163.684 138.514C163.124 138.194 162.679 137.744 162.349 137.164C162.029 136.574 161.869 135.884 161.869 135.094C161.869 134.304 162.034 133.619 162.364 133.039C162.694 132.449 163.139 131.994 163.699 131.674C164.269 131.354 164.904 131.194 165.604 131.194C166.304 131.194 166.934 131.354 167.494 131.674C168.054 131.994 168.494 132.449 168.814 133.039C169.144 133.619 169.309 134.304 169.309 135.094C169.309 135.884 169.144 136.574 168.814 137.164C168.484 137.744 168.034 138.194 167.464 138.514C166.904 138.834 166.274 138.994 165.574 138.994ZM165.574 137.914C166.004 137.914 166.404 137.809 166.774 137.599C167.144 137.389 167.444 137.074 167.674 136.654C167.904 136.234 168.019 135.714 168.019 135.094C168.019 134.474 167.904 133.954 167.674 133.534C167.454 133.114 167.159 132.799 166.789 132.589C166.419 132.379 166.024 132.274 165.604 132.274C165.174 132.274 164.774 132.379 164.404 132.589C164.034 132.799 163.734 133.114 163.504 133.534C163.274 133.954 163.159 134.474 163.159 135.094C163.159 135.714 163.274 136.234 163.504 136.654C163.734 137.074 164.029 137.389 164.389 137.599C164.759 137.809 165.154 137.914 165.574 137.914ZM171.061 138.814V131.374H172.201L172.291 132.454C172.531 132.054 172.851 131.744 173.251 131.524C173.651 131.304 174.101 131.194 174.601 131.194C175.191 131.194 175.696 131.314 176.116 131.554C176.546 131.794 176.876 132.159 177.106 132.649C177.366 132.199 177.721 131.844 178.171 131.584C178.631 131.324 179.126 131.194 179.656 131.194C180.546 131.194 181.256 131.464 181.786 132.004C182.316 132.534 182.581 133.354 182.581 134.464V138.814H181.336V134.599C181.336 133.829 181.181 133.249 180.871 132.859C180.561 132.469 180.116 132.274 179.536 132.274C178.936 132.274 178.436 132.509 178.036 132.979C177.646 133.439 177.451 134.099 177.451 134.959V138.814H176.191V134.599C176.191 133.829 176.036 133.249 175.726 132.859C175.416 132.469 174.971 132.274 174.391 132.274C173.801 132.274 173.306 132.509 172.906 132.979C172.516 133.439 172.321 134.099 172.321 134.959V138.814H171.061ZM43.3116 162.114V151.374H44.4516L44.5716 152.604C44.8116 152.244 45.1516 151.919 45.5916 151.629C46.0416 151.339 46.6116 151.194 47.3016 151.194C48.0416 151.194 48.6866 151.364 49.2366 151.704C49.7866 152.044 50.2116 152.509 50.5116 153.099C50.8216 153.689 50.9766 154.359 50.9766 155.109C50.9766 155.859 50.8216 156.529 50.5116 157.119C50.2116 157.699 49.7816 158.159 49.2216 158.499C48.6716 158.829 48.0266 158.994 47.2866 158.994C46.6766 158.994 46.1316 158.869 45.6516 158.619C45.1816 158.369 44.8216 158.019 44.5716 157.569V162.114H43.3116ZM47.1516 157.899C47.6516 157.899 48.0916 157.784 48.4716 157.554C48.8516 157.314 49.1516 156.984 49.3716 156.564C49.5916 156.144 49.7016 155.654 49.7016 155.094C49.7016 154.534 49.5916 154.044 49.3716 153.624C49.1516 153.204 48.8516 152.879 48.4716 152.649C48.0916 152.409 47.6516 152.289 47.1516 152.289C46.6516 152.289 46.2116 152.409 45.8316 152.649C45.4516 152.879 45.1516 153.204 44.9316 153.624C44.7116 154.044 44.6016 154.534 44.6016 155.094C44.6016 155.654 44.7116 156.144 44.9316 156.564C45.1516 156.984 45.4516 157.314 45.8316 157.554C46.2116 157.784 46.6516 157.899 47.1516 157.899ZM55.2056 158.994C54.5856 158.994 54.0706 158.889 53.6606 158.679C53.2506 158.469 52.9456 158.189 52.7456 157.839C52.5456 157.489 52.4456 157.109 52.4456 156.699C52.4456 155.939 52.7356 155.354 53.3156 154.944C53.8956 154.534 54.6856 154.329 55.6856 154.329H57.6956V154.239C57.6956 153.589 57.5256 153.099 57.1856 152.769C56.8456 152.429 56.3906 152.259 55.8206 152.259C55.3306 152.259 54.9056 152.384 54.5456 152.634C54.1956 152.874 53.9756 153.229 53.8856 153.699H52.5956C52.6456 153.159 52.8256 152.704 53.1356 152.334C53.4556 151.964 53.8506 151.684 54.3206 151.494C54.7906 151.294 55.2906 151.194 55.8206 151.194C56.8606 151.194 57.6406 151.474 58.1606 152.034C58.6906 152.584 58.9556 153.319 58.9556 154.239V158.814H57.8306L57.7556 157.479C57.5456 157.899 57.2356 158.259 56.8256 158.559C56.4256 158.849 55.8856 158.994 55.2056 158.994ZM55.4006 157.929C55.8806 157.929 56.2906 157.804 56.6306 157.554C56.9806 157.304 57.2456 156.979 57.4256 156.579C57.6056 156.179 57.6956 155.759 57.6956 155.319V155.304H55.7906C55.0506 155.304 54.5256 155.434 54.2156 155.694C53.9156 155.944 53.7656 156.259 53.7656 156.639C53.7656 157.029 53.9056 157.344 54.1856 157.584C54.4756 157.814 54.8806 157.929 55.4006 157.929ZM60.8458 158.814V151.374H61.9858L62.0608 152.709C62.3008 152.239 62.6458 151.869 63.0958 151.599C63.5458 151.329 64.0558 151.194 64.6258 151.194C65.5058 151.194 66.2058 151.464 66.7258 152.004C67.2558 152.534 67.5208 153.354 67.5208 154.464V158.814H66.2608V154.599C66.2608 153.049 65.6208 152.274 64.3408 152.274C63.7008 152.274 63.1658 152.509 62.7358 152.979C62.3158 153.439 62.1058 154.099 62.1058 154.959V158.814H60.8458ZM72.3698 158.814C71.6898 158.814 71.1548 158.649 70.7648 158.319C70.3748 157.989 70.1798 157.394 70.1798 156.534V152.439H68.8898V151.374H70.1798L70.3448 149.589H71.4398V151.374H73.6298V152.439H71.4398V156.534C71.4398 157.004 71.5348 157.324 71.7248 157.494C71.9148 157.654 72.2498 157.734 72.7298 157.734H73.5098V158.814H72.3698ZM78.4155 158.994C77.7155 158.994 77.0855 158.834 76.5255 158.514C75.9655 158.194 75.5205 157.744 75.1905 157.164C74.8705 156.574 74.7105 155.884 74.7105 155.094C74.7105 154.304 74.8755 153.619 75.2055 153.039C75.5355 152.449 75.9805 151.994 76.5405 151.674C77.1105 151.354 77.7455 151.194 78.4455 151.194C79.1455 151.194 79.7755 151.354 80.3355 151.674C80.8955 151.994 81.3355 152.449 81.6555 153.039C81.9855 153.619 82.1505 154.304 82.1505 155.094C82.1505 155.884 81.9855 156.574 81.6555 157.164C81.3255 157.744 80.8755 158.194 80.3055 158.514C79.7455 158.834 79.1155 158.994 78.4155 158.994ZM78.4155 157.914C78.8455 157.914 79.2455 157.809 79.6155 157.599C79.9855 157.389 80.2855 157.074 80.5155 156.654C80.7455 156.234 80.8605 155.714 80.8605 155.094C80.8605 154.474 80.7455 153.954 80.5155 153.534C80.2955 153.114 80.0005 152.799 79.6305 152.589C79.2605 152.379 78.8655 152.274 78.4455 152.274C78.0155 152.274 77.6155 152.379 77.2455 152.589C76.8755 152.799 76.5755 153.114 76.3455 153.534C76.1155 153.954 76.0005 154.474 76.0005 155.094C76.0005 155.714 76.1155 156.234 76.3455 156.654C76.5755 157.074 76.8705 157.389 77.2305 157.599C77.6005 157.809 77.9955 157.914 78.4155 157.914ZM83.9025 158.814V151.374H85.0425L85.1325 152.454C85.3725 152.054 85.6925 151.744 86.0925 151.524C86.4925 151.304 86.9425 151.194 87.4425 151.194C88.0325 151.194 88.5375 151.314 88.9575 151.554C89.3875 151.794 89.7175 152.159 89.9475 152.649C90.2075 152.199 90.5625 151.844 91.0125 151.584C91.4725 151.324 91.9675 151.194 92.4975 151.194C93.3875 151.194 94.0975 151.464 94.6275 152.004C95.1575 152.534 95.4225 153.354 95.4225 154.464V158.814H94.1775V154.599C94.1775 153.829 94.0225 153.249 93.7125 152.859C93.4025 152.469 92.9575 152.274 92.3775 152.274C91.7775 152.274 91.2775 152.509 90.8775 152.979C90.4875 153.439 90.2925 154.099 90.2925 154.959V158.814H89.0325V154.599C89.0325 153.829 88.8775 153.249 88.5675 152.859C88.2575 152.469 87.8125 152.274 87.2325 152.274C86.6425 152.274 86.1475 152.509 85.7475 152.979C85.3575 153.439 85.1625 154.099 85.1625 154.959V158.814H83.9025ZM98.0854 149.724C97.8354 149.724 97.6254 149.644 97.4554 149.484C97.2954 149.314 97.2154 149.104 97.2154 148.854C97.2154 148.614 97.2954 148.414 97.4554 148.254C97.6254 148.094 97.8354 148.014 98.0854 148.014C98.3254 148.014 98.5304 148.094 98.7004 148.254C98.8704 148.414 98.9554 148.614 98.9554 148.854C98.9554 149.104 98.8704 149.314 98.7004 149.484C98.5304 149.644 98.3254 149.724 98.0854 149.724ZM97.4554 158.814V151.374H98.7154V158.814H97.4554ZM100.909 158.814V151.374H102.049L102.139 152.454C102.379 152.054 102.699 151.744 103.099 151.524C103.499 151.304 103.949 151.194 104.449 151.194C105.039 151.194 105.544 151.314 105.964 151.554C106.394 151.794 106.724 152.159 106.954 152.649C107.214 152.199 107.569 151.844 108.019 151.584C108.479 151.324 108.974 151.194 109.504 151.194C110.394 151.194 111.104 151.464 111.634 152.004C112.164 152.534 112.429 153.354 112.429 154.464V158.814H111.184V154.599C111.184 153.829 111.029 153.249 110.719 152.859C110.409 152.469 109.964 152.274 109.384 152.274C108.784 152.274 108.284 152.509 107.884 152.979C107.494 153.439 107.299 154.099 107.299 154.959V158.814H106.039V154.599C106.039 153.829 105.884 153.249 105.574 152.859C105.264 152.469 104.819 152.274 104.239 152.274C103.649 152.274 103.154 152.509 102.754 152.979C102.364 153.439 102.169 154.099 102.169 154.959V158.814H100.909ZM117.672 158.994C116.962 158.994 116.332 158.834 115.782 158.514C115.232 158.184 114.797 157.729 114.477 157.149C114.167 156.569 114.012 155.884 114.012 155.094C114.012 154.314 114.167 153.634 114.477 153.054C114.787 152.464 115.217 152.009 115.767 151.689C116.327 151.359 116.972 151.194 117.702 151.194C118.422 151.194 119.042 151.359 119.562 151.689C120.092 152.009 120.497 152.434 120.777 152.964C121.057 153.494 121.197 154.064 121.197 154.674C121.197 154.784 121.192 154.894 121.182 155.004C121.182 155.114 121.182 155.239 121.182 155.379H115.257C115.287 155.949 115.417 156.424 115.647 156.804C115.887 157.174 116.182 157.454 116.532 157.644C116.892 157.834 117.272 157.929 117.672 157.929C118.192 157.929 118.627 157.809 118.977 157.569C119.327 157.329 119.582 157.004 119.742 156.594H120.987C120.787 157.284 120.402 157.859 119.832 158.319C119.272 158.769 118.552 158.994 117.672 158.994ZM117.672 152.259C117.072 152.259 116.537 152.444 116.067 152.814C115.607 153.174 115.342 153.704 115.272 154.404H119.952C119.922 153.734 119.692 153.209 119.262 152.829C118.832 152.449 118.302 152.259 117.672 152.259ZM126.242 158.994C125.502 158.994 124.852 158.824 124.292 158.484C123.742 158.144 123.312 157.679 123.002 157.089C122.702 156.499 122.552 155.829 122.552 155.079C122.552 154.329 122.707 153.664 123.017 153.084C123.327 152.494 123.757 152.034 124.307 151.704C124.857 151.364 125.507 151.194 126.257 151.194C126.867 151.194 127.407 151.319 127.877 151.569C128.347 151.819 128.712 152.169 128.972 152.619V148.014H130.232V158.814H129.092L128.972 157.584C128.732 157.944 128.387 158.269 127.937 158.559C127.487 158.849 126.922 158.994 126.242 158.994ZM126.377 157.899C126.877 157.899 127.317 157.784 127.697 157.554C128.087 157.314 128.387 156.984 128.597 156.564C128.817 156.144 128.927 155.654 128.927 155.094C128.927 154.534 128.817 154.044 128.597 153.624C128.387 153.204 128.087 152.879 127.697 152.649C127.317 152.409 126.877 152.289 126.377 152.289C125.887 152.289 125.447 152.409 125.057 152.649C124.677 152.879 124.377 153.204 124.157 153.624C123.947 154.044 123.842 154.534 123.842 155.094C123.842 155.654 123.947 156.144 124.157 156.564C124.377 156.984 124.677 157.314 125.057 157.554C125.447 157.784 125.887 157.899 126.377 157.899ZM139.676 158.994C138.966 158.994 138.326 158.834 137.756 158.514C137.196 158.184 136.751 157.729 136.421 157.149C136.101 156.559 135.941 155.874 135.941 155.094C135.941 154.314 136.101 153.634 136.421 153.054C136.751 152.464 137.196 152.009 137.756 151.689C138.326 151.359 138.966 151.194 139.676 151.194C140.556 151.194 141.296 151.424 141.896 151.884C142.506 152.344 142.891 152.959 143.051 153.729H141.761C141.661 153.269 141.416 152.914 141.026 152.664C140.636 152.404 140.181 152.274 139.661 152.274C139.241 152.274 138.846 152.379 138.476 152.589C138.106 152.799 137.806 153.114 137.576 153.534C137.346 153.954 137.231 154.474 137.231 155.094C137.231 155.714 137.346 156.234 137.576 156.654C137.806 157.074 138.106 157.394 138.476 157.614C138.846 157.824 139.241 157.929 139.661 157.929C140.181 157.929 140.636 157.804 141.026 157.554C141.416 157.294 141.661 156.929 141.761 156.459H143.051C142.901 157.209 142.521 157.819 141.911 158.289C141.301 158.759 140.556 158.994 139.676 158.994ZM144.811 158.814V148.014H146.071V158.814H144.811ZM150.851 158.994C149.971 158.994 149.271 158.729 148.751 158.199C148.231 157.659 147.971 156.834 147.971 155.724V151.374H149.231V155.589C149.231 157.139 149.866 157.914 151.136 157.914C151.786 157.914 152.321 157.684 152.741 157.224C153.171 156.754 153.386 156.089 153.386 155.229V151.374H154.646V158.814H153.506L153.416 157.479C153.186 157.949 152.841 158.319 152.381 158.589C151.931 158.859 151.421 158.994 150.851 158.994ZM160.065 158.994C159.355 158.994 158.725 158.834 158.175 158.514C157.625 158.184 157.19 157.729 156.87 157.149C156.56 156.569 156.405 155.884 156.405 155.094C156.405 154.314 156.56 153.634 156.87 153.054C157.18 152.464 157.61 152.009 158.16 151.689C158.72 151.359 159.365 151.194 160.095 151.194C160.815 151.194 161.435 151.359 161.955 151.689C162.485 152.009 162.89 152.434 163.17 152.964C163.45 153.494 163.59 154.064 163.59 154.674C163.59 154.784 163.585 154.894 163.575 155.004C163.575 155.114 163.575 155.239 163.575 155.379H157.65C157.68 155.949 157.81 156.424 158.04 156.804C158.28 157.174 158.575 157.454 158.925 157.644C159.285 157.834 159.665 157.929 160.065 157.929C160.585 157.929 161.02 157.809 161.37 157.569C161.72 157.329 161.975 157.004 162.135 156.594H163.38C163.18 157.284 162.795 157.859 162.225 158.319C161.665 158.769 160.945 158.994 160.065 158.994ZM160.065 152.259C159.465 152.259 158.93 152.444 158.46 152.814C158 153.174 157.735 153.704 157.665 154.404H162.345C162.315 153.734 162.085 153.209 161.655 152.829C161.225 152.449 160.695 152.259 160.065 152.259ZM168.11 158.994C167.22 158.994 166.48 158.769 165.89 158.319C165.3 157.869 164.955 157.259 164.855 156.489H166.145C166.225 156.879 166.43 157.219 166.76 157.509C167.1 157.789 167.555 157.929 168.125 157.929C168.655 157.929 169.045 157.819 169.295 157.599C169.545 157.369 169.67 157.099 169.67 156.789C169.67 156.339 169.505 156.039 169.175 155.889C168.855 155.739 168.4 155.604 167.81 155.484C167.41 155.404 167.01 155.289 166.61 155.139C166.21 154.989 165.875 154.779 165.605 154.509C165.335 154.229 165.2 153.864 165.2 153.414C165.2 152.764 165.44 152.234 165.92 151.824C166.41 151.404 167.07 151.194 167.9 151.194C168.69 151.194 169.335 151.394 169.835 151.794C170.345 152.184 170.64 152.744 170.72 153.474H169.475C169.425 153.094 169.26 152.799 168.98 152.589C168.71 152.369 168.345 152.259 167.885 152.259C167.435 152.259 167.085 152.354 166.835 152.544C166.595 152.734 166.475 152.984 166.475 153.294C166.475 153.594 166.63 153.829 166.94 153.999C167.26 154.169 167.69 154.314 168.23 154.434C168.69 154.534 169.125 154.659 169.535 154.809C169.955 154.949 170.295 155.164 170.555 155.454C170.825 155.734 170.96 156.144 170.96 156.684C170.97 157.354 170.715 157.909 170.195 158.349C169.685 158.779 168.99 158.994 168.11 158.994Z" fill="white"/>
<defs>
<filter id="filter0_d" x="0" y="18.5762" width="214" height="217.559" filterUnits="userSpaceOnUse" color-interpolation-filters="sRGB">
<feFlood flood-opacity="0" result="BackgroundImageFix"/>
<feColorMatrix in="SourceAlpha" type="matrix" values="0 0 0 0 0 0 0 0 0 0 0 0 0 0 0 0 0 0 127 0"/>
<feOffset dy="1"/>
<feGaussianBlur stdDeviation="1"/>
<feColorMatrix type="matrix" values="0 0 0 0 0.0588235 0 0 0 0 0.0588235 0 0 0 0 0.0588235 0 0 0 0.1 0"/>
<feBlend mode="normal" in2="BackgroundImageFix" result="effect1_dropShadow"/>
<feBlend mode="normal" in="SourceGraphic" in2="effect1_dropShadow" result="shape"/>
</filter>
</defs>
</svg>
