<svg width="240" height="260" viewBox="0 0 240 260" fill="none" xmlns="http://www.w3.org/2000/svg">
<g filter="url(#filter0_d)">
<rect x="2" y="21.541" width="236" height="234.99" rx="20" fill="#04CC78"/>
</g>
<path fill-rule="evenodd" clip-rule="evenodd" d="M221 28.3945C216.032 28.3945 212 32.3424 212 37.2066C212 42.0709 216.032 46.0187 221 46.0187C225.968 46.0187 230 42.0709 230 37.2066C230 32.3424 225.968 28.3945 221 28.3945ZM220.1 32.8006V34.563H221.9V32.8006H220.1ZM220.1 36.3254V41.6127H221.9V36.3254H220.1ZM213.8 37.2066C213.8 41.0928 217.031 44.2563 221 44.2563C224.969 44.2563 228.2 41.0928 228.2 37.2066C228.2 33.3205 224.969 30.1569 221 30.1569C217.031 30.1569 213.8 33.3205 213.8 37.2066Z" fill="white"/>
<path d="M37 10C37 4.47715 41.4772 0 47 0H193C198.523 0 203 4.47715 203 10V21.5407H37V10Z" fill="#F12587"/>
<path d="M102.906 16.151C101.85 16.151 100.927 15.911 100.138 15.431C99.3485 14.951 98.7352 14.2843 98.2979 13.431C97.8605 12.567 97.6419 11.5643 97.6419 10.423C97.6419 9.27098 97.8659 8.25765 98.3139 7.38298C98.7725 6.49765 99.4179 5.80965 100.25 5.31898C101.093 4.81765 102.09 4.56698 103.242 4.56698C104.554 4.56698 105.642 4.88165 106.506 5.51098C107.37 6.14032 107.93 7.00965 108.186 8.11898H105.898C105.727 7.59632 105.418 7.19098 104.97 6.90298C104.522 6.60432 103.946 6.45498 103.242 6.45498C102.122 6.45498 101.258 6.81232 100.65 7.52698C100.042 8.23098 99.7379 9.20165 99.7379 10.439C99.7379 11.6763 100.037 12.6363 100.634 13.319C101.242 13.991 102.063 14.327 103.098 14.327C104.111 14.327 104.874 14.055 105.386 13.511C105.909 12.9563 106.223 12.231 106.33 11.335H103.498V9.79898H108.394V15.959H106.506L106.346 14.487C105.983 15.0203 105.53 15.431 104.986 15.719C104.442 16.007 103.749 16.151 102.906 16.151ZM113.073 16.151C112.39 16.151 111.83 16.0443 111.393 15.831C110.956 15.607 110.63 15.3137 110.417 14.951C110.204 14.5883 110.097 14.1883 110.097 13.751C110.097 13.015 110.385 12.4177 110.961 11.959C111.537 11.5003 112.401 11.271 113.553 11.271H115.569V11.079C115.569 10.535 115.414 10.135 115.105 9.87898C114.796 9.62298 114.412 9.49498 113.953 9.49498C113.537 9.49498 113.174 9.59632 112.865 9.79898C112.556 9.99098 112.364 10.279 112.289 10.663H110.289C110.342 10.087 110.534 9.58565 110.865 9.15898C111.206 8.73232 111.644 8.40698 112.177 8.18298C112.71 7.94832 113.308 7.83098 113.969 7.83098C115.1 7.83098 115.99 8.11365 116.641 8.67898C117.292 9.24432 117.617 10.0443 117.617 11.079V15.959H115.873L115.681 14.679C115.446 15.1057 115.116 15.4577 114.689 15.735C114.273 16.0123 113.734 16.151 113.073 16.151ZM113.537 14.551C114.124 14.551 114.577 14.359 114.897 13.975C115.228 13.591 115.436 13.1163 115.521 12.551H113.777C113.233 12.551 112.844 12.6523 112.609 12.855C112.374 13.047 112.257 13.287 112.257 13.575C112.257 13.8843 112.374 14.1243 112.609 14.295C112.844 14.4657 113.153 14.551 113.537 14.551ZM119.571 15.959V8.02298H121.379L121.555 9.09498C121.811 8.71098 122.147 8.40698 122.563 8.18298C122.99 7.94832 123.481 7.83098 124.035 7.83098C125.262 7.83098 126.131 8.30565 126.643 9.25498C126.931 8.81765 127.315 8.47098 127.795 8.21498C128.286 7.95898 128.819 7.83098 129.395 7.83098C130.43 7.83098 131.225 8.14032 131.779 8.75898C132.334 9.37765 132.611 10.2843 132.611 11.479V15.959H130.563V11.671C130.563 10.9883 130.43 10.4657 130.163 10.103C129.907 9.74032 129.507 9.55898 128.963 9.55898C128.409 9.55898 127.961 9.76165 127.619 10.167C127.289 10.5723 127.123 11.1377 127.123 11.863V15.959H125.075V11.671C125.075 10.9883 124.942 10.4657 124.675 10.103C124.409 9.74032 123.998 9.55898 123.443 9.55898C122.899 9.55898 122.457 9.76165 122.115 10.167C121.785 10.5723 121.619 11.1377 121.619 11.863V15.959H119.571ZM138.412 16.151C137.612 16.151 136.902 15.9803 136.284 15.639C135.665 15.2977 135.18 14.8177 134.828 14.199C134.476 13.5803 134.3 12.8657 134.3 12.055C134.3 11.2337 134.47 10.503 134.812 9.86298C135.164 9.22298 135.644 8.72698 136.252 8.37498C136.87 8.01232 137.596 7.83098 138.428 7.83098C139.206 7.83098 139.894 8.00165 140.492 8.34298C141.089 8.68432 141.553 9.15365 141.884 9.75098C142.225 10.3377 142.396 10.9937 142.396 11.719C142.396 11.8363 142.39 11.959 142.38 12.087C142.38 12.215 142.374 12.3483 142.364 12.487H136.332C136.374 13.1057 136.588 13.591 136.972 13.943C137.366 14.295 137.841 14.471 138.396 14.471C138.812 14.471 139.158 14.3803 139.436 14.199C139.724 14.007 139.937 13.7617 140.076 13.463H142.156C142.006 13.9643 141.756 14.423 141.404 14.839C141.062 15.2443 140.636 15.5643 140.124 15.799C139.622 16.0337 139.052 16.151 138.412 16.151ZM138.428 9.49498C137.926 9.49498 137.484 9.63898 137.1 9.92698C136.716 10.2043 136.47 10.631 136.364 11.207H140.316C140.284 10.6843 140.092 10.2683 139.74 9.95898C139.388 9.64965 138.95 9.49498 138.428 9.49498Z" fill="white"/>
<path d="M73.1775 74.495C71.4815 74.495 70.0255 74.135 68.8095 73.415C67.5935 72.679 66.6575 71.663 66.0015 70.367C65.3455 69.055 65.0175 67.543 65.0175 65.831C65.0175 64.119 65.3455 62.607 66.0015 61.295C66.6575 59.983 67.5935 58.959 68.8095 58.223C70.0255 57.487 71.4815 57.119 73.1775 57.119C75.1935 57.119 76.8415 57.623 78.1215 58.631C79.4175 59.623 80.2255 61.023 80.5455 62.831H77.1615C76.9535 61.919 76.5055 61.207 75.8175 60.695C75.1455 60.167 74.2495 59.903 73.1295 59.903C71.5775 59.903 70.3615 60.431 69.4815 61.487C68.6015 62.543 68.1615 63.991 68.1615 65.831C68.1615 67.671 68.6015 69.119 69.4815 70.175C70.3615 71.215 71.5775 71.735 73.1295 71.735C74.2495 71.735 75.1455 71.495 75.8175 71.015C76.5055 70.519 76.9535 69.839 77.1615 68.975H80.5455C80.2255 70.703 79.4175 72.055 78.1215 73.031C76.8415 74.007 75.1935 74.495 73.1775 74.495ZM83.1928 74.207V56.927H86.2648V64.127C86.6648 63.471 87.2008 62.959 87.8728 62.591C88.5608 62.207 89.3448 62.015 90.2248 62.015C91.6968 62.015 92.8328 62.479 93.6328 63.407C94.4488 64.335 94.8568 65.695 94.8568 67.487V74.207H91.8088V67.775C91.8088 66.751 91.6008 65.967 91.1848 65.423C90.7848 64.879 90.1448 64.607 89.2648 64.607C88.4008 64.607 87.6808 64.911 87.1048 65.519C86.5448 66.127 86.2648 66.975 86.2648 68.063V74.207H83.1928ZM101.898 74.495C100.874 74.495 100.034 74.335 99.3784 74.015C98.7224 73.679 98.2344 73.239 97.9144 72.695C97.5944 72.151 97.4344 71.551 97.4344 70.895C97.4344 69.791 97.8664 68.895 98.7304 68.207C99.5944 67.519 100.89 67.175 102.618 67.175H105.642V66.887C105.642 66.071 105.41 65.471 104.946 65.087C104.482 64.703 103.906 64.511 103.218 64.511C102.594 64.511 102.05 64.663 101.586 64.967C101.122 65.255 100.834 65.687 100.722 66.263H97.7224C97.8024 65.399 98.0904 64.647 98.5864 64.007C99.0984 63.367 99.7544 62.879 100.554 62.543C101.354 62.191 102.25 62.015 103.242 62.015C104.938 62.015 106.274 62.439 107.25 63.287C108.226 64.135 108.714 65.335 108.714 66.887V74.207H106.098L105.81 72.287C105.458 72.927 104.962 73.455 104.322 73.871C103.698 74.287 102.89 74.495 101.898 74.495ZM102.594 72.095C103.474 72.095 104.154 71.807 104.634 71.231C105.13 70.655 105.442 69.943 105.57 69.095H102.954C102.138 69.095 101.554 69.247 101.202 69.551C100.85 69.839 100.674 70.199 100.674 70.631C100.674 71.095 100.85 71.455 101.202 71.711C101.554 71.967 102.018 72.095 102.594 72.095ZM111.646 74.207V62.303H114.382L114.67 64.535C115.102 63.767 115.686 63.159 116.422 62.711C117.174 62.247 118.054 62.015 119.062 62.015V65.255H118.198C117.526 65.255 116.926 65.359 116.398 65.567C115.87 65.775 115.454 66.135 115.15 66.647C114.862 67.159 114.718 67.871 114.718 68.783V74.207H111.646ZM125.266 74.495C124.242 74.495 123.402 74.335 122.746 74.015C122.09 73.679 121.602 73.239 121.282 72.695C120.962 72.151 120.802 71.551 120.802 70.895C120.802 69.791 121.234 68.895 122.098 68.207C122.962 67.519 124.258 67.175 125.986 67.175H129.01V66.887C129.01 66.071 128.778 65.471 128.314 65.087C127.85 64.703 127.274 64.511 126.586 64.511C125.962 64.511 125.418 64.663 124.954 64.967C124.49 65.255 124.202 65.687 124.09 66.263H121.09C121.17 65.399 121.458 64.647 121.954 64.007C122.466 63.367 123.122 62.879 123.922 62.543C124.722 62.191 125.618 62.015 126.61 62.015C128.306 62.015 129.642 62.439 130.618 63.287C131.594 64.135 132.082 65.335 132.082 66.887V74.207H129.466L129.178 72.287C128.826 72.927 128.33 73.455 127.69 73.871C127.066 74.287 126.258 74.495 125.266 74.495ZM125.962 72.095C126.842 72.095 127.522 71.807 128.002 71.231C128.498 70.655 128.81 69.943 128.938 69.095H126.322C125.506 69.095 124.922 69.247 124.57 69.551C124.218 69.839 124.042 70.199 124.042 70.631C124.042 71.095 124.218 71.455 124.57 71.711C124.922 71.967 125.386 72.095 125.962 72.095ZM140.485 74.495C139.365 74.495 138.365 74.223 137.485 73.679C136.605 73.135 135.909 72.391 135.397 71.447C134.885 70.503 134.629 69.431 134.629 68.231C134.629 67.031 134.885 65.967 135.397 65.039C135.909 64.095 136.605 63.359 137.485 62.831C138.365 62.287 139.365 62.015 140.485 62.015C141.381 62.015 142.165 62.183 142.837 62.519C143.509 62.855 144.053 63.327 144.469 63.935V56.927H147.541V74.207H144.805L144.469 72.503C144.085 73.031 143.573 73.495 142.933 73.895C142.309 74.295 141.493 74.495 140.485 74.495ZM141.133 71.807C142.125 71.807 142.933 71.479 143.557 70.823C144.197 70.151 144.517 69.295 144.517 68.255C144.517 67.215 144.197 66.367 143.557 65.711C142.933 65.039 142.125 64.703 141.133 64.703C140.157 64.703 139.349 65.031 138.709 65.687C138.069 66.343 137.749 67.191 137.749 68.231C137.749 69.271 138.069 70.127 138.709 70.799C139.349 71.471 140.157 71.807 141.133 71.807ZM156.453 74.495C155.253 74.495 154.189 74.239 153.261 73.727C152.333 73.215 151.605 72.495 151.077 71.567C150.549 70.639 150.285 69.567 150.285 68.351C150.285 67.119 150.541 66.023 151.053 65.063C151.581 64.103 152.301 63.359 153.213 62.831C154.141 62.287 155.229 62.015 156.477 62.015C157.645 62.015 158.677 62.271 159.573 62.783C160.469 63.295 161.165 63.999 161.661 64.895C162.173 65.775 162.429 66.759 162.429 67.847C162.429 68.023 162.421 68.207 162.405 68.399C162.405 68.591 162.397 68.791 162.381 68.999H153.333C153.397 69.927 153.717 70.655 154.293 71.183C154.885 71.711 155.597 71.975 156.429 71.975C157.053 71.975 157.573 71.839 157.989 71.567C158.421 71.279 158.741 70.911 158.949 70.463H162.069C161.845 71.215 161.469 71.903 160.941 72.527C160.429 73.135 159.789 73.615 159.021 73.967C158.269 74.319 157.413 74.495 156.453 74.495ZM156.477 64.511C155.725 64.511 155.061 64.727 154.485 65.159C153.909 65.575 153.541 66.215 153.381 67.079H159.309C159.261 66.295 158.973 65.671 158.445 65.207C157.917 64.743 157.261 64.511 156.477 64.511ZM169.933 74.495C168.877 74.495 167.949 74.327 167.149 73.991C166.349 73.639 165.709 73.159 165.229 72.551C164.749 71.943 164.461 71.239 164.365 70.439H167.461C167.557 70.903 167.813 71.303 168.229 71.639C168.661 71.959 169.213 72.119 169.885 72.119C170.557 72.119 171.045 71.983 171.349 71.711C171.669 71.439 171.829 71.127 171.829 70.775C171.829 70.263 171.605 69.919 171.157 69.743C170.709 69.551 170.085 69.367 169.285 69.191C168.773 69.079 168.253 68.943 167.725 68.783C167.197 68.623 166.709 68.423 166.261 68.183C165.829 67.927 165.477 67.607 165.205 67.223C164.933 66.823 164.797 66.335 164.797 65.759C164.797 64.703 165.213 63.815 166.045 63.095C166.893 62.375 168.077 62.015 169.597 62.015C171.005 62.015 172.125 62.343 172.957 62.999C173.805 63.655 174.309 64.559 174.469 65.711H171.565C171.389 64.831 170.725 64.391 169.573 64.391C168.997 64.391 168.549 64.503 168.229 64.727C167.925 64.951 167.773 65.231 167.773 65.567C167.773 65.919 168.005 66.199 168.469 66.407C168.933 66.615 169.549 66.807 170.317 66.983C171.149 67.175 171.909 67.391 172.597 67.631C173.301 67.855 173.861 68.199 174.277 68.663C174.693 69.111 174.901 69.759 174.901 70.607C174.917 71.343 174.725 72.007 174.325 72.599C173.925 73.191 173.349 73.655 172.597 73.991C171.845 74.327 170.957 74.495 169.933 74.495Z" fill="white"/>
<path d="M136.67 137.543C134.248 141.573 133.877 146.424 133.062 151.028C131.781 158.164 129.272 165.045 128.008 172.184C127.567 174.682 127.282 177.215 126.582 179.654C125.621 183.005 123.905 186.098 122.296 189.193C119.556 194.481 117.069 199.98 116.045 205.825C115.726 207.647 115.976 210.121 117.819 210.511C118.345 210.627 118.937 210.535 119.386 210.828C119.649 210.998 119.817 211.273 120.028 211.501C120.838 212.376 122.232 212.478 123.389 212.159C124.546 211.841 125.555 211.142 126.628 210.597C130.888 208.449 135.938 208.705 140.716 209.01C141.596 209.064 142.583 209.172 143.139 209.844C143.421 210.185 143.538 210.625 143.748 211.015C144.49 212.431 146.448 213.089 147.92 212.417C148.47 212.165 148.943 211.761 149.515 211.554C151.265 210.916 153.105 212.3 154.978 212.31C157.671 212.322 159.697 209.529 162.387 209.433C164.222 209.369 165.899 210.593 167.734 210.605C169.11 210.605 170.379 209.926 171.576 209.264L179.753 204.741C177.566 201.747 174.889 199.129 171.829 196.992C169.577 195.43 168.969 192.306 167.595 189.962C166.687 188.412 165.77 186.838 165.327 185.106C165.008 183.856 164.944 182.556 164.629 181.304C164.192 179.578 163.293 178.006 162.579 176.371C159.747 169.896 159.842 162.507 157.248 155.936C156.518 154.084 155.578 152.313 154.93 150.433C154.077 147.957 153.744 145.332 152.882 142.86C152.02 140.388 150.489 137.96 148.046 136.896C146.985 136.469 145.857 136.229 144.711 136.187C141.857 136.008 139.318 136.488 136.67 137.543Z" fill="#3F3D56"/>
<path d="M147.312 104.703H135.936V119.556H147.312V104.703Z" fill="#FBC661"/>
<path d="M147.005 116.223C146.426 116.135 145.836 116.223 145.252 116.223C143.814 116.205 143.405 117.906 141.971 118.045C140.222 118.213 137.797 117.129 136.335 118.086C136.067 118.268 135.784 118.427 135.489 118.562C134.292 119.078 132.831 118.886 131.736 119.587C130.641 120.288 130.24 121.673 130.24 122.954C130.212 123.412 130.28 123.871 130.439 124.303C130.593 124.668 130.848 124.985 131.002 125.35C131.109 125.608 131.165 125.883 131.255 126.149C131.499 126.757 131.836 127.325 132.252 127.836L134.785 131.286C135.449 132.192 135.184 133.313 135.292 134.424C135.371 135.278 135.575 136.121 135.573 136.977C135.571 137.832 135.332 138.734 134.679 139.32C136.179 139.23 137.674 139.095 139.165 138.916C140.393 138.767 141.618 138.59 142.852 138.504C145.445 138.324 148.05 138.556 150.631 138.789C150.204 138.269 150.01 137.545 149.905 136.887C149.554 134.704 149.332 132.417 150.066 130.327C150.302 129.703 150.578 129.093 150.894 128.504L151.682 126.951C152.796 124.756 153.838 122.507 154.075 120.066C154.164 119.439 154.088 118.8 153.853 118.211C153.508 117.455 152.763 116.924 151.959 116.666C151.143 116.438 150.29 116.365 149.446 116.451C148.66 116.488 147.791 116.34 147.005 116.223Z" fill="#3F3D56"/>
<path d="M138.816 115.195C138.997 115.66 139.215 116.158 139.073 116.638C138.81 117.591 137.465 117.785 136.879 118.591C136.828 118.646 136.793 118.713 136.777 118.785C136.761 118.858 136.766 118.933 136.789 119.003C136.817 119.05 136.854 119.092 136.897 119.126C137.992 120.06 139.576 120.14 141.027 120.124C143.144 120.105 145.403 119.929 147.08 118.673C147.549 118.322 147.99 117.736 147.751 117.207C147.565 116.802 147.077 116.65 146.672 116.451C145.764 116.004 145.114 115.152 144.755 114.221C144.396 113.289 144.304 112.284 144.288 111.292C144.304 111.122 144.267 110.952 144.181 110.804C144.041 110.608 143.782 110.579 143.536 110.563C142.17 110.474 140.797 110.528 139.442 110.723C139.059 110.778 138.329 110.829 138.06 111.136C137.791 111.442 137.946 111.805 137.998 112.139C138.16 113.183 138.434 114.208 138.816 115.195Z" fill="#FBB3B2"/>
<path opacity="0.05" d="M138.816 115.195C138.997 115.66 139.215 116.158 139.073 116.638C138.81 117.591 137.465 117.785 136.879 118.591C136.828 118.646 136.793 118.713 136.777 118.785C136.761 118.858 136.766 118.933 136.789 119.003C136.817 119.05 136.854 119.092 136.897 119.126C137.992 120.06 139.576 120.14 141.027 120.124C143.144 120.105 145.403 119.929 147.08 118.673C147.549 118.322 147.99 117.736 147.751 117.207C147.565 116.802 147.077 116.65 146.672 116.451C145.764 116.004 145.114 115.152 144.755 114.221C144.396 113.289 144.304 112.284 144.288 111.292C144.304 111.122 144.267 110.952 144.181 110.804C144.041 110.608 143.782 110.579 143.536 110.563C142.17 110.474 140.797 110.528 139.442 110.723C139.059 110.778 138.329 110.829 138.06 111.136C137.791 111.442 137.946 111.805 137.998 112.139C138.16 113.183 138.434 114.208 138.816 115.195Z" fill="black"/>
<path d="M141.39 113.303C144.211 113.303 146.498 111.064 146.498 108.302C146.498 105.54 144.211 103.301 141.39 103.301C138.569 103.301 136.283 105.54 136.283 108.302C136.283 111.064 138.569 113.303 141.39 113.303Z" fill="#FBB3B2"/>
<path opacity="0.1" d="M146.261 211.561C145.857 211.734 145.47 211.945 145.106 212.19C145.556 212.468 146.069 212.635 146.6 212.675C147.131 212.716 147.664 212.63 148.153 212.424C148.54 212.246 148.887 211.994 149.258 211.789C148.237 211.477 147.234 211.205 146.261 211.561Z" fill="black"/>
<path opacity="0.1" d="M123.377 210.604C122.513 211.038 121.69 211.567 120.798 211.928C121.608 212.401 122.691 212.422 123.622 212.159C124.779 211.829 125.788 211.141 126.859 210.596C129.197 209.425 131.773 208.966 134.41 208.839C130.589 208.714 126.737 208.913 123.377 210.604Z" fill="black"/>
<path opacity="0.1" d="M172.058 196.989C169.807 195.426 169.2 192.302 167.824 189.959C166.917 188.408 165.999 186.834 165.557 185.102C165.237 183.852 165.174 182.552 164.859 181.3C164.424 179.574 163.524 178.002 162.81 176.367C159.978 169.892 160.072 162.503 157.479 155.932C156.747 154.081 155.808 152.309 155.16 150.429C154.308 147.953 153.963 145.328 153.112 142.856C152.26 140.384 150.718 137.957 148.275 136.892C147.232 136.435 146.081 136.258 144.941 136.184C143.978 136.121 143.012 136.138 142.053 136.232C142.998 136.31 143.925 136.534 144.799 136.896C147.236 137.961 148.774 140.388 149.635 142.86C150.497 145.332 150.832 147.957 151.684 150.433C152.332 152.313 153.279 154.085 154.001 155.936C156.594 162.507 156.5 169.896 159.332 176.371C160.048 178.006 160.948 179.578 161.382 181.304C161.697 182.556 161.761 183.856 162.08 185.106C162.523 186.838 163.441 188.412 164.348 189.963C165.722 192.306 166.33 195.419 168.582 196.993C171.643 199.128 174.322 201.745 176.51 204.737L168.333 209.26C167.649 209.661 166.932 210.004 166.189 210.287C166.767 210.48 167.373 210.586 167.984 210.601C169.358 210.601 170.626 209.922 171.823 209.26L180 204.737C177.809 201.742 175.125 199.123 172.058 196.989Z" fill="black"/>
<path opacity="0.1" d="M159.133 209.444C157.024 209.518 155.323 211.25 153.389 211.982C153.975 212.176 154.587 212.287 155.206 212.312C157.371 212.312 159.107 210.518 161.103 209.762C160.47 209.546 159.803 209.438 159.133 209.444Z" fill="black"/>
<path d="M141.081 136.921V133.232H139.252C139.35 132.679 139.677 130.748 139.611 129.973C139.611 129.973 140.463 127.7 139.767 125.805C139.86 125.828 139.957 125.828 140.05 125.808C140.143 125.788 140.231 125.747 140.305 125.689C140.38 125.63 140.44 125.556 140.481 125.471C140.522 125.386 140.542 125.294 140.541 125.2C140.617 124.442 141.701 122.548 139.611 122.017L139.398 121.431C139.542 121.196 139.616 120.925 139.611 120.65C139.611 120.023 139.264 119.514 138.838 119.514C138.411 119.514 138.064 120.023 138.064 120.65C138.056 120.953 138.147 121.25 138.323 121.5L138.217 122.175C138.217 122.175 136.051 121.644 136.981 125.206C136.981 125.206 137.212 125.811 137.599 125.811C137.599 125.811 137.368 128.545 137.755 129.522C137.755 129.522 137.599 131.945 137.908 132.476V133.234H135.974V136.985C134.976 137.208 134.348 137.549 134.348 137.932C134.348 138.602 136.289 139.145 138.682 139.145C141.075 139.145 143.016 138.602 143.016 137.932C143.016 137.508 142.248 137.137 141.081 136.921Z" fill="#6C63FF"/>
<path opacity="0.1" d="M138.875 120.611C138.881 120.886 138.807 121.156 138.664 121.392L138.875 121.978C140.966 122.507 139.883 124.401 139.805 125.159C139.806 125.253 139.786 125.345 139.745 125.43C139.704 125.515 139.644 125.589 139.57 125.648C139.495 125.707 139.408 125.748 139.314 125.768C139.221 125.789 139.124 125.788 139.031 125.766C139.727 127.661 138.875 129.934 138.875 129.934C138.941 130.715 138.614 132.638 138.516 133.193H139.215C139.312 132.638 139.641 130.709 139.576 129.934C139.576 129.934 140.425 127.661 139.729 125.766C139.822 125.788 139.919 125.789 140.012 125.768C140.106 125.748 140.193 125.707 140.268 125.648C140.342 125.589 140.402 125.515 140.443 125.43C140.484 125.345 140.504 125.253 140.503 125.159C140.581 124.401 141.664 122.507 139.576 121.978L139.362 121.392C139.506 121.156 139.58 120.886 139.576 120.611C139.576 119.984 139.228 119.475 138.802 119.475C138.675 119.477 138.552 119.52 138.453 119.598C138.595 119.726 138.707 119.883 138.78 120.058C138.853 120.233 138.886 120.422 138.875 120.611Z" fill="black"/>
<path opacity="0.1" d="M141.043 136.88V133.193H140.347V136.88C141.512 137.099 142.282 137.466 142.282 137.89C142.282 138.528 140.527 139.05 138.293 139.099H138.642C141.035 139.099 142.976 138.556 142.976 137.886C142.978 137.47 142.206 137.099 141.043 136.88Z" fill="black"/>
<path d="M143.111 101.279C141.516 100.889 139.801 100.59 138.281 101.19C137.583 101.492 136.942 101.906 136.382 102.414C135.866 102.853 135.363 103.34 135.088 103.955C134.759 104.697 134.797 105.536 134.777 106.345C134.757 107.153 134.647 108.02 134.099 108.624C133.885 108.858 133.608 109.049 133.47 109.335C133.271 109.725 133.403 110.207 133.598 110.604C133.794 111 134.055 111.375 134.145 111.809C134.266 112.408 134.029 113.029 133.692 113.545C133.355 114.06 132.916 114.505 132.567 115.015C132.218 115.525 131.947 116.255 132.264 116.816C132.463 117.177 132.874 117.401 133.081 117.757C133.181 117.927 133.231 118.124 133.337 118.29C133.63 118.745 134.246 118.856 134.791 118.911C135.662 119.001 136.634 119.028 137.31 118.481C137.774 118.106 138.01 117.522 138.123 116.943C138.237 116.363 138.241 115.771 138.347 115.185C138.422 114.767 138.546 114.349 138.51 113.927C138.46 113.365 138.127 112.871 137.866 112.365C137.472 111.663 137.289 110.867 137.336 110.067C137.413 109.274 137.84 108.491 138.554 108.114C139.057 107.843 139.677 107.774 140.104 107.399C140.78 106.814 140.678 105.775 140.8 104.898C140.816 104.703 140.881 104.514 140.989 104.349C141.201 104.068 141.588 103.992 141.947 103.959C142.782 103.888 143.67 103.976 144.37 104.431C145.019 104.882 145.468 105.558 145.626 106.321C145.78 107.08 145.766 107.863 145.584 108.616C145.612 108.286 146.131 108.196 146.37 108.421C146.609 108.645 146.621 109.032 146.554 109.356C146.274 110.723 145.01 111.699 144.585 113.027C144.417 113.574 144.395 114.155 144.523 114.713C144.651 115.27 144.924 115.786 145.315 116.21C145.42 116.336 145.558 116.432 145.714 116.488C145.874 116.518 146.037 116.526 146.199 116.511C146.835 116.511 147.381 116.939 147.866 117.345C148.351 117.751 148.863 118.186 149.509 118.235C150.156 118.284 150.852 117.714 150.66 117.118C150.591 116.94 150.479 116.781 150.335 116.654C149.936 116.251 149.414 115.935 149.138 115.443C148.658 114.617 148.951 113.584 149.254 112.68C149.557 111.776 149.852 110.741 149.36 109.918C149.128 109.528 148.742 109.235 148.562 108.821C148.463 108.581 148.411 108.326 148.408 108.067C148.367 107.122 148.608 106.159 148.408 105.238C148.29 104.793 148.082 104.376 147.796 104.012C147.511 103.647 147.154 103.341 146.747 103.113C146.334 102.867 145.884 102.683 145.415 102.568C145.233 102.523 144.958 102.533 144.83 102.4C144.703 102.268 144.659 102.031 144.497 101.883C144.107 101.555 143.588 101.395 143.111 101.279Z" fill="#FBC661"/>
<path opacity="0.05" d="M146.371 107.37C146.284 107.296 146.175 107.251 146.061 107.242C145.946 107.233 145.832 107.26 145.734 107.319C145.729 107.734 145.683 108.147 145.597 108.553C145.684 108.278 146.147 108.215 146.371 108.43C146.415 108.473 146.453 108.523 146.484 108.576C146.512 108.487 146.536 108.397 146.554 108.305C146.622 107.981 146.612 107.602 146.371 107.37Z" fill="black"/>
<path opacity="0.05" d="M148.389 107.017C148.391 107.095 148.397 107.173 148.407 107.25C148.465 106.716 148.478 106.178 148.445 105.643C148.4 106.099 148.381 106.558 148.389 107.017Z" fill="black"/>
<path opacity="0.05" d="M145.597 108.553C145.591 108.574 145.587 108.596 145.585 108.617L145.597 108.553Z" fill="black"/>
<path opacity="0.05" d="M148.921 113.868C148.998 113.471 149.105 113.079 149.24 112.697C149.482 111.982 149.713 111.183 149.556 110.473C149.482 110.871 149.376 111.262 149.24 111.644C148.999 112.351 148.764 113.154 148.921 113.868Z" fill="black"/>
<path opacity="0.05" d="M145.626 106.325C145.662 106.478 145.688 106.633 145.706 106.788C145.763 106.28 145.737 105.765 145.626 105.265C145.468 104.501 145.019 103.824 144.37 103.373C143.67 102.92 142.774 102.83 141.947 102.9C141.592 102.932 141.201 103.008 140.989 103.291C140.881 103.455 140.816 103.643 140.8 103.838C140.678 104.716 140.78 105.749 140.104 106.339C139.677 106.716 139.057 106.784 138.554 107.056C137.84 107.446 137.413 108.227 137.336 109.008C137.31 109.291 137.321 109.575 137.368 109.854C137.422 109.494 137.558 109.151 137.765 108.849C137.972 108.547 138.245 108.294 138.564 108.108C139.067 107.837 139.687 107.768 140.114 107.394C140.79 106.808 140.688 105.769 140.81 104.892C140.826 104.697 140.891 104.508 140.999 104.343C141.211 104.062 141.598 103.986 141.957 103.953C142.792 103.882 143.68 103.97 144.38 104.425C145.027 104.88 145.473 105.56 145.626 106.325Z" fill="black"/>
<path opacity="0.05" d="M150.459 116.802C150.339 116.932 150.192 117.034 150.027 117.102C149.862 117.17 149.684 117.2 149.506 117.193C148.869 117.144 148.345 116.708 147.862 116.302C147.38 115.896 146.831 115.476 146.195 115.468C146.033 115.482 145.87 115.474 145.71 115.445C145.555 115.389 145.417 115.293 145.311 115.168C144.869 114.693 144.579 114.102 144.478 113.467C144.396 113.959 144.429 114.462 144.573 114.941C144.717 115.419 144.97 115.859 145.311 116.228C145.416 116.354 145.554 116.45 145.71 116.505C145.87 116.536 146.033 116.544 146.195 116.529C146.831 116.529 147.378 116.956 147.862 117.363C148.347 117.769 148.859 118.204 149.506 118.253C150.152 118.302 150.848 117.732 150.656 117.136C150.614 117.013 150.547 116.899 150.459 116.802Z" fill="black"/>
<path opacity="0.05" d="M134.097 111.628C134.184 111.343 134.2 111.041 134.145 110.748C134.055 110.316 133.792 109.941 133.598 109.545C133.559 109.464 133.523 109.382 133.491 109.299C133.491 109.311 133.477 109.322 133.471 109.336C133.271 109.726 133.403 110.209 133.598 110.605C133.789 110.935 133.955 111.276 134.097 111.628Z" fill="black"/>
<path opacity="0.05" d="M138.453 113.609C138.419 113.783 138.379 113.955 138.347 114.129C138.242 114.715 138.236 115.3 138.124 115.886C138.012 116.472 137.775 117.058 137.31 117.425C136.634 117.97 135.663 117.945 134.791 117.855C134.247 117.8 133.631 117.687 133.337 117.234C133.232 117.066 133.182 116.87 133.082 116.699C132.883 116.339 132.47 116.113 132.264 115.757C132.25 115.734 132.238 115.707 132.226 115.681C132.15 115.863 132.114 116.058 132.121 116.254C132.127 116.451 132.176 116.643 132.264 116.82C132.464 117.181 132.875 117.406 133.082 117.761C133.182 117.931 133.232 118.128 133.337 118.294C133.631 118.749 134.247 118.86 134.791 118.915C135.663 119.005 136.634 119.032 137.31 118.485C137.775 118.11 138.01 117.527 138.124 116.947C138.238 116.367 138.242 115.775 138.347 115.189C138.423 114.771 138.547 114.353 138.511 113.932C138.501 113.823 138.481 113.715 138.453 113.609Z" fill="black"/>
<path d="M131.022 121.029C131.022 121.029 130.024 121.56 129.396 126.485C128.768 131.41 128.467 136.64 128.467 136.64C128.467 136.64 128.467 141.035 132.723 141.186C132.723 141.186 134.426 141.49 134.969 141.869C135.511 142.248 144.023 139.67 139.998 139.135C135.974 138.6 134.504 138.831 134.504 138.831C134.504 138.831 132.336 137.464 132.336 136.179C132.336 134.894 134.504 127.251 134.504 127.251L131.022 121.029Z" fill="#FBB3B2"/>
<path d="M131.005 124.892C131.113 125.15 131.169 125.425 131.259 125.69C131.503 126.299 131.839 126.867 132.256 127.378C132.763 128.069 133.576 129.698 134.081 130.389C134.383 129.374 134.826 128.405 135.397 127.508L131.025 120.576C131.025 120.576 130.682 120.756 130.274 121.885C130.252 122.09 130.24 122.295 130.238 122.496C130.21 122.954 130.278 123.413 130.437 123.845C130.597 124.21 130.852 124.527 131.005 124.892Z" fill="#3F3D56"/>
<path d="M145.995 110.849C145.995 110.802 145.98 110.757 145.953 110.719C145.925 110.68 145.887 110.652 145.842 110.636V110.38C145.887 110.365 145.926 110.336 145.953 110.298C145.981 110.26 145.996 110.214 145.995 110.167C145.996 110.125 145.985 110.084 145.963 110.047C145.941 110.011 145.909 109.982 145.871 109.962C145.833 109.942 145.79 109.933 145.747 109.936C145.704 109.939 145.663 109.953 145.628 109.977C145.593 110.001 145.565 110.035 145.548 110.073C145.531 110.112 145.525 110.154 145.531 110.196C145.537 110.238 145.555 110.277 145.582 110.31C145.61 110.342 145.646 110.366 145.686 110.38V110.636C145.641 110.651 145.602 110.68 145.574 110.719C145.546 110.757 145.531 110.803 145.531 110.85C145.531 110.897 145.546 110.943 145.574 110.981C145.602 111.019 145.641 111.048 145.686 111.064V111.317C145.641 111.333 145.602 111.362 145.574 111.4C145.546 111.438 145.531 111.484 145.531 111.531C145.531 111.578 145.546 111.624 145.574 111.662C145.602 111.701 145.641 111.73 145.686 111.745V112.001C145.635 112.019 145.592 112.054 145.564 112.1C145.537 112.146 145.527 112.2 145.536 112.253C145.545 112.305 145.573 112.353 145.615 112.388C145.657 112.422 145.709 112.441 145.764 112.441C145.819 112.441 145.871 112.422 145.913 112.388C145.955 112.353 145.983 112.305 145.992 112.253C146.001 112.2 145.991 112.146 145.964 112.1C145.936 112.054 145.893 112.019 145.842 112.001V111.745C145.887 111.73 145.926 111.701 145.954 111.662C145.982 111.624 145.997 111.578 145.997 111.531C145.997 111.484 145.982 111.438 145.954 111.4C145.926 111.362 145.887 111.333 145.842 111.317V111.064C145.887 111.048 145.926 111.019 145.954 110.98C145.981 110.942 145.996 110.896 145.995 110.849Z" fill="#EEEFF3"/>
<path d="M153.464 117.998C154.654 119.947 155.516 122.071 156.017 124.288C156.791 127.85 157.334 128.607 157.334 128.607C157.334 128.607 160.74 137.094 156.947 137.625C153.153 138.156 146.5 137.625 146.5 137.625C146.5 137.625 133.034 139.898 137.755 136.868C142.475 133.837 146.195 134.214 146.195 134.214C146.195 134.214 151.845 134.063 152.619 133.532L154.089 133.382L150.606 123.683L153.464 117.998Z" fill="#FBB3B2"/>
<path d="M149.866 123.569L151.49 127.279C152.587 125.114 153.849 122.46 154.083 120.054C154.104 119.609 154.094 119.163 154.053 118.719C153.874 118.356 153.64 118.024 153.357 117.732L149.866 123.569Z" fill="#3F3D56"/>
<path d="M96.8273 166.307C96.8273 166.307 92.9123 174.286 95.6307 177.101C98.3491 179.917 100.186 165.994 100.186 165.994L96.8273 166.307Z" fill="#A0616A"/>
<path d="M77.8908 203.621L73.5031 209.019C73.5031 209.019 64.634 212.462 72.7831 212.924C72.7831 212.924 76.7719 212.612 77.5697 212.063C78.3674 211.515 78.8481 210.421 80.4456 211.048C82.0431 211.675 83.8819 210.421 83.8819 210.421C83.8819 210.421 84.1213 204.319 82.5237 203.616C80.9262 202.913 77.8908 203.621 77.8908 203.621Z" fill="#36344A"/>
<path d="M94.2708 205.574L93.2317 210.034C93.2317 210.034 90.9142 215.353 94.2708 214.57C97.6274 213.787 99.3046 212.928 99.6237 211.364C99.9428 209.8 100.82 208.077 100.82 208.077C100.82 208.077 99.8611 205.652 98.9835 205.574C98.106 205.496 94.2708 205.574 94.2708 205.574Z" fill="#36344A"/>
<path d="M72.8569 151.673C72.8569 151.673 69.9809 171.005 71.9793 181.55C73.9777 192.095 76.367 202.907 76.367 202.907C76.367 202.907 73.5748 209.156 83.1479 205.02C83.1479 205.02 82.5097 189.529 80.5911 183.507C78.6725 177.484 81.5764 169.353 82.3741 169.119C82.3741 169.119 85.5652 184.844 88.6864 190.013C91.8076 195.182 93.5427 207.219 93.5427 207.219C93.5427 207.219 100.256 208.078 100.176 206.358C100.096 204.637 98.8977 190.085 94.9907 184.922C94.9907 184.922 91.6341 176.317 93.794 167.398C95.954 158.48 91.4766 155.428 91.4766 155.428L84.3685 147.215L77.2585 145.652L72.8569 151.673Z" fill="#3F3D56"/>
<path d="M93.9418 118.365C93.8669 118.62 93.746 118.859 93.5848 119.072C93.418 119.247 93.2208 119.392 93.0024 119.5C92.3003 119.887 91.5574 120.2 90.7866 120.431C90.5872 120.822 90.9103 121.261 91.2174 121.577L92.1189 122.511C92.6454 123.054 93.1719 123.596 93.7403 124.096C94.8394 125.062 96.0864 125.853 97.4359 126.44C98.1419 126.746 99.0534 126.965 99.6198 126.451C100.186 125.938 100.045 125.036 100.388 124.366C100.431 124.326 100.464 124.277 100.485 124.222C100.505 124.167 100.513 124.109 100.506 124.051C100.5 123.993 100.48 123.937 100.448 123.888C100.416 123.839 100.373 123.798 100.322 123.768C99.8591 123.321 99.7654 122.614 99.8631 121.985C99.9608 121.357 100.222 120.763 100.372 120.144C100.521 119.525 100.549 118.834 100.212 118.289C100.014 117.999 99.7573 117.752 99.4582 117.562C98.8035 117.107 98.0734 116.767 97.3003 116.555C96.9014 116.447 96.5026 116.375 96.1037 116.26C95.8564 116.186 95.1863 115.733 94.9748 115.77C94.5401 115.84 94.0953 117.91 93.9418 118.365Z" fill="#A0616A"/>
<path opacity="0.1" d="M93.9418 118.365C93.8669 118.62 93.746 118.859 93.5848 119.072C93.418 119.247 93.2208 119.392 93.0024 119.5C92.3003 119.887 91.5574 120.2 90.7866 120.431C90.5872 120.822 90.9103 121.261 91.2174 121.577L92.1189 122.511C92.6454 123.054 93.1719 123.596 93.7403 124.096C94.8394 125.062 96.0864 125.853 97.4359 126.44C98.1419 126.746 99.0534 126.965 99.6198 126.451C100.186 125.938 100.045 125.036 100.388 124.366C100.431 124.326 100.464 124.277 100.485 124.222C100.505 124.167 100.513 124.109 100.506 124.051C100.5 123.993 100.48 123.937 100.448 123.888C100.416 123.839 100.373 123.798 100.322 123.768C99.8591 123.321 99.7654 122.614 99.8631 121.985C99.9608 121.357 100.222 120.763 100.372 120.144C100.521 119.525 100.549 118.834 100.212 118.289C100.014 117.999 99.7573 117.752 99.4582 117.562C98.8035 117.107 98.0734 116.767 97.3003 116.555C96.9014 116.447 96.5026 116.375 96.1037 116.26C95.8564 116.186 95.1863 115.733 94.9748 115.77C94.5401 115.84 94.0953 117.91 93.9418 118.365Z" fill="black"/>
<path d="M93.0463 119.769C93.0363 119.615 93.0183 119.435 92.8847 119.351C92.8068 119.309 92.718 119.291 92.6294 119.299C90.7427 119.299 89.213 120.751 88.0264 122.185C85.5254 125.202 83.5529 128.607 81.8437 132.116C80.7927 134.278 79.8174 136.709 80.4935 139.012C80.7073 139.694 81.0253 140.342 81.4369 140.931C82.0037 141.774 82.6915 142.532 83.4791 143.183C83.7747 143.461 84.1411 143.657 84.5401 143.749C85.1385 143.843 85.7069 143.521 86.2174 143.21C87.2426 142.585 88.263 141.954 89.2788 141.316C90.9282 140.281 92.5776 139.228 94.0315 137.944C95.4854 136.659 96.7479 135.124 97.4639 133.339C97.769 132.581 97.9724 131.777 98.3155 131.042C98.838 129.912 99.6816 128.914 99.9808 127.707C100.122 127.131 100.134 126.535 100.286 125.959C100.406 125.501 100.613 125.067 100.713 124.604C100.812 124.141 100.789 123.628 100.487 123.249C99.9808 122.62 98.9956 122.714 98.1938 122.876C97.1488 123.087 95.286 123.606 94.2908 122.987C93.4392 122.454 93.1061 120.675 93.0463 119.769Z" fill="#EEEFF3"/>
<path d="M92.5137 123.507L91.3948 123.586L90.597 123.271L91.2372 121.395C91.2372 121.395 93.4909 121.644 93.7223 122.34C93.7223 122.34 93.8898 122.818 94.161 122.888C94.4323 122.959 95.5571 122.802 95.7904 123.349C96.0238 123.896 95.95 126.864 94.4323 126.474L93.7143 124.595L93.3932 124.126C93.3932 124.126 92.4339 123.976 92.5137 123.507Z" fill="#3F3D56"/>
<path d="M83.3236 140.956C83.3236 140.956 85.8007 124.997 93.5509 119.281C93.5509 119.281 93.6307 117.795 92.2725 117.951C90.9143 118.107 85.2422 117.012 85.2422 117.012L79.8893 127.184C79.8893 127.184 78.6926 136.649 77.8111 138.213C76.9296 139.777 71.4191 152.218 71.4191 152.218C71.4191 152.218 74.5363 162.466 79.1693 148.703C79.1693 148.703 75.5794 159.89 85.7209 160.986C95.8624 162.081 94.6698 160.359 94.6698 160.359L95.8664 152.224V146.12L98.1041 141.824L107.213 130.48C107.213 130.48 101.03 122.099 99.8492 122.847C99.8512 122.839 92.1927 134.698 83.3236 140.956Z" fill="#3F3D56"/>
<path d="M86.4408 117.641L85.2442 117.014C85.2442 117.014 81.5685 118.344 80.2901 123.509C80.2901 123.509 77.1748 125.698 75.1046 127.342C75.1046 127.342 72.3125 122.265 72.3125 120.535C72.3125 120.535 67.6775 123.587 66.6384 122.804C66.6384 122.804 69.4306 135.399 74.7098 134.46C79.9889 133.52 81.9753 130.47 81.9753 130.47L86.4408 117.641Z" fill="#3F3D56"/>
<path d="M104.179 130.941L107.214 130.471C107.214 130.471 109.133 132.974 105.697 136.651L103.618 149.09C103.618 149.09 103.858 153.236 103.14 156.366C102.422 159.497 101.301 169.118 101.301 169.118C101.301 169.118 97.6272 167.788 95.6288 168.022L98.6643 139.162L104.179 130.941Z" fill="#3F3D56"/>
<path d="M72.1388 121.393C72.1388 121.393 70.4595 111.535 67.5836 115.212C64.7076 118.889 67.9027 123.974 67.9027 123.974L72.1388 121.393Z" fill="#A0616A"/>
<path d="M100.064 121.906C103.639 121.906 106.536 119.069 106.536 115.569C106.536 112.069 103.639 109.232 100.064 109.232C96.4902 109.232 93.5927 112.069 93.5927 115.569C93.5927 119.069 96.4902 121.906 100.064 121.906Z" fill="#A0616A"/>
<path d="M105.238 108.733C105.09 108.553 104.957 108.362 104.839 108.161C104.45 107.603 103.842 107.237 103.243 106.909C102.148 106.324 100.9 105.773 99.6813 106.058C98.8377 106.253 98.1217 106.839 97.2721 107.007C96.4225 107.175 95.4133 106.989 94.8409 107.614C94.2686 108.239 94.5218 109.223 94.0292 109.87C93.756 110.227 93.2494 110.555 93.387 110.981C93.4449 111.161 93.6144 111.287 93.6922 111.461C93.8298 111.766 93.6603 112.115 93.6523 112.449C93.6423 112.943 93.9873 113.367 94.2307 113.801C94.474 114.234 94.6056 114.84 94.2307 115.179C95.4999 114.185 96.8907 113.35 98.371 112.693C98.3688 112.894 98.3154 113.091 98.2155 113.266C99.0171 113.15 99.8104 112.985 100.591 112.772L100.18 113.543L101.943 112.789C102.42 112.584 103.018 112.399 103.425 112.711C103.612 112.886 103.744 113.111 103.804 113.357C104.036 114.063 104.174 114.795 104.215 115.535C104.258 116.37 104.215 117.292 104.767 117.931C104.924 118.093 105.112 118.221 105.322 118.308C105.531 118.396 105.757 118.44 105.984 118.439C106.212 118.437 106.437 118.39 106.645 118.3C106.853 118.21 107.04 118.079 107.194 117.915C107.35 117.329 107.116 116.724 107.104 116.122C107.087 115.246 107.537 114.422 107.619 113.549C107.725 112.445 107.059 111.791 106.755 110.815C106.638 110.44 106.71 109.997 106.484 109.643C106.193 109.206 105.599 109.108 105.238 108.733Z" fill="#3F3D56"/>
<path d="M67.6255 126.607L69.9331 122.813L68.0504 121.715C68.4971 121.204 70.0448 119.415 70.4576 118.579C70.4576 118.579 72.7551 116.751 73.2238 114.385C73.2238 114.385 73.8461 114.959 74.4005 114.225C74.955 113.49 77.2525 112.194 75.4356 110.395L75.5812 109.667C75.8771 109.511 76.1225 109.277 76.2892 108.991C76.6881 108.345 76.6422 107.624 76.2034 107.359C75.7647 107.093 75.0886 107.417 74.6957 108.064C74.4998 108.37 74.4077 108.73 74.4324 109.091L73.9079 109.716C73.9079 109.716 72.0092 107.87 70.7368 112.09C70.7368 112.09 70.5972 112.854 70.9961 113.086C70.9961 113.086 69.0495 115.752 68.8322 116.992C68.8322 116.992 67.1569 119.394 67.1429 120.116L66.6682 120.897L64.6738 119.737L62.3284 123.598C61.1697 123.233 60.3041 123.207 60.0648 123.598C59.646 124.287 61.3013 126.009 63.7644 127.445C66.2275 128.88 68.5609 129.483 68.9797 128.796C69.249 128.372 68.6886 127.529 67.6255 126.607Z" fill="#6C63FF"/>
<path opacity="0.1" d="M75.5552 108.504C75.3886 108.789 75.1442 109.024 74.8492 109.181L74.7016 109.908C76.5205 111.706 74.221 113.005 73.6665 113.739C73.6094 113.836 73.5304 113.919 73.4354 113.982C73.3405 114.044 73.2322 114.085 73.1188 114.1C73.0054 114.115 72.89 114.105 72.7813 114.07C72.6726 114.035 72.5736 113.976 72.4918 113.897C72.0232 116.264 69.7256 118.092 69.7256 118.092C69.3088 118.929 67.7651 120.718 67.3184 121.228L68.0343 121.646C68.4811 121.136 70.0288 119.345 70.4416 118.51C70.4416 118.51 72.7391 116.682 73.2078 114.315C73.2078 114.315 73.8301 114.889 74.3845 114.155C74.939 113.421 77.2365 112.124 75.4196 110.325L75.5652 109.597C75.8604 109.441 76.105 109.207 76.2712 108.921C76.6701 108.277 76.6262 107.555 76.1875 107.289C76.0558 107.215 75.9031 107.186 75.7527 107.205C75.8199 107.422 75.8371 107.651 75.8029 107.876C75.7688 108.101 75.6842 108.315 75.5552 108.504Z" fill="black"/>
<path opacity="0.1" d="M67.6157 126.542L69.9232 122.748L69.2112 122.33L66.9037 126.124C67.9667 127.048 68.5251 127.882 68.2619 128.323C67.863 128.977 65.731 128.462 63.4055 127.177C63.5232 127.247 63.6409 127.319 63.7625 127.39C66.2236 128.825 68.559 129.43 68.9779 128.741C69.2312 128.307 68.6727 127.464 67.6157 126.542Z" fill="black"/>
<defs>
<filter id="filter0_d" x="0" y="20.541" width="240" height="238.99" filterUnits="userSpaceOnUse" color-interpolation-filters="sRGB">
<feFlood flood-opacity="0" result="BackgroundImageFix"/>
<feColorMatrix in="SourceAlpha" type="matrix" values="0 0 0 0 0 0 0 0 0 0 0 0 0 0 0 0 0 0 127 0"/>
<feOffset dy="1"/>
<feGaussianBlur stdDeviation="1"/>
<feColorMatrix type="matrix" values="0 0 0 0 0.0588235 0 0 0 0 0.0588235 0 0 0 0 0.0588235 0 0 0 0.1 0"/>
<feBlend mode="normal" in2="BackgroundImageFix" result="effect1_dropShadow"/>
<feBlend mode="normal" in="SourceGraphic" in2="effect1_dropShadow" result="shape"/>
</filter>
</defs>
</svg>
