<svg width="214" height="237" viewBox="0 0 214 237" fill="none" xmlns="http://www.w3.org/2000/svg">
<g filter="url(#filter0_d)">
<rect x="2" y="19.5762" width="210" height="213.559" rx="20" fill="#FF576D"/>
</g>
<path d="M33.1445 10C33.1445 4.47715 37.6217 0 43.1445 0H170.856C176.379 0 180.856 4.47715 180.856 10V19.5763H33.1445V10Z" fill="#F12587"/>
<path d="M92.044 14.9473C91.12 14.9473 90.3127 14.7373 89.622 14.3173C88.9313 13.8973 88.3947 13.314 88.012 12.5673C87.6293 11.8113 87.438 10.934 87.438 9.9353C87.438 8.9273 87.634 8.04063 88.026 7.2753C88.4273 6.50063 88.992 5.89863 89.72 5.4693C90.4573 5.03063 91.33 4.8113 92.338 4.8113C93.486 4.8113 94.438 5.08663 95.194 5.6373C95.95 6.18796 96.44 6.94863 96.664 7.9193H94.662C94.5127 7.46196 94.242 7.1073 93.85 6.8553C93.458 6.59396 92.954 6.4633 92.338 6.4633C91.358 6.4633 90.602 6.77596 90.07 7.4013C89.538 8.0173 89.272 8.86663 89.272 9.9493C89.272 11.032 89.5333 11.872 90.056 12.4693C90.588 13.0573 91.3067 13.3513 92.212 13.3513C93.0987 13.3513 93.766 13.1133 94.214 12.6373C94.6713 12.152 94.9467 11.5173 95.04 10.7333H92.562V9.3893H96.846V14.7793H95.194L95.054 13.4913C94.7367 13.958 94.34 14.3173 93.864 14.5693C93.388 14.8213 92.7813 14.9473 92.044 14.9473ZM100.94 14.9473C100.343 14.9473 99.8528 14.854 99.4701 14.6673C99.0875 14.4713 98.8028 14.2146 98.6161 13.8973C98.4295 13.58 98.3361 13.23 98.3361 12.8473C98.3361 12.2033 98.5881 11.6806 99.0921 11.2793C99.5961 10.878 100.352 10.6773 101.36 10.6773H103.124V10.5093C103.124 10.0333 102.989 9.6833 102.718 9.4593C102.447 9.2353 102.111 9.1233 101.71 9.1233C101.346 9.1233 101.029 9.21196 100.758 9.3893C100.487 9.5573 100.319 9.8093 100.254 10.1453H98.5041C98.5508 9.6413 98.7188 9.20263 99.0081 8.8293C99.3068 8.45596 99.6895 8.1713 100.156 7.9753C100.623 7.76996 101.145 7.6673 101.724 7.6673C102.713 7.6673 103.493 7.91463 104.062 8.4093C104.631 8.90396 104.916 9.60396 104.916 10.5093V14.7793H103.39L103.222 13.6593C103.017 14.0326 102.727 14.3406 102.354 14.5833C101.99 14.826 101.519 14.9473 100.94 14.9473ZM101.346 13.5473C101.859 13.5473 102.256 13.3793 102.536 13.0433C102.825 12.7073 103.007 12.292 103.082 11.7973H101.556C101.08 11.7973 100.739 11.886 100.534 12.0633C100.329 12.2313 100.226 12.4413 100.226 12.6933C100.226 12.964 100.329 13.174 100.534 13.3233C100.739 13.4726 101.01 13.5473 101.346 13.5473ZM106.626 14.7793V7.8353H108.208L108.362 8.7733C108.586 8.4373 108.88 8.1713 109.244 7.9753C109.618 7.76996 110.047 7.6673 110.532 7.6673C111.606 7.6673 112.366 8.08263 112.814 8.9133C113.066 8.53063 113.402 8.2273 113.822 8.0033C114.252 7.7793 114.718 7.6673 115.222 7.6673C116.128 7.6673 116.823 7.93796 117.308 8.4793C117.794 9.02063 118.036 9.81396 118.036 10.8593V14.7793H116.244V11.0273C116.244 10.43 116.128 9.97263 115.894 9.6553C115.67 9.33796 115.32 9.1793 114.844 9.1793C114.359 9.1793 113.967 9.35663 113.668 9.7113C113.379 10.066 113.234 10.5606 113.234 11.1953V14.7793H111.442V11.0273C111.442 10.43 111.326 9.97263 111.092 9.6553C110.859 9.33796 110.5 9.1793 110.014 9.1793C109.538 9.1793 109.151 9.35663 108.852 9.7113C108.563 10.066 108.418 10.5606 108.418 11.1953V14.7793H106.626ZM123.112 14.9473C122.412 14.9473 121.791 14.798 121.25 14.4993C120.708 14.2006 120.284 13.7806 119.976 13.2393C119.668 12.698 119.514 12.0726 119.514 11.3633C119.514 10.6446 119.663 10.0053 119.962 9.4453C120.27 8.8853 120.69 8.4513 121.222 8.1433C121.763 7.82596 122.398 7.6673 123.126 7.6673C123.807 7.6673 124.409 7.81663 124.932 8.1153C125.454 8.41396 125.86 8.82463 126.15 9.3473C126.448 9.86063 126.598 10.4346 126.598 11.0693C126.598 11.172 126.593 11.2793 126.584 11.3913C126.584 11.5033 126.579 11.62 126.57 11.7413H121.292C121.329 12.2826 121.516 12.7073 121.852 13.0153C122.197 13.3233 122.612 13.4773 123.098 13.4773C123.462 13.4773 123.765 13.398 124.008 13.2393C124.26 13.0713 124.446 12.8566 124.568 12.5953H126.388C126.257 13.034 126.038 13.4353 125.73 13.7993C125.431 14.154 125.058 14.434 124.61 14.6393C124.171 14.8446 123.672 14.9473 123.112 14.9473ZM123.126 9.1233C122.687 9.1233 122.3 9.2493 121.964 9.5013C121.628 9.74396 121.413 10.1173 121.32 10.6213H124.778C124.75 10.164 124.582 9.79996 124.274 9.5293C123.966 9.25863 123.583 9.1233 123.126 9.1233Z" fill="white"/>
<path d="M44.9019 88.8145L48.7719 78.3145H50.1069L53.9619 88.8145H52.6269L51.6669 86.1145H47.1969L46.2219 88.8145H44.9019ZM47.5719 85.0945H51.2919L49.4319 79.9045L47.5719 85.0945ZM59.4176 88.8145V81.3745H60.5576L60.6626 82.7995C60.8926 82.3095 61.2426 81.9195 61.7126 81.6295C62.1826 81.3395 62.7626 81.1945 63.4526 81.1945V82.5145H63.1076C62.6676 82.5145 62.2626 82.5945 61.8926 82.7545C61.5226 82.9045 61.2276 83.1645 61.0076 83.5345C60.7876 83.9045 60.6776 84.4145 60.6776 85.0645V88.8145H59.4176ZM67.3418 88.9945C66.7218 88.9945 66.2068 88.8895 65.7968 88.6795C65.3868 88.4695 65.0818 88.1895 64.8818 87.8395C64.6818 87.4895 64.5818 87.1095 64.5818 86.6995C64.5818 85.9395 64.8718 85.3545 65.4518 84.9445C66.0318 84.5345 66.8218 84.3295 67.8218 84.3295H69.8318V84.2395C69.8318 83.5895 69.6618 83.0995 69.3218 82.7695C68.9818 82.4295 68.5268 82.2595 67.9568 82.2595C67.4668 82.2595 67.0418 82.3845 66.6818 82.6345C66.3318 82.8745 66.1118 83.2295 66.0218 83.6995H64.7318C64.7818 83.1595 64.9618 82.7045 65.2718 82.3345C65.5918 81.9645 65.9868 81.6845 66.4568 81.4945C66.9268 81.2945 67.4268 81.1945 67.9568 81.1945C68.9968 81.1945 69.7768 81.4745 70.2968 82.0345C70.8268 82.5845 71.0918 83.3195 71.0918 84.2395V88.8145H69.9668L69.8918 87.4795C69.6818 87.8995 69.3718 88.2595 68.9618 88.5595C68.5618 88.8495 68.0218 88.9945 67.3418 88.9945ZM67.5368 87.9295C68.0168 87.9295 68.4268 87.8045 68.7668 87.5545C69.1168 87.3045 69.3818 86.9795 69.5618 86.5795C69.7418 86.1795 69.8318 85.7595 69.8318 85.3195V85.3045H67.9268C67.1868 85.3045 66.6618 85.4345 66.3518 85.6945C66.0518 85.9445 65.9018 86.2595 65.9018 86.6395C65.9018 87.0295 66.0418 87.3445 66.3218 87.5845C66.6118 87.8145 67.0168 87.9295 67.5368 87.9295ZM76.4021 88.9945C75.6921 88.9945 75.0521 88.8345 74.4821 88.5145C73.9221 88.1845 73.4771 87.7295 73.1471 87.1495C72.8271 86.5595 72.6671 85.8745 72.6671 85.0945C72.6671 84.3145 72.8271 83.6345 73.1471 83.0545C73.4771 82.4645 73.9221 82.0095 74.4821 81.6895C75.0521 81.3595 75.6921 81.1945 76.4021 81.1945C77.2821 81.1945 78.0221 81.4245 78.6221 81.8845C79.2321 82.3445 79.6171 82.9595 79.7771 83.7295H78.4871C78.3871 83.2695 78.1421 82.9145 77.7521 82.6645C77.3621 82.4045 76.9071 82.2745 76.3871 82.2745C75.9671 82.2745 75.5721 82.3795 75.2021 82.5895C74.8321 82.7995 74.5321 83.1145 74.3021 83.5345C74.0721 83.9545 73.9571 84.4745 73.9571 85.0945C73.9571 85.7145 74.0721 86.2345 74.3021 86.6545C74.5321 87.0745 74.8321 87.3945 75.2021 87.6145C75.5721 87.8245 75.9671 87.9295 76.3871 87.9295C76.9071 87.9295 77.3621 87.8045 77.7521 87.5545C78.1421 87.2945 78.3871 86.9295 78.4871 86.4595H79.7771C79.6271 87.2095 79.2471 87.8195 78.6371 88.2895C78.0271 88.7595 77.2821 88.9945 76.4021 88.9945ZM84.8817 88.9945C84.1717 88.9945 83.5417 88.8345 82.9917 88.5145C82.4417 88.1845 82.0067 87.7295 81.6867 87.1495C81.3767 86.5695 81.2217 85.8845 81.2217 85.0945C81.2217 84.3145 81.3767 83.6345 81.6867 83.0545C81.9967 82.4645 82.4267 82.0095 82.9767 81.6895C83.5367 81.3595 84.1817 81.1945 84.9117 81.1945C85.6317 81.1945 86.2517 81.3595 86.7717 81.6895C87.3017 82.0095 87.7067 82.4345 87.9867 82.9645C88.2667 83.4945 88.4067 84.0645 88.4067 84.6745C88.4067 84.7845 88.4017 84.8945 88.3917 85.0045C88.3917 85.1145 88.3917 85.2395 88.3917 85.3795H82.4667C82.4967 85.9495 82.6267 86.4245 82.8567 86.8045C83.0967 87.1745 83.3917 87.4545 83.7417 87.6445C84.1017 87.8345 84.4817 87.9295 84.8817 87.9295C85.4017 87.9295 85.8367 87.8095 86.1867 87.5695C86.5367 87.3295 86.7917 87.0045 86.9517 86.5945H88.1967C87.9967 87.2845 87.6117 87.8595 87.0417 88.3195C86.4817 88.7695 85.7617 88.9945 84.8817 88.9945ZM84.8817 82.2595C84.2817 82.2595 83.7467 82.4445 83.2767 82.8145C82.8167 83.1745 82.5517 83.7045 82.4817 84.4045H87.1617C87.1317 83.7345 86.9017 83.2095 86.4717 82.8295C86.0417 82.4495 85.5117 82.2595 84.8817 82.2595ZM96.5215 88.9945C95.9015 88.9945 95.3865 88.8895 94.9765 88.6795C94.5665 88.4695 94.2615 88.1895 94.0615 87.8395C93.8615 87.4895 93.7615 87.1095 93.7615 86.6995C93.7615 85.9395 94.0515 85.3545 94.6315 84.9445C95.2115 84.5345 96.0015 84.3295 97.0015 84.3295H99.0115V84.2395C99.0115 83.5895 98.8415 83.0995 98.5015 82.7695C98.1615 82.4295 97.7065 82.2595 97.1365 82.2595C96.6465 82.2595 96.2215 82.3845 95.8615 82.6345C95.5115 82.8745 95.2915 83.2295 95.2015 83.6995H93.9115C93.9615 83.1595 94.1415 82.7045 94.4515 82.3345C94.7715 81.9645 95.1665 81.6845 95.6365 81.4945C96.1065 81.2945 96.6065 81.1945 97.1365 81.1945C98.1765 81.1945 98.9565 81.4745 99.4765 82.0345C100.007 82.5845 100.272 83.3195 100.272 84.2395V88.8145H99.1465L99.0715 87.4795C98.8615 87.8995 98.5515 88.2595 98.1415 88.5595C97.7415 88.8495 97.2015 88.9945 96.5215 88.9945ZM96.7165 87.9295C97.1965 87.9295 97.6065 87.8045 97.9465 87.5545C98.2965 87.3045 98.5615 86.9795 98.7415 86.5795C98.9215 86.1795 99.0115 85.7595 99.0115 85.3195V85.3045H97.1065C96.3665 85.3045 95.8415 85.4345 95.5315 85.6945C95.2315 85.9445 95.0815 86.2595 95.0815 86.6395C95.0815 87.0295 95.2215 87.3445 95.5015 87.5845C95.7915 87.8145 96.1965 87.9295 96.7165 87.9295ZM105.102 86.4745C104.682 86.4745 104.297 86.4195 103.947 86.3095L103.197 87.0145C103.307 87.0945 103.442 87.1645 103.602 87.2245C103.772 87.2745 104.012 87.3245 104.322 87.3745C104.632 87.4145 105.067 87.4595 105.627 87.5095C106.627 87.5795 107.342 87.8095 107.772 88.1995C108.202 88.5895 108.417 89.0995 108.417 89.7295C108.417 90.1595 108.297 90.5695 108.057 90.9595C107.827 91.3495 107.467 91.6695 106.977 91.9195C106.497 92.1695 105.877 92.2945 105.117 92.2945C104.447 92.2945 103.852 92.2045 103.332 92.0245C102.812 91.8545 102.407 91.5895 102.117 91.2295C101.827 90.8795 101.682 90.4345 101.682 89.8945C101.682 89.6145 101.757 89.3095 101.907 88.9795C102.057 88.6595 102.337 88.3545 102.747 88.0645C102.527 87.9745 102.337 87.8795 102.177 87.7795C102.027 87.6695 101.887 87.5495 101.757 87.4195V87.0745L103.032 85.8145C102.442 85.3145 102.147 84.6545 102.147 83.8345C102.147 83.3445 102.262 82.8995 102.492 82.4995C102.722 82.0995 103.057 81.7845 103.497 81.5545C103.937 81.3145 104.472 81.1945 105.102 81.1945C105.532 81.1945 105.922 81.2545 106.272 81.3745H109.017V82.3195L107.622 82.3795C107.912 82.7995 108.057 83.2845 108.057 83.8345C108.057 84.3245 107.937 84.7695 107.697 85.1695C107.467 85.5695 107.132 85.8895 106.692 86.1295C106.262 86.3595 105.732 86.4745 105.102 86.4745ZM105.102 85.4395C105.632 85.4395 106.052 85.3045 106.362 85.0345C106.682 84.7545 106.842 84.3545 106.842 83.8345C106.842 83.3245 106.682 82.9345 106.362 82.6645C106.052 82.3845 105.632 82.2445 105.102 82.2445C104.562 82.2445 104.132 82.3845 103.812 82.6645C103.502 82.9345 103.347 83.3245 103.347 83.8345C103.347 84.3545 103.502 84.7545 103.812 85.0345C104.132 85.3045 104.562 85.4395 105.102 85.4395ZM102.912 89.7745C102.912 90.2745 103.122 90.6445 103.542 90.8845C103.962 91.1345 104.487 91.2595 105.117 91.2595C105.737 91.2595 106.232 91.1245 106.602 90.8545C106.982 90.5845 107.172 90.2245 107.172 89.7745C107.172 89.4545 107.042 89.1745 106.782 88.9345C106.522 88.7045 106.042 88.5695 105.342 88.5295C104.792 88.4895 104.317 88.4395 103.917 88.3795C103.507 88.5995 103.237 88.8345 103.107 89.0845C102.977 89.3445 102.912 89.5745 102.912 89.7745ZM112.913 88.9945C112.293 88.9945 111.778 88.8895 111.368 88.6795C110.958 88.4695 110.653 88.1895 110.453 87.8395C110.253 87.4895 110.153 87.1095 110.153 86.6995C110.153 85.9395 110.443 85.3545 111.023 84.9445C111.603 84.5345 112.393 84.3295 113.393 84.3295H115.403V84.2395C115.403 83.5895 115.233 83.0995 114.893 82.7695C114.553 82.4295 114.098 82.2595 113.528 82.2595C113.038 82.2595 112.613 82.3845 112.253 82.6345C111.903 82.8745 111.683 83.2295 111.593 83.6995H110.303C110.353 83.1595 110.533 82.7045 110.843 82.3345C111.163 81.9645 111.558 81.6845 112.028 81.4945C112.498 81.2945 112.998 81.1945 113.528 81.1945C114.568 81.1945 115.348 81.4745 115.868 82.0345C116.398 82.5845 116.663 83.3195 116.663 84.2395V88.8145H115.538L115.463 87.4795C115.253 87.8995 114.943 88.2595 114.533 88.5595C114.133 88.8495 113.593 88.9945 112.913 88.9945ZM113.108 87.9295C113.588 87.9295 113.998 87.8045 114.338 87.5545C114.688 87.3045 114.953 86.9795 115.133 86.5795C115.313 86.1795 115.403 85.7595 115.403 85.3195V85.3045H113.498C112.758 85.3045 112.233 85.4345 111.923 85.6945C111.623 85.9445 111.473 86.2595 111.473 86.6395C111.473 87.0295 111.613 87.3445 111.893 87.5845C112.183 87.8145 112.588 87.9295 113.108 87.9295ZM119.318 79.7245C119.068 79.7245 118.858 79.6445 118.688 79.4845C118.528 79.3145 118.448 79.1045 118.448 78.8545C118.448 78.6145 118.528 78.4145 118.688 78.2545C118.858 78.0945 119.068 78.0145 119.318 78.0145C119.558 78.0145 119.763 78.0945 119.933 78.2545C120.103 78.4145 120.188 78.6145 120.188 78.8545C120.188 79.1045 120.103 79.3145 119.933 79.4845C119.763 79.6445 119.558 79.7245 119.318 79.7245ZM118.688 88.8145V81.3745H119.948V88.8145H118.688ZM122.142 88.8145V81.3745H123.282L123.357 82.7095C123.597 82.2395 123.942 81.8695 124.392 81.5995C124.842 81.3295 125.352 81.1945 125.922 81.1945C126.802 81.1945 127.502 81.4645 128.022 82.0045C128.552 82.5345 128.817 83.3545 128.817 84.4645V88.8145H127.557V84.5995C127.557 83.0495 126.917 82.2745 125.637 82.2745C124.997 82.2745 124.462 82.5095 124.032 82.9795C123.612 83.4395 123.402 84.0995 123.402 84.9595V88.8145H122.142ZM133.576 88.9945C132.686 88.9945 131.946 88.7695 131.356 88.3195C130.766 87.8695 130.421 87.2595 130.321 86.4895H131.611C131.691 86.8795 131.896 87.2195 132.226 87.5095C132.566 87.7895 133.021 87.9295 133.591 87.9295C134.121 87.9295 134.511 87.8195 134.761 87.5995C135.011 87.3695 135.136 87.0995 135.136 86.7895C135.136 86.3395 134.971 86.0395 134.641 85.8895C134.321 85.7395 133.866 85.6045 133.276 85.4845C132.876 85.4045 132.476 85.2895 132.076 85.1395C131.676 84.9895 131.341 84.7795 131.071 84.5095C130.801 84.2295 130.666 83.8645 130.666 83.4145C130.666 82.7645 130.906 82.2345 131.386 81.8245C131.876 81.4045 132.536 81.1945 133.366 81.1945C134.156 81.1945 134.801 81.3945 135.301 81.7945C135.811 82.1845 136.106 82.7445 136.186 83.4745H134.941C134.891 83.0945 134.726 82.7995 134.446 82.5895C134.176 82.3695 133.811 82.2595 133.351 82.2595C132.901 82.2595 132.551 82.3545 132.301 82.5445C132.061 82.7345 131.941 82.9845 131.941 83.2945C131.941 83.5945 132.096 83.8295 132.406 83.9995C132.726 84.1695 133.156 84.3145 133.696 84.4345C134.156 84.5345 134.591 84.6595 135.001 84.8095C135.421 84.9495 135.761 85.1645 136.021 85.4545C136.291 85.7345 136.426 86.1445 136.426 86.6845C136.436 87.3545 136.181 87.9095 135.661 88.3495C135.151 88.7795 134.456 88.9945 133.576 88.9945ZM140.829 88.8145C140.149 88.8145 139.614 88.6495 139.224 88.3195C138.834 87.9895 138.639 87.3945 138.639 86.5345V82.4395H137.349V81.3745H138.639L138.804 79.5895H139.899V81.3745H142.089V82.4395H139.899V86.5345C139.899 87.0045 139.994 87.3245 140.184 87.4945C140.374 87.6545 140.709 87.7345 141.189 87.7345H141.969V88.8145H140.829ZM150.6 88.8145C149.92 88.8145 149.385 88.6495 148.995 88.3195C148.605 87.9895 148.41 87.3945 148.41 86.5345V82.4395H147.12V81.3745H148.41L148.575 79.5895H149.67V81.3745H151.86V82.4395H149.67V86.5345C149.67 87.0045 149.765 87.3245 149.955 87.4945C150.145 87.6545 150.48 87.7345 150.96 87.7345H151.74V88.8145H150.6ZM153.461 88.8145V78.0145H154.721V82.6495C154.971 82.1895 155.326 81.8345 155.786 81.5845C156.246 81.3245 156.746 81.1945 157.286 81.1945C158.146 81.1945 158.836 81.4645 159.356 82.0045C159.876 82.5345 160.136 83.3545 160.136 84.4645V88.8145H158.891V84.5995C158.891 83.0495 158.266 82.2745 157.016 82.2745C156.366 82.2745 155.821 82.5095 155.381 82.9795C154.941 83.4395 154.721 84.0995 154.721 84.9595V88.8145H153.461ZM165.39 88.9945C164.68 88.9945 164.05 88.8345 163.5 88.5145C162.95 88.1845 162.515 87.7295 162.195 87.1495C161.885 86.5695 161.73 85.8845 161.73 85.0945C161.73 84.3145 161.885 83.6345 162.195 83.0545C162.505 82.4645 162.935 82.0095 163.485 81.6895C164.045 81.3595 164.69 81.1945 165.42 81.1945C166.14 81.1945 166.76 81.3595 167.28 81.6895C167.81 82.0095 168.215 82.4345 168.495 82.9645C168.775 83.4945 168.915 84.0645 168.915 84.6745C168.915 84.7845 168.91 84.8945 168.9 85.0045C168.9 85.1145 168.9 85.2395 168.9 85.3795H162.975C163.005 85.9495 163.135 86.4245 163.365 86.8045C163.605 87.1745 163.9 87.4545 164.25 87.6445C164.61 87.8345 164.99 87.9295 165.39 87.9295C165.91 87.9295 166.345 87.8095 166.695 87.5695C167.045 87.3295 167.3 87.0045 167.46 86.5945H168.705C168.505 87.2845 168.12 87.8595 167.55 88.3195C166.99 88.7695 166.27 88.9945 165.39 88.9945ZM165.39 82.2595C164.79 82.2595 164.255 82.4445 163.785 82.8145C163.325 83.1745 163.06 83.7045 162.99 84.4045H167.67C167.64 83.7345 167.41 83.2095 166.98 82.8295C166.55 82.4495 166.02 82.2595 165.39 82.2595ZM34.5075 108.994C33.7975 108.994 33.1575 108.834 32.5875 108.514C32.0275 108.184 31.5825 107.729 31.2525 107.149C30.9325 106.559 30.7725 105.874 30.7725 105.094C30.7725 104.314 30.9325 103.634 31.2525 103.054C31.5825 102.464 32.0275 102.009 32.5875 101.689C33.1575 101.359 33.7975 101.194 34.5075 101.194C35.3875 101.194 36.1275 101.424 36.7275 101.884C37.3375 102.344 37.7225 102.959 37.8825 103.729H36.5925C36.4925 103.269 36.2475 102.914 35.8575 102.664C35.4675 102.404 35.0125 102.274 34.4925 102.274C34.0725 102.274 33.6775 102.379 33.3075 102.589C32.9375 102.799 32.6375 103.114 32.4075 103.534C32.1775 103.954 32.0625 104.474 32.0625 105.094C32.0625 105.714 32.1775 106.234 32.4075 106.654C32.6375 107.074 32.9375 107.394 33.3075 107.614C33.6775 107.824 34.0725 107.929 34.4925 107.929C35.0125 107.929 35.4675 107.804 35.8575 107.554C36.2475 107.294 36.4925 106.929 36.5925 106.459H37.8825C37.7325 107.209 37.3525 107.819 36.7425 108.289C36.1325 108.759 35.3875 108.994 34.5075 108.994ZM39.6422 108.814V98.0145H40.9022V108.814H39.6422ZM46.3574 108.994C45.6574 108.994 45.0274 108.834 44.4674 108.514C43.9074 108.194 43.4624 107.744 43.1324 107.164C42.8124 106.574 42.6524 105.884 42.6524 105.094C42.6524 104.304 42.8174 103.619 43.1474 103.039C43.4774 102.449 43.9224 101.994 44.4824 101.674C45.0524 101.354 45.6874 101.194 46.3874 101.194C47.0874 101.194 47.7174 101.354 48.2774 101.674C48.8374 101.994 49.2774 102.449 49.5974 103.039C49.9274 103.619 50.0924 104.304 50.0924 105.094C50.0924 105.884 49.9274 106.574 49.5974 107.164C49.2674 107.744 48.8174 108.194 48.2474 108.514C47.6874 108.834 47.0574 108.994 46.3574 108.994ZM46.3574 107.914C46.7874 107.914 47.1874 107.809 47.5574 107.599C47.9274 107.389 48.2274 107.074 48.4574 106.654C48.6874 106.234 48.8024 105.714 48.8024 105.094C48.8024 104.474 48.6874 103.954 48.4574 103.534C48.2374 103.114 47.9424 102.799 47.5724 102.589C47.2024 102.379 46.8074 102.274 46.3874 102.274C45.9574 102.274 45.5574 102.379 45.1874 102.589C44.8174 102.799 44.5174 103.114 44.2874 103.534C44.0574 103.954 43.9424 104.474 43.9424 105.094C43.9424 105.714 44.0574 106.234 44.2874 106.654C44.5174 107.074 44.8124 107.389 45.1724 107.599C45.5424 107.809 45.9374 107.914 46.3574 107.914ZM55.2644 108.994C54.5544 108.994 53.9144 108.834 53.3444 108.514C52.7844 108.184 52.3394 107.729 52.0094 107.149C51.6894 106.559 51.5294 105.874 51.5294 105.094C51.5294 104.314 51.6894 103.634 52.0094 103.054C52.3394 102.464 52.7844 102.009 53.3444 101.689C53.9144 101.359 54.5544 101.194 55.2644 101.194C56.1444 101.194 56.8844 101.424 57.4844 101.884C58.0944 102.344 58.4794 102.959 58.6394 103.729H57.3494C57.2494 103.269 57.0044 102.914 56.6144 102.664C56.2244 102.404 55.7694 102.274 55.2494 102.274C54.8294 102.274 54.4344 102.379 54.0644 102.589C53.6944 102.799 53.3944 103.114 53.1644 103.534C52.9344 103.954 52.8194 104.474 52.8194 105.094C52.8194 105.714 52.9344 106.234 53.1644 106.654C53.3944 107.074 53.6944 107.394 54.0644 107.614C54.4344 107.824 54.8294 107.929 55.2494 107.929C55.7694 107.929 56.2244 107.804 56.6144 107.554C57.0044 107.294 57.2494 106.929 57.3494 106.459H58.6394C58.4894 107.209 58.1094 107.819 57.4994 108.289C56.8894 108.759 56.1444 108.994 55.2644 108.994ZM60.399 108.814V98.0145H61.659V104.509L64.704 101.374H66.249L62.949 104.734L66.669 108.814H65.064L61.659 104.959V108.814H60.399ZM74.8674 108.814C74.1874 108.814 73.6524 108.649 73.2624 108.319C72.8724 107.989 72.6774 107.394 72.6774 106.534V102.439H71.3874V101.374H72.6774L72.8424 99.5895H73.9374V101.374H76.1274V102.439H73.9374V106.534C73.9374 107.004 74.0324 107.324 74.2224 107.494C74.4124 107.654 74.7474 107.734 75.2274 107.734H76.0074V108.814H74.8674ZM80.9131 108.994C80.2131 108.994 79.5831 108.834 79.0231 108.514C78.4631 108.194 78.0181 107.744 77.6881 107.164C77.3681 106.574 77.2081 105.884 77.2081 105.094C77.2081 104.304 77.3731 103.619 77.7031 103.039C78.0331 102.449 78.4781 101.994 79.0381 101.674C79.6081 101.354 80.2431 101.194 80.9431 101.194C81.6431 101.194 82.2731 101.354 82.8331 101.674C83.3931 101.994 83.8331 102.449 84.1531 103.039C84.4831 103.619 84.6481 104.304 84.6481 105.094C84.6481 105.884 84.4831 106.574 84.1531 107.164C83.8231 107.744 83.3731 108.194 82.8031 108.514C82.2431 108.834 81.6131 108.994 80.9131 108.994ZM80.9131 107.914C81.3431 107.914 81.7431 107.809 82.1131 107.599C82.4831 107.389 82.7831 107.074 83.0131 106.654C83.2431 106.234 83.3581 105.714 83.3581 105.094C83.3581 104.474 83.2431 103.954 83.0131 103.534C82.7931 103.114 82.4981 102.799 82.1281 102.589C81.7581 102.379 81.3631 102.274 80.9431 102.274C80.5131 102.274 80.1131 102.379 79.7431 102.589C79.3731 102.799 79.0731 103.114 78.8431 103.534C78.6131 103.954 78.4981 104.474 78.4981 105.094C78.4981 105.714 78.6131 106.234 78.8431 106.654C79.0731 107.074 79.3681 107.389 79.7281 107.599C80.0981 107.809 80.4931 107.914 80.9131 107.914ZM93.7897 108.994C93.0797 108.994 92.4397 108.834 91.8697 108.514C91.3097 108.184 90.8647 107.729 90.5347 107.149C90.2147 106.559 90.0547 105.874 90.0547 105.094C90.0547 104.314 90.2147 103.634 90.5347 103.054C90.8647 102.464 91.3097 102.009 91.8697 101.689C92.4397 101.359 93.0797 101.194 93.7897 101.194C94.6697 101.194 95.4097 101.424 96.0097 101.884C96.6197 102.344 97.0047 102.959 97.1647 103.729H95.8747C95.7747 103.269 95.5297 102.914 95.1397 102.664C94.7497 102.404 94.2947 102.274 93.7747 102.274C93.3547 102.274 92.9597 102.379 92.5897 102.589C92.2197 102.799 91.9197 103.114 91.6897 103.534C91.4597 103.954 91.3447 104.474 91.3447 105.094C91.3447 105.714 91.4597 106.234 91.6897 106.654C91.9197 107.074 92.2197 107.394 92.5897 107.614C92.9597 107.824 93.3547 107.929 93.7747 107.929C94.2947 107.929 94.7497 107.804 95.1397 107.554C95.5297 107.294 95.7747 106.929 95.8747 106.459H97.1647C97.0147 107.209 96.6347 107.819 96.0247 108.289C95.4147 108.759 94.6697 108.994 93.7897 108.994ZM102.314 108.994C101.614 108.994 100.984 108.834 100.424 108.514C99.8644 108.194 99.4194 107.744 99.0894 107.164C98.7694 106.574 98.6094 105.884 98.6094 105.094C98.6094 104.304 98.7744 103.619 99.1044 103.039C99.4344 102.449 99.8794 101.994 100.439 101.674C101.009 101.354 101.644 101.194 102.344 101.194C103.044 101.194 103.674 101.354 104.234 101.674C104.794 101.994 105.234 102.449 105.554 103.039C105.884 103.619 106.049 104.304 106.049 105.094C106.049 105.884 105.884 106.574 105.554 107.164C105.224 107.744 104.774 108.194 104.204 108.514C103.644 108.834 103.014 108.994 102.314 108.994ZM102.314 107.914C102.744 107.914 103.144 107.809 103.514 107.599C103.884 107.389 104.184 107.074 104.414 106.654C104.644 106.234 104.759 105.714 104.759 105.094C104.759 104.474 104.644 103.954 104.414 103.534C104.194 103.114 103.899 102.799 103.529 102.589C103.159 102.379 102.764 102.274 102.344 102.274C101.914 102.274 101.514 102.379 101.144 102.589C100.774 102.799 100.474 103.114 100.244 103.534C100.014 103.954 99.8994 104.474 99.8994 105.094C99.8994 105.714 100.014 106.234 100.244 106.654C100.474 107.074 100.769 107.389 101.129 107.599C101.499 107.809 101.894 107.914 102.314 107.914ZM107.801 108.814V101.374H108.941L109.031 102.454C109.271 102.054 109.591 101.744 109.991 101.524C110.391 101.304 110.841 101.194 111.341 101.194C111.931 101.194 112.436 101.314 112.856 101.554C113.286 101.794 113.616 102.159 113.846 102.649C114.106 102.199 114.461 101.844 114.911 101.584C115.371 101.324 115.866 101.194 116.396 101.194C117.286 101.194 117.996 101.464 118.526 102.004C119.056 102.534 119.321 103.354 119.321 104.464V108.814H118.076V104.599C118.076 103.829 117.921 103.249 117.611 102.859C117.301 102.469 116.856 102.274 116.276 102.274C115.676 102.274 115.176 102.509 114.776 102.979C114.386 103.439 114.191 104.099 114.191 104.959V108.814H112.931V104.599C112.931 103.829 112.776 103.249 112.466 102.859C112.156 102.469 111.711 102.274 111.131 102.274C110.541 102.274 110.046 102.509 109.646 102.979C109.256 103.439 109.061 104.099 109.061 104.959V108.814H107.801ZM124.564 108.994C123.854 108.994 123.224 108.834 122.674 108.514C122.124 108.184 121.689 107.729 121.369 107.149C121.059 106.569 120.904 105.884 120.904 105.094C120.904 104.314 121.059 103.634 121.369 103.054C121.679 102.464 122.109 102.009 122.659 101.689C123.219 101.359 123.864 101.194 124.594 101.194C125.314 101.194 125.934 101.359 126.454 101.689C126.984 102.009 127.389 102.434 127.669 102.964C127.949 103.494 128.089 104.064 128.089 104.674C128.089 104.784 128.084 104.894 128.074 105.004C128.074 105.114 128.074 105.239 128.074 105.379H122.149C122.179 105.949 122.309 106.424 122.539 106.804C122.779 107.174 123.074 107.454 123.424 107.644C123.784 107.834 124.164 107.929 124.564 107.929C125.084 107.929 125.519 107.809 125.869 107.569C126.219 107.329 126.474 107.004 126.634 106.594H127.879C127.679 107.284 127.294 107.859 126.724 108.319C126.164 108.769 125.444 108.994 124.564 108.994ZM124.564 102.259C123.964 102.259 123.429 102.444 122.959 102.814C122.499 103.174 122.234 103.704 122.164 104.404H126.844C126.814 103.734 126.584 103.209 126.154 102.829C125.724 102.449 125.194 102.259 124.564 102.259ZM136.444 108.994C135.564 108.994 134.864 108.729 134.344 108.199C133.824 107.659 133.564 106.834 133.564 105.724V101.374H134.824V105.589C134.824 107.139 135.459 107.914 136.729 107.914C137.379 107.914 137.914 107.684 138.334 107.224C138.764 106.754 138.979 106.089 138.979 105.229V101.374H140.239V108.814H139.099L139.009 107.479C138.779 107.949 138.434 108.319 137.974 108.589C137.524 108.859 137.014 108.994 136.444 108.994ZM142.313 112.114V101.374H143.453L143.573 102.604C143.813 102.244 144.153 101.919 144.593 101.629C145.043 101.339 145.613 101.194 146.303 101.194C147.043 101.194 147.688 101.364 148.238 101.704C148.788 102.044 149.213 102.509 149.513 103.099C149.823 103.689 149.978 104.359 149.978 105.109C149.978 105.859 149.823 106.529 149.513 107.119C149.213 107.699 148.783 108.159 148.223 108.499C147.673 108.829 147.028 108.994 146.288 108.994C145.678 108.994 145.133 108.869 144.653 108.619C144.183 108.369 143.823 108.019 143.573 107.569V112.114H142.313ZM146.153 107.899C146.653 107.899 147.093 107.784 147.473 107.554C147.853 107.314 148.153 106.984 148.373 106.564C148.593 106.144 148.703 105.654 148.703 105.094C148.703 104.534 148.593 104.044 148.373 103.624C148.153 103.204 147.853 102.879 147.473 102.649C147.093 102.409 146.653 102.289 146.153 102.289C145.653 102.289 145.213 102.409 144.833 102.649C144.453 102.879 144.153 103.204 143.933 103.624C143.713 104.044 143.603 104.534 143.603 105.094C143.603 105.654 143.713 106.144 143.933 106.564C144.153 106.984 144.453 107.314 144.833 107.554C145.213 107.784 145.653 107.899 146.153 107.899ZM157.202 108.814L155.027 101.374H156.287L157.862 107.209L159.602 101.374H161.027L162.782 107.209L164.342 101.374H165.617L163.442 108.814H162.152L160.322 102.679L158.492 108.814H157.202ZM167.775 99.7245C167.525 99.7245 167.315 99.6445 167.145 99.4845C166.985 99.3145 166.905 99.1045 166.905 98.8545C166.905 98.6145 166.985 98.4145 167.145 98.2545C167.315 98.0945 167.525 98.0145 167.775 98.0145C168.015 98.0145 168.22 98.0945 168.39 98.2545C168.56 98.4145 168.645 98.6145 168.645 98.8545C168.645 99.1045 168.56 99.3145 168.39 99.4845C168.22 99.6445 168.015 99.7245 167.775 99.7245ZM167.145 108.814V101.374H168.405V108.814H167.145ZM173.539 108.814C172.859 108.814 172.324 108.649 171.934 108.319C171.544 107.989 171.349 107.394 171.349 106.534V102.439H170.059V101.374H171.349L171.514 99.5895H172.609V101.374H174.799V102.439H172.609V106.534C172.609 107.004 172.704 107.324 172.894 107.494C173.084 107.654 173.419 107.734 173.899 107.734H174.679V108.814H173.539ZM176.4 108.814V98.0145H177.66V102.649C177.91 102.189 178.265 101.834 178.725 101.584C179.185 101.324 179.685 101.194 180.225 101.194C181.085 101.194 181.775 101.464 182.295 102.004C182.815 102.534 183.075 103.354 183.075 104.464V108.814H181.83V104.599C181.83 103.049 181.205 102.274 179.955 102.274C179.305 102.274 178.76 102.509 178.32 102.979C177.88 103.439 177.66 104.099 177.66 104.959V108.814H176.4ZM53.1584 128.814C52.4784 128.814 51.9434 128.649 51.5534 128.319C51.1634 127.989 50.9684 127.394 50.9684 126.534V122.439H49.6784V121.374H50.9684L51.1334 119.589H52.2284V121.374H54.4184V122.439H52.2284V126.534C52.2284 127.004 52.3234 127.324 52.5134 127.494C52.7034 127.654 53.0384 127.734 53.5184 127.734H54.2984V128.814H53.1584ZM56.0192 128.814V118.014H57.2792V122.649C57.5292 122.189 57.8842 121.834 58.3442 121.584C58.8042 121.324 59.3042 121.194 59.8442 121.194C60.7042 121.194 61.3942 121.464 61.9142 122.004C62.4342 122.534 62.6942 123.354 62.6942 124.464V128.814H61.4492V124.599C61.4492 123.049 60.8242 122.274 59.5742 122.274C58.9242 122.274 58.3792 122.509 57.9392 122.979C57.4992 123.439 57.2792 124.099 57.2792 124.959V128.814H56.0192ZM67.9481 128.994C67.2381 128.994 66.6081 128.834 66.0581 128.514C65.5081 128.184 65.0731 127.729 64.7531 127.149C64.4431 126.569 64.2881 125.884 64.2881 125.094C64.2881 124.314 64.4431 123.634 64.7531 123.054C65.0631 122.464 65.4931 122.009 66.0431 121.689C66.6031 121.359 67.2481 121.194 67.9781 121.194C68.6981 121.194 69.3181 121.359 69.8381 121.689C70.3681 122.009 70.7731 122.434 71.0531 122.964C71.3331 123.494 71.4731 124.064 71.4731 124.674C71.4731 124.784 71.4681 124.894 71.4581 125.004C71.4581 125.114 71.4581 125.239 71.4581 125.379H65.5331C65.5631 125.949 65.6931 126.424 65.9231 126.804C66.1631 127.174 66.4581 127.454 66.8081 127.644C67.1681 127.834 67.5481 127.929 67.9481 127.929C68.4681 127.929 68.9031 127.809 69.2531 127.569C69.6031 127.329 69.8581 127.004 70.0181 126.594H71.2631C71.0631 127.284 70.6781 127.859 70.1081 128.319C69.5481 128.769 68.8281 128.994 67.9481 128.994ZM67.9481 122.259C67.3481 122.259 66.8131 122.444 66.3431 122.814C65.8831 123.174 65.6181 123.704 65.5481 124.404H70.2281C70.1981 123.734 69.9681 123.209 69.5381 122.829C69.1081 122.449 68.5781 122.259 67.9481 122.259ZM77.1129 128.814V118.014H78.3729V128.814H77.1129ZM83.8281 128.994C83.1281 128.994 82.4981 128.834 81.9381 128.514C81.3781 128.194 80.9331 127.744 80.6031 127.164C80.2831 126.574 80.1231 125.884 80.1231 125.094C80.1231 124.304 80.2881 123.619 80.6181 123.039C80.9481 122.449 81.3931 121.994 81.9531 121.674C82.5231 121.354 83.1581 121.194 83.8581 121.194C84.5581 121.194 85.1881 121.354 85.7481 121.674C86.3081 121.994 86.7481 122.449 87.0681 123.039C87.3981 123.619 87.5631 124.304 87.5631 125.094C87.5631 125.884 87.3981 126.574 87.0681 127.164C86.7381 127.744 86.2881 128.194 85.7181 128.514C85.1581 128.834 84.5281 128.994 83.8281 128.994ZM83.8281 127.914C84.2581 127.914 84.6581 127.809 85.0281 127.599C85.3981 127.389 85.6981 127.074 85.9281 126.654C86.1581 126.234 86.2731 125.714 86.2731 125.094C86.2731 124.474 86.1581 123.954 85.9281 123.534C85.7081 123.114 85.4131 122.799 85.0431 122.589C84.6731 122.379 84.2781 122.274 83.8581 122.274C83.4281 122.274 83.0281 122.379 82.6581 122.589C82.2881 122.799 81.9881 123.114 81.7581 123.534C81.5281 123.954 81.4131 124.474 81.4131 125.094C81.4131 125.714 81.5281 126.234 81.7581 126.654C81.9881 127.074 82.2831 127.389 82.6431 127.599C83.0131 127.809 83.4081 127.914 83.8281 127.914ZM89.3151 128.814V121.374H90.4551L90.5301 122.709C90.7701 122.239 91.1151 121.869 91.5651 121.599C92.0151 121.329 92.5251 121.194 93.0951 121.194C93.9751 121.194 94.6751 121.464 95.1951 122.004C95.7251 122.534 95.9901 123.354 95.9901 124.464V128.814H94.7301V124.599C94.7301 123.049 94.0901 122.274 92.8101 122.274C92.1701 122.274 91.6351 122.509 91.2051 122.979C90.7851 123.439 90.5751 124.099 90.5751 124.959V128.814H89.3151ZM100.839 126.474C100.419 126.474 100.034 126.419 99.684 126.309L98.934 127.014C99.044 127.094 99.179 127.164 99.339 127.224C99.509 127.274 99.749 127.324 100.059 127.374C100.369 127.414 100.804 127.459 101.364 127.509C102.364 127.579 103.079 127.809 103.509 128.199C103.939 128.589 104.154 129.099 104.154 129.729C104.154 130.159 104.034 130.569 103.794 130.959C103.564 131.349 103.204 131.669 102.714 131.919C102.234 132.169 101.614 132.294 100.854 132.294C100.184 132.294 99.589 132.204 99.069 132.024C98.549 131.854 98.144 131.589 97.854 131.229C97.564 130.879 97.419 130.434 97.419 129.894C97.419 129.614 97.494 129.309 97.644 128.979C97.794 128.659 98.074 128.354 98.484 128.064C98.264 127.974 98.074 127.879 97.914 127.779C97.764 127.669 97.624 127.549 97.494 127.419V127.074L98.769 125.814C98.179 125.314 97.884 124.654 97.884 123.834C97.884 123.344 97.999 122.899 98.229 122.499C98.459 122.099 98.794 121.784 99.234 121.554C99.674 121.314 100.209 121.194 100.839 121.194C101.269 121.194 101.659 121.254 102.009 121.374H104.754V122.319L103.359 122.379C103.649 122.799 103.794 123.284 103.794 123.834C103.794 124.324 103.674 124.769 103.434 125.169C103.204 125.569 102.869 125.889 102.429 126.129C101.999 126.359 101.469 126.474 100.839 126.474ZM100.839 125.439C101.369 125.439 101.789 125.304 102.099 125.034C102.419 124.754 102.579 124.354 102.579 123.834C102.579 123.324 102.419 122.934 102.099 122.664C101.789 122.384 101.369 122.244 100.839 122.244C100.299 122.244 99.869 122.384 99.549 122.664C99.239 122.934 99.084 123.324 99.084 123.834C99.084 124.354 99.239 124.754 99.549 125.034C99.869 125.304 100.299 125.439 100.839 125.439ZM98.649 129.774C98.649 130.274 98.859 130.644 99.279 130.884C99.699 131.134 100.224 131.259 100.854 131.259C101.474 131.259 101.969 131.124 102.339 130.854C102.719 130.584 102.909 130.224 102.909 129.774C102.909 129.454 102.779 129.174 102.519 128.934C102.259 128.704 101.779 128.569 101.079 128.529C100.529 128.489 100.054 128.439 99.654 128.379C99.244 128.599 98.974 128.834 98.844 129.084C98.714 129.344 98.649 129.574 98.649 129.774ZM109.227 128.994C108.517 128.994 107.887 128.834 107.337 128.514C106.787 128.184 106.352 127.729 106.032 127.149C105.722 126.569 105.567 125.884 105.567 125.094C105.567 124.314 105.722 123.634 106.032 123.054C106.342 122.464 106.772 122.009 107.322 121.689C107.882 121.359 108.527 121.194 109.257 121.194C109.977 121.194 110.597 121.359 111.117 121.689C111.647 122.009 112.052 122.434 112.332 122.964C112.612 123.494 112.752 124.064 112.752 124.674C112.752 124.784 112.747 124.894 112.737 125.004C112.737 125.114 112.737 125.239 112.737 125.379H106.812C106.842 125.949 106.972 126.424 107.202 126.804C107.442 127.174 107.737 127.454 108.087 127.644C108.447 127.834 108.827 127.929 109.227 127.929C109.747 127.929 110.182 127.809 110.532 127.569C110.882 127.329 111.137 127.004 111.297 126.594H112.542C112.342 127.284 111.957 127.859 111.387 128.319C110.827 128.769 110.107 128.994 109.227 128.994ZM109.227 122.259C108.627 122.259 108.092 122.444 107.622 122.814C107.162 123.174 106.897 123.704 106.827 124.404H111.507C111.477 123.734 111.247 123.209 110.817 122.829C110.387 122.449 109.857 122.259 109.227 122.259ZM117.272 128.994C116.382 128.994 115.642 128.769 115.052 128.319C114.462 127.869 114.117 127.259 114.017 126.489H115.307C115.387 126.879 115.592 127.219 115.922 127.509C116.262 127.789 116.717 127.929 117.287 127.929C117.817 127.929 118.207 127.819 118.457 127.599C118.707 127.369 118.832 127.099 118.832 126.789C118.832 126.339 118.667 126.039 118.337 125.889C118.017 125.739 117.562 125.604 116.972 125.484C116.572 125.404 116.172 125.289 115.772 125.139C115.372 124.989 115.037 124.779 114.767 124.509C114.497 124.229 114.362 123.864 114.362 123.414C114.362 122.764 114.602 122.234 115.082 121.824C115.572 121.404 116.232 121.194 117.062 121.194C117.852 121.194 118.497 121.394 118.997 121.794C119.507 122.184 119.802 122.744 119.882 123.474H118.637C118.587 123.094 118.422 122.799 118.142 122.589C117.872 122.369 117.507 122.259 117.047 122.259C116.597 122.259 116.247 122.354 115.997 122.544C115.757 122.734 115.637 122.984 115.637 123.294C115.637 123.594 115.792 123.829 116.102 123.999C116.422 124.169 116.852 124.314 117.392 124.434C117.852 124.534 118.287 124.659 118.697 124.809C119.117 124.949 119.457 125.164 119.717 125.454C119.987 125.734 120.122 126.144 120.122 126.684C120.132 127.354 119.877 127.909 119.357 128.349C118.847 128.779 118.152 128.994 117.272 128.994ZM124.526 128.814C123.846 128.814 123.311 128.649 122.921 128.319C122.531 127.989 122.336 127.394 122.336 126.534V122.439H121.046V121.374H122.336L122.501 119.589H123.596V121.374H125.786V122.439H123.596V126.534C123.596 127.004 123.691 127.324 123.881 127.494C124.071 127.654 124.406 127.734 124.886 127.734H125.666V128.814H124.526ZM132.856 128.814L130.681 121.374H131.941L133.516 127.209L135.256 121.374H136.681L138.436 127.209L139.996 121.374H141.271L139.096 128.814H137.806L135.976 122.679L134.146 128.814H132.856ZM145.776 128.994C145.076 128.994 144.446 128.834 143.886 128.514C143.326 128.194 142.881 127.744 142.551 127.164C142.231 126.574 142.071 125.884 142.071 125.094C142.071 124.304 142.236 123.619 142.566 123.039C142.896 122.449 143.341 121.994 143.901 121.674C144.471 121.354 145.106 121.194 145.806 121.194C146.506 121.194 147.136 121.354 147.696 121.674C148.256 121.994 148.696 122.449 149.016 123.039C149.346 123.619 149.511 124.304 149.511 125.094C149.511 125.884 149.346 126.574 149.016 127.164C148.686 127.744 148.236 128.194 147.666 128.514C147.106 128.834 146.476 128.994 145.776 128.994ZM145.776 127.914C146.206 127.914 146.606 127.809 146.976 127.599C147.346 127.389 147.646 127.074 147.876 126.654C148.106 126.234 148.221 125.714 148.221 125.094C148.221 124.474 148.106 123.954 147.876 123.534C147.656 123.114 147.361 122.799 146.991 122.589C146.621 122.379 146.226 122.274 145.806 122.274C145.376 122.274 144.976 122.379 144.606 122.589C144.236 122.799 143.936 123.114 143.706 123.534C143.476 123.954 143.361 124.474 143.361 125.094C143.361 125.714 143.476 126.234 143.706 126.654C143.936 127.074 144.231 127.389 144.591 127.599C144.961 127.809 145.356 127.914 145.776 127.914ZM151.263 128.814V121.374H152.403L152.508 122.799C152.738 122.309 153.088 121.919 153.558 121.629C154.028 121.339 154.608 121.194 155.298 121.194V122.514H154.953C154.513 122.514 154.108 122.594 153.738 122.754C153.368 122.904 153.073 123.164 152.853 123.534C152.633 123.904 152.523 124.414 152.523 125.064V128.814H151.263ZM159.809 128.994C159.069 128.994 158.419 128.824 157.859 128.484C157.309 128.144 156.879 127.679 156.569 127.089C156.269 126.499 156.119 125.829 156.119 125.079C156.119 124.329 156.274 123.664 156.584 123.084C156.894 122.494 157.324 122.034 157.874 121.704C158.424 121.364 159.074 121.194 159.824 121.194C160.434 121.194 160.974 121.319 161.444 121.569C161.914 121.819 162.279 122.169 162.539 122.619V118.014H163.799V128.814H162.659L162.539 127.584C162.299 127.944 161.954 128.269 161.504 128.559C161.054 128.849 160.489 128.994 159.809 128.994ZM159.944 127.899C160.444 127.899 160.884 127.784 161.264 127.554C161.654 127.314 161.954 126.984 162.164 126.564C162.384 126.144 162.494 125.654 162.494 125.094C162.494 124.534 162.384 124.044 162.164 123.624C161.954 123.204 161.654 122.879 161.264 122.649C160.884 122.409 160.444 122.289 159.944 122.289C159.454 122.289 159.014 122.409 158.624 122.649C158.244 122.879 157.944 123.204 157.724 123.624C157.514 124.044 157.409 124.534 157.409 125.094C157.409 125.654 157.514 126.144 157.724 126.564C157.944 126.984 158.244 127.314 158.624 127.554C159.014 127.784 159.454 127.899 159.944 127.899ZM54.6935 152.114V141.374H55.8335L55.9535 142.604C56.1935 142.244 56.5335 141.919 56.9735 141.629C57.4235 141.339 57.9935 141.194 58.6835 141.194C59.4235 141.194 60.0685 141.364 60.6185 141.704C61.1685 142.044 61.5935 142.509 61.8935 143.099C62.2035 143.689 62.3585 144.359 62.3585 145.109C62.3585 145.859 62.2035 146.529 61.8935 147.119C61.5935 147.699 61.1635 148.159 60.6035 148.499C60.0535 148.829 59.4085 148.994 58.6685 148.994C58.0585 148.994 57.5135 148.869 57.0335 148.619C56.5635 148.369 56.2035 148.019 55.9535 147.569V152.114H54.6935ZM58.5335 147.899C59.0335 147.899 59.4735 147.784 59.8535 147.554C60.2335 147.314 60.5335 146.984 60.7535 146.564C60.9735 146.144 61.0835 145.654 61.0835 145.094C61.0835 144.534 60.9735 144.044 60.7535 143.624C60.5335 143.204 60.2335 142.879 59.8535 142.649C59.4735 142.409 59.0335 142.289 58.5335 142.289C58.0335 142.289 57.5935 142.409 57.2135 142.649C56.8335 142.879 56.5335 143.204 56.3135 143.624C56.0935 144.044 55.9835 144.534 55.9835 145.094C55.9835 145.654 56.0935 146.144 56.3135 146.564C56.5335 146.984 56.8335 147.314 57.2135 147.554C57.5935 147.784 58.0335 147.899 58.5335 147.899ZM67.5024 148.994C66.8024 148.994 66.1724 148.834 65.6124 148.514C65.0524 148.194 64.6074 147.744 64.2774 147.164C63.9574 146.574 63.7974 145.884 63.7974 145.094C63.7974 144.304 63.9624 143.619 64.2924 143.039C64.6224 142.449 65.0674 141.994 65.6274 141.674C66.1974 141.354 66.8324 141.194 67.5324 141.194C68.2324 141.194 68.8624 141.354 69.4224 141.674C69.9824 141.994 70.4224 142.449 70.7424 143.039C71.0724 143.619 71.2374 144.304 71.2374 145.094C71.2374 145.884 71.0724 146.574 70.7424 147.164C70.4124 147.744 69.9624 148.194 69.3924 148.514C68.8324 148.834 68.2024 148.994 67.5024 148.994ZM67.5024 147.914C67.9324 147.914 68.3324 147.809 68.7024 147.599C69.0724 147.389 69.3724 147.074 69.6024 146.654C69.8324 146.234 69.9474 145.714 69.9474 145.094C69.9474 144.474 69.8324 143.954 69.6024 143.534C69.3824 143.114 69.0874 142.799 68.7174 142.589C68.3474 142.379 67.9524 142.274 67.5324 142.274C67.1024 142.274 66.7024 142.379 66.3324 142.589C65.9624 142.799 65.6624 143.114 65.4324 143.534C65.2024 143.954 65.0874 144.474 65.0874 145.094C65.0874 145.714 65.2024 146.234 65.4324 146.654C65.6624 147.074 65.9574 147.389 66.3174 147.599C66.6874 147.809 67.0824 147.914 67.5024 147.914ZM75.8394 148.994C74.9494 148.994 74.2094 148.769 73.6194 148.319C73.0294 147.869 72.6844 147.259 72.5844 146.489H73.8744C73.9544 146.879 74.1594 147.219 74.4894 147.509C74.8294 147.789 75.2844 147.929 75.8544 147.929C76.3844 147.929 76.7744 147.819 77.0244 147.599C77.2744 147.369 77.3994 147.099 77.3994 146.789C77.3994 146.339 77.2344 146.039 76.9044 145.889C76.5844 145.739 76.1294 145.604 75.5394 145.484C75.1394 145.404 74.7394 145.289 74.3394 145.139C73.9394 144.989 73.6044 144.779 73.3344 144.509C73.0644 144.229 72.9294 143.864 72.9294 143.414C72.9294 142.764 73.1694 142.234 73.6494 141.824C74.1394 141.404 74.7994 141.194 75.6294 141.194C76.4194 141.194 77.0644 141.394 77.5644 141.794C78.0744 142.184 78.3694 142.744 78.4494 143.474H77.2044C77.1544 143.094 76.9894 142.799 76.7094 142.589C76.4394 142.369 76.0744 142.259 75.6144 142.259C75.1644 142.259 74.8144 142.354 74.5644 142.544C74.3244 142.734 74.2044 142.984 74.2044 143.294C74.2044 143.594 74.3594 143.829 74.6694 143.999C74.9894 144.169 75.4194 144.314 75.9594 144.434C76.4194 144.534 76.8544 144.659 77.2644 144.809C77.6844 144.949 78.0244 145.164 78.2844 145.454C78.5544 145.734 78.6894 146.144 78.6894 146.684C78.6994 147.354 78.4444 147.909 77.9244 148.349C77.4144 148.779 76.7194 148.994 75.8394 148.994ZM83.3394 148.994C82.4494 148.994 81.7094 148.769 81.1194 148.319C80.5294 147.869 80.1844 147.259 80.0844 146.489H81.3744C81.4544 146.879 81.6594 147.219 81.9894 147.509C82.3294 147.789 82.7844 147.929 83.3544 147.929C83.8844 147.929 84.2744 147.819 84.5244 147.599C84.7744 147.369 84.8994 147.099 84.8994 146.789C84.8994 146.339 84.7344 146.039 84.4044 145.889C84.0844 145.739 83.6294 145.604 83.0394 145.484C82.6394 145.404 82.2394 145.289 81.8394 145.139C81.4394 144.989 81.1044 144.779 80.8344 144.509C80.5644 144.229 80.4294 143.864 80.4294 143.414C80.4294 142.764 80.6694 142.234 81.1494 141.824C81.6394 141.404 82.2994 141.194 83.1294 141.194C83.9194 141.194 84.5644 141.394 85.0644 141.794C85.5744 142.184 85.8694 142.744 85.9494 143.474H84.7044C84.6544 143.094 84.4894 142.799 84.2094 142.589C83.9394 142.369 83.5744 142.259 83.1144 142.259C82.6644 142.259 82.3144 142.354 82.0644 142.544C81.8244 142.734 81.7044 142.984 81.7044 143.294C81.7044 143.594 81.8594 143.829 82.1694 143.999C82.4894 144.169 82.9194 144.314 83.4594 144.434C83.9194 144.534 84.3544 144.659 84.7644 144.809C85.1844 144.949 85.5244 145.164 85.7844 145.454C86.0544 145.734 86.1894 146.144 86.1894 146.684C86.1994 147.354 85.9444 147.909 85.4244 148.349C84.9144 148.779 84.2194 148.994 83.3394 148.994ZM88.7544 139.724C88.5044 139.724 88.2944 139.644 88.1244 139.484C87.9644 139.314 87.8844 139.104 87.8844 138.854C87.8844 138.614 87.9644 138.414 88.1244 138.254C88.2944 138.094 88.5044 138.014 88.7544 138.014C88.9944 138.014 89.1994 138.094 89.3694 138.254C89.5394 138.414 89.6244 138.614 89.6244 138.854C89.6244 139.104 89.5394 139.314 89.3694 139.484C89.1994 139.644 88.9944 139.724 88.7544 139.724ZM88.1244 148.814V141.374H89.3844V148.814H88.1244ZM95.5532 148.994C94.9432 148.994 94.3982 148.869 93.9182 148.619C93.4482 148.369 93.0882 148.019 92.8382 147.569L92.7182 148.814H91.5782V138.014H92.8382V142.604C93.0782 142.244 93.4182 141.919 93.8582 141.629C94.3082 141.339 94.8782 141.194 95.5682 141.194C96.3082 141.194 96.9532 141.364 97.5032 141.704C98.0532 142.044 98.4782 142.509 98.7782 143.099C99.0882 143.689 99.2432 144.359 99.2432 145.109C99.2432 145.859 99.0882 146.529 98.7782 147.119C98.4782 147.699 98.0482 148.159 97.4882 148.499C96.9382 148.829 96.2932 148.994 95.5532 148.994ZM95.4182 147.899C95.9182 147.899 96.3582 147.784 96.7382 147.554C97.1182 147.314 97.4182 146.984 97.6382 146.564C97.8582 146.144 97.9682 145.654 97.9682 145.094C97.9682 144.534 97.8582 144.044 97.6382 143.624C97.4182 143.204 97.1182 142.879 96.7382 142.649C96.3582 142.409 95.9182 142.289 95.4182 142.289C94.9182 142.289 94.4782 142.409 94.0982 142.649C93.7182 142.879 93.4182 143.204 93.1982 143.624C92.9782 144.044 92.8682 144.534 92.8682 145.094C92.8682 145.654 92.9782 146.144 93.1982 146.564C93.4182 146.984 93.7182 147.314 94.0982 147.554C94.4782 147.784 94.9182 147.899 95.4182 147.899ZM100.997 148.814V138.014H102.257V148.814H100.997ZM107.667 148.994C106.957 148.994 106.327 148.834 105.777 148.514C105.227 148.184 104.792 147.729 104.472 147.149C104.162 146.569 104.007 145.884 104.007 145.094C104.007 144.314 104.162 143.634 104.472 143.054C104.782 142.464 105.212 142.009 105.762 141.689C106.322 141.359 106.967 141.194 107.697 141.194C108.417 141.194 109.037 141.359 109.557 141.689C110.087 142.009 110.492 142.434 110.772 142.964C111.052 143.494 111.192 144.064 111.192 144.674C111.192 144.784 111.187 144.894 111.177 145.004C111.177 145.114 111.177 145.239 111.177 145.379H105.252C105.282 145.949 105.412 146.424 105.642 146.804C105.882 147.174 106.177 147.454 106.527 147.644C106.887 147.834 107.267 147.929 107.667 147.929C108.187 147.929 108.622 147.809 108.972 147.569C109.322 147.329 109.577 147.004 109.737 146.594H110.982C110.782 147.284 110.397 147.859 109.827 148.319C109.267 148.769 108.547 148.994 107.667 148.994ZM107.667 142.259C107.067 142.259 106.532 142.444 106.062 142.814C105.602 143.174 105.337 143.704 105.267 144.404H109.947C109.917 143.734 109.687 143.209 109.257 142.829C108.827 142.449 108.297 142.259 107.667 142.259ZM117.237 148.814V142.439H116.112V141.374H117.237V140.084C117.237 139.364 117.417 138.839 117.777 138.509C118.137 138.179 118.662 138.014 119.352 138.014H120.102V139.094H119.547C119.167 139.094 118.897 139.174 118.737 139.334C118.577 139.484 118.497 139.744 118.497 140.114V141.374H120.327V142.439H118.497V148.814H117.237ZM121.827 148.814V141.374H122.967L123.072 142.799C123.302 142.309 123.652 141.919 124.122 141.629C124.592 141.339 125.172 141.194 125.862 141.194V142.514H125.517C125.077 142.514 124.672 142.594 124.302 142.754C123.932 142.904 123.637 143.164 123.417 143.534C123.197 143.904 123.087 144.414 123.087 145.064V148.814H121.827ZM130.388 148.994C129.688 148.994 129.058 148.834 128.498 148.514C127.938 148.194 127.493 147.744 127.163 147.164C126.843 146.574 126.683 145.884 126.683 145.094C126.683 144.304 126.848 143.619 127.178 143.039C127.508 142.449 127.953 141.994 128.513 141.674C129.083 141.354 129.718 141.194 130.418 141.194C131.118 141.194 131.748 141.354 132.308 141.674C132.868 141.994 133.308 142.449 133.628 143.039C133.958 143.619 134.123 144.304 134.123 145.094C134.123 145.884 133.958 146.574 133.628 147.164C133.298 147.744 132.848 148.194 132.278 148.514C131.718 148.834 131.088 148.994 130.388 148.994ZM130.388 147.914C130.818 147.914 131.218 147.809 131.588 147.599C131.958 147.389 132.258 147.074 132.488 146.654C132.718 146.234 132.833 145.714 132.833 145.094C132.833 144.474 132.718 143.954 132.488 143.534C132.268 143.114 131.973 142.799 131.603 142.589C131.233 142.379 130.838 142.274 130.418 142.274C129.988 142.274 129.588 142.379 129.218 142.589C128.848 142.799 128.548 143.114 128.318 143.534C128.088 143.954 127.973 144.474 127.973 145.094C127.973 145.714 128.088 146.234 128.318 146.654C128.548 147.074 128.843 147.389 129.203 147.599C129.573 147.809 129.968 147.914 130.388 147.914ZM135.875 148.814V141.374H137.015L137.105 142.454C137.345 142.054 137.665 141.744 138.065 141.524C138.465 141.304 138.915 141.194 139.415 141.194C140.005 141.194 140.51 141.314 140.93 141.554C141.36 141.794 141.69 142.159 141.92 142.649C142.18 142.199 142.535 141.844 142.985 141.584C143.445 141.324 143.94 141.194 144.47 141.194C145.36 141.194 146.07 141.464 146.6 142.004C147.13 142.534 147.395 143.354 147.395 144.464V148.814H146.15V144.599C146.15 143.829 145.995 143.249 145.685 142.859C145.375 142.469 144.93 142.274 144.35 142.274C143.75 142.274 143.25 142.509 142.85 142.979C142.46 143.439 142.265 144.099 142.265 144.959V148.814H141.005V144.599C141.005 143.829 140.85 143.249 140.54 142.859C140.23 142.469 139.785 142.274 139.205 142.274C138.615 142.274 138.12 142.509 137.72 142.979C137.33 143.439 137.135 144.099 137.135 144.959V148.814H135.875ZM155.738 148.994C155.118 148.994 154.603 148.889 154.193 148.679C153.783 148.469 153.478 148.189 153.278 147.839C153.078 147.489 152.978 147.109 152.978 146.699C152.978 145.939 153.268 145.354 153.848 144.944C154.428 144.534 155.218 144.329 156.218 144.329H158.228V144.239C158.228 143.589 158.058 143.099 157.718 142.769C157.378 142.429 156.923 142.259 156.353 142.259C155.863 142.259 155.438 142.384 155.078 142.634C154.728 142.874 154.508 143.229 154.418 143.699H153.128C153.178 143.159 153.358 142.704 153.668 142.334C153.988 141.964 154.383 141.684 154.853 141.494C155.323 141.294 155.823 141.194 156.353 141.194C157.393 141.194 158.173 141.474 158.693 142.034C159.223 142.584 159.488 143.319 159.488 144.239V148.814H158.363L158.288 147.479C158.078 147.899 157.768 148.259 157.358 148.559C156.958 148.849 156.418 148.994 155.738 148.994ZM155.933 147.929C156.413 147.929 156.823 147.804 157.163 147.554C157.513 147.304 157.778 146.979 157.958 146.579C158.138 146.179 158.228 145.759 158.228 145.319V145.304H156.323C155.583 145.304 155.058 145.434 154.748 145.694C154.448 145.944 154.298 146.259 154.298 146.639C154.298 147.029 154.438 147.344 154.718 147.584C155.008 147.814 155.413 147.929 155.933 147.929ZM33.7242 168.814V161.374H34.8642L34.9692 162.799C35.1992 162.309 35.5492 161.919 36.0192 161.629C36.4892 161.339 37.0692 161.194 37.7592 161.194V162.514H37.4142C36.9742 162.514 36.5692 162.594 36.1992 162.754C35.8292 162.904 35.5342 163.164 35.3142 163.534C35.0942 163.904 34.9842 164.414 34.9842 165.064V168.814H33.7242ZM41.6485 168.994C41.0285 168.994 40.5135 168.889 40.1035 168.679C39.6935 168.469 39.3885 168.189 39.1885 167.839C38.9885 167.489 38.8885 167.109 38.8885 166.699C38.8885 165.939 39.1785 165.354 39.7585 164.944C40.3385 164.534 41.1285 164.329 42.1285 164.329H44.1385V164.239C44.1385 163.589 43.9685 163.099 43.6285 162.769C43.2885 162.429 42.8335 162.259 42.2635 162.259C41.7735 162.259 41.3485 162.384 40.9885 162.634C40.6385 162.874 40.4185 163.229 40.3285 163.699H39.0385C39.0885 163.159 39.2685 162.704 39.5785 162.334C39.8985 161.964 40.2935 161.684 40.7635 161.494C41.2335 161.294 41.7335 161.194 42.2635 161.194C43.3035 161.194 44.0835 161.474 44.6035 162.034C45.1335 162.584 45.3985 163.319 45.3985 164.239V168.814H44.2735L44.1985 167.479C43.9885 167.899 43.6785 168.259 43.2685 168.559C42.8685 168.849 42.3285 168.994 41.6485 168.994ZM41.8435 167.929C42.3235 167.929 42.7335 167.804 43.0735 167.554C43.4235 167.304 43.6885 166.979 43.8685 166.579C44.0485 166.179 44.1385 165.759 44.1385 165.319V165.304H42.2335C41.4935 165.304 40.9685 165.434 40.6585 165.694C40.3585 165.944 40.2085 166.259 40.2085 166.639C40.2085 167.029 40.3485 167.344 40.6285 167.584C40.9185 167.814 41.3235 167.929 41.8435 167.929ZM47.2887 168.814V161.374H48.4287L48.5037 162.709C48.7437 162.239 49.0887 161.869 49.5387 161.599C49.9887 161.329 50.4987 161.194 51.0687 161.194C51.9487 161.194 52.6487 161.464 53.1687 162.004C53.6987 162.534 53.9637 163.354 53.9637 164.464V168.814H52.7037V164.599C52.7037 163.049 52.0637 162.274 50.7837 162.274C50.1437 162.274 49.6087 162.509 49.1787 162.979C48.7587 163.439 48.5487 164.099 48.5487 164.959V168.814H47.2887ZM59.2477 168.994C58.5077 168.994 57.8577 168.824 57.2977 168.484C56.7477 168.144 56.3177 167.679 56.0077 167.089C55.7077 166.499 55.5577 165.829 55.5577 165.079C55.5577 164.329 55.7127 163.664 56.0227 163.084C56.3327 162.494 56.7627 162.034 57.3127 161.704C57.8627 161.364 58.5127 161.194 59.2627 161.194C59.8727 161.194 60.4127 161.319 60.8827 161.569C61.3527 161.819 61.7177 162.169 61.9777 162.619V158.014H63.2377V168.814H62.0977L61.9777 167.584C61.7377 167.944 61.3927 168.269 60.9427 168.559C60.4927 168.849 59.9277 168.994 59.2477 168.994ZM59.3827 167.899C59.8827 167.899 60.3227 167.784 60.7027 167.554C61.0927 167.314 61.3927 166.984 61.6027 166.564C61.8227 166.144 61.9327 165.654 61.9327 165.094C61.9327 164.534 61.8227 164.044 61.6027 163.624C61.3927 163.204 61.0927 162.879 60.7027 162.649C60.3227 162.409 59.8827 162.289 59.3827 162.289C58.8927 162.289 58.4527 162.409 58.0627 162.649C57.6827 162.879 57.3827 163.204 57.1627 163.624C56.9527 164.044 56.8477 164.534 56.8477 165.094C56.8477 165.654 56.9527 166.144 57.1627 166.564C57.3827 166.984 57.6827 167.314 58.0627 167.554C58.4527 167.784 58.8927 167.899 59.3827 167.899ZM68.6816 168.994C67.9816 168.994 67.3516 168.834 66.7916 168.514C66.2316 168.194 65.7866 167.744 65.4566 167.164C65.1366 166.574 64.9766 165.884 64.9766 165.094C64.9766 164.304 65.1416 163.619 65.4716 163.039C65.8016 162.449 66.2466 161.994 66.8066 161.674C67.3766 161.354 68.0116 161.194 68.7116 161.194C69.4116 161.194 70.0416 161.354 70.6016 161.674C71.1616 161.994 71.6016 162.449 71.9216 163.039C72.2516 163.619 72.4166 164.304 72.4166 165.094C72.4166 165.884 72.2516 166.574 71.9216 167.164C71.5916 167.744 71.1416 168.194 70.5716 168.514C70.0116 168.834 69.3816 168.994 68.6816 168.994ZM68.6816 167.914C69.1116 167.914 69.5116 167.809 69.8816 167.599C70.2516 167.389 70.5516 167.074 70.7816 166.654C71.0116 166.234 71.1266 165.714 71.1266 165.094C71.1266 164.474 71.0116 163.954 70.7816 163.534C70.5616 163.114 70.2666 162.799 69.8966 162.589C69.5266 162.379 69.1316 162.274 68.7116 162.274C68.2816 162.274 67.8816 162.379 67.5116 162.589C67.1416 162.799 66.8416 163.114 66.6116 163.534C66.3816 163.954 66.2666 164.474 66.2666 165.094C66.2666 165.714 66.3816 166.234 66.6116 166.654C66.8416 167.074 67.1366 167.389 67.4966 167.599C67.8666 167.809 68.2616 167.914 68.6816 167.914ZM74.1686 168.814V161.374H75.3086L75.3986 162.454C75.6386 162.054 75.9586 161.744 76.3586 161.524C76.7586 161.304 77.2086 161.194 77.7086 161.194C78.2986 161.194 78.8036 161.314 79.2236 161.554C79.6536 161.794 79.9836 162.159 80.2136 162.649C80.4736 162.199 80.8286 161.844 81.2786 161.584C81.7386 161.324 82.2336 161.194 82.7636 161.194C83.6536 161.194 84.3636 161.464 84.8936 162.004C85.4236 162.534 85.6886 163.354 85.6886 164.464V168.814H84.4436V164.599C84.4436 163.829 84.2886 163.249 83.9786 162.859C83.6686 162.469 83.2236 162.274 82.6436 162.274C82.0436 162.274 81.5436 162.509 81.1436 162.979C80.7536 163.439 80.5586 164.099 80.5586 164.959V168.814H79.2986V164.599C79.2986 163.829 79.1436 163.249 78.8336 162.859C78.5236 162.469 78.0786 162.274 77.4986 162.274C76.9086 162.274 76.4136 162.509 76.0136 162.979C75.6236 163.439 75.4286 164.099 75.4286 164.959V168.814H74.1686ZM91.5563 168.814V161.374H92.6963L92.7863 162.454C93.0263 162.054 93.3463 161.744 93.7463 161.524C94.1463 161.304 94.5963 161.194 95.0963 161.194C95.6863 161.194 96.1913 161.314 96.6113 161.554C97.0413 161.794 97.3713 162.159 97.6013 162.649C97.8613 162.199 98.2163 161.844 98.6663 161.584C99.1263 161.324 99.6213 161.194 100.151 161.194C101.041 161.194 101.751 161.464 102.281 162.004C102.811 162.534 103.076 163.354 103.076 164.464V168.814H101.831V164.599C101.831 163.829 101.676 163.249 101.366 162.859C101.056 162.469 100.611 162.274 100.031 162.274C99.4313 162.274 98.9313 162.509 98.5313 162.979C98.1413 163.439 97.9463 164.099 97.9463 164.959V168.814H96.6863V164.599C96.6863 163.829 96.5313 163.249 96.2213 162.859C95.9113 162.469 95.4663 162.274 94.8863 162.274C94.2963 162.274 93.8013 162.509 93.4013 162.979C93.0113 163.439 92.8163 164.099 92.8163 164.959V168.814H91.5563ZM105.739 159.724C105.489 159.724 105.279 159.644 105.109 159.484C104.949 159.314 104.869 159.104 104.869 158.854C104.869 158.614 104.949 158.414 105.109 158.254C105.279 158.094 105.489 158.014 105.739 158.014C105.979 158.014 106.184 158.094 106.354 158.254C106.524 158.414 106.609 158.614 106.609 158.854C106.609 159.104 106.524 159.314 106.354 159.484C106.184 159.644 105.979 159.724 105.739 159.724ZM105.109 168.814V161.374H106.369V168.814H105.109ZM107.813 168.814L110.393 165.094L107.813 161.374H109.178L111.263 164.449L113.363 161.374H114.713L112.133 165.094L114.713 168.814H113.363L111.263 165.739L109.178 168.814H107.813ZM123.394 168.994C122.694 168.994 122.064 168.834 121.504 168.514C120.944 168.194 120.499 167.744 120.169 167.164C119.849 166.574 119.689 165.884 119.689 165.094C119.689 164.304 119.854 163.619 120.184 163.039C120.514 162.449 120.959 161.994 121.519 161.674C122.089 161.354 122.724 161.194 123.424 161.194C124.124 161.194 124.754 161.354 125.314 161.674C125.874 161.994 126.314 162.449 126.634 163.039C126.964 163.619 127.129 164.304 127.129 165.094C127.129 165.884 126.964 166.574 126.634 167.164C126.304 167.744 125.854 168.194 125.284 168.514C124.724 168.834 124.094 168.994 123.394 168.994ZM123.394 167.914C123.824 167.914 124.224 167.809 124.594 167.599C124.964 167.389 125.264 167.074 125.494 166.654C125.724 166.234 125.839 165.714 125.839 165.094C125.839 164.474 125.724 163.954 125.494 163.534C125.274 163.114 124.979 162.799 124.609 162.589C124.239 162.379 123.844 162.274 123.424 162.274C122.994 162.274 122.594 162.379 122.224 162.589C121.854 162.799 121.554 163.114 121.324 163.534C121.094 163.954 120.979 164.474 120.979 165.094C120.979 165.714 121.094 166.234 121.324 166.654C121.554 167.074 121.849 167.389 122.209 167.599C122.579 167.809 122.974 167.914 123.394 167.914ZM129.285 168.814V162.439H128.16V161.374H129.285V160.084C129.285 159.364 129.465 158.839 129.825 158.509C130.185 158.179 130.71 158.014 131.4 158.014H132.15V159.094H131.595C131.215 159.094 130.945 159.174 130.785 159.334C130.625 159.484 130.545 159.744 130.545 160.114V161.374H132.375V162.439H130.545V168.814H129.285ZM137.845 168.814V158.014H139.105V168.814H137.845ZM144.516 168.994C143.806 168.994 143.176 168.834 142.626 168.514C142.076 168.184 141.641 167.729 141.321 167.149C141.011 166.569 140.856 165.884 140.856 165.094C140.856 164.314 141.011 163.634 141.321 163.054C141.631 162.464 142.061 162.009 142.611 161.689C143.171 161.359 143.816 161.194 144.546 161.194C145.266 161.194 145.886 161.359 146.406 161.689C146.936 162.009 147.341 162.434 147.621 162.964C147.901 163.494 148.041 164.064 148.041 164.674C148.041 164.784 148.036 164.894 148.026 165.004C148.026 165.114 148.026 165.239 148.026 165.379H142.101C142.131 165.949 142.261 166.424 142.491 166.804C142.731 167.174 143.026 167.454 143.376 167.644C143.736 167.834 144.116 167.929 144.516 167.929C145.036 167.929 145.471 167.809 145.821 167.569C146.171 167.329 146.426 167.004 146.586 166.594H147.831C147.631 167.284 147.246 167.859 146.676 168.319C146.116 168.769 145.396 168.994 144.516 168.994ZM144.516 162.259C143.916 162.259 143.381 162.444 142.911 162.814C142.451 163.174 142.186 163.704 142.116 164.404H146.796C146.766 163.734 146.536 163.209 146.106 162.829C145.676 162.449 145.146 162.259 144.516 162.259ZM152.402 168.814C151.722 168.814 151.187 168.649 150.797 168.319C150.407 167.989 150.212 167.394 150.212 166.534V162.439H148.922V161.374H150.212L150.377 159.589H151.472V161.374H153.662V162.439H151.472V166.534C151.472 167.004 151.567 167.324 151.757 167.494C151.947 167.654 152.282 167.734 152.762 167.734H153.542V168.814H152.402ZM158.202 168.814C157.522 168.814 156.987 168.649 156.597 168.319C156.207 167.989 156.012 167.394 156.012 166.534V162.439H154.722V161.374H156.012L156.177 159.589H157.272V161.374H159.462V162.439H157.272V166.534C157.272 167.004 157.367 167.324 157.557 167.494C157.747 167.654 158.082 167.734 158.562 167.734H159.342V168.814H158.202ZM164.203 168.994C163.493 168.994 162.863 168.834 162.313 168.514C161.763 168.184 161.328 167.729 161.008 167.149C160.698 166.569 160.543 165.884 160.543 165.094C160.543 164.314 160.698 163.634 161.008 163.054C161.318 162.464 161.748 162.009 162.298 161.689C162.858 161.359 163.503 161.194 164.233 161.194C164.953 161.194 165.573 161.359 166.093 161.689C166.623 162.009 167.028 162.434 167.308 162.964C167.588 163.494 167.728 164.064 167.728 164.674C167.728 164.784 167.723 164.894 167.713 165.004C167.713 165.114 167.713 165.239 167.713 165.379H161.788C161.818 165.949 161.948 166.424 162.178 166.804C162.418 167.174 162.713 167.454 163.063 167.644C163.423 167.834 163.803 167.929 164.203 167.929C164.723 167.929 165.158 167.809 165.508 167.569C165.858 167.329 166.113 167.004 166.273 166.594H167.518C167.318 167.284 166.933 167.859 166.363 168.319C165.803 168.769 165.083 168.994 164.203 168.994ZM164.203 162.259C163.603 162.259 163.068 162.444 162.598 162.814C162.138 163.174 161.873 163.704 161.803 164.404H166.483C166.453 163.734 166.223 163.209 165.793 162.829C165.363 162.449 164.833 162.259 164.203 162.259ZM169.398 168.814V161.374H170.538L170.643 162.799C170.873 162.309 171.223 161.919 171.693 161.629C172.163 161.339 172.743 161.194 173.433 161.194V162.514H173.088C172.648 162.514 172.243 162.594 171.873 162.754C171.503 162.904 171.208 163.164 170.988 163.534C170.768 163.904 170.658 164.414 170.658 165.064V168.814H169.398ZM177.697 168.994C176.807 168.994 176.067 168.769 175.477 168.319C174.887 167.869 174.542 167.259 174.442 166.489H175.732C175.812 166.879 176.017 167.219 176.347 167.509C176.687 167.789 177.142 167.929 177.712 167.929C178.242 167.929 178.632 167.819 178.882 167.599C179.132 167.369 179.257 167.099 179.257 166.789C179.257 166.339 179.092 166.039 178.762 165.889C178.442 165.739 177.987 165.604 177.397 165.484C176.997 165.404 176.597 165.289 176.197 165.139C175.797 164.989 175.462 164.779 175.192 164.509C174.922 164.229 174.787 163.864 174.787 163.414C174.787 162.764 175.027 162.234 175.507 161.824C175.997 161.404 176.657 161.194 177.487 161.194C178.277 161.194 178.922 161.394 179.422 161.794C179.932 162.184 180.227 162.744 180.307 163.474H179.062C179.012 163.094 178.847 162.799 178.567 162.589C178.297 162.369 177.932 162.259 177.472 162.259C177.022 162.259 176.672 162.354 176.422 162.544C176.182 162.734 176.062 162.984 176.062 163.294C176.062 163.594 176.217 163.829 176.527 163.999C176.847 164.169 177.277 164.314 177.817 164.434C178.277 164.534 178.712 164.659 179.122 164.809C179.542 164.949 179.882 165.164 180.142 165.454C180.412 165.734 180.547 166.144 180.547 166.684C180.557 167.354 180.302 167.909 179.782 168.349C179.272 168.779 178.577 168.994 177.697 168.994Z" fill="white"/>
<defs>
<filter id="filter0_d" x="0" y="18.5762" width="214" height="217.559" filterUnits="userSpaceOnUse" color-interpolation-filters="sRGB">
<feFlood flood-opacity="0" result="BackgroundImageFix"/>
<feColorMatrix in="SourceAlpha" type="matrix" values="0 0 0 0 0 0 0 0 0 0 0 0 0 0 0 0 0 0 127 0"/>
<feOffset dy="1"/>
<feGaussianBlur stdDeviation="1"/>
<feColorMatrix type="matrix" values="0 0 0 0 0.0588235 0 0 0 0 0.0588235 0 0 0 0 0.0588235 0 0 0 0.1 0"/>
<feBlend mode="normal" in2="BackgroundImageFix" result="effect1_dropShadow"/>
<feBlend mode="normal" in="SourceGraphic" in2="effect1_dropShadow" result="shape"/>
</filter>
</defs>
</svg>
