<svg width="240" height="265" viewBox="0 0 240 265" fill="none" xmlns="http://www.w3.org/2000/svg">
<g filter="url(#filter0_d)">
<rect x="2" y="22" width="236" height="240" rx="20" fill="#DB61CF"/>
</g>
<path fill-rule="evenodd" clip-rule="evenodd" d="M221 29C216.032 29 212 33.032 212 38C212 42.968 216.032 47 221 47C225.968 47 230 42.968 230 38C230 33.032 225.968 29 221 29ZM220.1 33.5V35.3H221.9V33.5H220.1ZM220.1 37.1V42.5H221.9V37.1H220.1ZM213.8 38C213.8 41.969 217.031 45.2 221 45.2C224.969 45.2 228.2 41.969 228.2 38C228.2 34.031 224.969 30.8 221 30.8C217.031 30.8 213.8 34.031 213.8 38Z" fill="white"/>
<path d="M37 10C37 4.47715 41.4772 0 47 0H193C198.523 0 203 4.47715 203 10V22H37V10Z" fill="#00D5E0"/>
<path d="M79.5099 16V4.8H81.5579V16H79.5099ZM87.5686 16.192C86.758 16.192 86.0433 16.016 85.4246 15.664C84.806 15.312 84.3153 14.8213 83.9526 14.192C83.6006 13.5627 83.4246 12.8427 83.4246 12.032C83.4246 11.2213 83.6006 10.5013 83.9526 9.872C84.3153 9.24267 84.806 8.752 85.4246 8.4C86.0433 8.048 86.758 7.872 87.5686 7.872C88.582 7.872 89.4353 8.13867 90.1286 8.672C90.822 9.19467 91.2646 9.92 91.4566 10.848H89.2966C89.19 10.464 88.9766 10.1653 88.6566 9.952C88.3473 9.728 87.9793 9.616 87.5526 9.616C86.9873 9.616 86.5073 9.82933 86.1126 10.256C85.718 10.6827 85.5206 11.2747 85.5206 12.032C85.5206 12.7893 85.718 13.3813 86.1126 13.808C86.5073 14.2347 86.9873 14.448 87.5526 14.448C87.9793 14.448 88.3473 14.3413 88.6566 14.128C88.9766 13.9147 89.19 13.6107 89.2966 13.216H91.4566C91.2646 14.112 90.822 14.832 90.1286 15.376C89.4353 15.92 88.582 16.192 87.5686 16.192ZM97.1304 16.192C96.3304 16.192 95.621 16.0213 95.0024 15.68C94.3837 15.3387 93.8984 14.8587 93.5464 14.24C93.1944 13.6213 93.0184 12.9067 93.0184 12.096C93.0184 11.2747 93.189 10.544 93.5304 9.904C93.8824 9.264 94.3624 8.768 94.9704 8.416C95.589 8.05333 96.3144 7.872 97.1464 7.872C97.925 7.872 98.613 8.04267 99.2104 8.384C99.8077 8.72533 100.272 9.19467 100.602 9.792C100.944 10.3787 101.114 11.0347 101.114 11.76C101.114 11.8773 101.109 12 101.098 12.128C101.098 12.256 101.093 12.3893 101.082 12.528H95.0504C95.093 13.1467 95.3064 13.632 95.6904 13.984C96.085 14.336 96.5597 14.512 97.1144 14.512C97.5304 14.512 97.877 14.4213 98.1544 14.24C98.4424 14.048 98.6557 13.8027 98.7944 13.504H100.874C100.725 14.0053 100.474 14.464 100.122 14.88C99.781 15.2853 99.3544 15.6053 98.8424 15.84C98.341 16.0747 97.7704 16.192 97.1304 16.192ZM97.1464 9.536C96.645 9.536 96.2024 9.68 95.8184 9.968C95.4344 10.2453 95.189 10.672 95.0824 11.248H99.0344C99.0024 10.7253 98.8104 10.3093 98.4584 10C98.1064 9.69067 97.669 9.536 97.1464 9.536ZM107.541 16.192C106.944 16.192 106.421 16.08 105.973 15.856C105.525 15.632 105.162 15.3173 104.885 14.912L104.661 16H102.837V4.48H104.885V9.2C105.141 8.848 105.477 8.53867 105.893 8.272C106.32 8.00533 106.869 7.872 107.541 7.872C108.288 7.872 108.954 8.05333 109.541 8.416C110.128 8.77867 110.592 9.27467 110.933 9.904C111.274 10.5333 111.445 11.248 111.445 12.048C111.445 12.848 111.274 13.5627 110.933 14.192C110.592 14.8107 110.128 15.3013 109.541 15.664C108.954 16.016 108.288 16.192 107.541 16.192ZM107.109 14.4C107.76 14.4 108.298 14.1813 108.725 13.744C109.152 13.3067 109.365 12.7413 109.365 12.048C109.365 11.3547 109.152 10.784 108.725 10.336C108.298 9.888 107.76 9.664 107.109 9.664C106.448 9.664 105.904 9.888 105.477 10.336C105.061 10.7733 104.853 11.3387 104.853 12.032C104.853 12.7253 105.061 13.296 105.477 13.744C105.904 14.1813 106.448 14.4 107.109 14.4ZM113.274 16V8.064H115.098L115.29 9.552C115.578 9.04 115.968 8.63467 116.458 8.336C116.96 8.02667 117.546 7.872 118.218 7.872V10.032H117.642C117.194 10.032 116.794 10.1013 116.442 10.24C116.09 10.3787 115.813 10.6187 115.61 10.96C115.418 11.3013 115.322 11.776 115.322 12.384V16H113.274ZM123.334 16.192C122.534 16.192 121.824 16.0213 121.206 15.68C120.587 15.3387 120.102 14.8587 119.75 14.24C119.398 13.6213 119.222 12.9067 119.222 12.096C119.222 11.2747 119.392 10.544 119.734 9.904C120.086 9.264 120.566 8.768 121.174 8.416C121.792 8.05333 122.518 7.872 123.35 7.872C124.128 7.872 124.816 8.04267 125.414 8.384C126.011 8.72533 126.475 9.19467 126.806 9.792C127.147 10.3787 127.318 11.0347 127.318 11.76C127.318 11.8773 127.312 12 127.302 12.128C127.302 12.256 127.296 12.3893 127.286 12.528H121.254C121.296 13.1467 121.51 13.632 121.894 13.984C122.288 14.336 122.763 14.512 123.318 14.512C123.734 14.512 124.08 14.4213 124.358 14.24C124.646 14.048 124.859 13.8027 124.998 13.504H127.078C126.928 14.0053 126.678 14.464 126.326 14.88C125.984 15.2853 125.558 15.6053 125.046 15.84C124.544 16.0747 123.974 16.192 123.334 16.192ZM123.35 9.536C122.848 9.536 122.406 9.68 122.022 9.968C121.638 10.2453 121.392 10.672 121.286 11.248H125.238C125.206 10.7253 125.014 10.3093 124.662 10C124.31 9.69067 123.872 9.536 123.35 9.536ZM131.776 16.192C131.093 16.192 130.533 16.0853 130.096 15.872C129.659 15.648 129.333 15.3547 129.12 14.992C128.907 14.6293 128.8 14.2293 128.8 13.792C128.8 13.056 129.088 12.4587 129.664 12C130.24 11.5413 131.104 11.312 132.256 11.312H134.272V11.12C134.272 10.576 134.117 10.176 133.808 9.92C133.499 9.664 133.115 9.536 132.656 9.536C132.24 9.536 131.877 9.63733 131.568 9.84C131.259 10.032 131.067 10.32 130.992 10.704H128.992C129.045 10.128 129.237 9.62667 129.568 9.2C129.909 8.77333 130.347 8.448 130.88 8.224C131.413 7.98933 132.011 7.872 132.672 7.872C133.803 7.872 134.693 8.15467 135.344 8.72C135.995 9.28533 136.32 10.0853 136.32 11.12V16H134.576L134.384 14.72C134.149 15.1467 133.819 15.4987 133.392 15.776C132.976 16.0533 132.437 16.192 131.776 16.192ZM132.24 14.592C132.827 14.592 133.28 14.4 133.6 14.016C133.931 13.632 134.139 13.1573 134.224 12.592H132.48C131.936 12.592 131.547 12.6933 131.312 12.896C131.077 13.088 130.96 13.328 130.96 13.616C130.96 13.9253 131.077 14.1653 131.312 14.336C131.547 14.5067 131.856 14.592 132.24 14.592ZM138.274 16V4.48H140.322V11.28L143.138 8.064H145.57L142.322 11.68L146.098 16H143.538L140.322 12.016V16H138.274ZM150.568 16.192C149.768 16.192 149.059 16.0213 148.44 15.68C147.821 15.3387 147.336 14.8587 146.984 14.24C146.632 13.6213 146.456 12.9067 146.456 12.096C146.456 11.2747 146.627 10.544 146.968 9.904C147.32 9.264 147.8 8.768 148.408 8.416C149.027 8.05333 149.752 7.872 150.584 7.872C151.363 7.872 152.051 8.04267 152.648 8.384C153.245 8.72533 153.709 9.19467 154.04 9.792C154.381 10.3787 154.552 11.0347 154.552 11.76C154.552 11.8773 154.547 12 154.536 12.128C154.536 12.256 154.531 12.3893 154.52 12.528H148.488C148.531 13.1467 148.744 13.632 149.128 13.984C149.523 14.336 149.997 14.512 150.552 14.512C150.968 14.512 151.315 14.4213 151.592 14.24C151.88 14.048 152.093 13.8027 152.232 13.504H154.312C154.163 14.0053 153.912 14.464 153.56 14.88C153.219 15.2853 152.792 15.6053 152.28 15.84C151.779 16.0747 151.208 16.192 150.568 16.192ZM150.584 9.536C150.083 9.536 149.64 9.68 149.256 9.968C148.872 10.2453 148.627 10.672 148.52 11.248H152.472C152.44 10.7253 152.248 10.3093 151.896 10C151.544 9.69067 151.107 9.536 150.584 9.536ZM156.274 16V8.064H158.098L158.29 9.552C158.578 9.04 158.968 8.63467 159.458 8.336C159.96 8.02667 160.546 7.872 161.218 7.872V10.032H160.642C160.194 10.032 159.794 10.1013 159.442 10.24C159.09 10.3787 158.813 10.6187 158.61 10.96C158.418 11.3013 158.322 11.776 158.322 12.384V16H156.274Z" fill="white"/>
<path d="M50.0422 60V43.2H55.7782C57.7462 43.2 59.3622 43.552 60.6262 44.256C61.9062 44.944 62.8502 45.92 63.4582 47.184C64.0822 48.432 64.3942 49.904 64.3942 51.6C64.3942 53.296 64.0822 54.776 63.4582 56.04C62.8502 57.288 61.9062 58.264 60.6262 58.968C59.3622 59.656 57.7462 60 55.7782 60H50.0422ZM53.1142 57.36H55.6342C57.0422 57.36 58.1542 57.136 58.9702 56.688C59.7862 56.224 60.3702 55.568 60.7222 54.72C61.0742 53.856 61.2502 52.816 61.2502 51.6C61.2502 50.4 61.0742 49.368 60.7222 48.504C60.3702 47.64 59.7862 46.976 58.9702 46.512C58.1542 46.048 57.0422 45.816 55.6342 45.816H53.1142V57.36ZM72.7447 60.288C71.5927 60.288 70.5527 60.024 69.6247 59.496C68.7127 58.968 67.9847 58.24 67.4407 57.312C66.9127 56.368 66.6487 55.28 66.6487 54.048C66.6487 52.816 66.9207 51.736 67.4647 50.808C68.0087 49.864 68.7367 49.128 69.6487 48.6C70.5767 48.072 71.6167 47.808 72.7687 47.808C73.9047 47.808 74.9287 48.072 75.8407 48.6C76.7687 49.128 77.4967 49.864 78.0247 50.808C78.5687 51.736 78.8407 52.816 78.8407 54.048C78.8407 55.28 78.5687 56.368 78.0247 57.312C77.4967 58.24 76.7687 58.968 75.8407 59.496C74.9127 60.024 73.8807 60.288 72.7447 60.288ZM72.7447 57.624C73.5447 57.624 74.2407 57.328 74.8327 56.736C75.4247 56.128 75.7207 55.232 75.7207 54.048C75.7207 52.864 75.4247 51.976 74.8327 51.384C74.2407 50.776 73.5527 50.472 72.7687 50.472C71.9527 50.472 71.2487 50.776 70.6567 51.384C70.0807 51.976 69.7927 52.864 69.7927 54.048C69.7927 55.232 70.0807 56.128 70.6567 56.736C71.2487 57.328 71.9447 57.624 72.7447 57.624ZM81.5873 60V48.096H84.2993L84.5393 50.112C84.9073 49.408 85.4353 48.848 86.1233 48.432C86.8273 48.016 87.6513 47.808 88.5953 47.808C90.0673 47.808 91.2113 48.272 92.0273 49.2C92.8433 50.128 93.2513 51.488 93.2513 53.28V60H90.1793V53.568C90.1793 52.544 89.9713 51.76 89.5553 51.216C89.1393 50.672 88.4913 50.4 87.6113 50.4C86.7473 50.4 86.0353 50.704 85.4753 51.312C84.9313 51.92 84.6593 52.768 84.6593 53.856V60H81.5873ZM95.6129 49.104L96.9329 43.2H100.173L97.7249 49.104H95.6129ZM107.821 60C106.573 60 105.573 59.696 104.821 59.088C104.069 58.48 103.693 57.4 103.693 55.848V50.664H101.653V48.096H103.693L104.053 44.904H106.765V48.096H109.981V50.664H106.765V55.872C106.765 56.448 106.885 56.848 107.125 57.072C107.381 57.28 107.813 57.384 108.421 57.384H109.909V60H107.821ZM118.409 60V43.2H124.145C126.113 43.2 127.729 43.552 128.993 44.256C130.273 44.944 131.217 45.92 131.825 47.184C132.449 48.432 132.761 49.904 132.761 51.6C132.761 53.296 132.449 54.776 131.825 56.04C131.217 57.288 130.273 58.264 128.993 58.968C127.729 59.656 126.113 60 124.145 60H118.409ZM121.481 57.36H124.001C125.409 57.36 126.521 57.136 127.337 56.688C128.153 56.224 128.737 55.568 129.089 54.72C129.441 53.856 129.617 52.816 129.617 51.6C129.617 50.4 129.441 49.368 129.089 48.504C128.737 47.64 128.153 46.976 127.337 46.512C126.521 46.048 125.409 45.816 124.001 45.816H121.481V57.36ZM141.112 60.288C139.96 60.288 138.92 60.024 137.992 59.496C137.08 58.968 136.352 58.24 135.808 57.312C135.28 56.368 135.016 55.28 135.016 54.048C135.016 52.816 135.288 51.736 135.832 50.808C136.376 49.864 137.104 49.128 138.016 48.6C138.944 48.072 139.984 47.808 141.136 47.808C142.272 47.808 143.296 48.072 144.208 48.6C145.136 49.128 145.864 49.864 146.392 50.808C146.936 51.736 147.208 52.816 147.208 54.048C147.208 55.28 146.936 56.368 146.392 57.312C145.864 58.24 145.136 58.968 144.208 59.496C143.28 60.024 142.248 60.288 141.112 60.288ZM141.112 57.624C141.912 57.624 142.608 57.328 143.2 56.736C143.792 56.128 144.088 55.232 144.088 54.048C144.088 52.864 143.792 51.976 143.2 51.384C142.608 50.776 141.92 50.472 141.136 50.472C140.32 50.472 139.616 50.776 139.024 51.384C138.448 51.976 138.16 52.864 138.16 54.048C138.16 55.232 138.448 56.128 139.024 56.736C139.616 57.328 140.312 57.624 141.112 57.624ZM155.427 60.288C154.307 60.288 153.307 60.016 152.427 59.472C151.547 58.928 150.851 58.184 150.339 57.24C149.827 56.296 149.571 55.224 149.571 54.024C149.571 52.824 149.827 51.76 150.339 50.832C150.851 49.888 151.547 49.152 152.427 48.624C153.307 48.08 154.307 47.808 155.427 47.808C156.323 47.808 157.107 47.976 157.779 48.312C158.451 48.648 158.995 49.12 159.411 49.728V42.72H162.483V60H159.747L159.411 58.296C159.027 58.824 158.515 59.288 157.875 59.688C157.251 60.088 156.435 60.288 155.427 60.288ZM156.075 57.6C157.067 57.6 157.875 57.272 158.499 56.616C159.139 55.944 159.459 55.088 159.459 54.048C159.459 53.008 159.139 52.16 158.499 51.504C157.875 50.832 157.067 50.496 156.075 50.496C155.099 50.496 154.291 50.824 153.651 51.48C153.011 52.136 152.691 52.984 152.691 54.024C152.691 55.064 153.011 55.92 153.651 56.592C154.291 57.264 155.099 57.6 156.075 57.6ZM170.651 56.448C170.075 56.448 169.539 56.384 169.043 56.256L168.155 57.144C168.427 57.288 168.795 57.408 169.259 57.504C169.723 57.6 170.475 57.696 171.515 57.792C173.099 57.936 174.251 58.312 174.971 58.92C175.691 59.528 176.051 60.368 176.051 61.44C176.051 62.144 175.859 62.808 175.475 63.432C175.091 64.072 174.499 64.584 173.699 64.968C172.899 65.368 171.875 65.568 170.627 65.568C168.931 65.568 167.563 65.248 166.523 64.608C165.483 63.984 164.963 63.04 164.963 61.776C164.963 60.704 165.483 59.776 166.523 58.992C166.203 58.848 165.923 58.696 165.683 58.536C165.459 58.376 165.259 58.208 165.083 58.032V57.48L167.171 55.272C166.243 54.456 165.779 53.408 165.779 52.128C165.779 51.328 165.971 50.6 166.355 49.944C166.755 49.288 167.315 48.768 168.035 48.384C168.755 48 169.627 47.808 170.651 47.808C171.323 47.808 171.947 47.904 172.523 48.096H177.035V49.968L174.995 50.112C175.315 50.72 175.475 51.392 175.475 52.128C175.475 52.928 175.283 53.656 174.899 54.312C174.515 54.968 173.955 55.488 173.219 55.872C172.499 56.256 171.643 56.448 170.651 56.448ZM170.651 54.096C171.275 54.096 171.787 53.928 172.187 53.592C172.603 53.256 172.811 52.776 172.811 52.152C172.811 51.528 172.603 51.048 172.187 50.712C171.787 50.376 171.275 50.208 170.651 50.208C169.995 50.208 169.467 50.376 169.067 50.712C168.667 51.048 168.467 51.528 168.467 52.152C168.467 52.776 168.667 53.256 169.067 53.592C169.467 53.928 169.995 54.096 170.651 54.096ZM167.771 61.464C167.771 62.056 168.043 62.496 168.587 62.784C169.147 63.088 169.827 63.24 170.627 63.24C171.395 63.24 172.019 63.08 172.499 62.76C172.979 62.456 173.219 62.04 173.219 61.512C173.219 61.08 173.059 60.72 172.739 60.432C172.435 60.144 171.819 59.968 170.891 59.904C170.235 59.856 169.627 59.784 169.067 59.688C168.603 59.944 168.267 60.224 168.059 60.528C167.867 60.832 167.771 61.144 167.771 61.464ZM184.59 60.288C183.39 60.288 182.326 60.032 181.398 59.52C180.47 59.008 179.742 58.288 179.214 57.36C178.686 56.432 178.422 55.36 178.422 54.144C178.422 52.912 178.678 51.816 179.19 50.856C179.718 49.896 180.438 49.152 181.35 48.624C182.278 48.08 183.366 47.808 184.614 47.808C185.782 47.808 186.814 48.064 187.71 48.576C188.606 49.088 189.302 49.792 189.798 50.688C190.31 51.568 190.566 52.552 190.566 53.64C190.566 53.816 190.558 54 190.542 54.192C190.542 54.384 190.534 54.584 190.518 54.792H181.47C181.534 55.72 181.854 56.448 182.43 56.976C183.022 57.504 183.734 57.768 184.566 57.768C185.19 57.768 185.71 57.632 186.126 57.36C186.558 57.072 186.878 56.704 187.086 56.256H190.206C189.982 57.008 189.606 57.696 189.078 58.32C188.566 58.928 187.926 59.408 187.158 59.76C186.406 60.112 185.55 60.288 184.59 60.288ZM184.614 50.304C183.862 50.304 183.198 50.52 182.622 50.952C182.046 51.368 181.678 52.008 181.518 52.872H187.446C187.398 52.088 187.11 51.464 186.582 51C186.054 50.536 185.398 50.304 184.614 50.304ZM48.1182 91V76.672H43.2222V74.2H56.1102V76.672H51.1902V91H48.1182ZM58.3139 91V73.72H61.3859V80.92C61.7859 80.264 62.3219 79.752 62.9939 79.384C63.6819 79 64.4659 78.808 65.3459 78.808C66.8179 78.808 67.9539 79.272 68.7539 80.2C69.5699 81.128 69.9779 82.488 69.9779 84.28V91H66.9299V84.568C66.9299 83.544 66.7219 82.76 66.3059 82.216C65.9059 81.672 65.2659 81.4 64.3859 81.4C63.5219 81.4 62.8019 81.704 62.2259 82.312C61.6659 82.92 61.3859 83.768 61.3859 84.856V91H58.3139ZM78.6995 91.288C77.4995 91.288 76.4355 91.032 75.5075 90.52C74.5795 90.008 73.8515 89.288 73.3235 88.36C72.7955 87.432 72.5315 86.36 72.5315 85.144C72.5315 83.912 72.7875 82.816 73.2995 81.856C73.8275 80.896 74.5475 80.152 75.4595 79.624C76.3875 79.08 77.4755 78.808 78.7235 78.808C79.8915 78.808 80.9235 79.064 81.8195 79.576C82.7155 80.088 83.4115 80.792 83.9075 81.688C84.4195 82.568 84.6755 83.552 84.6755 84.64C84.6755 84.816 84.6675 85 84.6515 85.192C84.6515 85.384 84.6435 85.584 84.6275 85.792H75.5795C75.6435 86.72 75.9635 87.448 76.5395 87.976C77.1315 88.504 77.8435 88.768 78.6755 88.768C79.2995 88.768 79.8195 88.632 80.2355 88.36C80.6675 88.072 80.9875 87.704 81.1955 87.256H84.3155C84.0915 88.008 83.7155 88.696 83.1875 89.32C82.6755 89.928 82.0355 90.408 81.2675 90.76C80.5155 91.112 79.6595 91.288 78.6995 91.288ZM78.7235 81.304C77.9715 81.304 77.3075 81.52 76.7315 81.952C76.1555 82.368 75.7875 83.008 75.6275 83.872H81.5555C81.5075 83.088 81.2195 82.464 80.6915 82C80.1635 81.536 79.5075 81.304 78.7235 81.304ZM100.922 91.288C99.242 91.288 97.77 90.92 96.506 90.184C95.258 89.448 94.274 88.432 93.554 87.136C92.85 85.824 92.498 84.312 92.498 82.6C92.498 80.888 92.85 79.384 93.554 78.088C94.274 76.776 95.258 75.752 96.506 75.016C97.77 74.28 99.242 73.912 100.922 73.912C102.586 73.912 104.05 74.28 105.314 75.016C106.578 75.752 107.562 76.776 108.266 78.088C108.97 79.384 109.322 80.888 109.322 82.6C109.322 84.2 109.01 85.632 108.386 86.896C107.762 88.144 106.898 89.136 105.794 89.872L109.682 94.048H105.866L103.226 91.024C102.49 91.2 101.722 91.288 100.922 91.288ZM100.922 88.528C102.522 88.528 103.794 88 104.738 86.944C105.698 85.888 106.178 84.44 106.178 82.6C106.178 80.76 105.698 79.312 104.738 78.256C103.794 77.2 102.522 76.672 100.922 76.672C99.322 76.672 98.042 77.2 97.082 78.256C96.122 79.312 95.642 80.76 95.642 82.6C95.642 84.44 96.122 85.888 97.082 86.944C98.042 88 99.322 88.528 100.922 88.528ZM116.614 91.288C115.126 91.288 113.974 90.824 113.158 89.896C112.358 88.968 111.958 87.608 111.958 85.816V79.096H115.006V85.528C115.006 86.552 115.214 87.336 115.63 87.88C116.046 88.424 116.702 88.696 117.598 88.696C118.446 88.696 119.142 88.392 119.686 87.784C120.246 87.176 120.526 86.328 120.526 85.24V79.096H123.598V91H120.886L120.646 88.984C120.278 89.688 119.742 90.248 119.038 90.664C118.35 91.08 117.542 91.288 116.614 91.288ZM132.535 91.288C131.335 91.288 130.271 91.032 129.343 90.52C128.415 90.008 127.687 89.288 127.159 88.36C126.631 87.432 126.367 86.36 126.367 85.144C126.367 83.912 126.623 82.816 127.135 81.856C127.663 80.896 128.383 80.152 129.295 79.624C130.223 79.08 131.311 78.808 132.559 78.808C133.727 78.808 134.759 79.064 135.655 79.576C136.551 80.088 137.247 80.792 137.743 81.688C138.255 82.568 138.511 83.552 138.511 84.64C138.511 84.816 138.503 85 138.487 85.192C138.487 85.384 138.479 85.584 138.463 85.792H129.415C129.479 86.72 129.799 87.448 130.375 87.976C130.967 88.504 131.679 88.768 132.511 88.768C133.135 88.768 133.655 88.632 134.071 88.36C134.503 88.072 134.823 87.704 135.031 87.256H138.151C137.927 88.008 137.551 88.696 137.023 89.32C136.511 89.928 135.871 90.408 135.103 90.76C134.351 91.112 133.495 91.288 132.535 91.288ZM132.559 81.304C131.807 81.304 131.143 81.52 130.567 81.952C129.991 82.368 129.623 83.008 129.463 83.872H135.391C135.343 83.088 135.055 82.464 134.527 82C133.999 81.536 133.343 81.304 132.559 81.304ZM146.015 91.288C144.959 91.288 144.031 91.12 143.231 90.784C142.431 90.432 141.791 89.952 141.311 89.344C140.831 88.736 140.543 88.032 140.447 87.232H143.543C143.639 87.696 143.895 88.096 144.311 88.432C144.743 88.752 145.295 88.912 145.967 88.912C146.639 88.912 147.127 88.776 147.431 88.504C147.751 88.232 147.911 87.92 147.911 87.568C147.911 87.056 147.687 86.712 147.239 86.536C146.791 86.344 146.167 86.16 145.367 85.984C144.855 85.872 144.335 85.736 143.807 85.576C143.279 85.416 142.791 85.216 142.343 84.976C141.911 84.72 141.559 84.4 141.287 84.016C141.015 83.616 140.879 83.128 140.879 82.552C140.879 81.496 141.295 80.608 142.127 79.888C142.975 79.168 144.159 78.808 145.679 78.808C147.087 78.808 148.207 79.136 149.039 79.792C149.887 80.448 150.391 81.352 150.551 82.504H147.647C147.471 81.624 146.807 81.184 145.655 81.184C145.079 81.184 144.631 81.296 144.311 81.52C144.007 81.744 143.855 82.024 143.855 82.36C143.855 82.712 144.087 82.992 144.551 83.2C145.015 83.408 145.631 83.6 146.399 83.776C147.231 83.968 147.991 84.184 148.679 84.424C149.383 84.648 149.943 84.992 150.359 85.456C150.775 85.904 150.983 86.552 150.983 87.4C150.999 88.136 150.807 88.8 150.407 89.392C150.007 89.984 149.431 90.448 148.679 90.784C147.927 91.12 147.039 91.288 146.015 91.288ZM158.634 91C157.386 91 156.386 90.696 155.634 90.088C154.882 89.48 154.506 88.4 154.506 86.848V81.664H152.466V79.096H154.506L154.866 75.904H157.578V79.096H160.794V81.664H157.578V86.872C157.578 87.448 157.698 87.848 157.938 88.072C158.194 88.28 158.626 88.384 159.234 88.384H160.722V91H158.634ZM165.087 77.248C164.527 77.248 164.063 77.08 163.695 76.744C163.343 76.408 163.167 75.984 163.167 75.472C163.167 74.96 163.343 74.544 163.695 74.224C164.063 73.888 164.527 73.72 165.087 73.72C165.647 73.72 166.103 73.888 166.455 74.224C166.823 74.544 167.007 74.96 167.007 75.472C167.007 75.984 166.823 76.408 166.455 76.744C166.103 77.08 165.647 77.248 165.087 77.248ZM163.551 91V79.096H166.623V91H163.551ZM175.542 91.288C174.39 91.288 173.35 91.024 172.422 90.496C171.51 89.968 170.782 89.24 170.238 88.312C169.71 87.368 169.446 86.28 169.446 85.048C169.446 83.816 169.718 82.736 170.262 81.808C170.806 80.864 171.534 80.128 172.446 79.6C173.374 79.072 174.414 78.808 175.566 78.808C176.702 78.808 177.726 79.072 178.638 79.6C179.566 80.128 180.294 80.864 180.822 81.808C181.366 82.736 181.638 83.816 181.638 85.048C181.638 86.28 181.366 87.368 180.822 88.312C180.294 89.24 179.566 89.968 178.638 90.496C177.71 91.024 176.678 91.288 175.542 91.288ZM175.542 88.624C176.342 88.624 177.038 88.328 177.63 87.736C178.222 87.128 178.518 86.232 178.518 85.048C178.518 83.864 178.222 82.976 177.63 82.384C177.038 81.776 176.35 81.472 175.566 81.472C174.75 81.472 174.046 81.776 173.454 82.384C172.878 82.976 172.59 83.864 172.59 85.048C172.59 86.232 172.878 87.128 173.454 87.736C174.046 88.328 174.742 88.624 175.542 88.624ZM184.384 91V79.096H187.096L187.336 81.112C187.704 80.408 188.232 79.848 188.92 79.432C189.624 79.016 190.448 78.808 191.392 78.808C192.864 78.808 194.008 79.272 194.824 80.2C195.64 81.128 196.048 82.488 196.048 84.28V91H192.976V84.568C192.976 83.544 192.768 82.76 192.352 82.216C191.936 81.672 191.288 81.4 190.408 81.4C189.544 81.4 188.832 81.704 188.272 82.312C187.728 82.92 187.456 83.768 187.456 84.856V91H184.384Z" fill="white"/>
<path d="M182.784 216.692C189.164 210.312 189.164 199.968 182.784 193.589C176.404 187.209 166.061 187.209 159.681 193.589C153.301 199.968 153.301 210.312 159.681 216.692C166.061 223.072 176.404 223.072 182.784 216.692Z" fill="#2F2E41"/>
<path d="M171.142 206.645C174.153 205.979 176.053 202.998 175.387 199.987C174.721 196.976 171.74 195.076 168.729 195.742C165.718 196.409 163.818 199.39 164.484 202.4C165.15 205.411 168.131 207.312 171.142 206.645Z" fill="white"/>
<path d="M168.075 201.568C169.078 201.346 169.712 200.352 169.49 199.349C169.268 198.345 168.274 197.712 167.27 197.934C166.267 198.156 165.633 199.15 165.855 200.153C166.078 201.157 167.071 201.79 168.075 201.568Z" fill="#3F3D56"/>
<path d="M170.587 194.098C163.906 194.085 159.215 192.892 159.227 186.839C159.238 180.786 164.663 175.889 171.344 175.901C178.025 175.914 183.433 180.831 183.421 186.884C183.41 192.937 177.268 194.11 170.587 194.098Z" fill="#FFE500"/>
<path d="M196.839 207.87C194.923 214.518 189.327 219.172 183.49 223.126C182.675 223.678 181.86 224.217 181.044 224.744C181.039 224.746 181.033 224.751 181.027 224.754C180.988 224.779 180.949 224.804 180.912 224.83C180.744 224.938 180.576 225.047 180.409 225.154L180.5 225.195C180.5 225.195 180.59 225.243 180.492 225.203C180.463 225.191 180.432 225.18 180.403 225.167C177.012 223.8 173.56 222.331 170.962 219.769C168.266 217.109 166.691 212.936 168.15 209.441C168.342 208.983 168.585 208.548 168.873 208.144C168.991 207.975 169.119 207.813 169.252 207.653C170.057 206.671 171.109 205.92 172.301 205.479C173.492 205.038 174.779 204.922 176.03 205.143C177.281 205.365 178.451 205.915 179.419 206.738C180.386 207.562 181.117 208.628 181.536 209.827C181.965 205.834 178.673 202.49 175.505 200.022C172.335 197.555 168.733 194.869 168.12 190.899C167.778 188.69 168.546 186.549 169.946 184.83C169.989 184.778 170.032 184.726 170.077 184.675C171.781 182.673 174.176 181.388 176.786 181.076C181.647 180.57 186.368 183.143 189.899 186.523C195.582 191.96 199.018 200.311 196.839 207.87Z" fill="#04CC78"/>
<path d="M187.701 199.177C188.634 200.628 189.35 202.207 189.827 203.865C190.23 205.347 190.41 206.881 190.36 208.416C190.23 211.575 189.343 214.656 187.774 217.4C186.592 219.483 185.152 221.407 183.488 223.128C182.673 223.68 181.858 224.219 181.042 224.746C181.037 224.749 181.031 224.754 181.025 224.756C180.986 224.781 180.947 224.807 180.91 224.832C180.742 224.941 180.574 225.049 180.407 225.156C180.407 225.156 180.588 225.245 180.49 225.205C180.461 225.193 180.43 225.182 180.401 225.17C180.705 222.678 180.407 220.15 179.532 217.797C178.658 215.444 177.232 213.335 175.375 211.646C173.513 209.983 171.285 208.784 168.871 208.146C168.989 207.977 169.117 207.815 169.25 207.656C170.182 207.917 171.089 208.26 171.961 208.681C175.077 210.178 177.628 212.638 179.237 215.697C180.681 218.474 181.302 221.606 181.028 224.725C181.168 224.599 181.307 224.47 181.442 224.342C184.019 221.94 186.308 219.182 187.857 216C189.2 213.305 189.861 210.321 189.78 207.31C189.653 204.028 188.346 200.988 186.452 198.341C184.377 195.517 181.925 192.99 179.165 190.831C176.383 188.603 173.34 186.724 170.102 185.235C170.029 185.201 169.972 185.141 169.942 185.065C169.913 184.99 169.913 184.907 169.944 184.832C169.965 184.765 170.013 184.71 170.075 184.677C170.107 184.663 170.142 184.657 170.177 184.658C170.212 184.66 170.246 184.669 170.277 184.686C170.677 184.87 171.074 185.056 171.468 185.251C174.748 186.872 177.814 188.895 180.595 191.272C183.282 193.563 185.811 196.18 187.701 199.177Z" fill="white"/>
<path d="M63.5734 223.751C65.8575 223.751 67.7092 223.057 67.7092 222.2C67.7092 221.344 65.8575 220.649 63.5734 220.649C61.2892 220.649 59.4375 221.344 59.4375 222.2C59.4375 223.057 61.2892 223.751 63.5734 223.751Z" fill="#2F2E41"/>
<path d="M73.4952 223.542C75.7794 223.542 77.6311 222.848 77.6311 221.991C77.6311 221.135 75.7794 220.44 73.4952 220.44C71.2111 220.44 69.3594 221.135 69.3594 221.991C69.3594 222.848 71.2111 223.542 73.4952 223.542Z" fill="#2F2E41"/>
<path d="M86.6771 197.474C90.5854 195.221 93.1804 192.4 92.473 191.173C91.7657 189.946 88.024 190.778 84.1157 193.031C80.2074 195.284 77.6124 198.105 78.3198 199.332C79.0271 200.559 82.7688 199.727 86.6771 197.474Z" fill="#2F2E41"/>
<path d="M83.005 203C84.4502 194.094 78.4021 185.703 69.4961 184.257C60.5901 182.812 52.1988 188.86 50.7536 197.766C49.3083 206.672 55.3565 215.063 64.2624 216.509C73.1684 217.954 81.5597 211.906 83.005 203Z" fill="#2F2E41"/>
<path d="M64.4005 213.202H59.4375V222.094H64.4005V213.202Z" fill="#2F2E41"/>
<path d="M74.3224 213.202H69.3594V222.094H74.3224V213.202Z" fill="#2F2E41"/>
<path d="M67.2904 201.829C70.3741 201.829 72.8739 199.33 72.8739 196.246C72.8739 193.162 70.3741 190.663 67.2904 190.663C64.2068 190.663 61.707 193.162 61.707 196.246C61.707 199.33 64.2068 201.829 67.2904 201.829Z" fill="white"/>
<path d="M67.2947 198.109C68.3226 198.109 69.1559 197.275 69.1559 196.247C69.1559 195.219 68.3226 194.386 67.2947 194.386C66.2669 194.386 65.4336 195.219 65.4336 196.247C65.4336 197.275 66.2669 198.109 67.2947 198.109Z" fill="#3F3D56"/>
<path d="M51.0345 185.188C49.7154 179.281 53.932 173.311 60.4527 171.855C66.9733 170.399 73.3287 174.008 74.6478 179.916C75.9669 185.823 71.6454 188.002 65.1248 189.458C58.6042 190.914 52.3536 191.096 51.0345 185.188Z" fill="#04CC78"/>
<path d="M55.8595 196.303C56.4664 195.024 53.6541 192.419 49.578 190.486C45.502 188.553 41.7058 188.023 41.0989 189.303C40.492 190.582 43.3043 193.187 47.3803 195.12C51.4563 197.053 55.2526 197.583 55.8595 196.303Z" fill="#2F2E41"/>
<path d="M58.8594 206.276C58.8594 207.875 62.9763 211.033 67.5447 211.033C72.113 211.033 76.3963 206.531 76.3963 204.932C76.3963 203.333 72.113 205.243 67.5447 205.243C62.9763 205.243 58.8594 204.678 58.8594 206.276Z" fill="white"/>
<path d="M123.847 223.751C126.131 223.751 127.983 223.057 127.983 222.2C127.983 221.344 126.131 220.649 123.847 220.649C121.563 220.649 119.711 221.344 119.711 222.2C119.711 223.057 121.563 223.751 123.847 223.751Z" fill="#2F2E41"/>
<path d="M113.917 223.542C116.201 223.542 118.053 222.848 118.053 221.991C118.053 221.135 116.201 220.44 113.917 220.44C111.633 220.44 109.781 221.135 109.781 221.991C109.781 222.848 111.633 223.542 113.917 223.542Z" fill="#2F2E41"/>
<path d="M109.098 199.332C109.805 198.105 107.21 195.284 103.302 193.031C99.3938 190.778 95.6521 189.946 94.9447 191.173C94.2374 192.4 96.8324 195.221 100.741 197.474C104.649 199.727 108.391 200.559 109.098 199.332Z" fill="#2F2E41"/>
<path d="M120.536 216.718C129.558 216.718 136.873 209.404 136.873 200.381C136.873 191.359 129.558 184.044 120.536 184.044C111.513 184.044 104.199 191.359 104.199 200.381C104.199 209.404 111.513 216.718 120.536 216.718Z" fill="#2F2E41"/>
<path d="M127.983 213.202H123.02V222.094H127.983V213.202Z" fill="#2F2E41"/>
<path d="M118.057 213.202H113.094V222.094H118.057V213.202Z" fill="#2F2E41"/>
<path d="M116.708 201.829C119.792 201.829 122.292 199.33 122.292 196.246C122.292 193.162 119.792 190.663 116.708 190.663C113.625 190.663 111.125 193.162 111.125 196.246C111.125 199.33 113.625 201.829 116.708 201.829Z" fill="white"/>
<path d="M115.362 196.797C116.091 196.069 116.096 194.891 115.373 194.167C114.649 193.443 113.472 193.447 112.742 194.175C112.013 194.904 112.008 196.081 112.732 196.806C113.455 197.53 114.633 197.526 115.362 196.797Z" fill="#3F3D56"/>
<path d="M122.295 189.458C115.775 188.002 111.453 185.823 112.772 179.916C114.091 174.008 120.447 170.399 126.967 171.855C133.488 173.311 137.705 179.281 136.386 185.188C135.067 191.096 128.816 190.914 122.295 189.458Z" fill="#FFE500"/>
<path d="M137.617 212.834C138.986 212.47 139.157 208.641 137.999 204.281C136.841 199.921 134.792 196.681 133.424 197.045C132.055 197.408 131.884 201.238 133.042 205.598C134.2 209.958 136.249 213.197 137.617 212.834Z" fill="#2F2E41"/>
<path d="M116.835 205.243C113.836 205.243 111.023 203.333 111.023 204.932C111.023 206.531 113.836 211.033 116.835 211.033C119.834 211.033 122.537 207.875 122.537 206.276C122.537 204.678 119.834 205.243 116.835 205.243Z" fill="white"/>
<path d="M95.7213 173.296H94.2705C92.9709 173.295 91.7249 172.778 90.8059 171.859C89.8869 170.94 89.37 169.694 89.3685 168.394V167.176C89.3685 164.159 89.9401 161.633 91.0675 159.668C92.4338 157.383 94.0278 155.241 95.825 153.276C97.0182 152.076 98.1009 150.771 99.0599 149.377C99.748 148.294 100.103 147.033 100.082 145.75C100.082 142.723 98.1099 141.252 94.0538 141.252C91.8038 141.278 89.5681 141.613 87.4098 142.249C86.5775 142.487 85.7013 142.528 84.8504 142.37C83.9994 142.211 83.1969 141.857 82.5059 141.336C81.8149 140.815 81.2543 140.14 80.8683 139.365C80.4823 138.591 80.2813 137.737 80.2813 136.871V134.406C80.2765 133.344 80.5798 132.304 81.1542 131.412C81.7287 130.519 82.5497 129.812 83.5178 129.377C87.3296 127.75 91.4403 126.942 95.5842 127.003C99.9254 127.003 103.844 127.732 107.232 129.17C110.626 130.612 113.308 132.644 115.202 135.211C117.091 137.759 118.095 140.856 118.061 144.028C118.061 147.434 117.131 150.401 115.297 152.846C113.483 155.266 110.883 157.915 107.568 160.721C105.821 162.173 104.166 163.732 102.613 165.389C101.609 166.47 100.899 167.791 100.552 169.225C100.359 170.365 99.7674 171.4 98.8829 172.146C97.9983 172.891 96.8781 173.299 95.7213 173.296Z" fill="#FFE500"/>
<path d="M94.9153 196.349H94.724C92.3154 196.347 90.0061 195.389 88.3035 193.686C86.6009 191.982 85.6445 189.672 85.6445 187.263C85.6445 184.855 86.6009 182.545 88.3035 180.841C90.0061 179.137 92.3154 178.18 94.724 178.178H94.9153C96.1089 178.177 97.291 178.412 98.394 178.868C99.4969 179.324 100.499 179.993 101.343 180.837C102.188 181.681 102.857 182.682 103.314 183.785C103.771 184.888 104.007 186.07 104.007 187.263C104.007 188.457 103.771 189.639 103.314 190.742C102.857 191.844 102.188 192.846 101.343 193.69C100.499 194.533 99.4969 195.203 98.394 195.659C97.291 196.115 96.1089 196.349 94.9153 196.349Z" fill="#FFE500"/>
<path d="M167.865 215.389C172.375 215.301 176.009 214.082 175.981 212.666C175.954 211.25 172.275 210.174 167.764 210.262C163.254 210.35 159.62 211.569 159.648 212.985C159.675 214.401 163.354 215.478 167.865 215.389Z" fill="#2F2E41"/>
<path d="M157.457 168.403C158.812 168.403 159.91 167.304 159.91 165.95C159.91 164.595 158.812 163.496 157.457 163.496C156.102 163.496 155.004 164.595 155.004 165.95C155.004 167.304 156.102 168.403 157.457 168.403Z" fill="#04CC78"/>
<path d="M58.832 159.677C60.1868 159.677 61.2851 158.578 61.2851 157.224C61.2851 155.869 60.1868 154.771 58.832 154.771C57.4772 154.771 56.3789 155.869 56.3789 157.224C56.3789 158.578 57.4772 159.677 58.832 159.677Z" fill="#04CC78"/>
<path d="M197.547 183.465C198.902 183.465 200 182.367 200 181.012C200 179.658 198.902 178.559 197.547 178.559C196.192 178.559 195.094 179.658 195.094 181.012C195.094 182.367 196.192 183.465 197.547 183.465Z" fill="#04CC78"/>
<defs>
<filter id="filter0_d" x="0" y="21" width="240" height="244" filterUnits="userSpaceOnUse" color-interpolation-filters="sRGB">
<feFlood flood-opacity="0" result="BackgroundImageFix"/>
<feColorMatrix in="SourceAlpha" type="matrix" values="0 0 0 0 0 0 0 0 0 0 0 0 0 0 0 0 0 0 127 0"/>
<feOffset dy="1"/>
<feGaussianBlur stdDeviation="1"/>
<feColorMatrix type="matrix" values="0 0 0 0 0.0588235 0 0 0 0 0.0588235 0 0 0 0 0.0588235 0 0 0 0.1 0"/>
<feBlend mode="normal" in2="BackgroundImageFix" result="effect1_dropShadow"/>
<feBlend mode="normal" in="SourceGraphic" in2="effect1_dropShadow" result="shape"/>
</filter>
</defs>
</svg>
