<svg width="240" height="265" viewBox="0 0 240 265" fill="none" xmlns="http://www.w3.org/2000/svg">
<g filter="url(#filter0_d)">
<rect x="2" y="22" width="236" height="240" rx="20" fill="#FF6584"/>
</g>
<path fill-rule="evenodd" clip-rule="evenodd" d="M221 29C216.032 29 212 33.032 212 38C212 42.968 216.032 47 221 47C225.968 47 230 42.968 230 38C230 33.032 225.968 29 221 29ZM220.1 33.5V35.3H221.9V33.5H220.1ZM220.1 37.1V42.5H221.9V37.1H220.1ZM213.8 38C213.8 41.969 217.031 45.2 221 45.2C224.969 45.2 228.2 41.969 228.2 38C228.2 34.031 224.969 30.8 221 30.8C217.031 30.8 213.8 34.031 213.8 38Z" fill="white"/>
<path d="M37 10C37 4.47715 41.4772 0 47 0H193C198.523 0 203 4.47715 203 10V22H37V10Z" fill="#00D5E0"/>
<path d="M79.5099 16V4.8H81.5579V16H79.5099ZM87.5686 16.192C86.758 16.192 86.0433 16.016 85.4246 15.664C84.806 15.312 84.3153 14.8213 83.9526 14.192C83.6006 13.5627 83.4246 12.8427 83.4246 12.032C83.4246 11.2213 83.6006 10.5013 83.9526 9.872C84.3153 9.24267 84.806 8.752 85.4246 8.4C86.0433 8.048 86.758 7.872 87.5686 7.872C88.582 7.872 89.4353 8.13867 90.1286 8.672C90.822 9.19467 91.2646 9.92 91.4566 10.848H89.2966C89.19 10.464 88.9766 10.1653 88.6566 9.952C88.3473 9.728 87.9793 9.616 87.5526 9.616C86.9873 9.616 86.5073 9.82933 86.1126 10.256C85.718 10.6827 85.5206 11.2747 85.5206 12.032C85.5206 12.7893 85.718 13.3813 86.1126 13.808C86.5073 14.2347 86.9873 14.448 87.5526 14.448C87.9793 14.448 88.3473 14.3413 88.6566 14.128C88.9766 13.9147 89.19 13.6107 89.2966 13.216H91.4566C91.2646 14.112 90.822 14.832 90.1286 15.376C89.4353 15.92 88.582 16.192 87.5686 16.192ZM97.1304 16.192C96.3304 16.192 95.621 16.0213 95.0024 15.68C94.3837 15.3387 93.8984 14.8587 93.5464 14.24C93.1944 13.6213 93.0184 12.9067 93.0184 12.096C93.0184 11.2747 93.189 10.544 93.5304 9.904C93.8824 9.264 94.3624 8.768 94.9704 8.416C95.589 8.05333 96.3144 7.872 97.1464 7.872C97.925 7.872 98.613 8.04267 99.2104 8.384C99.8077 8.72533 100.272 9.19467 100.602 9.792C100.944 10.3787 101.114 11.0347 101.114 11.76C101.114 11.8773 101.109 12 101.098 12.128C101.098 12.256 101.093 12.3893 101.082 12.528H95.0504C95.093 13.1467 95.3064 13.632 95.6904 13.984C96.085 14.336 96.5597 14.512 97.1144 14.512C97.5304 14.512 97.877 14.4213 98.1544 14.24C98.4424 14.048 98.6557 13.8027 98.7944 13.504H100.874C100.725 14.0053 100.474 14.464 100.122 14.88C99.781 15.2853 99.3544 15.6053 98.8424 15.84C98.341 16.0747 97.7704 16.192 97.1304 16.192ZM97.1464 9.536C96.645 9.536 96.2024 9.68 95.8184 9.968C95.4344 10.2453 95.189 10.672 95.0824 11.248H99.0344C99.0024 10.7253 98.8104 10.3093 98.4584 10C98.1064 9.69067 97.669 9.536 97.1464 9.536ZM107.541 16.192C106.944 16.192 106.421 16.08 105.973 15.856C105.525 15.632 105.162 15.3173 104.885 14.912L104.661 16H102.837V4.48H104.885V9.2C105.141 8.848 105.477 8.53867 105.893 8.272C106.32 8.00533 106.869 7.872 107.541 7.872C108.288 7.872 108.954 8.05333 109.541 8.416C110.128 8.77867 110.592 9.27467 110.933 9.904C111.274 10.5333 111.445 11.248 111.445 12.048C111.445 12.848 111.274 13.5627 110.933 14.192C110.592 14.8107 110.128 15.3013 109.541 15.664C108.954 16.016 108.288 16.192 107.541 16.192ZM107.109 14.4C107.76 14.4 108.298 14.1813 108.725 13.744C109.152 13.3067 109.365 12.7413 109.365 12.048C109.365 11.3547 109.152 10.784 108.725 10.336C108.298 9.888 107.76 9.664 107.109 9.664C106.448 9.664 105.904 9.888 105.477 10.336C105.061 10.7733 104.853 11.3387 104.853 12.032C104.853 12.7253 105.061 13.296 105.477 13.744C105.904 14.1813 106.448 14.4 107.109 14.4ZM113.274 16V8.064H115.098L115.29 9.552C115.578 9.04 115.968 8.63467 116.458 8.336C116.96 8.02667 117.546 7.872 118.218 7.872V10.032H117.642C117.194 10.032 116.794 10.1013 116.442 10.24C116.09 10.3787 115.813 10.6187 115.61 10.96C115.418 11.3013 115.322 11.776 115.322 12.384V16H113.274ZM123.334 16.192C122.534 16.192 121.824 16.0213 121.206 15.68C120.587 15.3387 120.102 14.8587 119.75 14.24C119.398 13.6213 119.222 12.9067 119.222 12.096C119.222 11.2747 119.392 10.544 119.734 9.904C120.086 9.264 120.566 8.768 121.174 8.416C121.792 8.05333 122.518 7.872 123.35 7.872C124.128 7.872 124.816 8.04267 125.414 8.384C126.011 8.72533 126.475 9.19467 126.806 9.792C127.147 10.3787 127.318 11.0347 127.318 11.76C127.318 11.8773 127.312 12 127.302 12.128C127.302 12.256 127.296 12.3893 127.286 12.528H121.254C121.296 13.1467 121.51 13.632 121.894 13.984C122.288 14.336 122.763 14.512 123.318 14.512C123.734 14.512 124.08 14.4213 124.358 14.24C124.646 14.048 124.859 13.8027 124.998 13.504H127.078C126.928 14.0053 126.678 14.464 126.326 14.88C125.984 15.2853 125.558 15.6053 125.046 15.84C124.544 16.0747 123.974 16.192 123.334 16.192ZM123.35 9.536C122.848 9.536 122.406 9.68 122.022 9.968C121.638 10.2453 121.392 10.672 121.286 11.248H125.238C125.206 10.7253 125.014 10.3093 124.662 10C124.31 9.69067 123.872 9.536 123.35 9.536ZM131.776 16.192C131.093 16.192 130.533 16.0853 130.096 15.872C129.659 15.648 129.333 15.3547 129.12 14.992C128.907 14.6293 128.8 14.2293 128.8 13.792C128.8 13.056 129.088 12.4587 129.664 12C130.24 11.5413 131.104 11.312 132.256 11.312H134.272V11.12C134.272 10.576 134.117 10.176 133.808 9.92C133.499 9.664 133.115 9.536 132.656 9.536C132.24 9.536 131.877 9.63733 131.568 9.84C131.259 10.032 131.067 10.32 130.992 10.704H128.992C129.045 10.128 129.237 9.62667 129.568 9.2C129.909 8.77333 130.347 8.448 130.88 8.224C131.413 7.98933 132.011 7.872 132.672 7.872C133.803 7.872 134.693 8.15467 135.344 8.72C135.995 9.28533 136.32 10.0853 136.32 11.12V16H134.576L134.384 14.72C134.149 15.1467 133.819 15.4987 133.392 15.776C132.976 16.0533 132.437 16.192 131.776 16.192ZM132.24 14.592C132.827 14.592 133.28 14.4 133.6 14.016C133.931 13.632 134.139 13.1573 134.224 12.592H132.48C131.936 12.592 131.547 12.6933 131.312 12.896C131.077 13.088 130.96 13.328 130.96 13.616C130.96 13.9253 131.077 14.1653 131.312 14.336C131.547 14.5067 131.856 14.592 132.24 14.592ZM138.274 16V4.48H140.322V11.28L143.138 8.064H145.57L142.322 11.68L146.098 16H143.538L140.322 12.016V16H138.274ZM150.568 16.192C149.768 16.192 149.059 16.0213 148.44 15.68C147.821 15.3387 147.336 14.8587 146.984 14.24C146.632 13.6213 146.456 12.9067 146.456 12.096C146.456 11.2747 146.627 10.544 146.968 9.904C147.32 9.264 147.8 8.768 148.408 8.416C149.027 8.05333 149.752 7.872 150.584 7.872C151.363 7.872 152.051 8.04267 152.648 8.384C153.245 8.72533 153.709 9.19467 154.04 9.792C154.381 10.3787 154.552 11.0347 154.552 11.76C154.552 11.8773 154.547 12 154.536 12.128C154.536 12.256 154.531 12.3893 154.52 12.528H148.488C148.531 13.1467 148.744 13.632 149.128 13.984C149.523 14.336 149.997 14.512 150.552 14.512C150.968 14.512 151.315 14.4213 151.592 14.24C151.88 14.048 152.093 13.8027 152.232 13.504H154.312C154.163 14.0053 153.912 14.464 153.56 14.88C153.219 15.2853 152.792 15.6053 152.28 15.84C151.779 16.0747 151.208 16.192 150.568 16.192ZM150.584 9.536C150.083 9.536 149.64 9.68 149.256 9.968C148.872 10.2453 148.627 10.672 148.52 11.248H152.472C152.44 10.7253 152.248 10.3093 151.896 10C151.544 9.69067 151.107 9.536 150.584 9.536ZM156.274 16V8.064H158.098L158.29 9.552C158.578 9.04 158.968 8.63467 159.458 8.336C159.96 8.02667 160.546 7.872 161.218 7.872V10.032H160.642C160.194 10.032 159.794 10.1013 159.442 10.24C159.09 10.3787 158.813 10.6187 158.61 10.96C158.418 11.3013 158.322 11.776 158.322 12.384V16H156.274Z" fill="white"/>
<path d="M45.1554 76V59.2H50.8914C52.8594 59.2 54.4754 59.552 55.7394 60.256C57.0194 60.944 57.9634 61.92 58.5714 63.184C59.1954 64.432 59.5074 65.904 59.5074 67.6C59.5074 69.296 59.1954 70.776 58.5714 72.04C57.9634 73.288 57.0194 74.264 55.7394 74.968C54.4754 75.656 52.8594 76 50.8914 76H45.1554ZM48.2274 73.36H50.7474C52.1554 73.36 53.2674 73.136 54.0834 72.688C54.8994 72.224 55.4834 71.568 55.8354 70.72C56.1874 69.856 56.3634 68.816 56.3634 67.6C56.3634 66.4 56.1874 65.368 55.8354 64.504C55.4834 63.64 54.8994 62.976 54.0834 62.512C53.2674 62.048 52.1554 61.816 50.7474 61.816H48.2274V73.36ZM67.9299 76.288C66.7299 76.288 65.6659 76.032 64.7379 75.52C63.8099 75.008 63.0819 74.288 62.5539 73.36C62.0259 72.432 61.7619 71.36 61.7619 70.144C61.7619 68.912 62.0179 67.816 62.5299 66.856C63.0579 65.896 63.7779 65.152 64.6899 64.624C65.6179 64.08 66.7059 63.808 67.9539 63.808C69.1219 63.808 70.1539 64.064 71.0499 64.576C71.9459 65.088 72.6419 65.792 73.1379 66.688C73.6499 67.568 73.9059 68.552 73.9059 69.64C73.9059 69.816 73.8979 70 73.8819 70.192C73.8819 70.384 73.8739 70.584 73.8579 70.792H64.8099C64.8739 71.72 65.1939 72.448 65.7699 72.976C66.3619 73.504 67.0739 73.768 67.9059 73.768C68.5299 73.768 69.0499 73.632 69.4659 73.36C69.8979 73.072 70.2179 72.704 70.4259 72.256H73.5459C73.3219 73.008 72.9459 73.696 72.4179 74.32C71.9059 74.928 71.2659 75.408 70.4979 75.76C69.7459 76.112 68.8899 76.288 67.9299 76.288ZM67.9539 66.304C67.2019 66.304 66.5379 66.52 65.9619 66.952C65.3859 67.368 65.0179 68.008 64.8579 68.872H70.7859C70.7379 68.088 70.4499 67.464 69.9219 67C69.3939 66.536 68.7379 66.304 67.9539 66.304ZM81.4097 76.288C80.3537 76.288 79.4257 76.12 78.6257 75.784C77.8257 75.432 77.1857 74.952 76.7057 74.344C76.2257 73.736 75.9377 73.032 75.8417 72.232H78.9377C79.0337 72.696 79.2897 73.096 79.7057 73.432C80.1377 73.752 80.6897 73.912 81.3617 73.912C82.0337 73.912 82.5217 73.776 82.8257 73.504C83.1457 73.232 83.3057 72.92 83.3057 72.568C83.3057 72.056 83.0817 71.712 82.6337 71.536C82.1857 71.344 81.5617 71.16 80.7617 70.984C80.2497 70.872 79.7297 70.736 79.2017 70.576C78.6737 70.416 78.1857 70.216 77.7377 69.976C77.3057 69.72 76.9537 69.4 76.6817 69.016C76.4097 68.616 76.2737 68.128 76.2737 67.552C76.2737 66.496 76.6897 65.608 77.5217 64.888C78.3697 64.168 79.5537 63.808 81.0737 63.808C82.4817 63.808 83.6017 64.136 84.4337 64.792C85.2817 65.448 85.7857 66.352 85.9457 67.504H83.0417C82.8657 66.624 82.2017 66.184 81.0497 66.184C80.4737 66.184 80.0257 66.296 79.7057 66.52C79.4017 66.744 79.2497 67.024 79.2497 67.36C79.2497 67.712 79.4817 67.992 79.9457 68.2C80.4097 68.408 81.0257 68.6 81.7937 68.776C82.6257 68.968 83.3857 69.184 84.0737 69.424C84.7777 69.648 85.3377 69.992 85.7537 70.456C86.1697 70.904 86.3777 71.552 86.3777 72.4C86.3937 73.136 86.2017 73.8 85.8017 74.392C85.4017 74.984 84.8257 75.448 84.0737 75.784C83.3217 76.12 82.4337 76.288 81.4097 76.288ZM94.8831 76.288C93.6831 76.288 92.6191 76.032 91.6911 75.52C90.7631 75.008 90.0351 74.288 89.5071 73.36C88.9791 72.432 88.7151 71.36 88.7151 70.144C88.7151 68.912 88.9711 67.816 89.4831 66.856C90.0111 65.896 90.7311 65.152 91.6431 64.624C92.5711 64.08 93.6591 63.808 94.9071 63.808C96.0751 63.808 97.1071 64.064 98.0031 64.576C98.8991 65.088 99.5951 65.792 100.091 66.688C100.603 67.568 100.859 68.552 100.859 69.64C100.859 69.816 100.851 70 100.835 70.192C100.835 70.384 100.827 70.584 100.811 70.792H91.7631C91.8271 71.72 92.1471 72.448 92.7231 72.976C93.3151 73.504 94.0271 73.768 94.8591 73.768C95.4831 73.768 96.0031 73.632 96.4191 73.36C96.8511 73.072 97.1711 72.704 97.3791 72.256H100.499C100.275 73.008 99.8991 73.696 99.3711 74.32C98.8591 74.928 98.2191 75.408 97.4511 75.76C96.6991 76.112 95.8431 76.288 94.8831 76.288ZM94.9071 66.304C94.1551 66.304 93.4911 66.52 92.9151 66.952C92.3391 67.368 91.9711 68.008 91.8111 68.872H97.7391C97.6911 68.088 97.4031 67.464 96.8751 67C96.3471 66.536 95.6911 66.304 94.9071 66.304ZM103.443 76V64.096H106.179L106.467 66.328C106.899 65.56 107.483 64.952 108.219 64.504C108.971 64.04 109.851 63.808 110.859 63.808V67.048H109.995C109.323 67.048 108.723 67.152 108.195 67.36C107.667 67.568 107.251 67.928 106.947 68.44C106.659 68.952 106.515 69.664 106.515 70.576V76H103.443ZM118.262 76C117.014 76 116.014 75.696 115.262 75.088C114.51 74.48 114.134 73.4 114.134 71.848V66.664H112.094V64.096H114.134L114.494 60.904H117.206V64.096H120.422V66.664H117.206V71.872C117.206 72.448 117.326 72.848 117.566 73.072C117.822 73.28 118.254 73.384 118.862 73.384H120.35V76H118.262ZM128.851 76V59.2H131.923V76H128.851ZM140.027 76.288C138.971 76.288 138.043 76.12 137.243 75.784C136.443 75.432 135.803 74.952 135.323 74.344C134.843 73.736 134.555 73.032 134.459 72.232H137.555C137.651 72.696 137.907 73.096 138.323 73.432C138.755 73.752 139.307 73.912 139.979 73.912C140.651 73.912 141.139 73.776 141.443 73.504C141.763 73.232 141.923 72.92 141.923 72.568C141.923 72.056 141.699 71.712 141.251 71.536C140.803 71.344 140.179 71.16 139.379 70.984C138.867 70.872 138.347 70.736 137.819 70.576C137.291 70.416 136.803 70.216 136.355 69.976C135.923 69.72 135.571 69.4 135.299 69.016C135.027 68.616 134.891 68.128 134.891 67.552C134.891 66.496 135.307 65.608 136.139 64.888C136.987 64.168 138.171 63.808 139.691 63.808C141.099 63.808 142.219 64.136 143.051 64.792C143.899 65.448 144.403 66.352 144.563 67.504H141.659C141.483 66.624 140.819 66.184 139.667 66.184C139.091 66.184 138.643 66.296 138.323 66.52C138.019 66.744 137.867 67.024 137.867 67.36C137.867 67.712 138.099 67.992 138.563 68.2C139.027 68.408 139.643 68.6 140.411 68.776C141.243 68.968 142.003 69.184 142.691 69.424C143.395 69.648 143.955 69.992 144.371 70.456C144.787 70.904 144.995 71.552 144.995 72.4C145.011 73.136 144.819 73.8 144.419 74.392C144.019 74.984 143.443 75.448 142.691 75.784C141.939 76.12 141.051 76.288 140.027 76.288ZM147.716 76V58.72H150.788V76H147.716ZM158.031 76.288C157.007 76.288 156.167 76.128 155.511 75.808C154.855 75.472 154.367 75.032 154.047 74.488C153.727 73.944 153.567 73.344 153.567 72.688C153.567 71.584 153.999 70.688 154.863 70C155.727 69.312 157.023 68.968 158.751 68.968H161.775V68.68C161.775 67.864 161.543 67.264 161.079 66.88C160.615 66.496 160.039 66.304 159.351 66.304C158.727 66.304 158.183 66.456 157.719 66.76C157.255 67.048 156.967 67.48 156.855 68.056H153.855C153.935 67.192 154.223 66.44 154.719 65.8C155.231 65.16 155.887 64.672 156.687 64.336C157.487 63.984 158.383 63.808 159.375 63.808C161.071 63.808 162.407 64.232 163.383 65.08C164.359 65.928 164.847 67.128 164.847 68.68V76H162.231L161.943 74.08C161.591 74.72 161.095 75.248 160.455 75.664C159.831 76.08 159.023 76.288 158.031 76.288ZM158.727 73.888C159.607 73.888 160.287 73.6 160.767 73.024C161.263 72.448 161.575 71.736 161.703 70.888H159.087C158.271 70.888 157.687 71.04 157.335 71.344C156.983 71.632 156.807 71.992 156.807 72.424C156.807 72.888 156.983 73.248 157.335 73.504C157.687 73.76 158.151 73.888 158.727 73.888ZM167.779 76V64.096H170.491L170.731 66.112C171.099 65.408 171.627 64.848 172.315 64.432C173.019 64.016 173.843 63.808 174.787 63.808C176.259 63.808 177.403 64.272 178.219 65.2C179.035 66.128 179.443 67.488 179.443 69.28V76H176.371V69.568C176.371 68.544 176.163 67.76 175.747 67.216C175.331 66.672 174.683 66.4 173.803 66.4C172.939 66.4 172.227 66.704 171.667 67.312C171.123 67.92 170.851 68.768 170.851 69.856V76H167.779ZM187.852 76.288C186.732 76.288 185.732 76.016 184.852 75.472C183.972 74.928 183.276 74.184 182.764 73.24C182.252 72.296 181.996 71.224 181.996 70.024C181.996 68.824 182.252 67.76 182.764 66.832C183.276 65.888 183.972 65.152 184.852 64.624C185.732 64.08 186.732 63.808 187.852 63.808C188.748 63.808 189.532 63.976 190.204 64.312C190.876 64.648 191.42 65.12 191.836 65.728V58.72H194.908V76H192.172L191.836 74.296C191.452 74.824 190.94 75.288 190.3 75.688C189.676 76.088 188.86 76.288 187.852 76.288ZM188.5 73.6C189.492 73.6 190.3 73.272 190.924 72.616C191.564 71.944 191.884 71.088 191.884 70.048C191.884 69.008 191.564 68.16 190.924 67.504C190.3 66.832 189.492 66.496 188.5 66.496C187.524 66.496 186.716 66.824 186.076 67.48C185.436 68.136 185.116 68.984 185.116 70.024C185.116 71.064 185.436 71.92 186.076 72.592C186.716 73.264 187.524 73.6 188.5 73.6Z" fill="white"/>
<path d="M76.7633 226.191C72.6717 226.191 69.8425 228.578 67.596 230.276C65.3495 231.974 63.6917 232.982 62.5224 232.982C61.3531 232.982 59.6866 231.974 57.4401 230.276C55.9382 229.153 53.8098 229.461 52.6867 230.962C51.5635 232.464 51.8428 234.575 53.3446 235.698C55.591 237.396 58.4308 239.773 62.5224 239.773C66.6139 239.773 69.4433 237.396 71.6898 235.698C73.9362 234 75.594 232.982 76.7633 232.982C77.9327 232.982 79.5886 234 81.8351 235.698C84.0816 237.396 86.9126 239.773 91.0042 239.773C95.0957 239.773 97.9373 237.396 100.184 235.698C102.43 234 104.084 232.982 105.254 232.982C106.423 232.982 108.081 234 110.327 235.698C112.574 237.396 115.403 239.773 119.495 239.773C123.586 239.773 126.428 237.396 128.674 235.698C130.921 234 132.577 232.982 133.746 232.982C134.915 232.982 136.572 234 138.818 235.698C141.064 237.396 143.896 239.773 147.987 239.773C152.079 239.773 154.918 237.396 157.165 235.698C159.411 234 161.069 232.982 162.238 232.982C163.408 232.982 165.064 234 167.31 235.698C169.557 237.396 172.386 239.774 176.478 239.774C180.569 239.774 183.409 237.396 185.655 235.698C187.157 234.575 187.436 232.464 186.313 230.962C185.19 229.461 183.064 229.153 181.562 230.276C179.315 231.974 177.647 232.982 176.478 232.982C175.308 232.982 173.652 231.974 171.406 230.276C169.159 228.579 166.33 226.191 162.238 226.191C158.147 226.191 155.316 228.579 153.069 230.276C150.823 231.974 149.156 232.982 147.987 232.982C146.818 232.982 145.162 231.974 142.915 230.276C140.669 228.579 137.838 226.191 133.746 226.191C129.655 226.191 126.824 228.579 124.577 230.276C122.331 231.974 120.664 232.982 119.495 232.982C118.325 232.982 116.669 231.974 114.423 230.276C112.176 228.579 109.345 226.191 105.254 226.191C101.162 226.191 98.333 228.579 96.0866 230.276C93.84 231.974 92.1735 232.982 91.0042 232.982C89.8348 232.982 88.1771 231.974 85.9306 230.276C83.6841 228.579 80.8549 226.191 76.7633 226.191Z" fill="#4EA1FF"/>
<path d="M95.1962 102.863C98.1205 100.856 101.619 99.8569 105.162 100.017L105.159 100.015C106.792 100.088 108.405 100.406 109.944 100.959V100.975C113.037 102.087 115.723 104.107 117.649 106.771C118.419 107.842 119.056 109.002 119.547 110.227C120.827 109.589 122.185 109.122 123.586 108.839C126.811 108.2 130.154 108.55 133.176 109.843C135.553 110.86 137.655 112.428 139.307 114.416C140.96 116.405 142.116 118.758 142.681 121.282C140.237 119.908 137.466 118.982 134.529 118.557C131.592 118.132 128.547 118.217 125.571 118.806H125.519C127.881 118.849 130.205 119.403 132.331 120.432C136.16 122.297 139.107 125.584 140.544 129.593C141.982 133.601 141.795 138.013 140.024 141.886C138.907 139.314 137.26 136.901 135.176 134.788C133.093 132.674 130.616 130.902 127.889 129.573C127.706 129.49 127.522 129.41 127.337 129.332C127.988 129.961 128.574 130.654 129.085 131.401C131.047 134.306 131.795 137.863 131.17 141.312C130.545 144.762 128.596 147.83 125.739 149.862C126.002 147.569 125.82 145.171 125.205 142.806C124.59 140.442 123.553 138.159 122.156 136.089C120.319 133.399 117.925 131.158 115.209 129.583L108.791 127.467C105.973 126.957 103.004 127.033 100.125 127.689C97.692 128.252 95.3776 129.218 93.3165 130.53C91.2553 131.842 89.4885 133.475 88.1186 135.332C87.4113 131.899 88.0746 128.324 89.9669 125.373C91.8593 122.421 94.8306 120.327 98.2464 119.536C99.1299 119.339 100.031 119.231 100.936 119.214C100.747 119.145 100.557 119.079 100.366 119.014C97.4644 118.129 94.4433 117.74 91.4783 117.868C88.5133 117.997 85.6635 118.641 83.0943 119.763C84.4355 115.721 87.3039 112.364 91.0869 110.408C94.87 108.452 99.2678 108.053 103.341 109.296C105.598 109.992 107.678 111.169 109.435 112.748L109.409 112.704C107.632 110.246 105.46 108.11 103.02 106.42C100.581 104.731 97.9211 103.522 95.1962 102.863Z" fill="#04CC78"/>
<path d="M82.8741 159.571C80.81 159.921 78.8477 160.685 77.1531 161.799L72.4914 166.727C71.8196 167.983 71.3244 169.346 71.0259 170.761C70.6809 172.453 70.6231 174.185 70.8556 175.857C71.0881 177.53 71.6065 179.109 72.3805 180.504C70.0191 179.962 67.9633 178.518 66.6521 176.481C65.3409 174.443 64.8783 171.974 65.363 169.6C65.4929 168.988 65.6845 168.39 65.9348 167.816C65.8369 167.916 65.7401 168.016 65.6445 168.117C64.2545 169.687 63.1416 171.473 62.3703 173.373C61.599 175.273 61.1847 177.249 61.1514 179.186C58.997 177.182 57.7116 174.415 57.5696 171.475C57.4276 168.536 58.4403 165.658 60.3915 163.455C61.4685 162.247 62.7931 161.284 64.2751 160.633C62.2197 161.044 60.2537 161.795 58.4912 162.843C56.7284 163.89 55.2043 165.214 54.0073 166.738C53.7005 164.977 53.8164 163.169 54.3456 161.463C54.8747 159.756 55.8019 158.199 57.0508 156.921C58.6388 155.296 60.6807 154.189 62.909 153.744C63.879 153.555 64.8697 153.494 65.8557 153.563C65.845 152.652 65.9449 151.743 66.153 150.856C66.6784 148.645 67.8594 146.645 69.5412 145.117V145.101C70.8638 143.899 72.4532 143.029 74.1783 142.562C75.9034 142.095 77.7148 142.044 79.4632 142.415C77.8973 143.556 76.5186 145.031 75.4073 146.755C74.296 148.479 73.474 150.417 72.9893 152.457L72.9803 152.492C73.6848 151.021 74.7003 149.719 75.9568 148.678C78.229 146.807 81.1427 145.899 84.0754 146.148C87.0082 146.396 89.7275 147.782 91.6526 150.008C89.7155 149.971 87.7257 150.313 85.7987 151.015C83.8717 151.717 82.0458 152.764 80.427 154.097C80.3221 154.188 80.2183 154.281 80.1156 154.375C80.6981 154.146 81.3023 153.977 81.9188 153.87C84.3085 153.472 86.7592 154.024 88.7475 155.408C90.7357 156.792 92.1041 158.898 92.5603 161.278C91.1946 160.454 89.6351 159.879 87.9723 159.586C86.3095 159.293 84.5766 159.288 82.8741 159.571Z" fill="#04CC78"/>
<path d="M99.0688 197.186C97.6383 172.773 101.171 149.202 108.783 127.467L115.201 129.583C107.983 150.143 104.571 172.406 105.754 195.501L99.0967 197.436L92.9237 200.202C87.8933 187.66 80.924 176.432 72.4834 166.727L77.1452 161.798C86.2102 172.111 93.7034 184.074 99.0967 197.436C99.0843 197.353 99.075 197.27 99.0688 197.186Z" fill="#5E2904"/>
<path d="M67.1074 225.544C72.8594 214.608 81.8899 205.746 92.9327 200.201L99.1057 197.436L105.763 195.501C110.26 194.4 114.871 193.831 119.5 193.805C130.303 193.811 140.898 196.773 150.137 202.371C159.376 207.969 166.908 215.988 171.915 225.56C169.682 223.964 166.467 222.116 162.237 222.116C156.56 222.116 152.705 225.443 150.61 227.026C149.468 227.889 148.493 228.352 147.987 228.611C147.483 228.351 146.514 227.888 145.373 227.026C143.279 225.443 139.422 222.116 133.745 222.116C128.067 222.116 124.213 225.444 122.12 227.026C120.977 227.889 120.003 228.352 119.497 228.611C118.993 228.352 118.023 227.889 116.881 227.026C114.787 225.444 110.932 222.116 105.254 222.116C99.5767 222.116 95.7228 225.444 93.6294 227.026C92.487 227.889 91.5123 228.352 91.0064 228.611C90.5023 228.352 89.5306 227.889 88.3886 227.026C86.2952 225.444 82.4413 222.116 76.7638 222.116C72.5453 222.116 69.3383 223.951 67.1074 225.544Z" fill="#FFE500"/>
<path d="M151.139 158.799C151.139 158.799 151.64 152.054 151.404 150.821C151.168 149.587 150.946 146.075 152.243 147.23C153.54 148.384 153.079 151.003 153.079 151.003C153.079 151.003 154.309 158.132 153.171 159.099C152.033 160.066 151.139 158.799 151.139 158.799Z" fill="#A0616A"/>
<path d="M150.205 165.469C150.205 165.469 154.065 162.027 153.856 159.107C153.856 159.107 151.561 157.333 151.04 158.272C150.518 159.211 146.727 162.873 147.371 164.119C148.015 165.365 150.205 165.469 150.205 165.469Z" fill="#00D5E0"/>
<path d="M136.542 159.314C136.542 159.314 134.247 152.951 134.143 151.699C134.039 150.448 133.309 147.006 132.37 148.466C131.431 149.926 132.578 152.325 132.578 152.325C132.578 152.325 133.309 159.522 134.664 160.148C136.02 160.774 136.542 159.314 136.542 159.314Z" fill="#A0616A"/>
<path d="M142.798 191.232H136.644L136.332 194.362L137.792 194.675C137.792 194.675 141.234 193.631 143.216 193.944C145.198 194.257 142.798 191.232 142.798 191.232Z" fill="#A0616A"/>
<path d="M138.731 190.817C138.731 190.817 135.811 188.836 135.289 190.504C134.768 192.173 132.89 198.223 133.516 198.849C134.142 199.475 134.872 198.327 134.872 198.327C134.872 198.327 136.124 195.72 137.063 195.615C138.001 195.511 138.523 194.677 138.523 194.677C138.523 194.677 135.811 192.591 138.731 190.817Z" fill="#2F2E41"/>
<path d="M144.364 206.981C144.364 206.981 143.217 211.675 143.426 212.405C143.634 213.135 140.088 212.718 140.088 212.718L139.879 211.362C139.879 211.362 141.965 208.024 141.965 206.564C141.965 205.104 144.364 206.981 144.364 206.981Z" fill="#A0616A"/>
<path d="M140.088 210.426C140.088 210.426 137.272 212.512 138.732 213.555C140.193 214.598 145.616 217.31 145.616 217.31C145.616 217.31 147.598 217.623 146.138 215.85C144.678 214.076 144.26 213.764 144.156 212.825C144.066 212.2 143.847 211.6 143.513 211.064C143.513 211.064 142.07 213.972 140.088 210.426Z" fill="#2F2E41"/>
<path d="M148.642 185.39C148.642 185.39 149.789 196.238 148.016 199.68C146.243 203.122 144.157 207.816 144.261 208.025C144.365 208.233 141.236 207.712 141.236 206.773C141.236 205.834 144.678 196.447 144.678 196.447C144.678 196.447 143.218 184.243 142.07 183.408C140.923 182.574 148.642 185.39 148.642 185.39Z" fill="#2F2E41"/>
<path opacity="0.1" d="M148.642 185.39C148.642 185.39 149.789 196.238 148.016 199.68C146.243 203.122 144.157 207.816 144.261 208.025C144.365 208.233 141.236 207.712 141.236 206.773C141.236 205.834 144.678 196.447 144.678 196.447C144.678 196.447 143.218 184.243 142.07 183.408C140.923 182.574 148.642 185.39 148.642 185.39Z" fill="black"/>
<path d="M146.283 154.777C147.029 154.912 147.768 155.322 148.138 156.022C148.484 156.674 148.506 157.546 149.057 158.015C149.385 158.295 149.831 158.359 150.198 158.579C150.458 158.746 150.67 158.978 150.812 159.253C150.954 159.528 151.021 159.835 151.006 160.144C150.977 160.72 150.673 161.256 150.68 161.832C150.688 162.581 151.206 163.2 151.693 163.742L150.077 164.042C149.833 164.107 149.577 164.114 149.33 164.062C149.051 163.979 148.824 163.75 148.542 163.68C148.137 163.579 147.737 163.825 147.376 164.043C146.348 164.665 145.246 165.134 144.149 165.601C143.826 165.739 143.459 165.876 143.141 165.728C142.883 165.608 142.723 165.328 142.481 165.177C142.048 164.906 141.503 165.11 141.016 165.244C139.914 165.543 138.742 165.443 137.707 164.962C137.93 164.701 138.223 164.519 138.463 164.276C138.704 164.034 138.898 163.69 138.835 163.344C138.77 162.991 138.467 162.756 138.26 162.472C138.108 162.246 138.001 161.993 137.948 161.726C137.894 161.459 137.894 161.184 137.948 160.917C138.057 160.386 138.315 159.898 138.692 159.509C138.908 159.307 139.111 159.093 139.301 158.867C139.681 158.354 139.775 157.674 139.897 157.034C140.019 156.394 140.211 155.713 140.704 155.323C141.491 154.702 142.768 154.914 143.687 154.852C144.564 154.794 145.409 154.777 146.283 154.777Z" fill="#2F2E41"/>
<path d="M151.457 177.984L149.475 182.887C149.475 182.887 158.55 192.796 153.439 194.152C148.328 195.508 146.555 193.109 143.321 194.986C143.321 194.986 141.757 192.587 141.965 191.127C141.965 191.127 146.45 190.292 148.849 190.397C148.849 190.397 142.382 184.764 141.757 184.556C141.131 184.347 139.045 181.009 142.278 178.297C145.512 175.585 144.677 174.125 144.677 174.125L151.457 177.984Z" fill="#2F2E41"/>
<path d="M146.764 160.984C146.764 160.984 146.452 164.217 147.807 164.635C149.163 165.052 142.488 164.948 142.488 164.948C142.488 164.948 144.052 164.009 143.322 162.027C142.592 160.045 146.764 160.984 146.764 160.984Z" fill="#A0616A"/>
<path opacity="0.1" d="M146.764 160.984C146.764 160.984 146.452 164.217 147.807 164.635C149.163 165.052 142.488 164.948 142.488 164.948C142.488 164.948 144.052 164.009 143.322 162.027C142.592 160.045 146.764 160.984 146.764 160.984Z" fill="black"/>
<path d="M139.67 166.619C139.67 166.619 140.296 163.385 141.547 163.594C142.799 163.802 145.302 164.011 145.615 164.219C145.928 164.428 147.597 164.856 147.597 164.856C147.597 164.856 146.971 164.115 147.597 164.011C148.223 163.907 150.205 164.428 150.413 164.845C150.622 165.263 151.456 166.097 151.456 167.557C151.456 169.018 152.082 171.521 151.873 172.564C151.665 173.607 151.978 176.006 152.604 177.362C153.229 178.718 152.708 180.074 151.665 178.718C150.622 177.362 151.143 178.718 150.309 178.822C149.474 178.927 145.719 175.067 144.676 176.006C143.633 176.945 142.59 177.571 142.382 177.049C142.173 176.528 143.216 175.589 143.216 175.172C143.216 174.754 144.885 176.528 143.112 172.877C141.339 169.226 143.008 168.183 139.67 166.619Z" fill="#00D5E0"/>
<path d="M140.506 166.407L139.672 166.616C139.672 166.616 136.647 164.426 135.812 162.861C134.978 161.296 134.352 160.045 134.352 160.045C134.352 160.045 135.708 158.376 136.542 159.002C137.377 159.628 141.132 163.904 141.132 163.904L140.506 166.407Z" fill="#00D5E0"/>
<path d="M144.364 163.174C142.578 163.174 141.131 161.726 141.131 159.941C141.131 158.155 142.578 156.707 144.364 156.707C146.15 156.707 147.598 158.155 147.598 159.941C147.598 161.726 146.15 163.174 144.364 163.174Z" fill="#A0616A"/>
<path d="M147.226 159.004C146.673 158.546 145.967 158.314 145.251 158.355C144.011 158.431 142.92 159.314 141.679 159.342C141.728 159.074 141.691 158.796 141.572 158.551C141.476 158.353 141.324 158.162 141.344 157.944C141.378 157.77 141.473 157.615 141.612 157.505C142.33 156.825 143.322 156.474 144.31 156.431C144.972 156.402 146.236 156.417 146.75 156.919C147.19 157.348 147.139 158.448 147.226 159.004Z" fill="#2F2E41"/>
<defs>
<filter id="filter0_d" x="0" y="21" width="240" height="244" filterUnits="userSpaceOnUse" color-interpolation-filters="sRGB">
<feFlood flood-opacity="0" result="BackgroundImageFix"/>
<feColorMatrix in="SourceAlpha" type="matrix" values="0 0 0 0 0 0 0 0 0 0 0 0 0 0 0 0 0 0 127 0"/>
<feOffset dy="1"/>
<feGaussianBlur stdDeviation="1"/>
<feColorMatrix type="matrix" values="0 0 0 0 0.0588235 0 0 0 0 0.0588235 0 0 0 0 0.0588235 0 0 0 0.1 0"/>
<feBlend mode="normal" in2="BackgroundImageFix" result="effect1_dropShadow"/>
<feBlend mode="normal" in="SourceGraphic" in2="effect1_dropShadow" result="shape"/>
</filter>
</defs>
</svg>
