<svg width="214" height="237" viewBox="0 0 214 237" fill="none" xmlns="http://www.w3.org/2000/svg">
<g filter="url(#filter0_d)">
<rect x="2" y="19.5762" width="210" height="213.559" rx="20" fill="#FF576D"/>
</g>
<path d="M33.1445 10C33.1445 4.47715 37.6217 0 43.1445 0H170.856C176.379 0 180.856 4.47715 180.856 10V19.5763H33.1445V10Z" fill="#01BDD7"/>
<path d="M71.5725 14.7793V4.9793H73.3645V14.7793H71.5725ZM78.6239 14.9473C77.9146 14.9473 77.2892 14.7933 76.7479 14.4853C76.2066 14.1773 75.7772 13.748 75.4599 13.1973C75.1519 12.6466 74.9979 12.0166 74.9979 11.3073C74.9979 10.598 75.1519 9.96796 75.4599 9.4173C75.7772 8.86663 76.2066 8.4373 76.7479 8.1293C77.2892 7.8213 77.9146 7.6673 78.6239 7.6673C79.5106 7.6673 80.2572 7.90063 80.8639 8.3673C81.4706 8.82463 81.8579 9.4593 82.0259 10.2713H80.1359C80.0426 9.9353 79.8559 9.67396 79.5759 9.4873C79.3052 9.2913 78.9832 9.1933 78.6099 9.1933C78.1152 9.1933 77.6952 9.37996 77.3499 9.7533C77.0046 10.1266 76.8319 10.6446 76.8319 11.3073C76.8319 11.97 77.0046 12.488 77.3499 12.8613C77.6952 13.2346 78.1152 13.4213 78.6099 13.4213C78.9832 13.4213 79.3052 13.328 79.5759 13.1413C79.8559 12.9546 80.0426 12.6886 80.1359 12.3433H82.0259C81.8579 13.1273 81.4706 13.7573 80.8639 14.2333C80.2572 14.7093 79.5106 14.9473 78.6239 14.9473ZM86.9904 14.9473C86.2904 14.9473 85.6698 14.798 85.1284 14.4993C84.5871 14.2006 84.1624 13.7806 83.8544 13.2393C83.5464 12.698 83.3924 12.0726 83.3924 11.3633C83.3924 10.6446 83.5418 10.0053 83.8404 9.4453C84.1484 8.8853 84.5684 8.4513 85.1004 8.1433C85.6418 7.82596 86.2764 7.6673 87.0044 7.6673C87.6858 7.6673 88.2878 7.81663 88.8104 8.1153C89.3331 8.41396 89.7391 8.82463 90.0284 9.3473C90.3271 9.86063 90.4764 10.4346 90.4764 11.0693C90.4764 11.172 90.4718 11.2793 90.4624 11.3913C90.4624 11.5033 90.4578 11.62 90.4484 11.7413H85.1704C85.2078 12.2826 85.3944 12.7073 85.7304 13.0153C86.0758 13.3233 86.4911 13.4773 86.9764 13.4773C87.3404 13.4773 87.6438 13.398 87.8864 13.2393C88.1384 13.0713 88.3251 12.8566 88.4464 12.5953H90.2664C90.1358 13.034 89.9164 13.4353 89.6084 13.7993C89.3098 14.154 88.9364 14.434 88.4884 14.6393C88.0498 14.8446 87.5504 14.9473 86.9904 14.9473ZM87.0044 9.1233C86.5658 9.1233 86.1784 9.2493 85.8424 9.5013C85.5064 9.74396 85.2918 10.1173 85.1984 10.6213H88.6564C88.6284 10.164 88.4604 9.79996 88.1524 9.5293C87.8444 9.25863 87.4618 9.1233 87.0044 9.1233ZM96.0996 14.9473C95.577 14.9473 95.1196 14.8493 94.7276 14.6533C94.3356 14.4573 94.0183 14.182 93.7756 13.8273L93.5796 14.7793H91.9836V4.6993H93.7756V8.8293C93.9996 8.5213 94.2936 8.25063 94.6576 8.0173C95.031 7.78396 95.5116 7.6673 96.0996 7.6673C96.753 7.6673 97.3363 7.82596 97.8496 8.1433C98.363 8.46063 98.769 8.89463 99.0676 9.4453C99.3663 9.99596 99.5156 10.6213 99.5156 11.3213C99.5156 12.0213 99.3663 12.6466 99.0676 13.1973C98.769 13.7386 98.363 14.168 97.8496 14.4853C97.3363 14.7933 96.753 14.9473 96.0996 14.9473ZM95.7216 13.3793C96.291 13.3793 96.7623 13.188 97.1356 12.8053C97.509 12.4226 97.6956 11.928 97.6956 11.3213C97.6956 10.7146 97.509 10.2153 97.1356 9.8233C96.7623 9.4313 96.291 9.2353 95.7216 9.2353C95.143 9.2353 94.667 9.4313 94.2936 9.8233C93.9296 10.206 93.7476 10.7006 93.7476 11.3073C93.7476 11.914 93.9296 12.4133 94.2936 12.8053C94.667 13.188 95.143 13.3793 95.7216 13.3793ZM101.116 14.7793V7.8353H102.712L102.88 9.1373C103.132 8.6893 103.473 8.33463 103.902 8.0733C104.341 7.80263 104.854 7.6673 105.442 7.6673V9.5573H104.938C104.546 9.5573 104.196 9.61796 103.888 9.7393C103.58 9.86063 103.338 10.0706 103.16 10.3693C102.992 10.668 102.908 11.0833 102.908 11.6153V14.7793H101.116ZM109.918 14.9473C109.218 14.9473 108.598 14.798 108.056 14.4993C107.515 14.2006 107.09 13.7806 106.782 13.2393C106.474 12.698 106.32 12.0726 106.32 11.3633C106.32 10.6446 106.47 10.0053 106.768 9.4453C107.076 8.8853 107.496 8.4513 108.028 8.1433C108.57 7.82596 109.204 7.6673 109.932 7.6673C110.614 7.6673 111.216 7.81663 111.738 8.1153C112.261 8.41396 112.667 8.82463 112.956 9.3473C113.255 9.86063 113.404 10.4346 113.404 11.0693C113.404 11.172 113.4 11.2793 113.39 11.3913C113.39 11.5033 113.386 11.62 113.376 11.7413H108.098C108.136 12.2826 108.322 12.7073 108.658 13.0153C109.004 13.3233 109.419 13.4773 109.904 13.4773C110.268 13.4773 110.572 13.398 110.814 13.2393C111.066 13.0713 111.253 12.8566 111.374 12.5953H113.194C113.064 13.034 112.844 13.4353 112.536 13.7993C112.238 14.154 111.864 14.434 111.416 14.6393C110.978 14.8446 110.478 14.9473 109.918 14.9473ZM109.932 9.1233C109.494 9.1233 109.106 9.2493 108.77 9.5013C108.434 9.74396 108.22 10.1173 108.126 10.6213H111.584C111.556 10.164 111.388 9.79996 111.08 9.5293C110.772 9.25863 110.39 9.1233 109.932 9.1233ZM117.305 14.9473C116.708 14.9473 116.218 14.854 115.835 14.6673C115.453 14.4713 115.168 14.2146 114.981 13.8973C114.795 13.58 114.701 13.23 114.701 12.8473C114.701 12.2033 114.953 11.6806 115.457 11.2793C115.961 10.878 116.717 10.6773 117.725 10.6773H119.489V10.5093C119.489 10.0333 119.354 9.6833 119.083 9.4593C118.813 9.2353 118.477 9.1233 118.075 9.1233C117.711 9.1233 117.394 9.21196 117.123 9.3893C116.853 9.5573 116.685 9.8093 116.619 10.1453H114.869C114.916 9.6413 115.084 9.20263 115.373 8.8293C115.672 8.45596 116.055 8.1713 116.521 7.9753C116.988 7.76996 117.511 7.6673 118.089 7.6673C119.079 7.6673 119.858 7.91463 120.427 8.4093C120.997 8.90396 121.281 9.60396 121.281 10.5093V14.7793H119.755L119.587 13.6593C119.382 14.0326 119.093 14.3406 118.719 14.5833C118.355 14.826 117.884 14.9473 117.305 14.9473ZM117.711 13.5473C118.225 13.5473 118.621 13.3793 118.901 13.0433C119.191 12.7073 119.373 12.292 119.447 11.7973H117.921C117.445 11.7973 117.105 11.886 116.899 12.0633C116.694 12.2313 116.591 12.4413 116.591 12.6933C116.591 12.964 116.694 13.174 116.899 13.3233C117.105 13.4726 117.375 13.5473 117.711 13.5473ZM122.991 14.7793V4.6993H124.783V10.6493L127.247 7.8353H129.375L126.533 10.9993L129.837 14.7793H127.597L124.783 11.2933V14.7793H122.991ZM133.748 14.9473C133.048 14.9473 132.428 14.798 131.886 14.4993C131.345 14.2006 130.92 13.7806 130.612 13.2393C130.304 12.698 130.15 12.0726 130.15 11.3633C130.15 10.6446 130.3 10.0053 130.598 9.4453C130.906 8.8853 131.326 8.4513 131.858 8.1433C132.4 7.82596 133.034 7.6673 133.762 7.6673C134.444 7.6673 135.046 7.81663 135.568 8.1153C136.091 8.41396 136.497 8.82463 136.786 9.3473C137.085 9.86063 137.234 10.4346 137.234 11.0693C137.234 11.172 137.23 11.2793 137.22 11.3913C137.22 11.5033 137.216 11.62 137.206 11.7413H131.928C131.966 12.2826 132.152 12.7073 132.488 13.0153C132.834 13.3233 133.249 13.4773 133.734 13.4773C134.098 13.4773 134.402 13.398 134.644 13.2393C134.896 13.0713 135.083 12.8566 135.204 12.5953H137.024C136.894 13.034 136.674 13.4353 136.366 13.7993C136.068 14.154 135.694 14.434 135.246 14.6393C134.808 14.8446 134.308 14.9473 133.748 14.9473ZM133.762 9.1233C133.324 9.1233 132.936 9.2493 132.6 9.5013C132.264 9.74396 132.05 10.1173 131.956 10.6213H135.414C135.386 10.164 135.218 9.79996 134.91 9.5293C134.602 9.25863 134.22 9.1233 133.762 9.1233ZM138.741 14.7793V7.8353H140.337L140.505 9.1373C140.757 8.6893 141.098 8.33463 141.527 8.0733C141.966 7.80263 142.479 7.6673 143.067 7.6673V9.5573H142.563C142.171 9.5573 141.821 9.61796 141.513 9.7393C141.205 9.86063 140.963 10.0706 140.785 10.3693C140.617 10.668 140.533 11.0833 140.533 11.6153V14.7793H138.741Z" fill="white"/>
<path d="M50.8666 61V48.4H55.1686C56.6446 48.4 57.8566 48.664 58.8046 49.192C59.7646 49.708 60.4726 50.44 60.9286 51.388C61.3966 52.324 61.6306 53.428 61.6306 54.7C61.6306 55.972 61.3966 57.082 60.9286 58.03C60.4726 58.966 59.7646 59.698 58.8046 60.226C57.8566 60.742 56.6446 61 55.1686 61H50.8666ZM53.1706 59.02H55.0606C56.1166 59.02 56.9506 58.852 57.5626 58.516C58.1746 58.168 58.6126 57.676 58.8766 57.04C59.1406 56.392 59.2726 55.612 59.2726 54.7C59.2726 53.8 59.1406 53.026 58.8766 52.378C58.6126 51.73 58.1746 51.232 57.5626 50.884C56.9506 50.536 56.1166 50.362 55.0606 50.362H53.1706V59.02ZM67.9475 61.216C67.0475 61.216 66.2495 61.024 65.5535 60.64C64.8575 60.256 64.3115 59.716 63.9155 59.02C63.5195 58.324 63.3215 57.52 63.3215 56.608C63.3215 55.684 63.5135 54.862 63.8975 54.142C64.2935 53.422 64.8335 52.864 65.5175 52.468C66.2135 52.06 67.0295 51.856 67.9655 51.856C68.8415 51.856 69.6155 52.048 70.2875 52.432C70.9595 52.816 71.4815 53.344 71.8535 54.016C72.2375 54.676 72.4295 55.414 72.4295 56.23C72.4295 56.362 72.4235 56.5 72.4115 56.644C72.4115 56.788 72.4055 56.938 72.3935 57.094H65.6075C65.6555 57.79 65.8955 58.336 66.3275 58.732C66.7715 59.128 67.3055 59.326 67.9295 59.326C68.3975 59.326 68.7875 59.224 69.0995 59.02C69.4235 58.804 69.6635 58.528 69.8195 58.192H72.1595C71.9915 58.756 71.7095 59.272 71.3135 59.74C70.9295 60.196 70.4495 60.556 69.8735 60.82C69.3095 61.084 68.6675 61.216 67.9475 61.216ZM67.9655 53.728C67.4015 53.728 66.9035 53.89 66.4715 54.214C66.0395 54.526 65.7635 55.006 65.6435 55.654H70.0895C70.0535 55.066 69.8375 54.598 69.4415 54.25C69.0455 53.902 68.5535 53.728 67.9655 53.728ZM78.0573 61.216C77.2653 61.216 76.5693 61.09 75.9693 60.838C75.3693 60.574 74.8893 60.214 74.5293 59.758C74.1693 59.302 73.9533 58.774 73.8813 58.174H76.2033C76.2753 58.522 76.4673 58.822 76.7793 59.074C77.1033 59.314 77.5173 59.434 78.0213 59.434C78.5253 59.434 78.8913 59.332 79.1193 59.128C79.3593 58.924 79.4793 58.69 79.4793 58.426C79.4793 58.042 79.3113 57.784 78.9753 57.652C78.6393 57.508 78.1713 57.37 77.5713 57.238C77.1873 57.154 76.7973 57.052 76.4013 56.932C76.0053 56.812 75.6393 56.662 75.3033 56.482C74.9793 56.29 74.7153 56.05 74.5113 55.762C74.3073 55.462 74.2053 55.096 74.2053 54.664C74.2053 53.872 74.5173 53.206 75.1413 52.666C75.7773 52.126 76.6653 51.856 77.8053 51.856C78.8613 51.856 79.7013 52.102 80.3253 52.594C80.9613 53.086 81.3393 53.764 81.4593 54.628H79.2813C79.1493 53.968 78.6513 53.638 77.7873 53.638C77.3553 53.638 77.0193 53.722 76.7793 53.89C76.5513 54.058 76.4373 54.268 76.4373 54.52C76.4373 54.784 76.6113 54.994 76.9593 55.15C77.3073 55.306 77.7693 55.45 78.3453 55.582C78.9693 55.726 79.5393 55.888 80.0553 56.068C80.5833 56.236 81.0033 56.494 81.3153 56.842C81.6273 57.178 81.7833 57.664 81.7833 58.3C81.7953 58.852 81.6513 59.35 81.3513 59.794C81.0513 60.238 80.6193 60.586 80.0553 60.838C79.4913 61.09 78.8253 61.216 78.0573 61.216ZM88.1623 61.216C87.2623 61.216 86.4643 61.024 85.7683 60.64C85.0723 60.256 84.5263 59.716 84.1303 59.02C83.7343 58.324 83.5363 57.52 83.5363 56.608C83.5363 55.684 83.7283 54.862 84.1123 54.142C84.5083 53.422 85.0483 52.864 85.7323 52.468C86.4283 52.06 87.2443 51.856 88.1803 51.856C89.0563 51.856 89.8303 52.048 90.5023 52.432C91.1743 52.816 91.6963 53.344 92.0683 54.016C92.4523 54.676 92.6443 55.414 92.6443 56.23C92.6443 56.362 92.6383 56.5 92.6263 56.644C92.6263 56.788 92.6203 56.938 92.6083 57.094H85.8223C85.8703 57.79 86.1103 58.336 86.5423 58.732C86.9863 59.128 87.5203 59.326 88.1443 59.326C88.6123 59.326 89.0023 59.224 89.3143 59.02C89.6383 58.804 89.8783 58.528 90.0343 58.192H92.3743C92.2063 58.756 91.9243 59.272 91.5283 59.74C91.1443 60.196 90.6643 60.556 90.0883 60.82C89.5243 61.084 88.8823 61.216 88.1623 61.216ZM88.1803 53.728C87.6163 53.728 87.1183 53.89 86.6863 54.214C86.2543 54.526 85.9783 55.006 85.8583 55.654H90.3043C90.2683 55.066 90.0523 54.598 89.6563 54.25C89.2603 53.902 88.7683 53.728 88.1803 53.728ZM94.5821 61V52.072H96.6341L96.8501 53.746C97.1741 53.17 97.6121 52.714 98.1641 52.378C98.7281 52.03 99.3881 51.856 100.144 51.856V54.286H99.4961C98.9921 54.286 98.5421 54.364 98.1461 54.52C97.7501 54.676 97.4381 54.946 97.2101 55.33C96.9941 55.714 96.8861 56.248 96.8861 56.932V61H94.5821ZM105.697 61C104.761 61 104.011 60.772 103.447 60.316C102.883 59.86 102.601 59.05 102.601 57.886V53.998H101.071V52.072H102.601L102.871 49.678H104.905V52.072H107.317V53.998H104.905V57.904C104.905 58.336 104.995 58.636 105.175 58.804C105.367 58.96 105.691 59.038 106.147 59.038H107.263V61H105.697ZM113.638 61V48.4H115.942V61H113.638ZM122.02 61.216C121.228 61.216 120.532 61.09 119.932 60.838C119.332 60.574 118.852 60.214 118.492 59.758C118.132 59.302 117.916 58.774 117.844 58.174H120.166C120.238 58.522 120.43 58.822 120.742 59.074C121.066 59.314 121.48 59.434 121.984 59.434C122.488 59.434 122.854 59.332 123.082 59.128C123.322 58.924 123.442 58.69 123.442 58.426C123.442 58.042 123.274 57.784 122.938 57.652C122.602 57.508 122.134 57.37 121.534 57.238C121.15 57.154 120.76 57.052 120.364 56.932C119.968 56.812 119.602 56.662 119.266 56.482C118.942 56.29 118.678 56.05 118.474 55.762C118.27 55.462 118.168 55.096 118.168 54.664C118.168 53.872 118.48 53.206 119.104 52.666C119.74 52.126 120.628 51.856 121.768 51.856C122.824 51.856 123.664 52.102 124.288 52.594C124.924 53.086 125.302 53.764 125.422 54.628H123.244C123.112 53.968 122.614 53.638 121.75 53.638C121.318 53.638 120.982 53.722 120.742 53.89C120.514 54.058 120.4 54.268 120.4 54.52C120.4 54.784 120.574 54.994 120.922 55.15C121.27 55.306 121.732 55.45 122.308 55.582C122.932 55.726 123.502 55.888 124.018 56.068C124.546 56.236 124.966 56.494 125.278 56.842C125.59 57.178 125.746 57.664 125.746 58.3C125.758 58.852 125.614 59.35 125.314 59.794C125.014 60.238 124.582 60.586 124.018 60.838C123.454 61.09 122.788 61.216 122.02 61.216ZM127.787 61V48.04H130.091V61H127.787ZM135.523 61.216C134.755 61.216 134.125 61.096 133.633 60.856C133.141 60.604 132.775 60.274 132.535 59.866C132.295 59.458 132.175 59.008 132.175 58.516C132.175 57.688 132.499 57.016 133.147 56.5C133.795 55.984 134.767 55.726 136.063 55.726H138.331V55.51C138.331 54.898 138.157 54.448 137.809 54.16C137.461 53.872 137.029 53.728 136.513 53.728C136.045 53.728 135.637 53.842 135.289 54.07C134.941 54.286 134.725 54.61 134.641 55.042H132.391C132.451 54.394 132.667 53.83 133.039 53.35C133.423 52.87 133.915 52.504 134.515 52.252C135.115 51.988 135.787 51.856 136.531 51.856C137.803 51.856 138.805 52.174 139.537 52.81C140.269 53.446 140.635 54.346 140.635 55.51V61H138.673L138.457 59.56C138.193 60.04 137.821 60.436 137.341 60.748C136.873 61.06 136.267 61.216 135.523 61.216ZM136.045 59.416C136.705 59.416 137.215 59.2 137.575 58.768C137.947 58.336 138.181 57.802 138.277 57.166H136.315C135.703 57.166 135.265 57.28 135.001 57.508C134.737 57.724 134.605 57.994 134.605 58.318C134.605 58.666 134.737 58.936 135.001 59.128C135.265 59.32 135.613 59.416 136.045 59.416ZM142.834 61V52.072H144.868L145.048 53.584C145.324 53.056 145.72 52.636 146.236 52.324C146.764 52.012 147.382 51.856 148.09 51.856C149.194 51.856 150.052 52.204 150.664 52.9C151.276 53.596 151.582 54.616 151.582 55.96V61H149.278V56.176C149.278 55.408 149.122 54.82 148.81 54.412C148.498 54.004 148.012 53.8 147.352 53.8C146.704 53.8 146.17 54.028 145.75 54.484C145.342 54.94 145.138 55.576 145.138 56.392V61H142.834ZM157.889 61.216C157.049 61.216 156.299 61.012 155.639 60.604C154.979 60.196 154.457 59.638 154.073 58.93C153.689 58.222 153.497 57.418 153.497 56.518C153.497 55.618 153.689 54.82 154.073 54.124C154.457 53.416 154.979 52.864 155.639 52.468C156.299 52.06 157.049 51.856 157.889 51.856C158.561 51.856 159.149 51.982 159.653 52.234C160.157 52.486 160.565 52.84 160.877 53.296V48.04H163.181V61H161.129L160.877 59.722C160.589 60.118 160.205 60.466 159.725 60.766C159.257 61.066 158.645 61.216 157.889 61.216ZM158.375 59.2C159.119 59.2 159.725 58.954 160.193 58.462C160.673 57.958 160.913 57.316 160.913 56.536C160.913 55.756 160.673 55.12 160.193 54.628C159.725 54.124 159.119 53.872 158.375 53.872C157.643 53.872 157.037 54.118 156.557 54.61C156.077 55.102 155.837 55.738 155.837 56.518C155.837 57.298 156.077 57.94 156.557 58.444C157.037 58.948 157.643 59.2 158.375 59.2Z" fill="white"/>
<path d="M78.6537 160.865C75.902 160.865 73.9993 162.47 72.4885 163.612C70.9777 164.754 69.8629 165.432 69.0765 165.432C68.2901 165.432 67.1693 164.754 65.6585 163.612C64.6485 162.857 63.2171 163.064 62.4618 164.074C61.7064 165.084 61.8943 166.503 62.9043 167.259C64.415 168.4 66.3248 169.999 69.0765 169.999C71.8281 169.999 73.7308 168.4 75.2416 167.259C76.7524 166.117 77.8673 165.432 78.6537 165.432C79.4401 165.432 80.5537 166.117 82.0645 167.259C83.5753 168.4 85.4792 169.999 88.2308 169.999C90.9824 169.999 92.8934 168.4 94.4042 167.259C95.915 166.117 97.0275 165.432 97.8139 165.432C98.6002 165.432 99.7152 166.117 101.226 167.259C102.737 168.4 104.64 169.999 107.391 169.999C110.143 169.999 112.054 168.4 113.565 167.259C115.075 166.117 116.189 165.432 116.975 165.432C117.762 165.432 118.876 166.117 120.386 167.259C121.897 168.4 123.801 169.999 126.553 169.999C129.304 169.999 131.214 168.4 132.725 167.259C134.236 166.117 135.35 165.432 136.137 165.432C136.923 165.432 138.037 166.117 139.548 167.259C141.058 168.401 142.961 170 145.713 170C148.464 170 150.374 168.4 151.885 167.259C152.895 166.503 153.083 165.084 152.328 164.074C151.572 163.064 150.142 162.857 149.132 163.612C147.621 164.754 146.499 165.432 145.713 165.432C144.926 165.432 143.813 164.754 142.302 163.612C140.791 162.471 138.888 160.865 136.137 160.865C133.385 160.865 131.481 162.471 129.971 163.612C128.46 164.754 127.339 165.432 126.553 165.432C125.766 165.432 124.652 164.754 123.142 163.612C121.631 162.471 119.727 160.865 116.975 160.865C114.224 160.865 112.32 162.471 110.809 163.612C109.298 164.754 108.177 165.432 107.391 165.432C106.605 165.432 105.491 164.754 103.98 163.612C102.469 162.471 100.566 160.865 97.8139 160.865C95.0622 160.865 93.1595 162.471 91.6488 163.612C90.138 164.754 89.0172 165.432 88.2308 165.432C87.4444 165.432 86.3296 164.754 84.8188 163.612C83.308 162.471 81.4053 160.865 78.6537 160.865Z" fill="#3895FF"/>
<path d="M91.051 77.9253C93.0176 76.5758 95.3705 75.9038 97.7532 76.0111L97.7508 76.0098C98.8493 76.0592 99.9341 76.2733 100.969 76.6452V76.6556C103.049 77.4033 104.856 78.7621 106.151 80.5539C106.669 81.274 107.097 82.0543 107.427 82.8776C108.288 82.4487 109.201 82.1349 110.144 81.9441C112.312 81.5144 114.56 81.7499 116.593 82.6196C118.192 83.3035 119.605 84.3577 120.716 85.6952C121.828 87.0326 122.605 88.6151 122.985 90.3122C121.341 89.3883 119.478 88.7654 117.503 88.4796C115.527 88.1938 113.48 88.2509 111.478 88.6475H111.444C113.032 88.6761 114.595 89.0491 116.025 89.7407C118.599 90.9948 120.582 93.2058 121.548 95.9016C122.515 98.5973 122.389 101.564 121.198 104.169C120.447 102.439 119.339 100.817 117.938 99.3953C116.537 97.9738 114.871 96.7817 113.037 95.8881C112.914 95.8327 112.79 95.7786 112.666 95.726C113.104 96.149 113.498 96.6151 113.842 97.1173C115.161 99.0711 115.664 101.463 115.244 103.783C114.823 106.103 113.513 108.166 111.592 109.533C111.768 107.991 111.646 106.378 111.232 104.788C110.818 103.198 110.121 101.662 109.182 100.27C107.946 98.4612 106.336 96.9539 104.51 95.8952L100.194 94.4718C98.2983 94.1288 96.3021 94.1799 94.3658 94.621C92.7294 95 91.173 95.6496 89.7868 96.532C88.4007 97.4145 87.2125 98.5122 86.2912 99.7616C85.8155 97.4522 86.2616 95.0484 87.5342 93.0635C88.8069 91.0786 90.8051 89.67 93.1023 89.1385C93.6964 89.0056 94.3025 88.933 94.9113 88.922C94.784 88.8756 94.6562 88.8306 94.5279 88.7871C92.5764 88.192 90.5446 87.9301 88.5506 88.0167C86.5566 88.1032 84.6401 88.5364 82.9123 89.2911C83.8142 86.5728 85.7433 84.3149 88.2874 82.9996C90.8316 81.6843 93.7892 81.4159 96.5285 82.2516C98.0465 82.7196 99.4448 83.5116 100.627 84.5729L100.609 84.5437C99.4141 82.8903 97.9537 81.4539 96.3129 80.3177C94.6721 79.1816 92.8835 78.3684 91.051 77.9253Z" fill="#01AD5A"/>
<path d="M82.7642 116.063C81.3761 116.298 80.0564 116.811 78.9168 117.56L75.7817 120.875C75.3299 121.719 74.9969 122.636 74.7961 123.588C74.5641 124.725 74.5252 125.89 74.6816 127.015C74.838 128.14 75.1866 129.202 75.7071 130.14C74.1191 129.775 72.7365 128.804 71.8547 127.434C70.9729 126.064 70.6618 124.403 70.9877 122.807C71.0751 122.395 71.204 121.993 71.3723 121.607C71.3065 121.674 71.2414 121.742 71.177 121.81C70.2423 122.865 69.4939 124.067 68.9751 125.344C68.4564 126.622 68.1778 127.951 68.1554 129.254C66.7065 127.906 65.8421 126.045 65.7466 124.068C65.6511 122.092 66.3322 120.156 67.6443 118.674C68.3687 117.862 69.2595 117.214 70.2561 116.777C68.8738 117.053 67.5517 117.558 66.3664 118.262C65.1809 118.967 64.1559 119.858 63.3509 120.882C63.1446 119.698 63.2225 118.482 63.5784 117.334C63.9342 116.187 64.5578 115.14 65.3977 114.28C66.4656 113.187 67.8389 112.443 69.3374 112.144C69.9898 112.016 70.656 111.975 71.3191 112.022C71.3119 111.409 71.3791 110.798 71.519 110.201C71.8724 108.714 72.6666 107.369 73.7977 106.342V106.331C74.6871 105.523 75.756 104.937 76.9162 104.623C78.0763 104.309 79.2945 104.275 80.4703 104.525C79.4172 105.292 78.4901 106.284 77.7427 107.443C76.9953 108.603 76.4425 109.906 76.1165 111.278L76.1105 111.302C76.5843 110.312 77.2672 109.437 78.1122 108.737C79.6403 107.479 81.5998 106.868 83.5721 107.035C85.5444 107.202 87.3732 108.134 88.6678 109.631C87.3651 109.606 86.027 109.836 84.731 110.308C83.4351 110.78 82.2071 111.485 81.1185 112.381C81.048 112.442 80.9782 112.505 80.9091 112.568C81.3008 112.414 81.7071 112.3 82.1218 112.228C83.7289 111.96 85.377 112.332 86.7141 113.262C88.0513 114.193 88.9715 115.61 89.2783 117.21C88.3598 116.656 87.311 116.269 86.1928 116.072C85.0746 115.875 83.9091 115.872 82.7642 116.063Z" fill="#01AD5A"/>
<path d="M93.6544 141.36C92.6924 124.942 95.0683 109.09 100.187 94.4727L104.503 95.896C99.6492 109.723 97.3545 124.695 98.1501 140.227L93.6732 141.528L89.5218 143.388C86.1387 134.953 81.4518 127.402 75.7754 120.876L78.9105 117.561C85.0068 124.496 90.0461 132.542 93.6732 141.528C93.6648 141.472 93.6586 141.416 93.6544 141.36Z" fill="#5E2904"/>
<path d="M72.1602 160.429C76.0285 153.075 82.1016 147.115 89.528 143.386L93.6794 141.526L98.1563 140.224C101.181 139.484 104.282 139.102 107.395 139.084C114.66 139.088 121.785 141.08 127.999 144.845C134.212 148.609 139.277 154.003 142.644 160.44C141.143 159.367 138.981 158.124 136.136 158.124C132.318 158.124 129.726 160.361 128.317 161.426C127.549 162.006 126.893 162.317 126.553 162.491C126.214 162.317 125.562 162.006 124.795 161.426C123.386 160.361 120.793 158.124 116.975 158.124C113.156 158.124 110.565 160.362 109.157 161.426C108.388 162.006 107.733 162.317 107.393 162.491C107.054 162.317 106.402 162.006 105.633 161.426C104.226 160.362 101.633 158.124 97.8144 158.124C93.9961 158.124 91.4044 160.362 89.9965 161.426C89.2283 162.006 88.5728 162.317 88.2325 162.491C87.8935 162.317 87.24 162.006 86.4721 161.426C85.0642 160.362 82.4724 158.124 78.6542 158.124C75.8172 158.124 73.6605 159.358 72.1602 160.429Z" fill="#FFE500"/>
<path d="M128.672 115.545C128.672 115.545 129.008 111.008 128.85 110.179C128.691 109.349 128.542 106.987 129.414 107.764C130.286 108.54 129.976 110.301 129.976 110.301C129.976 110.301 130.804 115.096 130.039 115.746C129.273 116.396 128.672 115.545 128.672 115.545Z" fill="#A0616A"/>
<path d="M128.043 120.03C128.043 120.03 130.639 117.716 130.498 115.751C130.498 115.751 128.955 114.559 128.604 115.19C128.254 115.822 125.704 118.284 126.137 119.122C126.57 119.96 128.043 120.03 128.043 120.03Z" fill="#01BDD7"/>
<path d="M118.854 115.891C118.854 115.891 117.31 111.612 117.24 110.77C117.17 109.929 116.679 107.614 116.048 108.596C115.416 109.578 116.188 111.191 116.188 111.191C116.188 111.191 116.679 116.031 117.591 116.452C118.503 116.873 118.854 115.891 118.854 115.891Z" fill="#A0616A"/>
<path d="M123.061 137.355H118.922L118.712 139.46L119.694 139.67C119.694 139.67 122.009 138.969 123.342 139.179C124.674 139.39 123.061 137.355 123.061 137.355Z" fill="#A0616A"/>
<path d="M120.328 137.078C120.328 137.078 118.364 135.745 118.013 136.868C117.663 137.99 116.4 142.058 116.821 142.479C117.242 142.9 117.733 142.129 117.733 142.129C117.733 142.129 118.574 140.375 119.206 140.305C119.837 140.235 120.188 139.673 120.188 139.673C120.188 139.673 118.364 138.27 120.328 137.078Z" fill="#2F2E41"/>
<path d="M124.113 147.948C124.113 147.948 123.342 151.104 123.482 151.595C123.622 152.086 121.237 151.806 121.237 151.806L121.097 150.894C121.097 150.894 122.5 148.649 122.5 147.667C122.5 146.685 124.113 147.948 124.113 147.948Z" fill="#A0616A"/>
<path d="M121.24 150.264C121.24 150.264 119.346 151.667 120.328 152.368C121.311 153.07 124.958 154.893 124.958 154.893C124.958 154.893 126.291 155.104 125.309 153.911C124.327 152.719 124.046 152.508 123.976 151.877C123.915 151.457 123.768 151.053 123.544 150.693C123.544 150.693 122.573 152.649 121.24 150.264Z" fill="#2F2E41"/>
<path d="M126.991 133.427C126.991 133.427 127.762 140.722 126.57 143.037C125.377 145.352 123.974 148.509 124.045 148.649C124.115 148.789 122.01 148.438 122.01 147.807C122.01 147.176 124.325 140.863 124.325 140.863C124.325 140.863 123.343 132.655 122.572 132.094C121.8 131.533 126.991 133.427 126.991 133.427Z" fill="#2F2E41"/>
<path opacity="0.1" d="M126.991 133.427C126.991 133.427 127.762 140.722 126.57 143.037C125.377 145.352 123.974 148.509 124.045 148.649C124.115 148.789 122.01 148.438 122.01 147.807C122.01 147.176 124.325 140.863 124.325 140.863C124.325 140.863 123.343 132.655 122.572 132.094C121.8 131.533 126.991 133.427 126.991 133.427Z" fill="black"/>
<path d="M125.405 112.84C125.906 112.931 126.403 113.206 126.652 113.677C126.885 114.115 126.9 114.702 127.27 115.017C127.491 115.205 127.79 115.249 128.037 115.397C128.212 115.509 128.355 115.665 128.45 115.85C128.546 116.035 128.591 116.242 128.581 116.449C128.561 116.836 128.357 117.197 128.361 117.584C128.367 118.088 128.715 118.504 129.043 118.869L127.956 119.071C127.792 119.114 127.62 119.119 127.453 119.084C127.266 119.028 127.113 118.874 126.924 118.827C126.651 118.759 126.382 118.925 126.139 119.071C125.448 119.489 124.707 119.805 123.969 120.119C123.752 120.211 123.506 120.304 123.291 120.204C123.118 120.124 123.01 119.936 122.848 119.834C122.556 119.651 122.19 119.789 121.862 119.879C121.121 120.08 120.333 120.013 119.637 119.689C119.787 119.514 119.984 119.391 120.145 119.228C120.307 119.065 120.438 118.834 120.395 118.601C120.352 118.364 120.148 118.206 120.009 118.014C119.906 117.863 119.835 117.692 119.799 117.513C119.763 117.333 119.763 117.148 119.799 116.969C119.872 116.612 120.046 116.283 120.3 116.022C120.445 115.886 120.581 115.742 120.709 115.59C120.965 115.245 121.028 114.788 121.11 114.358C121.191 113.927 121.321 113.469 121.653 113.207C122.181 112.789 123.04 112.932 123.659 112.89C124.248 112.851 124.817 112.84 125.405 112.84Z" fill="#2F2E41"/>
<path d="M128.885 128.447L127.552 131.744C127.552 131.744 133.655 138.408 130.218 139.32C126.78 140.232 125.588 138.618 123.413 139.881C123.413 139.881 122.361 138.268 122.502 137.286C122.502 137.286 125.518 136.724 127.131 136.794C127.131 136.794 122.782 133.007 122.361 132.866C121.94 132.726 120.537 130.481 122.712 128.657C124.886 126.834 124.325 125.852 124.325 125.852L128.885 128.447Z" fill="#2F2E41"/>
<path d="M125.729 117.015C125.729 117.015 125.519 119.189 126.43 119.47C127.342 119.75 122.853 119.68 122.853 119.68C122.853 119.68 123.905 119.049 123.414 117.716C122.923 116.383 125.729 117.015 125.729 117.015Z" fill="#A0616A"/>
<path opacity="0.1" d="M125.729 117.015C125.729 117.015 125.519 119.189 126.43 119.47C127.342 119.75 122.853 119.68 122.853 119.68C122.853 119.68 123.905 119.049 123.414 117.716C122.923 116.383 125.729 117.015 125.729 117.015Z" fill="black"/>
<path d="M120.958 120.802C120.958 120.802 121.379 118.628 122.22 118.768C123.062 118.909 124.746 119.049 124.956 119.189C125.167 119.329 126.289 119.617 126.289 119.617C126.289 119.617 125.868 119.119 126.289 119.049C126.71 118.979 128.043 119.329 128.183 119.61C128.323 119.891 128.884 120.452 128.884 121.434C128.884 122.416 129.305 124.099 129.165 124.801C129.025 125.502 129.235 127.116 129.656 128.028C130.077 128.94 129.726 129.851 129.025 128.94C128.323 128.028 128.674 128.94 128.113 129.01C127.552 129.08 125.026 126.484 124.325 127.116C123.623 127.747 122.922 128.168 122.782 127.817C122.641 127.466 123.343 126.835 123.343 126.555C123.343 126.274 124.465 127.466 123.273 125.011C122.08 122.556 123.203 121.855 120.958 120.802Z" fill="#01BDD7"/>
<path d="M121.519 120.661L120.957 120.801C120.957 120.801 118.923 119.328 118.362 118.276C117.801 117.224 117.38 116.382 117.38 116.382C117.38 116.382 118.292 115.259 118.853 115.68C119.414 116.101 121.939 118.977 121.939 118.977L121.519 120.661Z" fill="#01BDD7"/>
<path d="M124.115 118.486C122.914 118.486 121.94 117.512 121.94 116.311C121.94 115.11 122.914 114.137 124.115 114.137C125.315 114.137 126.289 115.11 126.289 116.311C126.289 117.512 125.315 118.486 124.115 118.486Z" fill="#A0616A"/>
<path d="M126.039 115.682C125.667 115.374 125.193 115.218 124.711 115.245C123.877 115.297 123.144 115.891 122.309 115.909C122.342 115.729 122.317 115.542 122.237 115.377C122.172 115.244 122.07 115.116 122.084 114.969C122.107 114.852 122.17 114.747 122.264 114.674C122.746 114.216 123.414 113.98 124.078 113.951C124.524 113.932 125.374 113.942 125.719 114.28C126.015 114.568 125.981 115.308 126.039 115.682Z" fill="#2F2E41"/>
<defs>
<filter id="filter0_d" x="0" y="18.5762" width="214" height="217.559" filterUnits="userSpaceOnUse" color-interpolation-filters="sRGB">
<feFlood flood-opacity="0" result="BackgroundImageFix"/>
<feColorMatrix in="SourceAlpha" type="matrix" values="0 0 0 0 0 0 0 0 0 0 0 0 0 0 0 0 0 0 127 0"/>
<feOffset dy="1"/>
<feGaussianBlur stdDeviation="1"/>
<feColorMatrix type="matrix" values="0 0 0 0 0.0588235 0 0 0 0 0.0588235 0 0 0 0 0.0588235 0 0 0 0.1 0"/>
<feBlend mode="normal" in2="BackgroundImageFix" result="effect1_dropShadow"/>
<feBlend mode="normal" in="SourceGraphic" in2="effect1_dropShadow" result="shape"/>
</filter>
</defs>
</svg>
