<svg width="88" height="84" viewBox="0 0 88 84" fill="none" xmlns="http://www.w3.org/2000/svg">
<g filter="url(#filter0_d)">
<rect x="4" width="80" height="75.5556" rx="25" fill="#F12587"/>
</g>
<path d="M30.0127 47.0701C28.6919 48.0363 28.4044 49.8903 29.3706 51.2111C30.3369 52.5319 32.1909 52.8193 33.5117 51.8531C34.8325 50.8869 35.1199 49.0329 34.1537 47.7121C33.1875 46.3913 31.3335 46.1038 30.0127 47.0701Z" fill="white"/>
<path d="M31.831 35.3372C30.5102 36.3034 30.2228 38.1574 31.189 39.4782C32.1552 40.799 34.0092 41.0865 35.33 40.1202C36.6508 39.154 36.9383 37.3 35.9721 35.9792C35.0058 34.6584 33.1518 34.3709 31.831 35.3372Z" fill="white"/>
<path d="M33.6513 23.6042C32.3305 24.5704 32.0431 26.4244 33.0093 27.7452C33.9755 29.066 35.8295 29.3535 37.1503 28.3873C38.4712 27.421 38.7586 25.567 37.7924 24.2462C36.8262 22.9254 34.9722 22.638 33.6513 23.6042Z" fill="white"/>
<path d="M20.0986 33.518C18.7778 34.4842 18.4903 36.3382 19.4566 37.659C20.4228 38.9798 22.2768 39.2673 23.5976 38.3011C24.9184 37.3348 25.2059 35.4808 24.2396 34.16C23.2734 32.8392 21.4194 32.5518 20.0986 33.518Z" fill="white"/>
<path d="M45.9252 27.9709L40.1683 20.1014C38.4154 17.7051 35.0368 17.1813 32.6405 18.9342L15.9537 31.1413C13.5574 32.8943 13.0336 36.2729 14.7866 38.6691L26.9936 55.356C28.7466 57.7522 32.1252 58.2761 34.5215 56.5231L42.4275 50.7395L43.4 55.1966C44.033 58.0973 46.9099 59.9439 49.8107 59.3111L70.0107 54.9051C72.9115 54.2723 74.7586 51.3948 74.1258 48.494L71.372 35.869L70.2016 30.5033L69.8488 28.8858L69.7531 28.4468L69.7282 28.3328L69.7219 28.3037L69.7203 28.2964L69.7199 28.2946L69.7198 28.2941C69.7198 28.294 69.7197 28.294 69.4755 28.3472L69.7197 28.294C69.5616 27.569 69.2629 26.9092 68.8586 26.3378C67.6469 24.6251 65.4849 23.7042 63.3087 24.1789L52.3447 26.5705L47.6849 27.587L46.2802 27.8934L45.9252 27.9709ZM67.6868 27.1605C67.9823 27.5797 68.2008 28.0644 68.3175 28.5996L72.724 48.8002C73.1904 50.9381 71.8431 53.0365 69.7051 53.5028L49.5051 57.9089C47.3671 58.3753 45.2682 57.0283 44.8019 54.8904L40.3958 34.6904C39.9294 32.5524 41.2764 30.4535 43.4143 29.9872L63.6143 25.5811C65.2177 25.2314 66.7995 25.9016 67.6868 27.1605ZM39.0103 20.9486L44.3921 28.3055L43.1081 28.5854C40.2072 29.2178 38.3608 32.0953 38.9936 34.996L42.0934 49.2061L33.6743 55.365C31.9082 56.657 29.4437 56.2749 28.1517 54.5088L15.9447 37.8219C14.6527 36.0559 15.0348 33.5914 16.8009 32.2994L33.4877 20.0923C35.2538 18.8004 37.7183 19.1825 39.0103 20.9486Z" fill="white" stroke="white" stroke-width="0.5"/>
<path d="M49.5158 48.8423C47.9169 49.1911 46.9035 50.77 47.2523 52.3689C47.6011 53.9678 49.18 54.9812 50.7789 54.6325C52.3778 54.2837 53.3912 52.7048 53.0424 51.1059C52.6936 49.507 51.1147 48.4936 49.5158 48.8423Z" fill="white"/>
<path d="M65.9201 45.2638C64.3212 45.6126 63.3078 47.1915 63.6566 48.7904C64.0054 50.3893 65.5843 51.4027 67.1832 51.0539C68.7821 50.7051 69.7955 49.1262 69.4467 47.5273C69.0979 45.9284 67.519 44.915 65.9201 45.2638Z" fill="white"/>
<path d="M62.342 28.8584C60.7431 29.2072 59.7297 30.7861 60.0785 32.385C60.4272 33.9839 62.0061 34.9973 63.605 34.6486C65.2039 34.2998 66.2174 32.7209 65.8686 31.122C65.5198 29.5231 63.9409 28.5097 62.342 28.8584Z" fill="white"/>
<path d="M45.9358 32.437C44.3369 32.7857 43.3234 34.3646 43.6722 35.9635C44.021 37.5624 45.5999 38.5759 47.1988 38.2271C48.7977 37.8783 49.8111 36.2994 49.4623 34.7005C49.1136 33.1016 47.5347 32.0882 45.9358 32.437Z" fill="white"/>
<defs>
<filter id="filter0_d" x="0" y="0" width="88" height="83.5556" filterUnits="userSpaceOnUse" color-interpolation-filters="sRGB">
<feFlood flood-opacity="0" result="BackgroundImageFix"/>
<feColorMatrix in="SourceAlpha" type="matrix" values="0 0 0 0 0 0 0 0 0 0 0 0 0 0 0 0 0 0 127 0"/>
<feOffset dy="4"/>
<feGaussianBlur stdDeviation="2"/>
<feColorMatrix type="matrix" values="0 0 0 0 0.0588235 0 0 0 0 0.0588235 0 0 0 0 0.0588235 0 0 0 0.1 0"/>
<feBlend mode="normal" in2="BackgroundImageFix" result="effect1_dropShadow"/>
<feBlend mode="normal" in="SourceGraphic" in2="effect1_dropShadow" result="shape"/>
</filter>
</defs>
</svg>
