<svg width="240" height="261" viewBox="0 0 240 261" fill="none" xmlns="http://www.w3.org/2000/svg">
<g filter="url(#filter0_d)">
<rect x="2" y="22.2637" width="236" height="234.99" rx="20" fill="#6C63FF"/>
</g>
<path fill-rule="evenodd" clip-rule="evenodd" d="M221 29.1172C216.032 29.1172 212 33.065 212 37.9293C212 42.7936 216.032 46.7414 221 46.7414C225.968 46.7414 230 42.7936 230 37.9293C230 33.065 225.968 29.1172 221 29.1172ZM220.1 33.5232V35.2857H221.9V33.5232H220.1ZM220.1 37.0481V42.3354H221.9V37.0481H220.1ZM213.8 37.9293C213.8 41.8154 217.031 44.979 221 44.979C224.969 44.979 228.2 41.8154 228.2 37.9293C228.2 34.0432 224.969 30.8796 221 30.8796C217.031 30.8796 213.8 34.0432 213.8 37.9293Z" fill="white"/>
<path d="M37 10.7227C37 5.19981 41.4772 0.722656 47 0.722656H193C198.523 0.722656 203 5.19981 203 10.7227V22.2634H37V10.7227Z" fill="#F12587"/>
<path d="M102.906 16.8736C101.85 16.8736 100.927 16.6336 100.138 16.1536C99.3485 15.6736 98.7352 15.007 98.2979 14.1536C97.8605 13.2896 97.6419 12.287 97.6419 11.1456C97.6419 9.99364 97.8659 8.98031 98.3139 8.10564C98.7725 7.22031 99.4179 6.53231 100.25 6.04164C101.093 5.54031 102.09 5.28964 103.242 5.28964C104.554 5.28964 105.642 5.60431 106.506 6.23364C107.37 6.86297 107.93 7.73231 108.186 8.84164H105.898C105.727 8.31897 105.418 7.91364 104.97 7.62564C104.522 7.32697 103.946 7.17764 103.242 7.17764C102.122 7.17764 101.258 7.53497 100.65 8.24964C100.042 8.95364 99.7379 9.92431 99.7379 11.1616C99.7379 12.399 100.037 13.359 100.634 14.0416C101.242 14.7136 102.063 15.0496 103.098 15.0496C104.111 15.0496 104.874 14.7776 105.386 14.2336C105.909 13.679 106.223 12.9536 106.33 12.0576H103.498V10.5216H108.394V16.6816H106.506L106.346 15.2096C105.983 15.743 105.53 16.1536 104.986 16.4416C104.442 16.7296 103.749 16.8736 102.906 16.8736ZM113.073 16.8736C112.39 16.8736 111.83 16.767 111.393 16.5536C110.956 16.3296 110.63 16.0363 110.417 15.6736C110.204 15.311 110.097 14.911 110.097 14.4736C110.097 13.7376 110.385 13.1403 110.961 12.6816C111.537 12.223 112.401 11.9936 113.553 11.9936H115.569V11.8016C115.569 11.2576 115.414 10.8576 115.105 10.6016C114.796 10.3456 114.412 10.2176 113.953 10.2176C113.537 10.2176 113.174 10.319 112.865 10.5216C112.556 10.7136 112.364 11.0016 112.289 11.3856H110.289C110.342 10.8096 110.534 10.3083 110.865 9.88164C111.206 9.45497 111.644 9.12964 112.177 8.90564C112.71 8.67097 113.308 8.55364 113.969 8.55364C115.1 8.55364 115.99 8.83631 116.641 9.40164C117.292 9.96697 117.617 10.767 117.617 11.8016V16.6816H115.873L115.681 15.4016C115.446 15.8283 115.116 16.1803 114.689 16.4576C114.273 16.735 113.734 16.8736 113.073 16.8736ZM113.537 15.2736C114.124 15.2736 114.577 15.0816 114.897 14.6976C115.228 14.3136 115.436 13.839 115.521 13.2736H113.777C113.233 13.2736 112.844 13.375 112.609 13.5776C112.374 13.7696 112.257 14.0096 112.257 14.2976C112.257 14.607 112.374 14.847 112.609 15.0176C112.844 15.1883 113.153 15.2736 113.537 15.2736ZM119.571 16.6816V8.74564H121.379L121.555 9.81764C121.811 9.43364 122.147 9.12964 122.563 8.90564C122.99 8.67097 123.481 8.55364 124.035 8.55364C125.262 8.55364 126.131 9.02831 126.643 9.97764C126.931 9.54031 127.315 9.19364 127.795 8.93764C128.286 8.68164 128.819 8.55364 129.395 8.55364C130.43 8.55364 131.225 8.86297 131.779 9.48164C132.334 10.1003 132.611 11.007 132.611 12.2016V16.6816H130.563V12.3936C130.563 11.711 130.43 11.1883 130.163 10.8256C129.907 10.463 129.507 10.2816 128.963 10.2816C128.409 10.2816 127.961 10.4843 127.619 10.8896C127.289 11.295 127.123 11.8603 127.123 12.5856V16.6816H125.075V12.3936C125.075 11.711 124.942 11.1883 124.675 10.8256C124.409 10.463 123.998 10.2816 123.443 10.2816C122.899 10.2816 122.457 10.4843 122.115 10.8896C121.785 11.295 121.619 11.8603 121.619 12.5856V16.6816H119.571ZM138.412 16.8736C137.612 16.8736 136.902 16.703 136.284 16.3616C135.665 16.0203 135.18 15.5403 134.828 14.9216C134.476 14.303 134.3 13.5883 134.3 12.7776C134.3 11.9563 134.47 11.2256 134.812 10.5856C135.164 9.94564 135.644 9.44964 136.252 9.09764C136.87 8.73497 137.596 8.55364 138.428 8.55364C139.206 8.55364 139.894 8.72431 140.492 9.06564C141.089 9.40697 141.553 9.87631 141.884 10.4736C142.225 11.0603 142.396 11.7163 142.396 12.4416C142.396 12.559 142.39 12.6816 142.38 12.8096C142.38 12.9376 142.374 13.071 142.364 13.2096H136.332C136.374 13.8283 136.588 14.3136 136.972 14.6656C137.366 15.0176 137.841 15.1936 138.396 15.1936C138.812 15.1936 139.158 15.103 139.436 14.9216C139.724 14.7296 139.937 14.4843 140.076 14.1856H142.156C142.006 14.687 141.756 15.1456 141.404 15.5616C141.062 15.967 140.636 16.287 140.124 16.5216C139.622 16.7563 139.052 16.8736 138.412 16.8736ZM138.428 10.2176C137.926 10.2176 137.484 10.3616 137.1 10.6496C136.716 10.927 136.47 11.3536 136.364 11.9296H140.316C140.284 11.407 140.092 10.991 139.74 10.6816C139.388 10.3723 138.95 10.2176 138.428 10.2176Z" fill="white"/>
<path d="M50.464 74.9297V58.1297H56.2C58.168 58.1297 59.784 58.4817 61.048 59.1857C62.328 59.8737 63.272 60.8497 63.88 62.1137C64.504 63.3617 64.816 64.8337 64.816 66.5297C64.816 68.2257 64.504 69.7057 63.88 70.9697C63.272 72.2177 62.328 73.1937 61.048 73.8977C59.784 74.5857 58.168 74.9297 56.2 74.9297H50.464ZM53.536 72.2897H56.056C57.464 72.2897 58.576 72.0657 59.392 71.6177C60.208 71.1537 60.792 70.4977 61.144 69.6497C61.496 68.7857 61.672 67.7457 61.672 66.5297C61.672 65.3297 61.496 64.2977 61.144 63.4337C60.792 62.5697 60.208 61.9057 59.392 61.4417C58.576 60.9777 57.464 60.7457 56.056 60.7457H53.536V72.2897ZM67.4545 74.9297V63.0257H70.1905L70.4785 65.2577C70.9105 64.4897 71.4945 63.8817 72.2305 63.4337C72.9825 62.9697 73.8625 62.7377 74.8705 62.7377V65.9777H74.0065C73.3345 65.9777 72.7345 66.0817 72.2065 66.2897C71.6785 66.4977 71.2625 66.8577 70.9585 67.3697C70.6705 67.8817 70.5265 68.5937 70.5265 69.5057V74.9297H67.4545ZM81.4342 75.2177C79.9462 75.2177 78.7942 74.7537 77.9782 73.8257C77.1782 72.8977 76.7782 71.5377 76.7782 69.7457V63.0257H79.8262V69.4577C79.8262 70.4817 80.0342 71.2657 80.4502 71.8097C80.8662 72.3537 81.5222 72.6257 82.4182 72.6257C83.2662 72.6257 83.9622 72.3217 84.5062 71.7137C85.0662 71.1057 85.3462 70.2577 85.3462 69.1697V63.0257H88.4182V74.9297H85.7062L85.4662 72.9137C85.0982 73.6177 84.5622 74.1777 83.8582 74.5937C83.1702 75.0097 82.3622 75.2177 81.4342 75.2177ZM91.5717 74.9297V63.0257H94.2837L94.5237 65.0417C94.8917 64.3377 95.4197 63.7777 96.1077 63.3617C96.8117 62.9457 97.6357 62.7377 98.5797 62.7377C100.052 62.7377 101.196 63.2017 102.012 64.1297C102.828 65.0577 103.236 66.4177 103.236 68.2097V74.9297H100.164V68.4977C100.164 67.4737 99.9557 66.6897 99.5397 66.1457C99.1237 65.6017 98.4757 65.3297 97.5957 65.3297C96.7317 65.3297 96.0197 65.6337 95.4597 66.2417C94.9157 66.8497 94.6437 67.6977 94.6437 68.7857V74.9297H91.5717ZM106.173 74.9297V57.6497H109.245V67.8497L113.469 63.0257H117.117L112.245 68.4497L117.909 74.9297H114.069L109.245 68.9537V74.9297H106.173ZM131.245 75.2177C130.093 75.2177 129.053 74.9537 128.125 74.4257C127.213 73.8977 126.485 73.1697 125.941 72.2417C125.413 71.2977 125.149 70.2097 125.149 68.9777C125.149 67.7457 125.421 66.6657 125.965 65.7377C126.509 64.7937 127.237 64.0577 128.149 63.5297C129.077 63.0017 130.117 62.7377 131.269 62.7377C132.405 62.7377 133.429 63.0017 134.341 63.5297C135.269 64.0577 135.997 64.7937 136.525 65.7377C137.069 66.6657 137.341 67.7457 137.341 68.9777C137.341 70.2097 137.069 71.2977 136.525 72.2417C135.997 73.1697 135.269 73.8977 134.341 74.4257C133.413 74.9537 132.381 75.2177 131.245 75.2177ZM131.245 72.5537C132.045 72.5537 132.741 72.2577 133.333 71.6657C133.925 71.0577 134.221 70.1617 134.221 68.9777C134.221 67.7937 133.925 66.9057 133.333 66.3137C132.741 65.7057 132.053 65.4017 131.269 65.4017C130.453 65.4017 129.749 65.7057 129.157 66.3137C128.581 66.9057 128.293 67.7937 128.293 68.9777C128.293 70.1617 128.581 71.0577 129.157 71.6657C129.749 72.2577 130.445 72.5537 131.245 72.5537ZM140.087 74.9297V63.0257H142.823L143.111 65.2577C143.543 64.4897 144.127 63.8817 144.863 63.4337C145.615 62.9697 146.495 62.7377 147.503 62.7377V65.9777H146.639C145.967 65.9777 145.367 66.0817 144.839 66.2897C144.311 66.4977 143.895 66.8577 143.591 67.3697C143.303 67.8817 143.159 68.5937 143.159 69.5057V74.9297H140.087ZM155.394 74.9297V58.1297H158.466V64.9217L164.682 58.1297H168.474L162.282 64.8017L168.642 74.9297H164.874L160.074 67.1537L158.466 68.9057V74.9297H155.394ZM172.329 61.1777C171.769 61.1777 171.305 61.0097 170.937 60.6737C170.585 60.3377 170.409 59.9137 170.409 59.4017C170.409 58.8897 170.585 58.4737 170.937 58.1537C171.305 57.8177 171.769 57.6497 172.329 57.6497C172.889 57.6497 173.345 57.8177 173.697 58.1537C174.065 58.4737 174.249 58.8897 174.249 59.4017C174.249 59.9137 174.065 60.3377 173.697 60.6737C173.345 61.0097 172.889 61.1777 172.329 61.1777ZM170.793 74.9297V63.0257H173.865V74.9297H170.793ZM182.544 75.2177C181.424 75.2177 180.424 74.9457 179.544 74.4017C178.664 73.8577 177.968 73.1137 177.456 72.1697C176.944 71.2257 176.688 70.1537 176.688 68.9537C176.688 67.7537 176.944 66.6897 177.456 65.7617C177.968 64.8177 178.664 64.0817 179.544 63.5537C180.424 63.0097 181.424 62.7377 182.544 62.7377C183.44 62.7377 184.224 62.9057 184.896 63.2417C185.568 63.5777 186.112 64.0497 186.528 64.6577V57.6497H189.6V74.9297H186.864L186.528 73.2257C186.144 73.7537 185.632 74.2177 184.992 74.6177C184.368 75.0177 183.552 75.2177 182.544 75.2177ZM183.192 72.5297C184.184 72.5297 184.992 72.2017 185.616 71.5457C186.256 70.8737 186.576 70.0177 186.576 68.9777C186.576 67.9377 186.256 67.0897 185.616 66.4337C184.992 65.7617 184.184 65.4257 183.192 65.4257C182.216 65.4257 181.408 65.7537 180.768 66.4097C180.128 67.0657 179.808 67.9137 179.808 68.9537C179.808 69.9937 180.128 70.8497 180.768 71.5217C181.408 72.1937 182.216 72.5297 183.192 72.5297Z" fill="white"/>
<path d="M49.5515 139.049C49.5515 139.049 46.6545 147.936 48.779 148.882C50.9034 149.827 52.6416 149.449 52.6416 149.449L55.9248 141.696L49.5515 139.049Z" fill="#FFC1C8"/>
<path d="M55.9218 124.866L54.3768 124.488C54.3768 124.488 51.4798 128.081 50.5142 132.241C49.5485 136.401 48.1966 140.562 48.9692 140.562C49.7417 140.562 56.6943 143.209 56.6943 143.209L55.9218 124.866Z" fill="#3F3D56"/>
<path d="M55.9272 166.469L57.4722 202.209L58.4379 218.282C58.4379 218.282 56.3134 221.686 59.4035 222.064C62.4936 222.442 68.2875 221.497 67.515 219.606C66.7425 217.715 66.1631 217.715 66.1631 217.715L65.3906 199.561L71.1845 177.248L78.5235 201.263L80.0685 218.471C80.0685 218.471 77.9441 221.119 80.0685 221.686C82.1929 222.253 87.7937 222.253 87.6006 220.551C87.4075 218.849 86.6349 218.849 86.6349 218.849L87.6006 168.927L84.7036 164.578L55.9272 166.469Z" fill="#794F6A"/>
<path d="M60.1737 220.93L59.4012 225.657C59.4012 225.657 54.9593 234.734 61.1394 234.734C67.3195 234.734 65.5814 231.141 65.5814 231.141L65.002 220.93H60.1737Z" fill="#494949"/>
<path d="M86.4326 220.93L87.2051 225.657C87.2051 225.657 91.6471 234.734 85.4669 234.734C79.2867 234.734 81.0249 231.141 81.0249 231.141L81.6043 220.93H86.4326Z" fill="#494949"/>
<path d="M66.7378 112.954C66.7378 112.954 64.8065 119.762 64.4202 119.762C64.034 119.762 68.0897 125.056 68.0897 125.056L74.0767 128.271L76.2012 119.572C76.2012 119.572 74.2699 114.845 74.6561 112.387L66.7378 112.954Z" fill="#FFC1C8"/>
<path d="M69.8298 115.601C65.8832 115.601 62.684 112.468 62.684 108.604C62.684 104.74 65.8832 101.607 69.8298 101.607C73.7763 101.607 76.9756 104.74 76.9756 108.604C76.9756 112.468 73.7763 115.601 69.8298 115.601Z" fill="#FFC1C8"/>
<path d="M70.793 123.165L65.0835 118.311L61.7158 119.951L54.3769 124.489C54.3769 124.489 56.3082 165.334 55.3426 166.847C55.3426 166.847 57.467 171.575 70.0204 168.738C82.5739 165.902 85.8571 165.523 85.8571 165.523L83.1533 140.562L86.4365 124.867L75.4082 117.316L71.9518 123.165H70.793Z" fill="#3F3D56"/>
<path d="M89.7208 137.537L91.459 145.479V161.553C91.459 161.553 88.9483 171.764 87.017 169.116C85.0857 166.469 85.1256 165.631 85.1256 165.631L87.5964 161.931L86.4376 146.803L83.3586 139.586L89.7208 137.537Z" fill="#FFC1C8"/>
<path d="M76.5919 101.608C76.5919 101.608 74.2743 96.6916 69.8323 97.8262C65.3903 98.9608 62.8796 100.663 62.6864 102.365C62.4933 104.067 62.783 106.619 62.783 106.619C62.783 106.619 63.2658 103.121 66.3559 103.877C69.446 104.634 74.2743 104.067 74.2743 104.067L75.0468 110.874C75.0468 110.874 75.9159 109.645 76.8816 110.401C77.8472 111.158 79.682 103.121 76.5919 101.608Z" fill="#794F6A"/>
<path d="M81.9943 124.488L86.4363 124.866C86.4363 124.866 91.4577 138.292 90.8783 138.671C90.2989 139.049 83.3462 141.318 82.3805 140.751C81.4149 140.183 81.9943 124.488 81.9943 124.488Z" fill="#3F3D56"/>
<path d="M58.4839 140.365C60.3411 141.564 61.8744 142.463 63.047 143.11H63.0481C64.7587 142.996 66.4766 143.043 68.178 143.251C69.38 142.594 71.0016 141.652 72.9966 140.365C73.0155 140.353 73.0344 140.34 73.0534 140.327V140.326C74.8832 139.094 74.9285 136.483 74.3332 133.814C72.8189 133.65 70.4043 133.722 67.16 134.856C63.3183 136.2 59.2969 135.44 56.9664 134.749C56.5836 137.104 56.8171 139.289 58.4839 140.365Z" fill="#F12587"/>
<path d="M65.7387 164.565C69.2564 164.565 72.995 164.041 72.995 163.071C72.995 162.15 69.6897 161.659 66.58 161.588V145.824C66.58 145.449 66.7646 144.969 67.1289 144.396C67.2969 144.135 67.479 143.882 67.6745 143.64C67.8481 143.548 68.0324 143.449 68.2275 143.343C69.7275 142.523 71.3509 141.551 73.0528 140.453C73.0733 140.439 73.0933 140.426 73.1133 140.412L73.1569 140.381C74.7345 139.283 75.1643 137.067 74.4344 133.794C73.5683 129.905 71.3221 125.84 71.2996 125.799L71.2549 125.719L71.1682 125.753C71.1264 125.769 66.9108 127.368 60.2956 125.748L60.2167 125.729L60.1778 125.799C60.1745 125.805 59.8408 126.406 59.3893 127.349C58.4724 129.263 57.2893 132.098 56.8609 134.735C56.4013 137.563 56.9274 139.486 58.4245 140.453C60.0302 141.489 61.5675 142.414 62.9938 143.202L63.0187 143.215C63.2191 143.326 63.4089 143.43 63.5882 143.526C63.6559 143.618 63.7219 143.716 63.7844 143.816C63.868 143.949 63.9483 144.09 64.0231 144.235C64.4626 145.103 64.6923 146.057 64.6944 147.025L64.7894 161.591C61.7316 161.67 58.4823 162.163 58.4823 163.071C58.4823 164.041 62.221 164.565 65.7387 164.565ZM72.9466 140.275L72.9366 140.281C71.2395 141.376 69.6205 142.346 68.1251 143.163C67.9236 143.273 67.7337 143.375 67.5553 143.469L67.5362 143.479L67.5227 143.496C67.3174 143.749 67.1263 144.013 66.9503 144.287C66.565 144.893 66.3696 145.41 66.3696 145.824V161.789L66.4727 161.792C70.3714 161.869 72.7846 162.517 72.7846 163.071C72.7846 163.68 69.8909 164.359 65.7386 164.359C61.5864 164.359 58.6926 163.68 58.6926 163.071C58.6926 162.525 61.065 161.881 64.8976 161.795L65.0011 161.792L64.9047 147.024C64.9023 146.024 64.665 145.038 64.2109 144.143C64.1335 143.992 64.0503 143.846 63.9637 143.708C63.8941 143.597 63.8204 143.488 63.7447 143.386L63.7308 143.367L63.71 143.356C63.518 143.254 63.3141 143.142 63.0983 143.023L63.073 143.009C61.6578 142.226 60.1329 141.309 58.5402 140.281C57.1183 139.363 56.6232 137.508 57.0687 134.767C57.4932 132.154 58.6685 129.338 59.5798 127.437C59.9401 126.683 60.2246 126.151 60.3241 125.968C66.4363 127.444 70.5144 126.196 71.1575 125.976C71.4719 126.557 73.4353 130.274 74.2288 133.838C74.9457 137.052 74.5297 139.207 72.9921 140.243L72.9466 140.275Z" fill="#F2F2F2"/>
<path d="M69.5289 132.85C69.2385 132.85 69.0031 132.619 69.0031 132.335C69.0031 132.051 69.2385 131.82 69.5289 131.82C69.8193 131.82 70.0547 132.051 70.0547 132.335C70.0547 132.619 69.8193 132.85 69.5289 132.85Z" fill="#F12587"/>
<path d="M70.9937 137.586C70.7033 137.586 70.4679 137.356 70.4679 137.071C70.4679 136.787 70.7033 136.557 70.9937 136.557C71.2841 136.557 71.5195 136.787 71.5195 137.071C71.5195 137.356 71.2841 137.586 70.9937 137.586Z" fill="white"/>
<path d="M68.2675 133.88C68.0933 133.88 67.952 133.741 67.952 133.571C67.952 133.4 68.0933 133.262 68.2675 133.262C68.4418 133.262 68.583 133.4 68.583 133.571C68.583 133.741 68.4418 133.88 68.2675 133.88Z" fill="#F12587"/>
<path d="M67.0048 139.749C66.8306 139.749 66.6893 139.61 66.6893 139.44C66.6893 139.269 66.8306 139.131 67.0048 139.131C67.1791 139.131 67.3203 139.269 67.3203 139.44C67.3203 139.61 67.1791 139.749 67.0048 139.749Z" fill="white"/>
<path d="M69.2099 140.057C69.0357 140.057 68.8944 139.919 68.8944 139.748C68.8944 139.578 69.0357 139.439 69.2099 139.439C69.3841 139.439 69.5254 139.578 69.5254 139.748C69.5254 139.919 69.3841 140.057 69.2099 140.057Z" fill="white"/>
<path d="M62.7988 129.76C62.6245 129.76 62.4833 129.622 62.4833 129.452C62.4833 129.281 62.6245 129.143 62.7988 129.143C62.973 129.143 63.1143 129.281 63.1143 129.452C63.1143 129.622 62.973 129.76 62.7988 129.76Z" fill="#F12587"/>
<path d="M50.5149 143.399C50.5149 143.399 48.1973 147.559 48.7767 148.882C49.3561 150.206 54.1844 150.963 54.7638 150.963C55.3431 150.963 62.2958 149.45 62.2958 149.45C62.2958 149.45 72.918 144.533 69.8279 142.075C66.7378 139.617 60.9439 145.479 60.9439 145.479H56.3088L53.7981 143.777L50.5149 143.399Z" fill="#FFC1C8"/>
<path d="M98.6626 143.777C99.9445 142.523 101.447 141.506 103.099 140.776V109.795C103.099 109.616 103.135 109.437 103.205 109.271C103.275 109.105 103.378 108.954 103.508 108.827C103.638 108.7 103.792 108.599 103.962 108.53C104.132 108.461 104.314 108.426 104.498 108.426H112.33C112.514 108.426 112.696 108.461 112.866 108.53C113.035 108.599 113.19 108.7 113.32 108.827C113.449 108.954 113.552 109.105 113.623 109.271C113.693 109.437 113.729 109.616 113.729 109.795V140.181C116.561 141.101 119.025 142.87 120.771 145.238C122.518 147.606 123.458 150.453 123.459 153.374V219.831C123.459 221.446 122.804 222.995 121.637 224.137C120.471 225.279 118.889 225.921 117.239 225.921H100.461C98.8189 225.921 97.2442 225.282 96.0831 224.145C94.9221 223.008 94.2698 221.466 94.2698 219.859V154.157C94.2675 152.229 94.6543 150.319 95.4082 148.538C96.162 146.756 97.2681 145.138 98.6626 143.777Z" fill="#3F3D56"/>
<path d="M94.2698 163.115H123.459V200.869H94.2698V163.115Z" fill="#F12587"/>
<path d="M102.468 110.543H103.099V109.795C103.099 109.616 103.135 109.437 103.206 109.271C103.276 109.105 103.379 108.954 103.509 108.827C103.639 108.7 103.793 108.599 103.963 108.53C104.132 108.461 104.314 108.426 104.498 108.426H112.331C112.515 108.426 112.696 108.461 112.866 108.53C113.036 108.599 113.19 108.7 113.32 108.827C113.45 108.954 113.553 109.105 113.623 109.271C113.694 109.437 113.73 109.616 113.73 109.795V110.543H114.36V113.718H113.73V129.949H103.099V113.718H102.468V110.543Z" fill="#F12587"/>
<path d="M163.659 151.242C163.659 151.242 171.041 160.118 170.728 157.638C170.533 156.081 171.542 154.178 172.328 152.976C172.792 152.261 173.176 151.792 173.176 151.792C173.176 151.792 168.672 143.709 168.421 144.81C168.341 145.158 167.82 145.957 167.15 146.869C165.737 148.78 163.659 151.242 163.659 151.242Z" fill="#FFC1C8"/>
<path d="M151.636 228.149C150.484 228.149 149.551 227.235 149.551 226.108C149.551 224.98 150.484 224.066 151.636 224.066C152.787 224.066 153.721 224.98 153.721 226.108C153.721 227.235 152.787 228.149 151.636 228.149Z" fill="#474463"/>
<path d="M172.933 225.284C171.781 225.284 170.848 224.37 170.848 223.243C170.848 222.115 171.781 221.201 172.933 221.201C174.084 221.201 175.018 222.115 175.018 223.243C175.018 224.37 174.084 225.284 172.933 225.284Z" fill="#474463"/>
<path d="M142.006 223.968C142.017 224.114 142.059 224.255 142.128 224.384L143.372 225.712L160.763 225.439L165.439 225.364C165.439 225.364 175.283 223.61 177.201 222.792C179.118 221.974 186.658 220.477 186.658 220.477C186.658 220.477 191.212 219.729 191.88 217.566C192.106 216.833 191.992 216.309 191.745 215.937C191.26 215.208 190.254 215.054 190.254 215.054C188.199 214.46 186.002 214.54 183.997 215.281L154.847 222.623L154.396 222.736C154.396 222.736 144.005 222.547 143.795 222.583C142.201 222.868 141.968 223.532 142.006 223.968Z" fill="#6C63FF"/>
<path opacity="0.3" d="M142.006 223.969C143.755 223.746 146.805 223.417 147.59 223.734C147.59 223.734 153.138 223.062 160.77 225.44L165.439 225.365C165.439 225.365 175.283 223.611 177.201 222.793C179.118 221.975 186.658 220.478 186.658 220.478C186.658 220.478 191.212 219.73 191.88 217.566C192.106 216.834 191.992 216.31 191.745 215.938C191.434 216.825 190.835 218.111 189.879 218.471C188.377 219.037 182.204 220.189 182.204 220.189L169.986 223.118C169.986 223.118 162.931 224.617 160.185 223.64C159.06 223.243 156.948 222.89 154.853 222.613L154.401 222.727C154.401 222.727 144.01 222.537 143.801 222.573C142.201 222.869 141.968 223.532 142.006 223.969Z" fill="white"/>
<path d="M158.879 221.763C158.894 222.02 158.927 222.275 158.977 222.527C158.977 222.527 165.887 222.769 169.485 222.247C170.479 222.103 171.04 221.791 171.319 221.419C171.444 221.243 171.521 221.039 171.544 220.826C171.566 220.613 171.534 220.398 171.449 220.2C171.409 220.087 171.359 219.977 171.298 219.873C171.03 219.414 170.617 219.088 170.391 219.132C169.766 219.255 168.692 217.999 168.692 217.999C168.778 217.231 167.546 216.955 167.354 217.08C167.32 217.106 167.279 217.123 167.236 217.129C167.194 217.134 167.15 217.13 167.11 217.114C167.069 217.099 167.034 217.073 167.007 217.041C166.979 217.008 166.961 216.969 166.954 216.927C166.941 216.869 166.938 216.593 166.938 216.269C166.938 215.73 166.954 215.051 166.954 215.051L160.008 215.877L159.732 217.177C159.48 218.337 159.128 219.929 158.977 220.474C158.872 220.895 158.839 221.331 158.879 221.763Z" fill="#474463"/>
<path opacity="0.1" d="M158.878 221.763C158.893 222.02 158.926 222.275 158.976 222.527C158.976 222.527 165.887 222.769 169.484 222.247C170.478 222.103 171.039 221.791 171.318 221.419C170.396 221.365 169.196 221.335 168.453 221.513C167.394 221.77 161.057 221.77 158.878 221.763Z" fill="black"/>
<path d="M171.304 219.869C171.297 219.932 171.307 219.995 171.334 220.053C171.36 220.111 171.402 220.16 171.455 220.196C172.33 220.857 176.526 220.139 176.526 220.139C176.526 220.139 185.101 219.617 186.382 218.76C186.498 218.686 186.595 218.586 186.665 218.47C187.198 217.526 185.268 215.943 185.101 215.943C184.934 215.943 182.628 215.635 182.474 215.605C181.407 215.395 180.341 214.747 180.163 214.932C179.985 215.116 179.097 214.686 178.663 214.625C178.505 214.603 178.432 214.383 178.405 214.103C178.38 213.724 178.393 213.343 178.444 212.967L171.596 214.771L171.535 215.84L171.338 219.397L171.313 219.834C171.309 219.845 171.306 219.857 171.304 219.869Z" fill="#474463"/>
<path opacity="0.1" d="M176.52 220.14C176.52 220.14 185.094 219.618 186.376 218.761C186.491 218.687 186.588 218.587 186.658 218.471C184.922 218.61 182.026 218.845 181.504 218.975C180.752 219.149 176.527 219.404 176.527 219.404H171.331L171.307 219.84C171.081 221.073 176.52 220.14 176.52 220.14Z" fill="black"/>
<path d="M183.372 225.284C182.221 225.284 181.287 224.37 181.287 223.243C181.287 222.115 182.221 221.201 183.372 221.201C184.524 221.201 185.457 222.115 185.457 223.243C185.457 224.37 184.524 225.284 183.372 225.284Z" fill="#474463"/>
<path d="M160.73 229.522C159.578 229.522 158.645 228.608 158.645 227.481C158.645 226.353 159.578 225.439 160.73 225.439C161.881 225.439 162.814 226.353 162.814 227.481C162.814 228.608 161.881 229.522 160.73 229.522Z" fill="#474463"/>
<path d="M174.363 158.521C174.363 158.521 179.555 158.95 180.556 159.256C181.557 159.562 185.872 159.378 186.244 159.256C186.615 159.134 194.002 160.787 190.623 162.441C187.244 164.094 185.113 162.441 185.113 162.441C185.113 162.441 180.734 162.195 179.603 162.871C178.473 163.546 174.349 163.177 174.349 163.177L174.363 158.521Z" fill="#FFC1C8"/>
<path opacity="0.1" d="M167.15 146.86C167.198 147.121 167.564 147.151 167.639 147.405C168.35 149.86 169.914 152.069 172.328 152.974C172.792 152.259 173.176 151.79 173.176 151.79C173.176 151.79 168.672 143.707 168.421 144.808C168.341 145.151 167.82 145.948 167.15 146.86Z" fill="black"/>
<path d="M167.017 145.168C167.017 146.767 167.501 148.331 168.408 149.66C169.315 150.99 170.605 152.027 172.114 152.639C173.623 153.251 175.283 153.412 176.885 153.1C178.487 152.788 179.959 152.018 181.114 150.888C182.269 149.757 183.056 148.316 183.374 146.748C183.693 145.179 183.53 143.553 182.905 142.076C182.28 140.598 181.221 139.335 179.863 138.447C178.505 137.558 176.909 137.084 175.275 137.084C174.19 137.08 173.114 137.287 172.111 137.691C171.107 138.096 170.195 138.692 169.428 139.443C168.66 140.194 168.052 141.087 167.638 142.07C167.225 143.052 167.014 144.105 167.017 145.168Z" fill="#FFC1C8"/>
<path opacity="0.1" d="M171.581 214.777L171.521 215.846C172.244 216.003 173.62 216.208 174.422 215.728C175.458 215.106 176.988 214.955 178.391 214.109C178.366 213.73 178.379 213.349 178.43 212.973L171.581 214.777Z" fill="black"/>
<path opacity="0.1" d="M159.733 217.181C159.781 217.419 159.825 217.565 159.825 217.565C159.825 217.565 165.344 217.012 166.935 216.265C166.935 215.726 166.951 215.047 166.951 215.047L160.005 215.874L159.733 217.181Z" fill="black"/>
<path d="M160.978 192.882C161.353 193.862 161.542 194.046 161.165 194.535C160.788 195.024 160.978 197.598 161.575 197.842C162.173 198.086 164.419 199.556 164.419 199.556C164.419 199.556 163.175 201.149 163.138 201.819C163.105 202.247 162.936 202.654 162.654 202.983C162.654 202.983 160.727 207.026 160.344 208.312C159.96 209.598 159.608 211.618 159.608 211.618C159.608 211.618 160.281 213.456 159.816 214.499C159.35 215.541 159.816 217.071 159.816 217.071C159.816 217.071 166.536 216.397 167.281 215.532C168.026 214.668 167.53 212.722 167.53 212.722C167.683 211.855 168.002 211.024 168.468 210.271C169.22 209.107 168.29 207.884 168.468 207.821C168.646 207.758 169.22 207.087 169.785 205.985C170.351 204.883 170.702 205.31 170.702 205.31C170.702 205.31 169.97 211.497 170.702 212.048C171.435 212.6 171.534 212.355 171.346 213.093C171.2 213.801 171.095 214.517 171.033 215.237C171.033 215.237 173.285 215.91 174.41 215.237C175.535 214.563 177.229 214.44 178.717 213.399C180.205 212.358 178.043 210.581 177.668 210.336C177.293 210.09 177.793 206.538 177.793 206.538L178.294 203.047C178.294 203.047 176.605 203.415 177.16 202.068C177.714 200.721 178.356 196.065 178.669 195.331C178.982 194.596 177.602 193.615 177.793 193.126C177.983 192.637 176.98 189.819 176.98 189.819C176.98 189.819 176.916 187.492 176.292 187.056C176.054 186.892 175.9 186.384 175.797 185.822C175.687 185.158 175.622 184.488 175.603 183.817C175.603 183.817 161.278 182.837 158.964 184.184C157.923 184.79 157.996 185.905 158.431 187.035C158.964 188.413 160.059 189.819 160.335 190.329C160.852 191.269 160.603 191.902 160.978 192.882Z" fill="#575988"/>
<path opacity="0.1" d="M158.448 187.035C160.226 187.524 162.593 188.242 162.979 188.655C163.605 189.33 165.732 184.857 165.732 184.857C165.732 184.857 165.606 188.22 168.422 186.814C170.858 185.595 174.792 185.756 175.809 185.822C175.699 185.158 175.634 184.488 175.615 183.817C175.615 183.817 161.291 182.837 158.976 184.184C157.935 184.79 158.008 185.905 158.448 187.035Z" fill="black"/>
<path d="M165.731 150.008C165.731 150.008 164.487 148.537 164.229 149.089C163.971 149.64 162.503 150.742 162.503 150.742C162.503 150.742 162.082 152.028 161.341 152.213C160.6 152.397 155.033 159.746 155.033 159.746L157.036 163.727L158.662 173.405C158.662 173.405 158.591 174.936 159.034 175.493C159.476 176.05 161.167 175.921 160.383 176.595C159.599 177.268 158.474 177.881 157.848 180.945C157.222 184.01 156.472 185.784 156.472 185.784C156.472 185.784 162.352 187.254 162.978 187.928C163.603 188.601 165.731 184.13 165.731 184.13C165.731 184.13 165.605 187.491 168.42 186.086C171.236 184.682 176.053 185.11 176.053 185.11V181.49C176.053 181.49 175.114 180.08 175.614 179.101C176.113 178.121 175.272 176.283 175.272 176.283C175.272 176.283 175.551 174.384 176.053 173.283C176.554 172.181 176.365 166.974 176.365 166.974C176.365 166.974 176.746 163.605 176.399 161.889C176.105 160.401 175.586 158.966 174.858 157.628C174.17 156.316 173.735 155.091 173.921 154.6C174.108 154.11 172.27 153.048 172.27 153.048L171.252 154.661L170.992 155.625C170.992 155.625 165.605 151.845 165.731 150.008Z" fill="#DCE6F2"/>
<path d="M156.73 158.521C156.73 158.521 153.226 161.889 152.851 162.441C152.476 162.992 151.22 165.86 152.846 166.731C154.472 167.601 160.844 168.943 161.477 168.48C162.11 168.017 165.921 169.002 165.921 169.002C165.921 169.002 172.295 170.533 170.919 168.022C169.543 165.511 166.289 165.934 166.289 165.934C166.289 165.934 161.031 165.925 160.469 165.411C159.908 164.898 155.67 163.796 156.63 161.527C157.59 159.258 156.73 158.521 156.73 158.521Z" fill="#FFC1C8"/>
<path opacity="0.1" d="M167.017 173.59C167.017 173.59 175.177 180.511 174.365 180.511C173.553 180.511 167.017 173.59 167.017 173.59Z" fill="black"/>
<path opacity="0.1" d="M161.576 176.406C161.576 176.406 164.169 177.017 163.668 177.386C163.167 177.755 161.576 176.406 161.576 176.406Z" fill="black"/>
<path opacity="0.1" d="M170.721 159.623C170.721 159.623 167.484 159.907 168.055 160.899C168.625 161.891 170.721 159.623 170.721 159.623Z" fill="black"/>
<path opacity="0.1" d="M172.737 189.371C172.737 189.371 173.176 190.617 172.737 191.285C172.297 191.954 172.737 193.548 172.737 193.548V199.117C172.737 199.117 172.797 203.16 171.299 204.568L172.737 189.371Z" fill="black"/>
<path opacity="0.1" d="M177.023 206.725C177.023 206.725 176.149 207.979 176.023 208.439C175.897 208.898 177.023 206.725 177.023 206.725Z" fill="black"/>
<path opacity="0.1" d="M176.805 204.215C176.805 204.215 174.771 203.847 174.459 204.061C174.146 204.276 176.805 204.215 176.805 204.215Z" fill="black"/>
<path opacity="0.1" d="M177.398 211.717C177.398 211.717 177.993 211.778 176.804 212.413C175.615 213.048 173.301 213.852 173.271 213.577C173.24 213.302 177.398 211.717 177.398 211.717Z" fill="black"/>
<path opacity="0.1" d="M168.693 205.621C168.484 205.621 165.865 205.468 166.017 205.866C166.168 206.265 168.693 205.621 168.693 205.621Z" fill="black"/>
<path opacity="0.1" d="M165.137 202.039C165.137 202.039 164.543 201.029 164.324 201.457C164.106 201.885 165.137 202.039 165.137 202.039Z" fill="black"/>
<path opacity="0.1" d="M167.019 145.168C167.018 145.92 167.125 146.668 167.335 147.391C167.68 147.697 168.276 147.7 168.701 147.472C169.198 147.204 169.523 146.717 169.847 146.254C170.17 145.791 170.538 145.328 171.068 145.13C171.738 144.883 172.502 145.13 173.085 145.541C173.668 145.951 174.134 146.494 174.685 146.933C175.236 147.371 175.938 147.726 176.64 147.619C177.094 147.551 177.495 147.3 177.885 147.058C178.418 146.729 178.99 146.218 179.575 145.997C180.16 145.776 180.641 146.171 181.198 146.171C181.64 146.327 182.122 146.684 182.033 147.135C181.985 147.302 181.908 147.46 181.806 147.601C181.627 147.946 181.556 148.334 181.603 148.718C181.649 149.102 181.811 149.463 182.067 149.757C182.804 148.715 183.279 147.517 183.456 146.26C183.633 145.004 183.505 143.725 183.083 142.526C182.662 141.327 181.958 140.242 181.029 139.358C180.1 138.475 178.972 137.817 177.736 137.44C176.5 137.062 175.19 136.974 173.913 137.183C172.635 137.392 171.426 137.893 170.383 138.644C169.339 139.395 168.491 140.376 167.907 141.508C167.322 142.639 167.017 143.89 167.017 145.158L167.019 145.168Z" fill="black"/>
<path d="M181.198 145.935C181.641 146.092 182.123 146.449 182.035 146.901C181.986 147.068 181.909 147.225 181.806 147.366C181.287 148.273 181.726 149.574 182.695 149.996C182.847 150.073 183.02 150.1 183.189 150.072C183.323 150.031 183.445 149.96 183.544 149.863C184.065 149.407 184.425 148.801 184.57 148.132C184.723 147.436 184.629 146.698 184.707 145.982C184.785 145.267 185.036 144.562 185.123 143.842C185.184 143.486 185.146 143.12 185.011 142.784C184.894 142.562 184.743 142.359 184.563 142.181C184.063 141.637 183.543 141.08 183.292 140.389C182.896 139.289 183.184 137.888 182.316 137.082C181.915 136.713 181.353 136.576 180.855 136.343C180.387 136.099 179.938 135.82 179.513 135.509C177.905 134.427 175.95 133.595 174.037 133.977C173.273 134.159 172.541 134.452 171.867 134.848C170.614 135.524 169.425 136.306 168.312 137.187C167.831 137.535 167.411 137.958 167.068 138.438C166.812 138.849 166.628 139.299 166.524 139.769C166.268 140.795 166.233 141.862 166.421 142.902C166.598 143.922 167.002 144.912 167.018 145.948C167.018 146.296 166.989 146.672 167.173 146.971C167.466 147.448 168.193 147.493 168.69 147.228C169.188 146.964 169.513 146.473 169.835 146.01C170.157 145.547 170.527 145.084 171.056 144.888C171.726 144.639 172.491 144.888 173.074 145.297C173.657 145.706 174.121 146.25 174.673 146.689C175.226 147.127 175.918 147.483 176.628 147.375C177.082 147.307 177.483 147.058 177.873 146.816C178.406 146.485 178.978 145.974 179.561 145.754C180.144 145.535 180.644 145.935 181.198 145.935Z" fill="#794F6A"/>
<g opacity="0.1">
<path opacity="0.1" d="M182.699 149.502C182.85 149.579 183.023 149.606 183.191 149.578C183.326 149.538 183.448 149.466 183.547 149.368C184.068 148.912 184.428 148.306 184.574 147.638C184.725 146.933 184.631 146.202 184.709 145.487C184.787 144.772 185.04 144.068 185.125 143.346C185.125 143.311 185.125 143.275 185.134 143.238C185.153 143.438 185.15 143.638 185.125 143.837C185.04 144.557 184.787 145.254 184.709 145.978C184.631 146.702 184.725 147.424 184.574 148.127C184.428 148.796 184.068 149.403 183.547 149.858C183.447 149.955 183.325 150.027 183.191 150.067C183.023 150.095 182.85 150.068 182.699 149.991C181.935 149.658 181.503 148.783 181.604 147.982C181.641 148.305 181.761 148.614 181.952 148.88C182.144 149.145 182.401 149.359 182.699 149.502Z" fill="black"/>
<path opacity="0.1" d="M166.433 142.409C166.61 143.429 167.014 144.419 167.028 145.455C167.028 145.803 167 146.179 167.184 146.478C167.476 146.955 168.203 147 168.701 146.736C169.198 146.471 169.523 145.982 169.847 145.517C170.17 145.053 170.537 144.592 171.068 144.395C171.736 144.148 172.501 144.395 173.084 144.806C173.667 145.216 174.132 145.758 174.683 146.198C175.234 146.638 175.936 146.991 176.639 146.885C177.092 146.816 177.494 146.567 177.883 146.325C178.416 145.994 178.988 145.484 179.571 145.263C180.154 145.042 180.638 145.437 181.194 145.437C181.637 145.596 182.118 145.951 182.033 146.405C182.022 146.454 182.006 146.502 181.985 146.548C181.811 146.251 181.528 146.029 181.194 145.928C180.64 145.928 180.149 145.538 179.571 145.754C178.994 145.97 178.411 146.485 177.883 146.816C177.497 147.058 177.095 147.306 176.639 147.374C175.928 147.482 175.231 147.132 174.683 146.689C174.136 146.245 173.665 145.697 173.084 145.296C172.502 144.896 171.736 144.639 171.068 144.887C170.535 145.084 170.169 145.552 169.847 146.01C169.525 146.468 169.198 146.953 168.701 147.228C168.203 147.503 167.476 147.447 167.184 146.971C167.007 146.671 167.033 146.297 167.028 145.947C167.014 144.912 166.616 143.921 166.433 142.902C166.339 142.378 166.301 141.846 166.319 141.314C166.33 141.682 166.368 142.047 166.433 142.409Z" fill="black"/>
</g>
<defs>
<filter id="filter0_d" x="0" y="21.2637" width="240" height="238.99" filterUnits="userSpaceOnUse" color-interpolation-filters="sRGB">
<feFlood flood-opacity="0" result="BackgroundImageFix"/>
<feColorMatrix in="SourceAlpha" type="matrix" values="0 0 0 0 0 0 0 0 0 0 0 0 0 0 0 0 0 0 127 0"/>
<feOffset dy="1"/>
<feGaussianBlur stdDeviation="1"/>
<feColorMatrix type="matrix" values="0 0 0 0 0.0588235 0 0 0 0 0.0588235 0 0 0 0 0.0588235 0 0 0 0.1 0"/>
<feBlend mode="normal" in2="BackgroundImageFix" result="effect1_dropShadow"/>
<feBlend mode="normal" in="SourceGraphic" in2="effect1_dropShadow" result="shape"/>
</filter>
</defs>
</svg>
