<svg width="214" height="237" viewBox="0 0 214 237" fill="none" xmlns="http://www.w3.org/2000/svg">
<g filter="url(#filter0_d)">
<rect x="2" y="19.5762" width="210" height="213.559" rx="20" fill="#992EDB"/>
</g>
<path d="M33.1445 10C33.1445 4.47715 37.6217 0 43.1445 0H170.856C176.379 0 180.856 4.47715 180.856 10V19.5763H33.1445V10Z" fill="#F12587"/>
<path d="M92.044 14.9473C91.12 14.9473 90.3127 14.7373 89.622 14.3173C88.9313 13.8973 88.3947 13.314 88.012 12.5673C87.6293 11.8113 87.438 10.934 87.438 9.9353C87.438 8.9273 87.634 8.04063 88.026 7.2753C88.4273 6.50063 88.992 5.89863 89.72 5.4693C90.4573 5.03063 91.33 4.8113 92.338 4.8113C93.486 4.8113 94.438 5.08663 95.194 5.6373C95.95 6.18796 96.44 6.94863 96.664 7.9193H94.662C94.5127 7.46196 94.242 7.1073 93.85 6.8553C93.458 6.59396 92.954 6.4633 92.338 6.4633C91.358 6.4633 90.602 6.77596 90.07 7.4013C89.538 8.0173 89.272 8.86663 89.272 9.9493C89.272 11.032 89.5333 11.872 90.056 12.4693C90.588 13.0573 91.3067 13.3513 92.212 13.3513C93.0987 13.3513 93.766 13.1133 94.214 12.6373C94.6713 12.152 94.9467 11.5173 95.04 10.7333H92.562V9.3893H96.846V14.7793H95.194L95.054 13.4913C94.7367 13.958 94.34 14.3173 93.864 14.5693C93.388 14.8213 92.7813 14.9473 92.044 14.9473ZM100.94 14.9473C100.343 14.9473 99.8528 14.854 99.4701 14.6673C99.0875 14.4713 98.8028 14.2146 98.6161 13.8973C98.4295 13.58 98.3361 13.23 98.3361 12.8473C98.3361 12.2033 98.5881 11.6806 99.0921 11.2793C99.5961 10.878 100.352 10.6773 101.36 10.6773H103.124V10.5093C103.124 10.0333 102.989 9.6833 102.718 9.4593C102.447 9.2353 102.111 9.1233 101.71 9.1233C101.346 9.1233 101.029 9.21196 100.758 9.3893C100.487 9.5573 100.319 9.8093 100.254 10.1453H98.5041C98.5508 9.6413 98.7188 9.20263 99.0081 8.8293C99.3068 8.45596 99.6895 8.1713 100.156 7.9753C100.623 7.76996 101.145 7.6673 101.724 7.6673C102.713 7.6673 103.493 7.91463 104.062 8.4093C104.631 8.90396 104.916 9.60396 104.916 10.5093V14.7793H103.39L103.222 13.6593C103.017 14.0326 102.727 14.3406 102.354 14.5833C101.99 14.826 101.519 14.9473 100.94 14.9473ZM101.346 13.5473C101.859 13.5473 102.256 13.3793 102.536 13.0433C102.825 12.7073 103.007 12.292 103.082 11.7973H101.556C101.08 11.7973 100.739 11.886 100.534 12.0633C100.329 12.2313 100.226 12.4413 100.226 12.6933C100.226 12.964 100.329 13.174 100.534 13.3233C100.739 13.4726 101.01 13.5473 101.346 13.5473ZM106.626 14.7793V7.8353H108.208L108.362 8.7733C108.586 8.4373 108.88 8.1713 109.244 7.9753C109.618 7.76996 110.047 7.6673 110.532 7.6673C111.606 7.6673 112.366 8.08263 112.814 8.9133C113.066 8.53063 113.402 8.2273 113.822 8.0033C114.252 7.7793 114.718 7.6673 115.222 7.6673C116.128 7.6673 116.823 7.93796 117.308 8.4793C117.794 9.02063 118.036 9.81396 118.036 10.8593V14.7793H116.244V11.0273C116.244 10.43 116.128 9.97263 115.894 9.6553C115.67 9.33796 115.32 9.1793 114.844 9.1793C114.359 9.1793 113.967 9.35663 113.668 9.7113C113.379 10.066 113.234 10.5606 113.234 11.1953V14.7793H111.442V11.0273C111.442 10.43 111.326 9.97263 111.092 9.6553C110.859 9.33796 110.5 9.1793 110.014 9.1793C109.538 9.1793 109.151 9.35663 108.852 9.7113C108.563 10.066 108.418 10.5606 108.418 11.1953V14.7793H106.626ZM123.112 14.9473C122.412 14.9473 121.791 14.798 121.25 14.4993C120.708 14.2006 120.284 13.7806 119.976 13.2393C119.668 12.698 119.514 12.0726 119.514 11.3633C119.514 10.6446 119.663 10.0053 119.962 9.4453C120.27 8.8853 120.69 8.4513 121.222 8.1433C121.763 7.82596 122.398 7.6673 123.126 7.6673C123.807 7.6673 124.409 7.81663 124.932 8.1153C125.454 8.41396 125.86 8.82463 126.15 9.3473C126.448 9.86063 126.598 10.4346 126.598 11.0693C126.598 11.172 126.593 11.2793 126.584 11.3913C126.584 11.5033 126.579 11.62 126.57 11.7413H121.292C121.329 12.2826 121.516 12.7073 121.852 13.0153C122.197 13.3233 122.612 13.4773 123.098 13.4773C123.462 13.4773 123.765 13.398 124.008 13.2393C124.26 13.0713 124.446 12.8566 124.568 12.5953H126.388C126.257 13.034 126.038 13.4353 125.73 13.7993C125.431 14.154 125.058 14.434 124.61 14.6393C124.171 14.8446 123.672 14.9473 123.112 14.9473ZM123.126 9.1233C122.687 9.1233 122.3 9.2493 121.964 9.5013C121.628 9.74396 121.413 10.1173 121.32 10.6213H124.778C124.75 10.164 124.582 9.79996 124.274 9.5293C123.966 9.25863 123.583 9.1233 123.126 9.1233Z" fill="white"/>
<path d="M56.5801 61.8145V48.5145H61.1211C62.6791 48.5145 63.9584 48.7931 64.9591 49.3505C65.9724 49.8951 66.7198 50.6678 67.2011 51.6685C67.6951 52.6565 67.9421 53.8218 67.9421 55.1645C67.9421 56.5071 67.6951 57.6788 67.2011 58.6795C66.7198 59.6675 65.9724 60.4401 64.9591 60.9975C63.9584 61.5421 62.6791 61.8145 61.1211 61.8145H56.5801ZM59.0121 59.7245H61.0071C62.1218 59.7245 63.0021 59.5471 63.6481 59.1925C64.2941 58.8251 64.7564 58.3058 65.0351 57.6345C65.3138 56.9505 65.4531 56.1271 65.4531 55.1645C65.4531 54.2145 65.3138 53.3975 65.0351 52.7135C64.7564 52.0295 64.2941 51.5038 63.6481 51.1365C63.0021 50.7691 62.1218 50.5855 61.0071 50.5855H59.0121V59.7245ZM70.0309 61.8145V52.3905H72.1969L72.4249 54.1575C72.7669 53.5495 73.2292 53.0681 73.8119 52.7135C74.4072 52.3461 75.1039 52.1625 75.9019 52.1625V54.7275H75.2179C74.6859 54.7275 74.2109 54.8098 73.7929 54.9745C73.3749 55.1391 73.0456 55.4241 72.8049 55.8295C72.5769 56.2348 72.4629 56.7985 72.4629 57.5205V61.8145H70.0309ZM80.8131 62.0425C80.0024 62.0425 79.3374 61.9158 78.8181 61.6625C78.2988 61.3965 77.9124 61.0481 77.6591 60.6175C77.4058 60.1868 77.2791 59.7118 77.2791 59.1925C77.2791 58.3185 77.6211 57.6091 78.3051 57.0645C78.9891 56.5198 80.0151 56.2475 81.3831 56.2475H83.7771V56.0195C83.7771 55.3735 83.5934 54.8985 83.2261 54.5945C82.8588 54.2905 82.4028 54.1385 81.8581 54.1385C81.3641 54.1385 80.9334 54.2588 80.5661 54.4995C80.1988 54.7275 79.9708 55.0695 79.8821 55.5255H77.5071C77.5704 54.8415 77.7984 54.2461 78.1911 53.7395C78.5964 53.2328 79.1158 52.8465 79.7491 52.5805C80.3824 52.3018 81.0918 52.1625 81.8771 52.1625C83.2198 52.1625 84.2774 52.4981 85.0501 53.1695C85.8228 53.8408 86.2091 54.7908 86.2091 56.0195V61.8145H84.1381L83.9101 60.2945C83.6314 60.8011 83.2388 61.2191 82.7321 61.5485C82.2381 61.8778 81.5984 62.0425 80.8131 62.0425ZM81.3641 60.1425C82.0608 60.1425 82.5991 59.9145 82.9791 59.4585C83.3718 59.0025 83.6188 58.4388 83.7201 57.7675H81.6491C81.0031 57.7675 80.5408 57.8878 80.2621 58.1285C79.9834 58.3565 79.8441 58.6415 79.8441 58.9835C79.8441 59.3508 79.9834 59.6358 80.2621 59.8385C80.5408 60.0411 80.9081 60.1425 81.3641 60.1425ZM90.2801 61.8145L87.5251 52.3905H89.9381L91.5721 59.1735L93.4721 52.3905H96.1701L98.0701 59.1735L99.7231 52.3905H102.136L99.3621 61.8145H96.8351L94.8211 54.7655L92.8071 61.8145H90.2801ZM103.671 61.8145V48.1345H106.103V56.2095L109.447 52.3905H112.335L108.478 56.6845L112.962 61.8145H109.922L106.103 57.0835V61.8145H103.671ZM116.312 61.8145L113.557 52.3905H115.97L117.604 59.1735L119.504 52.3905H122.202L124.102 59.1735L125.755 52.3905H128.168L125.394 61.8145H122.867L120.853 54.7655L118.839 61.8145H116.312ZM132.469 62.0425C131.659 62.0425 130.994 61.9158 130.474 61.6625C129.955 61.3965 129.569 61.0481 129.315 60.6175C129.062 60.1868 128.935 59.7118 128.935 59.1925C128.935 58.3185 129.277 57.6091 129.961 57.0645C130.645 56.5198 131.671 56.2475 133.039 56.2475H135.433V56.0195C135.433 55.3735 135.25 54.8985 134.882 54.5945C134.515 54.2905 134.059 54.1385 133.514 54.1385C133.02 54.1385 132.59 54.2588 132.222 54.4995C131.855 54.7275 131.627 55.0695 131.538 55.5255H129.163C129.227 54.8415 129.455 54.2461 129.847 53.7395C130.253 53.2328 130.772 52.8465 131.405 52.5805C132.039 52.3018 132.748 52.1625 133.533 52.1625C134.876 52.1625 135.934 52.4981 136.706 53.1695C137.479 53.8408 137.865 54.7908 137.865 56.0195V61.8145H135.794L135.566 60.2945C135.288 60.8011 134.895 61.2191 134.388 61.5485C133.894 61.8778 133.255 62.0425 132.469 62.0425ZM133.02 60.1425C133.717 60.1425 134.255 59.9145 134.635 59.4585C135.028 59.0025 135.275 58.4388 135.376 57.7675H133.305C132.659 57.7675 132.197 57.8878 131.918 58.1285C131.64 58.3565 131.5 58.6415 131.5 58.9835C131.5 59.3508 131.64 59.6358 131.918 59.8385C132.197 60.0411 132.564 60.1425 133.02 60.1425ZM140.186 61.8145V52.3905H142.352L142.58 54.1575C142.922 53.5495 143.385 53.0681 143.967 52.7135C144.563 52.3461 145.259 52.1625 146.057 52.1625V54.7275H145.373C144.841 54.7275 144.366 54.8098 143.948 54.9745C143.53 55.1391 143.201 55.4241 142.96 55.8295C142.732 56.2348 142.618 56.7985 142.618 57.5205V61.8145H140.186ZM151.884 62.0425C150.998 62.0425 150.206 61.8271 149.509 61.3965C148.813 60.9658 148.262 60.3768 147.856 59.6295C147.451 58.8821 147.248 58.0335 147.248 57.0835C147.248 56.1335 147.451 55.2911 147.856 54.5565C148.262 53.8091 148.813 53.2265 149.509 52.8085C150.206 52.3778 150.998 52.1625 151.884 52.1625C152.594 52.1625 153.214 52.2955 153.746 52.5615C154.278 52.8275 154.709 53.2011 155.038 53.6825V48.1345H157.47V61.8145H155.304L155.038 60.4655C154.734 60.8835 154.329 61.2508 153.822 61.5675C153.328 61.8841 152.682 62.0425 151.884 62.0425ZM152.397 59.9145C153.183 59.9145 153.822 59.6548 154.316 59.1355C154.823 58.6035 155.076 57.9258 155.076 57.1025C155.076 56.2791 154.823 55.6078 154.316 55.0885C153.822 54.5565 153.183 54.2905 152.397 54.2905C151.625 54.2905 150.985 54.5501 150.478 55.0695C149.972 55.5888 149.718 56.2601 149.718 57.0835C149.718 57.9068 149.972 58.5845 150.478 59.1165C150.985 59.6485 151.625 59.9145 152.397 59.9145Z" fill="white"/>
<path d="M96.8581 82.0922L89.1282 80.7283C88.7571 80.6628 88.465 80.8611 88.398 81.224L80.4045 124.474C80.3374 124.837 80.54 125.122 80.9111 125.188L88.641 126.552C89.0121 126.617 89.3041 126.419 89.3712 126.056L97.3647 82.8062C97.4206 82.5038 97.1673 82.1468 96.8581 82.0922ZM81.7419 124.148L89.523 82.0472L96.0161 83.1929L95.2224 87.4876L92.7488 87.0512C92.5633 87.0184 92.4172 87.1176 92.3837 87.299C92.3502 87.4805 92.4515 87.6233 92.637 87.656L95.1106 88.0925L94.4286 91.7824L91.955 91.3459C91.7695 91.3132 91.6235 91.4123 91.5899 91.5938C91.5564 91.7753 91.6577 91.9181 91.8432 91.9508L94.3168 92.3872L93.6237 96.1376L91.1501 95.7011C90.9646 95.6684 90.8185 95.7675 90.785 95.949C90.7515 96.1305 90.8528 96.2733 91.0383 96.306L93.5119 96.7425L92.8299 100.432L90.3563 99.9959C90.1708 99.9631 90.0248 100.062 89.9912 100.244C89.9577 100.425 90.059 100.568 90.2445 100.601L92.7181 101.037L92.0362 104.727L89.5626 104.291C89.377 104.258 89.231 104.357 89.1975 104.539C89.1639 104.72 89.2652 104.863 89.4508 104.896L91.9244 105.332L91.2424 109.022L88.7688 108.585C88.5833 108.553 88.4372 108.652 88.4037 108.833C88.3702 109.015 88.4715 109.158 88.657 109.19L91.1306 109.627L90.4486 113.317L87.975 112.88C87.7895 112.847 87.6435 112.947 87.6099 113.128C87.5764 113.309 87.6777 113.452 87.8632 113.485L90.3368 113.921L89.6549 117.611L87.1813 117.175C86.9958 117.142 86.8497 117.241 86.8162 117.423C86.7826 117.604 86.884 117.747 87.0695 117.78L89.5431 118.216L88.2574 125.172L81.7642 124.027L81.7419 124.148Z" fill="#01BDD7"/>
<path d="M108.666 119.707L122.204 123.751C122.444 123.823 122.662 123.759 122.837 123.619C123.012 123.478 123.086 123.243 123.021 123.031L116.533 96.2126C116.486 95.9415 116.222 95.734 115.963 95.7209C115.704 95.7078 115.45 95.8891 115.358 96.1831L108.248 118.939C108.138 119.292 108.305 119.599 108.666 119.707ZM115.882 98.7182L121.548 122.27L109.635 118.711L115.882 98.7182Z" fill="#01BDD7"/>
<path d="M128.636 130.111L116.723 79.8142C116.676 79.543 116.412 79.3355 116.153 79.3224C115.894 79.3093 115.64 79.4906 115.548 79.7846L102.191 122.533C102.081 122.886 102.248 123.193 102.609 123.3L127.879 130.85C128.119 130.922 128.337 130.858 128.512 130.717C128.687 130.577 128.701 130.324 128.636 130.111ZM121.628 127.696L122.216 125.815C122.271 125.638 122.187 125.485 122.007 125.431C121.826 125.377 121.669 125.459 121.614 125.635L121.026 127.517L118.018 126.618L118.606 124.736C118.661 124.56 118.577 124.406 118.397 124.353C118.216 124.299 118.059 124.38 118.004 124.557L117.416 126.438L114.408 125.54L114.996 123.658C115.051 123.482 114.967 123.328 114.787 123.274C114.606 123.22 114.449 123.302 114.394 123.478L113.806 125.36L110.798 124.461L111.386 122.579C111.441 122.403 111.357 122.25 111.177 122.196C110.996 122.142 110.839 122.223 110.784 122.4L110.196 124.281L107.188 123.383L107.776 121.501C107.831 121.325 107.747 121.171 107.567 121.117C107.386 121.063 107.229 121.145 107.174 121.321L106.586 123.203L103.578 122.304L116.071 82.3197L127.223 129.368L121.628 127.696Z" fill="#01BDD7"/>
<path d="M83.7044 107.885C83.4356 108.04 83.1355 108.135 82.8252 108.164C82.5149 108.192 82.2019 108.154 81.9082 108.052C81.6146 107.949 81.3475 107.785 81.1257 107.571C80.9039 107.356 80.7328 107.097 80.6245 106.811L73.0488 106.965L75.1475 103.703L82.0198 104.056C82.5229 103.91 83.0633 103.95 83.5386 104.167C84.014 104.385 84.3912 104.766 84.5989 105.238C84.8065 105.71 84.8302 106.24 84.6653 106.728C84.5004 107.216 84.1585 107.627 83.7044 107.885V107.885Z" fill="#FFB8B8"/>
<path d="M80.3751 106.95C80.3149 107.147 80.1904 107.319 80.0207 107.439C79.851 107.56 79.6456 107.623 79.436 107.618L65.5713 107.273L53.017 103.633C52.6715 103.533 52.3498 103.367 52.0706 103.144C51.7914 102.921 51.5602 102.646 51.3906 102.335C51.2209 102.023 51.1161 101.682 51.0823 101.331C51.0485 100.98 51.0863 100.626 51.1936 100.289C51.3009 99.9521 51.4754 99.6396 51.7072 99.3695C51.9389 99.0994 52.2232 98.8771 52.5434 98.7155C52.8637 98.5539 53.2136 98.4563 53.5727 98.4283C53.9318 98.4003 54.2931 98.4425 54.6354 98.5524L65.9777 102.194L79.591 103.48C79.8295 103.504 80.0502 103.614 80.2099 103.789C80.3695 103.964 80.4564 104.191 80.4535 104.426L80.4141 106.699C80.4128 106.784 80.3996 106.869 80.3751 106.95Z" fill="#3F3D56"/>
<path d="M60.268 165.314L62.8674 165.314L64.1043 155.496L60.2676 155.496L60.268 165.314Z" fill="#FFB8B8"/>
<path d="M59.6016 164.481L64.7211 164.48H64.7213C65.1497 164.48 65.574 164.563 65.9698 164.724C66.3657 164.884 66.7253 165.119 67.0283 165.416C67.3312 165.713 67.5716 166.065 67.7355 166.452C67.8995 166.84 67.9839 167.255 67.9839 167.675V167.779L59.6017 167.779L59.6016 164.481Z" fill="#2F2E41"/>
<path d="M52.6371 165.314L55.2366 165.314L56.4734 155.496L52.6367 155.496L52.6371 165.314Z" fill="#FFB8B8"/>
<path d="M51.9746 164.481L57.0941 164.48H57.0943C57.5228 164.48 57.947 164.563 58.3429 164.724C58.7387 164.884 59.0984 165.119 59.4013 165.416C59.7043 165.713 59.9446 166.065 60.1086 166.452C60.2725 166.84 60.3569 167.255 60.3569 167.675V167.779L51.9748 167.779L51.9746 164.481Z" fill="#2F2E41"/>
<path d="M50.8926 125.637L51.5133 161.699C51.5153 161.813 51.5413 161.925 51.5897 162.029C51.6381 162.133 51.7079 162.226 51.7947 162.302C51.8815 162.379 51.9834 162.437 52.0942 162.473C52.2049 162.509 52.322 162.522 52.4382 162.512L55.4802 162.241C55.6797 162.223 55.8664 162.137 56.0071 161.997C56.1478 161.857 56.2335 161.674 56.249 161.478L58.0299 138.984C58.0341 138.931 58.0588 138.882 58.0988 138.846C58.1389 138.81 58.1914 138.791 58.2455 138.792C58.2996 138.793 58.3513 138.815 58.3899 138.852C58.4285 138.889 58.4512 138.939 58.4532 138.992L59.3434 162.001C59.3517 162.216 59.4446 162.419 59.6026 162.568C59.7607 162.717 59.9715 162.8 60.1909 162.8H63.4533C63.6693 162.8 63.8772 162.719 64.0345 162.575C64.1918 162.43 64.2867 162.231 64.2999 162.02L66.5837 125.429L53.013 122.107L50.8926 125.637Z" fill="#2F2E41"/>
<path d="M60.7334 91.7766C63.6097 91.7766 65.9414 89.4936 65.9414 86.6774C65.9414 83.8611 63.6097 81.5781 60.7334 81.5781C57.8571 81.5781 55.5254 83.8611 55.5254 86.6774C55.5254 89.4936 57.8571 91.7766 60.7334 91.7766Z" fill="#FFB8B8"/>
<path d="M66.3833 126.973C66.3782 126.973 66.3732 126.973 66.3681 126.973L54.1903 126.79C53.9563 126.786 53.7317 126.699 53.5593 126.543C53.3869 126.388 53.2788 126.177 53.2556 125.948L53.1177 124.598C53.1151 124.573 53.1028 124.549 53.0833 124.532C53.0638 124.514 53.0385 124.505 53.0122 124.505C52.9859 124.505 52.9606 124.514 52.9411 124.532C52.9216 124.549 52.9093 124.573 52.9067 124.598L52.7643 125.993C52.7422 126.211 52.6422 126.415 52.482 126.568C52.3217 126.722 52.1114 126.815 51.888 126.831L51.0274 126.896C50.8757 126.908 50.7235 126.883 50.5833 126.825C50.4431 126.768 50.3191 126.678 50.2216 126.563C50.1242 126.449 50.056 126.314 50.0229 126.168C49.9898 126.023 49.9926 125.872 50.0312 125.728L50.7722 122.961C52.3056 117.212 52.429 111.189 51.1322 105.385L50.764 103.745C50.4864 102.519 50.6135 101.24 51.1268 100.09C51.6402 98.9397 52.5133 97.9792 53.6203 97.3466L56.0122 95.9737L57.0974 94.3799C57.3074 94.0723 57.5901 93.8187 57.9215 93.6408C58.2528 93.4629 58.6232 93.3658 59.001 93.3579C60.5149 93.3254 63.1117 93.5969 63.5996 95.7643C64.8088 96.1688 65.8558 96.9381 66.5904 97.9618C67.325 98.9854 67.7094 100.211 67.6882 101.462L67.3369 126.052C67.3334 126.297 67.2314 126.532 67.0529 126.704C66.8745 126.876 66.634 126.973 66.3833 126.973Z" fill="#3F3D56"/>
<path d="M60.3261 89.6161C60.3048 90.3369 59.7937 90.7539 59.1661 91.1315C58.5386 91.5091 57.8051 91.6728 57.0864 91.8307C56.9899 91.8809 56.8818 91.9059 56.7726 91.9033C56.6633 91.9006 56.5566 91.8705 56.4627 91.8157C56.3688 91.7609 56.291 91.6834 56.2366 91.5906C56.1822 91.4978 56.1532 91.3928 56.1524 91.2858L55.4932 88.8311C55.2601 88.047 55.0904 87.2461 54.9858 86.4358C54.8271 84.8768 55.2044 83.1997 56.3158 82.0725C57.4271 80.9453 59.3545 80.5449 60.6863 81.4134C62.2668 79.4369 69.4911 83.8037 67.709 85.178C67.392 85.4225 66.9073 85.1132 66.5049 85.0832C66.1025 85.0532 65.6516 85.1225 65.3959 85.4283C65.062 85.8278 65.2074 86.4229 65.0698 86.9212C65.0129 87.0966 64.9211 87.2591 64.7997 87.3996C64.6782 87.54 64.5296 87.6555 64.3624 87.7394C64.1952 87.8234 64.0126 87.8741 63.8253 87.8886C63.638 87.9031 63.4495 87.8811 63.2709 87.824C62.9382 87.6635 62.6252 87.4665 62.338 87.2367C62.0293 87.0354 61.6393 86.8867 61.2918 87.0137C60.8338 87.181 60.6711 87.73 60.6297 88.2069C60.5599 88.6826 60.4585 89.1533 60.3261 89.6161Z" fill="#2F2E41"/>
<path d="M67.8866 127.986C67.6435 127.795 67.4462 127.554 67.3085 127.281C67.1709 127.007 67.0962 126.707 67.0898 126.402C67.0834 126.096 67.1453 125.794 67.2714 125.514C67.3974 125.235 67.5844 124.987 67.8193 124.786L64.9824 117.906L68.8421 118.669L70.9443 125.085C71.2625 125.494 71.4166 126.003 71.3774 126.515C71.3382 127.028 71.1084 127.508 70.7315 127.866C70.3546 128.223 69.8568 128.433 69.3325 128.455C68.8082 128.478 68.2937 128.311 67.8866 127.986Z" fill="#FFB8B8"/>
<path d="M67.8349 125.005C67.6258 125.02 67.4176 124.967 67.2423 124.854C67.067 124.742 66.9343 124.576 66.8646 124.382L62.2723 111.569L61.2909 98.7851C61.2638 98.4333 61.3085 98.0798 61.4222 97.7451C61.5359 97.4103 61.7165 97.1011 61.9534 96.8353C62.1903 96.5695 62.4788 96.3525 62.8022 96.1968C63.1255 96.0412 63.4772 95.9501 63.8369 95.9287C64.1965 95.9074 64.5569 95.9562 64.897 96.0725C65.2372 96.1887 65.5504 96.37 65.8184 96.6059C66.0863 96.8417 66.3037 97.1273 66.4579 97.4461C66.6121 97.765 66.7001 98.1106 66.7166 98.463L67.2661 110.138L70.8702 123.056C70.9323 123.282 70.9055 123.523 70.795 123.732C70.6845 123.94 70.4984 124.1 70.2733 124.181L68.0885 124.952C68.0069 124.981 67.9216 124.999 67.8349 125.005Z" fill="#3F3D56"/>
<path d="M128.408 110.79C128.479 110.884 128.542 110.983 128.597 111.087L139.223 112.257L140.768 110.212L144.224 112.093L141.182 117.059L128.163 113.714C127.832 114.025 127.412 114.231 126.958 114.303C126.505 114.376 126.039 114.311 125.624 114.118C125.209 113.925 124.864 113.613 124.634 113.223C124.405 112.833 124.302 112.384 124.34 111.935C124.377 111.487 124.553 111.06 124.844 110.712C125.135 110.364 125.528 110.111 125.97 109.987C126.411 109.862 126.881 109.873 127.317 110.016C127.752 110.159 128.133 110.429 128.408 110.79Z" fill="#FFB8B8"/>
<path d="M160.129 163.692L157.578 164.371L153.688 155.061L157.452 154.059L160.129 163.692Z" fill="#FFB8B8"/>
<path d="M155.505 164.157L160.475 162.833L161.318 165.866L153.302 168.001L153.288 167.951C153.068 167.16 153.178 166.316 153.594 165.605C154.01 164.893 154.697 164.373 155.505 164.157Z" fill="#2F2E41"/>
<path d="M138.319 165.597L135.676 165.596L134.418 155.613L138.32 155.613L138.319 165.597Z" fill="#FFB8B8"/>
<path d="M133.739 164.857H138.89V168H130.582V167.948C130.582 167.128 130.915 166.342 131.507 165.763C132.099 165.183 132.901 164.857 133.739 164.857Z" fill="#2F2E41"/>
<path d="M142.302 99.6849C145.226 99.6849 147.597 97.3634 147.597 94.4997C147.597 91.6359 145.226 89.3145 142.302 89.3145C139.377 89.3145 137.006 91.6359 137.006 94.4997C137.006 97.3634 139.377 99.6849 142.302 99.6849Z" fill="#FFB8B8"/>
<path d="M138.162 158.481H134.55C134.303 158.48 134.066 158.388 133.886 158.223C133.706 158.057 133.597 157.831 133.581 157.589C132.504 140.835 133.134 128.817 135.562 119.767C135.573 119.728 135.586 119.689 135.601 119.651L135.795 119.177C135.866 119.001 135.991 118.849 136.151 118.743C136.312 118.636 136.502 118.579 136.696 118.58H144.124C144.264 118.58 144.403 118.61 144.53 118.667C144.657 118.724 144.77 118.808 144.861 118.912L145.87 120.064C145.89 120.087 145.908 120.11 145.926 120.134C150.476 126.346 154.553 138.491 159.275 154.816C159.345 155.053 159.317 155.307 159.198 155.525C159.079 155.742 158.878 155.906 158.637 155.98L154.755 157.197C154.532 157.265 154.292 157.253 154.077 157.163C153.862 157.073 153.688 156.91 153.585 156.704L143.511 136.246C143.441 136.103 143.325 135.986 143.181 135.912C143.038 135.838 142.874 135.812 142.714 135.837C142.554 135.862 142.406 135.936 142.292 136.05C142.179 136.163 142.106 136.309 142.084 136.467L139.124 157.659C139.091 157.887 138.976 158.095 138.8 158.246C138.623 158.397 138.397 158.48 138.162 158.481Z" fill="#2F2E41"/>
<path d="M145.454 120.147C145.444 120.147 145.433 120.147 145.423 120.147L136.4 119.868C136.168 119.861 135.946 119.773 135.775 119.62C135.604 119.467 135.494 119.259 135.467 119.033C134.323 109.967 137.46 107.539 138.862 106.915C138.979 106.864 139.08 106.783 139.156 106.682C139.232 106.58 139.28 106.461 139.296 106.336L139.417 105.386C139.438 105.218 139.504 105.059 139.609 104.925C141.807 102.137 144.808 101.244 146.401 100.96C146.53 100.938 146.663 100.941 146.791 100.97C146.919 100.999 147.039 101.053 147.145 101.129C147.251 101.205 147.34 101.301 147.407 101.412C147.474 101.523 147.517 101.645 147.533 101.773L147.715 103.137C147.734 103.268 147.787 103.391 147.869 103.494C152.453 109.362 147.346 118.025 146.276 119.702C146.188 119.838 146.067 119.95 145.923 120.028C145.78 120.106 145.618 120.147 145.454 120.147Z" fill="#5B59E3"/>
<path d="M148.134 91.2731C147.741 90.1056 147.45 88.9072 147.266 87.6912C147.208 86.9832 147.393 86.2214 147.92 85.7329C148.905 84.8188 150.58 85.2542 151.61 86.1194C153.1 87.3697 153.843 89.2913 154.123 91.1926C154.404 93.0938 154.281 95.0271 154.348 96.947C154.416 98.8668 154.696 100.841 155.696 102.494C156.695 104.147 158.551 105.416 160.507 105.275C161.297 105.233 162.047 104.922 162.627 104.395C162.912 104.13 163.127 103.802 163.256 103.438C163.384 103.075 163.422 102.686 163.365 102.306C164.365 104.059 163.858 106.435 162.366 107.814C160.875 109.192 158.58 109.582 156.619 108.993C154.658 108.405 153.044 106.929 152.08 105.157C151.116 103.384 150.763 101.336 150.814 99.3286C150.853 97.7869 151.121 96.2325 150.855 94.7125C150.589 93.1925 149.617 91.6491 148.085 91.2911L148.134 91.2731Z" fill="#2F2E41"/>
<path d="M141.251 93.2719C140.99 94.1263 139.991 94.6531 139.092 94.5086C138.645 94.4175 138.231 94.2095 137.894 93.9067C137.558 93.6038 137.311 93.2175 137.181 92.7886C136.934 91.9196 137.035 90.9912 137.464 90.1927C137.7 89.7141 138.03 89.2858 138.435 88.9322C138.841 88.5787 139.313 88.3069 139.826 88.1324C140.342 87.9651 140.891 87.9216 141.427 88.0055C141.964 88.0894 142.472 88.2984 142.908 88.6147C142.955 88.4227 143.053 88.2464 143.192 88.1038C143.331 87.9613 143.507 87.8576 143.701 87.8035C144.091 87.7006 144.503 87.7065 144.889 87.8207C146.004 88.1318 146.97 88.8198 147.616 89.7626C148.253 90.7025 148.674 91.7664 148.851 92.8811C149.155 94.5528 149.043 96.3795 148.084 97.7944C147.125 99.2092 145.164 100.045 143.572 99.3701C143.473 98.8734 143.708 98.3732 143.98 97.9428C144.252 97.5123 144.574 97.093 144.679 96.5973C144.783 96.1016 144.583 95.4952 144.093 95.3331C143.676 95.1948 143.23 95.4189 142.79 95.446C142.54 95.4613 142.29 95.4121 142.066 95.3031C141.842 95.1942 141.65 95.0294 141.512 94.8252C141.373 94.6211 141.291 94.3848 141.275 94.1401C141.259 93.8954 141.309 93.6509 141.42 93.431L141.251 93.2719Z" fill="#2F2E41"/>
<path d="M127.829 114.634C127.917 114.713 127.998 114.799 128.072 114.891L138.732 114.078L139.857 111.785L143.613 112.994L141.581 118.432L128.152 117.55C127.887 117.917 127.513 118.197 127.082 118.352C126.65 118.506 126.181 118.529 125.736 118.416C125.291 118.303 124.892 118.06 124.592 117.719C124.291 117.379 124.104 116.957 124.054 116.51C124.005 116.062 124.095 115.611 124.314 115.215C124.533 114.82 124.87 114.499 125.28 114.295C125.69 114.091 126.153 114.015 126.608 114.075C127.064 114.136 127.489 114.33 127.829 114.634V114.634Z" fill="#FFB8B8"/>
<path d="M143.559 116.615C143.469 116.59 143.383 116.552 143.304 116.503L138.583 113.583C138.47 113.513 138.372 113.421 138.297 113.312C138.222 113.203 138.171 113.08 138.147 112.951C138.123 112.821 138.126 112.689 138.157 112.561C138.188 112.433 138.246 112.313 138.327 112.208L141.636 107.916C141.775 107.734 141.975 107.608 142.202 107.559C142.428 107.51 142.664 107.543 142.868 107.651L146.061 109.324C146.261 109.429 146.416 109.598 146.502 109.803C146.587 110.008 146.597 110.236 146.529 110.447L144.748 115.985C144.672 116.221 144.505 116.418 144.284 116.536C144.062 116.653 143.802 116.682 143.559 116.615Z" fill="#5B59E3"/>
<defs>
<filter id="filter0_d" x="0" y="18.5762" width="214" height="217.559" filterUnits="userSpaceOnUse" color-interpolation-filters="sRGB">
<feFlood flood-opacity="0" result="BackgroundImageFix"/>
<feColorMatrix in="SourceAlpha" type="matrix" values="0 0 0 0 0 0 0 0 0 0 0 0 0 0 0 0 0 0 127 0"/>
<feOffset dy="1"/>
<feGaussianBlur stdDeviation="1"/>
<feColorMatrix type="matrix" values="0 0 0 0 0.0588235 0 0 0 0 0.0588235 0 0 0 0 0.0588235 0 0 0 0.1 0"/>
<feBlend mode="normal" in2="BackgroundImageFix" result="effect1_dropShadow"/>
<feBlend mode="normal" in="SourceGraphic" in2="effect1_dropShadow" result="shape"/>
</filter>
</defs>
</svg>
