<svg width="214" height="237" viewBox="0 0 214 237" fill="none" xmlns="http://www.w3.org/2000/svg">
<g filter="url(#filter0_d)">
<rect x="2" y="19.5762" width="210" height="213.559" rx="20" fill="#992EDB"/>
</g>
<path d="M33.1445 10C33.1445 4.47715 37.6217 0 43.1445 0H170.856C176.379 0 180.856 4.47715 180.856 10V19.5763H33.1445V10Z" fill="#F12587"/>
<path d="M92.044 14.9473C91.12 14.9473 90.3127 14.7373 89.622 14.3173C88.9313 13.8973 88.3947 13.314 88.012 12.5673C87.6293 11.8113 87.438 10.934 87.438 9.9353C87.438 8.9273 87.634 8.04063 88.026 7.2753C88.4273 6.50063 88.992 5.89863 89.72 5.4693C90.4573 5.03063 91.33 4.8113 92.338 4.8113C93.486 4.8113 94.438 5.08663 95.194 5.6373C95.95 6.18796 96.44 6.94863 96.664 7.9193H94.662C94.5127 7.46196 94.242 7.1073 93.85 6.8553C93.458 6.59396 92.954 6.4633 92.338 6.4633C91.358 6.4633 90.602 6.77596 90.07 7.4013C89.538 8.0173 89.272 8.86663 89.272 9.9493C89.272 11.032 89.5333 11.872 90.056 12.4693C90.588 13.0573 91.3067 13.3513 92.212 13.3513C93.0987 13.3513 93.766 13.1133 94.214 12.6373C94.6713 12.152 94.9467 11.5173 95.04 10.7333H92.562V9.3893H96.846V14.7793H95.194L95.054 13.4913C94.7367 13.958 94.34 14.3173 93.864 14.5693C93.388 14.8213 92.7813 14.9473 92.044 14.9473ZM100.94 14.9473C100.343 14.9473 99.8528 14.854 99.4701 14.6673C99.0875 14.4713 98.8028 14.2146 98.6161 13.8973C98.4295 13.58 98.3361 13.23 98.3361 12.8473C98.3361 12.2033 98.5881 11.6806 99.0921 11.2793C99.5961 10.878 100.352 10.6773 101.36 10.6773H103.124V10.5093C103.124 10.0333 102.989 9.6833 102.718 9.4593C102.447 9.2353 102.111 9.1233 101.71 9.1233C101.346 9.1233 101.029 9.21196 100.758 9.3893C100.487 9.5573 100.319 9.8093 100.254 10.1453H98.5041C98.5508 9.6413 98.7188 9.20263 99.0081 8.8293C99.3068 8.45596 99.6895 8.1713 100.156 7.9753C100.623 7.76996 101.145 7.6673 101.724 7.6673C102.713 7.6673 103.493 7.91463 104.062 8.4093C104.631 8.90396 104.916 9.60396 104.916 10.5093V14.7793H103.39L103.222 13.6593C103.017 14.0326 102.727 14.3406 102.354 14.5833C101.99 14.826 101.519 14.9473 100.94 14.9473ZM101.346 13.5473C101.859 13.5473 102.256 13.3793 102.536 13.0433C102.825 12.7073 103.007 12.292 103.082 11.7973H101.556C101.08 11.7973 100.739 11.886 100.534 12.0633C100.329 12.2313 100.226 12.4413 100.226 12.6933C100.226 12.964 100.329 13.174 100.534 13.3233C100.739 13.4726 101.01 13.5473 101.346 13.5473ZM106.626 14.7793V7.8353H108.208L108.362 8.7733C108.586 8.4373 108.88 8.1713 109.244 7.9753C109.618 7.76996 110.047 7.6673 110.532 7.6673C111.606 7.6673 112.366 8.08263 112.814 8.9133C113.066 8.53063 113.402 8.2273 113.822 8.0033C114.252 7.7793 114.718 7.6673 115.222 7.6673C116.128 7.6673 116.823 7.93796 117.308 8.4793C117.794 9.02063 118.036 9.81396 118.036 10.8593V14.7793H116.244V11.0273C116.244 10.43 116.128 9.97263 115.894 9.6553C115.67 9.33796 115.32 9.1793 114.844 9.1793C114.359 9.1793 113.967 9.35663 113.668 9.7113C113.379 10.066 113.234 10.5606 113.234 11.1953V14.7793H111.442V11.0273C111.442 10.43 111.326 9.97263 111.092 9.6553C110.859 9.33796 110.5 9.1793 110.014 9.1793C109.538 9.1793 109.151 9.35663 108.852 9.7113C108.563 10.066 108.418 10.5606 108.418 11.1953V14.7793H106.626ZM123.112 14.9473C122.412 14.9473 121.791 14.798 121.25 14.4993C120.708 14.2006 120.284 13.7806 119.976 13.2393C119.668 12.698 119.514 12.0726 119.514 11.3633C119.514 10.6446 119.663 10.0053 119.962 9.4453C120.27 8.8853 120.69 8.4513 121.222 8.1433C121.763 7.82596 122.398 7.6673 123.126 7.6673C123.807 7.6673 124.409 7.81663 124.932 8.1153C125.454 8.41396 125.86 8.82463 126.15 9.3473C126.448 9.86063 126.598 10.4346 126.598 11.0693C126.598 11.172 126.593 11.2793 126.584 11.3913C126.584 11.5033 126.579 11.62 126.57 11.7413H121.292C121.329 12.2826 121.516 12.7073 121.852 13.0153C122.197 13.3233 122.612 13.4773 123.098 13.4773C123.462 13.4773 123.765 13.398 124.008 13.2393C124.26 13.0713 124.446 12.8566 124.568 12.5953H126.388C126.257 13.034 126.038 13.4353 125.73 13.7993C125.431 14.154 125.058 14.434 124.61 14.6393C124.171 14.8446 123.672 14.9473 123.112 14.9473ZM123.126 9.1233C122.687 9.1233 122.3 9.2493 121.964 9.5013C121.628 9.74396 121.413 10.1173 121.32 10.6213H124.778C124.75 10.164 124.582 9.79996 124.274 9.5293C123.966 9.25863 123.583 9.1233 123.126 9.1233Z" fill="white"/>
<path d="M49.6993 78.8145L53.5693 68.3145H54.9043L58.7593 78.8145H57.4243L56.4643 76.1145H51.9943L51.0193 78.8145H49.6993ZM52.3693 75.0945H56.0893L54.2293 69.9045L52.3693 75.0945ZM64.62 78.8145V72.4395H63.495V71.3745H64.62V70.0845C64.62 69.3645 64.8 68.8395 65.16 68.5095C65.52 68.1795 66.045 68.0145 66.735 68.0145H67.485V69.0945H66.93C66.55 69.0945 66.28 69.1745 66.12 69.3345C65.96 69.4845 65.88 69.7445 65.88 70.1145V71.3745H67.71V72.4395H65.88V78.8145H64.62ZM71.9251 78.9945C71.0451 78.9945 70.3451 78.7295 69.8251 78.1995C69.3051 77.6595 69.0451 76.8345 69.0451 75.7245V71.3745H70.3051V75.5895C70.3051 77.1395 70.9401 77.9145 72.2101 77.9145C72.8601 77.9145 73.3951 77.6845 73.8151 77.2245C74.2451 76.7545 74.4601 76.0895 74.4601 75.2295V71.3745H75.7201V78.8145H74.5801L74.4901 77.4795C74.2601 77.9495 73.9151 78.3195 73.4551 78.5895C73.0051 78.8595 72.4951 78.9945 71.9251 78.9945ZM77.7941 78.8145V71.3745H78.9341L79.0091 72.7095C79.2491 72.2395 79.5941 71.8695 80.0441 71.5995C80.4941 71.3295 81.0041 71.1945 81.5741 71.1945C82.4541 71.1945 83.1541 71.4645 83.6741 72.0045C84.2041 72.5345 84.4691 73.3545 84.4691 74.4645V78.8145H83.2091V74.5995C83.2091 73.0495 82.5691 72.2745 81.2891 72.2745C80.6491 72.2745 80.1141 72.5095 79.6841 72.9795C79.2641 73.4395 79.0541 74.0995 79.0541 74.9595V78.8145H77.7941ZM90.7528 78.8145V72.4395H89.6278V71.3745H90.7528V70.0845C90.7528 69.3645 90.9328 68.8395 91.2928 68.5095C91.6528 68.1795 92.1778 68.0145 92.8678 68.0145H93.6178V69.0945H93.0628C92.6828 69.0945 92.4128 69.1745 92.2528 69.3345C92.0928 69.4845 92.0128 69.7445 92.0128 70.1145V71.3745H96.6328V78.8145H95.3728V72.4395H92.0128V78.8145H90.7528ZM96.0178 69.9495C95.7778 69.9495 95.5728 69.8695 95.4028 69.7095C95.2328 69.5395 95.1478 69.3295 95.1478 69.0795C95.1478 68.8395 95.2328 68.6395 95.4028 68.4795C95.5728 68.3195 95.7778 68.2395 96.0178 68.2395C96.2678 68.2395 96.4728 68.3195 96.6328 68.4795C96.8028 68.6395 96.8878 68.8395 96.8878 69.0795C96.8878 69.3295 96.8028 69.5395 96.6328 69.7095C96.4728 69.8695 96.2678 69.9495 96.0178 69.9495ZM98.8585 78.8145V68.0145H100.119V78.8145H98.8585ZM102.184 78.8145V68.0145H103.444V78.8145H102.184ZM108.854 78.9945C108.144 78.9945 107.514 78.8345 106.964 78.5145C106.414 78.1845 105.979 77.7295 105.659 77.1495C105.349 76.5695 105.194 75.8845 105.194 75.0945C105.194 74.3145 105.349 73.6345 105.659 73.0545C105.969 72.4645 106.399 72.0095 106.949 71.6895C107.509 71.3595 108.154 71.1945 108.884 71.1945C109.604 71.1945 110.224 71.3595 110.744 71.6895C111.274 72.0095 111.679 72.4345 111.959 72.9645C112.239 73.4945 112.379 74.0645 112.379 74.6745C112.379 74.7845 112.374 74.8945 112.364 75.0045C112.364 75.1145 112.364 75.2395 112.364 75.3795H106.439C106.469 75.9495 106.599 76.4245 106.829 76.8045C107.069 77.1745 107.364 77.4545 107.714 77.6445C108.074 77.8345 108.454 77.9295 108.854 77.9295C109.374 77.9295 109.809 77.8095 110.159 77.5695C110.509 77.3295 110.764 77.0045 110.924 76.5945H112.169C111.969 77.2845 111.584 77.8595 111.014 78.3195C110.454 78.7695 109.734 78.9945 108.854 78.9945ZM108.854 72.2595C108.254 72.2595 107.719 72.4445 107.249 72.8145C106.789 73.1745 106.524 73.7045 106.454 74.4045H111.134C111.104 73.7345 110.874 73.2095 110.444 72.8295C110.014 72.4495 109.484 72.2595 108.854 72.2595ZM117.424 78.9945C116.684 78.9945 116.034 78.8245 115.474 78.4845C114.924 78.1445 114.494 77.6795 114.184 77.0895C113.884 76.4995 113.734 75.8295 113.734 75.0795C113.734 74.3295 113.889 73.6645 114.199 73.0845C114.509 72.4945 114.939 72.0345 115.489 71.7045C116.039 71.3645 116.689 71.1945 117.439 71.1945C118.049 71.1945 118.589 71.3195 119.059 71.5695C119.529 71.8195 119.894 72.1695 120.154 72.6195V68.0145H121.414V78.8145H120.274L120.154 77.5845C119.914 77.9445 119.569 78.2695 119.119 78.5595C118.669 78.8495 118.104 78.9945 117.424 78.9945ZM117.559 77.8995C118.059 77.8995 118.499 77.7845 118.879 77.5545C119.269 77.3145 119.569 76.9845 119.779 76.5645C119.999 76.1445 120.109 75.6545 120.109 75.0945C120.109 74.5345 119.999 74.0445 119.779 73.6245C119.569 73.2045 119.269 72.8795 118.879 72.6495C118.499 72.4095 118.059 72.2895 117.559 72.2895C117.069 72.2895 116.629 72.4095 116.239 72.6495C115.859 72.8795 115.559 73.2045 115.339 73.6245C115.129 74.0445 115.024 74.5345 115.024 75.0945C115.024 75.6545 115.129 76.1445 115.339 76.5645C115.559 76.9845 115.859 77.3145 116.239 77.5545C116.629 77.7845 117.069 77.8995 117.559 77.8995ZM130.378 76.4745C129.958 76.4745 129.573 76.4195 129.223 76.3095L128.473 77.0145C128.583 77.0945 128.718 77.1645 128.878 77.2245C129.048 77.2745 129.288 77.3245 129.598 77.3745C129.908 77.4145 130.343 77.4595 130.903 77.5095C131.903 77.5795 132.618 77.8095 133.048 78.1995C133.478 78.5895 133.693 79.0995 133.693 79.7295C133.693 80.1595 133.573 80.5695 133.333 80.9595C133.103 81.3495 132.743 81.6695 132.253 81.9195C131.773 82.1695 131.153 82.2945 130.393 82.2945C129.723 82.2945 129.128 82.2045 128.608 82.0245C128.088 81.8545 127.683 81.5895 127.393 81.2295C127.103 80.8795 126.958 80.4345 126.958 79.8945C126.958 79.6145 127.033 79.3095 127.183 78.9795C127.333 78.6595 127.613 78.3545 128.023 78.0645C127.803 77.9745 127.613 77.8795 127.453 77.7795C127.303 77.6695 127.163 77.5495 127.033 77.4195V77.0745L128.308 75.8145C127.718 75.3145 127.423 74.6545 127.423 73.8345C127.423 73.3445 127.538 72.8995 127.768 72.4995C127.998 72.0995 128.333 71.7845 128.773 71.5545C129.213 71.3145 129.748 71.1945 130.378 71.1945C130.808 71.1945 131.198 71.2545 131.548 71.3745H134.293V72.3195L132.898 72.3795C133.188 72.7995 133.333 73.2845 133.333 73.8345C133.333 74.3245 133.213 74.7695 132.973 75.1695C132.743 75.5695 132.408 75.8895 131.968 76.1295C131.538 76.3595 131.008 76.4745 130.378 76.4745ZM130.378 75.4395C130.908 75.4395 131.328 75.3045 131.638 75.0345C131.958 74.7545 132.118 74.3545 132.118 73.8345C132.118 73.3245 131.958 72.9345 131.638 72.6645C131.328 72.3845 130.908 72.2445 130.378 72.2445C129.838 72.2445 129.408 72.3845 129.088 72.6645C128.778 72.9345 128.623 73.3245 128.623 73.8345C128.623 74.3545 128.778 74.7545 129.088 75.0345C129.408 75.3045 129.838 75.4395 130.378 75.4395ZM128.188 79.7745C128.188 80.2745 128.398 80.6445 128.818 80.8845C129.238 81.1345 129.763 81.2595 130.393 81.2595C131.013 81.2595 131.508 81.1245 131.878 80.8545C132.258 80.5845 132.448 80.2245 132.448 79.7745C132.448 79.4545 132.318 79.1745 132.058 78.9345C131.798 78.7045 131.318 78.5695 130.618 78.5295C130.068 78.4895 129.593 78.4395 129.193 78.3795C128.783 78.5995 128.513 78.8345 128.383 79.0845C128.253 79.3445 128.188 79.5745 128.188 79.7745ZM138.189 78.9945C137.569 78.9945 137.054 78.8895 136.644 78.6795C136.234 78.4695 135.929 78.1895 135.729 77.8395C135.529 77.4895 135.429 77.1095 135.429 76.6995C135.429 75.9395 135.719 75.3545 136.299 74.9445C136.879 74.5345 137.669 74.3295 138.669 74.3295H140.679V74.2395C140.679 73.5895 140.509 73.0995 140.169 72.7695C139.829 72.4295 139.374 72.2595 138.804 72.2595C138.314 72.2595 137.889 72.3845 137.529 72.6345C137.179 72.8745 136.959 73.2295 136.869 73.6995H135.579C135.629 73.1595 135.809 72.7045 136.119 72.3345C136.439 71.9645 136.834 71.6845 137.304 71.4945C137.774 71.2945 138.274 71.1945 138.804 71.1945C139.844 71.1945 140.624 71.4745 141.144 72.0345C141.674 72.5845 141.939 73.3195 141.939 74.2395V78.8145H140.814L140.739 77.4795C140.529 77.8995 140.219 78.2595 139.809 78.5595C139.409 78.8495 138.869 78.9945 138.189 78.9945ZM138.384 77.9295C138.864 77.9295 139.274 77.8045 139.614 77.5545C139.964 77.3045 140.229 76.9795 140.409 76.5795C140.589 76.1795 140.679 75.7595 140.679 75.3195V75.3045H138.774C138.034 75.3045 137.509 75.4345 137.199 75.6945C136.899 75.9445 136.749 76.2595 136.749 76.6395C136.749 77.0295 136.889 77.3445 137.169 77.5845C137.459 77.8145 137.864 77.9295 138.384 77.9295ZM143.829 78.8145V71.3745H144.969L145.059 72.4545C145.299 72.0545 145.619 71.7445 146.019 71.5245C146.419 71.3045 146.869 71.1945 147.369 71.1945C147.959 71.1945 148.464 71.3145 148.884 71.5545C149.314 71.7945 149.644 72.1595 149.874 72.6495C150.134 72.1995 150.489 71.8445 150.939 71.5845C151.399 71.3245 151.894 71.1945 152.424 71.1945C153.314 71.1945 154.024 71.4645 154.554 72.0045C155.084 72.5345 155.349 73.3545 155.349 74.4645V78.8145H154.104V74.5995C154.104 73.8295 153.949 73.2495 153.639 72.8595C153.329 72.4695 152.884 72.2745 152.304 72.2745C151.704 72.2745 151.204 72.5095 150.804 72.9795C150.414 73.4395 150.219 74.0995 150.219 74.9595V78.8145H148.959V74.5995C148.959 73.8295 148.804 73.2495 148.494 72.8595C148.184 72.4695 147.739 72.2745 147.159 72.2745C146.569 72.2745 146.074 72.5095 145.674 72.9795C145.284 73.4395 145.089 74.0995 145.089 74.9595V78.8145H143.829ZM160.592 78.9945C159.882 78.9945 159.252 78.8345 158.702 78.5145C158.152 78.1845 157.717 77.7295 157.397 77.1495C157.087 76.5695 156.932 75.8845 156.932 75.0945C156.932 74.3145 157.087 73.6345 157.397 73.0545C157.707 72.4645 158.137 72.0095 158.687 71.6895C159.247 71.3595 159.892 71.1945 160.622 71.1945C161.342 71.1945 161.962 71.3595 162.482 71.6895C163.012 72.0095 163.417 72.4345 163.697 72.9645C163.977 73.4945 164.117 74.0645 164.117 74.6745C164.117 74.7845 164.112 74.8945 164.102 75.0045C164.102 75.1145 164.102 75.2395 164.102 75.3795H158.177C158.207 75.9495 158.337 76.4245 158.567 76.8045C158.807 77.1745 159.102 77.4545 159.452 77.6445C159.812 77.8345 160.192 77.9295 160.592 77.9295C161.112 77.9295 161.547 77.8095 161.897 77.5695C162.247 77.3295 162.502 77.0045 162.662 76.5945H163.907C163.707 77.2845 163.322 77.8595 162.752 78.3195C162.192 78.7695 161.472 78.9945 160.592 78.9945ZM160.592 72.2595C159.992 72.2595 159.457 72.4445 158.987 72.8145C158.527 73.1745 158.262 73.7045 158.192 74.4045H162.872C162.842 73.7345 162.612 73.2095 162.182 72.8295C161.752 72.4495 161.222 72.2595 160.592 72.2595ZM34.1915 98.8145L32.0165 91.3745H33.2765L34.8515 97.2095L36.5915 91.3745H38.0165L39.7715 97.2095L41.3315 91.3745H42.6065L40.4315 98.8145H39.1415L37.3115 92.6795L35.4815 98.8145H34.1915ZM44.0001 98.8145V88.0145H45.2601V92.6495C45.5101 92.1895 45.8651 91.8345 46.3251 91.5845C46.7851 91.3245 47.2851 91.1945 47.8251 91.1945C48.6851 91.1945 49.3751 91.4645 49.8951 92.0045C50.4151 92.5345 50.6751 93.3545 50.6751 94.4645V98.8145H49.4301V94.5995C49.4301 93.0495 48.8051 92.2745 47.5551 92.2745C46.9051 92.2745 46.3601 92.5095 45.9201 92.9795C45.4801 93.4395 45.2601 94.0995 45.2601 94.9595V98.8145H44.0001ZM55.9291 98.9945C55.2191 98.9945 54.5891 98.8345 54.0391 98.5145C53.4891 98.1845 53.0541 97.7295 52.7341 97.1495C52.4241 96.5695 52.2691 95.8845 52.2691 95.0945C52.2691 94.3145 52.4241 93.6345 52.7341 93.0545C53.0441 92.4645 53.4741 92.0095 54.0241 91.6895C54.5841 91.3595 55.2291 91.1945 55.9591 91.1945C56.6791 91.1945 57.2991 91.3595 57.8191 91.6895C58.3491 92.0095 58.7541 92.4345 59.0341 92.9645C59.3141 93.4945 59.4541 94.0645 59.4541 94.6745C59.4541 94.7845 59.4491 94.8945 59.4391 95.0045C59.4391 95.1145 59.4391 95.2395 59.4391 95.3795H53.5141C53.5441 95.9495 53.6741 96.4245 53.9041 96.8045C54.1441 97.1745 54.4391 97.4545 54.7891 97.6445C55.1491 97.8345 55.5291 97.9295 55.9291 97.9295C56.4491 97.9295 56.8841 97.8095 57.2341 97.5695C57.5841 97.3295 57.8391 97.0045 57.9991 96.5945H59.2441C59.0441 97.2845 58.6591 97.8595 58.0891 98.3195C57.5291 98.7695 56.8091 98.9945 55.9291 98.9945ZM55.9291 92.2595C55.3291 92.2595 54.7941 92.4445 54.3241 92.8145C53.8641 93.1745 53.5991 93.7045 53.5291 94.4045H58.2091C58.1791 93.7345 57.9491 93.2095 57.5191 92.8295C57.0891 92.4495 56.5591 92.2595 55.9291 92.2595ZM61.1241 98.8145V91.3745H62.2641L62.3691 92.7995C62.5991 92.3095 62.9491 91.9195 63.4191 91.6295C63.8891 91.3395 64.4691 91.1945 65.1591 91.1945V92.5145H64.8141C64.3741 92.5145 63.9691 92.5945 63.5991 92.7545C63.2291 92.9045 62.9341 93.1645 62.7141 93.5345C62.4941 93.9045 62.3841 94.4145 62.3841 95.0645V98.8145H61.1241ZM69.64 98.9945C68.93 98.9945 68.3 98.8345 67.75 98.5145C67.2 98.1845 66.765 97.7295 66.445 97.1495C66.135 96.5695 65.98 95.8845 65.98 95.0945C65.98 94.3145 66.135 93.6345 66.445 93.0545C66.755 92.4645 67.185 92.0095 67.735 91.6895C68.295 91.3595 68.94 91.1945 69.67 91.1945C70.39 91.1945 71.01 91.3595 71.53 91.6895C72.06 92.0095 72.465 92.4345 72.745 92.9645C73.025 93.4945 73.165 94.0645 73.165 94.6745C73.165 94.7845 73.16 94.8945 73.15 95.0045C73.15 95.1145 73.15 95.2395 73.15 95.3795H67.225C67.255 95.9495 67.385 96.4245 67.615 96.8045C67.855 97.1745 68.15 97.4545 68.5 97.6445C68.86 97.8345 69.24 97.9295 69.64 97.9295C70.16 97.9295 70.595 97.8095 70.945 97.5695C71.295 97.3295 71.55 97.0045 71.71 96.5945H72.955C72.755 97.2845 72.37 97.8595 71.8 98.3195C71.24 98.7695 70.52 98.9945 69.64 98.9945ZM69.64 92.2595C69.04 92.2595 68.505 92.4445 68.035 92.8145C67.575 93.1745 67.31 93.7045 67.24 94.4045H71.92C71.89 93.7345 71.66 93.2095 71.23 92.8295C70.8 92.4495 70.27 92.2595 69.64 92.2595ZM78.8048 102.114V91.3745H79.9448L80.0648 92.6045C80.3048 92.2445 80.6448 91.9195 81.0848 91.6295C81.5348 91.3395 82.1048 91.1945 82.7948 91.1945C83.5348 91.1945 84.1798 91.3645 84.7298 91.7045C85.2798 92.0445 85.7048 92.5095 86.0048 93.0995C86.3148 93.6895 86.4698 94.3595 86.4698 95.1095C86.4698 95.8595 86.3148 96.5295 86.0048 97.1195C85.7048 97.6995 85.2748 98.1595 84.7148 98.4995C84.1648 98.8295 83.5198 98.9945 82.7798 98.9945C82.1698 98.9945 81.6248 98.8695 81.1448 98.6195C80.6748 98.3695 80.3148 98.0195 80.0648 97.5695V102.114H78.8048ZM82.6448 97.8995C83.1448 97.8995 83.5848 97.7845 83.9648 97.5545C84.3448 97.3145 84.6448 96.9845 84.8648 96.5645C85.0848 96.1445 85.1948 95.6545 85.1948 95.0945C85.1948 94.5345 85.0848 94.0445 84.8648 93.6245C84.6448 93.2045 84.3448 92.8795 83.9648 92.6495C83.5848 92.4095 83.1448 92.2895 82.6448 92.2895C82.1448 92.2895 81.7048 92.4095 81.3248 92.6495C80.9448 92.8795 80.6448 93.2045 80.4248 93.6245C80.2048 94.0445 80.0948 94.5345 80.0948 95.0945C80.0948 95.6545 80.2048 96.1445 80.4248 96.5645C80.6448 96.9845 80.9448 97.3145 81.3248 97.5545C81.7048 97.7845 82.1448 97.8995 82.6448 97.8995ZM88.2238 98.8145V88.0145H89.4838V98.8145H88.2238ZM94.0239 98.9945C93.4039 98.9945 92.8889 98.8895 92.4789 98.6795C92.0689 98.4695 91.7639 98.1895 91.5639 97.8395C91.3639 97.4895 91.2639 97.1095 91.2639 96.6995C91.2639 95.9395 91.5539 95.3545 92.1339 94.9445C92.7139 94.5345 93.5039 94.3295 94.5039 94.3295H96.5139V94.2395C96.5139 93.5895 96.3439 93.0995 96.0039 92.7695C95.6639 92.4295 95.2089 92.2595 94.6389 92.2595C94.1489 92.2595 93.7239 92.3845 93.3639 92.6345C93.0139 92.8745 92.7939 93.2295 92.7039 93.6995H91.4139C91.4639 93.1595 91.6439 92.7045 91.9539 92.3345C92.2739 91.9645 92.6689 91.6845 93.1389 91.4945C93.6089 91.2945 94.1089 91.1945 94.6389 91.1945C95.6789 91.1945 96.4589 91.4745 96.9789 92.0345C97.5089 92.5845 97.7739 93.3195 97.7739 94.2395V98.8145H96.6489L96.5739 97.4795C96.3639 97.8995 96.0539 98.2595 95.6439 98.5595C95.2439 98.8495 94.7039 98.9945 94.0239 98.9945ZM94.2189 97.9295C94.6989 97.9295 95.1089 97.8045 95.4489 97.5545C95.7989 97.3045 96.0639 96.9795 96.2439 96.5795C96.4239 96.1795 96.5139 95.7595 96.5139 95.3195V95.3045H94.6089C93.8689 95.3045 93.3439 95.4345 93.0339 95.6945C92.7339 95.9445 92.5839 96.2595 92.5839 96.6395C92.5839 97.0295 92.7239 97.3445 93.0039 97.5845C93.2939 97.8145 93.6989 97.9295 94.2189 97.9295ZM100.254 102.114L102.099 98.0945H101.664L98.7095 91.3745H100.074L102.534 97.1645L105.144 91.3745H106.449L101.574 102.114H100.254ZM110.421 98.9945C109.711 98.9945 109.081 98.8345 108.531 98.5145C107.981 98.1845 107.546 97.7295 107.226 97.1495C106.916 96.5695 106.761 95.8845 106.761 95.0945C106.761 94.3145 106.916 93.6345 107.226 93.0545C107.536 92.4645 107.966 92.0095 108.516 91.6895C109.076 91.3595 109.721 91.1945 110.451 91.1945C111.171 91.1945 111.791 91.3595 112.311 91.6895C112.841 92.0095 113.246 92.4345 113.526 92.9645C113.806 93.4945 113.946 94.0645 113.946 94.6745C113.946 94.7845 113.941 94.8945 113.931 95.0045C113.931 95.1145 113.931 95.2395 113.931 95.3795H108.006C108.036 95.9495 108.166 96.4245 108.396 96.8045C108.636 97.1745 108.931 97.4545 109.281 97.6445C109.641 97.8345 110.021 97.9295 110.421 97.9295C110.941 97.9295 111.376 97.8095 111.726 97.5695C112.076 97.3295 112.331 97.0045 112.491 96.5945H113.736C113.536 97.2845 113.151 97.8595 112.581 98.3195C112.021 98.7695 111.301 98.9945 110.421 98.9945ZM110.421 92.2595C109.821 92.2595 109.286 92.4445 108.816 92.8145C108.356 93.1745 108.091 93.7045 108.021 94.4045H112.701C112.671 93.7345 112.441 93.2095 112.011 92.8295C111.581 92.4495 111.051 92.2595 110.421 92.2595ZM115.616 98.8145V91.3745H116.756L116.861 92.7995C117.091 92.3095 117.441 91.9195 117.911 91.6295C118.381 91.3395 118.961 91.1945 119.651 91.1945V92.5145H119.306C118.866 92.5145 118.461 92.5945 118.091 92.7545C117.721 92.9045 117.426 93.1645 117.206 93.5345C116.986 93.9045 116.876 94.4145 116.876 95.0645V98.8145H115.616ZM123.916 98.9945C123.026 98.9945 122.286 98.7695 121.696 98.3195C121.106 97.8695 120.761 97.2595 120.661 96.4895H121.951C122.031 96.8795 122.236 97.2195 122.566 97.5095C122.906 97.7895 123.361 97.9295 123.931 97.9295C124.461 97.9295 124.851 97.8195 125.101 97.5995C125.351 97.3695 125.476 97.0995 125.476 96.7895C125.476 96.3395 125.311 96.0395 124.981 95.8895C124.661 95.7395 124.206 95.6045 123.616 95.4845C123.216 95.4045 122.816 95.2895 122.416 95.1395C122.016 94.9895 121.681 94.7795 121.411 94.5095C121.141 94.2295 121.006 93.8645 121.006 93.4145C121.006 92.7645 121.246 92.2345 121.726 91.8245C122.216 91.4045 122.876 91.1945 123.706 91.1945C124.496 91.1945 125.141 91.3945 125.641 91.7945C126.151 92.1845 126.446 92.7445 126.526 93.4745H125.281C125.231 93.0945 125.066 92.7995 124.786 92.5895C124.516 92.3695 124.151 92.2595 123.691 92.2595C123.241 92.2595 122.891 92.3545 122.641 92.5445C122.401 92.7345 122.281 92.9845 122.281 93.2945C122.281 93.5945 122.436 93.8295 122.746 93.9995C123.066 94.1695 123.496 94.3145 124.036 94.4345C124.496 94.5345 124.931 94.6595 125.341 94.8095C125.761 94.9495 126.101 95.1645 126.361 95.4545C126.631 95.7345 126.766 96.1445 126.766 96.6845C126.776 97.3545 126.521 97.9095 126.001 98.3495C125.491 98.7795 124.796 98.9945 123.916 98.9945ZM132.535 98.8145V88.0145H133.795V92.6495C134.045 92.1895 134.4 91.8345 134.86 91.5845C135.32 91.3245 135.82 91.1945 136.36 91.1945C137.22 91.1945 137.91 91.4645 138.43 92.0045C138.95 92.5345 139.21 93.3545 139.21 94.4645V98.8145H137.965V94.5995C137.965 93.0495 137.34 92.2745 136.09 92.2745C135.44 92.2745 134.895 92.5095 134.455 92.9795C134.015 93.4395 133.795 94.0995 133.795 94.9595V98.8145H132.535ZM143.594 98.9945C142.974 98.9945 142.459 98.8895 142.049 98.6795C141.639 98.4695 141.334 98.1895 141.134 97.8395C140.934 97.4895 140.834 97.1095 140.834 96.6995C140.834 95.9395 141.124 95.3545 141.704 94.9445C142.284 94.5345 143.074 94.3295 144.074 94.3295H146.084V94.2395C146.084 93.5895 145.914 93.0995 145.574 92.7695C145.234 92.4295 144.779 92.2595 144.209 92.2595C143.719 92.2595 143.294 92.3845 142.934 92.6345C142.584 92.8745 142.364 93.2295 142.274 93.6995H140.984C141.034 93.1595 141.214 92.7045 141.524 92.3345C141.844 91.9645 142.239 91.6845 142.709 91.4945C143.179 91.2945 143.679 91.1945 144.209 91.1945C145.249 91.1945 146.029 91.4745 146.549 92.0345C147.079 92.5845 147.344 93.3195 147.344 94.2395V98.8145H146.219L146.144 97.4795C145.934 97.8995 145.624 98.2595 145.214 98.5595C144.814 98.8495 144.274 98.9945 143.594 98.9945ZM143.789 97.9295C144.269 97.9295 144.679 97.8045 145.019 97.5545C145.369 97.3045 145.634 96.9795 145.814 96.5795C145.994 96.1795 146.084 95.7595 146.084 95.3195V95.3045H144.179C143.439 95.3045 142.914 95.4345 142.604 95.6945C142.304 95.9445 142.154 96.2595 142.154 96.6395C142.154 97.0295 142.294 97.3445 142.574 97.5845C142.864 97.8145 143.269 97.9295 143.789 97.9295ZM151.101 98.8145L148.281 91.3745H149.601L151.836 97.5995L154.086 91.3745H155.376L152.556 98.8145H151.101ZM159.743 98.9945C159.033 98.9945 158.403 98.8345 157.853 98.5145C157.303 98.1845 156.868 97.7295 156.548 97.1495C156.238 96.5695 156.083 95.8845 156.083 95.0945C156.083 94.3145 156.238 93.6345 156.548 93.0545C156.858 92.4645 157.288 92.0095 157.838 91.6895C158.398 91.3595 159.043 91.1945 159.773 91.1945C160.493 91.1945 161.113 91.3595 161.633 91.6895C162.163 92.0095 162.568 92.4345 162.848 92.9645C163.128 93.4945 163.268 94.0645 163.268 94.6745C163.268 94.7845 163.263 94.8945 163.253 95.0045C163.253 95.1145 163.253 95.2395 163.253 95.3795H157.328C157.358 95.9495 157.488 96.4245 157.718 96.8045C157.958 97.1745 158.253 97.4545 158.603 97.6445C158.963 97.8345 159.343 97.9295 159.743 97.9295C160.263 97.9295 160.698 97.8095 161.048 97.5695C161.398 97.3295 161.653 97.0045 161.813 96.5945H163.058C162.858 97.2845 162.473 97.8595 161.903 98.3195C161.343 98.7695 160.623 98.9945 159.743 98.9945ZM159.743 92.2595C159.143 92.2595 158.608 92.4445 158.138 92.8145C157.678 93.1745 157.413 93.7045 157.343 94.4045H162.023C161.993 93.7345 161.763 93.2095 161.333 92.8295C160.903 92.4495 160.373 92.2595 159.743 92.2595ZM171.847 98.8145C171.167 98.8145 170.632 98.6495 170.242 98.3195C169.852 97.9895 169.657 97.3945 169.657 96.5345V92.4395H168.367V91.3745H169.657L169.822 89.5895H170.917V91.3745H173.107V92.4395H170.917V96.5345C170.917 97.0045 171.012 97.3245 171.202 97.4945C171.392 97.6545 171.727 97.7345 172.207 97.7345H172.987V98.8145H171.847ZM177.893 98.9945C177.193 98.9945 176.563 98.8345 176.003 98.5145C175.443 98.1945 174.998 97.7445 174.668 97.1645C174.348 96.5745 174.188 95.8845 174.188 95.0945C174.188 94.3045 174.353 93.6195 174.683 93.0395C175.013 92.4495 175.458 91.9945 176.018 91.6745C176.588 91.3545 177.223 91.1945 177.923 91.1945C178.623 91.1945 179.253 91.3545 179.813 91.6745C180.373 91.9945 180.813 92.4495 181.133 93.0395C181.463 93.6195 181.628 94.3045 181.628 95.0945C181.628 95.8845 181.463 96.5745 181.133 97.1645C180.803 97.7445 180.353 98.1945 179.783 98.5145C179.223 98.8345 178.593 98.9945 177.893 98.9945ZM177.893 97.9145C178.323 97.9145 178.723 97.8095 179.093 97.5995C179.463 97.3895 179.763 97.0745 179.993 96.6545C180.223 96.2345 180.338 95.7145 180.338 95.0945C180.338 94.4745 180.223 93.9545 179.993 93.5345C179.773 93.1145 179.478 92.7995 179.108 92.5895C178.738 92.3795 178.343 92.2745 177.923 92.2745C177.493 92.2745 177.093 92.3795 176.723 92.5895C176.353 92.7995 176.053 93.1145 175.823 93.5345C175.593 93.9545 175.478 94.4745 175.478 95.0945C175.478 95.7145 175.593 96.2345 175.823 96.6545C176.053 97.0745 176.348 97.3895 176.708 97.5995C177.078 97.8095 177.473 97.9145 177.893 97.9145ZM46.108 118.994C45.368 118.994 44.718 118.824 44.158 118.484C43.608 118.144 43.178 117.679 42.868 117.089C42.568 116.499 42.418 115.829 42.418 115.079C42.418 114.329 42.573 113.664 42.883 113.084C43.193 112.494 43.623 112.034 44.173 111.704C44.723 111.364 45.373 111.194 46.123 111.194C46.733 111.194 47.273 111.319 47.743 111.569C48.213 111.819 48.578 112.169 48.838 112.619V108.014H50.098V118.814H48.958L48.838 117.584C48.598 117.944 48.253 118.269 47.803 118.559C47.353 118.849 46.788 118.994 46.108 118.994ZM46.243 117.899C46.743 117.899 47.183 117.784 47.563 117.554C47.953 117.314 48.253 116.984 48.463 116.564C48.683 116.144 48.793 115.654 48.793 115.094C48.793 114.534 48.683 114.044 48.463 113.624C48.253 113.204 47.953 112.879 47.563 112.649C47.183 112.409 46.743 112.289 46.243 112.289C45.753 112.289 45.313 112.409 44.923 112.649C44.543 112.879 44.243 113.204 44.023 113.624C43.813 114.044 43.708 114.534 43.708 115.094C43.708 115.654 43.813 116.144 44.023 116.564C44.243 116.984 44.543 117.314 44.923 117.554C45.313 117.784 45.753 117.899 46.243 117.899ZM52.152 118.814V111.374H53.292L53.397 112.799C53.627 112.309 53.977 111.919 54.447 111.629C54.917 111.339 55.497 111.194 56.187 111.194V112.514H55.842C55.402 112.514 54.997 112.594 54.627 112.754C54.257 112.904 53.962 113.164 53.742 113.534C53.522 113.904 53.412 114.414 53.412 115.064V118.814H52.152ZM60.0762 118.994C59.4562 118.994 58.9412 118.889 58.5312 118.679C58.1212 118.469 57.8162 118.189 57.6162 117.839C57.4162 117.489 57.3162 117.109 57.3162 116.699C57.3162 115.939 57.6062 115.354 58.1862 114.944C58.7662 114.534 59.5562 114.329 60.5562 114.329H62.5662V114.239C62.5662 113.589 62.3962 113.099 62.0562 112.769C61.7162 112.429 61.2612 112.259 60.6912 112.259C60.2012 112.259 59.7762 112.384 59.4162 112.634C59.0662 112.874 58.8462 113.229 58.7562 113.699H57.4662C57.5162 113.159 57.6962 112.704 58.0062 112.334C58.3262 111.964 58.7212 111.684 59.1912 111.494C59.6612 111.294 60.1612 111.194 60.6912 111.194C61.7312 111.194 62.5112 111.474 63.0312 112.034C63.5612 112.584 63.8262 113.319 63.8262 114.239V118.814H62.7012L62.6262 117.479C62.4162 117.899 62.1062 118.259 61.6962 118.559C61.2962 118.849 60.7562 118.994 60.0762 118.994ZM60.2712 117.929C60.7512 117.929 61.1612 117.804 61.5012 117.554C61.8512 117.304 62.1162 116.979 62.2962 116.579C62.4762 116.179 62.5662 115.759 62.5662 115.319V115.304H60.6612C59.9212 115.304 59.3962 115.434 59.0862 115.694C58.7862 115.944 58.6362 116.259 58.6362 116.639C58.6362 117.029 58.7762 117.344 59.0562 117.584C59.3462 117.814 59.7512 117.929 60.2712 117.929ZM67.0699 118.814L64.8949 111.374H66.1549L67.7299 117.209L69.4699 111.374H70.8949L72.6499 117.209L74.2099 111.374H75.4849L73.3099 118.814H72.0199L70.1899 112.679L68.3599 118.814H67.0699ZM83.3233 118.994C82.7033 118.994 82.1883 118.889 81.7783 118.679C81.3683 118.469 81.0633 118.189 80.8633 117.839C80.6633 117.489 80.5633 117.109 80.5633 116.699C80.5633 115.939 80.8533 115.354 81.4333 114.944C82.0133 114.534 82.8033 114.329 83.8033 114.329H85.8133V114.239C85.8133 113.589 85.6433 113.099 85.3033 112.769C84.9633 112.429 84.5083 112.259 83.9383 112.259C83.4483 112.259 83.0233 112.384 82.6633 112.634C82.3133 112.874 82.0933 113.229 82.0033 113.699H80.7133C80.7633 113.159 80.9433 112.704 81.2533 112.334C81.5733 111.964 81.9683 111.684 82.4383 111.494C82.9083 111.294 83.4083 111.194 83.9383 111.194C84.9783 111.194 85.7583 111.474 86.2783 112.034C86.8083 112.584 87.0733 113.319 87.0733 114.239V118.814H85.9483L85.8733 117.479C85.6633 117.899 85.3533 118.259 84.9433 118.559C84.5433 118.849 84.0033 118.994 83.3233 118.994ZM83.5183 117.929C83.9983 117.929 84.4083 117.804 84.7483 117.554C85.0983 117.304 85.3633 116.979 85.5433 116.579C85.7233 116.179 85.8133 115.759 85.8133 115.319V115.304H83.9083C83.1683 115.304 82.6433 115.434 82.3333 115.694C82.0333 115.944 81.8833 116.259 81.8833 116.639C81.8833 117.029 82.0233 117.344 82.3033 117.584C82.5933 117.814 82.9983 117.929 83.5183 117.929ZM88.9635 118.814V111.374H90.1035L90.1785 112.709C90.4185 112.239 90.7635 111.869 91.2135 111.599C91.6635 111.329 92.1735 111.194 92.7435 111.194C93.6235 111.194 94.3235 111.464 94.8435 112.004C95.3735 112.534 95.6385 113.354 95.6385 114.464V118.814H94.3785V114.599C94.3785 113.049 93.7385 112.274 92.4585 112.274C91.8185 112.274 91.2835 112.509 90.8535 112.979C90.4335 113.439 90.2235 114.099 90.2235 114.959V118.814H88.9635ZM100.922 118.994C100.182 118.994 99.5325 118.824 98.9725 118.484C98.4225 118.144 97.9925 117.679 97.6825 117.089C97.3825 116.499 97.2325 115.829 97.2325 115.079C97.2325 114.329 97.3875 113.664 97.6975 113.084C98.0075 112.494 98.4375 112.034 98.9875 111.704C99.5375 111.364 100.187 111.194 100.937 111.194C101.547 111.194 102.087 111.319 102.557 111.569C103.027 111.819 103.392 112.169 103.652 112.619V108.014H104.912V118.814H103.772L103.652 117.584C103.412 117.944 103.067 118.269 102.617 118.559C102.167 118.849 101.602 118.994 100.922 118.994ZM101.057 117.899C101.557 117.899 101.997 117.784 102.377 117.554C102.767 117.314 103.067 116.984 103.277 116.564C103.497 116.144 103.607 115.654 103.607 115.094C103.607 114.534 103.497 114.044 103.277 113.624C103.067 113.204 102.767 112.879 102.377 112.649C101.997 112.409 101.557 112.289 101.057 112.289C100.567 112.289 100.127 112.409 99.7375 112.649C99.3575 112.879 99.0575 113.204 98.8375 113.624C98.6275 114.044 98.5225 114.534 98.5225 115.094C98.5225 115.654 98.6275 116.144 98.8375 116.564C99.0575 116.984 99.3575 117.314 99.7375 117.554C100.127 117.784 100.567 117.899 101.057 117.899ZM114.356 118.994C113.646 118.994 113.006 118.834 112.436 118.514C111.876 118.184 111.431 117.729 111.101 117.149C110.781 116.559 110.621 115.874 110.621 115.094C110.621 114.314 110.781 113.634 111.101 113.054C111.431 112.464 111.876 112.009 112.436 111.689C113.006 111.359 113.646 111.194 114.356 111.194C115.236 111.194 115.976 111.424 116.576 111.884C117.186 112.344 117.571 112.959 117.731 113.729H116.441C116.341 113.269 116.096 112.914 115.706 112.664C115.316 112.404 114.861 112.274 114.341 112.274C113.921 112.274 113.526 112.379 113.156 112.589C112.786 112.799 112.486 113.114 112.256 113.534C112.026 113.954 111.911 114.474 111.911 115.094C111.911 115.714 112.026 116.234 112.256 116.654C112.486 117.074 112.786 117.394 113.156 117.614C113.526 117.824 113.921 117.929 114.341 117.929C114.861 117.929 115.316 117.804 115.706 117.554C116.096 117.294 116.341 116.929 116.441 116.459H117.731C117.581 117.209 117.201 117.819 116.591 118.289C115.981 118.759 115.236 118.994 114.356 118.994ZM122.881 118.994C122.181 118.994 121.551 118.834 120.991 118.514C120.431 118.194 119.986 117.744 119.656 117.164C119.336 116.574 119.176 115.884 119.176 115.094C119.176 114.304 119.341 113.619 119.671 113.039C120.001 112.449 120.446 111.994 121.006 111.674C121.576 111.354 122.211 111.194 122.911 111.194C123.611 111.194 124.241 111.354 124.801 111.674C125.361 111.994 125.801 112.449 126.121 113.039C126.451 113.619 126.616 114.304 126.616 115.094C126.616 115.884 126.451 116.574 126.121 117.164C125.791 117.744 125.341 118.194 124.771 118.514C124.211 118.834 123.581 118.994 122.881 118.994ZM122.881 117.914C123.311 117.914 123.711 117.809 124.081 117.599C124.451 117.389 124.751 117.074 124.981 116.654C125.211 116.234 125.326 115.714 125.326 115.094C125.326 114.474 125.211 113.954 124.981 113.534C124.761 113.114 124.466 112.799 124.096 112.589C123.726 112.379 123.331 112.274 122.911 112.274C122.481 112.274 122.081 112.379 121.711 112.589C121.341 112.799 121.041 113.114 120.811 113.534C120.581 113.954 120.466 114.474 120.466 115.094C120.466 115.714 120.581 116.234 120.811 116.654C121.041 117.074 121.336 117.389 121.696 117.599C122.066 117.809 122.461 117.914 122.881 117.914ZM128.368 118.814V111.374H129.508L129.613 112.799C129.843 112.309 130.193 111.919 130.663 111.629C131.133 111.339 131.713 111.194 132.403 111.194V112.514H132.058C131.618 112.514 131.213 112.594 130.843 112.754C130.473 112.904 130.178 113.164 129.958 113.534C129.738 113.904 129.628 114.414 129.628 115.064V118.814H128.368ZM133.817 118.814V111.374H134.957L135.062 112.799C135.292 112.309 135.642 111.919 136.112 111.629C136.582 111.339 137.162 111.194 137.852 111.194V112.514H137.507C137.067 112.514 136.662 112.594 136.292 112.754C135.922 112.904 135.627 113.164 135.407 113.534C135.187 113.904 135.077 114.414 135.077 115.064V118.814H133.817ZM142.333 118.994C141.623 118.994 140.993 118.834 140.443 118.514C139.893 118.184 139.458 117.729 139.138 117.149C138.828 116.569 138.673 115.884 138.673 115.094C138.673 114.314 138.828 113.634 139.138 113.054C139.448 112.464 139.878 112.009 140.428 111.689C140.988 111.359 141.633 111.194 142.363 111.194C143.083 111.194 143.703 111.359 144.223 111.689C144.753 112.009 145.158 112.434 145.438 112.964C145.718 113.494 145.858 114.064 145.858 114.674C145.858 114.784 145.853 114.894 145.843 115.004C145.843 115.114 145.843 115.239 145.843 115.379H139.918C139.948 115.949 140.078 116.424 140.308 116.804C140.548 117.174 140.843 117.454 141.193 117.644C141.553 117.834 141.933 117.929 142.333 117.929C142.853 117.929 143.288 117.809 143.638 117.569C143.988 117.329 144.243 117.004 144.403 116.594H145.648C145.448 117.284 145.063 117.859 144.493 118.319C143.933 118.769 143.213 118.994 142.333 118.994ZM142.333 112.259C141.733 112.259 141.198 112.444 140.728 112.814C140.268 113.174 140.003 113.704 139.933 114.404H144.613C144.583 113.734 144.353 113.209 143.923 112.829C143.493 112.449 142.963 112.259 142.333 112.259ZM150.948 118.994C150.238 118.994 149.598 118.834 149.028 118.514C148.468 118.184 148.023 117.729 147.693 117.149C147.373 116.559 147.213 115.874 147.213 115.094C147.213 114.314 147.373 113.634 147.693 113.054C148.023 112.464 148.468 112.009 149.028 111.689C149.598 111.359 150.238 111.194 150.948 111.194C151.828 111.194 152.568 111.424 153.168 111.884C153.778 112.344 154.163 112.959 154.323 113.729H153.033C152.933 113.269 152.688 112.914 152.298 112.664C151.908 112.404 151.453 112.274 150.933 112.274C150.513 112.274 150.118 112.379 149.748 112.589C149.378 112.799 149.078 113.114 148.848 113.534C148.618 113.954 148.503 114.474 148.503 115.094C148.503 115.714 148.618 116.234 148.848 116.654C149.078 117.074 149.378 117.394 149.748 117.614C150.118 117.824 150.513 117.929 150.933 117.929C151.453 117.929 151.908 117.804 152.298 117.554C152.688 117.294 152.933 116.929 153.033 116.459H154.323C154.173 117.209 153.793 117.819 153.183 118.289C152.573 118.759 151.828 118.994 150.948 118.994ZM158.818 118.814C158.138 118.814 157.603 118.649 157.213 118.319C156.823 117.989 156.628 117.394 156.628 116.534V112.439H155.338V111.374H156.628L156.793 109.589H157.888V111.374H160.078V112.439H157.888V116.534C157.888 117.004 157.983 117.324 158.173 117.494C158.363 117.654 158.698 117.734 159.178 117.734H159.958V118.814H158.818ZM161.678 118.814V108.014H162.938V118.814H161.678ZM165.814 122.114L167.659 118.094H167.224L164.269 111.374H165.634L168.094 117.164L170.704 111.374H172.009L167.134 122.114H165.814ZM32.5846 136.474C32.1646 136.474 31.7796 136.419 31.4296 136.309L30.6796 137.014C30.7896 137.094 30.9246 137.164 31.0846 137.224C31.2546 137.274 31.4946 137.324 31.8046 137.374C32.1146 137.414 32.5496 137.459 33.1096 137.509C34.1096 137.579 34.8246 137.809 35.2546 138.199C35.6847 138.589 35.8997 139.099 35.8997 139.729C35.8997 140.159 35.7797 140.569 35.5396 140.959C35.3096 141.349 34.9496 141.669 34.4596 141.919C33.9796 142.169 33.3596 142.294 32.5996 142.294C31.9296 142.294 31.3346 142.204 30.8146 142.024C30.2946 141.854 29.8896 141.589 29.5996 141.229C29.3096 140.879 29.1646 140.434 29.1646 139.894C29.1646 139.614 29.2396 139.309 29.3896 138.979C29.5396 138.659 29.8196 138.354 30.2296 138.064C30.0096 137.974 29.8196 137.879 29.6596 137.779C29.5096 137.669 29.3696 137.549 29.2396 137.419V137.074L30.5146 135.814C29.9246 135.314 29.6296 134.654 29.6296 133.834C29.6296 133.344 29.7446 132.899 29.9746 132.499C30.2046 132.099 30.5396 131.784 30.9796 131.554C31.4196 131.314 31.9546 131.194 32.5846 131.194C33.0147 131.194 33.4047 131.254 33.7547 131.374H36.4997V132.319L35.1047 132.379C35.3946 132.799 35.5396 133.284 35.5396 133.834C35.5396 134.324 35.4196 134.769 35.1797 135.169C34.9496 135.569 34.6146 135.889 34.1746 136.129C33.7446 136.359 33.2146 136.474 32.5846 136.474ZM32.5846 135.439C33.1146 135.439 33.5346 135.304 33.8446 135.034C34.1646 134.754 34.3246 134.354 34.3246 133.834C34.3246 133.324 34.1646 132.934 33.8446 132.664C33.5346 132.384 33.1146 132.244 32.5846 132.244C32.0446 132.244 31.6146 132.384 31.2946 132.664C30.9846 132.934 30.8296 133.324 30.8296 133.834C30.8296 134.354 30.9846 134.754 31.2946 135.034C31.6146 135.304 32.0446 135.439 32.5846 135.439ZM30.3946 139.774C30.3946 140.274 30.6046 140.644 31.0246 140.884C31.4446 141.134 31.9696 141.259 32.5996 141.259C33.2196 141.259 33.7146 141.124 34.0846 140.854C34.4646 140.584 34.6547 140.224 34.6547 139.774C34.6547 139.454 34.5246 139.174 34.2646 138.934C34.0046 138.704 33.5246 138.569 32.8246 138.529C32.2746 138.489 31.7996 138.439 31.3996 138.379C30.9896 138.599 30.7196 138.834 30.5896 139.084C30.4596 139.344 30.3946 139.574 30.3946 139.774ZM40.636 138.994C39.756 138.994 39.056 138.729 38.536 138.199C38.016 137.659 37.756 136.834 37.756 135.724V131.374H39.016V135.589C39.016 137.139 39.651 137.914 40.921 137.914C41.571 137.914 42.106 137.684 42.526 137.224C42.956 136.754 43.171 136.089 43.171 135.229V131.374H44.431V138.814H43.291L43.201 137.479C42.971 137.949 42.626 138.319 42.166 138.589C41.716 138.859 41.206 138.994 40.636 138.994ZM49.85 138.994C49.14 138.994 48.51 138.834 47.96 138.514C47.41 138.184 46.975 137.729 46.655 137.149C46.345 136.569 46.19 135.884 46.19 135.094C46.19 134.314 46.345 133.634 46.655 133.054C46.965 132.464 47.395 132.009 47.945 131.689C48.505 131.359 49.15 131.194 49.88 131.194C50.6 131.194 51.22 131.359 51.74 131.689C52.27 132.009 52.675 132.434 52.955 132.964C53.235 133.494 53.375 134.064 53.375 134.674C53.375 134.784 53.37 134.894 53.36 135.004C53.36 135.114 53.36 135.239 53.36 135.379H47.435C47.465 135.949 47.595 136.424 47.825 136.804C48.065 137.174 48.36 137.454 48.71 137.644C49.07 137.834 49.45 137.929 49.85 137.929C50.37 137.929 50.805 137.809 51.155 137.569C51.505 137.329 51.76 137.004 51.92 136.594H53.165C52.965 137.284 52.58 137.859 52.01 138.319C51.45 138.769 50.73 138.994 49.85 138.994ZM49.85 132.259C49.25 132.259 48.715 132.444 48.245 132.814C47.785 133.174 47.52 133.704 47.45 134.404H52.13C52.1 133.734 51.87 133.209 51.44 132.829C51.01 132.449 50.48 132.259 49.85 132.259ZM57.895 138.994C57.005 138.994 56.265 138.769 55.675 138.319C55.085 137.869 54.74 137.259 54.64 136.489H55.93C56.01 136.879 56.215 137.219 56.545 137.509C56.885 137.789 57.34 137.929 57.91 137.929C58.44 137.929 58.83 137.819 59.08 137.599C59.33 137.369 59.455 137.099 59.455 136.789C59.455 136.339 59.29 136.039 58.96 135.889C58.64 135.739 58.185 135.604 57.595 135.484C57.195 135.404 56.795 135.289 56.395 135.139C55.995 134.989 55.66 134.779 55.39 134.509C55.12 134.229 54.985 133.864 54.985 133.414C54.985 132.764 55.225 132.234 55.705 131.824C56.195 131.404 56.855 131.194 57.685 131.194C58.475 131.194 59.12 131.394 59.62 131.794C60.13 132.184 60.425 132.744 60.505 133.474H59.26C59.21 133.094 59.045 132.799 58.765 132.589C58.495 132.369 58.13 132.259 57.67 132.259C57.22 132.259 56.87 132.354 56.62 132.544C56.38 132.734 56.26 132.984 56.26 133.294C56.26 133.594 56.415 133.829 56.725 133.999C57.045 134.169 57.475 134.314 58.015 134.434C58.475 134.534 58.91 134.659 59.32 134.809C59.74 134.949 60.08 135.164 60.34 135.454C60.61 135.734 60.745 136.144 60.745 136.684C60.755 137.354 60.5 137.909 59.98 138.349C59.47 138.779 58.775 138.994 57.895 138.994ZM65.395 138.994C64.505 138.994 63.765 138.769 63.175 138.319C62.585 137.869 62.24 137.259 62.14 136.489H63.43C63.51 136.879 63.715 137.219 64.045 137.509C64.385 137.789 64.84 137.929 65.41 137.929C65.94 137.929 66.33 137.819 66.58 137.599C66.83 137.369 66.955 137.099 66.955 136.789C66.955 136.339 66.79 136.039 66.46 135.889C66.14 135.739 65.685 135.604 65.095 135.484C64.695 135.404 64.295 135.289 63.895 135.139C63.495 134.989 63.16 134.779 62.89 134.509C62.62 134.229 62.485 133.864 62.485 133.414C62.485 132.764 62.725 132.234 63.205 131.824C63.695 131.404 64.355 131.194 65.185 131.194C65.975 131.194 66.62 131.394 67.12 131.794C67.63 132.184 67.925 132.744 68.005 133.474H66.76C66.71 133.094 66.545 132.799 66.265 132.589C65.995 132.369 65.63 132.259 65.17 132.259C64.72 132.259 64.37 132.354 64.12 132.544C63.88 132.734 63.76 132.984 63.76 133.294C63.76 133.594 63.915 133.829 64.225 133.999C64.545 134.169 64.975 134.314 65.515 134.434C65.975 134.534 66.41 134.659 66.82 134.809C67.24 134.949 67.58 135.164 67.84 135.454C68.11 135.734 68.245 136.144 68.245 136.684C68.255 137.354 68 137.909 67.48 138.349C66.97 138.779 66.275 138.994 65.395 138.994ZM76.4898 138.994C75.8698 138.994 75.3548 138.889 74.9448 138.679C74.5348 138.469 74.2298 138.189 74.0298 137.839C73.8298 137.489 73.7298 137.109 73.7298 136.699C73.7298 135.939 74.0198 135.354 74.5998 134.944C75.1798 134.534 75.9698 134.329 76.9698 134.329H78.9798V134.239C78.9798 133.589 78.8098 133.099 78.4698 132.769C78.1298 132.429 77.6748 132.259 77.1048 132.259C76.6148 132.259 76.1898 132.384 75.8298 132.634C75.4798 132.874 75.2598 133.229 75.1698 133.699H73.8798C73.9298 133.159 74.1098 132.704 74.4198 132.334C74.7398 131.964 75.1348 131.684 75.6048 131.494C76.0748 131.294 76.5748 131.194 77.1048 131.194C78.1448 131.194 78.9248 131.474 79.4448 132.034C79.9748 132.584 80.2398 133.319 80.2398 134.239V138.814H79.1148L79.0398 137.479C78.8298 137.899 78.5198 138.259 78.1098 138.559C77.7098 138.849 77.1698 138.994 76.4898 138.994ZM76.6848 137.929C77.1648 137.929 77.5748 137.804 77.9148 137.554C78.2648 137.304 78.5298 136.979 78.7098 136.579C78.8898 136.179 78.9798 135.759 78.9798 135.319V135.304H77.0748C76.3348 135.304 75.8098 135.434 75.4998 135.694C75.1998 135.944 75.0498 136.259 75.0498 136.639C75.0498 137.029 75.1898 137.344 75.4698 137.584C75.7598 137.814 76.1648 137.929 76.6848 137.929ZM82.13 138.814V131.374H83.27L83.345 132.709C83.585 132.239 83.93 131.869 84.38 131.599C84.83 131.329 85.34 131.194 85.91 131.194C86.79 131.194 87.49 131.464 88.01 132.004C88.54 132.534 88.805 133.354 88.805 134.464V138.814H87.545V134.599C87.545 133.049 86.905 132.274 85.625 132.274C84.985 132.274 84.45 132.509 84.02 132.979C83.6 133.439 83.39 134.099 83.39 134.959V138.814H82.13ZM98.0737 138.994C97.3737 138.994 96.7437 138.834 96.1837 138.514C95.6237 138.194 95.1787 137.744 94.8487 137.164C94.5287 136.574 94.3687 135.884 94.3687 135.094C94.3687 134.304 94.5337 133.619 94.8637 133.039C95.1937 132.449 95.6387 131.994 96.1987 131.674C96.7687 131.354 97.4037 131.194 98.1037 131.194C98.8037 131.194 99.4337 131.354 99.9937 131.674C100.554 131.994 100.994 132.449 101.314 133.039C101.644 133.619 101.809 134.304 101.809 135.094C101.809 135.884 101.644 136.574 101.314 137.164C100.984 137.744 100.534 138.194 99.9637 138.514C99.4037 138.834 98.7737 138.994 98.0737 138.994ZM98.0737 137.914C98.5037 137.914 98.9037 137.809 99.2737 137.599C99.6437 137.389 99.9437 137.074 100.174 136.654C100.404 136.234 100.519 135.714 100.519 135.094C100.519 134.474 100.404 133.954 100.174 133.534C99.9537 133.114 99.6587 132.799 99.2887 132.589C98.9187 132.379 98.5237 132.274 98.1037 132.274C97.6737 132.274 97.2737 132.379 96.9037 132.589C96.5337 132.799 96.2337 133.114 96.0037 133.534C95.7737 133.954 95.6587 134.474 95.6587 135.094C95.6587 135.714 95.7737 136.234 96.0037 136.654C96.2337 137.074 96.5287 137.389 96.8887 137.599C97.2587 137.809 97.6537 137.914 98.0737 137.914ZM107.536 138.994C106.926 138.994 106.381 138.869 105.901 138.619C105.431 138.369 105.071 138.019 104.821 137.569L104.701 138.814H103.561V128.014H104.821V132.604C105.061 132.244 105.401 131.919 105.841 131.629C106.291 131.339 106.861 131.194 107.551 131.194C108.291 131.194 108.936 131.364 109.486 131.704C110.036 132.044 110.461 132.509 110.761 133.099C111.071 133.689 111.226 134.359 111.226 135.109C111.226 135.859 111.071 136.529 110.761 137.119C110.461 137.699 110.031 138.159 109.471 138.499C108.921 138.829 108.276 138.994 107.536 138.994ZM107.401 137.899C107.901 137.899 108.341 137.784 108.721 137.554C109.101 137.314 109.401 136.984 109.621 136.564C109.841 136.144 109.951 135.654 109.951 135.094C109.951 134.534 109.841 134.044 109.621 133.624C109.401 133.204 109.101 132.879 108.721 132.649C108.341 132.409 107.901 132.289 107.401 132.289C106.901 132.289 106.461 132.409 106.081 132.649C105.701 132.879 105.401 133.204 105.181 133.624C104.961 134.044 104.851 134.534 104.851 135.094C104.851 135.654 104.961 136.144 105.181 136.564C105.401 136.984 105.701 137.314 106.081 137.554C106.461 137.784 106.901 137.899 107.401 137.899ZM113.805 129.724C113.565 129.724 113.36 129.644 113.19 129.484C113.02 129.314 112.935 129.104 112.935 128.854C112.935 128.614 113.02 128.414 113.19 128.254C113.36 128.094 113.565 128.014 113.805 128.014C114.045 128.014 114.245 128.094 114.405 128.254C114.575 128.414 114.66 128.614 114.66 128.854C114.66 129.104 114.575 129.314 114.405 129.484C114.245 129.644 114.045 129.724 113.805 129.724ZM111.525 142.114V141.034H112.11C112.48 141.034 112.745 140.954 112.905 140.794C113.075 140.644 113.16 140.384 113.16 140.014V131.374H114.42V140.044C114.42 140.764 114.24 141.289 113.88 141.619C113.52 141.949 112.995 142.114 112.305 142.114H111.525ZM119.957 138.994C119.247 138.994 118.617 138.834 118.067 138.514C117.517 138.184 117.082 137.729 116.762 137.149C116.452 136.569 116.297 135.884 116.297 135.094C116.297 134.314 116.452 133.634 116.762 133.054C117.072 132.464 117.502 132.009 118.052 131.689C118.612 131.359 119.257 131.194 119.987 131.194C120.707 131.194 121.327 131.359 121.847 131.689C122.377 132.009 122.782 132.434 123.062 132.964C123.342 133.494 123.482 134.064 123.482 134.674C123.482 134.784 123.477 134.894 123.467 135.004C123.467 135.114 123.467 135.239 123.467 135.379H117.542C117.572 135.949 117.702 136.424 117.932 136.804C118.172 137.174 118.467 137.454 118.817 137.644C119.177 137.834 119.557 137.929 119.957 137.929C120.477 137.929 120.912 137.809 121.262 137.569C121.612 137.329 121.867 137.004 122.027 136.594H123.272C123.072 137.284 122.687 137.859 122.117 138.319C121.557 138.769 120.837 138.994 119.957 138.994ZM119.957 132.259C119.357 132.259 118.822 132.444 118.352 132.814C117.892 133.174 117.627 133.704 117.557 134.404H122.237C122.207 133.734 121.977 133.209 121.547 132.829C121.117 132.449 120.587 132.259 119.957 132.259ZM128.572 138.994C127.862 138.994 127.222 138.834 126.652 138.514C126.092 138.184 125.647 137.729 125.317 137.149C124.997 136.559 124.837 135.874 124.837 135.094C124.837 134.314 124.997 133.634 125.317 133.054C125.647 132.464 126.092 132.009 126.652 131.689C127.222 131.359 127.862 131.194 128.572 131.194C129.452 131.194 130.192 131.424 130.792 131.884C131.402 132.344 131.787 132.959 131.947 133.729H130.657C130.557 133.269 130.312 132.914 129.922 132.664C129.532 132.404 129.077 132.274 128.557 132.274C128.137 132.274 127.742 132.379 127.372 132.589C127.002 132.799 126.702 133.114 126.472 133.534C126.242 133.954 126.127 134.474 126.127 135.094C126.127 135.714 126.242 136.234 126.472 136.654C126.702 137.074 127.002 137.394 127.372 137.614C127.742 137.824 128.137 137.929 128.557 137.929C129.077 137.929 129.532 137.804 129.922 137.554C130.312 137.294 130.557 136.929 130.657 136.459H131.947C131.797 137.209 131.417 137.819 130.807 138.289C130.197 138.759 129.452 138.994 128.572 138.994ZM136.442 138.814C135.762 138.814 135.227 138.649 134.837 138.319C134.447 137.989 134.252 137.394 134.252 136.534V132.439H132.962V131.374H134.252L134.417 129.589H135.512V131.374H137.702V132.439H135.512V136.534C135.512 137.004 135.607 137.324 135.797 137.494C135.987 137.654 136.322 137.734 136.802 137.734H137.582V138.814H136.442ZM146.213 138.814C145.533 138.814 144.998 138.649 144.608 138.319C144.218 137.989 144.023 137.394 144.023 136.534V132.439H142.733V131.374H144.023L144.188 129.589H145.283V131.374H147.473V132.439H145.283V136.534C145.283 137.004 145.378 137.324 145.568 137.494C145.758 137.654 146.093 137.734 146.573 137.734H147.353V138.814H146.213ZM149.073 138.814V128.014H150.333V132.649C150.583 132.189 150.938 131.834 151.398 131.584C151.858 131.324 152.358 131.194 152.898 131.194C153.758 131.194 154.448 131.464 154.968 132.004C155.488 132.534 155.748 133.354 155.748 134.464V138.814H154.503V134.599C154.503 133.049 153.878 132.274 152.628 132.274C151.978 132.274 151.433 132.509 150.993 132.979C150.553 133.439 150.333 134.099 150.333 134.959V138.814H149.073ZM160.132 138.994C159.512 138.994 158.997 138.889 158.587 138.679C158.177 138.469 157.872 138.189 157.672 137.839C157.472 137.489 157.372 137.109 157.372 136.699C157.372 135.939 157.662 135.354 158.242 134.944C158.822 134.534 159.612 134.329 160.612 134.329H162.622V134.239C162.622 133.589 162.452 133.099 162.112 132.769C161.772 132.429 161.317 132.259 160.747 132.259C160.257 132.259 159.832 132.384 159.472 132.634C159.122 132.874 158.902 133.229 158.812 133.699H157.522C157.572 133.159 157.752 132.704 158.062 132.334C158.382 131.964 158.777 131.684 159.247 131.494C159.717 131.294 160.217 131.194 160.747 131.194C161.787 131.194 162.567 131.474 163.087 132.034C163.617 132.584 163.882 133.319 163.882 134.239V138.814H162.757L162.682 137.479C162.472 137.899 162.162 138.259 161.752 138.559C161.352 138.849 160.812 138.994 160.132 138.994ZM160.327 137.929C160.807 137.929 161.217 137.804 161.557 137.554C161.907 137.304 162.172 136.979 162.352 136.579C162.532 136.179 162.622 135.759 162.622 135.319V135.304H160.717C159.977 135.304 159.452 135.434 159.142 135.694C158.842 135.944 158.692 136.259 158.692 136.639C158.692 137.029 158.832 137.344 159.112 137.584C159.402 137.814 159.807 137.929 160.327 137.929ZM168.508 138.814C167.828 138.814 167.293 138.649 166.903 138.319C166.513 137.989 166.318 137.394 166.318 136.534V132.439H165.028V131.374H166.318L166.483 129.589H167.578V131.374H169.768V132.439H167.578V136.534C167.578 137.004 167.673 137.324 167.863 137.494C168.053 137.654 168.388 137.734 168.868 137.734H169.648V138.814H168.508ZM176.103 129.724C175.853 129.724 175.643 129.644 175.473 129.484C175.313 129.314 175.233 129.104 175.233 128.854C175.233 128.614 175.313 128.414 175.473 128.254C175.643 128.094 175.853 128.014 176.103 128.014C176.343 128.014 176.548 128.094 176.718 128.254C176.888 128.414 176.973 128.614 176.973 128.854C176.973 129.104 176.888 129.314 176.718 129.484C176.548 129.644 176.343 129.724 176.103 129.724ZM175.473 138.814V131.374H176.733V138.814H175.473ZM181.777 138.994C180.887 138.994 180.147 138.769 179.557 138.319C178.967 137.869 178.622 137.259 178.522 136.489H179.812C179.892 136.879 180.097 137.219 180.427 137.509C180.767 137.789 181.222 137.929 181.792 137.929C182.322 137.929 182.712 137.819 182.962 137.599C183.212 137.369 183.337 137.099 183.337 136.789C183.337 136.339 183.172 136.039 182.842 135.889C182.522 135.739 182.067 135.604 181.477 135.484C181.077 135.404 180.677 135.289 180.277 135.139C179.877 134.989 179.542 134.779 179.272 134.509C179.002 134.229 178.867 133.864 178.867 133.414C178.867 132.764 179.107 132.234 179.587 131.824C180.077 131.404 180.737 131.194 181.567 131.194C182.357 131.194 183.002 131.394 183.502 131.794C184.012 132.184 184.307 132.744 184.387 133.474H183.142C183.092 133.094 182.927 132.799 182.647 132.589C182.377 132.369 182.012 132.259 181.552 132.259C181.102 132.259 180.752 132.354 180.502 132.544C180.262 132.734 180.142 132.984 180.142 133.294C180.142 133.594 180.297 133.829 180.607 133.999C180.927 134.169 181.357 134.314 181.897 134.434C182.357 134.534 182.792 134.659 183.202 134.809C183.622 134.949 183.962 135.164 184.222 135.454C184.492 135.734 184.627 136.144 184.627 136.684C184.637 137.354 184.382 137.909 183.862 138.349C183.352 138.779 182.657 138.994 181.777 138.994ZM46.3858 158.994C45.7758 158.994 45.2308 158.869 44.7508 158.619C44.2808 158.369 43.9208 158.019 43.6708 157.569L43.5508 158.814H42.4108V148.014H43.6708V152.604C43.9108 152.244 44.2508 151.919 44.6908 151.629C45.1408 151.339 45.7108 151.194 46.4008 151.194C47.1408 151.194 47.7858 151.364 48.3358 151.704C48.8858 152.044 49.3108 152.509 49.6108 153.099C49.9208 153.689 50.0758 154.359 50.0758 155.109C50.0758 155.859 49.9208 156.529 49.6108 157.119C49.3108 157.699 48.8808 158.159 48.3208 158.499C47.7708 158.829 47.1258 158.994 46.3858 158.994ZM46.2508 157.899C46.7508 157.899 47.1908 157.784 47.5708 157.554C47.9508 157.314 48.2508 156.984 48.4708 156.564C48.6908 156.144 48.8008 155.654 48.8008 155.094C48.8008 154.534 48.6908 154.044 48.4708 153.624C48.2508 153.204 47.9508 152.879 47.5708 152.649C47.1908 152.409 46.7508 152.289 46.2508 152.289C45.7508 152.289 45.3108 152.409 44.9308 152.649C44.5508 152.879 44.2508 153.204 44.0308 153.624C43.8108 154.044 43.7008 154.534 43.7008 155.094C43.7008 155.654 43.8108 156.144 44.0308 156.564C44.2508 156.984 44.5508 157.314 44.9308 157.554C45.3108 157.784 45.7508 157.899 46.2508 157.899ZM55.1747 158.994C54.4647 158.994 53.8347 158.834 53.2847 158.514C52.7347 158.184 52.2997 157.729 51.9797 157.149C51.6697 156.569 51.5147 155.884 51.5147 155.094C51.5147 154.314 51.6697 153.634 51.9797 153.054C52.2897 152.464 52.7197 152.009 53.2697 151.689C53.8297 151.359 54.4747 151.194 55.2047 151.194C55.9247 151.194 56.5447 151.359 57.0647 151.689C57.5947 152.009 57.9997 152.434 58.2797 152.964C58.5597 153.494 58.6997 154.064 58.6997 154.674C58.6997 154.784 58.6947 154.894 58.6847 155.004C58.6847 155.114 58.6847 155.239 58.6847 155.379H52.7597C52.7897 155.949 52.9197 156.424 53.1497 156.804C53.3897 157.174 53.6847 157.454 54.0347 157.644C54.3947 157.834 54.7747 157.929 55.1747 157.929C55.6947 157.929 56.1297 157.809 56.4797 157.569C56.8297 157.329 57.0847 157.004 57.2447 156.594H58.4897C58.2897 157.284 57.9047 157.859 57.3347 158.319C56.7747 158.769 56.0547 158.994 55.1747 158.994ZM55.1747 152.259C54.5747 152.259 54.0397 152.444 53.5697 152.814C53.1097 153.174 52.8447 153.704 52.7747 154.404H57.4547C57.4247 153.734 57.1947 153.209 56.7647 152.829C56.3347 152.449 55.8047 152.259 55.1747 152.259ZM61.1347 149.724C60.8847 149.724 60.6747 149.644 60.5047 149.484C60.3447 149.314 60.2647 149.104 60.2647 148.854C60.2647 148.614 60.3447 148.414 60.5047 148.254C60.6747 148.094 60.8847 148.014 61.1347 148.014C61.3747 148.014 61.5797 148.094 61.7497 148.254C61.9197 148.414 62.0047 148.614 62.0047 148.854C62.0047 149.104 61.9197 149.314 61.7497 149.484C61.5797 149.644 61.3747 149.724 61.1347 149.724ZM60.5047 158.814V151.374H61.7647V158.814H60.5047ZM63.9586 158.814V151.374H65.0986L65.1736 152.709C65.4136 152.239 65.7586 151.869 66.2086 151.599C66.6586 151.329 67.1686 151.194 67.7386 151.194C68.6186 151.194 69.3186 151.464 69.8386 152.004C70.3686 152.534 70.6336 153.354 70.6336 154.464V158.814H69.3736V154.599C69.3736 153.049 68.7336 152.274 67.4536 152.274C66.8136 152.274 66.2786 152.509 65.8486 152.979C65.4286 153.439 65.2186 154.099 65.2186 154.959V158.814H63.9586ZM75.4826 156.474C75.0626 156.474 74.6776 156.419 74.3276 156.309L73.5776 157.014C73.6876 157.094 73.8226 157.164 73.9826 157.224C74.1526 157.274 74.3926 157.324 74.7026 157.374C75.0126 157.414 75.4476 157.459 76.0076 157.509C77.0076 157.579 77.7226 157.809 78.1526 158.199C78.5826 158.589 78.7976 159.099 78.7976 159.729C78.7976 160.159 78.6776 160.569 78.4376 160.959C78.2076 161.349 77.8476 161.669 77.3576 161.919C76.8776 162.169 76.2576 162.294 75.4976 162.294C74.8276 162.294 74.2326 162.204 73.7126 162.024C73.1926 161.854 72.7876 161.589 72.4976 161.229C72.2076 160.879 72.0626 160.434 72.0626 159.894C72.0626 159.614 72.1376 159.309 72.2876 158.979C72.4376 158.659 72.7176 158.354 73.1276 158.064C72.9076 157.974 72.7176 157.879 72.5576 157.779C72.4076 157.669 72.2676 157.549 72.1376 157.419V157.074L73.4126 155.814C72.8226 155.314 72.5276 154.654 72.5276 153.834C72.5276 153.344 72.6426 152.899 72.8726 152.499C73.1026 152.099 73.4376 151.784 73.8776 151.554C74.3176 151.314 74.8526 151.194 75.4826 151.194C75.9126 151.194 76.3026 151.254 76.6526 151.374H79.3976V152.319L78.0026 152.379C78.2926 152.799 78.4376 153.284 78.4376 153.834C78.4376 154.324 78.3176 154.769 78.0776 155.169C77.8476 155.569 77.5126 155.889 77.0726 156.129C76.6426 156.359 76.1126 156.474 75.4826 156.474ZM75.4826 155.439C76.0126 155.439 76.4326 155.304 76.7426 155.034C77.0626 154.754 77.2226 154.354 77.2226 153.834C77.2226 153.324 77.0626 152.934 76.7426 152.664C76.4326 152.384 76.0126 152.244 75.4826 152.244C74.9426 152.244 74.5126 152.384 74.1926 152.664C73.8826 152.934 73.7276 153.324 73.7276 153.834C73.7276 154.354 73.8826 154.754 74.1926 155.034C74.5126 155.304 74.9426 155.439 75.4826 155.439ZM73.2926 159.774C73.2926 160.274 73.5026 160.644 73.9226 160.884C74.3426 161.134 74.8676 161.259 75.4976 161.259C76.1176 161.259 76.6126 161.124 76.9826 160.854C77.3626 160.584 77.5526 160.224 77.5526 159.774C77.5526 159.454 77.4226 159.174 77.1626 158.934C76.9026 158.704 76.4226 158.569 75.7226 158.529C75.1726 158.489 74.6976 158.439 74.2976 158.379C73.8876 158.599 73.6176 158.834 73.4876 159.084C73.3576 159.344 73.2926 159.574 73.2926 159.774ZM88.1637 158.994C87.4237 158.994 86.7737 158.824 86.2137 158.484C85.6637 158.144 85.2337 157.679 84.9237 157.089C84.6237 156.499 84.4737 155.829 84.4737 155.079C84.4737 154.329 84.6287 153.664 84.9387 153.084C85.2487 152.494 85.6787 152.034 86.2287 151.704C86.7787 151.364 87.4287 151.194 88.1787 151.194C88.7887 151.194 89.3287 151.319 89.7987 151.569C90.2687 151.819 90.6337 152.169 90.8937 152.619V148.014H92.1537V158.814H91.0137L90.8937 157.584C90.6537 157.944 90.3087 158.269 89.8587 158.559C89.4087 158.849 88.8437 158.994 88.1637 158.994ZM88.2987 157.899C88.7987 157.899 89.2387 157.784 89.6187 157.554C90.0087 157.314 90.3087 156.984 90.5187 156.564C90.7387 156.144 90.8487 155.654 90.8487 155.094C90.8487 154.534 90.7387 154.044 90.5187 153.624C90.3087 153.204 90.0087 152.879 89.6187 152.649C89.2387 152.409 88.7987 152.289 88.2987 152.289C87.8087 152.289 87.3687 152.409 86.9787 152.649C86.5987 152.879 86.2987 153.204 86.0787 153.624C85.8687 154.044 85.7637 154.534 85.7637 155.094C85.7637 155.654 85.8687 156.144 86.0787 156.564C86.2987 156.984 86.5987 157.314 86.9787 157.554C87.3687 157.784 87.8087 157.899 88.2987 157.899ZM97.5526 158.994C96.8426 158.994 96.2126 158.834 95.6626 158.514C95.1126 158.184 94.6776 157.729 94.3576 157.149C94.0476 156.569 93.8926 155.884 93.8926 155.094C93.8926 154.314 94.0476 153.634 94.3576 153.054C94.6676 152.464 95.0976 152.009 95.6476 151.689C96.2076 151.359 96.8526 151.194 97.5826 151.194C98.3026 151.194 98.9226 151.359 99.4426 151.689C99.9726 152.009 100.378 152.434 100.658 152.964C100.938 153.494 101.078 154.064 101.078 154.674C101.078 154.784 101.073 154.894 101.063 155.004C101.063 155.114 101.063 155.239 101.063 155.379H95.1376C95.1676 155.949 95.2976 156.424 95.5276 156.804C95.7676 157.174 96.0626 157.454 96.4126 157.644C96.7726 157.834 97.1526 157.929 97.5526 157.929C98.0726 157.929 98.5076 157.809 98.8576 157.569C99.2076 157.329 99.4626 157.004 99.6226 156.594H100.868C100.668 157.284 100.283 157.859 99.7126 158.319C99.1526 158.769 98.4326 158.994 97.5526 158.994ZM97.5526 152.259C96.9526 152.259 96.4176 152.444 95.9476 152.814C95.4876 153.174 95.2226 153.704 95.1526 154.404H99.8326C99.8026 153.734 99.5726 153.209 99.1426 152.829C98.7126 152.449 98.1826 152.259 97.5526 152.259ZM105.598 158.994C104.708 158.994 103.968 158.769 103.378 158.319C102.788 157.869 102.443 157.259 102.343 156.489H103.633C103.713 156.879 103.918 157.219 104.248 157.509C104.588 157.789 105.043 157.929 105.613 157.929C106.143 157.929 106.533 157.819 106.783 157.599C107.033 157.369 107.158 157.099 107.158 156.789C107.158 156.339 106.993 156.039 106.663 155.889C106.343 155.739 105.888 155.604 105.298 155.484C104.898 155.404 104.498 155.289 104.098 155.139C103.698 154.989 103.363 154.779 103.093 154.509C102.823 154.229 102.688 153.864 102.688 153.414C102.688 152.764 102.928 152.234 103.408 151.824C103.898 151.404 104.558 151.194 105.388 151.194C106.178 151.194 106.823 151.394 107.323 151.794C107.833 152.184 108.128 152.744 108.208 153.474H106.963C106.913 153.094 106.748 152.799 106.468 152.589C106.198 152.369 105.833 152.259 105.373 152.259C104.923 152.259 104.573 152.354 104.323 152.544C104.083 152.734 103.963 152.984 103.963 153.294C103.963 153.594 104.118 153.829 104.428 153.999C104.748 154.169 105.178 154.314 105.718 154.434C106.178 154.534 106.613 154.659 107.023 154.809C107.443 154.949 107.783 155.164 108.043 155.454C108.313 155.734 108.448 156.144 108.448 156.684C108.458 157.354 108.203 157.909 107.683 158.349C107.173 158.779 106.478 158.994 105.598 158.994ZM113.668 158.994C112.958 158.994 112.318 158.834 111.748 158.514C111.188 158.184 110.743 157.729 110.413 157.149C110.093 156.559 109.933 155.874 109.933 155.094C109.933 154.314 110.093 153.634 110.413 153.054C110.743 152.464 111.188 152.009 111.748 151.689C112.318 151.359 112.958 151.194 113.668 151.194C114.548 151.194 115.288 151.424 115.888 151.884C116.498 152.344 116.883 152.959 117.043 153.729H115.753C115.653 153.269 115.408 152.914 115.018 152.664C114.628 152.404 114.173 152.274 113.653 152.274C113.233 152.274 112.838 152.379 112.468 152.589C112.098 152.799 111.798 153.114 111.568 153.534C111.338 153.954 111.223 154.474 111.223 155.094C111.223 155.714 111.338 156.234 111.568 156.654C111.798 157.074 112.098 157.394 112.468 157.614C112.838 157.824 113.233 157.929 113.653 157.929C114.173 157.929 114.628 157.804 115.018 157.554C115.408 157.294 115.653 156.929 115.753 156.459H117.043C116.893 157.209 116.513 157.819 115.903 158.289C115.293 158.759 114.548 158.994 113.668 158.994ZM118.802 158.814V151.374H119.942L120.047 152.799C120.277 152.309 120.627 151.919 121.097 151.629C121.567 151.339 122.147 151.194 122.837 151.194V152.514H122.492C122.052 152.514 121.647 152.594 121.277 152.754C120.907 152.904 120.612 153.164 120.392 153.534C120.172 153.904 120.062 154.414 120.062 155.064V158.814H118.802ZM125.017 149.724C124.767 149.724 124.557 149.644 124.387 149.484C124.227 149.314 124.147 149.104 124.147 148.854C124.147 148.614 124.227 148.414 124.387 148.254C124.557 148.094 124.767 148.014 125.017 148.014C125.257 148.014 125.462 148.094 125.632 148.254C125.802 148.414 125.887 148.614 125.887 148.854C125.887 149.104 125.802 149.314 125.632 149.484C125.462 149.644 125.257 149.724 125.017 149.724ZM124.387 158.814V151.374H125.647V158.814H124.387ZM131.815 158.994C131.205 158.994 130.66 158.869 130.18 158.619C129.71 158.369 129.35 158.019 129.1 157.569L128.98 158.814H127.84V148.014H129.1V152.604C129.34 152.244 129.68 151.919 130.12 151.629C130.57 151.339 131.14 151.194 131.83 151.194C132.57 151.194 133.215 151.364 133.765 151.704C134.315 152.044 134.74 152.509 135.04 153.099C135.35 153.689 135.505 154.359 135.505 155.109C135.505 155.859 135.35 156.529 135.04 157.119C134.74 157.699 134.31 158.159 133.75 158.499C133.2 158.829 132.555 158.994 131.815 158.994ZM131.68 157.899C132.18 157.899 132.62 157.784 133 157.554C133.38 157.314 133.68 156.984 133.9 156.564C134.12 156.144 134.23 155.654 134.23 155.094C134.23 154.534 134.12 154.044 133.9 153.624C133.68 153.204 133.38 152.879 133 152.649C132.62 152.409 132.18 152.289 131.68 152.289C131.18 152.289 130.74 152.409 130.36 152.649C129.98 152.879 129.68 153.204 129.46 153.624C129.24 154.044 129.13 154.534 129.13 155.094C129.13 155.654 129.24 156.144 129.46 156.564C129.68 156.984 129.98 157.314 130.36 157.554C130.74 157.784 131.18 157.899 131.68 157.899ZM140.604 158.994C139.894 158.994 139.264 158.834 138.714 158.514C138.164 158.184 137.729 157.729 137.409 157.149C137.099 156.569 136.944 155.884 136.944 155.094C136.944 154.314 137.099 153.634 137.409 153.054C137.719 152.464 138.149 152.009 138.699 151.689C139.259 151.359 139.904 151.194 140.634 151.194C141.354 151.194 141.974 151.359 142.494 151.689C143.024 152.009 143.429 152.434 143.709 152.964C143.989 153.494 144.129 154.064 144.129 154.674C144.129 154.784 144.124 154.894 144.114 155.004C144.114 155.114 144.114 155.239 144.114 155.379H138.189C138.219 155.949 138.349 156.424 138.579 156.804C138.819 157.174 139.114 157.454 139.464 157.644C139.824 157.834 140.204 157.929 140.604 157.929C141.124 157.929 141.559 157.809 141.909 157.569C142.259 157.329 142.514 157.004 142.674 156.594H143.919C143.719 157.284 143.334 157.859 142.764 158.319C142.204 158.769 141.484 158.994 140.604 158.994ZM140.604 152.259C140.004 152.259 139.469 152.444 138.999 152.814C138.539 153.174 138.274 153.704 138.204 154.404H142.884C142.854 153.734 142.624 153.209 142.194 152.829C141.764 152.449 141.234 152.259 140.604 152.259ZM149.174 158.994C148.434 158.994 147.784 158.824 147.224 158.484C146.674 158.144 146.244 157.679 145.934 157.089C145.634 156.499 145.484 155.829 145.484 155.079C145.484 154.329 145.639 153.664 145.949 153.084C146.259 152.494 146.689 152.034 147.239 151.704C147.789 151.364 148.439 151.194 149.189 151.194C149.799 151.194 150.339 151.319 150.809 151.569C151.279 151.819 151.644 152.169 151.904 152.619V148.014H153.164V158.814H152.024L151.904 157.584C151.664 157.944 151.319 158.269 150.869 158.559C150.419 158.849 149.854 158.994 149.174 158.994ZM149.309 157.899C149.809 157.899 150.249 157.784 150.629 157.554C151.019 157.314 151.319 156.984 151.529 156.564C151.749 156.144 151.859 155.654 151.859 155.094C151.859 154.534 151.749 154.044 151.529 153.624C151.319 153.204 151.019 152.879 150.629 152.649C150.249 152.409 149.809 152.289 149.309 152.289C148.819 152.289 148.379 152.409 147.989 152.649C147.609 152.879 147.309 153.204 147.089 153.624C146.879 154.044 146.774 154.534 146.774 155.094C146.774 155.654 146.879 156.144 147.089 156.564C147.309 156.984 147.609 157.314 147.989 157.554C148.379 157.784 148.819 157.899 149.309 157.899ZM162.128 158.814C161.448 158.814 160.913 158.649 160.523 158.319C160.133 157.989 159.938 157.394 159.938 156.534V152.439H158.648V151.374H159.938L160.103 149.589H161.198V151.374H163.388V152.439H161.198V156.534C161.198 157.004 161.293 157.324 161.483 157.494C161.673 157.654 162.008 157.734 162.488 157.734H163.268V158.814H162.128ZM168.174 158.994C167.474 158.994 166.844 158.834 166.284 158.514C165.724 158.194 165.279 157.744 164.949 157.164C164.629 156.574 164.469 155.884 164.469 155.094C164.469 154.304 164.634 153.619 164.964 153.039C165.294 152.449 165.739 151.994 166.299 151.674C166.869 151.354 167.504 151.194 168.204 151.194C168.904 151.194 169.534 151.354 170.094 151.674C170.654 151.994 171.094 152.449 171.414 153.039C171.744 153.619 171.909 154.304 171.909 155.094C171.909 155.884 171.744 156.574 171.414 157.164C171.084 157.744 170.634 158.194 170.064 158.514C169.504 158.834 168.874 158.994 168.174 158.994ZM168.174 157.914C168.604 157.914 169.004 157.809 169.374 157.599C169.744 157.389 170.044 157.074 170.274 156.654C170.504 156.234 170.619 155.714 170.619 155.094C170.619 154.474 170.504 153.954 170.274 153.534C170.054 153.114 169.759 152.799 169.389 152.589C169.019 152.379 168.624 152.274 168.204 152.274C167.774 152.274 167.374 152.379 167.004 152.589C166.634 152.799 166.334 153.114 166.104 153.534C165.874 153.954 165.759 154.474 165.759 155.094C165.759 155.714 165.874 156.234 166.104 156.654C166.334 157.074 166.629 157.389 166.989 157.599C167.359 157.809 167.754 157.914 168.174 157.914ZM42.1574 178.814C41.4774 178.814 40.9424 178.649 40.5524 178.319C40.1624 177.989 39.9674 177.394 39.9674 176.534V172.439H38.6774V171.374H39.9674L40.1324 169.589H41.2274V171.374H43.4174V172.439H41.2274V176.534C41.2274 177.004 41.3224 177.324 41.5124 177.494C41.7024 177.654 42.0374 177.734 42.5174 177.734H43.2974V178.814H42.1574ZM45.0182 178.814V168.014H46.2782V172.649C46.5282 172.189 46.8832 171.834 47.3432 171.584C47.8032 171.324 48.3032 171.194 48.8432 171.194C49.7032 171.194 50.3932 171.464 50.9132 172.004C51.4332 172.534 51.6932 173.354 51.6932 174.464V178.814H50.4482V174.599C50.4482 173.049 49.8232 172.274 48.5732 172.274C47.9232 172.274 47.3782 172.509 46.9382 172.979C46.4982 173.439 46.2782 174.099 46.2782 174.959V178.814H45.0182ZM56.9472 178.994C56.2372 178.994 55.6072 178.834 55.0572 178.514C54.5072 178.184 54.0722 177.729 53.7522 177.149C53.4422 176.569 53.2872 175.884 53.2872 175.094C53.2872 174.314 53.4422 173.634 53.7522 173.054C54.0622 172.464 54.4922 172.009 55.0422 171.689C55.6022 171.359 56.2472 171.194 56.9772 171.194C57.6972 171.194 58.3172 171.359 58.8372 171.689C59.3672 172.009 59.7722 172.434 60.0522 172.964C60.3322 173.494 60.4722 174.064 60.4722 174.674C60.4722 174.784 60.4672 174.894 60.4572 175.004C60.4572 175.114 60.4572 175.239 60.4572 175.379H54.5322C54.5622 175.949 54.6922 176.424 54.9222 176.804C55.1622 177.174 55.4572 177.454 55.8072 177.644C56.1672 177.834 56.5472 177.929 56.9472 177.929C57.4672 177.929 57.9022 177.809 58.2522 177.569C58.6022 177.329 58.8572 177.004 59.0172 176.594H60.2622C60.0622 177.284 59.6772 177.859 59.1072 178.319C58.5472 178.769 57.8272 178.994 56.9472 178.994ZM56.9472 172.259C56.3472 172.259 55.8122 172.444 55.3422 172.814C54.8822 173.174 54.6172 173.704 54.5472 174.404H59.2272C59.1972 173.734 58.9672 173.209 58.5372 172.829C58.1072 172.449 57.5772 172.259 56.9472 172.259ZM62.1422 178.814V171.374H63.2822L63.3722 172.454C63.6122 172.054 63.9322 171.744 64.3322 171.524C64.7322 171.304 65.1822 171.194 65.6822 171.194C66.2722 171.194 66.7772 171.314 67.1972 171.554C67.6272 171.794 67.9572 172.159 68.1872 172.649C68.4472 172.199 68.8022 171.844 69.2522 171.584C69.7122 171.324 70.2072 171.194 70.7372 171.194C71.6272 171.194 72.3372 171.464 72.8672 172.004C73.3972 172.534 73.6622 173.354 73.6622 174.464V178.814H72.4172V174.599C72.4172 173.829 72.2622 173.249 71.9522 172.859C71.6422 172.469 71.1972 172.274 70.6172 172.274C70.0172 172.274 69.5172 172.509 69.1172 172.979C68.7272 173.439 68.5322 174.099 68.5322 174.959V178.814H67.2722V174.599C67.2722 173.829 67.1172 173.249 66.8072 172.859C66.4972 172.469 66.0522 172.274 65.4722 172.274C64.8822 172.274 64.3872 172.509 63.9872 172.979C63.5972 173.439 63.4022 174.099 63.4022 174.959V178.814H62.1422ZM82.4699 176.474C82.0499 176.474 81.6649 176.419 81.3149 176.309L80.5649 177.014C80.6749 177.094 80.8099 177.164 80.9699 177.224C81.1399 177.274 81.3799 177.324 81.6899 177.374C81.9999 177.414 82.4349 177.459 82.9949 177.509C83.9949 177.579 84.7099 177.809 85.1399 178.199C85.5699 178.589 85.7849 179.099 85.7849 179.729C85.7849 180.159 85.6649 180.569 85.4249 180.959C85.1949 181.349 84.8349 181.669 84.3449 181.919C83.8649 182.169 83.2449 182.294 82.4849 182.294C81.8149 182.294 81.2199 182.204 80.6999 182.024C80.1799 181.854 79.7749 181.589 79.4849 181.229C79.1949 180.879 79.0499 180.434 79.0499 179.894C79.0499 179.614 79.1249 179.309 79.2749 178.979C79.4249 178.659 79.7049 178.354 80.1149 178.064C79.8949 177.974 79.7049 177.879 79.5449 177.779C79.3949 177.669 79.2549 177.549 79.1249 177.419V177.074L80.3999 175.814C79.8099 175.314 79.5149 174.654 79.5149 173.834C79.5149 173.344 79.6299 172.899 79.8599 172.499C80.0899 172.099 80.4249 171.784 80.8649 171.554C81.3049 171.314 81.8399 171.194 82.4699 171.194C82.8999 171.194 83.2899 171.254 83.6399 171.374H86.3849V172.319L84.9899 172.379C85.2799 172.799 85.4249 173.284 85.4249 173.834C85.4249 174.324 85.3049 174.769 85.0649 175.169C84.8349 175.569 84.4999 175.889 84.0599 176.129C83.6299 176.359 83.0999 176.474 82.4699 176.474ZM82.4699 175.439C82.9999 175.439 83.4199 175.304 83.7299 175.034C84.0499 174.754 84.2099 174.354 84.2099 173.834C84.2099 173.324 84.0499 172.934 83.7299 172.664C83.4199 172.384 82.9999 172.244 82.4699 172.244C81.9299 172.244 81.4999 172.384 81.1799 172.664C80.8699 172.934 80.7149 173.324 80.7149 173.834C80.7149 174.354 80.8699 174.754 81.1799 175.034C81.4999 175.304 81.9299 175.439 82.4699 175.439ZM80.2799 179.774C80.2799 180.274 80.4899 180.644 80.9099 180.884C81.3299 181.134 81.8549 181.259 82.4849 181.259C83.1049 181.259 83.5999 181.124 83.9699 180.854C84.3499 180.584 84.5399 180.224 84.5399 179.774C84.5399 179.454 84.4099 179.174 84.1499 178.934C83.8899 178.704 83.4099 178.569 82.7099 178.529C82.1599 178.489 81.6849 178.439 81.2849 178.379C80.8749 178.599 80.6049 178.834 80.4749 179.084C80.3449 179.344 80.2799 179.574 80.2799 179.774ZM90.8583 178.994C90.1483 178.994 89.5183 178.834 88.9683 178.514C88.4183 178.184 87.9833 177.729 87.6633 177.149C87.3533 176.569 87.1983 175.884 87.1983 175.094C87.1983 174.314 87.3533 173.634 87.6633 173.054C87.9733 172.464 88.4033 172.009 88.9533 171.689C89.5133 171.359 90.1583 171.194 90.8883 171.194C91.6083 171.194 92.2283 171.359 92.7483 171.689C93.2783 172.009 93.6833 172.434 93.9633 172.964C94.2433 173.494 94.3833 174.064 94.3833 174.674C94.3833 174.784 94.3783 174.894 94.3683 175.004C94.3683 175.114 94.3683 175.239 94.3683 175.379H88.4433C88.4733 175.949 88.6033 176.424 88.8333 176.804C89.0733 177.174 89.3683 177.454 89.7183 177.644C90.0783 177.834 90.4583 177.929 90.8583 177.929C91.3783 177.929 91.8133 177.809 92.1633 177.569C92.5133 177.329 92.7683 177.004 92.9283 176.594H94.1733C93.9733 177.284 93.5883 177.859 93.0183 178.319C92.4583 178.769 91.7383 178.994 90.8583 178.994ZM90.8583 172.259C90.2583 172.259 89.7233 172.444 89.2533 172.814C88.7933 173.174 88.5283 173.704 88.4583 174.404H93.1383C93.1083 173.734 92.8783 173.209 92.4483 172.829C92.0183 172.449 91.4883 172.259 90.8583 172.259ZM99.4433 178.994C98.7433 178.994 98.1133 178.834 97.5533 178.514C96.9933 178.194 96.5483 177.744 96.2183 177.164C95.8983 176.574 95.7383 175.884 95.7383 175.094C95.7383 174.304 95.9033 173.619 96.2333 173.039C96.5633 172.449 97.0083 171.994 97.5683 171.674C98.1383 171.354 98.7733 171.194 99.4733 171.194C100.173 171.194 100.803 171.354 101.363 171.674C101.923 171.994 102.363 172.449 102.683 173.039C103.013 173.619 103.178 174.304 103.178 175.094C103.178 175.884 103.013 176.574 102.683 177.164C102.353 177.744 101.903 178.194 101.333 178.514C100.773 178.834 100.143 178.994 99.4433 178.994ZM99.4433 177.914C99.8733 177.914 100.273 177.809 100.643 177.599C101.013 177.389 101.313 177.074 101.543 176.654C101.773 176.234 101.888 175.714 101.888 175.094C101.888 174.474 101.773 173.954 101.543 173.534C101.323 173.114 101.028 172.799 100.658 172.589C100.288 172.379 99.8933 172.274 99.4733 172.274C99.0433 172.274 98.6433 172.379 98.2733 172.589C97.9033 172.799 97.6033 173.114 97.3733 173.534C97.1433 173.954 97.0283 174.474 97.0283 175.094C97.0283 175.714 97.1433 176.234 97.3733 176.654C97.6033 177.074 97.8983 177.389 98.2583 177.599C98.6283 177.809 99.0233 177.914 99.4433 177.914ZM104.93 178.814V171.374H106.07L106.16 172.454C106.4 172.054 106.72 171.744 107.12 171.524C107.52 171.304 107.97 171.194 108.47 171.194C109.06 171.194 109.565 171.314 109.985 171.554C110.415 171.794 110.745 172.159 110.975 172.649C111.235 172.199 111.59 171.844 112.04 171.584C112.5 171.324 112.995 171.194 113.525 171.194C114.415 171.194 115.125 171.464 115.655 172.004C116.185 172.534 116.45 173.354 116.45 174.464V178.814H115.205V174.599C115.205 173.829 115.05 173.249 114.74 172.859C114.43 172.469 113.985 172.274 113.405 172.274C112.805 172.274 112.305 172.509 111.905 172.979C111.515 173.439 111.32 174.099 111.32 174.959V178.814H110.06V174.599C110.06 173.829 109.905 173.249 109.595 172.859C109.285 172.469 108.84 172.274 108.26 172.274C107.67 172.274 107.175 172.509 106.775 172.979C106.385 173.439 106.19 174.099 106.19 174.959V178.814H104.93ZM121.693 178.994C120.983 178.994 120.353 178.834 119.803 178.514C119.253 178.184 118.818 177.729 118.498 177.149C118.188 176.569 118.033 175.884 118.033 175.094C118.033 174.314 118.188 173.634 118.498 173.054C118.808 172.464 119.238 172.009 119.788 171.689C120.348 171.359 120.993 171.194 121.723 171.194C122.443 171.194 123.063 171.359 123.583 171.689C124.113 172.009 124.518 172.434 124.798 172.964C125.078 173.494 125.218 174.064 125.218 174.674C125.218 174.784 125.213 174.894 125.203 175.004C125.203 175.114 125.203 175.239 125.203 175.379H119.278C119.308 175.949 119.438 176.424 119.668 176.804C119.908 177.174 120.203 177.454 120.553 177.644C120.913 177.834 121.293 177.929 121.693 177.929C122.213 177.929 122.648 177.809 122.998 177.569C123.348 177.329 123.603 177.004 123.763 176.594H125.008C124.808 177.284 124.423 177.859 123.853 178.319C123.293 178.769 122.573 178.994 121.693 178.994ZM121.693 172.259C121.093 172.259 120.558 172.444 120.088 172.814C119.628 173.174 119.363 173.704 119.293 174.404H123.973C123.943 173.734 123.713 173.209 123.283 172.829C122.853 172.449 122.323 172.259 121.693 172.259ZM129.579 178.814C128.899 178.814 128.364 178.649 127.974 178.319C127.584 177.989 127.389 177.394 127.389 176.534V172.439H126.099V171.374H127.389L127.554 169.589H128.649V171.374H130.839V172.439H128.649V176.534C128.649 177.004 128.744 177.324 128.934 177.494C129.124 177.654 129.459 177.734 129.939 177.734H130.719V178.814H129.579ZM132.44 178.814V171.374H133.58L133.685 172.799C133.915 172.309 134.265 171.919 134.735 171.629C135.205 171.339 135.785 171.194 136.475 171.194V172.514H136.13C135.69 172.514 135.285 172.594 134.915 172.754C134.545 172.904 134.25 173.164 134.03 173.534C133.81 173.904 133.7 174.414 133.7 175.064V178.814H132.44ZM138.654 169.724C138.404 169.724 138.194 169.644 138.024 169.484C137.864 169.314 137.784 169.104 137.784 168.854C137.784 168.614 137.864 168.414 138.024 168.254C138.194 168.094 138.404 168.014 138.654 168.014C138.894 168.014 139.099 168.094 139.269 168.254C139.439 168.414 139.524 168.614 139.524 168.854C139.524 169.104 139.439 169.314 139.269 169.484C139.099 169.644 138.894 169.724 138.654 169.724ZM138.024 178.814V171.374H139.284V178.814H138.024ZM144.898 178.994C144.188 178.994 143.548 178.834 142.978 178.514C142.418 178.184 141.973 177.729 141.643 177.149C141.323 176.559 141.163 175.874 141.163 175.094C141.163 174.314 141.323 173.634 141.643 173.054C141.973 172.464 142.418 172.009 142.978 171.689C143.548 171.359 144.188 171.194 144.898 171.194C145.778 171.194 146.518 171.424 147.118 171.884C147.728 172.344 148.113 172.959 148.273 173.729H146.983C146.883 173.269 146.638 172.914 146.248 172.664C145.858 172.404 145.403 172.274 144.883 172.274C144.463 172.274 144.068 172.379 143.698 172.589C143.328 172.799 143.028 173.114 142.798 173.534C142.568 173.954 142.453 174.474 142.453 175.094C142.453 175.714 142.568 176.234 142.798 176.654C143.028 177.074 143.328 177.394 143.698 177.614C144.068 177.824 144.463 177.929 144.883 177.929C145.403 177.929 145.858 177.804 146.248 177.554C146.638 177.294 146.883 176.929 146.983 176.459H148.273C148.123 177.209 147.743 177.819 147.133 178.289C146.523 178.759 145.778 178.994 144.898 178.994ZM152.508 178.994C151.888 178.994 151.373 178.889 150.963 178.679C150.553 178.469 150.248 178.189 150.048 177.839C149.848 177.489 149.748 177.109 149.748 176.699C149.748 175.939 150.038 175.354 150.618 174.944C151.198 174.534 151.988 174.329 152.988 174.329H154.998V174.239C154.998 173.589 154.828 173.099 154.488 172.769C154.148 172.429 153.693 172.259 153.123 172.259C152.633 172.259 152.208 172.384 151.848 172.634C151.498 172.874 151.278 173.229 151.188 173.699H149.898C149.948 173.159 150.128 172.704 150.438 172.334C150.758 171.964 151.153 171.684 151.623 171.494C152.093 171.294 152.593 171.194 153.123 171.194C154.163 171.194 154.943 171.474 155.463 172.034C155.993 172.584 156.258 173.319 156.258 174.239V178.814H155.133L155.058 177.479C154.848 177.899 154.538 178.259 154.128 178.559C153.728 178.849 153.188 178.994 152.508 178.994ZM152.703 177.929C153.183 177.929 153.593 177.804 153.933 177.554C154.283 177.304 154.548 176.979 154.728 176.579C154.908 176.179 154.998 175.759 154.998 175.319V175.304H153.093C152.353 175.304 151.828 175.434 151.518 175.694C151.218 175.944 151.068 176.259 151.068 176.639C151.068 177.029 151.208 177.344 151.488 177.584C151.778 177.814 152.183 177.929 152.703 177.929ZM158.148 178.814V168.014H159.408V178.814H158.148ZM161.473 178.814V168.014H162.733V178.814H161.473ZM165.608 182.114L167.453 178.094H167.018L164.063 171.374H165.428L167.888 177.164L170.498 171.374H171.803L166.928 182.114H165.608ZM173.403 175.904L173.253 168.314H174.618L174.468 175.904H173.403ZM173.973 178.889C173.723 178.889 173.513 178.809 173.343 178.649C173.183 178.479 173.103 178.274 173.103 178.034C173.103 177.794 173.183 177.594 173.343 177.434C173.513 177.264 173.723 177.179 173.973 177.179C174.213 177.179 174.413 177.264 174.573 177.434C174.743 177.594 174.828 177.794 174.828 178.034C174.828 178.274 174.743 178.479 174.573 178.649C174.413 178.809 174.213 178.889 173.973 178.889Z" fill="white"/>
<defs>
<filter id="filter0_d" x="0" y="18.5762" width="214" height="217.559" filterUnits="userSpaceOnUse" color-interpolation-filters="sRGB">
<feFlood flood-opacity="0" result="BackgroundImageFix"/>
<feColorMatrix in="SourceAlpha" type="matrix" values="0 0 0 0 0 0 0 0 0 0 0 0 0 0 0 0 0 0 127 0"/>
<feOffset dy="1"/>
<feGaussianBlur stdDeviation="1"/>
<feColorMatrix type="matrix" values="0 0 0 0 0.0588235 0 0 0 0 0.0588235 0 0 0 0 0.0588235 0 0 0 0.1 0"/>
<feBlend mode="normal" in2="BackgroundImageFix" result="effect1_dropShadow"/>
<feBlend mode="normal" in="SourceGraphic" in2="effect1_dropShadow" result="shape"/>
</filter>
</defs>
</svg>
