<svg width="240" height="260" viewBox="0 0 240 260" fill="none" xmlns="http://www.w3.org/2000/svg">
<g filter="url(#filter0_d)">
<rect x="2" y="21.541" width="236" height="234.99" rx="20" fill="#FFE500"/>
</g>
<path fill-rule="evenodd" clip-rule="evenodd" d="M221 28.3945C216.032 28.3945 212 32.3424 212 37.2066C212 42.0709 216.032 46.0187 221 46.0187C225.968 46.0187 230 42.0709 230 37.2066C230 32.3424 225.968 28.3945 221 28.3945ZM220.1 32.8006V34.563H221.9V32.8006H220.1ZM220.1 36.3254V41.6127H221.9V36.3254H220.1ZM213.8 37.2066C213.8 41.0928 217.031 44.2563 221 44.2563C224.969 44.2563 228.2 41.0928 228.2 37.2066C228.2 33.3205 224.969 30.1569 221 30.1569C217.031 30.1569 213.8 33.3205 213.8 37.2066Z" fill="white"/>
<path d="M37 10C37 4.47715 41.4772 0 47 0H193C198.523 0 203 4.47715 203 10V21.5407H37V10Z" fill="#F12587"/>
<path d="M102.906 16.151C101.85 16.151 100.927 15.911 100.138 15.431C99.3485 14.951 98.7352 14.2843 98.2979 13.431C97.8605 12.567 97.6419 11.5643 97.6419 10.423C97.6419 9.27098 97.8659 8.25765 98.3139 7.38298C98.7725 6.49765 99.4179 5.80965 100.25 5.31898C101.093 4.81765 102.09 4.56698 103.242 4.56698C104.554 4.56698 105.642 4.88165 106.506 5.51098C107.37 6.14032 107.93 7.00965 108.186 8.11898H105.898C105.727 7.59632 105.418 7.19098 104.97 6.90298C104.522 6.60432 103.946 6.45498 103.242 6.45498C102.122 6.45498 101.258 6.81232 100.65 7.52698C100.042 8.23098 99.7379 9.20165 99.7379 10.439C99.7379 11.6763 100.037 12.6363 100.634 13.319C101.242 13.991 102.063 14.327 103.098 14.327C104.111 14.327 104.874 14.055 105.386 13.511C105.909 12.9563 106.223 12.231 106.33 11.335H103.498V9.79898H108.394V15.959H106.506L106.346 14.487C105.983 15.0203 105.53 15.431 104.986 15.719C104.442 16.007 103.749 16.151 102.906 16.151ZM113.073 16.151C112.39 16.151 111.83 16.0443 111.393 15.831C110.956 15.607 110.63 15.3137 110.417 14.951C110.204 14.5883 110.097 14.1883 110.097 13.751C110.097 13.015 110.385 12.4177 110.961 11.959C111.537 11.5003 112.401 11.271 113.553 11.271H115.569V11.079C115.569 10.535 115.414 10.135 115.105 9.87898C114.796 9.62298 114.412 9.49498 113.953 9.49498C113.537 9.49498 113.174 9.59632 112.865 9.79898C112.556 9.99098 112.364 10.279 112.289 10.663H110.289C110.342 10.087 110.534 9.58565 110.865 9.15898C111.206 8.73232 111.644 8.40698 112.177 8.18298C112.71 7.94832 113.308 7.83098 113.969 7.83098C115.1 7.83098 115.99 8.11365 116.641 8.67898C117.292 9.24432 117.617 10.0443 117.617 11.079V15.959H115.873L115.681 14.679C115.446 15.1057 115.116 15.4577 114.689 15.735C114.273 16.0123 113.734 16.151 113.073 16.151ZM113.537 14.551C114.124 14.551 114.577 14.359 114.897 13.975C115.228 13.591 115.436 13.1163 115.521 12.551H113.777C113.233 12.551 112.844 12.6523 112.609 12.855C112.374 13.047 112.257 13.287 112.257 13.575C112.257 13.8843 112.374 14.1243 112.609 14.295C112.844 14.4657 113.153 14.551 113.537 14.551ZM119.571 15.959V8.02298H121.379L121.555 9.09498C121.811 8.71098 122.147 8.40698 122.563 8.18298C122.99 7.94832 123.481 7.83098 124.035 7.83098C125.262 7.83098 126.131 8.30565 126.643 9.25498C126.931 8.81765 127.315 8.47098 127.795 8.21498C128.286 7.95898 128.819 7.83098 129.395 7.83098C130.43 7.83098 131.225 8.14032 131.779 8.75898C132.334 9.37765 132.611 10.2843 132.611 11.479V15.959H130.563V11.671C130.563 10.9883 130.43 10.4657 130.163 10.103C129.907 9.74032 129.507 9.55898 128.963 9.55898C128.409 9.55898 127.961 9.76165 127.619 10.167C127.289 10.5723 127.123 11.1377 127.123 11.863V15.959H125.075V11.671C125.075 10.9883 124.942 10.4657 124.675 10.103C124.409 9.74032 123.998 9.55898 123.443 9.55898C122.899 9.55898 122.457 9.76165 122.115 10.167C121.785 10.5723 121.619 11.1377 121.619 11.863V15.959H119.571ZM138.412 16.151C137.612 16.151 136.902 15.9803 136.284 15.639C135.665 15.2977 135.18 14.8177 134.828 14.199C134.476 13.5803 134.3 12.8657 134.3 12.055C134.3 11.2337 134.47 10.503 134.812 9.86298C135.164 9.22298 135.644 8.72698 136.252 8.37498C136.87 8.01232 137.596 7.83098 138.428 7.83098C139.206 7.83098 139.894 8.00165 140.492 8.34298C141.089 8.68432 141.553 9.15365 141.884 9.75098C142.225 10.3377 142.396 10.9937 142.396 11.719C142.396 11.8363 142.39 11.959 142.38 12.087C142.38 12.215 142.374 12.3483 142.364 12.487H136.332C136.374 13.1057 136.588 13.591 136.972 13.943C137.366 14.295 137.841 14.471 138.396 14.471C138.812 14.471 139.158 14.3803 139.436 14.199C139.724 14.007 139.937 13.7617 140.076 13.463H142.156C142.006 13.9643 141.756 14.423 141.404 14.839C141.062 15.2443 140.636 15.5643 140.124 15.799C139.622 16.0337 139.052 16.151 138.412 16.151ZM138.428 9.49498C137.926 9.49498 137.484 9.63898 137.1 9.92698C136.716 10.2043 136.47 10.631 136.364 11.207H140.316C140.284 10.6843 140.092 10.2683 139.74 9.95898C139.388 9.64965 138.95 9.49498 138.428 9.49498Z" fill="white"/>
<path d="M56.3117 74.207V57.407H62.0477C64.0157 57.407 65.6317 57.759 66.8957 58.463C68.1757 59.151 69.1197 60.127 69.7277 61.391C70.3517 62.639 70.6637 64.111 70.6637 65.807C70.6637 67.503 70.3517 68.983 69.7277 70.247C69.1197 71.495 68.1757 72.471 66.8957 73.175C65.6317 73.863 64.0157 74.207 62.0477 74.207H56.3117ZM59.3837 71.567H61.9037C63.3117 71.567 64.4237 71.343 65.2397 70.895C66.0557 70.431 66.6397 69.775 66.9917 68.927C67.3437 68.063 67.5197 67.023 67.5197 65.807C67.5197 64.607 67.3437 63.575 66.9917 62.711C66.6397 61.847 66.0557 61.183 65.2397 60.719C64.4237 60.255 63.3117 60.023 61.9037 60.023H59.3837V71.567ZM73.3022 74.207V62.303H76.0382L76.3262 64.535C76.7582 63.767 77.3422 63.159 78.0782 62.711C78.8302 62.247 79.7102 62.015 80.7182 62.015V65.255H79.8542C79.1822 65.255 78.5822 65.359 78.0542 65.567C77.5262 65.775 77.1102 66.135 76.8062 66.647C76.5182 67.159 76.3742 67.871 76.3742 68.783V74.207H73.3022ZM86.9218 74.495C85.8978 74.495 85.0578 74.335 84.4018 74.015C83.7458 73.679 83.2578 73.239 82.9378 72.695C82.6178 72.151 82.4578 71.551 82.4578 70.895C82.4578 69.791 82.8898 68.895 83.7538 68.207C84.6178 67.519 85.9138 67.175 87.6418 67.175H90.6658V66.887C90.6658 66.071 90.4338 65.471 89.9698 65.087C89.5058 64.703 88.9298 64.511 88.2418 64.511C87.6178 64.511 87.0738 64.663 86.6098 64.967C86.1458 65.255 85.8578 65.687 85.7458 66.263H82.7458C82.8258 65.399 83.1138 64.647 83.6098 64.007C84.1218 63.367 84.7778 62.879 85.5778 62.543C86.3778 62.191 87.2738 62.015 88.2658 62.015C89.9618 62.015 91.2978 62.439 92.2738 63.287C93.2498 64.135 93.7378 65.335 93.7378 66.887V74.207H91.1218L90.8338 72.287C90.4818 72.927 89.9858 73.455 89.3458 73.871C88.7218 74.287 87.9138 74.495 86.9218 74.495ZM87.6178 72.095C88.4978 72.095 89.1778 71.807 89.6578 71.231C90.1538 70.655 90.4658 69.943 90.5938 69.095H87.9778C87.1618 69.095 86.5778 69.247 86.2258 69.551C85.8738 69.839 85.6978 70.199 85.6978 70.631C85.6978 71.095 85.8738 71.455 86.2258 71.711C86.5778 71.967 87.0418 72.095 87.6178 72.095ZM98.8802 74.207L95.4002 62.303H98.4482L100.512 70.871L102.912 62.303H106.32L108.72 70.871L110.808 62.303H113.856L110.352 74.207H107.16L104.616 65.303L102.072 74.207H98.8802ZM115.794 74.207V56.927H118.866V67.127L123.09 62.303H126.738L121.866 67.727L127.53 74.207H123.69L118.866 68.231V74.207H115.794ZM131.763 74.207L128.283 62.303H131.331L133.395 70.871L135.795 62.303H139.203L141.603 70.871L143.691 62.303H146.739L143.235 74.207H140.043L137.499 65.303L134.955 74.207H131.763ZM152.172 74.495C151.148 74.495 150.308 74.335 149.652 74.015C148.996 73.679 148.508 73.239 148.188 72.695C147.868 72.151 147.708 71.551 147.708 70.895C147.708 69.791 148.14 68.895 149.004 68.207C149.868 67.519 151.164 67.175 152.892 67.175H155.916V66.887C155.916 66.071 155.684 65.471 155.22 65.087C154.756 64.703 154.18 64.511 153.492 64.511C152.868 64.511 152.324 64.663 151.86 64.967C151.396 65.255 151.108 65.687 150.996 66.263H147.996C148.076 65.399 148.364 64.647 148.86 64.007C149.372 63.367 150.028 62.879 150.828 62.543C151.628 62.191 152.524 62.015 153.516 62.015C155.212 62.015 156.548 62.439 157.524 63.287C158.5 64.135 158.988 65.335 158.988 66.887V74.207H156.372L156.084 72.287C155.732 72.927 155.236 73.455 154.596 73.871C153.972 74.287 153.164 74.495 152.172 74.495ZM152.868 72.095C153.748 72.095 154.428 71.807 154.908 71.231C155.404 70.655 155.716 69.943 155.844 69.095H153.228C152.412 69.095 151.828 69.247 151.476 69.551C151.124 69.839 150.948 70.199 150.948 70.631C150.948 71.095 151.124 71.455 151.476 71.711C151.828 71.967 152.292 72.095 152.868 72.095ZM161.919 74.207V62.303H164.655L164.943 64.535C165.375 63.767 165.959 63.159 166.695 62.711C167.447 62.247 168.327 62.015 169.335 62.015V65.255H168.471C167.799 65.255 167.199 65.359 166.671 65.567C166.143 65.775 165.727 66.135 165.423 66.647C165.135 67.159 164.991 67.871 164.991 68.783V74.207H161.919ZM176.696 74.495C175.576 74.495 174.576 74.223 173.696 73.679C172.816 73.135 172.12 72.391 171.608 71.447C171.096 70.503 170.84 69.431 170.84 68.231C170.84 67.031 171.096 65.967 171.608 65.039C172.12 64.095 172.816 63.359 173.696 62.831C174.576 62.287 175.576 62.015 176.696 62.015C177.592 62.015 178.376 62.183 179.048 62.519C179.72 62.855 180.264 63.327 180.68 63.935V56.927H183.752V74.207H181.016L180.68 72.503C180.296 73.031 179.784 73.495 179.144 73.895C178.52 74.295 177.704 74.495 176.696 74.495ZM177.344 71.807C178.336 71.807 179.144 71.479 179.768 70.823C180.408 70.151 180.728 69.295 180.728 68.255C180.728 67.215 180.408 66.367 179.768 65.711C179.144 65.039 178.336 64.703 177.344 64.703C176.368 64.703 175.56 65.031 174.92 65.687C174.28 66.343 173.96 67.191 173.96 68.231C173.96 69.271 174.28 70.127 174.92 70.799C175.56 71.471 176.368 71.807 177.344 71.807Z" fill="white"/>
<path d="M105.832 110.515L94.9714 108.599C94.4501 108.507 94.0397 108.785 93.9455 109.295L82.715 170.059C82.6208 170.569 82.9055 170.97 83.4267 171.062L94.287 172.978C94.8082 173.07 95.2186 172.792 95.3128 172.282L106.543 111.518C106.622 111.093 106.266 110.592 105.832 110.515ZM84.594 169.601L95.526 110.452L104.649 112.061L103.533 118.095L100.058 117.482C99.7975 117.436 99.5923 117.575 99.5452 117.83C99.4981 118.085 99.6404 118.286 99.9011 118.332L103.376 118.945L102.418 124.129L98.943 123.516C98.6823 123.47 98.4771 123.609 98.43 123.864C98.3829 124.119 98.5252 124.32 98.7859 124.366L102.261 124.979L101.287 130.248L97.8121 129.635C97.5514 129.589 97.3462 129.728 97.2991 129.983C97.252 130.238 97.3943 130.439 97.655 130.485L101.13 131.098L100.172 136.282L96.6969 135.669C96.4362 135.623 96.231 135.762 96.1839 136.017C96.1368 136.272 96.2791 136.472 96.5398 136.518L100.015 137.132L99.0569 142.316L95.5817 141.702C95.321 141.657 95.1158 141.796 95.0687 142.051C95.0216 142.306 95.164 142.506 95.4246 142.552L98.8999 143.166L97.9417 148.35L94.4665 147.736C94.2058 147.69 94.0007 147.83 93.9535 148.085C93.9064 148.34 94.0488 148.54 94.3094 148.586L97.7847 149.199L96.8265 154.383L93.3513 153.77C93.0906 153.724 92.8855 153.864 92.8383 154.119C92.7912 154.374 92.9336 154.574 93.1942 154.62L96.6695 155.233L95.7114 160.417L92.2361 159.804C91.9754 159.758 91.7703 159.897 91.7231 160.152C91.676 160.407 91.8184 160.608 92.079 160.654L95.5543 161.267L93.748 171.04L84.6254 169.431L84.594 169.601Z" fill="#6C63FF"/>
<path d="M122.418 163.362L141.437 169.044C141.775 169.145 142.081 169.055 142.327 168.858C142.574 168.661 142.677 168.33 142.585 168.032L133.471 130.354C133.405 129.973 133.034 129.681 132.67 129.663C132.306 129.644 131.949 129.899 131.82 130.312L121.83 162.283C121.676 162.779 121.91 163.21 122.418 163.362ZM132.556 133.874L140.517 166.962L123.779 161.962L132.556 133.874Z" fill="#6C63FF"/>
<path d="M150.474 177.979L133.737 107.314C133.672 106.933 133.301 106.642 132.937 106.624C132.573 106.605 132.216 106.86 132.087 107.273L113.321 167.332C113.166 167.827 113.401 168.259 113.908 168.41L149.411 179.017C149.749 179.118 150.054 179.028 150.301 178.831C150.547 178.634 150.566 178.278 150.474 177.979ZM140.629 174.587L141.455 171.943C141.532 171.695 141.415 171.479 141.161 171.404C140.908 171.328 140.687 171.443 140.609 171.69L139.783 174.334L135.557 173.071L136.383 170.428C136.46 170.18 136.343 169.964 136.089 169.889C135.836 169.813 135.615 169.927 135.538 170.175L134.712 172.819L130.485 171.556L131.311 168.913C131.389 168.665 131.271 168.449 131.017 168.373C130.764 168.298 130.543 168.412 130.466 168.66L129.64 171.304L125.413 170.041L126.239 167.398C126.317 167.15 126.199 166.934 125.946 166.858C125.692 166.782 125.471 166.897 125.394 167.145L124.568 169.789L120.341 168.526L121.167 165.882C121.245 165.635 121.127 165.419 120.874 165.343C120.62 165.267 120.399 165.382 120.322 165.63L119.496 168.273L115.269 167.011L132.822 110.835L148.49 176.935L140.629 174.587Z" fill="#6C63FF"/>
<path d="M87.3543 146.752C86.9767 146.97 86.5551 147.103 86.1191 147.144C85.6831 147.184 85.2433 147.131 84.8308 146.987C84.4182 146.843 84.0429 146.612 83.7313 146.311C83.4197 146.009 83.1793 145.645 83.0272 145.243L72.3838 145.46L75.3324 140.877L84.9875 141.373C85.6943 141.168 86.4536 141.223 87.1214 141.529C87.7893 141.835 88.3193 142.37 88.611 143.033C88.9028 143.696 88.936 144.441 88.7043 145.127C88.4727 145.812 87.9923 146.39 87.3543 146.752V146.752Z" fill="#FFB8B8"/>
<path d="M82.6765 145.44C82.592 145.716 82.4171 145.958 82.1787 146.127C81.9403 146.296 81.6517 146.384 81.3573 146.377L61.878 145.893L44.2398 140.78C43.7545 140.639 43.3025 140.405 42.9102 140.092C42.518 139.779 42.1932 139.392 41.9548 138.955C41.7165 138.518 41.5693 138.039 41.5217 137.545C41.4742 137.052 41.5274 136.554 41.6781 136.081C41.8288 135.608 42.0741 135.169 42.3996 134.789C42.7252 134.41 43.1246 134.097 43.5745 133.87C44.0245 133.643 44.516 133.506 45.0206 133.467C45.5252 133.428 46.0327 133.487 46.5137 133.641L62.4489 138.757L81.575 140.564C81.91 140.597 82.2202 140.752 82.4444 140.998C82.6687 141.244 82.7908 141.563 82.7867 141.893L82.7313 145.087C82.7295 145.207 82.711 145.325 82.6765 145.44Z" fill="#3F3D56"/>
<path d="M54.4244 227.438L58.0765 227.438L59.8142 213.645L54.4238 213.645L54.4244 227.438Z" fill="#FFB8B8"/>
<path d="M53.4912 226.27L60.6839 226.27H60.6842C61.2861 226.27 61.8822 226.386 62.4383 226.611C62.9944 226.837 63.4997 227.167 63.9254 227.584C64.351 228.001 64.6887 228.496 64.919 229.04C65.1494 229.585 65.2679 230.168 65.2679 230.758V230.903L53.4914 230.904L53.4912 226.27Z" fill="#2F2E41"/>
<path d="M43.7057 227.438L47.3577 227.438L49.0954 213.645L43.7051 213.645L43.7057 227.438Z" fill="#FFB8B8"/>
<path d="M42.7764 226.27L49.969 226.27H49.9693C50.5713 226.27 51.1673 226.386 51.7234 226.611C52.2796 226.837 52.7849 227.167 53.2105 227.584C53.6362 228.001 53.9738 228.496 54.2042 229.04C54.4345 229.585 54.5531 230.168 54.5531 230.758V230.903L42.7766 230.904L42.7764 226.27Z" fill="#2F2E41"/>
<path d="M41.2549 171.693L42.127 222.358C42.1298 222.518 42.1663 222.676 42.2343 222.822C42.3023 222.968 42.4004 223.099 42.5223 223.206C42.6443 223.313 42.7875 223.395 42.943 223.445C43.0986 223.496 43.2631 223.515 43.4263 223.5L47.7002 223.12C47.9805 223.095 48.2428 222.973 48.4405 222.777C48.6382 222.581 48.7586 222.323 48.7804 222.048L51.2825 190.445C51.2884 190.37 51.323 190.301 51.3793 190.251C51.4356 190.201 51.5093 190.174 51.5854 190.176C51.6614 190.177 51.734 190.207 51.7882 190.259C51.8425 190.311 51.8743 190.382 51.8772 190.456L53.1278 222.783C53.1395 223.084 53.27 223.37 53.4921 223.579C53.7141 223.789 54.0103 223.906 54.3186 223.906H58.9021C59.2055 223.906 59.4976 223.792 59.7186 223.589C59.9396 223.385 60.073 223.106 60.0915 222.81L63.3001 171.401L44.234 166.734L41.2549 171.693Z" fill="#2F2E41"/>
<path d="M55.0806 124.119C59.1216 124.119 62.3976 120.912 62.3976 116.955C62.3976 112.999 59.1216 109.791 55.0806 109.791C51.0396 109.791 47.7637 112.999 47.7637 116.955C47.7637 120.912 51.0396 124.119 55.0806 124.119Z" fill="#FFB8B8"/>
<path d="M63.0177 173.571C63.0106 173.571 63.0035 173.571 62.9964 173.571L45.8872 173.313C45.5583 173.308 45.2428 173.185 45.0006 172.967C44.7585 172.749 44.6066 172.452 44.5739 172.131L44.3802 170.234C44.3765 170.198 44.3593 170.165 44.3319 170.141C44.3045 170.117 44.2689 170.103 44.232 170.103C44.195 170.103 44.1594 170.117 44.132 170.141C44.1046 170.165 44.0874 170.198 44.0838 170.234L43.8837 172.194C43.8526 172.5 43.7122 172.787 43.4871 173.002C43.2619 173.217 42.9664 173.348 42.6525 173.372L41.4435 173.463C41.2304 173.479 41.0164 173.445 40.8195 173.363C40.6226 173.282 40.4484 173.156 40.3114 172.995C40.1744 172.835 40.0787 172.644 40.0322 172.44C39.9856 172.236 39.9896 172.024 40.0439 171.821L41.085 167.935C43.2393 159.857 43.4126 151.396 41.5907 143.24L41.0734 140.936C40.6834 139.215 40.8619 137.417 41.5831 135.801C42.3044 134.185 43.5311 132.836 45.0863 131.947L48.4468 130.018L49.9715 127.779C50.2665 127.347 50.6636 126.991 51.1292 126.741C51.5948 126.491 52.1151 126.354 52.6459 126.343C54.7728 126.298 58.4213 126.679 59.1068 129.724C60.8055 130.292 62.2766 131.373 63.3087 132.811C64.3407 134.25 64.8807 135.971 64.851 137.728L64.3575 172.277C64.3525 172.622 64.2092 172.951 63.9585 173.193C63.7078 173.435 63.3699 173.571 63.0177 173.571Z" fill="#3F3D56"/>
<path d="M54.5066 121.086C54.4766 122.098 53.7585 122.684 52.8769 123.215C51.9953 123.745 50.9647 123.975 49.955 124.197C49.8194 124.268 49.6675 124.303 49.5141 124.299C49.3606 124.295 49.2106 124.253 49.0787 124.176C48.9468 124.099 48.8374 123.99 48.761 123.86C48.6846 123.729 48.6439 123.582 48.6427 123.432L47.7167 119.983C47.3891 118.881 47.1507 117.756 47.0037 116.618C46.7807 114.427 47.3109 112.071 48.8723 110.487C50.4337 108.904 53.1416 108.341 55.0127 109.561C57.2332 106.784 67.3829 112.92 64.8792 114.85C64.4337 115.194 63.7529 114.759 63.1875 114.717C62.6221 114.675 61.9886 114.772 61.6294 115.202C61.1602 115.763 61.3646 116.599 61.1713 117.3C61.0913 117.546 60.9623 117.774 60.7917 117.972C60.6211 118.169 60.4123 118.331 60.1774 118.449C59.9424 118.567 59.686 118.638 59.4228 118.659C59.1596 118.679 58.8949 118.648 58.6439 118.568C58.1765 118.342 57.7367 118.066 57.3331 117.743C56.8995 117.46 56.3515 117.251 55.8633 117.429C55.2199 117.665 54.9913 118.436 54.9331 119.106C54.8351 119.774 54.6926 120.436 54.5066 121.086Z" fill="#2F2E41"/>
<path d="M65.1339 174.994C64.7924 174.726 64.5152 174.387 64.3218 174.002C64.1284 173.618 64.0235 173.196 64.0144 172.767C64.0054 172.339 64.0925 171.913 64.2696 171.521C64.4467 171.129 64.7094 170.779 65.0393 170.497L61.0537 160.832L66.4763 161.904L69.4298 170.918C69.8769 171.492 70.0935 172.207 70.0384 172.927C69.9833 173.647 69.6604 174.322 69.1308 174.824C68.6013 175.327 67.902 175.622 67.1653 175.653C66.4287 175.684 65.7059 175.45 65.1339 174.994Z" fill="#FFB8B8"/>
<path d="M65.0574 170.807C64.7636 170.828 64.4711 170.753 64.2247 170.595C63.9784 170.437 63.792 170.204 63.6941 169.932L57.2422 151.929L55.8633 133.969C55.8253 133.475 55.888 132.978 56.0478 132.508C56.2076 132.038 56.4613 131.603 56.7942 131.23C57.127 130.856 57.5323 130.551 57.9866 130.333C58.4409 130.114 58.935 129.986 59.4403 129.956C59.9456 129.926 60.4519 129.995 60.9298 130.158C61.4077 130.321 61.8477 130.576 62.2242 130.907C62.6007 131.239 62.9061 131.64 63.1228 132.088C63.3394 132.536 63.463 133.022 63.4862 133.517L64.2582 149.919L69.3218 168.068C69.409 168.386 69.3713 168.725 69.2161 169.018C69.0609 169.31 68.7994 169.535 68.4832 169.649L65.4137 170.732C65.2989 170.773 65.1791 170.798 65.0574 170.807Z" fill="#3F3D56"/>
<path d="M150.156 150.832C150.255 150.964 150.344 151.103 150.421 151.249L165.35 152.893L167.522 150.02L172.377 152.662L168.103 159.639L149.813 154.939C149.347 155.377 148.757 155.666 148.119 155.768C147.482 155.869 146.828 155.778 146.245 155.507C145.662 155.236 145.177 154.797 144.855 154.25C144.532 153.702 144.388 153.071 144.44 152.441C144.493 151.811 144.74 151.212 145.149 150.723C145.558 150.234 146.11 149.878 146.73 149.703C147.351 149.529 148.011 149.543 148.623 149.744C149.235 149.946 149.77 150.325 150.156 150.832Z" fill="#FFB8B8"/>
<path d="M194.725 225.157L191.141 226.112L185.675 213.032L190.964 211.623L194.725 225.157Z" fill="#FFB8B8"/>
<path d="M188.227 225.809L195.21 223.949L196.394 228.209L185.131 231.21L185.112 231.139C184.803 230.028 184.958 228.842 185.542 227.843C186.126 226.843 187.092 226.112 188.227 225.809Z" fill="#2F2E41"/>
<path d="M164.084 227.833L160.37 227.833L158.604 213.807L164.085 213.807L164.084 227.833Z" fill="#FFB8B8"/>
<path d="M157.65 226.795H164.887V231.21H153.215V231.137C153.215 229.986 153.682 228.881 154.514 228.067C155.346 227.252 156.474 226.795 157.65 226.795Z" fill="#2F2E41"/>
<path d="M169.678 135.228C173.787 135.228 177.118 131.966 177.118 127.943C177.118 123.92 173.787 120.658 169.678 120.658C165.568 120.658 162.237 123.92 162.237 127.943C162.237 131.966 165.568 135.228 169.678 135.228Z" fill="#FFB8B8"/>
<path d="M163.863 217.834H158.788C158.441 217.833 158.108 217.704 157.855 217.471C157.602 217.238 157.449 216.92 157.426 216.581C155.914 193.042 156.799 176.157 160.21 163.444C160.225 163.388 160.244 163.333 160.266 163.28L160.537 162.615C160.638 162.366 160.812 162.153 161.038 162.004C161.264 161.854 161.53 161.775 161.803 161.775H172.24C172.436 161.775 172.631 161.817 172.809 161.897C172.988 161.978 173.147 162.095 173.275 162.241L174.692 163.861C174.72 163.892 174.746 163.925 174.771 163.959C181.163 172.686 186.891 189.75 193.526 212.684C193.624 213.018 193.585 213.375 193.417 213.681C193.25 213.987 192.967 214.216 192.63 214.321L187.175 216.03C186.862 216.126 186.524 216.109 186.222 215.982C185.921 215.856 185.676 215.627 185.532 215.338L171.378 186.595C171.279 186.394 171.117 186.229 170.915 186.126C170.713 186.023 170.483 185.985 170.258 186.02C170.033 186.055 169.825 186.16 169.666 186.319C169.506 186.479 169.404 186.684 169.373 186.905L165.214 216.68C165.168 216.999 165.007 217.292 164.759 217.504C164.511 217.716 164.193 217.833 163.863 217.834Z" fill="#2F2E41"/>
<path d="M174.11 163.979C174.096 163.979 174.082 163.979 174.067 163.979L161.39 163.587C161.064 163.578 160.753 163.455 160.512 163.239C160.271 163.024 160.118 162.731 160.079 162.414C158.472 149.677 162.879 146.265 164.849 145.39C165.014 145.317 165.156 145.204 165.263 145.061C165.37 144.919 165.437 144.752 165.458 144.576L165.629 143.241C165.658 143.005 165.751 142.781 165.898 142.593C168.986 138.676 173.203 137.422 175.441 137.023C175.623 136.991 175.809 136.996 175.989 137.036C176.169 137.077 176.338 137.153 176.487 137.26C176.636 137.367 176.761 137.502 176.854 137.657C176.948 137.813 177.009 137.986 177.032 138.165L177.287 140.082C177.313 140.265 177.388 140.438 177.504 140.583C183.944 148.827 176.769 160.998 175.265 163.354C175.143 163.545 174.972 163.703 174.77 163.812C174.568 163.922 174.341 163.979 174.11 163.979Z" fill="#6C63FF"/>
<path d="M177.872 123.412C177.32 121.772 176.912 120.088 176.653 118.379C176.572 117.385 176.832 116.315 177.572 115.628C178.956 114.344 181.309 114.956 182.757 116.171C184.849 117.928 185.893 120.628 186.287 123.299C186.682 125.97 186.508 128.686 186.603 131.383C186.698 134.081 187.092 136.854 188.496 139.176C189.901 141.499 192.507 143.281 195.256 143.084C196.366 143.025 197.419 142.588 198.234 141.848C198.634 141.475 198.937 141.014 199.117 140.504C199.298 139.993 199.351 139.447 199.271 138.912C200.676 141.375 199.964 144.714 197.868 146.651C195.772 148.587 192.549 149.135 189.794 148.308C187.038 147.481 184.771 145.408 183.416 142.917C182.062 140.427 181.565 137.55 181.637 134.729C181.693 132.563 182.069 130.38 181.695 128.244C181.321 126.108 179.956 123.94 177.803 123.437L177.872 123.412Z" fill="#2F2E41"/>
<path d="M168.204 126.219C167.837 127.419 166.433 128.16 165.171 127.957C164.542 127.829 163.96 127.536 163.488 127.111C163.015 126.685 162.669 126.143 162.486 125.54C162.139 124.319 162.281 123.015 162.883 121.893C163.214 121.22 163.678 120.619 164.248 120.122C164.817 119.625 165.481 119.243 166.202 118.998C166.926 118.763 167.698 118.702 168.451 118.82C169.205 118.938 169.919 119.231 170.532 119.676C170.598 119.406 170.735 119.158 170.931 118.958C171.126 118.758 171.373 118.612 171.645 118.536C172.193 118.392 172.772 118.4 173.316 118.56C174.882 118.997 176.239 119.964 177.146 121.289C178.041 122.609 178.633 124.104 178.882 125.67C179.309 128.019 179.151 130.585 177.804 132.573C176.457 134.561 173.701 135.734 171.465 134.787C171.325 134.089 171.656 133.386 172.038 132.781C172.42 132.177 172.873 131.587 173.02 130.891C173.166 130.195 172.885 129.343 172.197 129.115C171.61 128.921 170.984 129.235 170.366 129.273C170.015 129.295 169.664 129.226 169.349 129.073C169.033 128.92 168.765 128.688 168.57 128.401C168.375 128.115 168.26 127.783 168.238 127.439C168.215 127.095 168.285 126.751 168.441 126.443L168.204 126.219Z" fill="#2F2E41"/>
<path d="M149.345 156.23C149.468 156.342 149.582 156.463 149.686 156.591L164.664 155.45L166.243 152.229L171.521 153.927L168.666 161.568L149.799 160.328C149.426 160.844 148.902 161.237 148.296 161.454C147.689 161.671 147.03 161.703 146.405 161.544C145.78 161.385 145.219 161.044 144.797 160.566C144.375 160.087 144.112 159.495 144.042 158.866C143.972 158.238 144.1 157.603 144.407 157.048C144.715 156.492 145.188 156.041 145.764 155.755C146.34 155.468 146.991 155.361 147.63 155.446C148.27 155.531 148.868 155.804 149.345 156.23V156.23Z" fill="#FFB8B8"/>
<path d="M171.443 159.017C171.317 158.982 171.197 158.929 171.086 158.86L164.453 154.758C164.293 154.66 164.156 154.53 164.051 154.377C163.945 154.224 163.873 154.051 163.84 153.869C163.806 153.688 163.811 153.501 163.854 153.321C163.898 153.142 163.979 152.973 164.093 152.826L168.742 146.796C168.937 146.541 169.219 146.363 169.536 146.295C169.854 146.226 170.187 146.272 170.473 146.424L174.959 148.775C175.239 148.921 175.458 149.159 175.578 149.447C175.698 149.735 175.712 150.055 175.616 150.352L173.114 158.133C173.007 158.464 172.773 158.741 172.462 158.906C172.15 159.071 171.785 159.111 171.443 159.017Z" fill="#6C63FF"/>
<defs>
<filter id="filter0_d" x="0" y="20.541" width="240" height="238.99" filterUnits="userSpaceOnUse" color-interpolation-filters="sRGB">
<feFlood flood-opacity="0" result="BackgroundImageFix"/>
<feColorMatrix in="SourceAlpha" type="matrix" values="0 0 0 0 0 0 0 0 0 0 0 0 0 0 0 0 0 0 127 0"/>
<feOffset dy="1"/>
<feGaussianBlur stdDeviation="1"/>
<feColorMatrix type="matrix" values="0 0 0 0 0.0588235 0 0 0 0 0.0588235 0 0 0 0 0.0588235 0 0 0 0.1 0"/>
<feBlend mode="normal" in2="BackgroundImageFix" result="effect1_dropShadow"/>
<feBlend mode="normal" in="SourceGraphic" in2="effect1_dropShadow" result="shape"/>
</filter>
</defs>
</svg>
