<svg width="1440" height="310" viewBox="0 0 1440 310" fill="none" xmlns="http://www.w3.org/2000/svg">
<path fill-rule="evenodd" clip-rule="evenodd" d="M1348.19 443.993C1288.67 511.703 1249.5 579.421 1196.18 648.044C1141.7 718.18 1090.13 785.868 1028.88 855.003C936.421 959.352 956.385 1125.68 741.035 1161.75C517.58 1199.18 424.891 1011.2 206.569 992.733C23.1872 977.222 -191.795 1107.36 -355.578 1069C-513.542 1032 -493.854 910.871 -520.379 822.471C-541.852 750.91 -501.157 676.825 -495.474 602.78C-490.23 534.456 -515.144 469.271 -488.016 400.794C-457.159 322.904 -427.288 241.108 -326.125 175.3C-221.214 107.055 -74.267 44.2157 87.9215 26.1409C249.969 8.08185 378.069 82.927 540.302 78.7429C727.367 73.9183 904.486 -3.11006 1089.49 0.309521C1306.42 4.31901 1619.47 -0.865699 1678.15 99.7743C1744.17 213.003 1451.55 326.418 1348.19 443.993Z" fill="#61D1DB"/>
</svg>
