<svg width="57" height="60" viewBox="0 0 57 60" fill="none" xmlns="http://www.w3.org/2000/svg">
<path d="M13.1965 56.168C12.2725 56.168 11.4652 55.958 10.7745 55.538C10.0838 55.118 9.54715 54.5347 9.16449 53.788C8.78182 53.032 8.59049 52.1547 8.59049 51.156C8.59049 50.148 8.78649 49.2613 9.17849 48.496C9.57982 47.7213 10.1445 47.1193 10.8725 46.69C11.6098 46.2513 12.4825 46.032 13.4905 46.032C14.6385 46.032 15.5905 46.3073 16.3465 46.858C17.1025 47.4087 17.5925 48.1693 17.8165 49.14H15.8145C15.6652 48.6827 15.3945 48.328 15.0025 48.076C14.6105 47.8147 14.1065 47.684 13.4905 47.684C12.5105 47.684 11.7545 47.9967 11.2225 48.622C10.6905 49.238 10.4245 50.0873 10.4245 51.17C10.4245 52.2527 10.6858 53.0927 11.2085 53.69C11.7405 54.278 12.4592 54.572 13.3645 54.572C14.2512 54.572 14.9185 54.334 15.3665 53.858C15.8238 53.3727 16.0992 52.738 16.1925 51.954H13.7145V50.61H17.9985V56H16.3465L16.2065 54.712C15.8892 55.1787 15.4925 55.538 15.0165 55.79C14.5405 56.042 13.9338 56.168 13.1965 56.168ZM22.0926 56.168C21.4953 56.168 21.0053 56.0747 20.6226 55.888C20.2399 55.692 19.9553 55.4353 19.7686 55.118C19.5819 54.8007 19.4886 54.4507 19.4886 54.068C19.4886 53.424 19.7406 52.9013 20.2446 52.5C20.7486 52.0987 21.5046 51.898 22.5126 51.898H24.2766V51.73C24.2766 51.254 24.1413 50.904 23.8706 50.68C23.5999 50.456 23.2639 50.344 22.8626 50.344C22.4986 50.344 22.1813 50.4327 21.9106 50.61C21.6399 50.778 21.4719 51.03 21.4066 51.366H19.6566C19.7033 50.862 19.8713 50.4233 20.1606 50.05C20.4593 49.6767 20.8419 49.392 21.3086 49.196C21.7753 48.9907 22.2979 48.888 22.8766 48.888C23.8659 48.888 24.6453 49.1353 25.2146 49.63C25.7839 50.1247 26.0686 50.8247 26.0686 51.73V56H24.5426L24.3746 54.88C24.1693 55.2533 23.8799 55.5613 23.5066 55.804C23.1426 56.0467 22.6713 56.168 22.0926 56.168ZM22.4986 54.768C23.0119 54.768 23.4086 54.6 23.6886 54.264C23.9779 53.928 24.1599 53.5127 24.2346 53.018H22.7086C22.2326 53.018 21.8919 53.1067 21.6866 53.284C21.4813 53.452 21.3786 53.662 21.3786 53.914C21.3786 54.1847 21.4813 54.3947 21.6866 54.544C21.8919 54.6933 22.1626 54.768 22.4986 54.768ZM27.7787 56V49.056H29.3607L29.5147 49.994C29.7387 49.658 30.0327 49.392 30.3967 49.196C30.77 48.9907 31.1994 48.888 31.6847 48.888C32.758 48.888 33.5187 49.3033 33.9667 50.134C34.2187 49.7513 34.5547 49.448 34.9747 49.224C35.404 49 35.8707 48.888 36.3747 48.888C37.28 48.888 37.9754 49.1587 38.4607 49.7C38.946 50.2413 39.1887 51.0347 39.1887 52.08V56H37.3967V52.248C37.3967 51.6507 37.28 51.1933 37.0467 50.876C36.8227 50.5587 36.4727 50.4 35.9967 50.4C35.5114 50.4 35.1194 50.5773 34.8207 50.932C34.5314 51.2867 34.3867 51.7813 34.3867 52.416V56H32.5947V52.248C32.5947 51.6507 32.478 51.1933 32.2447 50.876C32.0114 50.5587 31.652 50.4 31.1667 50.4C30.6907 50.4 30.3034 50.5773 30.0047 50.932C29.7154 51.2867 29.5707 51.7813 29.5707 52.416V56H27.7787ZM44.264 56.168C43.564 56.168 42.9434 56.0187 42.402 55.72C41.8607 55.4213 41.436 55.0013 41.128 54.46C40.82 53.9187 40.666 53.2933 40.666 52.584C40.666 51.8653 40.8154 51.226 41.114 50.666C41.422 50.106 41.842 49.672 42.374 49.364C42.9154 49.0467 43.55 48.888 44.278 48.888C44.9594 48.888 45.5614 49.0373 46.084 49.336C46.6067 49.6347 47.0127 50.0453 47.302 50.568C47.6007 51.0813 47.75 51.6553 47.75 52.29C47.75 52.3927 47.7454 52.5 47.736 52.612C47.736 52.724 47.7314 52.8407 47.722 52.962H42.444C42.4814 53.5033 42.668 53.928 43.004 54.236C43.3494 54.544 43.7647 54.698 44.25 54.698C44.614 54.698 44.9174 54.6187 45.16 54.46C45.412 54.292 45.5987 54.0773 45.72 53.816H47.54C47.4094 54.2547 47.19 54.656 46.882 55.02C46.5834 55.3747 46.21 55.6547 45.762 55.86C45.3234 56.0653 44.824 56.168 44.264 56.168ZM44.278 50.344C43.8394 50.344 43.452 50.47 43.116 50.722C42.78 50.9647 42.5654 51.338 42.472 51.842H45.93C45.902 51.3847 45.734 51.0207 45.426 50.75C45.118 50.4793 44.7354 50.344 44.278 50.344Z" fill="#FFE500"/>
<path d="M19.6824 4.30461L19.6824 4.30475L17.3359 32.6486C17.3359 32.6486 17.3359 32.6486 17.3359 32.6486C17.2735 33.4053 17.8389 34.073 18.5952 34.1354L18.5953 34.1355L18.9591 34.1655C18.5548 33.9045 18.2129 33.5519 17.9592 33.1272C17.5251 32.4001 17.3999 31.546 17.6064 30.725L17.6064 30.7248L24.512 3.32182L21.1695 3.04539C21.1694 3.04539 21.1694 3.04539 21.1693 3.04538C20.7997 3.01522 20.4456 3.12946 20.1647 3.367L19.6824 4.30461ZM19.6824 4.30461C19.7125 3.93775 19.8836 3.60535 20.1644 3.36718L19.6824 4.30461ZM46.1529 8.58812L46.1529 8.58801C46.3594 7.76693 46.2342 6.91286 45.8001 6.18579C45.3659 5.45872 44.6729 4.94297 43.8516 4.73641L28.4088 0.845115L28.4087 0.845092C27.3294 0.573569 26.2465 0.900809 25.487 1.60156L21.3186 1.25672C21.3185 1.25671 21.3184 1.2567 21.3183 1.25669C20.4724 1.18436 19.6513 1.45069 19.0056 1.99745C18.3593 2.54467 17.9639 3.31229 17.8943 4.15677L17.8793 4.33788L14.6243 4.64579C14.6243 4.6458 14.6242 4.6458 14.6242 4.6458C13.7811 4.72522 13.0178 5.1298 12.4783 5.78237C11.9389 6.43492 11.6849 7.26012 11.7643 8.10306L11.7643 8.10317L14.4435 36.4173C14.5989 38.0588 15.9847 39.2919 17.6002 39.2919C17.6991 39.2919 17.7998 39.2877 17.9015 39.2778C17.9016 39.2778 17.9016 39.2778 17.9017 39.2778L32.9209 37.8561L35.3512 38.4685C35.6104 38.5338 35.8699 38.5648 36.1264 38.5648C37.5453 38.5648 38.8407 37.6047 39.2029 36.1667C39.2029 36.1667 39.2029 36.1667 39.2029 36.1666L46.1529 8.58812ZM27.9698 2.58538L27.97 2.58541L43.4141 6.47737C43.4142 6.47738 43.4142 6.47738 43.4142 6.47739C44.1506 6.66316 44.5989 7.41368 44.4132 8.14992L44.4132 8.14997L37.4632 35.7291C37.4632 35.7291 37.4632 35.7292 37.4632 35.7292C37.2773 36.4659 36.5279 36.915 35.7909 36.7283L35.7906 36.7282L20.3464 32.8362L20.3463 32.8362C19.6102 32.6511 19.1616 31.9001 19.3474 31.1637L19.3474 31.1636L26.2974 3.58443L26.2974 3.58431C26.4825 2.84825 27.2347 2.39969 27.9698 2.58538ZM13.8613 6.92661L13.8615 6.92643C14.0962 6.64235 14.4263 6.46793 14.7929 6.43336L14.793 6.43335L17.7279 6.15586L15.7005 30.6491L13.5512 7.93511C13.5512 7.93508 13.5512 7.93505 13.5512 7.93503C13.5166 7.56775 13.6266 7.21014 13.8613 6.92661ZM16.0665 34.5167C16.5855 35.297 17.4431 35.8418 18.4472 35.9248L26.8948 36.6238L17.7321 37.4909L17.7307 37.4911C16.9793 37.5664 16.3023 37.0062 16.2304 36.249L16.0665 34.5167Z" fill="#FFE500" stroke="#FFE500" stroke-width="0.5"/>
<path d="M30.9771 21.4047C31.2853 21.4047 31.5683 21.3076 31.8059 21.1464C31.4174 21.7052 30.8748 22.1442 30.2338 22.3973L32.544 23.1477L32.4061 22.8564C32.1652 22.3475 32.0584 21.7887 32.0811 21.2273C32.3193 21.7324 32.8289 22.0833 33.4246 22.0833C34.2495 22.0833 34.9183 21.4145 34.9183 20.5896C34.9183 19.878 34.4198 19.2849 33.7529 19.1347C34.1504 18.8666 34.4113 18.4121 34.4113 17.8961C34.4113 17.0712 33.7425 16.4023 32.9176 16.4023C32.0927 16.4023 31.4239 17.0712 31.4239 17.8961C31.4239 18.1298 31.4822 18.3474 31.5773 18.5442C31.3935 18.4633 31.1908 18.4166 30.9771 18.4166C30.1522 18.4166 29.4834 19.0855 29.4834 19.9104C29.4834 20.7352 30.1522 21.4047 30.9771 21.4047Z" fill="#FFE500"/>
<path d="M28.1053 6.25164C28.2108 6.25164 28.3079 6.21797 28.3889 6.16293C28.2555 6.35394 28.0703 6.5048 27.8508 6.59156L28.642 6.84861L28.5947 6.7489C28.5119 6.57473 28.4756 6.38307 28.4834 6.19077C28.565 6.36365 28.7391 6.48408 28.9437 6.48408C29.226 6.48408 29.4552 6.25487 29.4552 5.97257C29.4552 5.72912 29.2843 5.52581 29.0564 5.47466C29.1924 5.38272 29.2817 5.22733 29.2817 5.05057C29.2817 4.76827 29.0525 4.53906 28.7702 4.53906C28.4879 4.53906 28.2587 4.76827 28.2587 5.05057C28.2587 5.13021 28.2788 5.20531 28.3112 5.27265C28.2483 5.24481 28.1791 5.22862 28.1053 5.22862C27.823 5.22862 27.5938 5.45783 27.5938 5.74013C27.5938 6.02243 27.823 6.25164 28.1053 6.25164Z" fill="#FFE500"/>
<path d="M34.5576 33.7668C34.5576 34.0491 34.7868 34.2783 35.0691 34.2783C35.1747 34.2783 35.2718 34.2453 35.3527 34.1896C35.2193 34.3806 35.0342 34.5315 34.8147 34.6183L35.6059 34.8753L35.5586 34.7756C35.4764 34.6014 35.4395 34.4098 35.4472 34.2181C35.5288 34.391 35.703 34.5114 35.9076 34.5114C36.1899 34.5114 36.4191 34.2822 36.4191 33.9999C36.4191 33.7565 36.2482 33.5532 36.0203 33.502C36.1562 33.4101 36.2456 33.2547 36.2456 33.0779C36.2456 32.7956 36.0164 32.5664 35.7341 32.5664C35.4518 32.5664 35.2226 32.7956 35.2226 33.0779C35.2226 33.1575 35.2426 33.2327 35.275 33.3C35.2122 33.2722 35.1429 33.256 35.0691 33.256C34.7868 33.256 34.5576 33.4845 34.5576 33.7668Z" fill="#FFE500"/>
</svg>
