<svg width="63" height="67" viewBox="0 0 63 67" fill="none" xmlns="http://www.w3.org/2000/svg">
<path d="M14.4534 63.192C13.3974 63.192 12.4748 62.952 11.6854 62.472C10.8961 61.992 10.2828 61.32 9.84543 60.456C9.4081 59.592 9.18943 58.584 9.18943 57.432C9.18943 56.2907 9.41343 55.2827 9.86143 54.408C10.3094 53.5333 10.9441 52.8507 11.7654 52.36C12.5974 51.8587 13.5788 51.608 14.7094 51.608C15.9894 51.608 17.0561 51.9173 17.9094 52.536C18.7628 53.1547 19.3174 54.008 19.5734 55.096H17.6534C17.4828 54.4987 17.1468 54.0293 16.6454 53.688C16.1441 53.3467 15.4988 53.176 14.7094 53.176C13.5361 53.176 12.6134 53.5547 11.9414 54.312C11.2694 55.0693 10.9334 56.1147 10.9334 57.448C10.9334 58.7813 11.2641 59.8213 11.9254 60.568C12.5868 61.3147 13.4668 61.688 14.5654 61.688C15.6748 61.688 16.5068 61.3733 17.0614 60.744C17.6268 60.1147 17.9574 59.2773 18.0534 58.232H15.0134V56.92H19.7654V63H18.2134L18.0694 61.352C17.6961 61.9387 17.2268 62.392 16.6614 62.712C16.0961 63.032 15.3601 63.192 14.4534 63.192ZM24.4478 63.192C23.7758 63.192 23.2211 63.08 22.7838 62.856C22.3465 62.632 22.0211 62.3387 21.8078 61.976C21.5945 61.6027 21.4878 61.1973 21.4878 60.76C21.4878 59.992 21.7865 59.384 22.3838 58.936C22.9811 58.488 23.8345 58.264 24.9438 58.264H27.0238V58.12C27.0238 57.5013 26.8531 57.0373 26.5118 56.728C26.1811 56.4187 25.7491 56.264 25.2158 56.264C24.7465 56.264 24.3358 56.3813 23.9838 56.616C23.6425 56.84 23.4345 57.176 23.3598 57.624H21.6638C21.7171 57.048 21.9091 56.5573 22.2398 56.152C22.5811 55.736 23.0078 55.4213 23.5198 55.208C24.0425 54.984 24.6131 54.872 25.2318 54.872C26.3411 54.872 27.1998 55.1653 27.8078 55.752C28.4158 56.328 28.7198 57.1173 28.7198 58.12V63H27.2478L27.1038 61.64C26.8798 62.0773 26.5545 62.4453 26.1278 62.744C25.7011 63.0427 25.1411 63.192 24.4478 63.192ZM24.7838 61.816C25.2425 61.816 25.6265 61.7093 25.9358 61.496C26.2558 61.272 26.5011 60.9787 26.6718 60.616C26.8531 60.2533 26.9651 59.8533 27.0078 59.416H25.1198C24.4478 59.416 23.9678 59.5333 23.6798 59.768C23.4025 60.0027 23.2638 60.296 23.2638 60.648C23.2638 61.0107 23.3971 61.2987 23.6638 61.512C23.9411 61.7147 24.3145 61.816 24.7838 61.816ZM30.6973 63V55.064H32.2013L32.3453 56.184C32.6013 55.7787 32.9373 55.4587 33.3533 55.224C33.78 54.9893 34.2706 54.872 34.8253 54.872C36.084 54.872 36.9586 55.368 37.4493 56.36C37.7373 55.9013 38.1213 55.5387 38.6013 55.272C39.092 55.0053 39.62 54.872 40.1853 54.872C41.1773 54.872 41.956 55.1707 42.5213 55.768C43.0866 56.3653 43.3693 57.256 43.3693 58.44V63H41.6733V58.616C41.6733 57.08 41.0866 56.312 39.9133 56.312C39.316 56.312 38.8253 56.536 38.4413 56.984C38.068 57.432 37.8813 58.072 37.8813 58.904V63H36.1853V58.616C36.1853 57.08 35.5933 56.312 34.4093 56.312C33.8226 56.312 33.3373 56.536 32.9533 56.984C32.58 57.432 32.3933 58.072 32.3933 58.904V63H30.6973ZM49.0656 63.192C48.2869 63.192 47.5936 63.0213 46.9856 62.68C46.3882 62.328 45.9189 61.8427 45.5776 61.224C45.2362 60.6053 45.0656 59.8853 45.0656 59.064C45.0656 58.232 45.2309 57.5013 45.5616 56.872C45.9029 56.2427 46.3722 55.752 46.9696 55.4C47.5776 55.048 48.2816 54.872 49.0816 54.872C49.8602 54.872 50.5376 55.048 51.1136 55.4C51.6896 55.7413 52.1376 56.2 52.4576 56.776C52.7776 57.352 52.9376 57.9867 52.9376 58.68C52.9376 58.7867 52.9322 58.904 52.9216 59.032C52.9216 59.1493 52.9162 59.2827 52.9056 59.432H46.7296C46.7829 60.2 47.0336 60.7867 47.4816 61.192C47.9402 61.5867 48.4682 61.784 49.0656 61.784C49.5456 61.784 49.9456 61.6773 50.2656 61.464C50.5962 61.24 50.8416 60.9413 51.0016 60.568H52.6976C52.4842 61.3147 52.0576 61.9387 51.4176 62.44C50.7882 62.9413 50.0042 63.192 49.0656 63.192ZM49.0656 56.264C48.5002 56.264 47.9989 56.4347 47.5616 56.776C47.1242 57.1067 46.8576 57.608 46.7616 58.28H51.2416C51.2096 57.6613 50.9909 57.1707 50.5856 56.808C50.1802 56.4453 49.6736 56.264 49.0656 56.264Z" fill="#FFE500"/>
<path d="M17.279 30.4016C15.9362 31.384 15.6439 33.2689 16.6263 34.6117C17.6086 35.9545 19.4935 36.2468 20.8363 35.2644C22.1791 34.2821 22.4714 32.3972 21.489 31.0544C20.5067 29.7116 18.6218 29.4193 17.279 30.4016Z" fill="#FFE500"/>
<path d="M19.1257 18.4778C17.7829 19.4601 17.4906 21.3451 18.4729 22.6879C19.4553 24.0307 21.3402 24.3229 22.683 23.3406C24.0258 22.3583 24.318 20.4734 23.3357 19.1306C22.3534 17.7877 20.4685 17.4955 19.1257 18.4778Z" fill="#FFE500"/>
<path d="M20.9792 6.54618C19.6364 7.52851 19.3441 9.41341 20.3265 10.7562C21.3088 12.0991 23.1937 12.3913 24.5365 11.409C25.8793 10.4266 26.1716 8.54174 25.1892 7.19891C24.2069 5.85609 22.322 5.56385 20.9792 6.54618Z" fill="#FFE500"/>
<path d="M7.19794 16.6263C5.85512 17.6086 5.56288 19.4935 6.5452 20.8363C7.52753 22.1791 9.41243 22.4714 10.7553 21.489C12.0981 20.5067 12.3903 18.6218 11.408 17.279C10.4257 15.9362 8.54076 15.6439 7.19794 16.6263Z" fill="#FFE500"/>
<path d="M33.4555 10.9916L27.6011 2.9887C25.8203 0.554372 22.388 0.0222197 19.9537 1.80302L2.9887 14.2136C0.554373 15.9944 0.0222185 19.4267 1.80302 21.861L14.2136 38.826C15.9944 41.2603 19.4267 41.7925 21.861 40.0117L29.904 34.1279L30.8941 38.6655C31.5371 41.6123 34.4598 43.4882 37.4066 42.8454L57.9434 38.3659C60.8902 37.7231 62.7667 34.7998 62.1238 31.853L59.3241 19.0175L58.1343 13.5625L57.7756 11.9179L57.6782 11.4717L57.6529 11.3557L57.6465 11.3262L57.6449 11.3188L57.6445 11.3169L57.6444 11.3164C57.6443 11.3163 57.6443 11.3163 57.4001 11.3695L57.6443 11.3163C57.4837 10.5798 57.1802 9.9095 56.7695 9.32899C55.5386 7.58909 53.3422 6.65353 51.1314 7.13578L39.9846 9.56731L35.2472 10.6007L33.8191 10.9123L33.4555 10.9916ZM55.585 10.1606C55.8858 10.5873 56.1081 11.0806 56.2269 11.6252L60.7068 32.1625C61.1814 34.3382 59.8103 36.4739 57.6344 36.9485L37.0977 41.428C34.9219 41.9026 32.7857 40.5318 32.3112 38.356L27.8316 17.8193C27.357 15.6435 28.7279 13.5073 30.9036 13.0327L51.4403 8.55322C53.0722 8.19729 54.682 8.87939 55.585 10.1606ZM26.4305 3.84509L31.9058 11.3298L30.5942 11.6157C27.6471 12.2581 25.7714 15.1814 26.4142 18.1282L29.5663 32.5778L21.0046 38.841C19.2073 40.1558 16.6991 39.7669 15.3842 37.9696L2.9737 21.0046C1.65886 19.2073 2.04773 16.6991 3.84509 15.3842L20.8101 2.9737C22.6074 1.65886 25.1156 2.04773 26.4305 3.84509Z" fill="#FFE500" stroke="#FFE500" stroke-width="0.5"/>
<path d="M37.1075 32.2046C35.4819 32.5592 34.4516 34.1644 34.8062 35.79C35.1608 37.4155 36.766 38.4458 38.3915 38.0912C40.0171 37.7366 41.0474 36.1314 40.6928 34.5059C40.3382 32.8803 38.733 31.85 37.1075 32.2046Z" fill="#FFE500"/>
<path d="M53.7871 28.5698C52.1616 28.9244 51.1313 30.5296 51.4859 32.1552C51.8404 33.7807 53.4457 34.811 55.0712 34.4565C56.6968 34.1019 57.7271 32.4967 57.3725 30.8711C57.0179 29.2456 55.4127 28.2153 53.7871 28.5698Z" fill="#FFE500"/>
<path d="M50.1475 11.8902C48.5219 12.2447 47.4916 13.85 47.8462 15.4755C48.2008 17.1011 49.806 18.1314 51.4316 17.7768C53.0571 17.4222 54.0874 15.817 53.7328 14.1914C53.3782 12.5659 51.773 11.5356 50.1475 11.8902Z" fill="#FFE500"/>
<path d="M33.4678 15.5249C31.8423 15.8795 30.8119 17.4847 31.1665 19.1103C31.5211 20.7358 33.1263 21.7661 34.7519 21.4116C36.3774 21.057 37.4077 19.4517 37.0532 17.8262C36.6986 16.2007 35.0933 15.1703 33.4678 15.5249Z" fill="#FFE500"/>
</svg>
