<svg width="214" height="237" viewBox="0 0 214 237" fill="none" xmlns="http://www.w3.org/2000/svg">
<g filter="url(#filter0_d)">
<rect x="2" y="20.2988" width="210" height="213.559" rx="20" fill="#992EDB"/>
</g>
<path d="M33.1445 10.7227C33.1445 5.19981 37.6217 0.722656 43.1445 0.722656H170.856C176.379 0.722656 180.856 5.19981 180.856 10.7227V20.2989H33.1445V10.7227Z" fill="#F12587"/>
<path d="M92.043 15.67C91.119 15.67 90.3117 15.46 89.621 15.04C88.9304 14.62 88.3937 14.0366 88.011 13.29C87.6284 12.534 87.437 11.6566 87.437 10.658C87.437 9.64995 87.633 8.76329 88.025 7.99795C88.4264 7.22329 88.991 6.62129 89.719 6.19195C90.4564 5.75329 91.329 5.53395 92.337 5.53395C93.485 5.53395 94.437 5.80929 95.193 6.35995C95.949 6.91062 96.439 7.67129 96.663 8.64195H94.661C94.5117 8.18462 94.241 7.82995 93.849 7.57795C93.457 7.31662 92.953 7.18595 92.337 7.18595C91.357 7.18595 90.601 7.49862 90.069 8.12395C89.537 8.73995 89.271 9.58929 89.271 10.672C89.271 11.7546 89.5324 12.5946 90.055 13.192C90.587 13.78 91.3057 14.074 92.211 14.074C93.0977 14.074 93.765 13.836 94.213 13.36C94.6704 12.8746 94.9457 12.24 95.039 11.456H92.561V10.112H96.845V15.502H95.193L95.053 14.214C94.7357 14.6806 94.339 15.04 93.863 15.292C93.387 15.544 92.7804 15.67 92.043 15.67ZM100.939 15.67C100.342 15.67 99.8518 15.5766 99.4691 15.39C99.0865 15.194 98.8018 14.9373 98.6151 14.62C98.4285 14.3026 98.3351 13.9526 98.3351 13.57C98.3351 12.926 98.5871 12.4033 99.0911 12.002C99.5951 11.6006 100.351 11.4 101.359 11.4H103.123V11.232C103.123 10.756 102.988 10.406 102.717 10.182C102.446 9.95795 102.11 9.84595 101.709 9.84595C101.345 9.84595 101.028 9.93462 100.757 10.112C100.486 10.28 100.318 10.532 100.253 10.868H98.5031C98.5498 10.364 98.7178 9.92529 99.0071 9.55195C99.3058 9.17862 99.6885 8.89395 100.155 8.69795C100.622 8.49262 101.144 8.38995 101.723 8.38995C102.712 8.38995 103.492 8.63729 104.061 9.13195C104.63 9.62662 104.915 10.3266 104.915 11.232V15.502H103.389L103.221 14.382C103.016 14.7553 102.726 15.0633 102.353 15.306C101.989 15.5486 101.518 15.67 100.939 15.67ZM101.345 14.27C101.858 14.27 102.255 14.102 102.535 13.766C102.824 13.43 103.006 13.0146 103.081 12.52H101.555C101.079 12.52 100.738 12.6086 100.533 12.786C100.328 12.954 100.225 13.164 100.225 13.416C100.225 13.6866 100.328 13.8966 100.533 14.046C100.738 14.1953 101.009 14.27 101.345 14.27ZM106.625 15.502V8.55795H108.207L108.361 9.49595C108.585 9.15995 108.879 8.89395 109.243 8.69795C109.617 8.49262 110.046 8.38995 110.531 8.38995C111.605 8.38995 112.365 8.80529 112.813 9.63595C113.065 9.25329 113.401 8.94995 113.821 8.72595C114.251 8.50195 114.717 8.38995 115.221 8.38995C116.127 8.38995 116.822 8.66062 117.307 9.20195C117.793 9.74329 118.035 10.5366 118.035 11.582V15.502H116.243V11.75C116.243 11.1526 116.127 10.6953 115.893 10.378C115.669 10.0606 115.319 9.90195 114.843 9.90195C114.358 9.90195 113.966 10.0793 113.667 10.434C113.378 10.7886 113.233 11.2833 113.233 11.918V15.502H111.441V11.75C111.441 11.1526 111.325 10.6953 111.091 10.378C110.858 10.0606 110.499 9.90195 110.013 9.90195C109.537 9.90195 109.15 10.0793 108.851 10.434C108.562 10.7886 108.417 11.2833 108.417 11.918V15.502H106.625ZM123.111 15.67C122.411 15.67 121.79 15.5206 121.249 15.222C120.707 14.9233 120.283 14.5033 119.975 13.962C119.667 13.4206 119.513 12.7953 119.513 12.086C119.513 11.3673 119.662 10.728 119.961 10.168C120.269 9.60795 120.689 9.17395 121.221 8.86595C121.762 8.54862 122.397 8.38995 123.125 8.38995C123.806 8.38995 124.408 8.53929 124.931 8.83795C125.453 9.13662 125.859 9.54729 126.149 10.07C126.447 10.5833 126.597 11.1573 126.597 11.792C126.597 11.8946 126.592 12.002 126.583 12.114C126.583 12.226 126.578 12.3426 126.569 12.464H121.291C121.328 13.0053 121.515 13.43 121.851 13.738C122.196 14.046 122.611 14.2 123.097 14.2C123.461 14.2 123.764 14.1206 124.007 13.962C124.259 13.794 124.445 13.5793 124.567 13.318H126.387C126.256 13.7566 126.037 14.158 125.729 14.522C125.43 14.8766 125.057 15.1566 124.609 15.362C124.17 15.5673 123.671 15.67 123.111 15.67ZM123.125 9.84595C122.686 9.84595 122.299 9.97195 121.963 10.224C121.627 10.4666 121.412 10.84 121.319 11.344H124.777C124.749 10.8866 124.581 10.5226 124.273 10.252C123.965 9.98129 123.582 9.84595 123.125 9.84595Z" fill="white"/>
<path d="M45.1866 89.5371L49.0566 79.0371H50.3916L54.2466 89.5371H52.9116L51.9516 86.8371H47.4816L46.5066 89.5371H45.1866ZM47.8566 85.8171H51.5766L49.7166 80.6271L47.8566 85.8171ZM60.1073 89.5371V83.1621H58.9823V82.0971H60.1073V80.8071C60.1073 80.0871 60.2873 79.5621 60.6473 79.2321C61.0073 78.9021 61.5323 78.7371 62.2223 78.7371H62.9723V79.8171H62.4173C62.0373 79.8171 61.7673 79.8971 61.6073 80.0571C61.4473 80.2071 61.3673 80.4671 61.3673 80.8371V82.0971H63.1973V83.1621H61.3673V89.5371H60.1073ZM67.4124 89.7171C66.5324 89.7171 65.8324 89.4521 65.3124 88.9221C64.7924 88.3821 64.5324 87.5571 64.5324 86.4471V82.0971H65.7924V86.3121C65.7924 87.8621 66.4274 88.6371 67.6974 88.6371C68.3474 88.6371 68.8824 88.4071 69.3024 87.9471C69.7324 87.4771 69.9474 86.8121 69.9474 85.9521V82.0971H71.2074V89.5371H70.0674L69.9774 88.2021C69.7474 88.6721 69.4024 89.0421 68.9424 89.3121C68.4924 89.5821 67.9824 89.7171 67.4124 89.7171ZM73.2814 89.5371V82.0971H74.4214L74.4964 83.4321C74.7364 82.9621 75.0814 82.5921 75.5314 82.3221C75.9814 82.0521 76.4914 81.9171 77.0614 81.9171C77.9414 81.9171 78.6414 82.1871 79.1614 82.7271C79.6914 83.2571 79.9564 84.0771 79.9564 85.1871V89.5371H78.6964V85.3221C78.6964 83.7721 78.0564 82.9971 76.7764 82.9971C76.1364 82.9971 75.6014 83.2321 75.1714 83.7021C74.7514 84.1621 74.5414 84.8221 74.5414 85.6821V89.5371H73.2814ZM88.7751 87.1971C88.3551 87.1971 87.9701 87.1421 87.6201 87.0321L86.8701 87.7371C86.9801 87.8171 87.1151 87.8871 87.2751 87.9471C87.4451 87.9971 87.6851 88.0471 87.9951 88.0971C88.3051 88.1371 88.7401 88.1821 89.3001 88.2321C90.3001 88.3021 91.0151 88.5321 91.4451 88.9221C91.8751 89.3121 92.0901 89.8221 92.0901 90.4521C92.0901 90.8821 91.9701 91.2921 91.7301 91.6821C91.5001 92.0721 91.1401 92.3921 90.6501 92.6421C90.1701 92.8921 89.5501 93.0171 88.7901 93.0171C88.1201 93.0171 87.5251 92.9271 87.0051 92.7471C86.4851 92.5771 86.0801 92.3121 85.7901 91.9521C85.5001 91.6021 85.3551 91.1571 85.3551 90.6171C85.3551 90.3371 85.4301 90.0321 85.5801 89.7021C85.7301 89.3821 86.0101 89.0771 86.4201 88.7871C86.2001 88.6971 86.0101 88.6021 85.8501 88.5021C85.7001 88.3921 85.5601 88.2721 85.4301 88.1421V87.7971L86.7051 86.5371C86.1151 86.0371 85.8201 85.3771 85.8201 84.5571C85.8201 84.0671 85.9351 83.6221 86.1651 83.2221C86.3951 82.8221 86.7301 82.5071 87.1701 82.2771C87.6101 82.0371 88.1451 81.9171 88.7751 81.9171C89.2051 81.9171 89.5951 81.9771 89.9451 82.0971H92.6901V83.0421L91.2951 83.1021C91.5851 83.5221 91.7301 84.0071 91.7301 84.5571C91.7301 85.0471 91.6101 85.4921 91.3701 85.8921C91.1401 86.2921 90.8051 86.6121 90.3651 86.8521C89.9351 87.0821 89.4051 87.1971 88.7751 87.1971ZM88.7751 86.1621C89.3051 86.1621 89.7251 86.0271 90.0351 85.7571C90.3551 85.4771 90.5151 85.0771 90.5151 84.5571C90.5151 84.0471 90.3551 83.6571 90.0351 83.3871C89.7251 83.1071 89.3051 82.9671 88.7751 82.9671C88.2351 82.9671 87.8051 83.1071 87.4851 83.3871C87.1751 83.6571 87.0201 84.0471 87.0201 84.5571C87.0201 85.0771 87.1751 85.4771 87.4851 85.7571C87.8051 86.0271 88.2351 86.1621 88.7751 86.1621ZM86.5851 90.4971C86.5851 90.9971 86.7951 91.3671 87.2151 91.6071C87.6351 91.8571 88.1601 91.9821 88.7901 91.9821C89.4101 91.9821 89.9051 91.8471 90.2751 91.5771C90.6551 91.3071 90.8451 90.9471 90.8451 90.4971C90.8451 90.1771 90.7151 89.8971 90.4551 89.6571C90.1951 89.4271 89.7151 89.2921 89.0151 89.2521C88.4651 89.2121 87.9901 89.1621 87.5901 89.1021C87.1801 89.3221 86.9101 89.5571 86.7801 89.8071C86.6501 90.0671 86.5851 90.2971 86.5851 90.4971ZM96.5864 89.7171C95.9664 89.7171 95.4514 89.6121 95.0414 89.4021C94.6314 89.1921 94.3264 88.9121 94.1264 88.5621C93.9264 88.2121 93.8264 87.8321 93.8264 87.4221C93.8264 86.6621 94.1164 86.0771 94.6964 85.6671C95.2764 85.2571 96.0664 85.0521 97.0664 85.0521H99.0764V84.9621C99.0764 84.3121 98.9064 83.8221 98.5664 83.4921C98.2264 83.1521 97.7714 82.9821 97.2014 82.9821C96.7114 82.9821 96.2864 83.1071 95.9264 83.3571C95.5764 83.5971 95.3564 83.9521 95.2664 84.4221H93.9764C94.0264 83.8821 94.2064 83.4271 94.5164 83.0571C94.8364 82.6871 95.2314 82.4071 95.7014 82.2171C96.1714 82.0171 96.6714 81.9171 97.2014 81.9171C98.2414 81.9171 99.0214 82.1971 99.5414 82.7571C100.071 83.3071 100.336 84.0421 100.336 84.9621V89.5371H99.2114L99.1364 88.2021C98.9264 88.6221 98.6164 88.9821 98.2064 89.2821C97.8064 89.5721 97.2664 89.7171 96.5864 89.7171ZM96.7814 88.6521C97.2614 88.6521 97.6714 88.5271 98.0114 88.2771C98.3614 88.0271 98.6264 87.7021 98.8064 87.3021C98.9864 86.9021 99.0764 86.4821 99.0764 86.0421V86.0271H97.1714C96.4314 86.0271 95.9064 86.1571 95.5964 86.4171C95.2964 86.6671 95.1464 86.9821 95.1464 87.3621C95.1464 87.7521 95.2864 88.0671 95.5664 88.3071C95.8564 88.5371 96.2614 88.6521 96.7814 88.6521ZM102.227 89.5371V82.0971H103.367L103.457 83.1771C103.697 82.7771 104.017 82.4671 104.417 82.2471C104.817 82.0271 105.267 81.9171 105.767 81.9171C106.357 81.9171 106.862 82.0371 107.282 82.2771C107.712 82.5171 108.042 82.8821 108.272 83.3721C108.532 82.9221 108.887 82.5671 109.337 82.3071C109.797 82.0471 110.292 81.9171 110.822 81.9171C111.712 81.9171 112.422 82.1871 112.952 82.7271C113.482 83.2571 113.747 84.0771 113.747 85.1871V89.5371H112.502V85.3221C112.502 84.5521 112.347 83.9721 112.037 83.5821C111.727 83.1921 111.282 82.9971 110.702 82.9971C110.102 82.9971 109.602 83.2321 109.202 83.7021C108.812 84.1621 108.617 84.8221 108.617 85.6821V89.5371H107.357V85.3221C107.357 84.5521 107.202 83.9721 106.892 83.5821C106.582 83.1921 106.137 82.9971 105.557 82.9971C104.967 82.9971 104.472 83.2321 104.072 83.7021C103.682 84.1621 103.487 84.8221 103.487 85.6821V89.5371H102.227ZM118.99 89.7171C118.28 89.7171 117.65 89.5571 117.1 89.2371C116.55 88.9071 116.115 88.4521 115.795 87.8721C115.485 87.2921 115.33 86.6071 115.33 85.8171C115.33 85.0371 115.485 84.3571 115.795 83.7771C116.105 83.1871 116.535 82.7321 117.085 82.4121C117.645 82.0821 118.29 81.9171 119.02 81.9171C119.74 81.9171 120.36 82.0821 120.88 82.4121C121.41 82.7321 121.815 83.1571 122.095 83.6871C122.375 84.2171 122.515 84.7871 122.515 85.3971C122.515 85.5071 122.51 85.6171 122.5 85.7271C122.5 85.8371 122.5 85.9621 122.5 86.1021H116.575C116.605 86.6721 116.735 87.1471 116.965 87.5271C117.205 87.8971 117.5 88.1771 117.85 88.3671C118.21 88.5571 118.59 88.6521 118.99 88.6521C119.51 88.6521 119.945 88.5321 120.295 88.2921C120.645 88.0521 120.9 87.7271 121.06 87.3171H122.305C122.105 88.0071 121.72 88.5821 121.15 89.0421C120.59 89.4921 119.87 89.7171 118.99 89.7171ZM118.99 82.9821C118.39 82.9821 117.855 83.1671 117.385 83.5371C116.925 83.8971 116.66 84.4271 116.59 85.1271H121.27C121.24 84.4571 121.01 83.9321 120.58 83.5521C120.15 83.1721 119.62 82.9821 118.99 82.9821ZM129.654 89.5371L127.479 82.0971H128.739L130.314 87.9321L132.054 82.0971H133.479L135.234 87.9321L136.794 82.0971H138.069L135.894 89.5371H134.604L132.774 83.4021L130.944 89.5371H129.654ZM139.463 89.5371V78.7371H140.723V83.3721C140.973 82.9121 141.328 82.5571 141.788 82.3071C142.248 82.0471 142.748 81.9171 143.288 81.9171C144.148 81.9171 144.838 82.1871 145.358 82.7271C145.878 83.2571 146.138 84.0771 146.138 85.1871V89.5371H144.893V85.3221C144.893 83.7721 144.268 82.9971 143.018 82.9971C142.368 82.9971 141.823 83.2321 141.383 83.7021C140.943 84.1621 140.723 84.8221 140.723 85.6821V89.5371H139.463ZM151.392 89.7171C150.682 89.7171 150.052 89.5571 149.502 89.2371C148.952 88.9071 148.517 88.4521 148.197 87.8721C147.887 87.2921 147.732 86.6071 147.732 85.8171C147.732 85.0371 147.887 84.3571 148.197 83.7771C148.507 83.1871 148.937 82.7321 149.487 82.4121C150.047 82.0821 150.692 81.9171 151.422 81.9171C152.142 81.9171 152.762 82.0821 153.282 82.4121C153.812 82.7321 154.217 83.1571 154.497 83.6871C154.777 84.2171 154.917 84.7871 154.917 85.3971C154.917 85.5071 154.912 85.6171 154.902 85.7271C154.902 85.8371 154.902 85.9621 154.902 86.1021H148.977C149.007 86.6721 149.137 87.1471 149.367 87.5271C149.607 87.8971 149.902 88.1771 150.252 88.3671C150.612 88.5571 150.992 88.6521 151.392 88.6521C151.912 88.6521 152.347 88.5321 152.697 88.2921C153.047 88.0521 153.302 87.7271 153.462 87.3171H154.707C154.507 88.0071 154.122 88.5821 153.552 89.0421C152.992 89.4921 152.272 89.7171 151.392 89.7171ZM151.392 82.9821C150.792 82.9821 150.257 83.1671 149.787 83.5371C149.327 83.8971 149.062 84.4271 148.992 85.1271H153.672C153.642 84.4571 153.412 83.9321 152.982 83.5521C152.552 83.1721 152.022 82.9821 151.392 82.9821ZM156.587 89.5371V82.0971H157.727L157.832 83.5221C158.062 83.0321 158.412 82.6421 158.882 82.3521C159.352 82.0621 159.932 81.9171 160.622 81.9171V83.2371H160.277C159.837 83.2371 159.432 83.3171 159.062 83.4771C158.692 83.6271 158.397 83.8871 158.177 84.2571C157.957 84.6271 157.847 85.1371 157.847 85.7871V89.5371H156.587ZM165.103 89.7171C164.393 89.7171 163.763 89.5571 163.213 89.2371C162.663 88.9071 162.228 88.4521 161.908 87.8721C161.598 87.2921 161.443 86.6071 161.443 85.8171C161.443 85.0371 161.598 84.3571 161.908 83.7771C162.218 83.1871 162.648 82.7321 163.198 82.4121C163.758 82.0821 164.403 81.9171 165.133 81.9171C165.853 81.9171 166.473 82.0821 166.993 82.4121C167.523 82.7321 167.928 83.1571 168.208 83.6871C168.488 84.2171 168.628 84.7871 168.628 85.3971C168.628 85.5071 168.623 85.6171 168.613 85.7271C168.613 85.8371 168.613 85.9621 168.613 86.1021H162.688C162.718 86.6721 162.848 87.1471 163.078 87.5271C163.318 87.8971 163.613 88.1771 163.963 88.3671C164.323 88.5571 164.703 88.6521 165.103 88.6521C165.623 88.6521 166.058 88.5321 166.408 88.2921C166.758 88.0521 167.013 87.7271 167.173 87.3171H168.418C168.218 88.0071 167.833 88.5821 167.263 89.0421C166.703 89.4921 165.983 89.7171 165.103 89.7171ZM165.103 82.9821C164.503 82.9821 163.968 83.1671 163.498 83.5371C163.038 83.8971 162.773 84.4271 162.703 85.1271H167.383C167.353 84.4571 167.123 83.9321 166.693 83.5521C166.263 83.1721 165.733 82.9821 165.103 82.9821ZM44.0065 112.837V102.097H45.1465L45.2665 103.327C45.5065 102.967 45.8465 102.642 46.2865 102.352C46.7365 102.062 47.3065 101.917 47.9965 101.917C48.7365 101.917 49.3815 102.087 49.9315 102.427C50.4815 102.767 50.9065 103.232 51.2065 103.822C51.5165 104.412 51.6715 105.082 51.6715 105.832C51.6715 106.582 51.5165 107.252 51.2065 107.842C50.9065 108.422 50.4765 108.882 49.9165 109.222C49.3665 109.552 48.7215 109.717 47.9815 109.717C47.3715 109.717 46.8265 109.592 46.3465 109.342C45.8765 109.092 45.5165 108.742 45.2665 108.292V112.837H44.0065ZM47.8465 108.622C48.3465 108.622 48.7865 108.507 49.1665 108.277C49.5465 108.037 49.8465 107.707 50.0665 107.287C50.2865 106.867 50.3965 106.377 50.3965 105.817C50.3965 105.257 50.2865 104.767 50.0665 104.347C49.8465 103.927 49.5465 103.602 49.1665 103.372C48.7865 103.132 48.3465 103.012 47.8465 103.012C47.3465 103.012 46.9065 103.132 46.5265 103.372C46.1465 103.602 45.8465 103.927 45.6265 104.347C45.4065 104.767 45.2965 105.257 45.2965 105.817C45.2965 106.377 45.4065 106.867 45.6265 107.287C45.8465 107.707 46.1465 108.037 46.5265 108.277C46.9065 108.507 47.3465 108.622 47.8465 108.622ZM53.4254 109.537V98.7371H54.6854V109.537H53.4254ZM59.2256 109.717C58.6056 109.717 58.0906 109.612 57.6806 109.402C57.2706 109.192 56.9656 108.912 56.7656 108.562C56.5656 108.212 56.4656 107.832 56.4656 107.422C56.4656 106.662 56.7556 106.077 57.3356 105.667C57.9156 105.257 58.7056 105.052 59.7056 105.052H61.7156V104.962C61.7156 104.312 61.5456 103.822 61.2056 103.492C60.8656 103.152 60.4106 102.982 59.8406 102.982C59.3506 102.982 58.9256 103.107 58.5656 103.357C58.2156 103.597 57.9956 103.952 57.9056 104.422H56.6156C56.6656 103.882 56.8456 103.427 57.1556 103.057C57.4756 102.687 57.8706 102.407 58.3406 102.217C58.8106 102.017 59.3106 101.917 59.8406 101.917C60.8806 101.917 61.6606 102.197 62.1806 102.757C62.7106 103.307 62.9756 104.042 62.9756 104.962V109.537H61.8506L61.7756 108.202C61.5656 108.622 61.2556 108.982 60.8456 109.282C60.4456 109.572 59.9056 109.717 59.2256 109.717ZM59.4206 108.652C59.9006 108.652 60.3106 108.527 60.6506 108.277C61.0006 108.027 61.2656 107.702 61.4456 107.302C61.6256 106.902 61.7156 106.482 61.7156 106.042V106.027H59.8106C59.0706 106.027 58.5456 106.157 58.2356 106.417C57.9356 106.667 57.7856 106.982 57.7856 107.362C57.7856 107.752 57.9256 108.067 58.2056 108.307C58.4956 108.537 58.9006 108.652 59.4206 108.652ZM65.4561 112.837L67.3011 108.817H66.8661L63.9111 102.097H65.2761L67.7361 107.887L70.3461 102.097H71.6511L66.7761 112.837H65.4561ZM75.623 109.717C74.913 109.717 74.283 109.557 73.733 109.237C73.183 108.907 72.748 108.452 72.428 107.872C72.118 107.292 71.963 106.607 71.963 105.817C71.963 105.037 72.118 104.357 72.428 103.777C72.738 103.187 73.168 102.732 73.718 102.412C74.278 102.082 74.923 101.917 75.653 101.917C76.373 101.917 76.993 102.082 77.513 102.412C78.043 102.732 78.448 103.157 78.728 103.687C79.008 104.217 79.148 104.787 79.148 105.397C79.148 105.507 79.143 105.617 79.133 105.727C79.133 105.837 79.133 105.962 79.133 106.102H73.208C73.238 106.672 73.368 107.147 73.598 107.527C73.838 107.897 74.133 108.177 74.483 108.367C74.843 108.557 75.223 108.652 75.623 108.652C76.143 108.652 76.578 108.532 76.928 108.292C77.278 108.052 77.533 107.727 77.693 107.317H78.938C78.738 108.007 78.353 108.582 77.783 109.042C77.223 109.492 76.503 109.717 75.623 109.717ZM75.623 102.982C75.023 102.982 74.488 103.167 74.018 103.537C73.558 103.897 73.293 104.427 73.223 105.127H77.903C77.873 104.457 77.643 103.932 77.213 103.552C76.783 103.172 76.253 102.982 75.623 102.982ZM80.818 109.537V102.097H81.958L82.063 103.522C82.293 103.032 82.643 102.642 83.113 102.352C83.583 102.062 84.163 101.917 84.853 101.917V103.237H84.508C84.068 103.237 83.663 103.317 83.293 103.477C82.923 103.627 82.628 103.887 82.408 104.257C82.188 104.627 82.078 105.137 82.078 105.787V109.537H80.818ZM89.1172 109.717C88.2272 109.717 87.4872 109.492 86.8972 109.042C86.3072 108.592 85.9622 107.982 85.8622 107.212H87.1522C87.2322 107.602 87.4372 107.942 87.7672 108.232C88.1072 108.512 88.5622 108.652 89.1322 108.652C89.6622 108.652 90.0522 108.542 90.3022 108.322C90.5522 108.092 90.6772 107.822 90.6772 107.512C90.6772 107.062 90.5122 106.762 90.1822 106.612C89.8622 106.462 89.4072 106.327 88.8172 106.207C88.4172 106.127 88.0172 106.012 87.6172 105.862C87.2172 105.712 86.8822 105.502 86.6122 105.232C86.3422 104.952 86.2072 104.587 86.2072 104.137C86.2072 103.487 86.4472 102.957 86.9272 102.547C87.4172 102.127 88.0772 101.917 88.9072 101.917C89.6972 101.917 90.3422 102.117 90.8422 102.517C91.3522 102.907 91.6472 103.467 91.7272 104.197H90.4822C90.4322 103.817 90.2672 103.522 89.9872 103.312C89.7172 103.092 89.3522 102.982 88.8922 102.982C88.4422 102.982 88.0922 103.077 87.8422 103.267C87.6022 103.457 87.4822 103.707 87.4822 104.017C87.4822 104.317 87.6372 104.552 87.9472 104.722C88.2672 104.892 88.6972 105.037 89.2372 105.157C89.6972 105.257 90.1322 105.382 90.5422 105.532C90.9622 105.672 91.3022 105.887 91.5622 106.177C91.8322 106.457 91.9672 106.867 91.9672 107.407C91.9772 108.077 91.7222 108.632 91.2022 109.072C90.6922 109.502 89.9972 109.717 89.1172 109.717ZM100.212 109.717C99.5919 109.717 99.0769 109.612 98.6669 109.402C98.2569 109.192 97.9519 108.912 97.7519 108.562C97.5519 108.212 97.4519 107.832 97.4519 107.422C97.4519 106.662 97.7419 106.077 98.3219 105.667C98.9019 105.257 99.6919 105.052 100.692 105.052H102.702V104.962C102.702 104.312 102.532 103.822 102.192 103.492C101.852 103.152 101.397 102.982 100.827 102.982C100.337 102.982 99.9119 103.107 99.5519 103.357C99.2019 103.597 98.9819 103.952 98.8919 104.422H97.6019C97.6519 103.882 97.8319 103.427 98.1419 103.057C98.4619 102.687 98.8569 102.407 99.3269 102.217C99.7969 102.017 100.297 101.917 100.827 101.917C101.867 101.917 102.647 102.197 103.167 102.757C103.697 103.307 103.962 104.042 103.962 104.962V109.537H102.837L102.762 108.202C102.552 108.622 102.242 108.982 101.832 109.282C101.432 109.572 100.892 109.717 100.212 109.717ZM100.407 108.652C100.887 108.652 101.297 108.527 101.637 108.277C101.987 108.027 102.252 107.702 102.432 107.302C102.612 106.902 102.702 106.482 102.702 106.042V106.027H100.797C100.057 106.027 99.5319 106.157 99.2219 106.417C98.9219 106.667 98.7719 106.982 98.7719 107.362C98.7719 107.752 98.9119 108.067 99.1919 108.307C99.4819 108.537 99.8869 108.652 100.407 108.652ZM108.702 109.717C107.812 109.717 107.072 109.492 106.482 109.042C105.892 108.592 105.547 107.982 105.447 107.212H106.737C106.817 107.602 107.022 107.942 107.352 108.232C107.692 108.512 108.147 108.652 108.717 108.652C109.247 108.652 109.637 108.542 109.887 108.322C110.137 108.092 110.262 107.822 110.262 107.512C110.262 107.062 110.097 106.762 109.767 106.612C109.447 106.462 108.992 106.327 108.402 106.207C108.002 106.127 107.602 106.012 107.202 105.862C106.802 105.712 106.467 105.502 106.197 105.232C105.927 104.952 105.792 104.587 105.792 104.137C105.792 103.487 106.032 102.957 106.512 102.547C107.002 102.127 107.662 101.917 108.492 101.917C109.282 101.917 109.927 102.117 110.427 102.517C110.937 102.907 111.232 103.467 111.312 104.197H110.067C110.017 103.817 109.852 103.522 109.572 103.312C109.302 103.092 108.937 102.982 108.477 102.982C108.027 102.982 107.677 103.077 107.427 103.267C107.187 103.457 107.067 103.707 107.067 104.017C107.067 104.317 107.222 104.552 107.532 104.722C107.852 104.892 108.282 105.037 108.822 105.157C109.282 105.257 109.717 105.382 110.127 105.532C110.547 105.672 110.887 105.887 111.147 106.177C111.417 106.457 111.552 106.867 111.552 107.407C111.562 108.077 111.307 108.632 110.787 109.072C110.277 109.502 109.582 109.717 108.702 109.717ZM116.202 109.717C115.312 109.717 114.572 109.492 113.982 109.042C113.392 108.592 113.047 107.982 112.947 107.212H114.237C114.317 107.602 114.522 107.942 114.852 108.232C115.192 108.512 115.647 108.652 116.217 108.652C116.747 108.652 117.137 108.542 117.387 108.322C117.637 108.092 117.762 107.822 117.762 107.512C117.762 107.062 117.597 106.762 117.267 106.612C116.947 106.462 116.492 106.327 115.902 106.207C115.502 106.127 115.102 106.012 114.702 105.862C114.302 105.712 113.967 105.502 113.697 105.232C113.427 104.952 113.292 104.587 113.292 104.137C113.292 103.487 113.532 102.957 114.012 102.547C114.502 102.127 115.162 101.917 115.992 101.917C116.782 101.917 117.427 102.117 117.927 102.517C118.437 102.907 118.732 103.467 118.812 104.197H117.567C117.517 103.817 117.352 103.522 117.072 103.312C116.802 103.092 116.437 102.982 115.977 102.982C115.527 102.982 115.177 103.077 114.927 103.267C114.687 103.457 114.567 103.707 114.567 104.017C114.567 104.317 114.722 104.552 115.032 104.722C115.352 104.892 115.782 105.037 116.322 105.157C116.782 105.257 117.217 105.382 117.627 105.532C118.047 105.672 118.387 105.887 118.647 106.177C118.917 106.457 119.052 106.867 119.052 107.407C119.062 108.077 118.807 108.632 118.287 109.072C117.777 109.502 117.082 109.717 116.202 109.717ZM123.567 109.717C122.687 109.717 121.987 109.452 121.467 108.922C120.947 108.382 120.687 107.557 120.687 106.447V102.097H121.947V106.312C121.947 107.862 122.582 108.637 123.852 108.637C124.502 108.637 125.037 108.407 125.457 107.947C125.887 107.477 126.102 106.812 126.102 105.952V102.097H127.362V109.537H126.222L126.132 108.202C125.902 108.672 125.557 109.042 125.097 109.312C124.647 109.582 124.137 109.717 123.567 109.717ZM129.436 109.537V102.097H130.576L130.666 103.177C130.906 102.777 131.226 102.467 131.626 102.247C132.026 102.027 132.476 101.917 132.976 101.917C133.566 101.917 134.071 102.037 134.491 102.277C134.921 102.517 135.251 102.882 135.481 103.372C135.741 102.922 136.096 102.567 136.546 102.307C137.006 102.047 137.501 101.917 138.031 101.917C138.921 101.917 139.631 102.187 140.161 102.727C140.691 103.257 140.956 104.077 140.956 105.187V109.537H139.711V105.322C139.711 104.552 139.556 103.972 139.246 103.582C138.936 103.192 138.491 102.997 137.911 102.997C137.311 102.997 136.811 103.232 136.411 103.702C136.021 104.162 135.826 104.822 135.826 105.682V109.537H134.566V105.322C134.566 104.552 134.411 103.972 134.101 103.582C133.791 103.192 133.346 102.997 132.766 102.997C132.176 102.997 131.681 103.232 131.281 103.702C130.891 104.162 130.696 104.822 130.696 105.682V109.537H129.436ZM146.199 109.717C145.489 109.717 144.859 109.557 144.309 109.237C143.759 108.907 143.324 108.452 143.004 107.872C142.694 107.292 142.539 106.607 142.539 105.817C142.539 105.037 142.694 104.357 143.004 103.777C143.314 103.187 143.744 102.732 144.294 102.412C144.854 102.082 145.499 101.917 146.229 101.917C146.949 101.917 147.569 102.082 148.089 102.412C148.619 102.732 149.024 103.157 149.304 103.687C149.584 104.217 149.724 104.787 149.724 105.397C149.724 105.507 149.719 105.617 149.709 105.727C149.709 105.837 149.709 105.962 149.709 106.102H143.784C143.814 106.672 143.944 107.147 144.174 107.527C144.414 107.897 144.709 108.177 145.059 108.367C145.419 108.557 145.799 108.652 146.199 108.652C146.719 108.652 147.154 108.532 147.504 108.292C147.854 108.052 148.109 107.727 148.269 107.317H149.514C149.314 108.007 148.929 108.582 148.359 109.042C147.799 109.492 147.079 109.717 146.199 109.717ZM146.199 102.982C145.599 102.982 145.064 103.167 144.594 103.537C144.134 103.897 143.869 104.427 143.799 105.127H148.479C148.449 104.457 148.219 103.932 147.789 103.552C147.359 103.172 146.829 102.982 146.199 102.982ZM157.839 109.717C157.219 109.717 156.704 109.612 156.294 109.402C155.884 109.192 155.579 108.912 155.379 108.562C155.179 108.212 155.079 107.832 155.079 107.422C155.079 106.662 155.369 106.077 155.949 105.667C156.529 105.257 157.319 105.052 158.319 105.052H160.329V104.962C160.329 104.312 160.159 103.822 159.819 103.492C159.479 103.152 159.024 102.982 158.454 102.982C157.964 102.982 157.539 103.107 157.179 103.357C156.829 103.597 156.609 103.952 156.519 104.422H155.229C155.279 103.882 155.459 103.427 155.769 103.057C156.089 102.687 156.484 102.407 156.954 102.217C157.424 102.017 157.924 101.917 158.454 101.917C159.494 101.917 160.274 102.197 160.794 102.757C161.324 103.307 161.589 104.042 161.589 104.962V109.537H160.464L160.389 108.202C160.179 108.622 159.869 108.982 159.459 109.282C159.059 109.572 158.519 109.717 157.839 109.717ZM158.034 108.652C158.514 108.652 158.924 108.527 159.264 108.277C159.614 108.027 159.879 107.702 160.059 107.302C160.239 106.902 160.329 106.482 160.329 106.042V106.027H158.424C157.684 106.027 157.159 106.157 156.849 106.417C156.549 106.667 156.399 106.982 156.399 107.362C156.399 107.752 156.539 108.067 156.819 108.307C157.109 108.537 157.514 108.652 158.034 108.652ZM163.479 109.537V102.097H164.619L164.694 103.432C164.934 102.962 165.279 102.592 165.729 102.322C166.179 102.052 166.689 101.917 167.259 101.917C168.139 101.917 168.839 102.187 169.359 102.727C169.889 103.257 170.154 104.077 170.154 105.187V109.537H168.894V105.322C168.894 103.772 168.254 102.997 166.974 102.997C166.334 102.997 165.799 103.232 165.369 103.702C164.949 104.162 164.739 104.822 164.739 105.682V109.537H163.479ZM37.0957 120.447C36.8457 120.447 36.6357 120.367 36.4657 120.207C36.3057 120.037 36.2257 119.827 36.2257 119.577C36.2257 119.337 36.3057 119.137 36.4657 118.977C36.6357 118.817 36.8457 118.737 37.0957 118.737C37.3357 118.737 37.5407 118.817 37.7107 118.977C37.8807 119.137 37.9657 119.337 37.9657 119.577C37.9657 119.827 37.8807 120.037 37.7107 120.207C37.5407 120.367 37.3357 120.447 37.0957 120.447ZM36.4657 129.537V122.097H37.7257V129.537H36.4657ZM43.2946 129.717C42.5546 129.717 41.9046 129.547 41.3446 129.207C40.7946 128.867 40.3646 128.402 40.0546 127.812C39.7546 127.222 39.6046 126.552 39.6046 125.802C39.6046 125.052 39.7596 124.387 40.0696 123.807C40.3796 123.217 40.8096 122.757 41.3596 122.427C41.9096 122.087 42.5596 121.917 43.3096 121.917C43.9196 121.917 44.4596 122.042 44.9296 122.292C45.3996 122.542 45.7646 122.892 46.0246 123.342V118.737H47.2846V129.537H46.1446L46.0246 128.307C45.7846 128.667 45.4396 128.992 44.9896 129.282C44.5396 129.572 43.9746 129.717 43.2946 129.717ZM43.4296 128.622C43.9296 128.622 44.3696 128.507 44.7496 128.277C45.1396 128.037 45.4396 127.707 45.6496 127.287C45.8696 126.867 45.9796 126.377 45.9796 125.817C45.9796 125.257 45.8696 124.767 45.6496 124.347C45.4396 123.927 45.1396 123.602 44.7496 123.372C44.3696 123.132 43.9296 123.012 43.4296 123.012C42.9396 123.012 42.4996 123.132 42.1096 123.372C41.7296 123.602 41.4296 123.927 41.2096 124.347C40.9996 124.767 40.8946 125.257 40.8946 125.817C40.8946 126.377 40.9996 126.867 41.2096 127.287C41.4296 127.707 41.7296 128.037 42.1096 128.277C42.4996 128.507 42.9396 128.622 43.4296 128.622ZM52.6835 129.717C51.9735 129.717 51.3435 129.557 50.7935 129.237C50.2435 128.907 49.8085 128.452 49.4885 127.872C49.1785 127.292 49.0235 126.607 49.0235 125.817C49.0235 125.037 49.1785 124.357 49.4885 123.777C49.7985 123.187 50.2285 122.732 50.7785 122.412C51.3385 122.082 51.9835 121.917 52.7135 121.917C53.4335 121.917 54.0535 122.082 54.5735 122.412C55.1035 122.732 55.5085 123.157 55.7885 123.687C56.0685 124.217 56.2085 124.787 56.2085 125.397C56.2085 125.507 56.2035 125.617 56.1935 125.727C56.1935 125.837 56.1935 125.962 56.1935 126.102H50.2685C50.2985 126.672 50.4285 127.147 50.6585 127.527C50.8985 127.897 51.1935 128.177 51.5435 128.367C51.9035 128.557 52.2835 128.652 52.6835 128.652C53.2035 128.652 53.6385 128.532 53.9885 128.292C54.3385 128.052 54.5935 127.727 54.7535 127.317H55.9985C55.7985 128.007 55.4135 128.582 54.8435 129.042C54.2835 129.492 53.5635 129.717 52.6835 129.717ZM52.6835 122.982C52.0835 122.982 51.5485 123.167 51.0785 123.537C50.6185 123.897 50.3535 124.427 50.2835 125.127H54.9635C54.9335 124.457 54.7035 123.932 54.2735 123.552C53.8435 123.172 53.3135 122.982 52.6835 122.982ZM57.8785 129.537V122.097H59.0185L59.0935 123.432C59.3335 122.962 59.6785 122.592 60.1285 122.322C60.5785 122.052 61.0885 121.917 61.6585 121.917C62.5385 121.917 63.2385 122.187 63.7585 122.727C64.2885 123.257 64.5535 124.077 64.5535 125.187V129.537H63.2935V125.322C63.2935 123.772 62.6535 122.997 61.3735 122.997C60.7335 122.997 60.1985 123.232 59.7685 123.702C59.3485 124.162 59.1385 124.822 59.1385 125.682V129.537H57.8785ZM69.4025 129.537C68.7225 129.537 68.1875 129.372 67.7975 129.042C67.4075 128.712 67.2125 128.117 67.2125 127.257V123.162H65.9225V122.097H67.2125L67.3775 120.312H68.4725V122.097H70.6625V123.162H68.4725V127.257C68.4725 127.727 68.5675 128.047 68.7575 128.217C68.9475 128.377 69.2825 128.457 69.7625 128.457H70.5425V129.537H69.4025ZM73.0283 120.447C72.7783 120.447 72.5683 120.367 72.3983 120.207C72.2383 120.037 72.1583 119.827 72.1583 119.577C72.1583 119.337 72.2383 119.137 72.3983 118.977C72.5683 118.817 72.7783 118.737 73.0283 118.737C73.2683 118.737 73.4733 118.817 73.6433 118.977C73.8133 119.137 73.8983 119.337 73.8983 119.577C73.8983 119.827 73.8133 120.037 73.6433 120.207C73.4733 120.367 73.2683 120.447 73.0283 120.447ZM72.3983 129.537V122.097H73.6583V129.537H72.3983ZM78.7922 129.537C78.1122 129.537 77.5772 129.372 77.1872 129.042C76.7972 128.712 76.6022 128.117 76.6022 127.257V123.162H75.3122V122.097H76.6022L76.7672 120.312H77.8622V122.097H80.0522V123.162H77.8622V127.257C77.8622 127.727 77.9572 128.047 78.1472 128.217C78.3372 128.377 78.6722 128.457 79.1522 128.457H79.9322V129.537H78.7922ZM82.463 132.837L84.308 128.817H83.873L80.918 122.097H82.283L84.743 127.887L87.353 122.097H88.658L83.783 132.837H82.463ZM96.4326 129.717C95.8126 129.717 95.2976 129.612 94.8876 129.402C94.4776 129.192 94.1726 128.912 93.9726 128.562C93.7726 128.212 93.6726 127.832 93.6726 127.422C93.6726 126.662 93.9626 126.077 94.5426 125.667C95.1226 125.257 95.9126 125.052 96.9126 125.052H98.9226V124.962C98.9226 124.312 98.7526 123.822 98.4126 123.492C98.0726 123.152 97.6176 122.982 97.0476 122.982C96.5576 122.982 96.1326 123.107 95.7726 123.357C95.4226 123.597 95.2026 123.952 95.1126 124.422H93.8226C93.8726 123.882 94.0526 123.427 94.3626 123.057C94.6826 122.687 95.0776 122.407 95.5476 122.217C96.0176 122.017 96.5176 121.917 97.0476 121.917C98.0876 121.917 98.8676 122.197 99.3876 122.757C99.9176 123.307 100.183 124.042 100.183 124.962V129.537H99.0576L98.9826 128.202C98.7726 128.622 98.4626 128.982 98.0526 129.282C97.6526 129.572 97.1126 129.717 96.4326 129.717ZM96.6276 128.652C97.1076 128.652 97.5176 128.527 97.8576 128.277C98.2076 128.027 98.4726 127.702 98.6526 127.302C98.8326 126.902 98.9226 126.482 98.9226 126.042V126.027H97.0176C96.2776 126.027 95.7526 126.157 95.4426 126.417C95.1426 126.667 94.9926 126.982 94.9926 127.362C94.9926 127.752 95.1326 128.067 95.4126 128.307C95.7026 128.537 96.1076 128.652 96.6276 128.652ZM102.073 129.537V122.097H103.213L103.288 123.432C103.528 122.962 103.873 122.592 104.323 122.322C104.773 122.052 105.283 121.917 105.853 121.917C106.733 121.917 107.433 122.187 107.953 122.727C108.483 123.257 108.748 124.077 108.748 125.187V129.537H107.488V125.322C107.488 123.772 106.848 122.997 105.568 122.997C104.928 122.997 104.393 123.232 103.963 123.702C103.543 124.162 103.333 124.822 103.333 125.682V129.537H102.073ZM114.032 129.717C113.292 129.717 112.642 129.547 112.082 129.207C111.532 128.867 111.102 128.402 110.792 127.812C110.492 127.222 110.342 126.552 110.342 125.802C110.342 125.052 110.497 124.387 110.807 123.807C111.117 123.217 111.547 122.757 112.097 122.427C112.647 122.087 113.297 121.917 114.047 121.917C114.657 121.917 115.197 122.042 115.667 122.292C116.137 122.542 116.502 122.892 116.762 123.342V118.737H118.022V129.537H116.882L116.762 128.307C116.522 128.667 116.177 128.992 115.727 129.282C115.277 129.572 114.712 129.717 114.032 129.717ZM114.167 128.622C114.667 128.622 115.107 128.507 115.487 128.277C115.877 128.037 116.177 127.707 116.387 127.287C116.607 126.867 116.717 126.377 116.717 125.817C116.717 125.257 116.607 124.767 116.387 124.347C116.177 123.927 115.877 123.602 115.487 123.372C115.107 123.132 114.667 123.012 114.167 123.012C113.677 123.012 113.237 123.132 112.847 123.372C112.467 123.602 112.167 123.927 111.947 124.347C111.737 124.767 111.632 125.257 111.632 125.817C111.632 126.377 111.737 126.867 111.947 127.287C112.167 127.707 112.467 128.037 112.847 128.277C113.237 128.507 113.677 128.622 114.167 128.622ZM126.521 129.717C125.901 129.717 125.386 129.612 124.976 129.402C124.566 129.192 124.261 128.912 124.061 128.562C123.861 128.212 123.761 127.832 123.761 127.422C123.761 126.662 124.051 126.077 124.631 125.667C125.211 125.257 126.001 125.052 127.001 125.052H129.011V124.962C129.011 124.312 128.841 123.822 128.501 123.492C128.161 123.152 127.706 122.982 127.136 122.982C126.646 122.982 126.221 123.107 125.861 123.357C125.511 123.597 125.291 123.952 125.201 124.422H123.911C123.961 123.882 124.141 123.427 124.451 123.057C124.771 122.687 125.166 122.407 125.636 122.217C126.106 122.017 126.606 121.917 127.136 121.917C128.176 121.917 128.956 122.197 129.476 122.757C130.006 123.307 130.271 124.042 130.271 124.962V129.537H129.146L129.071 128.202C128.861 128.622 128.551 128.982 128.141 129.282C127.741 129.572 127.201 129.717 126.521 129.717ZM126.716 128.652C127.196 128.652 127.606 128.527 127.946 128.277C128.296 128.027 128.561 127.702 128.741 127.302C128.921 126.902 129.011 126.482 129.011 126.042V126.027H127.106C126.366 126.027 125.841 126.157 125.531 126.417C125.231 126.667 125.081 126.982 125.081 127.362C125.081 127.752 125.221 128.067 125.501 128.307C125.791 128.537 126.196 128.652 126.716 128.652ZM132.161 129.537V118.737H133.421V129.537H132.161ZM135.486 129.537V118.737H136.746V129.537H135.486ZM146.171 129.717C145.471 129.717 144.841 129.557 144.281 129.237C143.721 128.917 143.276 128.467 142.946 127.887C142.626 127.297 142.466 126.607 142.466 125.817C142.466 125.027 142.631 124.342 142.961 123.762C143.291 123.172 143.736 122.717 144.296 122.397C144.866 122.077 145.501 121.917 146.201 121.917C146.901 121.917 147.531 122.077 148.091 122.397C148.651 122.717 149.091 123.172 149.411 123.762C149.741 124.342 149.906 125.027 149.906 125.817C149.906 126.607 149.741 127.297 149.411 127.887C149.081 128.467 148.631 128.917 148.061 129.237C147.501 129.557 146.871 129.717 146.171 129.717ZM146.171 128.637C146.601 128.637 147.001 128.532 147.371 128.322C147.741 128.112 148.041 127.797 148.271 127.377C148.501 126.957 148.616 126.437 148.616 125.817C148.616 125.197 148.501 124.677 148.271 124.257C148.051 123.837 147.756 123.522 147.386 123.312C147.016 123.102 146.621 122.997 146.201 122.997C145.771 122.997 145.371 123.102 145.001 123.312C144.631 123.522 144.331 123.837 144.101 124.257C143.871 124.677 143.756 125.197 143.756 125.817C143.756 126.437 143.871 126.957 144.101 127.377C144.331 127.797 144.626 128.112 144.986 128.322C145.356 128.532 145.751 128.637 146.171 128.637ZM154.305 129.537C153.625 129.537 153.09 129.372 152.7 129.042C152.31 128.712 152.115 128.117 152.115 127.257V123.162H150.825V122.097H152.115L152.28 120.312H153.375V122.097H155.565V123.162H153.375V127.257C153.375 127.727 153.47 128.047 153.66 128.217C153.85 128.377 154.185 128.457 154.665 128.457H155.445V129.537H154.305ZM157.166 129.537V118.737H158.426V123.372C158.676 122.912 159.031 122.557 159.491 122.307C159.951 122.047 160.451 121.917 160.991 121.917C161.851 121.917 162.541 122.187 163.061 122.727C163.581 123.257 163.841 124.077 163.841 125.187V129.537H162.596V125.322C162.596 123.772 161.971 122.997 160.721 122.997C160.071 122.997 159.526 123.232 159.086 123.702C158.646 124.162 158.426 124.822 158.426 125.682V129.537H157.166ZM169.095 129.717C168.385 129.717 167.755 129.557 167.205 129.237C166.655 128.907 166.22 128.452 165.9 127.872C165.59 127.292 165.435 126.607 165.435 125.817C165.435 125.037 165.59 124.357 165.9 123.777C166.21 123.187 166.64 122.732 167.19 122.412C167.75 122.082 168.395 121.917 169.125 121.917C169.845 121.917 170.465 122.082 170.985 122.412C171.515 122.732 171.92 123.157 172.2 123.687C172.48 124.217 172.62 124.787 172.62 125.397C172.62 125.507 172.615 125.617 172.605 125.727C172.605 125.837 172.605 125.962 172.605 126.102H166.68C166.71 126.672 166.84 127.147 167.07 127.527C167.31 127.897 167.605 128.177 167.955 128.367C168.315 128.557 168.695 128.652 169.095 128.652C169.615 128.652 170.05 128.532 170.4 128.292C170.75 128.052 171.005 127.727 171.165 127.317H172.41C172.21 128.007 171.825 128.582 171.255 129.042C170.695 129.492 169.975 129.717 169.095 129.717ZM169.095 122.982C168.495 122.982 167.96 123.167 167.49 123.537C167.03 123.897 166.765 124.427 166.695 125.127H171.375C171.345 124.457 171.115 123.932 170.685 123.552C170.255 123.172 169.725 122.982 169.095 122.982ZM174.29 129.537V122.097H175.43L175.535 123.522C175.765 123.032 176.115 122.642 176.585 122.352C177.055 122.062 177.635 121.917 178.325 121.917V123.237H177.98C177.54 123.237 177.135 123.317 176.765 123.477C176.395 123.627 176.1 123.887 175.88 124.257C175.66 124.627 175.55 125.137 175.55 125.787V129.537H174.29ZM40.6007 152.837V142.097H41.7407L41.8607 143.327C42.1007 142.967 42.4407 142.642 42.8807 142.352C43.3307 142.062 43.9007 141.917 44.5907 141.917C45.3307 141.917 45.9757 142.087 46.5257 142.427C47.0757 142.767 47.5007 143.232 47.8007 143.822C48.1107 144.412 48.2657 145.082 48.2657 145.832C48.2657 146.582 48.1107 147.252 47.8007 147.842C47.5007 148.422 47.0707 148.882 46.5107 149.222C45.9607 149.552 45.3157 149.717 44.5757 149.717C43.9657 149.717 43.4207 149.592 42.9407 149.342C42.4707 149.092 42.1107 148.742 41.8607 148.292V152.837H40.6007ZM44.4407 148.622C44.9407 148.622 45.3807 148.507 45.7607 148.277C46.1407 148.037 46.4407 147.707 46.6607 147.287C46.8807 146.867 46.9907 146.377 46.9907 145.817C46.9907 145.257 46.8807 144.767 46.6607 144.347C46.4407 143.927 46.1407 143.602 45.7607 143.372C45.3807 143.132 44.9407 143.012 44.4407 143.012C43.9407 143.012 43.5007 143.132 43.1207 143.372C42.7407 143.602 42.4407 143.927 42.2207 144.347C42.0007 144.767 41.8907 145.257 41.8907 145.817C41.8907 146.377 42.0007 146.867 42.2207 147.287C42.4407 147.707 42.7407 148.037 43.1207 148.277C43.5007 148.507 43.9407 148.622 44.4407 148.622ZM50.0196 149.537V138.737H51.2796V149.537H50.0196ZM55.8198 149.717C55.1998 149.717 54.6848 149.612 54.2748 149.402C53.8648 149.192 53.5598 148.912 53.3598 148.562C53.1598 148.212 53.0598 147.832 53.0598 147.422C53.0598 146.662 53.3498 146.077 53.9298 145.667C54.5098 145.257 55.2998 145.052 56.2998 145.052H58.3098V144.962C58.3098 144.312 58.1398 143.822 57.7998 143.492C57.4598 143.152 57.0048 142.982 56.4348 142.982C55.9448 142.982 55.5198 143.107 55.1598 143.357C54.8098 143.597 54.5898 143.952 54.4998 144.422H53.2098C53.2598 143.882 53.4398 143.427 53.7498 143.057C54.0698 142.687 54.4648 142.407 54.9348 142.217C55.4048 142.017 55.9048 141.917 56.4348 141.917C57.4748 141.917 58.2548 142.197 58.7748 142.757C59.3048 143.307 59.5698 144.042 59.5698 144.962V149.537H58.4448L58.3698 148.202C58.1598 148.622 57.8498 148.982 57.4398 149.282C57.0398 149.572 56.4998 149.717 55.8198 149.717ZM56.0148 148.652C56.4948 148.652 56.9048 148.527 57.2448 148.277C57.5948 148.027 57.8598 147.702 58.0398 147.302C58.2198 146.902 58.3098 146.482 58.3098 146.042V146.027H56.4048C55.6648 146.027 55.1398 146.157 54.8298 146.417C54.5298 146.667 54.3798 146.982 54.3798 147.362C54.3798 147.752 54.5198 148.067 54.7998 148.307C55.0898 148.537 55.4948 148.652 56.0148 148.652ZM62.0504 152.837L63.8954 148.817H63.4604L60.5054 142.097H61.8704L64.3304 147.887L66.9404 142.097H68.2454L63.3704 152.837H62.0504ZM72.2172 149.717C71.5072 149.717 70.8772 149.557 70.3272 149.237C69.7772 148.907 69.3422 148.452 69.0222 147.872C68.7122 147.292 68.5572 146.607 68.5572 145.817C68.5572 145.037 68.7122 144.357 69.0222 143.777C69.3322 143.187 69.7622 142.732 70.3122 142.412C70.8722 142.082 71.5172 141.917 72.2472 141.917C72.9672 141.917 73.5872 142.082 74.1072 142.412C74.6372 142.732 75.0422 143.157 75.3222 143.687C75.6022 144.217 75.7422 144.787 75.7422 145.397C75.7422 145.507 75.7372 145.617 75.7272 145.727C75.7272 145.837 75.7272 145.962 75.7272 146.102H69.8022C69.8322 146.672 69.9622 147.147 70.1922 147.527C70.4322 147.897 70.7272 148.177 71.0772 148.367C71.4372 148.557 71.8172 148.652 72.2172 148.652C72.7372 148.652 73.1722 148.532 73.5222 148.292C73.8722 148.052 74.1272 147.727 74.2872 147.317H75.5322C75.3322 148.007 74.9472 148.582 74.3772 149.042C73.8172 149.492 73.0972 149.717 72.2172 149.717ZM72.2172 142.982C71.6172 142.982 71.0822 143.167 70.6122 143.537C70.1522 143.897 69.8872 144.427 69.8172 145.127H74.4972C74.4672 144.457 74.2372 143.932 73.8072 143.552C73.3772 143.172 72.8472 142.982 72.2172 142.982ZM77.4122 149.537V142.097H78.5522L78.6572 143.522C78.8872 143.032 79.2372 142.642 79.7072 142.352C80.1772 142.062 80.7572 141.917 81.4472 141.917V143.237H81.1022C80.6622 143.237 80.2572 143.317 79.8872 143.477C79.5172 143.627 79.2222 143.887 79.0022 144.257C78.7822 144.627 78.6722 145.137 78.6722 145.787V149.537H77.4122ZM85.7114 149.717C84.8214 149.717 84.0814 149.492 83.4914 149.042C82.9014 148.592 82.5564 147.982 82.4564 147.212H83.7464C83.8264 147.602 84.0314 147.942 84.3614 148.232C84.7014 148.512 85.1564 148.652 85.7264 148.652C86.2564 148.652 86.6464 148.542 86.8964 148.322C87.1464 148.092 87.2714 147.822 87.2714 147.512C87.2714 147.062 87.1064 146.762 86.7764 146.612C86.4564 146.462 86.0014 146.327 85.4114 146.207C85.0114 146.127 84.6114 146.012 84.2114 145.862C83.8114 145.712 83.4764 145.502 83.2064 145.232C82.9364 144.952 82.8014 144.587 82.8014 144.137C82.8014 143.487 83.0414 142.957 83.5214 142.547C84.0114 142.127 84.6714 141.917 85.5014 141.917C86.2914 141.917 86.9364 142.117 87.4364 142.517C87.9464 142.907 88.2414 143.467 88.3214 144.197H87.0764C87.0264 143.817 86.8614 143.522 86.5814 143.312C86.3114 143.092 85.9464 142.982 85.4864 142.982C85.0364 142.982 84.6864 143.077 84.4364 143.267C84.1964 143.457 84.0764 143.707 84.0764 144.017C84.0764 144.317 84.2314 144.552 84.5414 144.722C84.8614 144.892 85.2914 145.037 85.8314 145.157C86.2914 145.257 86.7264 145.382 87.1364 145.532C87.5564 145.672 87.8964 145.887 88.1564 146.177C88.4264 146.457 88.5614 146.867 88.5614 147.407C88.5714 148.077 88.3164 148.632 87.7964 149.072C87.2864 149.502 86.5914 149.717 85.7114 149.717ZM97.7512 149.717C97.0412 149.717 96.4012 149.557 95.8312 149.237C95.2712 148.907 94.8262 148.452 94.4962 147.872C94.1762 147.282 94.0162 146.597 94.0162 145.817C94.0162 145.037 94.1762 144.357 94.4962 143.777C94.8262 143.187 95.2712 142.732 95.8312 142.412C96.4012 142.082 97.0412 141.917 97.7512 141.917C98.6312 141.917 99.3712 142.147 99.9712 142.607C100.581 143.067 100.966 143.682 101.126 144.452H99.8362C99.7362 143.992 99.4912 143.637 99.1012 143.387C98.7112 143.127 98.2562 142.997 97.7362 142.997C97.3162 142.997 96.9212 143.102 96.5512 143.312C96.1812 143.522 95.8812 143.837 95.6512 144.257C95.4212 144.677 95.3062 145.197 95.3062 145.817C95.3062 146.437 95.4212 146.957 95.6512 147.377C95.8812 147.797 96.1812 148.117 96.5512 148.337C96.9212 148.547 97.3162 148.652 97.7362 148.652C98.2562 148.652 98.7112 148.527 99.1012 148.277C99.4912 148.017 99.7362 147.652 99.8362 147.182H101.126C100.976 147.932 100.596 148.542 99.9862 149.012C99.3762 149.482 98.6312 149.717 97.7512 149.717ZM106.276 149.717C105.576 149.717 104.946 149.557 104.386 149.237C103.826 148.917 103.381 148.467 103.051 147.887C102.731 147.297 102.571 146.607 102.571 145.817C102.571 145.027 102.736 144.342 103.066 143.762C103.396 143.172 103.841 142.717 104.401 142.397C104.971 142.077 105.606 141.917 106.306 141.917C107.006 141.917 107.636 142.077 108.196 142.397C108.756 142.717 109.196 143.172 109.516 143.762C109.846 144.342 110.011 145.027 110.011 145.817C110.011 146.607 109.846 147.297 109.516 147.887C109.186 148.467 108.736 148.917 108.166 149.237C107.606 149.557 106.976 149.717 106.276 149.717ZM106.276 148.637C106.706 148.637 107.106 148.532 107.476 148.322C107.846 148.112 108.146 147.797 108.376 147.377C108.606 146.957 108.721 146.437 108.721 145.817C108.721 145.197 108.606 144.677 108.376 144.257C108.156 143.837 107.861 143.522 107.491 143.312C107.121 143.102 106.726 142.997 106.306 142.997C105.876 142.997 105.476 143.102 105.106 143.312C104.736 143.522 104.436 143.837 104.206 144.257C103.976 144.677 103.861 145.197 103.861 145.817C103.861 146.437 103.976 146.957 104.206 147.377C104.436 147.797 104.731 148.112 105.091 148.322C105.461 148.532 105.856 148.637 106.276 148.637ZM111.763 149.537V142.097H112.903L112.993 143.177C113.233 142.777 113.553 142.467 113.953 142.247C114.353 142.027 114.803 141.917 115.303 141.917C115.893 141.917 116.398 142.037 116.818 142.277C117.248 142.517 117.578 142.882 117.808 143.372C118.068 142.922 118.423 142.567 118.873 142.307C119.333 142.047 119.828 141.917 120.358 141.917C121.248 141.917 121.958 142.187 122.488 142.727C123.018 143.257 123.283 144.077 123.283 145.187V149.537H122.038V145.322C122.038 144.552 121.883 143.972 121.573 143.582C121.263 143.192 120.818 142.997 120.238 142.997C119.638 142.997 119.138 143.232 118.738 143.702C118.348 144.162 118.153 144.822 118.153 145.682V149.537H116.893V145.322C116.893 144.552 116.738 143.972 116.428 143.582C116.118 143.192 115.673 142.997 115.093 142.997C114.503 142.997 114.008 143.232 113.608 143.702C113.218 144.162 113.023 144.822 113.023 145.682V149.537H111.763ZM125.181 152.837V142.097H126.321L126.441 143.327C126.681 142.967 127.021 142.642 127.461 142.352C127.911 142.062 128.481 141.917 129.171 141.917C129.911 141.917 130.556 142.087 131.106 142.427C131.656 142.767 132.081 143.232 132.381 143.822C132.691 144.412 132.846 145.082 132.846 145.832C132.846 146.582 132.691 147.252 132.381 147.842C132.081 148.422 131.651 148.882 131.091 149.222C130.541 149.552 129.896 149.717 129.156 149.717C128.546 149.717 128.001 149.592 127.521 149.342C127.051 149.092 126.691 148.742 126.441 148.292V152.837H125.181ZM129.021 148.622C129.521 148.622 129.961 148.507 130.341 148.277C130.721 148.037 131.021 147.707 131.241 147.287C131.461 146.867 131.571 146.377 131.571 145.817C131.571 145.257 131.461 144.767 131.241 144.347C131.021 143.927 130.721 143.602 130.341 143.372C129.961 143.132 129.521 143.012 129.021 143.012C128.521 143.012 128.081 143.132 127.701 143.372C127.321 143.602 127.021 143.927 126.801 144.347C126.581 144.767 126.471 145.257 126.471 145.817C126.471 146.377 126.581 146.867 126.801 147.287C127.021 147.707 127.321 148.037 127.701 148.277C128.081 148.507 128.521 148.622 129.021 148.622ZM137.945 149.717C137.235 149.717 136.605 149.557 136.055 149.237C135.505 148.907 135.07 148.452 134.75 147.872C134.44 147.292 134.285 146.607 134.285 145.817C134.285 145.037 134.44 144.357 134.75 143.777C135.06 143.187 135.49 142.732 136.04 142.412C136.6 142.082 137.245 141.917 137.975 141.917C138.695 141.917 139.315 142.082 139.835 142.412C140.365 142.732 140.77 143.157 141.05 143.687C141.33 144.217 141.47 144.787 141.47 145.397C141.47 145.507 141.465 145.617 141.455 145.727C141.455 145.837 141.455 145.962 141.455 146.102H135.53C135.56 146.672 135.69 147.147 135.92 147.527C136.16 147.897 136.455 148.177 136.805 148.367C137.165 148.557 137.545 148.652 137.945 148.652C138.465 148.652 138.9 148.532 139.25 148.292C139.6 148.052 139.855 147.727 140.015 147.317H141.26C141.06 148.007 140.675 148.582 140.105 149.042C139.545 149.492 138.825 149.717 137.945 149.717ZM137.945 142.982C137.345 142.982 136.81 143.167 136.34 143.537C135.88 143.897 135.615 144.427 135.545 145.127H140.225C140.195 144.457 139.965 143.932 139.535 143.552C139.105 143.172 138.575 142.982 137.945 142.982ZM145.831 149.537C145.151 149.537 144.616 149.372 144.226 149.042C143.836 148.712 143.641 148.117 143.641 147.257V143.162H142.351V142.097H143.641L143.806 140.312H144.901V142.097H147.091V143.162H144.901V147.257C144.901 147.727 144.996 148.047 145.186 148.217C145.376 148.377 145.711 148.457 146.191 148.457H146.971V149.537H145.831ZM151.831 149.717C151.121 149.717 150.491 149.557 149.941 149.237C149.391 148.907 148.956 148.452 148.636 147.872C148.326 147.292 148.171 146.607 148.171 145.817C148.171 145.037 148.326 144.357 148.636 143.777C148.946 143.187 149.376 142.732 149.926 142.412C150.486 142.082 151.131 141.917 151.861 141.917C152.581 141.917 153.201 142.082 153.721 142.412C154.251 142.732 154.656 143.157 154.936 143.687C155.216 144.217 155.356 144.787 155.356 145.397C155.356 145.507 155.351 145.617 155.341 145.727C155.341 145.837 155.341 145.962 155.341 146.102H149.416C149.446 146.672 149.576 147.147 149.806 147.527C150.046 147.897 150.341 148.177 150.691 148.367C151.051 148.557 151.431 148.652 151.831 148.652C152.351 148.652 152.786 148.532 153.136 148.292C153.486 148.052 153.741 147.727 153.901 147.317H155.146C154.946 148.007 154.561 148.582 153.991 149.042C153.431 149.492 152.711 149.717 151.831 149.717ZM151.831 142.982C151.231 142.982 150.696 143.167 150.226 143.537C149.766 143.897 149.501 144.427 149.431 145.127H154.111C154.081 144.457 153.851 143.932 153.421 143.552C152.991 143.172 152.461 142.982 151.831 142.982ZM163.936 149.537C163.256 149.537 162.721 149.372 162.331 149.042C161.941 148.712 161.746 148.117 161.746 147.257V143.162H160.456V142.097H161.746L161.911 140.312H163.006V142.097H165.196V143.162H163.006V147.257C163.006 147.727 163.101 148.047 163.291 148.217C163.481 148.377 163.816 148.457 164.296 148.457H165.076V149.537H163.936ZM169.982 149.717C169.282 149.717 168.652 149.557 168.092 149.237C167.532 148.917 167.087 148.467 166.757 147.887C166.437 147.297 166.277 146.607 166.277 145.817C166.277 145.027 166.442 144.342 166.772 143.762C167.102 143.172 167.547 142.717 168.107 142.397C168.677 142.077 169.312 141.917 170.012 141.917C170.712 141.917 171.342 142.077 171.902 142.397C172.462 142.717 172.902 143.172 173.222 143.762C173.552 144.342 173.717 145.027 173.717 145.817C173.717 146.607 173.552 147.297 173.222 147.887C172.892 148.467 172.442 148.917 171.872 149.237C171.312 149.557 170.682 149.717 169.982 149.717ZM169.982 148.637C170.412 148.637 170.812 148.532 171.182 148.322C171.552 148.112 171.852 147.797 172.082 147.377C172.312 146.957 172.427 146.437 172.427 145.817C172.427 145.197 172.312 144.677 172.082 144.257C171.862 143.837 171.567 143.522 171.197 143.312C170.827 143.102 170.432 142.997 170.012 142.997C169.582 142.997 169.182 143.102 168.812 143.312C168.442 143.522 168.142 143.837 167.912 144.257C167.682 144.677 167.567 145.197 167.567 145.817C167.567 146.437 167.682 146.957 167.912 147.377C168.142 147.797 168.437 148.112 168.797 148.322C169.167 148.532 169.562 148.637 169.982 148.637ZM44.0388 167.197C43.6188 167.197 43.2338 167.142 42.8838 167.032L42.1338 167.737C42.2438 167.817 42.3788 167.887 42.5388 167.947C42.7088 167.997 42.9488 168.047 43.2588 168.097C43.5688 168.137 44.0038 168.182 44.5638 168.232C45.5638 168.302 46.2788 168.532 46.7088 168.922C47.1388 169.312 47.3538 169.822 47.3538 170.452C47.3538 170.882 47.2338 171.292 46.9938 171.682C46.7638 172.072 46.4038 172.392 45.9138 172.642C45.4338 172.892 44.8138 173.017 44.0538 173.017C43.3838 173.017 42.7888 172.927 42.2688 172.747C41.7488 172.577 41.3438 172.312 41.0538 171.952C40.7638 171.602 40.6188 171.157 40.6188 170.617C40.6188 170.337 40.6938 170.032 40.8438 169.702C40.9938 169.382 41.2738 169.077 41.6838 168.787C41.4638 168.697 41.2738 168.602 41.1138 168.502C40.9638 168.392 40.8238 168.272 40.6938 168.142V167.797L41.9688 166.537C41.3788 166.037 41.0838 165.377 41.0838 164.557C41.0838 164.067 41.1988 163.622 41.4288 163.222C41.6588 162.822 41.9938 162.507 42.4338 162.277C42.8738 162.037 43.4088 161.917 44.0388 161.917C44.4688 161.917 44.8588 161.977 45.2088 162.097H47.9538V163.042L46.5588 163.102C46.8488 163.522 46.9938 164.007 46.9938 164.557C46.9938 165.047 46.8738 165.492 46.6338 165.892C46.4038 166.292 46.0688 166.612 45.6288 166.852C45.1988 167.082 44.6688 167.197 44.0388 167.197ZM44.0388 166.162C44.5688 166.162 44.9888 166.027 45.2988 165.757C45.6188 165.477 45.7788 165.077 45.7788 164.557C45.7788 164.047 45.6188 163.657 45.2988 163.387C44.9888 163.107 44.5688 162.967 44.0388 162.967C43.4988 162.967 43.0688 163.107 42.7488 163.387C42.4388 163.657 42.2838 164.047 42.2838 164.557C42.2838 165.077 42.4388 165.477 42.7488 165.757C43.0688 166.027 43.4988 166.162 44.0388 166.162ZM41.8488 170.497C41.8488 170.997 42.0588 171.367 42.4788 171.607C42.8988 171.857 43.4238 171.982 44.0538 171.982C44.6738 171.982 45.1688 171.847 45.5388 171.577C45.9188 171.307 46.1088 170.947 46.1088 170.497C46.1088 170.177 45.9788 169.897 45.7188 169.657C45.4588 169.427 44.9788 169.292 44.2788 169.252C43.7288 169.212 43.2538 169.162 42.8538 169.102C42.4438 169.322 42.1738 169.557 42.0438 169.807C41.9138 170.067 41.8488 170.297 41.8488 170.497ZM52.0901 169.717C51.2101 169.717 50.5101 169.452 49.9901 168.922C49.4701 168.382 49.2101 167.557 49.2101 166.447V162.097H50.4701V166.312C50.4701 167.862 51.1051 168.637 52.3751 168.637C53.0251 168.637 53.5601 168.407 53.9801 167.947C54.4101 167.477 54.6251 166.812 54.6251 165.952V162.097H55.8851V169.537H54.7451L54.6551 168.202C54.4251 168.672 54.0801 169.042 53.6201 169.312C53.1701 169.582 52.6601 169.717 52.0901 169.717ZM61.3041 169.717C60.5941 169.717 59.9641 169.557 59.4141 169.237C58.8641 168.907 58.4291 168.452 58.1091 167.872C57.7991 167.292 57.6441 166.607 57.6441 165.817C57.6441 165.037 57.7991 164.357 58.1091 163.777C58.4191 163.187 58.8491 162.732 59.3991 162.412C59.9591 162.082 60.6041 161.917 61.3341 161.917C62.0541 161.917 62.6741 162.082 63.1941 162.412C63.7241 162.732 64.1291 163.157 64.4091 163.687C64.6891 164.217 64.8291 164.787 64.8291 165.397C64.8291 165.507 64.8241 165.617 64.8141 165.727C64.8141 165.837 64.8141 165.962 64.8141 166.102H58.8891C58.9191 166.672 59.0491 167.147 59.2791 167.527C59.5191 167.897 59.8141 168.177 60.1641 168.367C60.5241 168.557 60.9041 168.652 61.3041 168.652C61.8241 168.652 62.2591 168.532 62.6091 168.292C62.9591 168.052 63.2141 167.727 63.3741 167.317H64.6191C64.4191 168.007 64.0341 168.582 63.4641 169.042C62.9041 169.492 62.1841 169.717 61.3041 169.717ZM61.3041 162.982C60.7041 162.982 60.1691 163.167 59.6991 163.537C59.2391 163.897 58.9741 164.427 58.9041 165.127H63.5841C63.5541 164.457 63.3241 163.932 62.8941 163.552C62.4641 163.172 61.9341 162.982 61.3041 162.982ZM69.3491 169.717C68.4591 169.717 67.7191 169.492 67.1291 169.042C66.5391 168.592 66.1941 167.982 66.0941 167.212H67.3841C67.4641 167.602 67.6691 167.942 67.9991 168.232C68.3391 168.512 68.7941 168.652 69.3641 168.652C69.8941 168.652 70.2841 168.542 70.5341 168.322C70.7841 168.092 70.9091 167.822 70.9091 167.512C70.9091 167.062 70.7441 166.762 70.4141 166.612C70.0941 166.462 69.6391 166.327 69.0491 166.207C68.6491 166.127 68.2491 166.012 67.8491 165.862C67.4491 165.712 67.1141 165.502 66.8441 165.232C66.5741 164.952 66.4391 164.587 66.4391 164.137C66.4391 163.487 66.6791 162.957 67.1591 162.547C67.6491 162.127 68.3091 161.917 69.1391 161.917C69.9291 161.917 70.5741 162.117 71.0741 162.517C71.5841 162.907 71.8791 163.467 71.9591 164.197H70.7141C70.6641 163.817 70.4991 163.522 70.2191 163.312C69.9491 163.092 69.5841 162.982 69.1241 162.982C68.6741 162.982 68.3241 163.077 68.0741 163.267C67.8341 163.457 67.7141 163.707 67.7141 164.017C67.7141 164.317 67.8691 164.552 68.1791 164.722C68.4991 164.892 68.9291 165.037 69.4691 165.157C69.9291 165.257 70.3641 165.382 70.7741 165.532C71.1941 165.672 71.5341 165.887 71.7941 166.177C72.0641 166.457 72.1991 166.867 72.1991 167.407C72.2091 168.077 71.9541 168.632 71.4341 169.072C70.9241 169.502 70.2291 169.717 69.3491 169.717ZM76.8491 169.717C75.9591 169.717 75.2191 169.492 74.6291 169.042C74.0391 168.592 73.6941 167.982 73.5941 167.212H74.8841C74.9641 167.602 75.1691 167.942 75.4991 168.232C75.8391 168.512 76.2941 168.652 76.8641 168.652C77.3941 168.652 77.7841 168.542 78.0341 168.322C78.2841 168.092 78.4091 167.822 78.4091 167.512C78.4091 167.062 78.2441 166.762 77.9141 166.612C77.5941 166.462 77.1391 166.327 76.5491 166.207C76.1491 166.127 75.7491 166.012 75.3491 165.862C74.9491 165.712 74.6141 165.502 74.3441 165.232C74.0741 164.952 73.9391 164.587 73.9391 164.137C73.9391 163.487 74.1791 162.957 74.6591 162.547C75.1491 162.127 75.8091 161.917 76.6391 161.917C77.4291 161.917 78.0741 162.117 78.5741 162.517C79.0841 162.907 79.3791 163.467 79.4591 164.197H78.2141C78.1641 163.817 77.9991 163.522 77.7191 163.312C77.4491 163.092 77.0841 162.982 76.6241 162.982C76.1741 162.982 75.8241 163.077 75.5741 163.267C75.3341 163.457 75.2141 163.707 75.2141 164.017C75.2141 164.317 75.3691 164.552 75.6791 164.722C75.9991 164.892 76.4291 165.037 76.9691 165.157C77.4291 165.257 77.8641 165.382 78.2741 165.532C78.6941 165.672 79.0341 165.887 79.2941 166.177C79.5641 166.457 79.6991 166.867 79.6991 167.407C79.7091 168.077 79.4541 168.632 78.9341 169.072C78.4241 169.502 77.7291 169.717 76.8491 169.717ZM86.9689 169.537L84.7939 162.097H86.0539L87.6289 167.932L89.3689 162.097H90.7939L92.5489 167.932L94.1089 162.097H95.3839L93.2089 169.537H91.9189L90.0889 163.402L88.2589 169.537H86.9689ZM96.7775 169.537V158.737H98.0375V163.372C98.2875 162.912 98.6425 162.557 99.1025 162.307C99.5625 162.047 100.062 161.917 100.602 161.917C101.462 161.917 102.152 162.187 102.672 162.727C103.192 163.257 103.452 164.077 103.452 165.187V169.537H102.207V165.322C102.207 163.772 101.582 162.997 100.332 162.997C99.6825 162.997 99.1375 163.232 98.6975 163.702C98.2575 164.162 98.0375 164.822 98.0375 165.682V169.537H96.7775ZM108.751 169.717C108.051 169.717 107.421 169.557 106.861 169.237C106.301 168.917 105.856 168.467 105.526 167.887C105.206 167.297 105.046 166.607 105.046 165.817C105.046 165.027 105.211 164.342 105.541 163.762C105.871 163.172 106.316 162.717 106.876 162.397C107.446 162.077 108.081 161.917 108.781 161.917C109.481 161.917 110.111 162.077 110.671 162.397C111.231 162.717 111.671 163.172 111.991 163.762C112.321 164.342 112.486 165.027 112.486 165.817C112.486 166.607 112.321 167.297 111.991 167.887C111.661 168.467 111.211 168.917 110.641 169.237C110.081 169.557 109.451 169.717 108.751 169.717ZM108.751 168.637C109.181 168.637 109.581 168.532 109.951 168.322C110.321 168.112 110.621 167.797 110.851 167.377C111.081 166.957 111.196 166.437 111.196 165.817C111.196 165.197 111.081 164.677 110.851 164.257C110.631 163.837 110.336 163.522 109.966 163.312C109.596 163.102 109.201 162.997 108.781 162.997C108.351 162.997 107.951 163.102 107.581 163.312C107.211 163.522 106.911 163.837 106.681 164.257C106.451 164.677 106.336 165.197 106.336 165.817C106.336 166.437 106.451 166.957 106.681 167.377C106.911 167.797 107.206 168.112 107.566 168.322C107.936 168.532 108.331 168.637 108.751 168.637ZM121.148 169.537C120.468 169.537 119.933 169.372 119.543 169.042C119.153 168.712 118.958 168.117 118.958 167.257V163.162H117.668V162.097H118.958L119.123 160.312H120.218V162.097H122.408V163.162H120.218V167.257C120.218 167.727 120.313 168.047 120.503 168.217C120.693 168.377 121.028 168.457 121.508 168.457H122.288V169.537H121.148ZM124.009 169.537V158.737H125.269V163.372C125.519 162.912 125.874 162.557 126.334 162.307C126.794 162.047 127.294 161.917 127.834 161.917C128.694 161.917 129.384 162.187 129.904 162.727C130.424 163.257 130.684 164.077 130.684 165.187V169.537H129.439V165.322C129.439 163.772 128.814 162.997 127.564 162.997C126.914 162.997 126.369 163.232 125.929 163.702C125.489 164.162 125.269 164.822 125.269 165.682V169.537H124.009ZM135.938 169.717C135.228 169.717 134.598 169.557 134.048 169.237C133.498 168.907 133.063 168.452 132.743 167.872C132.433 167.292 132.278 166.607 132.278 165.817C132.278 165.037 132.433 164.357 132.743 163.777C133.053 163.187 133.483 162.732 134.033 162.412C134.593 162.082 135.238 161.917 135.968 161.917C136.688 161.917 137.308 162.082 137.828 162.412C138.358 162.732 138.763 163.157 139.043 163.687C139.323 164.217 139.463 164.787 139.463 165.397C139.463 165.507 139.458 165.617 139.448 165.727C139.448 165.837 139.448 165.962 139.448 166.102H133.523C133.553 166.672 133.683 167.147 133.913 167.527C134.153 167.897 134.448 168.177 134.798 168.367C135.158 168.557 135.538 168.652 135.938 168.652C136.458 168.652 136.893 168.532 137.243 168.292C137.593 168.052 137.848 167.727 138.008 167.317H139.253C139.053 168.007 138.668 168.582 138.098 169.042C137.538 169.492 136.818 169.717 135.938 169.717ZM135.938 162.982C135.338 162.982 134.803 163.167 134.333 163.537C133.873 163.897 133.608 164.427 133.538 165.127H138.218C138.188 164.457 137.958 163.932 137.528 163.552C137.098 163.172 136.568 162.982 135.938 162.982ZM141.65 172.837L143.495 168.817H143.06L140.105 162.097H141.47L143.93 167.887L146.54 162.097H147.845L142.97 172.837H141.65ZM155.62 169.717C155 169.717 154.485 169.612 154.075 169.402C153.665 169.192 153.36 168.912 153.16 168.562C152.96 168.212 152.86 167.832 152.86 167.422C152.86 166.662 153.15 166.077 153.73 165.667C154.31 165.257 155.1 165.052 156.1 165.052H158.11V164.962C158.11 164.312 157.94 163.822 157.6 163.492C157.26 163.152 156.805 162.982 156.235 162.982C155.745 162.982 155.32 163.107 154.96 163.357C154.61 163.597 154.39 163.952 154.3 164.422H153.01C153.06 163.882 153.24 163.427 153.55 163.057C153.87 162.687 154.265 162.407 154.735 162.217C155.205 162.017 155.705 161.917 156.235 161.917C157.275 161.917 158.055 162.197 158.575 162.757C159.105 163.307 159.37 164.042 159.37 164.962V169.537H158.245L158.17 168.202C157.96 168.622 157.65 168.982 157.24 169.282C156.84 169.572 156.3 169.717 155.62 169.717ZM155.815 168.652C156.295 168.652 156.705 168.527 157.045 168.277C157.395 168.027 157.66 167.702 157.84 167.302C158.02 166.902 158.11 166.482 158.11 166.042V166.027H156.205C155.465 166.027 154.94 166.157 154.63 166.417C154.33 166.667 154.18 166.982 154.18 167.362C154.18 167.752 154.32 168.067 154.6 168.307C154.89 168.537 155.295 168.652 155.815 168.652ZM161.26 169.537V162.097H162.4L162.505 163.522C162.735 163.032 163.085 162.642 163.555 162.352C164.025 162.062 164.605 161.917 165.295 161.917V163.237H164.95C164.51 163.237 164.105 163.317 163.735 163.477C163.365 163.627 163.07 163.887 162.85 164.257C162.63 164.627 162.52 165.137 162.52 165.787V169.537H161.26ZM169.776 169.717C169.066 169.717 168.436 169.557 167.886 169.237C167.336 168.907 166.901 168.452 166.581 167.872C166.271 167.292 166.116 166.607 166.116 165.817C166.116 165.037 166.271 164.357 166.581 163.777C166.891 163.187 167.321 162.732 167.871 162.412C168.431 162.082 169.076 161.917 169.806 161.917C170.526 161.917 171.146 162.082 171.666 162.412C172.196 162.732 172.601 163.157 172.881 163.687C173.161 164.217 173.301 164.787 173.301 165.397C173.301 165.507 173.296 165.617 173.286 165.727C173.286 165.837 173.286 165.962 173.286 166.102H167.361C167.391 166.672 167.521 167.147 167.751 167.527C167.991 167.897 168.286 168.177 168.636 168.367C168.996 168.557 169.376 168.652 169.776 168.652C170.296 168.652 170.731 168.532 171.081 168.292C171.431 168.052 171.686 167.727 171.846 167.317H173.091C172.891 168.007 172.506 168.582 171.936 169.042C171.376 169.492 170.656 169.717 169.776 169.717ZM169.776 162.982C169.176 162.982 168.641 163.167 168.171 163.537C167.711 163.897 167.446 164.427 167.376 165.127H172.056C172.026 164.457 171.796 163.932 171.366 163.552C170.936 163.172 170.406 162.982 169.776 162.982Z" fill="white"/>
<defs>
<filter id="filter0_d" x="0" y="19.2988" width="214" height="217.559" filterUnits="userSpaceOnUse" color-interpolation-filters="sRGB">
<feFlood flood-opacity="0" result="BackgroundImageFix"/>
<feColorMatrix in="SourceAlpha" type="matrix" values="0 0 0 0 0 0 0 0 0 0 0 0 0 0 0 0 0 0 127 0"/>
<feOffset dy="1"/>
<feGaussianBlur stdDeviation="1"/>
<feColorMatrix type="matrix" values="0 0 0 0 0.0588235 0 0 0 0 0.0588235 0 0 0 0 0.0588235 0 0 0 0.1 0"/>
<feBlend mode="normal" in2="BackgroundImageFix" result="effect1_dropShadow"/>
<feBlend mode="normal" in="SourceGraphic" in2="effect1_dropShadow" result="shape"/>
</filter>
</defs>
</svg>
