<svg width="214" height="237" viewBox="0 0 214 237" fill="none" xmlns="http://www.w3.org/2000/svg">
<g filter="url(#filter0_d)">
<rect x="2" y="20.2988" width="210" height="213.559" rx="20" fill="#992EDB"/>
</g>
<path d="M33.1445 10.7227C33.1445 5.19981 37.6217 0.722656 43.1445 0.722656H170.856C176.379 0.722656 180.856 5.19981 180.856 10.7227V20.2989H33.1445V10.7227Z" fill="#F12587"/>
<path d="M92.043 15.67C91.119 15.67 90.3117 15.46 89.621 15.04C88.9304 14.62 88.3937 14.0366 88.011 13.29C87.6284 12.534 87.437 11.6566 87.437 10.658C87.437 9.64995 87.633 8.76329 88.025 7.99795C88.4264 7.22329 88.991 6.62129 89.719 6.19195C90.4564 5.75329 91.329 5.53395 92.337 5.53395C93.485 5.53395 94.437 5.80929 95.193 6.35995C95.949 6.91062 96.439 7.67129 96.663 8.64195H94.661C94.5117 8.18462 94.241 7.82995 93.849 7.57795C93.457 7.31662 92.953 7.18595 92.337 7.18595C91.357 7.18595 90.601 7.49862 90.069 8.12395C89.537 8.73995 89.271 9.58929 89.271 10.672C89.271 11.7546 89.5324 12.5946 90.055 13.192C90.587 13.78 91.3057 14.074 92.211 14.074C93.0977 14.074 93.765 13.836 94.213 13.36C94.6704 12.8746 94.9457 12.24 95.039 11.456H92.561V10.112H96.845V15.502H95.193L95.053 14.214C94.7357 14.6806 94.339 15.04 93.863 15.292C93.387 15.544 92.7804 15.67 92.043 15.67ZM100.939 15.67C100.342 15.67 99.8518 15.5766 99.4691 15.39C99.0865 15.194 98.8018 14.9373 98.6151 14.62C98.4285 14.3026 98.3351 13.9526 98.3351 13.57C98.3351 12.926 98.5871 12.4033 99.0911 12.002C99.5951 11.6006 100.351 11.4 101.359 11.4H103.123V11.232C103.123 10.756 102.988 10.406 102.717 10.182C102.446 9.95795 102.11 9.84595 101.709 9.84595C101.345 9.84595 101.028 9.93462 100.757 10.112C100.486 10.28 100.318 10.532 100.253 10.868H98.5031C98.5498 10.364 98.7178 9.92529 99.0071 9.55195C99.3058 9.17862 99.6885 8.89395 100.155 8.69795C100.622 8.49262 101.144 8.38995 101.723 8.38995C102.712 8.38995 103.492 8.63729 104.061 9.13195C104.63 9.62662 104.915 10.3266 104.915 11.232V15.502H103.389L103.221 14.382C103.016 14.7553 102.726 15.0633 102.353 15.306C101.989 15.5486 101.518 15.67 100.939 15.67ZM101.345 14.27C101.858 14.27 102.255 14.102 102.535 13.766C102.824 13.43 103.006 13.0146 103.081 12.52H101.555C101.079 12.52 100.738 12.6086 100.533 12.786C100.328 12.954 100.225 13.164 100.225 13.416C100.225 13.6866 100.328 13.8966 100.533 14.046C100.738 14.1953 101.009 14.27 101.345 14.27ZM106.625 15.502V8.55795H108.207L108.361 9.49595C108.585 9.15995 108.879 8.89395 109.243 8.69795C109.617 8.49262 110.046 8.38995 110.531 8.38995C111.605 8.38995 112.365 8.80529 112.813 9.63595C113.065 9.25329 113.401 8.94995 113.821 8.72595C114.251 8.50195 114.717 8.38995 115.221 8.38995C116.127 8.38995 116.822 8.66062 117.307 9.20195C117.793 9.74329 118.035 10.5366 118.035 11.582V15.502H116.243V11.75C116.243 11.1526 116.127 10.6953 115.893 10.378C115.669 10.0606 115.319 9.90195 114.843 9.90195C114.358 9.90195 113.966 10.0793 113.667 10.434C113.378 10.7886 113.233 11.2833 113.233 11.918V15.502H111.441V11.75C111.441 11.1526 111.325 10.6953 111.091 10.378C110.858 10.0606 110.499 9.90195 110.013 9.90195C109.537 9.90195 109.15 10.0793 108.851 10.434C108.562 10.7886 108.417 11.2833 108.417 11.918V15.502H106.625ZM123.111 15.67C122.411 15.67 121.79 15.5206 121.249 15.222C120.707 14.9233 120.283 14.5033 119.975 13.962C119.667 13.4206 119.513 12.7953 119.513 12.086C119.513 11.3673 119.662 10.728 119.961 10.168C120.269 9.60795 120.689 9.17395 121.221 8.86595C121.762 8.54862 122.397 8.38995 123.125 8.38995C123.806 8.38995 124.408 8.53929 124.931 8.83795C125.453 9.13662 125.859 9.54729 126.149 10.07C126.447 10.5833 126.597 11.1573 126.597 11.792C126.597 11.8946 126.592 12.002 126.583 12.114C126.583 12.226 126.578 12.3426 126.569 12.464H121.291C121.328 13.0053 121.515 13.43 121.851 13.738C122.196 14.046 122.611 14.2 123.097 14.2C123.461 14.2 123.764 14.1206 124.007 13.962C124.259 13.794 124.445 13.5793 124.567 13.318H126.387C126.256 13.7566 126.037 14.158 125.729 14.522C125.43 14.8766 125.057 15.1566 124.609 15.362C124.17 15.5673 123.671 15.67 123.111 15.67ZM123.125 9.84595C122.686 9.84595 122.299 9.97195 121.963 10.224C121.627 10.4666 121.412 10.84 121.319 11.344H124.777C124.749 10.8866 124.581 10.5226 124.273 10.252C123.965 9.98129 123.582 9.84595 123.125 9.84595Z" fill="white"/>
<path d="M61.9209 62.7651C60.6669 62.7651 59.5713 62.4801 58.6339 61.9101C57.6966 61.3401 56.9683 60.5484 56.4489 59.5351C55.9296 58.5091 55.6699 57.3184 55.6699 55.9631C55.6699 54.5951 55.9359 53.3918 56.4679 52.3531C57.0126 51.3018 57.7789 50.4848 58.7669 49.9021C59.7676 49.3068 60.9519 49.0091 62.3199 49.0091C63.8779 49.0091 65.1699 49.3828 66.1959 50.1301C67.2219 50.8774 67.8869 51.9098 68.1909 53.2271H65.4739C65.2713 52.6064 64.9039 52.1251 64.3719 51.7831C63.8399 51.4284 63.1559 51.2511 62.3199 51.2511C60.9899 51.2511 59.9639 51.6754 59.2419 52.5241C58.5199 53.3601 58.1589 54.5128 58.1589 55.9821C58.1589 57.4514 58.5136 58.5914 59.2229 59.4021C59.9449 60.2001 60.9203 60.5991 62.1489 60.5991C63.3523 60.5991 64.2579 60.2761 64.8659 59.6301C65.4866 58.9714 65.8603 58.1101 65.9869 57.0461H62.6239V55.2221H68.4379V62.5371H66.1959L66.0059 60.7891C65.5753 61.4224 65.0369 61.9101 64.3909 62.2521C63.7449 62.5941 62.9216 62.7651 61.9209 62.7651ZM74.2793 62.7651C73.1013 62.7651 72.1893 62.3978 71.5433 61.6631C70.9099 60.9284 70.5933 59.8518 70.5933 58.4331V53.1131H73.0063V58.2051C73.0063 59.0158 73.1709 59.6364 73.5003 60.0671C73.8296 60.4978 74.3489 60.7131 75.0583 60.7131C75.7296 60.7131 76.2806 60.4724 76.7113 59.9911C77.1546 59.5098 77.3763 58.8384 77.3763 57.9771V53.1131H79.8083V62.5371H77.6613L77.4713 60.9411C77.1799 61.4984 76.7556 61.9418 76.1983 62.2711C75.6536 62.6004 75.0139 62.7651 74.2793 62.7651ZM86.8838 62.7651C85.9338 62.7651 85.0915 62.5624 84.3568 62.1571C83.6222 61.7518 83.0458 61.1818 82.6278 60.4471C82.2098 59.7124 82.0008 58.8638 82.0008 57.9011C82.0008 56.9258 82.2035 56.0581 82.6088 55.2981C83.0268 54.5381 83.5968 53.9491 84.3188 53.5311C85.0535 53.1004 85.9148 52.8851 86.9028 52.8851C87.8275 52.8851 88.6445 53.0878 89.3538 53.4931C90.0632 53.8984 90.6142 54.4558 91.0068 55.1651C91.4122 55.8618 91.6148 56.6408 91.6148 57.5021C91.6148 57.6414 91.6085 57.7871 91.5958 57.9391C91.5958 58.0911 91.5895 58.2494 91.5768 58.4141H84.4138C84.4645 59.1488 84.7178 59.7251 85.1738 60.1431C85.6425 60.5611 86.2062 60.7701 86.8648 60.7701C87.3588 60.7701 87.7705 60.6624 88.0998 60.4471C88.4418 60.2191 88.6952 59.9278 88.8598 59.5731H91.3298C91.1525 60.1684 90.8548 60.7131 90.4368 61.2071C90.0315 61.6884 89.5248 62.0684 88.9168 62.3471C88.3215 62.6258 87.6438 62.7651 86.8838 62.7651ZM86.9028 54.8611C86.3075 54.8611 85.7818 55.0321 85.3258 55.3741C84.8698 55.7034 84.5785 56.2101 84.4518 56.8941H89.1448C89.1068 56.2734 88.8788 55.7794 88.4608 55.4121C88.0428 55.0448 87.5235 54.8611 86.9028 54.8611ZM97.5553 62.7651C96.7193 62.7651 95.9846 62.6321 95.3513 62.3661C94.718 62.0874 94.2113 61.7074 93.8313 61.2261C93.4513 60.7448 93.2233 60.1874 93.1473 59.5541H95.5983C95.6743 59.9214 95.877 60.2381 96.2063 60.5041C96.5483 60.7574 96.9853 60.8841 97.5173 60.8841C98.0493 60.8841 98.4356 60.7764 98.6763 60.5611C98.9296 60.3458 99.0563 60.0988 99.0563 59.8201C99.0563 59.4148 98.879 59.1424 98.5243 59.0031C98.1696 58.8511 97.6756 58.7054 97.0423 58.5661C96.637 58.4774 96.2253 58.3698 95.8073 58.2431C95.3893 58.1164 95.003 57.9581 94.6483 57.7681C94.3063 57.5654 94.0276 57.3121 93.8123 57.0081C93.597 56.6914 93.4893 56.3051 93.4893 55.8491C93.4893 55.0131 93.8186 54.3101 94.4773 53.7401C95.1486 53.1701 96.086 52.8851 97.2893 52.8851C98.404 52.8851 99.2906 53.1448 99.9493 53.6641C100.621 54.1834 101.02 54.8991 101.146 55.8111H98.8473C98.708 55.1144 98.1823 54.7661 97.2703 54.7661C96.8143 54.7661 96.4596 54.8548 96.2063 55.0321C95.9656 55.2094 95.8453 55.4311 95.8453 55.6971C95.8453 55.9758 96.029 56.1974 96.3963 56.3621C96.7636 56.5268 97.2513 56.6788 97.8593 56.8181C98.518 56.9701 99.1196 57.1411 99.6643 57.3311C100.222 57.5084 100.665 57.7808 100.994 58.1481C101.324 58.5028 101.488 59.0158 101.488 59.6871C101.501 60.2698 101.349 60.7954 101.032 61.2641C100.716 61.7328 100.26 62.1001 99.6643 62.3661C99.069 62.6321 98.366 62.7651 97.5553 62.7651ZM107.538 62.7651C106.702 62.7651 105.967 62.6321 105.334 62.3661C104.7 62.0874 104.194 61.7074 103.814 61.2261C103.434 60.7448 103.206 60.1874 103.13 59.5541H105.581C105.657 59.9214 105.859 60.2381 106.189 60.5041C106.531 60.7574 106.968 60.8841 107.5 60.8841C108.032 60.8841 108.418 60.7764 108.659 60.5611C108.912 60.3458 109.039 60.0988 109.039 59.8201C109.039 59.4148 108.861 59.1424 108.507 59.0031C108.152 58.8511 107.658 58.7054 107.025 58.5661C106.619 58.4774 106.208 58.3698 105.79 58.2431C105.372 58.1164 104.985 57.9581 104.631 57.7681C104.289 57.5654 104.01 57.3121 103.795 57.0081C103.579 56.6914 103.472 56.3051 103.472 55.8491C103.472 55.0131 103.801 54.3101 104.46 53.7401C105.131 53.1701 106.068 52.8851 107.272 52.8851C108.386 52.8851 109.273 53.1448 109.932 53.6641C110.603 54.1834 111.002 54.8991 111.129 55.8111H108.83C108.69 55.1144 108.165 54.7661 107.253 54.7661C106.797 54.7661 106.442 54.8548 106.189 55.0321C105.948 55.2094 105.828 55.4311 105.828 55.6971C105.828 55.9758 106.011 56.1974 106.379 56.3621C106.746 56.5268 107.234 56.6788 107.842 56.8181C108.5 56.9701 109.102 57.1411 109.647 57.3311C110.204 57.5084 110.647 57.7808 110.977 58.1481C111.306 58.5028 111.471 59.0158 111.471 59.6871C111.483 60.2698 111.331 60.7954 111.015 61.2641C110.698 61.7328 110.242 62.1001 109.647 62.3661C109.051 62.6321 108.348 62.7651 107.538 62.7651ZM120.907 62.5371L117.392 49.2371H119.995L122.389 59.8201L125.201 49.2371H127.88L130.616 59.8201L133.01 49.2371H135.632L132.022 62.5371H129.134L126.493 52.6761L123.776 62.5371H120.907ZM137.338 62.5371V48.8571H139.77V54.5571C140.087 54.0378 140.511 53.6324 141.043 53.3411C141.588 53.0371 142.208 52.8851 142.905 52.8851C144.07 52.8851 144.97 53.2524 145.603 53.9871C146.249 54.7218 146.572 55.7984 146.572 57.2171V62.5371H144.159V57.4451C144.159 56.6344 143.994 56.0138 143.665 55.5831C143.348 55.1524 142.842 54.9371 142.145 54.9371C141.461 54.9371 140.891 55.1778 140.435 55.6591C139.992 56.1404 139.77 56.8118 139.77 57.6731V62.5371H137.338ZM153.42 62.7651C152.508 62.7651 151.684 62.5561 150.95 62.1381C150.228 61.7201 149.651 61.1438 149.221 60.4091C148.803 59.6618 148.594 58.8004 148.594 57.8251C148.594 56.8498 148.809 55.9948 149.24 55.2601C149.67 54.5128 150.247 53.9301 150.969 53.5121C151.703 53.0941 152.527 52.8851 153.439 52.8851C154.338 52.8851 155.149 53.0941 155.871 53.5121C156.605 53.9301 157.182 54.5128 157.6 55.2601C158.03 55.9948 158.246 56.8498 158.246 57.8251C158.246 58.8004 158.03 59.6618 157.6 60.4091C157.182 61.1438 156.605 61.7201 155.871 62.1381C155.136 62.5561 154.319 62.7651 153.42 62.7651ZM153.42 60.6561C154.053 60.6561 154.604 60.4218 155.073 59.9531C155.541 59.4718 155.776 58.7624 155.776 57.8251C155.776 56.8878 155.541 56.1848 155.073 55.7161C154.604 55.2348 154.059 54.9941 153.439 54.9941C152.793 54.9941 152.235 55.2348 151.767 55.7161C151.311 56.1848 151.083 56.8878 151.083 57.8251C151.083 58.7624 151.311 59.4718 151.767 59.9531C152.235 60.4218 152.786 60.6561 153.42 60.6561Z" fill="white"/>
<path d="M98.4508 92.6553C98.4508 96.6752 94.6545 96.0672 89.9715 96.0672C85.2885 96.0672 81.4922 96.6752 81.4922 92.6553C81.4922 88.6354 83.3466 81.5098 89.9715 81.5098C96.8246 81.5098 98.4508 88.6354 98.4508 92.6553Z" fill="#2F2E41"/>
<path d="M71.8954 166.086L69.1846 165.231L71.2649 154.586L75.2657 155.849L71.8954 166.086Z" fill="#FFB8B8"/>
<path d="M71.7405 168.877L63 166.118L63.0356 166.01C63.1796 165.573 63.4102 165.167 63.7142 164.817C64.0182 164.467 64.3897 164.179 64.8074 163.969C65.2251 163.76 65.6809 163.633 66.1488 163.595C66.6167 163.558 67.0874 163.612 67.5342 163.753L67.5344 163.753L72.8727 165.438L71.7405 168.877Z" fill="#2F2E41"/>
<path d="M105.171 166.176L102.323 166.176L100.968 155.42H105.171L105.171 166.176Z" fill="#FFB8B8"/>
<path d="M105.895 168.877L96.7119 168.877V168.763C96.7119 168.304 96.8044 167.849 96.984 167.424C97.1636 166.999 97.4269 166.614 97.7588 166.289C98.0908 165.964 98.4848 165.706 98.9185 165.53C99.3521 165.354 99.817 165.264 100.286 165.264H100.287L105.895 165.264L105.895 168.877Z" fill="#2F2E41"/>
<path d="M106.814 125.639C106.383 125.638 105.959 125.533 105.578 125.334C105.198 125.134 104.874 124.846 104.635 124.495C104.396 124.144 104.249 123.74 104.207 123.32C104.165 122.899 104.229 122.476 104.394 122.085L94.8273 100.8C94.7318 100.544 94.689 100.273 94.7013 100.001C94.7135 99.7295 94.7807 99.4629 94.8988 99.2167C95.0169 98.9706 95.1836 98.7497 95.3894 98.567C95.5952 98.3843 95.8359 98.2433 96.0976 98.1522C96.3593 98.0611 96.6369 98.0216 96.9142 98.0361C97.1916 98.0506 97.4633 98.1188 97.7137 98.2367C97.964 98.3546 98.188 98.5199 98.3727 98.723C98.5574 98.9261 98.6992 99.1631 98.7899 99.4201L108.08 120.814C108.194 120.874 108.304 120.942 108.407 121.018C108.689 121.228 108.925 121.491 109.1 121.792C109.276 122.093 109.388 122.425 109.429 122.77C109.47 123.114 109.439 123.463 109.339 123.795C109.239 124.127 109.071 124.437 108.846 124.704C108.599 124.997 108.288 125.233 107.937 125.394C107.586 125.556 107.202 125.639 106.814 125.639Z" fill="#FFB8B8"/>
<path d="M73.1223 127.23C72.7342 127.231 72.3508 127.148 71.9995 126.986C71.6483 126.824 71.338 126.589 71.0908 126.296C70.8655 126.028 70.6978 125.719 70.5976 125.387C70.4974 125.054 70.4669 124.706 70.5079 124.361C70.5489 124.017 70.6605 123.684 70.836 123.383C71.0116 123.083 71.2474 122.819 71.5294 122.61C71.6329 122.534 71.7422 122.465 71.8564 122.406L81.1495 101.005C81.241 100.749 81.3832 100.513 81.5681 100.31C81.7529 100.108 81.9768 99.9439 82.2267 99.8268C82.4767 99.7096 82.7478 99.642 83.0246 99.6278C83.3013 99.6136 83.5782 99.6531 83.8393 99.744C84.1004 99.835 84.3406 99.9755 84.546 100.158C84.7514 100.34 84.9181 100.56 85.0364 100.805C85.1547 101.051 85.2222 101.316 85.2352 101.587C85.2482 101.858 85.2064 102.129 85.1121 102.385L75.5422 123.677C75.7074 124.067 75.7719 124.491 75.7299 124.911C75.6879 125.332 75.5408 125.735 75.3015 126.087C75.0622 126.438 74.7382 126.726 74.3581 126.926C73.978 127.125 73.5535 127.23 73.1223 127.23Z" fill="#FFB8B8"/>
<path d="M89.9401 96.06C93.0913 96.06 95.6459 93.5588 95.6459 90.4734C95.6459 87.3879 93.0913 84.8867 89.9401 84.8867C86.7889 84.8867 84.2344 87.3879 84.2344 90.4734C84.2344 93.5588 86.7889 96.06 89.9401 96.06Z" fill="#FFB8B8"/>
<path d="M85.8802 117.801L85.8327 117.765C82.7208 115.359 81.5557 107.285 81.1382 102.686C81.0482 101.74 81.3379 100.797 81.9459 100.056C82.5539 99.3159 83.4325 98.8362 84.3955 98.7189L94.9105 97.4157C95.4643 97.3471 96.0269 97.4006 96.5568 97.5725C97.0868 97.7443 97.5708 98.03 97.9734 98.4087C98.376 98.7874 98.6869 99.2495 98.8835 99.7612C99.08 100.273 99.1572 100.821 99.1093 101.366L97.9776 114.236L85.8802 117.801Z" fill="#5B59E3"/>
<path d="M100.932 159.672C100.691 159.673 100.457 159.591 100.27 159.441C100.083 159.291 99.956 159.083 99.9093 158.851L94.2117 131.172C94.1991 131.111 94.1697 131.054 94.1267 131.008C94.0837 130.962 94.0287 130.929 93.9677 130.912C93.9067 130.894 93.842 130.893 93.7806 130.909C93.7192 130.925 93.6634 130.958 93.6193 131.002L81.938 143.326L76.1893 157.34C76.1005 157.573 75.9283 157.766 75.7049 157.884C75.4815 158.001 75.222 158.036 74.9748 157.98L70.6844 157.011C70.5463 156.979 70.4161 156.921 70.3018 156.839C70.1874 156.757 70.0913 156.653 70.0192 156.534C69.9472 156.414 69.9007 156.282 69.8826 156.144C69.8645 156.006 69.8752 155.866 69.914 155.733L73.5946 143.074C73.9827 141.736 74.5995 140.473 75.4188 139.338L85.3249 125.597L85.7921 117.593L97.9946 113.457L98.04 113.481C106.43 118.027 106.388 134.501 106.343 151.943C106.338 153.978 106.333 156.083 106.342 158.139C106.344 158.392 106.249 158.637 106.077 158.825C105.904 159.014 105.666 159.133 105.409 159.16L101.047 159.666C101.009 159.67 100.97 159.672 100.932 159.672Z" fill="#2F2E41"/>
<path d="M83.3477 89.9257H85.6044L86.6 87.1961L86.7991 89.9257H87.8777L88.4585 88.3334L88.5746 89.9257H96.5893C96.5893 88.3572 95.9529 86.8529 94.8202 85.7439C93.6875 84.6348 92.1512 84.0117 90.5492 84.0117H89.3877C87.7858 84.0117 86.2495 84.6348 85.1167 85.7439C83.984 86.8529 83.3477 88.3572 83.3477 89.9257Z" fill="#2F2E41"/>
<path d="M90.0531 101.981C90.1562 101.981 92.6073 101.952 95.0596 99.4006C98.2794 96.0511 99.9118 90.1428 99.9118 81.8399C99.9118 81.7182 99.8433 81.6063 99.7334 81.549C99.6242 81.4914 99.4911 81.4975 99.3875 81.5653C99.3524 81.5879 95.835 83.8404 90.0531 83.8404C84.2858 83.8404 80.7533 81.5879 80.7184 81.5651C80.6148 81.498 80.4815 81.4916 80.3725 81.5492C80.2626 81.6063 80.1943 81.7182 80.1943 81.8399C80.1943 90.1428 81.8272 96.0511 85.0468 99.4009C87.4988 101.952 89.9499 101.981 90.0531 101.981ZM89.6029 84.8079C94.3445 84.8079 98.0241 83.0638 99.2344 82.4188C99.1401 92.0974 96.6816 96.7216 94.6124 98.9018C92.3776 101.256 90.1156 101.319 90.0531 101.321C89.9906 101.319 87.7286 101.257 85.4935 98.9018C83.4246 96.7216 80.9661 92.0974 80.8715 82.4185C82.0821 83.0638 84.8612 84.8079 89.6029 84.8079Z" fill="#01BDD7"/>
<path d="M89.6029 84.8079C94.3445 84.8079 98.0241 83.0638 99.2344 82.4188C99.1401 92.0974 96.6816 96.7216 94.6124 98.9018C92.3776 101.256 90.1156 101.319 90.0531 101.321C89.9906 101.319 87.7286 101.257 85.4935 98.9018C83.4246 96.7216 80.9661 92.0974 80.8715 82.4185C82.0821 83.0638 84.8612 84.8079 89.6029 84.8079Z" fill="#01BDD7"/>
<path d="M92.0538 89.0573C92.212 88.6235 92.7364 88.1884 93.4235 87.922C93.7511 87.7944 94.1014 87.7123 94.4355 87.6836C95.1433 87.6227 95.7239 87.7994 95.9148 88.1333C95.9924 88.2696 95.9989 88.4285 95.935 88.606C95.7768 89.0397 95.2525 89.4749 94.5653 89.7415C94.2373 89.8691 93.8875 89.9512 93.5529 89.9801C92.8451 90.0408 92.2645 89.8643 92.0741 89.5311C91.996 89.3943 91.9895 89.2349 92.0538 89.0573Z" fill="white"/>
<path d="M92.0538 89.0573C92.212 88.6235 92.7364 88.1884 93.4235 87.922C93.7511 87.7944 94.1014 87.7123 94.4355 87.6836C95.1433 87.6227 95.7239 87.7994 95.9148 88.1333C95.9924 88.2696 95.9989 88.4285 95.935 88.606C95.7768 89.0397 95.2525 89.4749 94.5653 89.7415C94.2373 89.8691 93.8875 89.9512 93.5529 89.9801C92.8451 90.0408 92.2645 89.8643 92.0741 89.5311C91.996 89.3943 91.9895 89.2349 92.0538 89.0573Z" fill="url(#paint0_linear)"/>
<path d="M84.1718 88.6055C84.1079 88.4285 84.1144 88.2695 84.1925 88.1333C84.383 87.7994 84.9635 87.6226 85.6714 87.6834C86.0054 87.7123 86.3558 87.7946 86.6838 87.922C87.3705 88.1886 87.8953 88.6235 88.053 89.0568C88.1174 89.2346 88.1109 89.3943 88.0328 89.5312C87.8428 89.8645 87.2622 90.0407 86.5544 89.98C86.2199 89.9511 85.87 89.8688 85.542 89.7414C84.8541 89.4746 84.3293 89.0392 84.1718 88.6055Z" fill="white"/>
<path d="M90.0543 99.0664C92.6243 99.0664 95.0227 93.8485 95.1235 93.6265C95.1892 93.4809 95.1402 93.3101 95.0062 93.22C94.8719 93.1299 94.6916 93.1465 94.5766 93.2589C94.5539 93.2812 92.2691 95.4925 90.054 95.4925C87.8436 95.4925 85.5547 93.2807 85.5319 93.2587C85.4167 93.1468 85.2364 93.1299 85.1024 93.2202C84.9683 93.3103 84.9193 93.4809 84.985 93.6265C85.0863 93.8485 87.4845 99.0664 90.0543 99.0664ZM90.0543 96.1531C91.4553 96.1531 92.8301 95.4168 93.7826 94.7547C92.8552 96.3694 91.3784 98.4061 90.0543 98.4061C88.7301 98.4061 87.2538 96.3694 86.3264 94.7544C87.2789 95.4168 88.6532 96.1531 90.0543 96.1531Z" fill="white"/>
<path d="M130.161 88.5625C131.79 91.6977 133.073 94.9314 136.666 94.9314C138.391 94.9314 140.045 94.2604 141.265 93.066C142.485 91.8716 143.171 90.2516 143.171 88.5625C143.171 86.8734 142.485 85.2534 141.265 84.059C140.045 82.8646 138.391 82.1936 136.666 82.1936C133.015 82.1489 127.13 82.7269 130.161 88.5625Z" fill="#2F2E41"/>
<path d="M135.273 165.157L132.494 165.763L128.781 155.553L132.884 154.658L135.273 165.157Z" fill="#A0616A"/>
<path d="M136.585 167.64L127.622 169.596L127.596 169.485C127.494 169.037 127.483 168.573 127.564 168.12C127.645 167.667 127.817 167.235 128.068 166.847C128.32 166.459 128.647 166.123 129.032 165.859C129.416 165.595 129.849 165.408 130.308 165.308L130.308 165.308L135.782 164.113L136.585 167.64Z" fill="#2F2E41"/>
<path d="M143.533 168.805H140.685L139.33 158.049L143.534 158.049L143.533 168.805Z" fill="#A0616A"/>
<path d="M144.261 171.508L135.078 171.508V171.394C135.078 170.935 135.171 170.48 135.35 170.055C135.53 169.63 135.793 169.245 136.125 168.92C136.457 168.595 136.851 168.337 137.285 168.161C137.718 167.985 138.183 167.895 138.653 167.895H138.653L144.262 167.895L144.261 171.508Z" fill="#2F2E41"/>
<path d="M143.552 163.169H139.917C139.664 163.168 139.421 163.078 139.23 162.915C139.04 162.753 138.916 162.528 138.881 162.284L135.586 137.328C135.575 137.25 135.537 137.178 135.478 137.124C135.419 137.07 135.343 137.038 135.263 137.033C135.183 137.029 135.103 137.051 135.038 137.097C134.972 137.143 134.925 137.209 134.904 137.286L132.952 144.412L134.712 160.641C134.742 160.891 134.676 161.144 134.528 161.349C134.38 161.555 134.159 161.7 133.908 161.757L131.025 162.408C130.769 162.465 130.5 162.425 130.272 162.298C130.044 162.17 129.873 161.964 129.793 161.719L125.15 145.941C124.776 144.784 124.647 143.565 124.772 142.359L126.224 128.135L126.335 128.14L145.731 129.055L144.597 162.181C144.588 162.446 144.474 162.698 144.279 162.882C144.084 163.067 143.823 163.17 143.552 163.169Z" fill="#2F2E41"/>
<path d="M136.346 95.0541C139.498 95.0541 142.052 92.5529 142.052 89.4675C142.052 86.3821 139.498 83.8809 136.346 83.8809C133.195 83.8809 130.641 86.3821 130.641 89.4675C130.641 92.5529 133.195 95.0541 136.346 95.0541Z" fill="#A0616A"/>
<path d="M145.294 130.588C145.275 130.588 145.256 130.587 145.237 130.586L125.898 129.568C125.739 129.56 125.583 129.516 125.443 129.439C125.304 129.363 125.184 129.256 125.093 129.127C125.003 128.998 124.943 128.85 124.92 128.695C124.897 128.54 124.91 128.382 124.96 128.233L126.49 123.579C128.129 118.59 128.409 113.268 127.302 108.14C127.013 106.798 127.019 105.411 127.32 104.072C127.621 102.733 128.211 101.472 129.051 100.373C129.876 99.2904 130.928 98.3924 132.136 97.7394C133.344 97.0864 134.681 96.6936 136.057 96.587H136.057C136.152 96.5797 136.247 96.5732 136.342 96.5675C137.798 96.4833 139.254 96.7182 140.605 97.2552C141.956 97.7922 143.168 98.6177 144.152 99.6715C145.135 100.725 145.866 101.981 146.292 103.346C146.717 104.712 146.825 106.153 146.609 107.565L145.26 116.43L146.335 129.482C146.347 129.623 146.329 129.765 146.282 129.898C146.235 130.032 146.16 130.154 146.062 130.258C145.964 130.362 145.845 130.445 145.713 130.502C145.581 130.558 145.438 130.588 145.294 130.588Z" fill="#CCCCCC"/>
<path d="M121.499 131.765C121.782 131.578 122.019 131.332 122.195 131.045C122.37 130.758 122.479 130.437 122.514 130.104C122.548 129.772 122.508 129.436 122.396 129.12C122.284 128.804 122.102 128.516 121.864 128.276L125.588 121.012L121.304 121.508L118.424 128.331C118.04 128.749 117.825 129.291 117.821 129.854C117.818 130.417 118.025 130.962 118.404 131.385C118.783 131.809 119.307 132.081 119.878 132.151C120.448 132.221 121.025 132.084 121.499 131.765H121.499Z" fill="#A0616A"/>
<path d="M147.063 132.949C146.816 132.718 146.624 132.437 146.5 132.125C146.376 131.814 146.324 131.479 146.346 131.145C146.369 130.812 146.465 130.487 146.63 130.194C146.795 129.901 147.023 129.647 147.298 129.45L144.867 121.678L149.006 122.868L150.68 130.066C150.988 130.542 151.107 131.111 151.015 131.667C150.923 132.222 150.625 132.726 150.179 133.081C149.733 133.436 149.17 133.619 148.595 133.595C148.021 133.571 147.476 133.341 147.063 132.949V132.949Z" fill="#A0616A"/>
<path d="M146.661 128.878C146.407 128.879 146.162 128.789 145.971 128.625C145.781 128.461 145.658 128.235 145.626 127.989L143.691 113.699L140.605 102.533C140.474 102.061 140.455 101.566 140.549 101.085C140.642 100.605 140.846 100.152 141.145 99.7599C141.443 99.368 141.829 99.0477 142.272 98.8231C142.716 98.5986 143.206 98.4756 143.705 98.4636C144.496 98.4472 145.267 98.7089 145.878 99.2011C146.489 99.6933 146.899 100.384 147.035 101.147L151.634 127.519C151.658 127.663 151.652 127.809 151.614 127.95C151.577 128.091 151.509 128.222 151.416 128.335C151.323 128.448 151.206 128.54 151.073 128.606C150.941 128.671 150.795 128.708 150.647 128.714L146.706 128.877C146.691 128.878 146.676 128.878 146.661 128.878Z" fill="#CCCCCC"/>
<path d="M123.571 127.274C123.496 127.274 123.421 127.266 123.348 127.251L119.49 126.446C119.345 126.415 119.208 126.355 119.089 126.269C118.969 126.183 118.87 126.073 118.797 125.946C118.724 125.819 118.68 125.679 118.667 125.534C118.654 125.389 118.673 125.243 118.722 125.106L127.757 99.8569C128.022 99.1273 128.545 98.5145 129.231 98.1293C129.917 97.744 130.721 97.6117 131.498 97.7563C131.988 97.8498 132.45 98.0512 132.849 98.3453C133.248 98.6393 133.574 99.0182 133.801 99.4535C134.029 99.8887 134.152 100.369 134.163 100.858C134.173 101.347 134.069 101.831 133.86 102.275L128.906 112.794L124.565 126.552C124.5 126.761 124.369 126.944 124.19 127.074C124.011 127.204 123.794 127.274 123.571 127.274Z" fill="#CCCCCC"/>
<path d="M130.291 86.312C131.595 87.1919 133.142 87.6601 134.726 87.6539C134.161 88.0374 133.518 88.2965 132.841 88.4132C134.947 88.8554 137.122 88.8674 139.233 88.4484C139.702 88.3747 140.155 88.2225 140.571 87.9984C140.778 87.8849 140.959 87.73 141.101 87.5437C141.244 87.3574 141.344 87.1438 141.397 86.9169C141.537 86.1325 140.913 85.4198 140.264 84.9395C139.271 84.2154 138.126 83.7165 136.911 83.4789C135.697 83.2413 134.444 83.271 133.243 83.5658C132.458 83.7643 131.673 84.0997 131.163 84.7164C130.654 85.3331 130.503 86.2839 130.988 86.919L130.291 86.312Z" fill="#2F2E41"/>
<path d="M136.176 99.9848C136.261 99.9848 138.282 99.9606 140.305 97.8568C142.96 95.0943 144.307 90.2215 144.307 83.3738C144.307 83.2735 144.25 83.1812 144.159 83.1339C144.069 83.0864 143.96 83.0915 143.874 83.1474C143.845 83.166 140.944 85.0237 136.176 85.0237C131.419 85.0237 128.506 83.166 128.477 83.1472C128.392 83.0919 128.282 83.0866 128.192 83.1341C128.101 83.1812 128.045 83.2735 128.045 83.3738C128.045 90.2215 129.392 95.0943 132.047 97.857C134.069 99.9606 136.091 99.9848 136.176 99.9848ZM135.804 85.8217C139.715 85.8217 142.75 84.3833 143.748 83.8512C143.67 91.8335 141.642 95.6473 139.936 97.4454C138.093 99.3873 136.227 99.4393 136.176 99.4402C136.124 99.4393 134.259 99.3875 132.415 97.4454C130.709 95.6473 128.681 91.8335 128.603 83.8511C129.602 84.3833 131.894 85.8217 135.804 85.8217Z" fill="#FF6105"/>
<path d="M135.804 85.8217C139.715 85.8217 142.75 84.3833 143.748 83.8512C143.67 91.8335 141.642 95.6473 139.936 97.4454C138.093 99.3873 136.227 99.4393 136.176 99.4402C136.124 99.4393 134.259 99.3875 132.415 97.4454C130.709 95.6473 128.681 91.8335 128.603 83.8511C129.602 84.3833 131.894 85.8217 135.804 85.8217Z" fill="#FF6105"/>
<path d="M137.825 89.3257C137.956 88.9679 138.388 88.6091 138.955 88.3894C139.225 88.2842 139.514 88.2164 139.79 88.1928C140.373 88.1425 140.852 88.2883 141.01 88.5637C141.074 88.676 141.079 88.8072 141.026 88.9535C140.896 89.3112 140.463 89.6701 139.897 89.8899C139.626 89.9952 139.338 90.0629 139.062 90.0867C138.478 90.1368 137.999 89.9912 137.842 89.7164C137.778 89.6037 137.772 89.4722 137.825 89.3257Z" fill="white"/>
<path d="M137.825 89.3257C137.956 88.9679 138.388 88.6091 138.955 88.3894C139.225 88.2842 139.514 88.2164 139.79 88.1928C140.373 88.1425 140.852 88.2883 141.01 88.5637C141.074 88.676 141.079 88.8072 141.026 88.9535C140.896 89.3112 140.463 89.6701 139.897 89.8899C139.626 89.9952 139.338 90.0629 139.062 90.0867C138.478 90.1368 137.999 89.9912 137.842 89.7164C137.778 89.6037 137.772 89.4722 137.825 89.3257Z" fill="url(#paint1_linear)"/>
<path d="M131.325 88.9531C131.272 88.8072 131.278 88.676 131.342 88.5637C131.499 88.2883 131.978 88.1425 132.562 88.1926C132.837 88.2164 133.126 88.2843 133.397 88.3894C133.963 88.6093 134.396 88.9679 134.526 89.3253C134.579 89.472 134.574 89.6037 134.509 89.7166C134.353 89.9914 133.874 90.1368 133.29 90.0867C133.014 90.0629 132.726 89.995 132.455 89.89C131.888 89.6699 131.455 89.3109 131.325 88.9531Z" fill="white"/>
<path d="M136.177 97.5823C138.297 97.5823 140.275 93.279 140.358 93.0959C140.412 92.9758 140.372 92.8349 140.261 92.7606C140.151 92.6863 140.002 92.7 139.907 92.7927C139.888 92.8111 138.004 94.6349 136.177 94.6349C134.354 94.6349 132.466 92.8107 132.448 92.7925C132.353 92.7002 132.204 92.6863 132.093 92.7608C131.983 92.8351 131.942 92.9758 131.997 93.0959C132.08 93.279 134.058 97.5823 136.177 97.5823ZM136.177 95.1796C137.333 95.1796 138.467 94.5724 139.252 94.0263C138.487 95.358 137.269 97.0377 136.177 97.0377C135.085 97.0377 133.868 95.358 133.103 94.0261C133.888 94.5724 135.022 95.1796 136.177 95.1796Z" fill="white"/>
<defs>
<filter id="filter0_d" x="0" y="19.2988" width="214" height="217.559" filterUnits="userSpaceOnUse" color-interpolation-filters="sRGB">
<feFlood flood-opacity="0" result="BackgroundImageFix"/>
<feColorMatrix in="SourceAlpha" type="matrix" values="0 0 0 0 0 0 0 0 0 0 0 0 0 0 0 0 0 0 127 0"/>
<feOffset dy="1"/>
<feGaussianBlur stdDeviation="1"/>
<feColorMatrix type="matrix" values="0 0 0 0 0.0588235 0 0 0 0 0.0588235 0 0 0 0 0.0588235 0 0 0 0.1 0"/>
<feBlend mode="normal" in2="BackgroundImageFix" result="effect1_dropShadow"/>
<feBlend mode="normal" in="SourceGraphic" in2="effect1_dropShadow" result="shape"/>
</filter>
<linearGradient id="paint0_linear" x1="93.9944" y1="87.0117" x2="93.9944" y2="90.6519" gradientUnits="userSpaceOnUse">
<stop stop-color="white"/>
<stop offset="1" stop-color="white" stop-opacity="0"/>
</linearGradient>
<linearGradient id="paint1_linear" x1="139.426" y1="87.6387" x2="139.426" y2="90.6408" gradientUnits="userSpaceOnUse">
<stop stop-color="white"/>
<stop offset="1" stop-color="white" stop-opacity="0"/>
</linearGradient>
</defs>
</svg>
