<svg width="240" height="261" viewBox="0 0 240 261" fill="none" xmlns="http://www.w3.org/2000/svg">
<g filter="url(#filter0_d)">
<rect x="2" y="22.2637" width="236" height="234.99" rx="20" fill="#9738D1"/>
</g>
<path fill-rule="evenodd" clip-rule="evenodd" d="M221 29.1172C216.032 29.1172 212 33.065 212 37.9293C212 42.7936 216.032 46.7414 221 46.7414C225.968 46.7414 230 42.7936 230 37.9293C230 33.065 225.968 29.1172 221 29.1172ZM220.1 33.5232V35.2857H221.9V33.5232H220.1ZM220.1 37.0481V42.3354H221.9V37.0481H220.1ZM213.8 37.9293C213.8 41.8154 217.031 44.979 221 44.979C224.969 44.979 228.2 41.8154 228.2 37.9293C228.2 34.0432 224.969 30.8796 221 30.8796C217.031 30.8796 213.8 34.0432 213.8 37.9293Z" fill="white"/>
<path d="M37 10.7227C37 5.19981 41.4772 0.722656 47 0.722656H193C198.523 0.722656 203 5.19981 203 10.7227V22.2634H37V10.7227Z" fill="#F12587"/>
<path d="M102.906 16.8736C101.85 16.8736 100.927 16.6336 100.138 16.1536C99.3485 15.6736 98.7352 15.007 98.2979 14.1536C97.8605 13.2896 97.6419 12.287 97.6419 11.1456C97.6419 9.99364 97.8659 8.98031 98.3139 8.10564C98.7725 7.22031 99.4179 6.53231 100.25 6.04164C101.093 5.54031 102.09 5.28964 103.242 5.28964C104.554 5.28964 105.642 5.60431 106.506 6.23364C107.37 6.86297 107.93 7.73231 108.186 8.84164H105.898C105.727 8.31897 105.418 7.91364 104.97 7.62564C104.522 7.32697 103.946 7.17764 103.242 7.17764C102.122 7.17764 101.258 7.53497 100.65 8.24964C100.042 8.95364 99.7379 9.92431 99.7379 11.1616C99.7379 12.399 100.037 13.359 100.634 14.0416C101.242 14.7136 102.063 15.0496 103.098 15.0496C104.111 15.0496 104.874 14.7776 105.386 14.2336C105.909 13.679 106.223 12.9536 106.33 12.0576H103.498V10.5216H108.394V16.6816H106.506L106.346 15.2096C105.983 15.743 105.53 16.1536 104.986 16.4416C104.442 16.7296 103.749 16.8736 102.906 16.8736ZM113.073 16.8736C112.39 16.8736 111.83 16.767 111.393 16.5536C110.956 16.3296 110.63 16.0363 110.417 15.6736C110.204 15.311 110.097 14.911 110.097 14.4736C110.097 13.7376 110.385 13.1403 110.961 12.6816C111.537 12.223 112.401 11.9936 113.553 11.9936H115.569V11.8016C115.569 11.2576 115.414 10.8576 115.105 10.6016C114.796 10.3456 114.412 10.2176 113.953 10.2176C113.537 10.2176 113.174 10.319 112.865 10.5216C112.556 10.7136 112.364 11.0016 112.289 11.3856H110.289C110.342 10.8096 110.534 10.3083 110.865 9.88164C111.206 9.45497 111.644 9.12964 112.177 8.90564C112.71 8.67097 113.308 8.55364 113.969 8.55364C115.1 8.55364 115.99 8.83631 116.641 9.40164C117.292 9.96697 117.617 10.767 117.617 11.8016V16.6816H115.873L115.681 15.4016C115.446 15.8283 115.116 16.1803 114.689 16.4576C114.273 16.735 113.734 16.8736 113.073 16.8736ZM113.537 15.2736C114.124 15.2736 114.577 15.0816 114.897 14.6976C115.228 14.3136 115.436 13.839 115.521 13.2736H113.777C113.233 13.2736 112.844 13.375 112.609 13.5776C112.374 13.7696 112.257 14.0096 112.257 14.2976C112.257 14.607 112.374 14.847 112.609 15.0176C112.844 15.1883 113.153 15.2736 113.537 15.2736ZM119.571 16.6816V8.74564H121.379L121.555 9.81764C121.811 9.43364 122.147 9.12964 122.563 8.90564C122.99 8.67097 123.481 8.55364 124.035 8.55364C125.262 8.55364 126.131 9.02831 126.643 9.97764C126.931 9.54031 127.315 9.19364 127.795 8.93764C128.286 8.68164 128.819 8.55364 129.395 8.55364C130.43 8.55364 131.225 8.86297 131.779 9.48164C132.334 10.1003 132.611 11.007 132.611 12.2016V16.6816H130.563V12.3936C130.563 11.711 130.43 11.1883 130.163 10.8256C129.907 10.463 129.507 10.2816 128.963 10.2816C128.409 10.2816 127.961 10.4843 127.619 10.8896C127.289 11.295 127.123 11.8603 127.123 12.5856V16.6816H125.075V12.3936C125.075 11.711 124.942 11.1883 124.675 10.8256C124.409 10.463 123.998 10.2816 123.443 10.2816C122.899 10.2816 122.457 10.4843 122.115 10.8896C121.785 11.295 121.619 11.8603 121.619 12.5856V16.6816H119.571ZM138.412 16.8736C137.612 16.8736 136.902 16.703 136.284 16.3616C135.665 16.0203 135.18 15.5403 134.828 14.9216C134.476 14.303 134.3 13.5883 134.3 12.7776C134.3 11.9563 134.47 11.2256 134.812 10.5856C135.164 9.94564 135.644 9.44964 136.252 9.09764C136.87 8.73497 137.596 8.55364 138.428 8.55364C139.206 8.55364 139.894 8.72431 140.492 9.06564C141.089 9.40697 141.553 9.87631 141.884 10.4736C142.225 11.0603 142.396 11.7163 142.396 12.4416C142.396 12.559 142.39 12.6816 142.38 12.8096C142.38 12.9376 142.374 13.071 142.364 13.2096H136.332C136.374 13.8283 136.588 14.3136 136.972 14.6656C137.366 15.0176 137.841 15.1936 138.396 15.1936C138.812 15.1936 139.158 15.103 139.436 14.9216C139.724 14.7296 139.937 14.4843 140.076 14.1856H142.156C142.006 14.687 141.756 15.1456 141.404 15.5616C141.062 15.967 140.636 16.287 140.124 16.5216C139.622 16.7563 139.052 16.8736 138.412 16.8736ZM138.428 10.2176C137.926 10.2176 137.484 10.3616 137.1 10.6496C136.716 10.927 136.47 11.3536 136.364 11.9296H140.316C140.284 11.407 140.092 10.991 139.74 10.6816C139.388 10.3723 138.95 10.2176 138.428 10.2176Z" fill="white"/>
<path d="M63.058 75.2177C61.474 75.2177 60.09 74.8577 58.906 74.1377C57.722 73.4177 56.802 72.4177 56.146 71.1377C55.49 69.8417 55.162 68.3377 55.162 66.6257C55.162 64.8977 55.498 63.3777 56.17 62.0657C56.858 60.7377 57.826 59.7057 59.074 58.9697C60.338 58.2177 61.834 57.8417 63.562 57.8417C65.53 57.8417 67.162 58.3137 68.458 59.2577C69.754 60.2017 70.594 61.5057 70.978 63.1697H67.546C67.29 62.3857 66.826 61.7777 66.154 61.3457C65.482 60.8977 64.618 60.6737 63.562 60.6737C61.882 60.6737 60.586 61.2097 59.674 62.2817C58.762 63.3377 58.306 64.7937 58.306 66.6497C58.306 68.5057 58.754 69.9457 59.65 70.9697C60.562 71.9777 61.794 72.4817 63.346 72.4817C64.866 72.4817 66.01 72.0737 66.778 71.2577C67.562 70.4257 68.034 69.3377 68.194 67.9937H63.946V65.6897H71.29V74.9297H68.458L68.218 72.7217C67.674 73.5217 66.994 74.1377 66.178 74.5697C65.362 75.0017 64.322 75.2177 63.058 75.2177ZM78.6685 75.2177C77.1805 75.2177 76.0285 74.7537 75.2125 73.8257C74.4125 72.8977 74.0125 71.5377 74.0125 69.7457V63.0257H77.0605V69.4577C77.0605 70.4817 77.2685 71.2657 77.6845 71.8097C78.1005 72.3537 78.7565 72.6257 79.6525 72.6257C80.5005 72.6257 81.1965 72.3217 81.7405 71.7137C82.3005 71.1057 82.5805 70.2577 82.5805 69.1697V63.0257H85.6525V74.9297H82.9405L82.7005 72.9137C82.3325 73.6177 81.7965 74.1777 81.0925 74.5937C80.4045 75.0097 79.5965 75.2177 78.6685 75.2177ZM94.5901 75.2177C93.3901 75.2177 92.3261 74.9617 91.3981 74.4497C90.4701 73.9377 89.7421 73.2177 89.2141 72.2897C88.6861 71.3617 88.4221 70.2897 88.4221 69.0737C88.4221 67.8417 88.6781 66.7457 89.1901 65.7857C89.7181 64.8257 90.4381 64.0817 91.3501 63.5537C92.2781 63.0097 93.3661 62.7377 94.6141 62.7377C95.7821 62.7377 96.8141 62.9937 97.7101 63.5057C98.6061 64.0177 99.3021 64.7217 99.7981 65.6177C100.31 66.4977 100.566 67.4817 100.566 68.5697C100.566 68.7457 100.558 68.9297 100.542 69.1217C100.542 69.3137 100.534 69.5137 100.518 69.7217H91.4701C91.5341 70.6497 91.8541 71.3777 92.4301 71.9057C93.0221 72.4337 93.7341 72.6977 94.5661 72.6977C95.1901 72.6977 95.7101 72.5617 96.1261 72.2897C96.5581 72.0017 96.8781 71.6337 97.0861 71.1857H100.206C99.9821 71.9377 99.6061 72.6257 99.0781 73.2497C98.5661 73.8577 97.9261 74.3377 97.1581 74.6897C96.4061 75.0417 95.5501 75.2177 94.5901 75.2177ZM94.6141 65.2337C93.8621 65.2337 93.1981 65.4497 92.6221 65.8817C92.0461 66.2977 91.6781 66.9377 91.5181 67.8017H97.4461C97.3981 67.0177 97.1101 66.3937 96.5821 65.9297C96.0541 65.4657 95.3981 65.2337 94.6141 65.2337ZM108.07 75.2177C107.014 75.2177 106.086 75.0497 105.286 74.7137C104.486 74.3617 103.846 73.8817 103.366 73.2737C102.886 72.6657 102.598 71.9617 102.502 71.1617H105.598C105.694 71.6257 105.95 72.0257 106.366 72.3617C106.798 72.6817 107.35 72.8417 108.022 72.8417C108.694 72.8417 109.182 72.7057 109.486 72.4337C109.806 72.1617 109.966 71.8497 109.966 71.4977C109.966 70.9857 109.742 70.6417 109.294 70.4657C108.846 70.2737 108.222 70.0897 107.422 69.9137C106.91 69.8017 106.39 69.6657 105.862 69.5057C105.334 69.3457 104.846 69.1457 104.398 68.9057C103.966 68.6497 103.614 68.3297 103.342 67.9457C103.07 67.5457 102.934 67.0577 102.934 66.4817C102.934 65.4257 103.35 64.5377 104.182 63.8177C105.03 63.0977 106.214 62.7377 107.734 62.7377C109.142 62.7377 110.262 63.0657 111.094 63.7217C111.942 64.3777 112.446 65.2817 112.606 66.4337H109.702C109.526 65.5537 108.862 65.1137 107.71 65.1137C107.134 65.1137 106.686 65.2257 106.366 65.4497C106.062 65.6737 105.91 65.9537 105.91 66.2897C105.91 66.6417 106.142 66.9217 106.606 67.1297C107.07 67.3377 107.686 67.5297 108.454 67.7057C109.286 67.8977 110.046 68.1137 110.734 68.3537C111.438 68.5777 111.998 68.9217 112.414 69.3857C112.83 69.8337 113.038 70.4817 113.038 71.3297C113.054 72.0657 112.862 72.7297 112.462 73.3217C112.062 73.9137 111.486 74.3777 110.734 74.7137C109.982 75.0497 109.094 75.2177 108.07 75.2177ZM120.679 75.2177C119.623 75.2177 118.695 75.0497 117.895 74.7137C117.095 74.3617 116.455 73.8817 115.975 73.2737C115.495 72.6657 115.207 71.9617 115.111 71.1617H118.207C118.303 71.6257 118.559 72.0257 118.975 72.3617C119.407 72.6817 119.959 72.8417 120.631 72.8417C121.303 72.8417 121.791 72.7057 122.095 72.4337C122.415 72.1617 122.575 71.8497 122.575 71.4977C122.575 70.9857 122.351 70.6417 121.903 70.4657C121.455 70.2737 120.831 70.0897 120.031 69.9137C119.519 69.8017 118.999 69.6657 118.471 69.5057C117.943 69.3457 117.455 69.1457 117.007 68.9057C116.575 68.6497 116.223 68.3297 115.951 67.9457C115.679 67.5457 115.543 67.0577 115.543 66.4817C115.543 65.4257 115.959 64.5377 116.791 63.8177C117.639 63.0977 118.823 62.7377 120.343 62.7377C121.751 62.7377 122.871 63.0657 123.703 63.7217C124.551 64.3777 125.055 65.2817 125.215 66.4337H122.311C122.135 65.5537 121.471 65.1137 120.319 65.1137C119.743 65.1137 119.295 65.2257 118.975 65.4497C118.671 65.6737 118.519 65.9537 118.519 66.2897C118.519 66.6417 118.751 66.9217 119.215 67.1297C119.679 67.3377 120.295 67.5297 121.063 67.7057C121.895 67.8977 122.655 68.1137 123.343 68.3537C124.047 68.5777 124.607 68.9217 125.023 69.3857C125.439 69.8337 125.647 70.4817 125.647 71.3297C125.663 72.0657 125.471 72.7297 125.071 73.3217C124.671 73.9137 124.095 74.3777 123.343 74.7137C122.591 75.0497 121.703 75.2177 120.679 75.2177ZM137.567 74.9297L133.127 58.1297H136.415L139.439 71.4977L142.991 58.1297H146.375L149.831 71.4977L152.855 58.1297H156.167L151.607 74.9297H147.959L144.623 62.4737L141.191 74.9297H137.567ZM158.322 74.9297V57.6497H161.394V64.8497C161.794 64.1937 162.33 63.6817 163.002 63.3137C163.69 62.9297 164.474 62.7377 165.354 62.7377C166.826 62.7377 167.962 63.2017 168.762 64.1297C169.578 65.0577 169.986 66.4177 169.986 68.2097V74.9297H166.938V68.4977C166.938 67.4737 166.73 66.6897 166.314 66.1457C165.914 65.6017 165.274 65.3297 164.394 65.3297C163.53 65.3297 162.81 65.6337 162.234 66.2417C161.674 66.8497 161.394 67.6977 161.394 68.7857V74.9297H158.322ZM178.635 75.2177C177.483 75.2177 176.443 74.9537 175.515 74.4257C174.603 73.8977 173.875 73.1697 173.331 72.2417C172.803 71.2977 172.539 70.2097 172.539 68.9777C172.539 67.7457 172.811 66.6657 173.355 65.7377C173.899 64.7937 174.627 64.0577 175.539 63.5297C176.467 63.0017 177.507 62.7377 178.659 62.7377C179.795 62.7377 180.819 63.0017 181.731 63.5297C182.659 64.0577 183.387 64.7937 183.915 65.7377C184.459 66.6657 184.731 67.7457 184.731 68.9777C184.731 70.2097 184.459 71.2977 183.915 72.2417C183.387 73.1697 182.659 73.8977 181.731 74.4257C180.803 74.9537 179.771 75.2177 178.635 75.2177ZM178.635 72.5537C179.435 72.5537 180.131 72.2577 180.723 71.6657C181.315 71.0577 181.611 70.1617 181.611 68.9777C181.611 67.7937 181.315 66.9057 180.723 66.3137C180.131 65.7057 179.443 65.4017 178.659 65.4017C177.843 65.4017 177.139 65.7057 176.547 66.3137C175.971 66.9057 175.683 67.7937 175.683 68.9777C175.683 70.1617 175.971 71.0577 176.547 71.6657C177.139 72.2577 177.835 72.5537 178.635 72.5537Z" fill="white"/>
<path d="M106.986 120.854C106.986 126.749 101.419 125.857 94.5515 125.857C87.6842 125.857 82.1172 126.749 82.1172 120.854C82.1172 114.959 84.8365 104.51 94.5515 104.51C104.601 104.51 106.986 114.959 106.986 120.854Z" fill="#2F2E41"/>
<path d="M68.0446 228.536L64.0693 227.281L67.12 211.672L72.9869 213.524L68.0446 228.536Z" fill="#FFB8B8"/>
<path d="M67.8173 232.629L55 228.584L55.0523 228.425C55.2634 227.783 55.6015 227.189 56.0473 226.675C56.4931 226.162 57.0379 225.739 57.6504 225.432C58.263 225.125 58.9314 224.938 59.6175 224.884C60.3036 224.83 60.9939 224.908 61.6491 225.115L61.6494 225.115L69.4777 227.585L67.8173 232.629Z" fill="#2F2E41"/>
<path d="M116.84 228.666L112.664 228.665L110.677 212.893H116.841L116.84 228.666Z" fill="#FFB8B8"/>
<path d="M117.902 232.629L104.436 232.629V232.462C104.436 231.788 104.571 231.121 104.835 230.498C105.098 229.876 105.484 229.31 105.971 228.833C106.458 228.357 107.035 227.979 107.671 227.721C108.307 227.463 108.989 227.33 109.677 227.33H109.678L117.902 227.33L117.902 232.629Z" fill="#2F2E41"/>
<path d="M119.251 169.222C118.619 169.221 117.996 169.067 117.439 168.775C116.882 168.482 116.406 168.06 116.055 167.544C115.705 167.029 115.489 166.437 115.427 165.821C115.366 165.205 115.46 164.583 115.702 164.011L101.673 132.797C101.533 132.423 101.47 132.025 101.488 131.626C101.506 131.228 101.605 130.837 101.778 130.476C101.951 130.115 102.196 129.791 102.497 129.523C102.799 129.255 103.152 129.048 103.536 128.915C103.92 128.781 104.327 128.723 104.734 128.745C105.14 128.766 105.539 128.866 105.906 129.039C106.273 129.212 106.601 129.454 106.872 129.752C107.143 130.05 107.351 130.397 107.484 130.774L121.108 162.146C121.275 162.234 121.435 162.334 121.587 162.446C122 162.753 122.346 163.139 122.604 163.58C122.861 164.022 123.025 164.509 123.085 165.014C123.145 165.519 123.1 166.031 122.953 166.518C122.807 167.006 122.561 167.459 122.23 167.851C121.868 168.281 121.413 168.626 120.898 168.863C120.383 169.1 119.82 169.223 119.251 169.222Z" fill="#FFB8B8"/>
<path d="M69.8441 171.556C69.275 171.557 68.7127 171.434 68.1977 171.197C67.6826 170.96 67.2275 170.614 66.8651 170.185C66.5347 169.793 66.2887 169.339 66.1418 168.852C65.9949 168.365 65.9502 167.853 66.0103 167.348C66.0703 166.843 66.234 166.356 66.4914 165.914C66.7489 165.473 67.0948 165.087 67.5083 164.78C67.66 164.668 67.8203 164.568 67.9877 164.48L81.6155 133.097C81.7495 132.722 81.9581 132.376 82.2292 132.079C82.5003 131.783 82.8286 131.542 83.1951 131.37C83.5617 131.198 83.9593 131.099 84.3651 131.078C84.7709 131.058 85.177 131.115 85.5599 131.249C85.9427 131.382 86.2949 131.588 86.5962 131.855C86.8974 132.122 87.1418 132.445 87.3153 132.805C87.4887 133.165 87.5878 133.555 87.6069 133.952C87.6259 134.349 87.5646 134.747 87.4263 135.121L73.3928 166.345C73.635 166.917 73.7295 167.539 73.668 168.155C73.6064 168.771 73.3906 169.363 73.0397 169.878C72.6889 170.394 72.2137 170.816 71.6563 171.109C71.0989 171.401 70.4765 171.555 69.8441 171.556Z" fill="#FFB8B8"/>
<path d="M94.5058 125.848C99.1268 125.848 102.873 122.18 102.873 117.655C102.873 113.131 99.1268 109.463 94.5058 109.463C89.8847 109.463 86.1387 113.131 86.1387 117.655C86.1387 122.18 89.8847 125.848 94.5058 125.848Z" fill="#FFB8B8"/>
<path d="M88.5517 157.73L88.4821 157.676C83.9187 154.148 82.2101 142.308 81.5978 135.564C81.4659 134.177 81.8908 132.794 82.7824 131.708C83.674 130.622 84.9623 129.919 86.3744 129.747L101.794 127.835C102.606 127.735 103.431 127.813 104.208 128.065C104.985 128.317 105.695 128.736 106.286 129.292C106.876 129.847 107.332 130.525 107.62 131.275C107.908 132.025 108.021 132.829 107.951 133.628L106.292 152.502L88.5517 157.73Z" fill="#6C63FF"/>
<path d="M110.624 219.131C110.27 219.131 109.927 219.011 109.654 218.792C109.38 218.572 109.193 218.266 109.125 217.926L100.77 177.336C100.751 177.247 100.708 177.164 100.645 177.097C100.582 177.03 100.501 176.981 100.412 176.955C100.322 176.93 100.227 176.929 100.137 176.952C100.047 176.975 99.9656 177.023 99.9009 177.088L82.771 195.161L74.341 215.711C74.2107 216.052 73.9583 216.335 73.6306 216.508C73.303 216.681 72.9225 216.731 72.5599 216.649L66.2684 215.228C66.0659 215.182 65.875 215.096 65.7073 214.976C65.5396 214.856 65.3987 214.703 65.293 214.528C65.1873 214.353 65.1192 214.158 65.0926 213.957C65.0661 213.755 65.0818 213.55 65.1387 213.354L70.536 194.79C71.1052 192.829 72.0097 190.977 73.2111 189.312L87.7377 169.162L88.4228 157.424L106.317 151.359L106.383 151.395C118.687 158.061 118.625 182.219 118.559 207.796C118.552 210.781 118.544 213.868 118.558 216.882C118.561 217.253 118.422 217.612 118.169 217.889C117.916 218.166 117.567 218.34 117.19 218.379L110.793 219.121C110.737 219.128 110.68 219.131 110.624 219.131Z" fill="#2F2E41"/>
<path d="M84.8389 116.852H88.1482L89.6082 112.849L89.9001 116.852H91.4818L92.3335 114.517L92.5038 116.852H104.257C104.257 114.552 103.324 112.346 101.663 110.72C100.001 109.093 97.7486 108.18 95.3995 108.18H93.6962C91.3471 108.18 89.0942 109.093 87.4331 110.72C85.772 112.346 84.8389 114.552 84.8389 116.852Z" fill="#2F2E41"/>
<path d="M94.672 134.529C94.8232 134.529 98.4176 134.486 102.014 130.745C106.735 125.834 109.129 117.17 109.129 104.994C109.129 104.815 109.029 104.651 108.868 104.567C108.707 104.483 108.512 104.492 108.36 104.591C108.309 104.624 103.151 107.927 94.672 107.927C86.2146 107.927 81.0345 104.624 80.9834 104.591C80.8314 104.493 80.6359 104.483 80.4761 104.568C80.315 104.651 80.2148 104.815 80.2148 104.994C80.2148 117.17 82.6094 125.834 87.3307 130.746C90.9264 134.486 94.5207 134.529 94.672 134.529ZM94.0118 109.346C100.965 109.346 106.361 106.789 108.136 105.843C107.997 120.036 104.392 126.817 101.358 130.014C98.0807 133.467 94.7636 133.559 94.672 133.561C94.5804 133.559 91.2633 133.467 87.9858 130.014C84.9518 126.817 81.3465 120.036 81.2079 105.842C82.9831 106.789 87.0585 109.346 94.0118 109.346Z" fill="#00D5E0"/>
<path d="M94.0118 109.346C100.965 109.346 106.361 106.789 108.136 105.843C107.997 120.036 104.392 126.817 101.358 130.014C98.0807 133.467 94.7636 133.559 94.672 133.561C94.5804 133.559 91.2633 133.467 87.9858 130.014C84.9518 126.817 81.3465 120.036 81.2079 105.842C82.9831 106.789 87.0585 109.346 94.0118 109.346Z" fill="#00D5E0"/>
<path d="M97.605 115.578C97.837 114.942 98.6058 114.304 99.6135 113.913C100.094 113.726 100.608 113.605 101.097 113.563C102.135 113.474 102.987 113.733 103.267 114.223C103.381 114.423 103.39 114.656 103.296 114.916C103.064 115.552 102.296 116.19 101.288 116.581C100.807 116.768 100.294 116.889 99.8033 116.931C98.7653 117.02 97.9139 116.761 97.6346 116.273C97.5201 116.072 97.5106 115.838 97.605 115.578Z" fill="white"/>
<path d="M97.605 115.578C97.837 114.942 98.6058 114.304 99.6135 113.913C100.094 113.726 100.608 113.605 101.097 113.563C102.135 113.474 102.987 113.733 103.267 114.223C103.381 114.423 103.39 114.656 103.296 114.916C103.064 115.552 102.296 116.19 101.288 116.581C100.807 116.768 100.294 116.889 99.8033 116.931C98.7653 117.02 97.9139 116.761 97.6346 116.273C97.5201 116.072 97.5106 115.838 97.605 115.578Z" fill="url(#paint0_linear)"/>
<path d="M86.0471 114.915C85.9534 114.656 85.9629 114.423 86.0774 114.223C86.3567 113.733 87.2081 113.474 88.2461 113.563C88.7359 113.605 89.2497 113.726 89.7307 113.913C90.7377 114.304 91.5073 114.942 91.7386 115.577C91.8329 115.838 91.8234 116.072 91.7089 116.273C91.4303 116.761 90.5789 117.02 89.5409 116.931C89.0504 116.889 88.5373 116.768 88.0563 116.581C87.0476 116.19 86.278 115.551 86.0471 114.915Z" fill="white"/>
<path d="M94.6734 130.256C98.4422 130.256 101.959 122.604 102.107 122.279C102.203 122.065 102.132 121.815 101.935 121.683C101.738 121.55 101.474 121.575 101.305 121.74C101.272 121.772 97.9213 125.015 94.6731 125.015C91.4317 125.015 88.0751 121.772 88.0417 121.739C87.8727 121.575 87.6084 121.55 87.4118 121.683C87.2152 121.815 87.1434 122.065 87.2398 122.279C87.3883 122.604 90.905 130.256 94.6734 130.256ZM94.6734 125.984C96.728 125.984 98.744 124.904 100.141 123.933C98.7808 126.301 96.6152 129.288 94.6734 129.288C92.7316 129.288 90.5667 126.301 89.2068 123.933C90.6035 124.904 92.6189 125.984 94.6734 125.984Z" fill="white"/>
<path d="M153.488 114.853C155.876 119.45 157.759 124.192 163.027 124.192C165.556 124.192 167.983 123.208 169.772 121.457C171.56 119.705 172.565 117.33 172.565 114.853C172.565 112.376 171.56 110 169.772 108.249C167.983 106.497 165.556 105.513 163.027 105.513C157.673 105.447 149.043 106.295 153.488 114.853Z" fill="#2F2E41"/>
<path d="M160.986 227.173L156.91 228.062L151.466 213.09L157.482 211.777L160.986 227.173Z" fill="#A0616A"/>
<path d="M162.909 230.815L149.765 233.683L149.728 233.52C149.578 232.862 149.562 232.182 149.681 231.518C149.8 230.854 150.051 230.22 150.42 229.651C150.789 229.082 151.269 228.59 151.833 228.203C152.396 227.816 153.032 227.541 153.704 227.394L153.704 227.394L161.732 225.643L162.909 230.815Z" fill="#2F2E41"/>
<path d="M173.097 232.523H168.921L166.934 216.75L173.098 216.75L173.097 232.523Z" fill="#A0616A"/>
<path d="M174.165 236.487L160.698 236.486V236.32C160.698 235.646 160.834 234.978 161.097 234.356C161.361 233.733 161.747 233.167 162.233 232.691C162.72 232.214 163.298 231.836 163.934 231.578C164.57 231.32 165.252 231.187 165.94 231.188H165.94L174.165 231.188L174.165 236.487Z" fill="#2F2E41"/>
<path d="M173.127 224.257H167.796C167.426 224.256 167.069 224.124 166.79 223.886C166.511 223.648 166.329 223.319 166.278 222.96L161.446 186.363C161.43 186.249 161.374 186.143 161.287 186.065C161.201 185.986 161.089 185.939 160.972 185.932C160.854 185.925 160.737 185.958 160.641 186.025C160.546 186.092 160.477 186.19 160.446 186.302L157.582 196.752L160.164 220.551C160.207 220.918 160.111 221.288 159.894 221.59C159.677 221.891 159.353 222.104 158.986 222.187L154.757 223.142C154.382 223.225 153.988 223.168 153.653 222.981C153.319 222.793 153.068 222.49 152.951 222.131L146.141 198.994C145.593 197.298 145.404 195.511 145.587 193.741L147.718 172.883L147.879 172.891L176.322 174.233L174.659 222.809C174.647 223.198 174.479 223.567 174.193 223.838C173.907 224.108 173.525 224.259 173.127 224.257Z" fill="#2F2E41"/>
<path d="M162.559 124.373C167.18 124.373 170.927 120.705 170.927 116.181C170.927 111.656 167.18 107.988 162.559 107.988C157.938 107.988 154.192 111.656 154.192 116.181C154.192 120.705 157.938 124.373 162.559 124.373Z" fill="#A0616A"/>
<path d="M175.681 176.479C175.653 176.479 175.626 176.479 175.598 176.477L147.239 174.984C147.005 174.972 146.776 174.907 146.572 174.795C146.367 174.683 146.191 174.526 146.058 174.337C145.925 174.147 145.838 173.931 145.804 173.703C145.77 173.476 145.79 173.244 145.862 173.026L148.106 166.201C150.509 158.885 150.92 151.081 149.298 143.561C148.873 141.593 148.881 139.56 149.323 137.596C149.765 135.631 150.631 133.782 151.861 132.172C153.071 130.584 154.614 129.267 156.386 128.309C158.158 127.352 160.118 126.776 162.136 126.62H162.136C162.275 126.609 162.414 126.599 162.554 126.591C164.688 126.467 166.824 126.812 168.805 127.599C170.786 128.387 172.563 129.597 174.006 131.143C175.448 132.688 176.52 134.529 177.144 136.532C177.767 138.534 177.926 140.648 177.609 142.718L175.632 155.718L177.208 174.858C177.225 175.064 177.198 175.272 177.129 175.468C177.06 175.664 176.951 175.844 176.807 175.996C176.664 176.148 176.489 176.27 176.296 176.353C176.102 176.436 175.892 176.479 175.681 176.479Z" fill="#CCCCCC"/>
<path d="M140.787 178.207C141.202 177.932 141.55 177.572 141.807 177.151C142.064 176.73 142.223 176.259 142.274 175.771C142.325 175.283 142.267 174.791 142.102 174.327C141.937 173.864 141.671 173.442 141.322 173.091L146.782 162.438L140.5 163.166L136.278 173.171C135.714 173.784 135.399 174.579 135.394 175.405C135.388 176.23 135.692 177.029 136.248 177.65C136.804 178.271 137.573 178.67 138.409 178.773C139.246 178.876 140.092 178.674 140.787 178.207H140.787Z" fill="#A0616A"/>
<path d="M178.273 179.943C177.911 179.604 177.629 179.192 177.448 178.735C177.266 178.278 177.189 177.787 177.222 177.298C177.255 176.809 177.397 176.332 177.639 175.903C177.88 175.473 178.215 175.1 178.619 174.811L175.054 163.414L181.123 165.16L183.578 175.715C184.03 176.412 184.204 177.247 184.069 178.062C183.934 178.877 183.498 179.615 182.844 180.136C182.19 180.657 181.363 180.926 180.521 180.89C179.678 180.854 178.879 180.517 178.273 179.943V179.943Z" fill="#A0616A"/>
<path d="M177.683 173.973C177.311 173.974 176.952 173.842 176.672 173.602C176.393 173.362 176.213 173.03 176.165 172.669L173.329 151.714L168.802 135.339C168.611 134.647 168.583 133.921 168.72 133.217C168.857 132.512 169.156 131.848 169.594 131.273C170.032 130.698 170.598 130.229 171.248 129.899C171.899 129.57 172.617 129.39 173.349 129.372C174.509 129.348 175.64 129.732 176.535 130.454C177.431 131.175 178.033 132.188 178.232 133.307L184.976 171.98C185.012 172.19 185.003 172.406 184.948 172.612C184.893 172.818 184.793 173.011 184.657 173.176C184.52 173.342 184.348 173.477 184.154 173.573C183.96 173.669 183.747 173.723 183.529 173.732L177.75 173.972C177.728 173.972 177.705 173.973 177.683 173.973Z" fill="#CCCCCC"/>
<path d="M143.825 171.62C143.715 171.62 143.606 171.608 143.498 171.586L137.841 170.405C137.628 170.36 137.427 170.272 137.252 170.146C137.077 170.019 136.931 169.858 136.824 169.672C136.718 169.486 136.653 169.28 136.634 169.068C136.615 168.856 136.642 168.642 136.714 168.441L149.963 131.414C150.352 130.344 151.118 129.446 152.124 128.881C153.131 128.316 154.31 128.122 155.449 128.334C156.168 128.471 156.846 128.766 157.431 129.197C158.016 129.629 158.493 130.184 158.827 130.822C159.161 131.461 159.342 132.165 159.357 132.882C159.372 133.599 159.22 134.31 158.914 134.961L151.648 150.385L145.283 170.561C145.188 170.867 144.995 171.136 144.732 171.326C144.47 171.517 144.151 171.62 143.825 171.62Z" fill="#CCCCCC"/>
<path d="M153.68 111.551C155.592 112.841 157.861 113.528 160.183 113.519C159.355 114.081 158.412 114.461 157.419 114.632C160.507 115.281 163.698 115.298 166.792 114.684C167.48 114.576 168.144 114.353 168.754 114.024C169.059 113.858 169.324 113.631 169.532 113.357C169.741 113.084 169.889 112.771 169.966 112.438C170.171 111.288 169.256 110.243 168.304 109.539C166.848 108.477 165.169 107.745 163.388 107.397C161.607 107.048 159.769 107.092 158.008 107.524C156.858 107.815 155.706 108.307 154.959 109.211C154.212 110.116 153.99 111.51 154.702 112.441L153.68 111.551Z" fill="#2F2E41"/>
<path d="M162.309 131.602C162.434 131.602 165.398 131.566 168.364 128.481C172.258 124.43 174.232 117.285 174.232 107.243C174.232 107.096 174.149 106.96 174.017 106.891C173.884 106.822 173.723 106.829 173.598 106.911C173.556 106.938 169.302 109.662 162.309 109.662C155.334 109.662 151.062 106.938 151.02 106.911C150.894 106.83 150.733 106.822 150.601 106.891C150.468 106.96 150.386 107.096 150.386 107.243C150.386 117.285 152.361 124.43 156.254 128.481C159.22 131.566 162.184 131.602 162.309 131.602ZM161.765 110.833C167.499 110.833 171.949 108.723 173.413 107.943C173.299 119.649 170.326 125.241 167.823 127.878C165.12 130.726 162.385 130.802 162.309 130.803C162.233 130.802 159.498 130.726 156.795 127.878C154.292 125.241 151.319 119.649 151.205 107.943C152.669 108.723 156.03 110.833 161.765 110.833Z" fill="#FF7A41"/>
<path d="M161.765 110.833C167.499 110.833 171.949 108.723 173.413 107.943C173.299 119.649 170.326 125.241 167.823 127.878C165.12 130.726 162.385 130.802 162.309 130.803C162.233 130.802 159.498 130.726 156.795 127.878C154.292 125.241 151.319 119.649 151.205 107.943C152.669 108.723 156.03 110.833 161.765 110.833Z" fill="#FF7A41"/>
<path d="M164.728 115.972C164.919 115.447 165.553 114.921 166.384 114.599C166.78 114.445 167.204 114.345 167.608 114.311C168.464 114.237 169.166 114.451 169.397 114.854C169.491 115.019 169.499 115.212 169.422 115.426C169.23 115.951 168.596 116.477 167.765 116.799C167.369 116.954 166.945 117.053 166.541 117.088C165.685 117.161 164.983 116.948 164.752 116.545C164.658 116.38 164.65 116.187 164.728 115.972Z" fill="white"/>
<path d="M164.728 115.972C164.919 115.447 165.553 114.921 166.384 114.599C166.78 114.445 167.204 114.345 167.608 114.311C168.464 114.237 169.166 114.451 169.397 114.854C169.491 115.019 169.499 115.212 169.422 115.426C169.23 115.951 168.596 116.477 167.765 116.799C167.369 116.954 166.945 117.053 166.541 117.088C165.685 117.161 164.983 116.948 164.752 116.545C164.658 116.38 164.65 116.187 164.728 115.972Z" fill="url(#paint1_linear)"/>
<path d="M155.196 115.426C155.119 115.212 155.127 115.019 155.221 114.854C155.452 114.451 156.154 114.237 157.01 114.31C157.414 114.345 157.838 114.445 158.234 114.599C159.065 114.921 159.7 115.447 159.89 115.971C159.968 116.186 159.96 116.38 159.866 116.545C159.636 116.948 158.934 117.161 158.078 117.088C157.673 117.053 157.25 116.953 156.853 116.799C156.022 116.477 155.387 115.95 155.196 115.426Z" fill="white"/>
<path d="M162.31 128.078C165.419 128.078 168.319 121.768 168.441 121.499C168.521 121.323 168.461 121.116 168.299 121.008C168.137 120.899 167.919 120.919 167.78 121.055C167.752 121.082 164.989 123.756 162.31 123.756C159.637 123.756 156.868 121.081 156.841 121.054C156.702 120.919 156.484 120.899 156.321 121.008C156.159 121.117 156.1 121.323 156.18 121.499C156.302 121.768 159.202 128.078 162.31 128.078ZM162.31 124.555C164.005 124.555 165.668 123.664 166.819 122.864C165.698 124.816 163.912 127.28 162.31 127.28C160.709 127.28 158.923 124.816 157.802 122.863C158.954 123.664 160.616 124.555 162.31 124.555Z" fill="white"/>
<defs>
<filter id="filter0_d" x="0" y="21.2637" width="240" height="238.99" filterUnits="userSpaceOnUse" color-interpolation-filters="sRGB">
<feFlood flood-opacity="0" result="BackgroundImageFix"/>
<feColorMatrix in="SourceAlpha" type="matrix" values="0 0 0 0 0 0 0 0 0 0 0 0 0 0 0 0 0 0 127 0"/>
<feOffset dy="1"/>
<feGaussianBlur stdDeviation="1"/>
<feColorMatrix type="matrix" values="0 0 0 0 0.0588235 0 0 0 0 0.0588235 0 0 0 0 0.0588235 0 0 0 0.1 0"/>
<feBlend mode="normal" in2="BackgroundImageFix" result="effect1_dropShadow"/>
<feBlend mode="normal" in="SourceGraphic" in2="effect1_dropShadow" result="shape"/>
</filter>
<linearGradient id="paint0_linear" x1="100.451" y1="112.578" x2="100.451" y2="117.916" gradientUnits="userSpaceOnUse">
<stop stop-color="white"/>
<stop offset="1" stop-color="white" stop-opacity="0"/>
</linearGradient>
<linearGradient id="paint1_linear" x1="167.075" y1="113.498" x2="167.075" y2="117.9" gradientUnits="userSpaceOnUse">
<stop stop-color="white"/>
<stop offset="1" stop-color="white" stop-opacity="0"/>
</linearGradient>
</defs>
</svg>
