<svg width="88" height="68" viewBox="0 0 88 68" fill="none" xmlns="http://www.w3.org/2000/svg">
<path d="M3.50988 65V53.8H5.55788V65H3.50988ZM11.5686 65.192C10.758 65.192 10.0433 65.016 9.42463 64.664C8.80596 64.312 8.31529 63.8213 7.95263 63.192C7.60063 62.5627 7.42463 61.8427 7.42463 61.032C7.42463 60.2213 7.60063 59.5013 7.95263 58.872C8.31529 58.2427 8.80596 57.752 9.42463 57.4C10.0433 57.048 10.758 56.872 11.5686 56.872C12.582 56.872 13.4353 57.1387 14.1286 57.672C14.822 58.1947 15.2646 58.92 15.4566 59.848H13.2966C13.19 59.464 12.9766 59.1653 12.6566 58.952C12.3473 58.728 11.9793 58.616 11.5526 58.616C10.9873 58.616 10.5073 58.8293 10.1126 59.256C9.71796 59.6827 9.52063 60.2747 9.52063 61.032C9.52063 61.7893 9.71796 62.3813 10.1126 62.808C10.5073 63.2347 10.9873 63.448 11.5526 63.448C11.9793 63.448 12.3473 63.3413 12.6566 63.128C12.9766 62.9147 13.19 62.6107 13.2966 62.216H15.4566C15.2646 63.112 14.822 63.832 14.1286 64.376C13.4353 64.92 12.582 65.192 11.5686 65.192ZM21.1304 65.192C20.3304 65.192 19.621 65.0213 19.0024 64.68C18.3837 64.3387 17.8984 63.8587 17.5464 63.24C17.1944 62.6213 17.0184 61.9067 17.0184 61.096C17.0184 60.2747 17.189 59.544 17.5304 58.904C17.8824 58.264 18.3624 57.768 18.9704 57.416C19.589 57.0533 20.3144 56.872 21.1464 56.872C21.925 56.872 22.613 57.0427 23.2104 57.384C23.8077 57.7253 24.2717 58.1947 24.6024 58.792C24.9437 59.3787 25.1144 60.0347 25.1144 60.76C25.1144 60.8773 25.109 61 25.0984 61.128C25.0984 61.256 25.093 61.3893 25.0824 61.528H19.0504C19.093 62.1467 19.3064 62.632 19.6904 62.984C20.085 63.336 20.5597 63.512 21.1144 63.512C21.5304 63.512 21.877 63.4213 22.1544 63.24C22.4424 63.048 22.6557 62.8027 22.7944 62.504H24.8744C24.725 63.0053 24.4744 63.464 24.1224 63.88C23.781 64.2853 23.3544 64.6053 22.8424 64.84C22.341 65.0747 21.7704 65.192 21.1304 65.192ZM21.1464 58.536C20.645 58.536 20.2024 58.68 19.8184 58.968C19.4344 59.2453 19.189 59.672 19.0824 60.248H23.0344C23.0024 59.7253 22.8104 59.3093 22.4584 59C22.1064 58.6907 21.669 58.536 21.1464 58.536ZM31.5409 65.192C30.9435 65.192 30.4209 65.08 29.9729 64.856C29.5249 64.632 29.1622 64.3173 28.8849 63.912L28.6609 65H26.8369V53.48H28.8849V58.2C29.1409 57.848 29.4769 57.5387 29.8929 57.272C30.3195 57.0053 30.8689 56.872 31.5409 56.872C32.2875 56.872 32.9542 57.0533 33.5409 57.416C34.1275 57.7787 34.5915 58.2747 34.9329 58.904C35.2742 59.5333 35.4449 60.248 35.4449 61.048C35.4449 61.848 35.2742 62.5627 34.9329 63.192C34.5915 63.8107 34.1275 64.3013 33.5409 64.664C32.9542 65.016 32.2875 65.192 31.5409 65.192ZM31.1089 63.4C31.7595 63.4 32.2982 63.1813 32.7249 62.744C33.1515 62.3067 33.3649 61.7413 33.3649 61.048C33.3649 60.3547 33.1515 59.784 32.7249 59.336C32.2982 58.888 31.7595 58.664 31.1089 58.664C30.4475 58.664 29.9035 58.888 29.4769 59.336C29.0609 59.7733 28.8529 60.3387 28.8529 61.032C28.8529 61.7253 29.0609 62.296 29.4769 62.744C29.9035 63.1813 30.4475 63.4 31.1089 63.4ZM37.2744 65V57.064H39.0984L39.2904 58.552C39.5784 58.04 39.9677 57.6347 40.4584 57.336C40.9597 57.0267 41.5464 56.872 42.2184 56.872V59.032H41.6424C41.1944 59.032 40.7944 59.1013 40.4424 59.24C40.0904 59.3787 39.813 59.6187 39.6104 59.96C39.4184 60.3013 39.3224 60.776 39.3224 61.384V65H37.2744ZM47.3335 65.192C46.5335 65.192 45.8242 65.0213 45.2055 64.68C44.5868 64.3387 44.1015 63.8587 43.7495 63.24C43.3975 62.6213 43.2215 61.9067 43.2215 61.096C43.2215 60.2747 43.3922 59.544 43.7335 58.904C44.0855 58.264 44.5655 57.768 45.1735 57.416C45.7922 57.0533 46.5175 56.872 47.3495 56.872C48.1282 56.872 48.8162 57.0427 49.4135 57.384C50.0108 57.7253 50.4748 58.1947 50.8055 58.792C51.1468 59.3787 51.3175 60.0347 51.3175 60.76C51.3175 60.8773 51.3122 61 51.3015 61.128C51.3015 61.256 51.2962 61.3893 51.2855 61.528H45.2535C45.2962 62.1467 45.5095 62.632 45.8935 62.984C46.2882 63.336 46.7628 63.512 47.3175 63.512C47.7335 63.512 48.0802 63.4213 48.3575 63.24C48.6455 63.048 48.8588 62.8027 48.9975 62.504H51.0775C50.9282 63.0053 50.6775 63.464 50.3255 63.88C49.9842 64.2853 49.5575 64.6053 49.0455 64.84C48.5442 65.0747 47.9735 65.192 47.3335 65.192ZM47.3495 58.536C46.8482 58.536 46.4055 58.68 46.0215 58.968C45.6375 59.2453 45.3922 59.672 45.2855 60.248H49.2375C49.2055 59.7253 49.0135 59.3093 48.6615 59C48.3095 58.6907 47.8722 58.536 47.3495 58.536ZM55.776 65.192C55.0933 65.192 54.5333 65.0853 54.096 64.872C53.6587 64.648 53.3333 64.3547 53.12 63.992C52.9067 63.6293 52.8 63.2293 52.8 62.792C52.8 62.056 53.088 61.4587 53.664 61C54.24 60.5413 55.104 60.312 56.256 60.312H58.272V60.12C58.272 59.576 58.1173 59.176 57.808 58.92C57.4987 58.664 57.1147 58.536 56.656 58.536C56.24 58.536 55.8773 58.6373 55.568 58.84C55.2587 59.032 55.0667 59.32 54.992 59.704H52.992C53.0453 59.128 53.2373 58.6267 53.568 58.2C53.9093 57.7733 54.3467 57.448 54.88 57.224C55.4133 56.9893 56.0107 56.872 56.672 56.872C57.8027 56.872 58.6933 57.1547 59.344 57.72C59.9947 58.2853 60.32 59.0853 60.32 60.12V65H58.576L58.384 63.72C58.1493 64.1467 57.8187 64.4987 57.392 64.776C56.976 65.0533 56.4373 65.192 55.776 65.192ZM56.24 63.592C56.8267 63.592 57.28 63.4 57.6 63.016C57.9307 62.632 58.1387 62.1573 58.224 61.592H56.48C55.936 61.592 55.5467 61.6933 55.312 61.896C55.0773 62.088 54.96 62.328 54.96 62.616C54.96 62.9253 55.0773 63.1653 55.312 63.336C55.5467 63.5067 55.856 63.592 56.24 63.592ZM62.2744 65V53.48H64.3224V60.28L67.1384 57.064H69.5704L66.3224 60.68L70.0984 65H67.5384L64.3224 61.016V65H62.2744ZM74.5679 65.192C73.7679 65.192 73.0585 65.0213 72.4399 64.68C71.8212 64.3387 71.3359 63.8587 70.9839 63.24C70.6319 62.6213 70.4559 61.9067 70.4559 61.096C70.4559 60.2747 70.6265 59.544 70.9679 58.904C71.3199 58.264 71.7999 57.768 72.4079 57.416C73.0265 57.0533 73.7519 56.872 74.5839 56.872C75.3625 56.872 76.0505 57.0427 76.6479 57.384C77.2452 57.7253 77.7092 58.1947 78.0399 58.792C78.3812 59.3787 78.5519 60.0347 78.5519 60.76C78.5519 60.8773 78.5465 61 78.5359 61.128C78.5359 61.256 78.5305 61.3893 78.5199 61.528H72.4879C72.5305 62.1467 72.7439 62.632 73.1279 62.984C73.5225 63.336 73.9972 63.512 74.5519 63.512C74.9679 63.512 75.3145 63.4213 75.5919 63.24C75.8799 63.048 76.0932 62.8027 76.2319 62.504H78.3119C78.1625 63.0053 77.9119 63.464 77.5599 63.88C77.2185 64.2853 76.7919 64.6053 76.2799 64.84C75.7785 65.0747 75.2079 65.192 74.5679 65.192ZM74.5839 58.536C74.0825 58.536 73.6399 58.68 73.2559 58.968C72.8719 59.2453 72.6265 59.672 72.5199 60.248H76.4719C76.4399 59.7253 76.2479 59.3093 75.8959 59C75.5439 58.6907 75.1065 58.536 74.5839 58.536ZM80.2744 65V57.064H82.0984L82.2904 58.552C82.5784 58.04 82.9677 57.6347 83.4584 57.336C83.9597 57.0267 84.5464 56.872 85.2184 56.872V59.032H84.6424C84.1944 59.032 83.7944 59.1013 83.4424 59.24C83.0904 59.3787 82.813 59.6187 82.6104 59.96C82.4184 60.3013 82.3224 60.776 82.3224 61.384V65H80.2744Z" fill="#00D5E0"/>
<path d="M57.0592 18.7227C55.3789 15.8903 54.9949 12.2898 54.8988 10.5615C54.8988 10.5135 54.8988 10.4655 54.8988 10.4175C54.8988 10.2255 54.8988 10.0335 54.8508 9.84142C54.8508 9.60139 54.8508 9.45737 54.8508 9.45737V9.50538C54.4188 4.1766 49.9541 0 44.4813 0C39.0085 0 34.5439 4.1766 34.1118 9.50538C34.1118 9.50538 34.1118 9.55338 34.1118 9.60139C34.1118 9.88943 34.0638 10.1775 34.0638 10.4655C34.0638 10.5615 34.0638 10.6575 34.0638 10.7056C33.9678 12.4818 33.5357 15.9863 31.9035 18.7227C29.5992 22.6113 25.5186 29.0922 26.0467 33.7969C26.0467 33.7969 26.7188 34.0849 28.255 31.4446C28.591 30.8205 29.0231 30.1484 29.4071 29.4763C29.5512 34.9491 32.6236 39.7017 37.0883 42.2461C36.6082 42.5822 36.3201 43.0622 36.3201 43.5903C36.3201 44.6945 37.6643 45.6066 39.3446 45.6066C40.8328 45.6066 42.033 44.9345 42.321 43.9744C42.9931 44.0704 43.7132 44.1184 44.4333 44.1184C44.9614 44.1184 45.4895 44.0704 46.0176 44.0224C46.3536 44.8865 47.5538 45.5586 48.994 45.5586C50.6742 45.5586 52.0184 44.6465 52.0184 43.5423C52.0184 43.1102 51.8264 42.6782 51.4423 42.3901C56.099 39.8938 59.3155 35.0451 59.4595 29.4283C59.8916 30.1004 60.2756 30.7725 60.6597 31.3965C62.1479 34.0849 62.868 33.7489 62.868 33.7489C63.4441 29.0922 59.3635 22.6113 57.0592 18.7227ZM48.85 41.574C48.1299 41.622 47.5058 41.766 47.0257 42.0541C46.2096 42.1981 45.3455 42.2941 44.4813 42.2941C37.2323 42.2941 31.3274 36.5813 31.3274 29.4763C31.3274 28.7562 31.4234 28.0361 31.5195 27.316C31.6155 25.4917 33.6798 19.8749 34.4959 17.4745C35.312 15.0262 35.552 10.3695 35.552 10.3695C35.552 7.92115 37.6163 5.95286 40.2087 5.95286C42.129 5.95286 43.7612 7.05702 44.4813 8.64125C45.2014 7.05702 46.8337 5.95286 48.754 5.95286C51.2983 5.95286 53.4106 7.92115 53.4106 10.3695C53.4106 10.3695 53.6507 15.0742 54.4668 17.4745C55.2829 19.9229 57.2992 25.5397 57.4432 27.316C57.5872 28.0361 57.6352 28.7082 57.6352 29.4763C57.6352 35.0451 53.9867 39.7978 48.85 41.574Z" fill="#00D5E0"/>
<path d="M42.9922 11.1856V10.3695C42.9922 9.8894 42.6082 9.45734 42.0801 9.45734C41.6 9.45734 41.168 9.84139 41.168 10.3695V11.1856C41.168 11.6657 41.552 12.0977 42.0801 12.0977C42.5602 12.0977 42.9922 11.6657 42.9922 11.1856Z" fill="#00D5E0"/>
<path d="M46.8828 9.50537C46.4028 9.50537 45.9707 9.88943 45.9707 10.4175V11.2336C45.9707 11.7137 46.3548 12.1458 46.8828 12.1458C47.3629 12.1458 47.795 11.7617 47.795 11.2336V10.4175C47.795 9.88943 47.3629 9.50537 46.8828 9.50537Z" fill="#00D5E0"/>
<path d="M44.4797 13.106C43.2315 13.106 42.2234 13.9701 42.0794 15.0742C42.0314 15.3143 42.0794 15.6023 42.1754 15.8424L43.9517 18.8188C44.0957 19.0588 44.2877 19.1548 44.4317 19.1548C44.6237 19.1548 44.8158 19.0588 44.9598 18.8188L46.7361 15.8424C46.8801 15.6023 46.9281 15.3623 46.8321 15.0742C46.7361 13.9701 45.7279 13.106 44.4797 13.106Z" fill="#00D5E0"/>
</svg>
