<svg width="13" height="20" viewBox="0 0 13 20" fill="none" xmlns="http://www.w3.org/2000/svg">
<path d="M12.4173 5.95488C12.2952 2.58315 9.46097 -0.0480537 6.08923 0.000812531L6.66005 1.52299C8.83457 1.74289 10.6093 3.365 10.9025 5.53952C11.0247 6.4191 10.9025 7.24982 10.5849 7.98281C10.4383 8.30043 10.5849 8.69136 10.9025 8.86239H10.9269C11.3179 9.05785 11.7821 8.88682 11.9531 8.4959C12.2707 7.71405 12.4418 6.8589 12.4173 5.95488Z" fill="#FFE816"/>
<path d="M1.50323 14.4174C1.79594 16.5884 3.53781 18.2373 5.70878 18.4568V19.979C2.75724 19.7351 0.33237 17.3934 0.0396559 14.4662C-0.0823084 13.3929 0.0884415 12.3684 0.454335 11.4659C0.625085 11.0512 1.08855 10.9049 1.47884 11.1H1.50323C1.82034 11.2707 1.96669 11.6366 1.82034 11.9781C1.52762 12.7099 1.38126 13.5393 1.50323 14.4174Z" fill="#6361DB"/>
<path d="M6.66004 1.52289L6.08922 0.000717163C2.44873 0.0495834 -0.394833 3.17483 0.044958 6.88862C0.362585 9.57623 2.43938 11.7752 5.10256 12.2638C6.00657 12.4349 6.88615 12.386 7.69244 12.1905C8.22996 12.0684 8.42542 11.4087 8.05893 10.9933C7.8879 10.7979 7.61914 10.7001 7.35038 10.7734C6.81285 10.92 6.22647 10.9445 5.61565 10.8712C3.41669 10.6024 1.68196 8.79438 1.4865 6.64429C1.1933 3.63905 3.67923 1.2297 6.66004 1.52289Z" fill="#61D1DB"/>
<path d="M7.33299 7.63968C9.99181 8.12754 12.0652 10.3229 12.3823 13.0061C12.8458 16.9578 9.61149 20.2962 5.70863 19.9791V18.4569C8.68456 18.7496 11.2115 16.2992 10.9431 13.2988C10.7236 11.1035 8.9917 9.32279 6.82074 9.03008C6.21091 8.9569 5.62548 8.9813 5.06445 9.12765C4.79613 9.17644 4.52781 9.10326 4.35706 8.90812C3.96677 8.49344 4.1863 7.83482 4.72295 7.71286C5.55231 7.51772 6.43045 7.46893 7.33299 7.63968Z" fill="#F12587"/>
</svg>
