<svg width="118" height="51" viewBox="0 0 118 51" fill="none" xmlns="http://www.w3.org/2000/svg">
<path d="M13.4743 39.44C10.871 39.44 8.68934 38.945 6.92934 37.955C5.206 36.9283 3.886 35.645 2.96934 34.105C2.05267 32.5283 1.50267 30.915 1.31934 29.265H5.60934C5.756 30.2183 6.141 31.1717 6.76434 32.125C7.38767 33.0783 8.26767 33.8667 9.40434 34.49C10.541 35.1133 11.971 35.425 13.6943 35.425C15.3443 35.425 16.6643 35.1683 17.6543 34.655C18.681 34.105 19.4327 33.39 19.9093 32.51C20.4227 31.63 20.771 30.695 20.9543 29.705C21.1377 28.6783 21.2293 27.7067 21.2293 26.79V2.59H25.3543V26.955C25.3543 29.0817 24.9693 31.0983 24.1993 33.005C23.466 34.9117 22.2193 36.47 20.4593 37.68C18.736 38.8533 16.4077 39.44 13.4743 39.44ZM45.7782 39.44C43.1016 39.44 40.7549 38.8167 38.7382 37.57C36.7582 36.2867 35.2182 34.5633 34.1182 32.4C33.0182 30.2367 32.4682 27.8533 32.4682 25.25C32.4682 22.61 33.0182 20.2267 34.1182 18.1C35.2182 15.9367 36.7582 14.2317 38.7382 12.985C40.7549 11.7017 43.1016 11.06 45.7782 11.06C48.0516 11.06 49.9949 11.5 51.6082 12.38C53.2582 13.26 54.5966 14.4517 55.6232 15.955V11.5H59.7482V39H55.6232V34.6C54.5966 36.0667 53.2582 37.24 51.6082 38.12C49.9949 39 48.0516 39.44 45.7782 39.44ZM46.3282 35.7C48.3816 35.7 50.1049 35.2233 51.4982 34.27C52.9282 33.3167 54.0099 32.0517 54.7432 30.475C55.4766 28.8617 55.8432 27.12 55.8432 25.25C55.8432 23.3433 55.4766 21.6017 54.7432 20.025C54.0099 18.4483 52.9282 17.1833 51.4982 16.23C50.1049 15.2767 48.3816 14.8 46.3282 14.8C44.3116 14.8 42.5699 15.2767 41.1032 16.23C39.6366 17.1833 38.5182 18.4483 37.7482 20.025C36.9782 21.6017 36.5932 23.3433 36.5932 25.25C36.5932 27.12 36.9782 28.8617 37.7482 30.475C38.5182 32.0517 39.6366 33.3167 41.1032 34.27C42.5699 35.2233 44.3116 35.7 46.3282 35.7ZM67.9832 39V0.499997H72.1082V39H67.9832ZM80.3625 39V0.499997H84.4875V39H80.3625ZM95.6018 49.89L100.607 38.615L89.3868 11.5H93.9518L102.807 34.05L111.827 11.5H116.337L100.057 49.89H95.6018Z" fill="white"/>
<path d="M6.92934 37.955L6.69895 38.3417L6.70872 38.3472L6.92934 37.955ZM2.96934 34.105L2.58029 34.3312L2.58265 34.3352L2.96934 34.105ZM1.31933 29.265V28.815H0.816566L0.872087 29.3147L1.31933 29.265ZM5.60933 29.265L6.0541 29.1966L5.9954 28.815H5.60933V29.265ZM6.76434 32.125L6.3877 32.3713L6.76434 32.125ZM9.40434 34.49L9.18796 34.8846L9.40434 34.49ZM17.6543 34.655L17.8615 35.0545L17.8668 35.0517L17.6543 34.655ZM19.9093 32.51L19.5206 32.2833L19.517 32.2894L19.5137 32.2957L19.9093 32.51ZM20.9543 29.705L21.3968 29.7869L21.3973 29.7841L20.9543 29.705ZM21.2293 2.59V2.14H20.7793V2.59H21.2293ZM25.3543 2.59H25.8043V2.14H25.3543V2.59ZM24.1993 33.005L23.782 32.8365L23.7793 32.8435L24.1993 33.005ZM20.4593 37.68L20.7126 38.052L20.7143 38.0508L20.4593 37.68ZM13.4743 38.99C10.9265 38.99 8.82585 38.5055 7.14995 37.5628L6.70872 38.3472C8.55283 39.3845 10.8155 39.89 13.4743 39.89V38.99ZM7.15965 37.5684C5.49284 36.5754 4.23 35.3431 3.35602 33.8748L2.58265 34.3352C3.54201 35.9469 4.91917 37.2813 6.69902 38.3416L7.15965 37.5684ZM3.35836 33.8788C2.47005 32.3509 1.94235 30.7972 1.76658 29.2153L0.872087 29.3147C1.06299 31.0328 1.63529 32.7058 2.58031 34.3312L3.35836 33.8788ZM1.31933 29.715H5.60933V28.815H1.31933V29.715ZM5.16457 29.3334C5.3226 30.3607 5.73551 31.3738 6.3877 32.3713L7.14097 31.8787C6.54649 30.9695 6.1894 30.076 6.0541 29.1966L5.16457 29.3334ZM6.3877 32.3713C7.05676 33.3945 7.99555 34.2307 9.18796 34.8846L9.62071 34.0954C8.53979 33.5027 7.71858 32.7621 7.14097 31.8787L6.3877 32.3713ZM9.18796 34.8846C10.4092 35.5543 11.9194 35.875 13.6943 35.875V34.975C12.0226 34.975 10.6728 34.6724 9.62071 34.0954L9.18796 34.8846ZM13.6943 35.875C15.3845 35.875 16.7841 35.6131 17.8615 35.0545L17.4472 34.2555C16.5445 34.7236 15.3041 34.975 13.6943 34.975V35.875ZM17.8668 35.0517C18.9581 34.4671 19.7799 33.6937 20.305 32.7243L19.5137 32.2957C19.0854 33.0863 18.4039 33.7429 17.4418 34.2583L17.8668 35.0517ZM20.298 32.7367C20.8372 31.8125 21.2039 30.8286 21.3968 29.7869L20.5119 29.6231C20.3381 30.5614 20.0081 31.4475 19.5206 32.2833L20.298 32.7367ZM21.3973 29.7841C21.5847 28.7348 21.6793 27.7365 21.6793 26.79H20.7793C20.7793 27.6768 20.6906 28.6218 20.5113 29.6259L21.3973 29.7841ZM21.6793 26.79V2.59H20.7793V26.79H21.6793ZM21.2293 3.04H25.3543V2.14H21.2293V3.04ZM24.9043 2.59V26.955H25.8043V2.59H24.9043ZM24.9043 26.955C24.9043 29.0259 24.5297 30.9852 23.7821 32.8365L24.6166 33.1735C25.409 31.2115 25.8043 29.1374 25.8043 26.955H24.9043ZM23.7793 32.8435C23.0802 34.6613 21.8931 36.1482 20.2044 37.3092L20.7143 38.0508C22.5456 36.7918 23.8518 35.162 24.6193 33.1665L23.7793 32.8435ZM20.2061 37.308C18.5821 38.4137 16.3528 38.99 13.4743 38.99V39.89C16.4626 39.89 18.8899 39.293 20.7126 38.052L20.2061 37.308ZM38.7382 37.57L38.4934 37.9477L38.5016 37.9528L38.7382 37.57ZM34.1182 18.1L34.518 18.3067L34.5194 18.304L34.1182 18.1ZM38.7382 12.985L38.978 13.3658L38.9798 13.3646L38.7382 12.985ZM51.6082 12.38L51.3928 12.7751L51.3965 12.7771L51.6082 12.38ZM55.6232 15.955L55.2516 16.2088L56.0732 17.4119V15.955H55.6232ZM55.6232 11.5V11.05H55.1732V11.5H55.6232ZM59.7482 11.5H60.1982V11.05H59.7482V11.5ZM59.7482 39V39.45H60.1982V39H59.7482ZM55.6232 39H55.1732V39.45H55.6232V39ZM55.6232 34.6H56.0732V33.1724L55.2546 34.3419L55.6232 34.6ZM51.6082 38.12L51.3965 37.7229L51.3928 37.7249L51.6082 38.12ZM51.4982 34.27L51.2486 33.8955L51.2441 33.8986L51.4982 34.27ZM54.7432 30.475L55.1513 30.6648L55.1529 30.6612L54.7432 30.475ZM54.7432 20.025L54.3352 20.2148L54.7432 20.025ZM51.4982 16.23L51.2441 16.6014L51.2486 16.6044L51.4982 16.23ZM41.1032 16.23L40.858 15.8527L41.1032 16.23ZM37.7482 20.025L37.3439 19.8275L37.7482 20.025ZM37.7482 30.475L37.3421 30.6688L37.3439 30.6725L37.7482 30.475ZM41.1032 34.27L41.3485 33.8927L41.1032 34.27ZM45.7782 38.99C43.1741 38.99 40.9116 38.3845 38.9749 37.1872L38.5016 37.9528C40.5982 39.2489 43.0291 39.89 45.7782 39.89V38.99ZM38.983 37.1924C37.0715 35.9534 35.5845 34.2908 34.5194 32.196L33.7171 32.604C34.852 34.8358 36.445 36.6199 38.4935 37.9476L38.983 37.1924ZM34.5194 32.196C33.4538 30.1004 32.9182 27.7877 32.9182 25.25H32.0182C32.0182 27.9189 32.5827 30.3729 33.7171 32.604L34.5194 32.196ZM32.9182 25.25C32.9182 22.6744 33.4543 20.3631 34.5179 18.3067L33.7185 17.8933C32.5822 20.0902 32.0182 22.5456 32.0182 25.25H32.9182ZM34.5194 18.304C35.584 16.2102 37.0694 14.5675 38.978 13.3658L38.4985 12.6042C36.4471 13.8958 34.8525 15.6631 33.7171 17.896L34.5194 18.304ZM38.9798 13.3646C40.9159 12.1326 43.1766 11.51 45.7782 11.51V10.61C43.0266 10.61 40.5939 11.2707 38.4967 12.6054L38.9798 13.3646ZM45.7782 11.51C47.9939 11.51 49.8594 11.9387 51.3928 12.7751L51.8237 11.9849C50.1304 11.0613 48.1093 10.61 45.7782 10.61V11.51ZM51.3965 12.7771C52.9842 13.6239 54.2671 14.7671 55.2516 16.2088L55.9949 15.7012C54.9261 14.1363 53.5323 12.8961 51.82 11.9829L51.3965 12.7771ZM56.0732 15.955V11.5H55.1732V15.955H56.0732ZM55.6232 11.95H59.7482V11.05H55.6232V11.95ZM59.2982 11.5V39H60.1982V11.5H59.2982ZM59.7482 38.55H55.6232V39.45H59.7482V38.55ZM56.0732 39V34.6H55.1732V39H56.0732ZM55.2546 34.3419C54.2704 35.748 52.9868 36.8747 51.3965 37.7229L51.82 38.5171C53.5296 37.6053 54.9228 36.3854 55.9919 34.8581L55.2546 34.3419ZM51.3928 37.7249C49.8594 38.5613 47.9939 38.99 45.7782 38.99V39.89C48.1093 39.89 50.1304 39.4387 51.8237 38.5151L51.3928 37.7249ZM46.3282 36.15C48.4524 36.15 50.2693 35.6561 51.7524 34.6414L51.2441 33.8986C49.9405 34.7906 48.3108 35.25 46.3282 35.25V36.15ZM51.7479 34.6444C53.2475 33.6447 54.3835 32.3154 55.1513 30.6648L54.3352 30.2852C53.6363 31.7879 52.609 32.9886 51.2486 33.8956L51.7479 34.6444ZM55.1529 30.6612C55.9143 28.9862 56.2932 27.1806 56.2932 25.25H55.3932C55.3932 27.0594 55.0389 28.7371 54.3336 30.2888L55.1529 30.6612ZM56.2932 25.25C56.2932 23.2842 55.9148 21.4769 55.1513 19.8352L54.3352 20.2148C55.0383 21.7265 55.3932 23.4025 55.3932 25.25H56.2932ZM55.1513 19.8352C54.3835 18.1846 53.2475 16.8553 51.7479 15.8556L51.2486 16.6044C52.609 17.5114 53.6363 18.7121 54.3352 20.2148L55.1513 19.8352ZM51.7524 15.8586C50.2693 14.8439 48.4524 14.35 46.3282 14.35V15.25C48.3108 15.25 49.9405 15.7094 51.2441 16.6014L51.7524 15.8586ZM46.3282 14.35C44.2382 14.35 42.4083 14.845 40.858 15.8527L41.3485 16.6073C42.7315 15.7083 44.385 15.25 46.3282 15.25V14.35ZM40.858 15.8527C39.3228 16.8506 38.1495 18.1778 37.3439 19.8275L38.1526 20.2225C38.8869 18.7188 39.9504 17.5161 41.3485 16.6073L40.858 15.8527ZM37.3439 19.8275C36.5413 21.4709 36.1432 23.2809 36.1432 25.25H37.0432C37.0432 23.4057 37.4152 21.7324 38.1526 20.2225L37.3439 19.8275ZM36.1432 25.25C36.1432 27.1839 36.5419 28.9922 37.3421 30.6688L38.1544 30.2812C37.4146 28.7312 37.0432 27.0561 37.0432 25.25H36.1432ZM37.3439 30.6725C38.1495 32.3222 39.3228 33.6494 40.858 34.6473L41.3485 33.8927C39.9504 32.9839 38.8869 31.7812 38.1526 30.2775L37.3439 30.6725ZM40.858 34.6473C42.4083 35.655 44.2382 36.15 46.3282 36.15V35.25C44.385 35.25 42.7315 34.7917 41.3485 33.8927L40.858 34.6473ZM67.9832 39H67.5332V39.45H67.9832V39ZM67.9832 0.499997V0.0499973H67.5332V0.499997H67.9832ZM72.1082 0.499997H72.5582V0.0499973H72.1082V0.499997ZM72.1082 39V39.45H72.5582V39H72.1082ZM68.4332 39V0.499997H67.5332V39H68.4332ZM67.9832 0.949997H72.1082V0.0499973H67.9832V0.949997ZM71.6582 0.499997V39H72.5582V0.499997H71.6582ZM72.1082 38.55H67.9832V39.45H72.1082V38.55ZM80.3625 39H79.9125V39.45H80.3625V39ZM80.3625 0.499997V0.0499973H79.9125V0.499997H80.3625ZM84.4875 0.499997H84.9375V0.0499973H84.4875V0.499997ZM84.4875 39V39.45H84.9375V39H84.4875ZM80.8125 39V0.499997H79.9125V39H80.8125ZM80.3625 0.949997H84.4875V0.0499973H80.3625V0.949997ZM84.0375 0.499997V39H84.9375V0.499997H84.0375ZM84.4875 38.55H80.3625V39.45H84.4875V38.55ZM95.6018 49.89L95.1905 49.7074L94.9097 50.34H95.6018V49.89ZM100.607 38.615L101.018 38.7976L101.096 38.6212L101.023 38.4429L100.607 38.615ZM89.3868 11.5V11.05H88.7136L88.971 11.6721L89.3868 11.5ZM93.9518 11.5L94.3707 11.3355L94.2585 11.05H93.9518V11.5ZM102.807 34.05L102.388 34.2145L102.803 35.2713L103.225 34.2171L102.807 34.05ZM111.827 11.5V11.05H111.522L111.409 11.3329L111.827 11.5ZM116.337 11.5L116.751 11.6757L117.016 11.05H116.337V11.5ZM100.057 49.89V50.34H100.355L100.471 50.0657L100.057 49.89ZM96.0131 50.0726L101.018 38.7976L100.195 38.4324L95.1905 49.7074L96.0131 50.0726ZM101.023 38.4429L89.8026 11.3279L88.971 11.6721L100.191 38.7871L101.023 38.4429ZM89.3868 11.95H93.9518V11.05H89.3868V11.95ZM93.5329 11.6645L102.388 34.2145L103.226 33.8855L94.3707 11.3355L93.5329 11.6645ZM103.225 34.2171L112.245 11.6671L111.409 11.3329L102.389 33.8829L103.225 34.2171ZM111.827 11.95H116.337V11.05H111.827V11.95ZM115.923 11.3243L99.6425 49.7143L100.471 50.0657L116.751 11.6757L115.923 11.3243ZM100.057 49.44H95.6018V50.34H100.057V49.44Z" fill="white"/>
</svg>
