<svg width="212" height="41" viewBox="0 0 212 41" fill="none" xmlns="http://www.w3.org/2000/svg">
<path d="M36.9582 34.8273C45.8304 34.5059 52.7541 27.048 52.6255 18.1758L48.6201 19.6778C48.0414 25.3998 43.7731 30.0697 38.0511 30.8412C35.7366 31.1627 33.5507 30.8412 31.622 30.0054C30.7862 29.6197 29.7575 30.0054 29.3075 30.8412V30.9055C28.7931 31.9342 29.2432 33.1557 30.2718 33.6058C32.3292 34.4416 34.5794 34.8916 36.9582 34.8273Z" fill="#FFE816"/>
<path d="M14.6897 6.10823C8.9771 6.87847 4.63825 11.4619 4.06057 17.1745H0.0551758C0.69704 9.40798 6.85894 3.02728 14.5613 2.25704C17.3855 1.93611 20.0814 2.38541 22.4563 3.34821C23.5474 3.79751 23.9325 5.01706 23.4191 6.04404V6.10823C22.9697 6.94265 22.007 7.32777 21.1083 6.94265C19.1827 6.17241 17.0004 5.7873 14.6897 6.10823Z" fill="#6361DB"/>
<path d="M48.62 19.6778L52.6254 18.1758C52.4968 8.59632 44.2732 1.11388 34.5008 2.27113C27.4288 3.10692 21.6425 8.57172 20.3567 15.5795C19.9066 17.9583 20.0352 20.2728 20.5496 22.3944C20.871 23.8088 22.6069 24.3232 23.6998 23.3588C24.2142 22.9087 24.4714 22.2015 24.2785 21.4943C23.8927 20.0799 23.8284 18.5369 24.0213 16.9296C24.7285 11.1434 29.4861 6.57867 35.1438 6.06434C43.0516 5.29284 49.3915 11.8342 48.62 19.6778Z" fill="#61D1DB"/>
<path d="M32.5245 21.4486C31.2407 28.4449 25.4639 33.9008 18.4034 34.7352C8.00522 35.9547 -0.779465 27.4442 0.0549591 17.1743H4.06041C3.29017 25.0051 9.73825 31.6542 17.6332 30.9482C23.41 30.3705 28.0956 25.8133 28.8658 20.1007C29.0584 18.496 28.9942 16.9555 28.6091 15.4792C28.4807 14.7732 28.6733 14.0671 29.1868 13.6178C30.2779 12.5909 32.011 13.1685 32.3319 14.5806C32.8454 16.763 32.9738 19.0737 32.5245 21.4486Z" fill="#F12587"/>
<path d="M67.0704 31.5446C64.9849 31.5446 63.2372 31.1481 61.8273 30.355C60.4468 29.5326 59.3894 28.5045 58.655 27.2709C57.9207 26.0079 57.4801 24.7154 57.3333 23.3936H60.7699C60.8874 24.1574 61.1958 24.921 61.6951 25.6847C62.1945 26.4485 62.8994 27.0799 63.81 27.5793C64.7205 28.0787 65.8661 28.3283 67.2466 28.3283C68.5684 28.3283 69.6258 28.1227 70.4189 27.7115C71.2413 27.2709 71.8434 26.6981 72.2254 25.9931C72.6365 25.2882 72.9156 24.5392 73.0625 23.7461C73.2093 22.9237 73.2828 22.1453 73.2828 21.411V2.02484H76.5872V21.5431C76.5872 23.2467 76.2788 24.8623 75.662 26.3897C75.0745 27.917 74.0758 29.1654 72.6659 30.1347C71.2854 31.0747 69.4202 31.5446 67.0704 31.5446ZM92.9484 31.5446C90.8042 31.5446 88.9243 31.0453 87.3088 30.0466C85.7226 29.0185 84.489 27.6381 83.6078 25.905C82.7266 24.172 82.286 22.2628 82.286 20.1773C82.286 18.0625 82.7266 16.1532 83.6078 14.4496C84.489 12.7166 85.7226 11.3507 87.3088 10.3521C88.9243 9.32398 90.8042 8.80999 92.9484 8.80999C94.7695 8.80999 96.3262 9.16246 97.6187 9.86741C98.9405 10.5724 100.013 11.527 100.835 12.7313V9.16246H104.139V31.1922H100.835V27.6674C100.013 28.8423 98.9405 29.7823 97.6187 30.4872C96.3262 31.1922 94.7695 31.5446 92.9484 31.5446ZM93.389 28.5486C95.0339 28.5486 96.4144 28.1668 97.5306 27.403C98.6761 26.6393 99.5426 25.626 100.13 24.363C100.718 23.0705 101.011 21.6753 101.011 20.1773C101.011 18.65 100.718 17.2547 100.13 15.9917C99.5426 14.7287 98.6761 13.7153 97.5306 12.9516C96.4144 12.1878 95.0339 11.806 93.389 11.806C91.7735 11.806 90.3782 12.1878 89.2033 12.9516C88.0285 13.7153 87.1325 14.7287 86.5157 15.9917C85.8989 17.2547 85.5905 18.65 85.5905 20.1773C85.5905 21.6753 85.8989 23.0705 86.5157 24.363C87.1325 25.626 88.0285 26.6393 89.2033 27.403C90.3782 28.1668 91.7735 28.5486 93.389 28.5486ZM110.736 31.1922V0.350586H114.041V31.1922H110.736ZM120.653 31.1922V0.350586H123.958V31.1922H120.653ZM132.861 39.9159L136.87 30.8837L127.882 9.16246H131.539L138.633 27.2268L145.859 9.16246H149.471L136.43 39.9159H132.861Z" fill="#3D4250"/>
<path d="M61.8265 30.3549L61.6471 30.6561L61.6547 30.6604L61.8265 30.3549ZM58.6543 27.2708L58.3513 27.4469L58.3531 27.45L58.6543 27.2708ZM57.3325 23.3935V23.0431H56.9409L56.9842 23.4323L57.3325 23.3935ZM60.7691 23.3935L61.1155 23.3403L61.0698 23.0431H60.7691V23.3935ZM70.4182 27.7114L70.5795 28.0225L70.5836 28.0203L70.4182 27.7114ZM72.2246 25.993L71.9217 25.8164L71.9164 25.8261L72.2246 25.993ZM73.0617 23.746L73.4063 23.8098L73.4067 23.8076L73.0617 23.746ZM73.282 2.02473V1.67426H72.9315V2.02473H73.282ZM76.5865 2.02473H76.9369V1.67426H76.5865V2.02473ZM75.6612 26.3896L75.3362 26.2583L75.3341 26.2638L75.6612 26.3896ZM72.6652 30.1346L72.8624 30.4243L72.8638 30.4234L72.6652 30.1346ZM67.0696 31.194C65.0273 31.194 63.3428 30.8057 61.9984 30.0494L61.6547 30.6604C63.1301 31.4902 64.9409 31.895 67.0696 31.895V31.194ZM62.0059 30.0538C60.6694 29.2576 59.6565 28.2693 58.9554 27.0915L58.3531 27.45C59.1207 28.7395 60.2226 29.8075 61.6471 30.6561L62.0059 30.0538ZM58.9573 27.0946C58.245 25.8696 57.8218 24.6236 57.6808 23.3548L56.9842 23.4323C57.1369 24.807 57.5949 26.1459 58.3513 27.4469L58.9573 27.0946ZM57.3325 23.744H60.7691V23.0431H57.3325V23.744ZM60.4227 23.4468C60.5491 24.2681 60.8792 25.0783 61.401 25.8764L61.9877 25.4929C61.5108 24.7635 61.2242 24.0464 61.1155 23.3403L60.4227 23.4468ZM61.401 25.8764C61.936 26.6946 62.6867 27.3633 63.6407 27.8865L63.9777 27.2719C63.1106 26.7963 62.4514 26.202 61.9877 25.4929L61.401 25.8764ZM63.6407 27.8865C64.6171 28.4219 65.8251 28.6787 67.2459 28.6787V27.9777C65.9055 27.9777 64.8224 27.7351 63.9777 27.2719L63.6407 27.8865ZM67.2459 28.6787C68.5989 28.6787 69.7184 28.469 70.5795 28.0225L70.2568 27.4002C69.5318 27.7761 68.5363 27.9777 67.2459 27.9777V28.6787ZM70.5836 28.0203C71.4564 27.5527 72.1131 26.9345 72.5327 26.16L71.9164 25.8261C71.5723 26.4615 71.0248 26.9888 70.2526 27.4024L70.5836 28.0203ZM72.5273 26.1697C72.9586 25.4302 73.252 24.6431 73.4063 23.8098L72.7171 23.6822C72.5777 24.435 72.3128 25.146 71.9217 25.8164L72.5273 26.1697ZM73.4067 23.8076C73.5567 22.9676 73.6325 22.1684 73.6325 21.4109H72.9315C72.9315 22.1219 72.8603 22.8795 72.7167 23.6844L73.4067 23.8076ZM73.6325 21.4109V2.02473H72.9315V21.4109H73.6325ZM73.282 2.3752H76.5865V1.67426H73.282V2.3752ZM76.236 2.02473V21.543H76.9369V2.02473H76.236ZM76.236 21.543C76.236 23.2033 75.9356 24.7741 75.3362 26.2583L75.9862 26.5208C76.6204 24.9503 76.9369 23.2901 76.9369 21.543H76.236ZM75.3341 26.2638C74.7732 27.722 73.8209 28.9147 72.4666 29.8458L72.8638 30.4234C74.3291 29.416 75.3742 28.112 75.9883 26.5153L75.3341 26.2638ZM72.4679 29.8449C71.1648 30.7321 69.3767 31.194 67.0696 31.194V31.895C69.4622 31.895 71.4045 31.4169 72.8624 30.4243L72.4679 29.8449ZM87.308 30.0465L87.1174 30.3407L87.1238 30.3446L87.308 30.0465ZM83.607 14.4495L83.9184 14.6105L83.9195 14.6083L83.607 14.4495ZM87.308 10.352L87.4948 10.6486L87.4962 10.6477L87.308 10.352ZM97.6179 9.8673L97.4501 10.175L97.453 10.1765L97.6179 9.8673ZM100.834 12.7312L100.545 12.9288L101.185 13.8658V12.7312H100.834ZM100.834 9.16235V8.81188H100.484V9.16235H100.834ZM104.139 9.16235H104.489V8.81188H104.139V9.16235ZM104.139 31.192V31.5425H104.489V31.192H104.139ZM100.834 31.192H100.484V31.5425H100.834V31.192ZM100.834 27.6673H101.185V26.5555L100.547 27.4663L100.834 27.6673ZM97.6179 30.4871L97.453 30.1779L97.4501 30.1794L97.6179 30.4871ZM97.5298 27.4029L97.3353 27.1113L97.3319 27.1136L97.5298 27.4029ZM100.129 24.3628L100.447 24.5106L100.448 24.5078L100.129 24.3628ZM97.5298 12.9515L97.3318 13.2407L97.3354 13.2431L97.5298 12.9515ZM86.515 24.3628L86.1986 24.5138L86.2 24.5166L86.515 24.3628ZM92.9476 31.194C90.8599 31.194 89.0456 30.7086 87.4923 29.7484L87.1238 30.3446C88.8015 31.3818 90.747 31.895 92.9476 31.895V31.194ZM87.4987 29.7524C85.9658 28.7589 84.7735 27.4257 83.9195 25.7461L83.2946 26.0637C84.2029 27.8501 85.478 29.2781 87.1174 30.3407L87.4987 29.7524ZM83.9195 25.7461C83.0651 24.0658 82.6357 22.2115 82.6357 20.1772H81.9348C81.9348 22.3138 82.3866 24.278 83.2946 26.0637L83.9195 25.7461ZM82.6357 20.1772C82.6357 18.1125 83.0654 16.2594 83.9184 14.6105L83.2957 14.2885C82.3863 16.0468 81.9348 18.0122 81.9348 20.1772H82.6357ZM83.9195 14.6083C84.773 12.9295 85.9642 11.6122 87.4948 10.6486L87.1213 10.0554C85.4796 11.089 84.2033 12.5035 83.2946 14.2907L83.9195 14.6083ZM87.4962 10.6477C89.0489 9.65952 90.8618 9.16035 92.9476 9.16035V8.4594C90.7449 8.4594 88.7981 8.98826 87.1199 10.0563L87.4962 10.6477ZM92.9476 9.16035C94.7238 9.16035 96.22 9.50401 97.4501 10.175L97.7857 9.55959C96.431 8.82068 94.8136 8.4594 92.9476 8.4594V9.16035ZM97.453 10.1765C98.7263 10.8556 99.7552 11.7725 100.545 12.9288L101.124 12.5335C100.268 11.2812 99.1531 10.2889 97.7828 9.55809L97.453 10.1765ZM101.185 12.7312V9.16235H100.484V12.7312H101.185ZM100.834 9.51282H104.139V8.81188H100.834V9.51282ZM103.788 9.16235V31.192H104.489V9.16235H103.788ZM104.139 30.8416H100.834V31.5425H104.139V30.8416ZM101.185 31.192V27.6673H100.484V31.192H101.185ZM100.547 27.4663C99.7577 28.594 98.7283 29.4977 97.453 30.1779L97.7828 30.7963C99.1511 30.0666 100.266 29.0904 101.121 27.8683L100.547 27.4663ZM97.4501 30.1794C96.22 30.8504 94.7238 31.194 92.9476 31.194V31.895C94.8136 31.895 96.431 31.5337 97.7857 30.7948L97.4501 30.1794ZM93.3882 28.899C95.0882 28.899 96.5417 28.5037 97.7277 27.6922L97.3319 27.1136C96.2856 27.8296 94.978 28.198 93.3882 28.198V28.899ZM97.7242 27.6945C98.924 26.8948 99.8329 25.8313 100.447 24.5106L99.8115 24.215C99.2508 25.4205 98.4266 26.3838 97.3353 27.1113L97.7242 27.6945ZM100.448 24.5078C101.058 23.1674 101.361 21.7224 101.361 20.1772H100.66C100.66 21.6281 100.376 22.9735 99.8103 24.2178L100.448 24.5078ZM101.361 20.1772C101.361 18.6038 101.058 17.1574 100.447 15.8438L99.8115 16.1394C100.375 17.3518 100.66 18.6959 100.66 20.1772H101.361ZM100.447 15.8438C99.8328 14.5231 98.924 13.4596 97.7242 12.6599L97.3354 13.2431C98.4267 13.9706 99.2508 14.9339 99.8115 16.1394L100.447 15.8438ZM97.7277 12.6622C96.5417 11.8507 95.0882 11.4554 93.3882 11.4554V12.1564C94.978 12.1564 96.2855 12.5248 97.3318 13.2407L97.7277 12.6622ZM93.3882 11.4554C91.7156 11.4554 90.2516 11.8516 89.0115 12.6576L89.3935 13.2454C90.5033 12.524 91.8299 12.1564 93.3882 12.1564V11.4554ZM89.0115 12.6576C87.7833 13.456 86.8446 14.5179 86.2 15.8377L86.8299 16.1454C87.419 14.9391 88.272 13.9743 89.3935 13.2454L89.0115 12.6576ZM86.2 15.8377C85.5579 17.1527 85.2392 18.6012 85.2392 20.1772H85.9402C85.9402 18.6984 86.2384 17.3564 86.8299 16.1454L86.2 15.8377ZM85.2392 20.1772C85.2392 21.725 85.5583 23.172 86.1986 24.5138L86.8313 24.2118C86.238 22.9688 85.9402 21.6255 85.9402 20.1772H85.2392ZM86.2 24.5166C86.8446 25.8365 87.7833 26.8984 89.0115 27.6968L89.3935 27.109C88.272 26.3801 87.419 25.4153 86.8299 24.209L86.2 24.5166ZM89.0115 27.6968C90.2516 28.5028 91.7156 28.899 93.3882 28.899V28.198C91.8299 28.198 90.5033 27.8304 89.3935 27.109L89.0115 27.6968ZM110.736 31.192H110.385V31.5425H110.736V31.192ZM110.736 0.350474V0H110.385V0.350474H110.736ZM114.04 0.350474H114.391V0H114.04V0.350474ZM114.04 31.192V31.5425H114.391V31.192H114.04ZM111.086 31.192V0.350474H110.385V31.192H111.086ZM110.736 0.700947H114.04V0H110.736V0.700947ZM113.69 0.350474V31.192H114.391V0.350474H113.69ZM114.04 30.8416H110.736V31.5425H114.04V30.8416ZM120.652 31.192H120.302V31.5425H120.652V31.192ZM120.652 0.350474V0H120.302V0.350474H120.652ZM123.957 0.350474H124.307V0H123.957V0.350474ZM123.957 31.192V31.5425H124.307V31.192H123.957ZM121.003 31.192V0.350474H120.302V31.192H121.003ZM120.652 0.700947H123.957V0H120.652V0.700947ZM123.606 0.350474V31.192H124.307V0.350474H123.606ZM123.957 30.8416H120.652V31.5425H123.957V30.8416ZM132.86 39.9158L132.54 39.7736L132.321 40.2663H132.86V39.9158ZM136.87 30.8836L137.19 31.0258L137.251 30.8884L137.193 30.7496L136.87 30.8836ZM127.882 9.16235V8.81188H127.357L127.558 9.29633L127.882 9.16235ZM131.538 9.16235L131.865 9.03425L131.777 8.81188H131.538V9.16235ZM138.632 27.2267L138.306 27.3548L138.629 28.1779L138.957 27.3569L138.632 27.2267ZM145.858 9.16235V8.81188H145.621L145.532 9.03219L145.858 9.16235ZM149.471 9.16235L149.793 9.29914L150 8.81188H149.471V9.16235ZM136.429 39.9158V40.2663H136.661L136.752 40.0526L136.429 39.9158ZM133.181 40.058L137.19 31.0258L136.549 30.7414L132.54 39.7736L133.181 40.058ZM137.193 30.7496L128.205 9.02835L127.558 9.29633L136.546 31.0176L137.193 30.7496ZM127.882 9.51282H131.538V8.81188H127.882V9.51282ZM131.212 9.29043L138.306 27.3548L138.958 27.0986L131.865 9.03425L131.212 9.29043ZM138.957 27.3569L146.183 9.29253L145.532 9.03219L138.307 27.0965L138.957 27.3569ZM145.858 9.51282H149.471V8.81188H145.858V9.51282ZM149.148 9.02552L136.106 39.779L136.752 40.0526L149.793 9.29914L149.148 9.02552ZM136.429 39.5653H132.86V40.2663H136.429V39.5653Z" fill="#3D4250"/>
<path d="M163.072 31.2C162.038 31.2 161.147 31 160.397 30.6C159.663 30.2 159.063 29.6667 158.597 29V31H156.722V13.5H158.597V20.525C159.063 19.8417 159.663 19.3 160.397 18.9C161.147 18.5 162.038 18.3 163.072 18.3C164.288 18.3 165.347 18.5917 166.247 19.175C167.163 19.7417 167.872 20.5167 168.372 21.5C168.872 22.4667 169.122 23.55 169.122 24.75C169.122 25.9333 168.872 27.0167 168.372 28C167.872 28.9833 167.163 29.7667 166.247 30.35C165.347 30.9167 164.288 31.2 163.072 31.2ZM162.822 29.5C163.755 29.5 164.547 29.2833 165.197 28.85C165.863 28.4167 166.372 27.8417 166.722 27.125C167.072 26.3917 167.247 25.6 167.247 24.75C167.247 23.8833 167.072 23.0917 166.722 22.375C166.372 21.6583 165.863 21.0833 165.197 20.65C164.547 20.2167 163.755 20 162.822 20C161.905 20 161.122 20.2167 160.472 20.65C159.822 21.0833 159.33 21.6583 158.997 22.375C158.663 23.0917 158.497 23.8833 158.497 24.75C158.497 25.6 158.663 26.3917 158.997 27.125C159.33 27.8417 159.822 28.4167 160.472 28.85C161.122 29.2833 161.905 29.5 162.822 29.5ZM177.14 31.2C175.873 31.2 174.765 30.9167 173.815 30.35C172.865 29.7667 172.123 28.9833 171.59 28C171.073 27.0167 170.815 25.9333 170.815 24.75C170.815 23.55 171.065 22.4667 171.565 21.5C172.065 20.5167 172.782 19.7417 173.715 19.175C174.648 18.5917 175.748 18.3 177.015 18.3C178.298 18.3 179.398 18.5917 180.315 19.175C181.248 19.7417 181.965 20.5167 182.465 21.5C182.965 22.4667 183.215 23.55 183.215 24.75V25.5H172.74C172.84 26.2333 173.073 26.9083 173.44 27.525C173.823 28.125 174.332 28.6083 174.965 28.975C175.598 29.325 176.332 29.5 177.165 29.5C178.048 29.5 178.79 29.3083 179.39 28.925C179.99 28.525 180.457 28.0167 180.79 27.4H182.84C182.407 28.5167 181.715 29.4333 180.765 30.15C179.832 30.85 178.623 31.2 177.14 31.2ZM172.765 23.75H181.265C181.098 22.6833 180.648 21.7917 179.915 21.075C179.182 20.3583 178.215 20 177.015 20C175.815 20 174.848 20.3583 174.115 21.075C173.398 21.7917 172.948 22.6833 172.765 23.75ZM186.856 31V20.15H184.306V18.5H186.856V14.025H188.731V18.5H191.606V20.15H188.731V31H186.856ZM198.935 31.2C197.718 31.2 196.652 30.9167 195.735 30.35C194.835 29.7667 194.135 28.9833 193.635 28C193.135 27.0167 192.885 25.9333 192.885 24.75C192.885 23.55 193.135 22.4667 193.635 21.5C194.135 20.5167 194.835 19.7417 195.735 19.175C196.652 18.5917 197.718 18.3 198.935 18.3C199.968 18.3 200.852 18.5 201.585 18.9C202.335 19.3 202.943 19.8417 203.41 20.525V18.5H205.285V31H203.41V29C202.943 29.6667 202.335 30.2 201.585 30.6C200.852 31 199.968 31.2 198.935 31.2ZM199.185 29.5C200.118 29.5 200.902 29.2833 201.535 28.85C202.185 28.4167 202.677 27.8417 203.01 27.125C203.343 26.3917 203.51 25.6 203.51 24.75C203.51 23.8833 203.343 23.0917 203.01 22.375C202.677 21.6583 202.185 21.0833 201.535 20.65C200.902 20.2167 200.118 20 199.185 20C198.268 20 197.477 20.2167 196.81 20.65C196.143 21.0833 195.635 21.6583 195.285 22.375C194.935 23.0917 194.76 23.8833 194.76 24.75C194.76 25.6 194.935 26.3917 195.285 27.125C195.635 27.8417 196.143 28.4167 196.81 28.85C197.477 29.2833 198.268 29.5 199.185 29.5Z" fill="#DB61CF"/>
</svg>
