<svg width="150" height="41" viewBox="0 0 150 41" fill="none" xmlns="http://www.w3.org/2000/svg">
<path d="M36.9582 34.8273C45.8304 34.5059 52.7541 27.048 52.6255 18.1758L48.6201 19.6778C48.0414 25.3998 43.7731 30.0697 38.0511 30.8412C35.7366 31.1627 33.5507 30.8412 31.622 30.0054C30.7862 29.6197 29.7575 30.0054 29.3075 30.8412V30.9055C28.7931 31.9342 29.2432 33.1557 30.2718 33.6058C32.3292 34.4416 34.5794 34.8916 36.9582 34.8273Z" fill="#FFE816"/>
<path d="M14.6902 6.10823C8.97758 6.87847 4.63874 11.4619 4.06106 17.1745H0.0556641C0.697529 9.40798 6.85943 3.02728 14.5618 2.25704C17.386 1.93611 20.0818 2.38541 22.4567 3.34821C23.5479 3.79751 23.933 5.01706 23.4195 6.04404V6.10823C22.9702 6.94265 22.0074 7.32777 21.1088 6.94265C19.1832 6.17241 17.0009 5.7873 14.6902 6.10823Z" fill="#6361DB"/>
<path d="M48.6205 19.6778L52.6259 18.1758C52.4973 8.59632 44.2737 1.11388 34.5013 2.27113C27.4293 3.10692 21.643 8.57172 20.3572 15.5795C19.9071 17.9583 20.0357 20.2728 20.55 22.3944C20.8715 23.8088 22.6074 24.3232 23.7003 23.3588C24.2147 22.9087 24.4718 22.2015 24.279 21.4943C23.8932 20.0799 23.8289 18.5369 24.0218 16.9296C24.729 11.1434 29.4866 6.57867 35.1442 6.06434C43.0521 5.29284 49.392 11.8342 48.6205 19.6778Z" fill="#61D1DB"/>
<path d="M32.5245 21.4486C31.2407 28.4449 25.4639 33.9008 18.4034 34.7352C8.00522 35.9547 -0.779465 27.4442 0.0549591 17.1743H4.06041C3.29017 25.0051 9.73825 31.6542 17.6332 30.9482C23.41 30.3705 28.0956 25.8133 28.8658 20.1007C29.0584 18.496 28.9942 16.9555 28.6091 15.4792C28.4807 14.7732 28.6733 14.0671 29.1868 13.6178C30.2779 12.5909 32.011 13.1685 32.3319 14.5806C32.8454 16.763 32.9738 19.0737 32.5245 21.4486Z" fill="#F12587"/>
<path d="M67.0702 31.5446C64.9847 31.5446 63.237 31.1481 61.8271 30.355C60.4465 29.5326 59.3891 28.5045 58.6548 27.2709C57.9205 26.0079 57.4799 24.7154 57.333 23.3936H60.7696C60.8871 24.1574 61.1955 24.921 61.6949 25.6847C62.1942 26.4485 62.8992 27.0799 63.8097 27.5793C64.7203 28.0787 65.8658 28.3283 67.2464 28.3283C68.5682 28.3283 69.6256 28.1227 70.4187 27.7115C71.2411 27.2709 71.8432 26.6981 72.2251 25.9931C72.6363 25.2882 72.9153 24.5392 73.0622 23.7461C73.209 22.9237 73.2825 22.1453 73.2825 21.411V2.02484H76.587V21.5431C76.587 23.2467 76.2786 24.8623 75.6617 26.3897C75.0742 27.917 74.0756 29.1654 72.6657 30.1347C71.2851 31.0747 69.4199 31.5446 67.0702 31.5446ZM92.9481 31.5446C90.804 31.5446 88.924 31.0453 87.3085 30.0466C85.7224 29.0185 84.4887 27.6381 83.6076 25.905C82.7264 24.172 82.2858 22.2628 82.2858 20.1773C82.2858 18.0625 82.7264 16.1532 83.6076 14.4496C84.4887 12.7166 85.7224 11.3507 87.3085 10.3521C88.924 9.32398 90.804 8.80999 92.9481 8.80999C94.7693 8.80999 96.326 9.16246 97.6184 9.86741C98.9402 10.5724 100.012 11.527 100.835 12.7313V9.16246H104.139V31.1922H100.835V27.6674C100.012 28.8423 98.9402 29.7823 97.6184 30.4872C96.326 31.1922 94.7693 31.5446 92.9481 31.5446ZM93.3887 28.5486C95.0337 28.5486 96.4141 28.1668 97.5303 27.403C98.6759 26.6393 99.5423 25.626 100.13 24.363C100.717 23.0705 101.011 21.6753 101.011 20.1773C101.011 18.65 100.717 17.2547 100.13 15.9917C99.5423 14.7287 98.6759 13.7153 97.5303 12.9516C96.4141 12.1878 95.0337 11.806 93.3887 11.806C91.7733 11.806 90.378 12.1878 89.2031 12.9516C88.0282 13.7153 87.1323 14.7287 86.5155 15.9917C85.8986 17.2547 85.5902 18.65 85.5902 20.1773C85.5902 21.6753 85.8986 23.0705 86.5155 24.363C87.1323 25.626 88.0282 26.6393 89.2031 27.403C90.378 28.1668 91.7733 28.5486 93.3887 28.5486ZM110.736 31.1922V0.350586H114.041V31.1922H110.736ZM120.653 31.1922V0.350586H123.957V31.1922H120.653ZM132.861 39.9159L136.87 30.8837L127.882 9.16246H131.539L138.633 27.2268L145.858 9.16246H149.471L136.43 39.9159H132.861Z" fill="#3D4250"/>
<path d="M61.827 30.3549L61.6476 30.6561L61.6552 30.6604L61.827 30.3549ZM58.6548 27.2708L58.3518 27.4469L58.3536 27.45L58.6548 27.2708ZM57.333 23.3935V23.0431H56.9414L56.9846 23.4323L57.333 23.3935ZM60.7696 23.3935L61.116 23.3403L61.0703 23.0431H60.7696V23.3935ZM61.6949 25.6846L61.4015 25.8764L61.6949 25.6846ZM63.8097 27.5792L63.6412 27.8865L63.8097 27.5792ZM70.4186 27.7114L70.58 28.0225L70.5841 28.0203L70.4186 27.7114ZM72.2251 25.993L71.9222 25.8164L71.9169 25.8261L72.2251 25.993ZM73.0622 23.746L73.4068 23.8098L73.4072 23.8076L73.0622 23.746ZM73.2825 2.02473V1.67426H72.932V2.02473H73.2825ZM76.587 2.02473H76.9374V1.67426H76.587V2.02473ZM75.6617 26.3896L75.3367 26.2583L75.3346 26.2638L75.6617 26.3896ZM72.6657 30.1346L72.8628 30.4243L72.8642 30.4234L72.6657 30.1346ZM67.0701 31.194C65.0278 31.194 63.3432 30.8057 61.9989 30.0494L61.6552 30.6604C63.1306 31.4902 64.9414 31.895 67.0701 31.895V31.194ZM62.0064 30.0538C60.6699 29.2576 59.657 28.2693 58.9559 27.0915L58.3536 27.45C59.1212 28.7395 60.2231 29.8074 61.6477 30.656L62.0064 30.0538ZM58.9577 27.0946C58.2455 25.8696 57.8223 24.6236 57.6813 23.3548L56.9846 23.4323C57.1374 24.807 57.5954 26.1459 58.3518 27.4469L58.9577 27.0946ZM57.333 23.744H60.7696V23.0431H57.333V23.744ZM60.4232 23.4468C60.5496 24.2681 60.8797 25.0783 61.4015 25.8764L61.9882 25.4929C61.5113 24.7635 61.2246 24.0464 61.116 23.3403L60.4232 23.4468ZM61.4015 25.8764C61.9365 26.6946 62.6872 27.3633 63.6412 27.8865L63.9782 27.2719C63.1111 26.7963 62.4519 26.202 61.9882 25.4929L61.4015 25.8764ZM63.6412 27.8865C64.6176 28.4219 65.8256 28.6787 67.2464 28.6787V27.9777C65.906 27.9777 64.8229 27.7351 63.9782 27.2719L63.6412 27.8865ZM67.2464 28.6787C68.5994 28.6787 69.7189 28.469 70.58 28.0225L70.2573 27.4002C69.5322 27.7761 68.5368 27.9777 67.2464 27.9777V28.6787ZM70.5841 28.0203C71.4568 27.5527 72.1136 26.9345 72.5332 26.16L71.9169 25.8261C71.5728 26.4615 71.0253 26.9888 70.2531 27.4024L70.5841 28.0203ZM72.5278 26.1697C72.9591 25.4302 73.2525 24.6431 73.4068 23.8098L72.7175 23.6822C72.5782 24.435 72.3134 25.146 71.9223 25.8164L72.5278 26.1697ZM73.4072 23.8076C73.5572 22.9676 73.633 22.1684 73.633 21.4109H72.932C72.932 22.1219 72.8608 22.8795 72.7171 23.6844L73.4072 23.8076ZM73.633 21.4109V2.02473H72.932V21.4109H73.633ZM73.2825 2.3752H76.587V1.67426H73.2825V2.3752ZM76.2365 2.02473V21.543H76.9374V2.02473H76.2365ZM76.2365 21.543C76.2365 23.2033 75.9361 24.7741 75.3367 26.2583L75.9867 26.5208C76.6209 24.9503 76.9374 23.2901 76.9374 21.543H76.2365ZM75.3346 26.2638C74.7737 27.722 73.8214 28.9147 72.4671 29.8458L72.8642 30.4234C74.3296 29.416 75.3747 28.112 75.9888 26.5153L75.3346 26.2638ZM72.4684 29.8449C71.1653 30.7321 69.3771 31.194 67.0701 31.194V31.895C69.4627 31.895 71.405 31.4169 72.8628 30.4243L72.4684 29.8449ZM87.3085 30.0465L87.1179 30.3407L87.1243 30.3446L87.3085 30.0465ZM83.6075 14.4495L83.9188 14.6105L83.9199 14.6083L83.6075 14.4495ZM87.3085 10.352L87.4953 10.6486L87.4967 10.6477L87.3085 10.352ZM97.6184 9.8673L97.4506 10.175L97.4535 10.1765L97.6184 9.8673ZM100.835 12.7312L100.545 12.9288L101.185 13.8658V12.7312H100.835ZM100.835 9.16235V8.81188H100.484V9.16235H100.835ZM104.139 9.16235H104.49V8.81188H104.139V9.16235ZM104.139 31.192V31.5425H104.49V31.192H104.139ZM100.835 31.192H100.484V31.5425H100.835V31.192ZM100.835 27.6673H101.185V26.5555L100.548 27.4663L100.835 27.6673ZM97.6184 30.4871L97.4535 30.1779L97.4506 30.1794L97.6184 30.4871ZM97.5303 27.4029L97.3358 27.1113L97.3324 27.1136L97.5303 27.4029ZM100.13 24.3628L100.448 24.5106L100.449 24.5078L100.13 24.3628ZM100.13 15.9916L99.812 16.1394L100.13 15.9916ZM97.5303 12.9515L97.3323 13.2407L97.3359 13.2431L97.5303 12.9515ZM89.2031 12.9515L89.012 12.6576L89.2031 12.9515ZM86.5154 15.9916L86.2005 15.8377L86.5154 15.9916ZM86.5154 24.3628L86.1991 24.5138L86.2005 24.5166L86.5154 24.3628ZM89.2031 27.4029L89.394 27.109L89.2031 27.4029ZM92.9481 31.194C90.8604 31.194 89.0461 30.7086 87.4928 29.7484L87.1243 30.3446C88.802 31.3818 90.7474 31.895 92.9481 31.895V31.194ZM87.4992 29.7524C85.9663 28.7589 84.774 27.4257 83.9199 25.7461L83.2951 26.0637C84.2034 27.8501 85.4784 29.278 87.1179 30.3406L87.4992 29.7524ZM83.9199 25.7461C83.0656 24.0658 82.6362 22.2115 82.6362 20.1772H81.9353C81.9353 22.3138 82.3871 24.278 83.2951 26.0637L83.9199 25.7461ZM82.6362 20.1772C82.6362 18.1125 83.0659 16.2594 83.9188 14.6105L83.2962 14.2885C82.3868 16.0468 81.9353 18.0122 81.9353 20.1772H82.6362ZM83.9199 14.6083C84.7735 12.9295 85.9647 11.6122 87.4953 10.6486L87.1218 10.0554C85.48 11.089 84.2038 12.5035 83.2951 14.2907L83.9199 14.6083ZM87.4967 10.6477C89.0494 9.65952 90.8623 9.16035 92.9481 9.16035V8.4594C90.7454 8.4594 88.7986 8.98826 87.1204 10.0563L87.4967 10.6477ZM92.9481 9.16035C94.7243 9.16035 96.2205 9.50401 97.4506 10.175L97.7862 9.55959C96.4315 8.82068 94.8141 8.4594 92.9481 8.4594V9.16035ZM97.4535 10.1765C98.7268 10.8556 99.7557 11.7725 100.545 12.9288L101.124 12.5335C100.269 11.2812 99.1536 10.2889 97.7833 9.55809L97.4535 10.1765ZM101.185 12.7312V9.16235H100.484V12.7312H101.185ZM100.835 9.51282H104.139V8.81188H100.835V9.51282ZM103.789 9.16235V31.192H104.49V9.16235H103.789ZM104.139 30.8416H100.835V31.5425H104.139V30.8416ZM101.185 31.192V27.6673H100.484V31.192H101.185ZM100.548 27.4663C99.7582 28.594 98.7288 29.4977 97.4535 30.1779L97.7833 30.7963C99.1516 30.0666 100.266 29.0904 101.122 27.8683L100.548 27.4663ZM97.4506 30.1794C96.2205 30.8504 94.7243 31.194 92.9481 31.194V31.895C94.8141 31.895 96.4315 31.5337 97.7862 30.7948L97.4506 30.1794ZM93.3887 28.899C95.0887 28.899 96.5422 28.5037 97.7281 27.6922L97.3324 27.1136C96.2861 27.8296 94.9784 28.198 93.3887 28.198V28.899ZM97.7246 27.6945C98.9245 26.8948 99.8333 25.8313 100.448 24.5106L99.812 24.215C99.2513 25.4205 98.4272 26.3838 97.3359 27.1113L97.7246 27.6945ZM100.449 24.5078C101.058 23.1674 101.361 21.7224 101.361 20.1772H100.661C100.661 21.6281 100.376 22.9735 99.8108 24.2178L100.449 24.5078ZM101.361 20.1772C101.361 18.6038 101.059 17.1574 100.448 15.8438L99.812 16.1394C100.376 17.3518 100.661 18.6959 100.661 20.1772H101.361ZM100.448 15.8438C99.8333 14.5231 98.9245 13.4596 97.7246 12.6599L97.3359 13.2431C98.4272 13.9706 99.2513 14.9339 99.812 16.1394L100.448 15.8438ZM97.7281 12.6622C96.5422 11.8507 95.0887 11.4554 93.3887 11.4554V12.1564C94.9784 12.1564 96.2861 12.5248 97.3324 13.2407L97.7281 12.6622ZM93.3887 11.4554C91.716 11.4554 90.2521 11.8516 89.012 12.6576L89.394 13.2454C90.5038 12.524 91.8304 12.1564 93.3887 12.1564V11.4554ZM89.012 12.6576C87.7837 13.456 86.8451 14.5179 86.2005 15.8377L86.8304 16.1454C87.4195 14.9391 88.2725 13.9743 89.394 13.2454L89.012 12.6576ZM86.2005 15.8377C85.5584 17.1527 85.2397 18.6012 85.2397 20.1772H85.9407C85.9407 18.6984 86.2389 17.3564 86.8304 16.1454L86.2005 15.8377ZM85.2397 20.1772C85.2397 21.725 85.5588 23.172 86.1991 24.5138L86.8318 24.2118C86.2385 22.9688 85.9407 21.6255 85.9407 20.1772H85.2397ZM86.2005 24.5166C86.8451 25.8365 87.7837 26.8984 89.012 27.6968L89.394 27.109C88.2725 26.3801 87.4195 25.4153 86.8304 24.209L86.2005 24.5166ZM89.012 27.6968C90.2521 28.5028 91.716 28.899 93.3887 28.899V28.198C91.8304 28.198 90.5038 27.8304 89.394 27.109L89.012 27.6968ZM110.736 31.192H110.386V31.5425H110.736V31.192ZM110.736 0.350474V0H110.386V0.350474H110.736ZM114.041 0.350474H114.391V0H114.041V0.350474ZM114.041 31.192V31.5425H114.391V31.192H114.041ZM111.087 31.192V0.350474H110.386V31.192H111.087ZM110.736 0.700947H114.041V0H110.736V0.700947ZM113.69 0.350474V31.192H114.391V0.350474H113.69ZM114.041 30.8416H110.736V31.5425H114.041V30.8416ZM120.653 31.192H120.302V31.5425H120.653V31.192ZM120.653 0.350474V0H120.302V0.350474H120.653ZM123.957 0.350474H124.308V0H123.957V0.350474ZM123.957 31.192V31.5425H124.308V31.192H123.957ZM121.003 31.192V0.350474H120.302V31.192H121.003ZM120.653 0.700947H123.957V0H120.653V0.700947ZM123.607 0.350474V31.192H124.308V0.350474H123.607ZM123.957 30.8416H120.653V31.5425H123.957V30.8416ZM132.861 39.9158L132.54 39.7736L132.322 40.2663H132.861V39.9158ZM136.87 30.8836L137.19 31.0258L137.251 30.8884L137.194 30.7496L136.87 30.8836ZM127.882 9.16235V8.81188H127.358L127.558 9.29633L127.882 9.16235ZM131.539 9.16235L131.865 9.03425L131.778 8.81188H131.539V9.16235ZM138.632 27.2267L138.306 27.3548L138.629 28.1779L138.958 27.3569L138.632 27.2267ZM145.858 9.16235V8.81188H145.621L145.533 9.03219L145.858 9.16235ZM149.471 9.16235L149.794 9.29914L150 8.81188H149.471V9.16235ZM136.43 39.9158V40.2663H136.662L136.752 40.0526L136.43 39.9158ZM133.181 40.058L137.19 31.0258L136.55 30.7414L132.54 39.7736L133.181 40.058ZM137.194 30.7496L128.206 9.02835L127.558 9.29633L136.546 31.0176L137.194 30.7496ZM127.882 9.51282H131.539V8.81188H127.882V9.51282ZM131.213 9.29043L138.306 27.3548L138.959 27.0986L131.865 9.03425L131.213 9.29043ZM138.958 27.3569L146.184 9.29253L145.533 9.03219L138.307 27.0965L138.958 27.3569ZM145.858 9.51282H149.471V8.81188H145.858V9.51282ZM149.148 9.02552L136.107 39.779L136.752 40.0526L149.794 9.29914L149.148 9.02552ZM136.43 39.5653H132.861V40.2663H136.43V39.5653Z" fill="#3D4250"/>
</svg>
