<svg width="60" height="69" viewBox="0 0 60 69" fill="none" xmlns="http://www.w3.org/2000/svg">
<path d="M12.2934 64V52.8H13.8614L17.8934 60.608L21.8934 52.8H23.4774V64H22.1334V55.2L18.3894 62.4H17.3814L13.6374 55.216V64H12.2934ZM28.6562 64.192C27.7176 64.192 26.9709 63.9093 26.4163 63.344C25.8616 62.768 25.5843 61.888 25.5843 60.704V56.064H26.9283V60.56C26.9283 62.2133 27.6056 63.04 28.9603 63.04C29.6536 63.04 30.2243 62.7947 30.6723 62.304C31.1309 61.8027 31.3603 61.0933 31.3603 60.176V56.064H32.7043V64H31.4883L31.3923 62.576C31.1469 63.0773 30.7789 63.472 30.2883 63.76C29.8083 64.048 29.2643 64.192 28.6562 64.192ZM38.0525 64C37.3272 64 36.7565 63.824 36.3405 63.472C35.9245 63.12 35.7165 62.4853 35.7165 61.568V57.2H34.3405V56.064H35.7165L35.8925 54.16H37.0605V56.064H39.3965V57.2H37.0605V61.568C37.0605 62.0693 37.1618 62.4107 37.3645 62.592C37.5672 62.7627 37.9245 62.848 38.4365 62.848H39.2685V64H38.0525ZM44.4533 64.192C43.6959 64.192 43.0239 64.0213 42.4373 63.68C41.8506 63.328 41.3866 62.8427 41.0453 62.224C40.7146 61.6053 40.5493 60.8747 40.5493 60.032C40.5493 59.2 40.7146 58.4747 41.0453 57.856C41.3759 57.2267 41.8346 56.7413 42.4213 56.4C43.0186 56.048 43.7066 55.872 44.4852 55.872C45.2533 55.872 45.9146 56.048 46.4693 56.4C47.0346 56.7413 47.4666 57.1947 47.7653 57.76C48.0639 58.3253 48.2133 58.9333 48.2133 59.584C48.2133 59.7013 48.2079 59.8187 48.1973 59.936C48.1973 60.0533 48.1973 60.1867 48.1973 60.336H41.8773C41.9093 60.944 42.0479 61.4507 42.2933 61.856C42.5493 62.2507 42.8639 62.5493 43.2373 62.752C43.6213 62.9547 44.0266 63.056 44.4533 63.056C45.0079 63.056 45.4719 62.928 45.8453 62.672C46.2186 62.416 46.4906 62.0693 46.6613 61.632H47.9893C47.7759 62.368 47.3653 62.9813 46.7573 63.472C46.1599 63.952 45.3919 64.192 44.4533 64.192ZM44.4533 57.008C43.8133 57.008 43.2426 57.2053 42.7413 57.6C42.2506 57.984 41.9679 58.5493 41.8932 59.296H46.8853C46.8533 58.5813 46.6079 58.0213 46.1493 57.616C45.6906 57.2107 45.1253 57.008 44.4533 57.008Z" fill="#696D91"/>
<g filter="url(#filter0_d)">
<rect x="6" width="48" height="45.3333" rx="18" fill="#6C63FF"/>
</g>
<path d="M29.9991 28.1841C32.5118 28.1841 34.5334 26.1625 34.5334 23.6498V15.5343C34.5334 13.0217 32.5118 11 29.9991 11C27.4865 11 25.4648 13.0217 25.4648 15.5343V23.6498C25.4648 26.1625 27.4865 28.1841 29.9991 28.1841ZM26.6201 15.5343C26.6201 13.657 28.1219 12.1552 29.9991 12.1552C31.8764 12.1552 33.3782 13.657 33.3782 15.5343V23.6498C33.3782 25.5271 31.8764 27.0289 29.9991 27.0289C28.1219 27.0289 26.6201 25.5271 26.6201 23.6498V15.5343Z" fill="white"/>
<path d="M37.4224 23.1289C37.7401 23.1289 38 23.3888 38 23.7065C38 27.8365 34.7076 31.2444 30.5776 31.36V34.508H29.4224V31.36C25.2924 31.2444 22 27.8365 22 23.7065C22 23.3888 22.2599 23.1289 22.5776 23.1289C22.8953 23.1289 23.1552 23.3888 23.1552 23.7065C23.1552 27.2878 26.0722 30.2047 29.6534 30.2336H30.3466C33.9278 30.2047 36.8448 27.2878 36.8448 23.7065C36.8448 23.3888 37.1047 23.1289 37.4224 23.1289Z" fill="white"/>
<defs>
<filter id="filter0_d" x="2" y="0" width="56" height="53.3333" filterUnits="userSpaceOnUse" color-interpolation-filters="sRGB">
<feFlood flood-opacity="0" result="BackgroundImageFix"/>
<feColorMatrix in="SourceAlpha" type="matrix" values="0 0 0 0 0 0 0 0 0 0 0 0 0 0 0 0 0 0 127 0"/>
<feOffset dy="4"/>
<feGaussianBlur stdDeviation="2"/>
<feColorMatrix type="matrix" values="0 0 0 0 0.0588235 0 0 0 0 0.0588235 0 0 0 0 0.0588235 0 0 0 0.1 0"/>
<feBlend mode="normal" in2="BackgroundImageFix" result="effect1_dropShadow"/>
<feBlend mode="normal" in="SourceGraphic" in2="effect1_dropShadow" result="shape"/>
</filter>
</defs>
</svg>
