<?xml version="1.0" encoding="utf-8"?>
<!-- Generator: Adobe Illustrator 19.0.0, SVG Export Plug-In . SVG Version: 6.00 Build 0)  -->
<svg version="1.0" id="Layer_1" xmlns="http://www.w3.org/2000/svg" xmlns:xlink="http://www.w3.org/1999/xlink" x="0px" y="0px"
	 width="1400px" height="980px" viewBox="0 0 1400 980" enable-background="new 0 0 1400 980" xml:space="preserve">
<g id="XMLID_1_">
	<rect fill="#FFFFFF" width="1400" height="980"/>
</g>
<g id="XMLID_487_">
	<path id="XMLID_334_" fill="#F8DEE2" d="M728.2,304.8c0-10.8-6.1-20.2-15-25c5.9-4.2,9.7-11,9.7-18.8c0-12.7-10.4-23.1-23.1-23.1
		c-12.7,0-23.1,10.4-23.1,23.1c0,7.7,3.8,14.6,9.7,18.8c-8.9,4.8-15,14.2-15,25v40h56.7V304.8z"/>
</g>
<g id="XMLID_490_">
	<polygon id="XMLID_333_" fill="#C7ECE6" points="695.5,185.9 695.5,215.5 703.2,215.5 703.2,185.9 709.4,192.1 714.8,186.6
		699.4,171.2 684.8,185.7 690.3,191.1 	"/>
</g>
<g id="XMLID_491_">
	<polygon id="XMLID_332_" fill="#C7ECE6" points="696.4,367.4 696.4,396.9 690.3,390.7 684.8,396.2 700.3,411.6 714.8,397.1
		709.4,391.7 704.1,396.9 704.1,367.4 	"/>
</g>
<g id="XMLID_492_">
	<polygon id="XMLID_331_" fill="#C7ECE6" points="599.5,300.9 594.3,295.7 623.9,295.7 623.9,288 594.3,288 600.5,281.9 595,276.4
		579.6,291.9 594.1,306.4 	"/>
</g>
<g id="XMLID_493_">
	<polygon id="XMLID_330_" fill="#C7ECE6" points="800.1,281.9 805.3,287.1 775.8,287.1 775.8,294.8 805.3,294.8 799.2,300.9
		804.6,306.4 820,290.9 805.5,276.4 	"/>
</g>
<g id="XMLID_494_">
	<polygon id="XMLID_329_" fill="#C7ECE6" points="622.2,219.9 643.1,240.8 648.5,235.3 627.6,214.4 636.3,214.4 636.3,206.7
		614.5,206.7 614.5,227.2 622.2,227.2 	"/>
</g>
<g id="XMLID_495_">
	<polygon id="XMLID_328_" fill="#C7ECE6" points="763.3,376.1 785.2,376.1 785.2,355.6 777.5,355.6 777.5,363 756.6,342.1
		751.1,347.5 772,368.4 763.3,368.4 	"/>
</g>
<g id="XMLID_496_">
	<polygon id="XMLID_327_" fill="#C7ECE6" points="643.7,342.7 622.8,363.6 622.8,354.9 615.1,354.9 615.1,376.7 635.7,376.7
		635.7,369.1 628.3,369.1 649.2,348.2 	"/>
</g>
<g id="XMLID_497_">
	<polygon id="XMLID_326_" fill="#C7ECE6" points="755.9,240.1 776.8,219.2 776.8,227.9 784.5,227.9 784.5,206.1 764,206.1
		764,213.8 771.4,213.8 750.5,234.6 	"/>
</g>
<g id="XMLID_498_">
	<path id="XMLID_325_" fill="#F8DEE2" d="M245.5,552.9v22.5h56.7v-22.5c0-10.8-6.1-20.2-15-25c5.9-4.2,9.7-11,9.7-18.8
		c0-12.7-10.4-23.1-23.1-23.1c-12.7,0-23.1,10.4-23.1,23.1c0,7.7,3.8,14.6,9.7,18.8C251.5,532.7,245.5,542.1,245.5,552.9z"/>
</g>
<g id="XMLID_499_">
	<path id="XMLID_324_" fill="#F8DEE2" d="M373.9,786.9c5.9-4.2,9.7-11,9.7-18.8c0-12.7-10.4-23.1-23.1-23.1
		c-12.7,0-23.1,10.4-23.1,23.1c0,7.7,3.8,14.6,9.7,18.8c-8.9,4.8-15,14.2-15,25v22.5h56.7v-22.5
		C388.8,801.1,382.8,791.7,373.9,786.9z"/>
</g>
<g id="XMLID_500_">
	<path id="XMLID_323_" fill="#F8DEE2" d="M287.2,786.9c5.9-4.2,9.7-11,9.7-18.8c0-12.7-10.4-23.1-23.1-23.1
		c-12.7,0-23.1,10.4-23.1,23.1c0,7.7,3.8,14.6,9.7,18.8c-8.9,4.8-15,14.2-15,25v22.5h56.7v-22.5
		C302.2,801.1,296.1,791.7,287.2,786.9z"/>
</g>
<g id="XMLID_501_">
	<path id="XMLID_322_" fill="#F8DEE2" d="M200.6,786.9c5.9-4.2,9.7-11,9.7-18.8c0-12.7-10.4-23.1-23.1-23.1s-23.1,10.4-23.1,23.1
		c0,7.7,3.8,14.6,9.7,18.8c-8.9,4.8-15,14.2-15,25v22.5h56.7v-22.5C215.5,801.1,209.5,791.7,200.6,786.9z"/>
</g>
<g id="XMLID_502_">
	<path id="XMLID_321_" fill="#F8DEE2" d="M202.1,682.4v22.5h56.7v-22.5c0-10.8-6.1-20.2-15-25c5.9-4.2,9.7-11,9.7-18.8
		c0-12.7-10.4-23.1-23.1-23.1c-12.7,0-23.1,10.4-23.1,23.1c0,7.7,3.8,14.6,9.7,18.8C208.2,662.2,202.1,671.6,202.1,682.4z"/>
</g>
<g id="XMLID_503_">
	<path id="XMLID_320_" fill="#F8DEE2" d="M288.8,682.4v22.5h56.7v-22.5c0-10.8-6.1-20.2-15-25c5.9-4.2,9.7-11,9.7-18.8
		c0-12.7-10.4-23.1-23.1-23.1c-12.7,0-23.1,10.4-23.1,23.1c0,7.7,3.8,14.6,9.7,18.8C294.9,662.2,288.8,671.6,288.8,682.4z"/>
</g>
<g id="XMLID_504_">
	<polygon id="XMLID_319_" fill="#C7ECE6" points="226.7,608.3 234.3,608.3 234.3,599.3 313.3,599.3 313.3,608.3 321,608.3
		321,591.6 277.7,591.6 277.7,582.7 270,582.7 270,591.6 226.7,591.6 	"/>
</g>
<g id="XMLID_505_">
	<polygon id="XMLID_318_" fill="#C7ECE6" points="183.3,737.8 191,737.8 191,728.8 270,728.8 270,737.8 277.7,737.8 277.7,728.8
		356.6,728.8 356.6,737.8 364.3,737.8 364.3,721.1 321,721.1 321,712.2 313.3,712.2 313.3,721.1 234.3,721.1 234.3,712.2
		226.7,712.2 226.7,721.1 183.3,721.1 	"/>
</g>
<g id="XMLID_506_">
	<path id="XMLID_317_" fill="#F8DEE2" d="M245.5,348.8v40h56.7v-40c0-10.8-6.1-20.2-15-25c5.9-4.2,9.7-11,9.7-18.8
		c0-12.7-10.4-23.1-23.1-23.1c-12.7,0-23.1,10.4-23.1,23.1c0,7.7,3.8,14.6,9.7,18.8C251.5,328.6,245.5,338,245.5,348.8z"/>
</g>
<g id="XMLID_507_">
	<path id="XMLID_316_" fill="#F8DEE2" d="M307.6,357.5v31.3h56.7v-31.3c0-10.8-6.1-20.2-15-25c5.9-4.2,9.7-11,9.7-18.8
		c0-12.7-10.4-23.1-23.1-23.1c-12.7,0-23.1,10.4-23.1,23.1c0,7.7,3.8,14.6,9.7,18.8C313.7,337.3,307.6,346.7,307.6,357.5z"/>
</g>
<g id="XMLID_508_">
	<path id="XMLID_315_" fill="#F8DEE2" d="M411.5,341.3c5.9-4.2,9.7-11,9.7-18.8c0-12.7-10.4-23.1-23.1-23.1
		c-12.7,0-23.1,10.4-23.1,23.1c0,7.7,3.8,14.6,9.7,18.8c-8.9,4.8-15,14.2-15,25v22.5h56.7v-22.5
		C426.5,355.5,420.4,346.1,411.5,341.3z"/>
</g>
<g id="XMLID_509_">
	<path id="XMLID_314_" fill="#F8DEE2" d="M183.3,357.5v31.3H240v-31.3c0-10.8-6.1-20.2-15-25c5.9-4.2,9.7-11,9.7-18.8
		c0-12.7-10.4-23.1-23.1-23.1c-12.7,0-23.1,10.4-23.1,23.1c0,7.7,3.8,14.6,9.7,18.8C189.4,337.3,183.3,346.7,183.3,357.5z"/>
</g>
<g id="XMLID_510_">
	<path id="XMLID_313_" fill="#F8DEE2" d="M177.9,366.3c0-10.8-6.1-20.2-15-25c5.9-4.2,9.7-11,9.7-18.8c0-12.7-10.4-23.1-23.1-23.1
		c-12.7,0-23.1,10.4-23.1,23.1c0,7.7,3.8,14.6,9.7,18.8c-8.9,4.8-15,14.2-15,25v22.5h56.7V366.3z"/>
</g>
<g id="XMLID_511_">
	<path id="XMLID_312_" fill="#C7ECE6" d="M411,172.8H136.7c-8.5,0-15.5,6.9-15.5,15.5v52.5c0,8.5,6.9,15.5,15.5,15.5h2.3l7,15.3
		c0.6,1.4,2,2.2,3.5,2.2c1.5,0,2.9-0.9,3.5-2.2l7-15.3h41.2l7,15.3c0.6,1.4,2,2.2,3.5,2.2c1.5,0,2.9-0.9,3.5-2.2l7-15.3h41.2l7,15.3
		c0.6,1.4,2,2.2,3.5,2.2c1.5,0,2.9-0.9,3.5-2.2l7-15.3h41l7,15.3c0.6,1.4,2,2.2,3.5,2.2s2.9-0.9,3.5-2.2l7-15.3h41l7,15.3
		c0.6,1.4,2,2.2,3.5,2.2c1.5,0,2.9-0.9,3.5-2.2l7-15.3h2.4c8.5,0,15.5-6.9,15.5-15.5v-52.5C426.5,179.7,419.5,172.8,411,172.8z"/>
</g>
<g id="XMLID_512_">
	<path id="XMLID_311_" fill="#F8DEE2" d="M703.6,577.5c5.9-4.2,9.7-11,9.7-18.8c0-12.7-10.4-23.1-23.1-23.1s-23.1,10.4-23.1,23.1
		c0,7.7,3.8,14.6,9.7,18.8c-8.9,4.8-15,14.2-15,25v40h56.7v-40C718.5,591.7,712.5,582.3,703.6,577.5z"/>
</g>
<g id="XMLID_513_">
	<path id="XMLID_310_" fill="#F8DEE2" d="M642.3,740.3c5.9-4.2,9.7-11,9.7-18.8c0-12.7-10.4-23.1-23.1-23.1
		c-12.7,0-23.1,10.4-23.1,23.1c0,7.7,3.8,14.6,9.7,18.8c-8.9,4.8-15,14.2-15,25v40h56.7v-40C657.3,754.5,651.2,745.1,642.3,740.3z"
		/>
</g>
<g id="XMLID_514_">
	<path id="XMLID_309_" fill="#F8DEE2" d="M764.9,740.3c5.9-4.2,9.7-11,9.7-18.8c0-12.7-10.4-23.1-23.1-23.1
		c-12.7,0-23.1,10.4-23.1,23.1c0,7.7,3.8,14.6,9.7,18.8c-8.9,4.8-15,14.2-15,25v40h56.7v-40C779.8,754.5,773.8,745.1,764.9,740.3z"
		/>
</g>
<g id="XMLID_515_">
	<path id="XMLID_308_" fill="#C7ECE6" d="M729.5,571.2l-2.8,7.1c38,15.1,62.5,51.2,62.5,92.1c0,10.5-1.6,20.9-4.9,30.8l7.3,2.4
		c3.5-10.7,5.3-21.9,5.3-33.2c0-21.8-6.5-42.8-18.9-60.6C766,592.4,749.2,579,729.5,571.2z"/>
</g>
<g id="XMLID_516_">
	<path id="XMLID_307_" fill="#C7ECE6" d="M675.9,768.5l-1.1,7.6c5.1,0.7,10.2,1.1,15.3,1.1s10.3-0.4,15.3-1.1l-1.1-7.6
		C695,769.9,685.4,769.9,675.9,768.5z"/>
</g>
<g id="XMLID_517_">
	<path id="XMLID_306_" fill="#C7ECE6" d="M653.7,578.4l-2.8-7.1c-19.7,7.8-36.4,21.1-48.5,38.6c-12.4,17.9-18.9,38.8-18.9,60.6
		c0,11.3,1.8,22.5,5.3,33.2l7.3-2.4c-3.2-9.9-4.9-20.3-4.9-30.8C591.1,629.6,615.7,593.4,653.7,578.4z"/>
</g>
<g id="XMLID_518_">
	<path id="XMLID_305_" fill="#F8DEE2" d="M1113.3,558.7c0,7.7,3.8,14.6,9.7,18.8c-8.9,4.8-15,14.2-15,25v40h56.7v-40
		c0-10.8-6.1-20.2-15-25c5.9-4.2,9.7-11,9.7-18.8c0-12.7-10.4-23.1-23.1-23.1C1123.7,535.6,1113.3,546,1113.3,558.7z"/>
</g>
<g id="XMLID_519_">
	<polygon id="XMLID_304_" fill="#C7ECE6" points="1195.5,654 1077.4,654 1077.4,740.4 967,740.4 967,834.4 1077.4,834.4
		1085.1,834.4 1187.8,834.4 1195.5,834.4 1305.9,834.4 1305.9,740.4 1195.5,740.4 	"/>
</g>
<g id="XMLID_520_">
	<path id="XMLID_303_" fill="#F8DEE2" d="M997.7,688.6v40h56.7v-40c0-10.8-6.1-20.2-15-25c5.9-4.2,9.7-11,9.7-18.8
		c0-12.7-10.4-23.1-23.1-23.1c-12.7,0-23.1,10.4-23.1,23.1c0,7.7,3.8,14.6,9.7,18.8C1003.7,668.4,997.7,677.8,997.7,688.6z"/>
</g>
<g id="XMLID_521_">
	<path id="XMLID_302_" fill="#F8DEE2" d="M1269.9,644.8c0-12.7-10.4-23.1-23.1-23.1c-12.7,0-23.1,10.4-23.1,23.1
		c0,7.7,3.8,14.6,9.7,18.8c-8.9,4.8-15,14.2-15,25v40h56.7v-40c0-10.8-6.1-20.2-15-25C1266.1,659.4,1269.9,652.6,1269.9,644.8z"/>
</g>
<g id="XMLID_522_">
	<path id="XMLID_301_" fill="#F8DEE2" d="M1051.4,299.2c0-10.8-6.1-20.2-15-25c5.9-4.2,9.7-11,9.7-18.8c0-12.7-10.4-23.1-23.1-23.1
		c-12.7,0-23.1,10.4-23.1,23.1c0,7.7,3.8,14.6,9.7,18.8c-8.9,4.8-15,14.2-15,25v40h56.7V299.2z"/>
</g>
<g id="XMLID_523_">
	<path id="XMLID_300_" fill="#F8DEE2" d="M1131.1,299.2c0-10.8-6.1-20.2-15-25c5.9-4.2,9.7-11,9.7-18.8c0-12.7-10.4-23.1-23.1-23.1
		s-23.1,10.4-23.1,23.1c0,7.7,3.8,14.6,9.7,18.8c-8.9,4.8-15,14.2-15,25v40h56.7V299.2z"/>
</g>
<g id="XMLID_524_">
	<path id="XMLID_299_" fill="#C7ECE6" d="M1035.7,360.5l8.3,1.6l1.4-7.6l-21.5-4l-3.8,20.2l7.6,1.4l1.4-7.4
		c8.4,9.7,20.7,15.5,33.8,15.5c16.4,0,31.4-8.9,39.3-23.3l-6.7-3.7c-6.5,11.9-19,19.3-32.5,19.3
		C1052.4,372.4,1042.6,368,1035.7,360.5z"/>
</g>
<g id="XMLID_525_">
	<path id="XMLID_298_" fill="#F8DEE2" d="M1290.9,274.2c5.9-4.2,9.7-11,9.7-18.8c0-12.7-10.4-23.1-23.1-23.1s-23.1,10.4-23.1,23.1
		c0,7.7,3.8,14.6,9.7,18.8c-8.9,4.8-15,14.2-15,25v40h56.7v-40C1305.9,288.4,1299.8,279,1290.9,274.2z"/>
</g>
<g id="XMLID_526_">
	<path id="XMLID_297_" fill="#F8DEE2" d="M1226.2,299.2c0-10.8-6.1-20.2-15-25c5.9-4.2,9.7-11,9.7-18.8c0-12.7-10.4-23.1-23.1-23.1
		c-12.7,0-23.1,10.4-23.1,23.1c0,7.7,3.8,14.6,9.7,18.8c-8.9,4.8-15,14.2-15,25v40h56.7V299.2z"/>
</g>
<g id="XMLID_527_">
	<path id="XMLID_296_" fill="#C7ECE6" d="M1220.1,217l-1.4-7.6l-8.3,1.6c6.9-7.5,16.7-11.9,27.2-11.9c13.6,0,26,7.4,32.5,19.3
		l6.7-3.7c-7.9-14.4-22.9-23.3-39.3-23.3c-13.1,0-25.4,5.8-33.8,15.5l-1.4-7.4l-7.6,1.4l3.8,20.2L1220.1,217z"/>
</g>
<g id="XMLID_17_">
	<g id="XMLID_4_">
		<g id="XMLID_112_">
			<g id="XMLID_115_">
				<path id="XMLID_292_" fill="#FF6381" d="M685.7,270c-12.7,0-23.1-10.4-23.1-23.1c0-12.7,10.4-23.1,23.1-23.1
					c12.7,0,23.1,10.4,23.1,23.1C708.8,259.6,698.4,270,685.7,270z M685.7,231.5c-8.5,0-15.4,6.9-15.4,15.4s6.9,15.4,15.4,15.4
					c8.5,0,15.4-6.9,15.4-15.4S694.2,231.5,685.7,231.5z"/>
			</g>
			<g id="XMLID_113_">
				<path id="XMLID_289_" fill="#FF6381" d="M714,330.7h-56.7v-40c0-15.6,12.7-28.4,28.4-28.4c15.6,0,28.4,12.7,28.4,28.4V330.7z
					 M665,323h41.3v-32.3c0-11.4-9.3-20.7-20.7-20.7c-11.4,0-20.7,9.3-20.7,20.7V323z"/>
			</g>
		</g>
		<g id="XMLID_111_">
			<g id="XMLID_118_">
				<polygon id="XMLID_288_" fill="#55EBD0" points="695.2,177.9 685.2,167.9 676.1,177 670.7,171.5 685.2,157 700.6,172.5 				"/>
			</g>
			<g id="XMLID_117_">
				<rect id="XMLID_287_" x="681.4" y="162.5" fill="#55EBD0" width="7.7" height="38.8"/>
			</g>
		</g>
		<g id="XMLID_119_">
			<g id="XMLID_121_">
				<polygon id="XMLID_286_" fill="#55EBD0" points="686.1,397.5 670.7,382 676.1,376.6 686.1,386.6 695.2,377.5 700.6,383 				"/>
			</g>
			<g id="XMLID_120_">
				<rect id="XMLID_285_" x="682.3" y="353.2" fill="#55EBD0" width="7.7" height="38.8"/>
			</g>
		</g>
		<g id="XMLID_124_">
			<g id="XMLID_126_">
				<polygon id="XMLID_284_" fill="#55EBD0" points="579.9,292.2 565.4,277.7 580.9,262.3 586.3,267.7 576.3,277.7 585.4,286.8
					"/>
			</g>
			<g id="XMLID_125_">
				<rect id="XMLID_283_" x="570.9" y="273.9" fill="#55EBD0" width="38.8" height="7.7"/>
			</g>
		</g>
		<g id="XMLID_116_">
			<g id="XMLID_123_">
				<polygon id="XMLID_282_" fill="#55EBD0" points="790.4,292.2 785,286.8 795,276.8 785.9,267.7 791.4,262.3 805.9,276.8 				"/>
			</g>
			<g id="XMLID_122_">
				<rect id="XMLID_281_" x="761.6" y="272.9" fill="#55EBD0" width="38.8" height="7.7"/>
			</g>
		</g>
		<g id="XMLID_136_">
			<g id="XMLID_138_">
				<polygon id="XMLID_280_" fill="#55EBD0" points="608,213.1 600.3,213.1 600.3,192.6 622.2,192.6 622.2,200.3 608,200.3 				"/>
			</g>
			<g id="XMLID_137_">

					<rect id="XMLID_279_" x="598.5" y="206.3" transform="matrix(0.7071 0.7071 -0.7071 0.7071 329.57 -375.3698)" fill="#55EBD0" width="38.8" height="7.7"/>
			</g>
		</g>
		<g id="XMLID_133_">
			<g id="XMLID_135_">
				<polygon id="XMLID_278_" fill="#55EBD0" points="771,361.9 749.2,361.9 749.2,354.2 763.3,354.2 763.3,341.4 771,341.4 				"/>
			</g>
			<g id="XMLID_134_">

					<rect id="XMLID_277_" x="734" y="340.5" transform="matrix(0.7071 0.7071 -0.7071 0.7071 464.1676 -431.899)" fill="#55EBD0" width="38.8" height="7.7"/>
			</g>
		</g>
		<g id="XMLID_130_">
			<g id="XMLID_132_">
				<polygon id="XMLID_276_" fill="#55EBD0" points="621.5,362.6 601,362.6 601,340.7 608.7,340.7 608.7,354.9 621.5,354.9 				"/>
			</g>
			<g id="XMLID_131_">

					<rect id="XMLID_275_" x="614.7" y="325.6" transform="matrix(0.7071 0.7071 -0.7071 0.7071 425.1331 -336.3354)" fill="#55EBD0" width="7.7" height="38.8"/>
			</g>
		</g>
		<g id="XMLID_127_">
			<g id="XMLID_129_">
				<polygon id="XMLID_274_" fill="#55EBD0" points="770.3,213.7 762.7,213.7 762.7,199.6 749.8,199.6 749.8,191.9 770.3,191.9
					"/>
			</g>
			<g id="XMLID_128_">

					<rect id="XMLID_273_" x="748.9" y="190.1" transform="matrix(0.707 0.7072 -0.7072 0.707 368.6716 -470.9712)" fill="#55EBD0" width="7.7" height="38.8"/>
			</g>
		</g>
	</g>
	<g id="XMLID_16_">
		<g id="XMLID_23_">
			<path id="XMLID_270_" fill="#FF6381" d="M259.7,518.1c-12.7,0-23.1-10.4-23.1-23.1c0-12.7,10.4-23.1,23.1-23.1
				c12.7,0,23.1,10.4,23.1,23.1C282.8,507.7,272.4,518.1,259.7,518.1z M259.7,479.6c-8.5,0-15.4,6.9-15.4,15.4
				c0,8.5,6.9,15.4,15.4,15.4c8.5,0,15.4-6.9,15.4-15.4C275.1,486.5,268.2,479.6,259.7,479.6z"/>
		</g>
		<g id="XMLID_20_">
			<path id="XMLID_267_" fill="#FF6381" d="M288,561.3h-56.7v-22.5c0-15.6,12.7-28.4,28.4-28.4c15.6,0,28.4,12.7,28.4,28.4V561.3z
				 M239,553.6h41.3v-14.8c0-11.4-9.3-20.7-20.7-20.7c-11.4,0-20.7,9.3-20.7,20.7V553.6z"/>
		</g>
		<g id="XMLID_43_">
			<g id="XMLID_45_">
				<path id="XMLID_264_" fill="#FF6381" d="M346.3,777.1c-12.7,0-23.1-10.4-23.1-23.1c0-12.7,10.4-23.1,23.1-23.1
					c12.7,0,23.1,10.4,23.1,23.1C369.4,766.7,359.1,777.1,346.3,777.1z M346.3,738.5c-8.5,0-15.4,6.9-15.4,15.4
					c0,8.5,6.9,15.4,15.4,15.4c8.5,0,15.4-6.9,15.4-15.4C361.7,745.5,354.8,738.5,346.3,738.5z"/>
			</g>
			<g id="XMLID_44_">
				<path id="XMLID_261_" fill="#FF6381" d="M374.7,820.3H318v-22.5c0-15.6,12.7-28.4,28.4-28.4c15.6,0,28.4,12.7,28.4,28.4V820.3z
					 M325.7,812.6H367v-14.8c0-11.4-9.3-20.7-20.7-20.7c-11.4,0-20.7,9.3-20.7,20.7V812.6z"/>
			</g>
		</g>
		<g id="XMLID_46_">
			<g id="XMLID_48_">
				<path id="XMLID_258_" fill="#FF6381" d="M259.7,777.1c-12.7,0-23.1-10.4-23.1-23.1c0-12.7,10.4-23.1,23.1-23.1
					c12.7,0,23.1,10.4,23.1,23.1C282.8,766.7,272.4,777.1,259.7,777.1z M259.7,738.5c-8.5,0-15.4,6.9-15.4,15.4
					c0,8.5,6.9,15.4,15.4,15.4c8.5,0,15.4-6.9,15.4-15.4C275.1,745.5,268.2,738.5,259.7,738.5z"/>
			</g>
			<g id="XMLID_47_">
				<path id="XMLID_255_" fill="#FF6381" d="M288,820.3h-56.7v-22.5c0-15.6,12.7-28.4,28.4-28.4c15.6,0,28.4,12.7,28.4,28.4V820.3z
					 M239,812.6h41.3v-14.8c0-11.4-9.3-20.7-20.7-20.7c-11.4,0-20.7,9.3-20.7,20.7V812.6z"/>
			</g>
		</g>
		<g id="XMLID_49_">
			<g id="XMLID_51_">
				<path id="XMLID_252_" fill="#FF6381" d="M173,777.1c-12.7,0-23.1-10.4-23.1-23.1c0-12.7,10.4-23.1,23.1-23.1
					c12.7,0,23.1,10.4,23.1,23.1C196.1,766.7,185.7,777.1,173,777.1z M173,738.5c-8.5,0-15.4,6.9-15.4,15.4
					c0,8.5,6.9,15.4,15.4,15.4c8.5,0,15.4-6.9,15.4-15.4C188.4,745.5,181.5,738.5,173,738.5z"/>
			</g>
			<g id="XMLID_50_">
				<path id="XMLID_249_" fill="#FF6381" d="M201.4,820.3h-56.7v-22.5c0-15.6,12.7-28.4,28.4-28.4s28.4,12.7,28.4,28.4V820.3z
					 M152.3,812.6h41.3v-14.8c0-11.4-9.3-20.7-20.7-20.7s-20.7,9.3-20.7,20.7V812.6z"/>
			</g>
		</g>
		<g id="XMLID_25_">
			<g id="XMLID_42_">
				<path id="XMLID_246_" fill="#FF6381" d="M216.3,647.6c-12.7,0-23.1-10.4-23.1-23.1c0-12.7,10.4-23.1,23.1-23.1
					s23.1,10.4,23.1,23.1C239.4,637.2,229.1,647.6,216.3,647.6z M216.3,609.1c-8.5,0-15.4,6.9-15.4,15.4c0,8.5,6.9,15.4,15.4,15.4
					c8.5,0,15.4-6.9,15.4-15.4C231.8,616,224.8,609.1,216.3,609.1z"/>
			</g>
			<g id="XMLID_26_">
				<path id="XMLID_243_" fill="#FF6381" d="M244.7,690.8H188v-22.5c0-15.6,12.7-28.4,28.4-28.4s28.4,12.7,28.4,28.4V690.8z
					 M195.7,683.1H237v-14.8c0-11.4-9.3-20.7-20.7-20.7s-20.7,9.3-20.7,20.7V683.1z"/>
			</g>
		</g>
		<g id="XMLID_53_">
			<g id="XMLID_98_">
				<g id="XMLID_105_">
					<path id="XMLID_240_" fill="#FF6381" d="M303,647.6c-12.7,0-23.1-10.4-23.1-23.1c0-12.7,10.4-23.1,23.1-23.1
						c12.7,0,23.1,10.4,23.1,23.1C326.1,637.2,315.7,647.6,303,647.6z M303,609.1c-8.5,0-15.4,6.9-15.4,15.4
						c0,8.5,6.9,15.4,15.4,15.4c8.5,0,15.4-6.9,15.4-15.4C318.4,616,311.5,609.1,303,609.1z"/>
				</g>
				<g id="XMLID_99_">
					<path id="XMLID_237_" fill="#FF6381" d="M331.4,690.8h-56.7v-22.5c0-15.6,12.7-28.4,28.4-28.4c15.6,0,28.4,12.7,28.4,28.4
						V690.8z M282.3,683.1h41.3v-14.8c0-11.4-9.3-20.7-20.7-20.7c-11.4,0-20.7,9.3-20.7,20.7V683.1z"/>
				</g>
			</g>
		</g>
		<g id="XMLID_55_">
			<polygon id="XMLID_236_" fill="#55EBD0" points="306.8,594.1 299.2,594.1 299.2,585.2 220.2,585.2 220.2,594.1 212.5,594.1
				212.5,577.5 306.8,577.5 			"/>
		</g>
		<g id="XMLID_56_">
			<rect id="XMLID_235_" x="255.8" y="568.5" fill="#55EBD0" width="7.7" height="12.8"/>
		</g>
		<g id="XMLID_106_">
			<polygon id="XMLID_234_" fill="#55EBD0" points="350.2,723.6 342.5,723.6 342.5,714.7 176.8,714.7 176.8,723.6 169.2,723.6
				169.2,707 350.2,707 			"/>
		</g>
		<g id="XMLID_59_">
			<rect id="XMLID_233_" x="212.5" y="698" fill="#55EBD0" width="7.7" height="12.8"/>
		</g>
		<g id="XMLID_58_">
			<rect id="XMLID_232_" x="299.2" y="698" fill="#55EBD0" width="7.7" height="12.8"/>
		</g>
		<g id="XMLID_107_">
			<rect id="XMLID_231_" x="255.8" y="710.8" fill="#55EBD0" width="7.7" height="12.8"/>
		</g>
	</g>
	<g id="XMLID_3_">
		<g id="XMLID_14_">
			<path id="XMLID_228_" fill="#FF6381" d="M259.7,314c-12.7,0-23.1-10.4-23.1-23.1c0-12.7,10.4-23.1,23.1-23.1
				c12.7,0,23.1,10.4,23.1,23.1C282.8,303.6,272.4,314,259.7,314z M259.7,275.4c-8.5,0-15.4,6.9-15.4,15.4c0,8.5,6.9,15.4,15.4,15.4
				c8.5,0,15.4-6.9,15.4-15.4C275.1,282.4,268.2,275.4,259.7,275.4z"/>
		</g>
		<g id="XMLID_13_">
			<path id="XMLID_225_" fill="#FF6381" d="M288,374.7h-56.7v-40c0-15.6,12.7-28.4,28.4-28.4c15.6,0,28.4,12.7,28.4,28.4V374.7z
				 M239,367h41.3v-32.3c0-11.4-9.3-20.7-20.7-20.7c-11.4,0-20.7,9.3-20.7,20.7V367z"/>
		</g>
		<g id="XMLID_12_">
			<path id="XMLID_222_" fill="#FF6381" d="M321.8,322.7c-12.7,0-23.1-10.4-23.1-23.1c0-12.7,10.4-23.1,23.1-23.1
				c12.7,0,23.1,10.4,23.1,23.1C344.9,312.3,334.6,322.7,321.8,322.7z M321.8,284.2c-8.5,0-15.4,6.9-15.4,15.4
				c0,8.5,6.9,15.4,15.4,15.4c8.5,0,15.4-6.9,15.4-15.4C337.2,291.1,330.3,284.2,321.8,284.2z"/>
		</g>
		<g id="XMLID_11_">
			<path id="XMLID_219_" fill="#FF6381" d="M350.2,374.7h-56.7v-31.3c0-15.6,12.7-28.4,28.4-28.4c15.6,0,28.4,12.7,28.4,28.4V374.7z
				 M301.1,367h41.3v-23.6c0-11.4-9.3-20.7-20.7-20.7s-20.7,9.3-20.7,20.7V367z"/>
		</g>
		<g id="XMLID_9_">
			<path id="XMLID_216_" fill="#FF6381" d="M384,331.5c-12.7,0-23.1-10.4-23.1-23.1c0-12.7,10.4-23.1,23.1-23.1
				c12.7,0,23.1,10.4,23.1,23.1C407.1,321.1,396.7,331.5,384,331.5z M384,292.9c-8.5,0-15.4,6.9-15.4,15.4c0,8.5,6.9,15.4,15.4,15.4
				c8.5,0,15.4-6.9,15.4-15.4C399.4,299.9,392.5,292.9,384,292.9z"/>
		</g>
		<g id="XMLID_8_">
			<path id="XMLID_213_" fill="#FF6381" d="M412.3,374.7h-56.7v-22.5c0-15.6,12.7-28.4,28.4-28.4c15.6,0,28.4,12.7,28.4,28.4V374.7z
				 M363.3,367h41.3v-14.8c0-11.4-9.3-20.7-20.7-20.7c-11.4,0-20.7,9.3-20.7,20.7V367z"/>
		</g>
		<g id="XMLID_22_">
			<path id="XMLID_210_" fill="#FF6381" d="M197.5,322.7c-12.7,0-23.1-10.4-23.1-23.1c0-12.7,10.4-23.1,23.1-23.1
				c12.7,0,23.1,10.4,23.1,23.1C220.6,312.3,210.3,322.7,197.5,322.7z M197.5,284.2c-8.5,0-15.4,6.9-15.4,15.4
				c0,8.5,6.9,15.4,15.4,15.4c8.5,0,15.4-6.9,15.4-15.4C212.9,291.1,206,284.2,197.5,284.2z"/>
		</g>
		<g id="XMLID_21_">
			<path id="XMLID_207_" fill="#FF6381" d="M225.9,374.7h-56.7v-31.3c0-15.6,12.7-28.4,28.4-28.4c15.6,0,28.4,12.7,28.4,28.4V374.7z
				 M176.8,367h41.3v-23.6c0-11.4-9.3-20.7-20.7-20.7c-11.4,0-20.7,9.3-20.7,20.7V367z"/>
		</g>
		<g id="XMLID_19_">
			<path id="XMLID_204_" fill="#FF6381" d="M135.4,331.5c-12.7,0-23.1-10.4-23.1-23.1c0-12.7,10.4-23.1,23.1-23.1
				c12.7,0,23.1,10.4,23.1,23.1C158.5,321.1,148.1,331.5,135.4,331.5z M135.4,292.9c-8.5,0-15.4,6.9-15.4,15.4
				c0,8.5,6.9,15.4,15.4,15.4c8.5,0,15.4-6.9,15.4-15.4C150.8,299.9,143.9,292.9,135.4,292.9z"/>
		</g>
		<g id="XMLID_18_">
			<path id="XMLID_201_" fill="#FF6381" d="M163.7,374.7H107v-22.5c0-15.6,12.7-28.4,28.4-28.4c15.6,0,28.4,12.7,28.4,28.4V374.7z
				 M114.7,367H156v-14.8c0-11.4-9.3-20.7-20.7-20.7c-11.4,0-20.7,9.3-20.7,20.7V367z"/>
		</g>
		<g id="XMLID_114_">
			<path id="XMLID_196_" fill="#55EBD0" d="M383.9,259.7c-1.5,0-2.9-0.9-3.5-2.2l-7-15.3h-41l-7,15.3c-0.6,1.4-2,2.2-3.5,2.2
				c-1.5,0-2.9-0.9-3.5-2.2l-7-15.3h-41l-7,15.3c-0.6,1.4-2,2.2-3.5,2.2s-2.9-0.9-3.5-2.2l-7-15.3H208l-7,15.3
				c-0.6,1.4-2,2.2-3.5,2.2c-1.5,0-2.9-0.9-3.5-2.2l-7-15.3h-41.2l-7,15.3c-0.6,1.4-2,2.2-3.5,2.2c-1.5,0-2.9-0.9-3.5-2.2l-7-15.3
				h-2.3c-8.5,0-15.5-6.9-15.5-15.5v-52.5c0-8.5,6.9-15.5,15.5-15.5h274.3c8.5,0,15.5,6.9,15.5,15.5v52.5c0,8.5-6.9,15.5-15.5,15.5
				h-2.4l-7,15.3C386.7,258.8,385.4,259.7,383.9,259.7z M267.8,234.4h46c1.5,0,2.9,0.9,3.5,2.2l4.6,10l4.6-10c0.6-1.4,2-2.2,3.5-2.2
				h46c1.5,0,2.9,0.9,3.5,2.2l4.6,10l4.6-10c0.6-1.4,2-2.2,3.5-2.2h4.9c4.3,0,7.8-3.5,7.8-7.8v-52.5c0-4.3-3.5-7.8-7.8-7.8H122.5
				c-4.3,0-7.8,3.5-7.8,7.8v52.5c0,4.3,3.5,7.8,7.8,7.8h4.7c1.5,0,2.9,0.9,3.5,2.2l4.6,10l4.6-10c0.6-1.4,2-2.2,3.5-2.2h46.1
				c1.5,0,2.9,0.9,3.5,2.2l4.6,10l4.6-10c0.6-1.4,2-2.2,3.5-2.2h46.1c1.5,0,2.9,0.9,3.5,2.2l4.6,10l4.6-10
				C264.9,235.3,266.3,234.4,267.8,234.4z"/>
		</g>
		<g id="XMLID_108_">
			<rect id="XMLID_195_" x="135.4" y="183.3" fill="#55EBD0" width="248.6" height="7.7"/>
		</g>
		<g id="XMLID_109_">
			<rect id="XMLID_194_" x="135.4" y="196.5" fill="#55EBD0" width="248.6" height="7.7"/>
		</g>
		<g id="XMLID_110_">
			<rect id="XMLID_193_" x="135.4" y="209.7" fill="#55EBD0" width="124.3" height="7.7"/>
		</g>
	</g>
	<g id="XMLID_15_">
		<g id="XMLID_141_">
			<g id="XMLID_143_">
				<path id="XMLID_190_" fill="#FF6381" d="M676,567.7c-12.7,0-23.1-10.4-23.1-23.1c0-12.7,10.4-23.1,23.1-23.1
					c12.7,0,23.1,10.4,23.1,23.1C699.1,557.3,688.8,567.7,676,567.7z M676,529.1c-8.5,0-15.4,6.9-15.4,15.4
					c0,8.5,6.9,15.4,15.4,15.4s15.4-6.9,15.4-15.4C691.4,536.1,684.5,529.1,676,529.1z"/>
			</g>
			<g id="XMLID_142_">
				<path id="XMLID_174_" fill="#FF6381" d="M704.4,628.4h-56.7v-40c0-15.6,12.7-28.4,28.4-28.4s28.4,12.7,28.4,28.4V628.4z
					 M655.3,620.7h41.3v-32.3c0-11.4-9.3-20.7-20.7-20.7s-20.7,9.3-20.7,20.7V620.7z"/>
			</g>
		</g>
		<g id="XMLID_140_">
			<g id="XMLID_144_">
				<g id="XMLID_146_">
					<path id="XMLID_158_" fill="#FF6381" d="M614.7,730.5c-12.7,0-23.1-10.4-23.1-23.1s10.4-23.1,23.1-23.1s23.1,10.4,23.1,23.1
						S627.5,730.5,614.7,730.5z M614.7,691.9c-8.5,0-15.4,6.9-15.4,15.4s6.9,15.4,15.4,15.4s15.4-6.9,15.4-15.4
						S623.2,691.9,614.7,691.9z"/>
				</g>
				<g id="XMLID_145_">
					<path id="XMLID_139_" fill="#FF6381" d="M643.1,791.2h-56.7v-40c0-15.6,12.7-28.4,28.4-28.4s28.4,12.7,28.4,28.4V791.2z
						 M594.1,783.5h41.3v-32.3c0-11.4-9.3-20.7-20.7-20.7s-20.7,9.3-20.7,20.7V783.5z"/>
				</g>
			</g>
			<g id="XMLID_147_">
				<g id="XMLID_149_">
					<path id="XMLID_102_" fill="#FF6381" d="M737.3,730.5c-12.7,0-23.1-10.4-23.1-23.1s10.4-23.1,23.1-23.1
						c12.7,0,23.1,10.4,23.1,23.1S750,730.5,737.3,730.5z M737.3,691.9c-8.5,0-15.4,6.9-15.4,15.4s6.9,15.4,15.4,15.4
						c8.5,0,15.4-6.9,15.4-15.4S745.8,691.9,737.3,691.9z"/>
				</g>
				<g id="XMLID_148_">
					<path id="XMLID_97_" fill="#FF6381" d="M765.7,791.2h-56.7v-40c0-15.6,12.7-28.4,28.4-28.4s28.4,12.7,28.4,28.4V791.2z
						 M716.6,783.5H758v-32.3c0-11.4-9.3-20.7-20.7-20.7s-20.7,9.3-20.7,20.7V783.5z"/>
				</g>
			</g>
		</g>
		<g id="XMLID_153_">
			<path id="XMLID_96_" fill="#55EBD0" d="M777.5,689.5l-7.3-2.4c3.2-9.9,4.9-20.3,4.9-30.8c0-40.9-24.5-77-62.5-92.1l2.8-7.1
				c19.7,7.8,36.4,21.1,48.5,38.6c12.4,17.9,18.9,38.8,18.9,60.6C782.8,667.6,781,678.8,777.5,689.5z"/>
		</g>
		<g id="XMLID_151_">
			<path id="XMLID_95_" fill="#55EBD0" d="M676,763.1c-5.1,0-10.3-0.4-15.3-1.1l1.1-7.6c9.4,1.4,19.1,1.4,28.5,0l1.1,7.6
				C686.3,762.7,681.1,763.1,676,763.1z"/>
		</g>
		<g id="XMLID_155_">
			<path id="XMLID_94_" fill="#55EBD0" d="M574.5,689.5c-3.5-10.7-5.3-21.9-5.3-33.2c0-21.8,6.5-42.8,18.9-60.6
				c12.1-17.5,28.8-30.8,48.5-38.6l2.8,7.1c-38,15.1-62.5,51.2-62.5,92.1c0,10.5,1.6,20.9,4.9,30.8L574.5,689.5z"/>
		</g>
	</g>
	<g id="XMLID_10_">
		<g id="XMLID_166_">
			<path id="XMLID_91_" fill="#FF6381" d="M1122.3,567.7c-12.7,0-23.1-10.4-23.1-23.1c0-12.7,10.4-23.1,23.1-23.1
				c12.7,0,23.1,10.4,23.1,23.1C1145.4,557.3,1135,567.7,1122.3,567.7z M1122.3,529.1c-8.5,0-15.4,6.9-15.4,15.4
				c0,8.5,6.9,15.4,15.4,15.4s15.4-6.9,15.4-15.4C1137.7,536.1,1130.8,529.1,1122.3,529.1z"/>
		</g>
		<g id="XMLID_165_">
			<path id="XMLID_88_" fill="#FF6381" d="M1150.6,628.4h-56.7v-40c0-15.6,12.7-28.4,28.4-28.4s28.4,12.7,28.4,28.4V628.4z
				 M1101.6,620.7h41.3v-32.3c0-11.4-9.3-20.7-20.7-20.7c-11.4,0-20.7,9.3-20.7,20.7V620.7z"/>
		</g>
		<g id="XMLID_154_">
			<path id="XMLID_85_" fill="#55EBD0" d="M1181.3,820.3h-118.1V639.9h118.1V820.3z M1070.9,812.6h102.7v-165h-102.7V812.6z"/>
		</g>
		<g id="XMLID_161_">
			<path id="XMLID_82_" fill="#FF6381" d="M1011.9,653.8c-12.7,0-23.1-10.4-23.1-23.1c0-12.7,10.4-23.1,23.1-23.1
				c12.7,0,23.1,10.4,23.1,23.1C1035,643.4,1024.6,653.8,1011.9,653.8z M1011.9,615.3c-8.5,0-15.4,6.9-15.4,15.4
				c0,8.5,6.9,15.4,15.4,15.4c8.5,0,15.4-6.9,15.4-15.4C1027.3,622.2,1020.4,615.3,1011.9,615.3z"/>
		</g>
		<g id="XMLID_160_">
			<path id="XMLID_79_" fill="#FF6381" d="M1040.2,714.5h-56.7v-40c0-15.6,12.7-28.4,28.4-28.4c15.6,0,28.4,12.7,28.4,28.4V714.5z
				 M991.2,706.8h41.3v-32.3c0-11.4-9.3-20.7-20.7-20.7c-11.4,0-20.7,9.3-20.7,20.7V706.8z"/>
		</g>
		<g id="XMLID_163_">
			<path id="XMLID_76_" fill="#FF6381" d="M1232.7,653.8c-12.7,0-23.1-10.4-23.1-23.1c0-12.7,10.4-23.1,23.1-23.1
				s23.1,10.4,23.1,23.1C1255.8,643.4,1245.4,653.8,1232.7,653.8z M1232.7,615.3c-8.5,0-15.4,6.9-15.4,15.4
				c0,8.5,6.9,15.4,15.4,15.4s15.4-6.9,15.4-15.4C1248.1,622.2,1241.2,615.3,1232.7,615.3z"/>
		</g>
		<g id="XMLID_162_">
			<path id="XMLID_73_" fill="#FF6381" d="M1261,714.5h-56.7v-40c0-15.6,12.7-28.4,28.4-28.4s28.4,12.7,28.4,28.4V714.5z
				 M1212,706.8h41.3v-32.3c0-11.4-9.3-20.7-20.7-20.7s-20.7,9.3-20.7,20.7V706.8z"/>
		</g>
		<g id="XMLID_157_">
			<path id="XMLID_70_" fill="#55EBD0" d="M1291.7,820.3h-118.1v-94h118.1V820.3z M1181.3,812.6H1284v-78.7h-102.7V812.6z"/>
		</g>
		<g id="XMLID_167_">
			<path id="XMLID_67_" fill="#55EBD0" d="M1070.9,820.3H952.8v-94h118.1V820.3z M960.5,812.6h102.7v-78.7H960.5V812.6z"/>
		</g>
	</g>
	<g id="XMLID_7_">
		<g id="XMLID_168_">
			<g id="XMLID_170_">
				<path id="XMLID_64_" fill="#FF6381" d="M1008.9,264.3c-12.7,0-23.1-10.4-23.1-23.1s10.4-23.1,23.1-23.1
					c12.7,0,23.1,10.4,23.1,23.1S1021.6,264.3,1008.9,264.3z M1008.9,225.8c-8.5,0-15.4,6.9-15.4,15.4s6.9,15.4,15.4,15.4
					c8.5,0,15.4-6.9,15.4-15.4S1017.4,225.8,1008.9,225.8z"/>
			</g>
			<g id="XMLID_169_">
				<path id="XMLID_61_" fill="#FF6381" d="M1037.2,325h-56.7v-40c0-15.6,12.7-28.4,28.4-28.4c15.6,0,28.4,12.7,28.4,28.4V325z
					 M988.2,317.4h41.3V285c0-11.4-9.3-20.7-20.7-20.7s-20.7,9.3-20.7,20.7V317.4z"/>
			</g>
		</g>
		<g id="XMLID_171_">
			<g id="XMLID_173_">
				<path id="XMLID_54_" fill="#FF6381" d="M1088.6,264.3c-12.7,0-23.1-10.4-23.1-23.1s10.4-23.1,23.1-23.1s23.1,10.4,23.1,23.1
					S1101.3,264.3,1088.6,264.3z M1088.6,225.8c-8.5,0-15.4,6.9-15.4,15.4s6.9,15.4,15.4,15.4s15.4-6.9,15.4-15.4
					S1097.1,225.8,1088.6,225.8z"/>
			</g>
			<g id="XMLID_172_">
				<path id="XMLID_40_" fill="#FF6381" d="M1117,325h-56.7v-40c0-15.6,12.7-28.4,28.4-28.4s28.4,12.7,28.4,28.4V325z M1067.9,317.4
					h41.3V285c0-11.4-9.3-20.7-20.7-20.7s-20.7,9.3-20.7,20.7V317.4z"/>
			</g>
		</g>
		<g id="XMLID_184_">
			<g id="XMLID_197_">
				<g id="XMLID_199_">
					<polygon id="XMLID_39_" fill="#55EBD0" points="1013.5,357.9 1006,356.5 1009.8,336.3 1031.2,340.3 1029.8,347.9 1015.9,345.3
											"/>
				</g>
				<g id="XMLID_183_">
					<path id="XMLID_295_" fill="none" stroke="#55EBD0" stroke-width="7" stroke-miterlimit="10" d="M1012.8,340.8"/>
				</g>
			</g>
			<g id="XMLID_156_">
				<path id="XMLID_38_" fill="#55EBD0" d="M1048.7,366c-16.4,0-31.4-8.9-39.3-23.3l6.7-3.7c6.5,11.9,19,19.3,32.5,19.3
					c13.6,0,26-7.4,32.5-19.3l6.7,3.7C1080.2,357,1065.1,366,1048.7,366z"/>
			</g>
		</g>
		<g id="XMLID_187_">
			<g id="XMLID_189_">
				<path id="XMLID_35_" fill="#FF6381" d="M1263.4,264.3c-12.7,0-23.1-10.4-23.1-23.1s10.4-23.1,23.1-23.1s23.1,10.4,23.1,23.1
					S1276.1,264.3,1263.4,264.3z M1263.4,225.8c-8.5,0-15.4,6.9-15.4,15.4s6.9,15.4,15.4,15.4s15.4-6.9,15.4-15.4
					S1271.9,225.8,1263.4,225.8z"/>
			</g>
			<g id="XMLID_188_">
				<path id="XMLID_32_" fill="#FF6381" d="M1291.7,325H1235v-40c0-15.6,12.7-28.4,28.4-28.4s28.4,12.7,28.4,28.4V325z
					 M1242.7,317.4h41.3V285c0-11.4-9.3-20.7-20.7-20.7s-20.7,9.3-20.7,20.7V317.4z"/>
			</g>
		</g>
		<g id="XMLID_182_">
			<g id="XMLID_186_">
				<path id="XMLID_29_" fill="#FF6381" d="M1183.6,264.3c-12.7,0-23.1-10.4-23.1-23.1s10.4-23.1,23.1-23.1
					c12.7,0,23.1,10.4,23.1,23.1S1196.4,264.3,1183.6,264.3z M1183.6,225.8c-8.5,0-15.4,6.9-15.4,15.4s6.9,15.4,15.4,15.4
					s15.4-6.9,15.4-15.4S1192.1,225.8,1183.6,225.8z"/>
			</g>
			<g id="XMLID_185_">
				<path id="XMLID_24_" fill="#FF6381" d="M1212,325h-56.7v-40c0-15.6,12.7-28.4,28.4-28.4s28.4,12.7,28.4,28.4V325z M1163,317.4
					h41.3V285c0-11.4-9.3-20.7-20.7-20.7c-11.4,0-20.7,9.3-20.7,20.7V317.4z"/>
			</g>
		</g>
		<g id="XMLID_176_">
			<g id="XMLID_179_">
				<g id="XMLID_181_">
					<polygon id="XMLID_6_" fill="#55EBD0" points="1184.5,206.9 1180.7,186.7 1188.3,185.3 1190.6,197.9 1204.6,195.3 1206,202.8
											"/>
				</g>
				<g id="XMLID_180_">
					<path id="XMLID_2_" fill="none" stroke="#55EBD0" stroke-width="7" stroke-miterlimit="10" d="M1187.6,202.4"/>
				</g>
			</g>
			<g id="XMLID_178_">
				<path id="XMLID_5_" fill="#55EBD0" d="M1256.1,204.2c-6.5-11.9-19-19.3-32.5-19.3c-13.6,0-26,7.4-32.5,19.3l-6.7-3.7
					c7.9-14.4,22.9-23.3,39.3-23.3c16.4,0,31.4,8.9,39.3,23.3L1256.1,204.2z"/>
			</g>
		</g>
	</g>
</g>
</svg>
