<svg width="1616" height="360" viewBox="0 0 1616 360" fill="none" xmlns="http://www.w3.org/2000/svg">
<path d="M102.4 140.2C46.8 217.9 0.999973 282.1 0.599973 282.7C-2.73325e-05 283.7 12.2 284 59.9 284H119.9L161.1 226.2C183.8 194.5 202.6 168.1 203 167.7C203.4 167.2 222.6 193.2 245.6 225.4L287.5 284H347.9H408.2L405.8 280.7C404.5 279 359.1 215.6 305.1 140C251 64.4 206 1.69999 205.1 0.699988C203.5 -0.900012 197.7 6.89998 102.4 140.2Z" fill="white"/>
<path d="M503.5 65.5C468.5 72 438.3 97.9 423.7 133.9C406.2 177.3 416 227.9 448.7 262C468.1 282.4 493.1 293 521.6 293C571.7 293 614.1 256.3 625.6 203C628.2 191.2 628.2 166.8 625.6 155C619.4 126.3 602.3 98.9 580.6 83C573.5 77.9 559.4 70.5 552.5 68.4C538.2 64.1 517.9 62.9 503.5 65.5ZM541.2 96.3C568.2 105.1 589.4 131.1 594.9 162.4C596.4 170.8 596.3 187.5 594.6 196.2C588.4 228.5 565.8 254.9 539 261.3C528.6 263.8 521.8 264.2 512.9 263C482.5 258.8 458.6 235.7 449.4 201.5C446.5 190.6 446.7 165.3 449.8 154.5C456.8 130 472.1 110.3 491.6 100.7C497.6 97.7 500.5 96.8 509.5 94.6C513.6 93.6 536.6 94.9 541.2 96.3Z" fill="white"/>
<path d="M947 178.4V292H1000.8C1056.3 292 1067.6 291.4 1077.7 287.9C1092.9 282.7 1107.6 270.4 1113.7 257.8C1127.5 229.7 1117.8 193.8 1092.2 178L1087.3 175L1094.1 168.1C1112.1 149.7 1116.1 121.4 1104.2 96.5C1097.6 82.8 1086.7 72.8 1072.9 67.8C1066.5 65.5 1066.1 65.5 1006.8 65.2L947 64.9V178.4ZM1058 95.6C1062.1 96.8 1064.7 98.5 1069 102.8C1078.2 112.1 1081.7 124.7 1078.6 137C1075.7 148.1 1068.6 157 1059.1 161.4C1054.7 163.4 1052.7 163.5 1016.8 163.8L979 164.1V129.1V94H1015.8C1046.6 94 1053.5 94.3 1058 95.6ZM1063 192.1C1077.3 195.3 1088.2 210.4 1088.2 227.2C1088.3 233.7 1087.8 235.8 1085.2 241.4C1081.4 249.4 1074.7 256.3 1067.2 259.8L1061.5 262.5L1020.3 262.8L979 263.1V227V191H1018.8C1042.1 191 1060.4 191.5 1063 192.1Z" fill="white"/>
<path d="M810.8 121C795.2 123.5 780.4 131.6 768.8 143.9C752.6 161.2 744.9 181.6 744.8 207C744.8 221 746.4 230.3 750.9 241.4C761.3 267.3 780.7 285.1 805.6 291.6C814.8 293.9 832.1 294 841 291.6C852.6 288.6 864.3 282.3 873.4 274.1L877.3 270.5L876.8 283.5C876.2 298.6 874.4 305.2 869 313.1C860.1 326 839.4 334.3 820.5 332.6C798.8 330.6 783.6 322.7 772.8 307.9C769.5 303.4 767.3 301.3 766.6 301.8C760.9 306 747 317.3 747 317.7C747 319.4 758.2 333 764 338.3C780.3 353.1 797.3 359 824 359.1C852.5 359.2 871.9 352.2 888 336C897.6 326.4 901.9 319.4 905.2 307.3C907.4 299.6 907.4 298.5 907.8 211.2L908.1 123H893.6H879V134.7V146.3L873.3 140.8C862.9 131 851.3 124.5 840 122.1C832.4 120.5 817.6 119.9 810.8 121ZM838 150.1C851.2 153.1 867.6 166.2 873.9 178.7L877 184.9V207.9C877 235.6 876.3 238.4 867 248.3C843.5 273.3 808.1 271.5 787.9 244.2C780.5 234.1 776.8 223.8 776.2 211.3C774.9 183.8 790 158.9 812.5 151.1C819.2 148.8 830.6 148.4 838 150.1Z" fill="white"/>
<path d="M1195.5 121C1180.7 123.2 1164.4 129.7 1149.5 139.4L1141 144.9L1145.1 152.2C1147.3 156.2 1150.1 161.4 1151.3 163.7C1152.4 166.1 1153.7 168 1154.2 168C1154.6 168 1158 166 1161.7 163.6C1177.4 153.5 1189.3 149.1 1203.1 148.3C1218.1 147.4 1227.3 150.3 1235.5 158.5C1242.7 165.7 1246 174.2 1246 186.1V192.7L1240.9 191.4C1226.3 187.6 1197.9 186.6 1184 189.3C1167.4 192.7 1155.3 198.8 1146 208.7C1138.8 216.3 1135.3 223.7 1133.8 234C1131.7 248.2 1136.2 263.9 1145.5 274.8C1150.5 280.5 1160.1 287.2 1168 290.3C1190.1 299 1223.6 293.4 1244.3 277.6C1246.9 275.6 1249.2 274 1249.5 274C1249.8 274 1250 275.1 1250 276.4C1250 279.4 1253.5 284.5 1258.2 288.3C1261.5 291 1262.9 291.4 1269.9 291.8C1274.3 292 1279.5 291.9 1281.4 291.6L1285 290.9V278V265H1281.6C1279.4 265 1278 264.4 1277.6 263.4C1277.3 262.5 1277 243 1277 219.9C1277 172.1 1276.5 167.8 1269.9 154.3C1261.2 136.3 1245.9 125.4 1224 121.4C1216 120 1203.6 119.8 1195.5 121ZM1224.6 213.1C1227.8 213.6 1234 215 1238.3 216.2L1246 218.2V229.1C1246 242.2 1244.7 245.6 1236.4 253.6C1224.1 265.6 1199.7 271.7 1184.4 266.6C1172 262.5 1163.4 251.3 1163.6 239.6C1163.8 225.5 1173.5 217 1194.5 212.6C1198.7 211.8 1218.9 212 1224.6 213.1Z" fill="white"/>
<path d="M1358.3 120.9C1343.1 123.4 1329.1 129.8 1320.7 138.5C1311.3 148 1307.4 159.2 1308.2 174.6C1308.6 182.5 1309.2 185 1311.9 190.4C1318.8 204.4 1330.9 210.9 1370 221.7C1399.6 229.8 1404.3 232.9 1404.2 244C1404 256.6 1394.3 264.5 1376.3 267C1356 269.7 1337.3 263.4 1318.8 247.6C1311.1 241 1311.1 241 1309.6 243.2C1304.3 251.7 1298 263.3 1298 264.4C1298 266.2 1307.3 274.7 1314.4 279.4C1327 287.8 1340.6 292.2 1359.2 294.1C1391.2 297.3 1419.6 285.7 1429.9 265.3C1432.7 259.8 1435 249.8 1435 243.3C1435 225.8 1427 213.4 1410.6 205.5C1403.9 202.3 1398.4 200.5 1365 190C1350.2 185.3 1343.5 182.4 1340.5 179C1338.9 177.2 1338.5 175.4 1338.5 169.1C1338.5 162.2 1338.8 161 1341.2 157.7C1348.5 148.2 1371.4 144.4 1389.3 149.7C1398 152.2 1404.1 155.9 1411.2 162.8C1415 166.4 1418.1 169.1 1418.3 168.9C1418.5 168.7 1422.1 163.6 1426.4 157.6L1434.2 146.7L1429.3 141.8C1420.2 132.4 1408 125.7 1394.5 122.5C1386.5 120.6 1366 119.7 1358.3 120.9Z" fill="white"/>
<path d="M1520.1 121C1488.4 125.4 1463.1 146.8 1452.4 178.2C1448.9 188.6 1447.6 198.7 1448.3 211.8C1450.2 250.9 1474.9 282.4 1511.5 292.1C1517.8 293.7 1522.4 294.2 1533 294.2C1549.3 294.2 1557.9 292.3 1572 285.4C1580 281.4 1582.9 279.3 1590.6 271.6C1597.9 264.3 1600.5 260.9 1603.5 254.7C1605.5 250.4 1607 246.7 1606.9 246.6C1606.7 246.4 1600.9 244.8 1594 243C1587.1 241.2 1581 239.5 1580.3 239.3C1579.7 239 1578 241.1 1576.6 243.9C1565.5 265.6 1536 274.6 1512.1 263.4C1501.6 258.5 1491.7 248.4 1486.2 237C1483.9 232.3 1481.8 226.6 1481.4 224.2L1480.7 220H1547.4C1609.9 220 1614.1 219.9 1614.8 218.2C1616 215.3 1615.2 194.9 1613.7 187.4C1607 155.8 1582.2 129.3 1552.8 122.6C1544.6 120.7 1528.2 119.9 1520.1 121ZM1552.4 150.9C1561.5 155 1568.5 160.4 1573.8 167.3C1578.6 173.4 1583.5 184.3 1584.6 190.8L1585.3 195H1532.6C1488.3 195 1480 194.8 1480 193.6C1480 192.8 1480.9 189.1 1482.1 185.4C1486.4 171.3 1496.2 159.3 1508.7 152.7C1518.2 147.7 1521.6 147 1534.5 147.4C1544.4 147.6 1546.2 148 1552.4 150.9Z" fill="white"/>
<path d="M724 122.7C710.7 124.7 699.5 130.7 688.1 142L682 148V135.5V123H667H652V207.5V292H667.5H683V240.9V189.7L686.6 182.2C691.3 172.6 700.8 162.8 710.1 158.3C716.9 154.9 726.5 152.4 736.3 151.4L742 150.9V137C742 123.6 741.9 123.2 739.8 122.6C737.4 122 728.2 122 724 122.7Z" fill="white"/>
</svg>
