<?xml version="1.0" standalone="no"?>
<!DOCTYPE svg PUBLIC "-//W3C//DTD SVG 20010904//EN"
 "http://www.w3.org/TR/2001/REC-SVG-20010904/DTD/svg10.dtd">
<svg version="1.0" xmlns="http://www.w3.org/2000/svg"
 width="1640.000000pt" height="380.000000pt" viewBox="0 0 1640.000000 380.000000"
 preserveAspectRatio="xMidYMid meet">
<metadata>
Created by potrace 1.16, written by Peter Selinger 2001-2019
</metadata>
<g transform="translate(0.000000,380.000000) scale(0.100000,-0.100000)"
fill="#4950F6" stroke="none">
<path d="M1144 2318 c-556 -777 -1014 -1419 -1018 -1425 -6 -10 116 -13 593
-13 l600 0 412 578 c227 317 415 581 419 585 4 5 196 -255 426 -577 l419 -586
604 0 603 0 -24 33 c-13 17 -467 651 -1007 1407 -541 756 -991 1383 -1000
1393 -16 16 -74 -62 -1027 -1395z"/>
<path d="M5155 3065 c-350 -65 -652 -324 -798 -684 -175 -434 -77 -940 250
-1281 194 -204 444 -310 729 -310 501 0 925 367 1040 900 26 118 26 362 0 480
-62 287 -233 561 -450 720 -71 51 -212 125 -281 146 -143 43 -346 55 -490 29z
m377 -308 c270 -88 482 -348 537 -661 15 -84 14 -251 -3 -338 -62 -323 -288
-587 -556 -651 -104 -25 -172 -29 -261 -17 -304 42 -543 273 -635 615 -29 109
-27 362 4 470 70 245 223 442 418 538 60 30 89 39 179 61 41 10 271 -3 317
-17z"/>
<path d="M9590 1936 l0 -1136 538 0 c555 0 668 6 769 41 152 52 299 175 360
301 138 281 41 640 -215 798 l-49 30 68 69 c180 184 220 467 101 716 -66 137
-175 237 -313 287 -64 23 -68 23 -661 26 l-598 3 0 -1135z m1110 828 c41 -12
67 -29 110 -72 92 -93 127 -219 96 -342 -29 -111 -100 -200 -195 -244 -44 -20
-64 -21 -423 -24 l-378 -3 0 350 0 351 368 0 c308 0 377 -3 422 -16z m50 -965
c143 -32 252 -183 252 -351 1 -65 -4 -86 -30 -142 -38 -80 -105 -149 -180
-184 l-57 -27 -412 -3 -413 -3 0 361 0 360 398 0 c233 0 416 -5 442 -11z"/>
<path d="M8228 2510 c-156 -25 -304 -106 -420 -229 -162 -173 -239 -377 -240
-631 0 -140 16 -233 61 -344 104 -259 298 -437 547 -502 92 -23 265 -24 354 0
116 30 233 93 324 175 l39 36 -5 -130 c-6 -151 -24 -217 -78 -296 -89 -129
-296 -212 -485 -195 -217 20 -369 99 -477 247 -33 45 -55 66 -62 61 -57 -42
-196 -155 -196 -159 0 -17 112 -153 170 -206 163 -148 333 -207 600 -208 285
-1 479 69 640 231 96 96 139 166 172 287 22 77 22 88 26 961 l3 882 -145 0
-146 0 0 -117 0 -116 -57 55 c-104 98 -220 163 -333 187 -76 16 -224 22 -292
11z m272 -291 c132 -30 296 -161 359 -286 l31 -62 0 -230 c0 -277 -7 -305
-100 -404 -235 -250 -589 -232 -791 41 -74 101 -111 204 -117 329 -13 275 138
524 363 602 67 23 181 27 255 10z"/>
<path d="M12075 2510 c-148 -22 -311 -87 -460 -184 l-85 -55 41 -73 c22 -40
50 -92 62 -115 11 -24 24 -43 29 -43 4 0 38 20 75 44 157 101 276 145 414 153
150 9 242 -20 324 -102 72 -72 105 -157 105 -276 l0 -66 -51 13 c-146 38 -430
48 -569 21 -166 -34 -287 -95 -380 -194 -72 -76 -107 -150 -122 -253 -21 -142
24 -299 117 -408 50 -57 146 -124 225 -155 221 -87 556 -31 763 127 26 20 49
36 52 36 3 0 5 -11 5 -24 0 -30 35 -81 82 -119 33 -27 47 -31 117 -35 44 -2
96 -1 115 2 l36 7 0 129 0 130 -34 0 c-22 0 -36 6 -40 16 -3 9 -6 204 -6 435
0 478 -5 521 -71 656 -87 180 -240 289 -459 329 -80 14 -204 16 -285 4z m291
-921 c32 -5 94 -19 137 -31 l77 -20 0 -109 c0 -131 -13 -165 -96 -245 -123
-120 -367 -181 -520 -130 -124 41 -210 153 -208 270 2 141 99 226 309 270 42
8 244 6 301 -5z"/>
<path d="M13703 2511 c-152 -25 -292 -89 -376 -176 -94 -95 -133 -207 -125
-361 4 -79 10 -104 37 -158 69 -140 190 -205 581 -313 296 -81 343 -112 342
-223 -2 -126 -99 -205 -279 -230 -203 -27 -390 36 -575 194 -77 66 -77 66 -92
44 -53 -85 -116 -201 -116 -212 0 -18 93 -103 164 -150 126 -84 262 -128 448
-147 320 -32 604 84 707 288 28 55 51 155 51 220 0 175 -80 299 -244 378 -67
32 -122 50 -456 155 -148 47 -215 76 -245 110 -16 18 -20 36 -20 99 0 69 3 81
27 114 73 95 302 133 481 80 87 -25 148 -62 219 -131 38 -36 69 -63 71 -61 2
2 38 53 81 113 l78 109 -49 49 c-91 94 -213 161 -348 193 -80 19 -285 28 -362
16z"/>
<path d="M15321 2510 c-317 -44 -570 -258 -677 -572 -35 -104 -48 -205 -41
-336 19 -391 266 -706 632 -803 63 -16 109 -21 215 -21 163 0 249 19 390 88
80 40 109 61 186 138 73 73 99 107 129 169 20 43 35 80 34 81 -2 2 -60 18
-129 36 -69 18 -130 35 -137 37 -6 3 -23 -18 -37 -46 -111 -217 -406 -307
-645 -195 -105 49 -204 150 -259 264 -23 47 -44 104 -48 128 l-7 42 667 0
c625 0 667 1 674 18 12 29 4 233 -11 308 -67 316 -315 581 -609 648 -82 19
-246 27 -327 16z m323 -299 c91 -41 161 -95 214 -164 48 -61 97 -170 108 -235
l7 -42 -527 0 c-443 0 -526 2 -526 14 0 8 9 45 21 82 43 141 141 261 266 327
95 50 129 57 258 53 99 -2 117 -6 179 -35z"/>
<path d="M7360 2493 c-133 -20 -245 -80 -359 -193 l-61 -60 0 125 0 125 -150
0 -150 0 0 -845 0 -845 155 0 155 0 0 511 0 512 36 75 c47 96 142 194 235 239
68 34 164 59 262 69 l57 5 0 139 c0 134 -1 138 -22 144 -24 6 -116 6 -158 -1z"/>
</g>
</svg>
