<svg width="240" height="260" viewBox="0 0 240 260" fill="none" xmlns="http://www.w3.org/2000/svg">
<g filter="url(#filter0_d)">
<rect x="2" y="21.9023" width="236" height="234.99" rx="20" fill="#FF7A41"/>
</g>
<path fill-rule="evenodd" clip-rule="evenodd" d="M221 28.7559C216.032 28.7559 212 32.7037 212 37.568C212 42.4322 216.032 46.3801 221 46.3801C225.968 46.3801 230 42.4322 230 37.568C230 32.7037 225.968 28.7559 221 28.7559ZM220.1 33.1619V34.9243H221.9V33.1619H220.1ZM220.1 36.6868V41.974H221.9V36.6868H220.1ZM213.8 37.568C213.8 41.4541 217.031 44.6177 221 44.6177C224.969 44.6177 228.2 41.4541 228.2 37.568C228.2 33.6818 224.969 30.5183 221 30.5183C217.031 30.5183 213.8 33.6818 213.8 37.568Z" fill="white"/>
<path d="M37 10.3613C37 4.83848 41.4772 0.361328 47 0.361328H193C198.523 0.361328 203 4.83848 203 10.3613V21.902H37V10.3613Z" fill="#F12587"/>
<path d="M102.906 16.5123C101.85 16.5123 100.927 16.2723 100.138 15.7923C99.3485 15.3123 98.7352 14.6456 98.2979 13.7923C97.8605 12.9283 97.6419 11.9256 97.6419 10.7843C97.6419 9.63231 97.8659 8.61898 98.3139 7.74431C98.7725 6.85898 99.4179 6.17098 100.25 5.68031C101.093 5.17898 102.09 4.92831 103.242 4.92831C104.554 4.92831 105.642 5.24298 106.506 5.87231C107.37 6.50165 107.93 7.37098 108.186 8.48031H105.898C105.727 7.95765 105.418 7.55231 104.97 7.26431C104.522 6.96565 103.946 6.81631 103.242 6.81631C102.122 6.81631 101.258 7.17365 100.65 7.88831C100.042 8.59231 99.7379 9.56298 99.7379 10.8003C99.7379 12.0376 100.037 12.9976 100.634 13.6803C101.242 14.3523 102.063 14.6883 103.098 14.6883C104.111 14.6883 104.874 14.4163 105.386 13.8723C105.909 13.3176 106.223 12.5923 106.33 11.6963H103.498V10.1603H108.394V16.3203H106.506L106.346 14.8483C105.983 15.3816 105.53 15.7923 104.986 16.0803C104.442 16.3683 103.749 16.5123 102.906 16.5123ZM113.073 16.5123C112.39 16.5123 111.83 16.4056 111.393 16.1923C110.956 15.9683 110.63 15.675 110.417 15.3123C110.204 14.9496 110.097 14.5496 110.097 14.1123C110.097 13.3763 110.385 12.779 110.961 12.3203C111.537 11.8616 112.401 11.6323 113.553 11.6323H115.569V11.4403C115.569 10.8963 115.414 10.4963 115.105 10.2403C114.796 9.98431 114.412 9.85631 113.953 9.85631C113.537 9.85631 113.174 9.95765 112.865 10.1603C112.556 10.3523 112.364 10.6403 112.289 11.0243H110.289C110.342 10.4483 110.534 9.94698 110.865 9.52031C111.206 9.09365 111.644 8.76831 112.177 8.54431C112.71 8.30965 113.308 8.19231 113.969 8.19231C115.1 8.19231 115.99 8.47498 116.641 9.04031C117.292 9.60565 117.617 10.4056 117.617 11.4403V16.3203H115.873L115.681 15.0403C115.446 15.467 115.116 15.819 114.689 16.0963C114.273 16.3736 113.734 16.5123 113.073 16.5123ZM113.537 14.9123C114.124 14.9123 114.577 14.7203 114.897 14.3363C115.228 13.9523 115.436 13.4776 115.521 12.9123H113.777C113.233 12.9123 112.844 13.0136 112.609 13.2163C112.374 13.4083 112.257 13.6483 112.257 13.9363C112.257 14.2456 112.374 14.4856 112.609 14.6563C112.844 14.827 113.153 14.9123 113.537 14.9123ZM119.571 16.3203V8.38431H121.379L121.555 9.45631C121.811 9.07231 122.147 8.76831 122.563 8.54431C122.99 8.30965 123.481 8.19231 124.035 8.19231C125.262 8.19231 126.131 8.66698 126.643 9.61631C126.931 9.17898 127.315 8.83231 127.795 8.57631C128.286 8.32031 128.819 8.19231 129.395 8.19231C130.43 8.19231 131.225 8.50165 131.779 9.12031C132.334 9.73898 132.611 10.6456 132.611 11.8403V16.3203H130.563V12.0323C130.563 11.3496 130.43 10.827 130.163 10.4643C129.907 10.1016 129.507 9.92031 128.963 9.92031C128.409 9.92031 127.961 10.123 127.619 10.5283C127.289 10.9336 127.123 11.499 127.123 12.2243V16.3203H125.075V12.0323C125.075 11.3496 124.942 10.827 124.675 10.4643C124.409 10.1016 123.998 9.92031 123.443 9.92031C122.899 9.92031 122.457 10.123 122.115 10.5283C121.785 10.9336 121.619 11.499 121.619 12.2243V16.3203H119.571ZM138.412 16.5123C137.612 16.5123 136.902 16.3416 136.284 16.0003C135.665 15.659 135.18 15.179 134.828 14.5603C134.476 13.9416 134.3 13.227 134.3 12.4163C134.3 11.595 134.47 10.8643 134.812 10.2243C135.164 9.58431 135.644 9.08831 136.252 8.73631C136.87 8.37365 137.596 8.19231 138.428 8.19231C139.206 8.19231 139.894 8.36298 140.492 8.70431C141.089 9.04565 141.553 9.51498 141.884 10.1123C142.225 10.699 142.396 11.355 142.396 12.0803C142.396 12.1976 142.39 12.3203 142.38 12.4483C142.38 12.5763 142.374 12.7096 142.364 12.8483H136.332C136.374 13.467 136.588 13.9523 136.972 14.3043C137.366 14.6563 137.841 14.8323 138.396 14.8323C138.812 14.8323 139.158 14.7416 139.436 14.5603C139.724 14.3683 139.937 14.123 140.076 13.8243H142.156C142.006 14.3256 141.756 14.7843 141.404 15.2003C141.062 15.6056 140.636 15.9256 140.124 16.1603C139.622 16.395 139.052 16.5123 138.412 16.5123ZM138.428 9.85631C137.926 9.85631 137.484 10.0003 137.1 10.2883C136.716 10.5656 136.47 10.9923 136.364 11.5683H140.316C140.284 11.0456 140.092 10.6296 139.74 10.3203C139.388 10.011 138.95 9.85631 138.428 9.85631Z" fill="white"/>
<path d="M71.7657 59.8564C70.0857 59.8564 68.6137 59.4884 67.3497 58.7524C66.1017 58.0164 65.1177 57.0004 64.3977 55.7044C63.6937 54.3924 63.3417 52.8804 63.3417 51.1684C63.3417 49.4564 63.6937 47.9524 64.3977 46.6564C65.1177 45.3444 66.1017 44.3204 67.3497 43.5844C68.6137 42.8484 70.0857 42.4804 71.7657 42.4804C73.4297 42.4804 74.8937 42.8484 76.1577 43.5844C77.4217 44.3204 78.4057 45.3444 79.1097 46.6564C79.8137 47.9524 80.1657 49.4564 80.1657 51.1684C80.1657 52.8804 79.8137 54.3924 79.1097 55.7044C78.4057 57.0004 77.4217 58.0164 76.1577 58.7524C74.8937 59.4884 73.4297 59.8564 71.7657 59.8564ZM71.7657 57.0964C73.3657 57.0964 74.6377 56.5684 75.5817 55.5124C76.5417 54.4564 77.0217 53.0084 77.0217 51.1684C77.0217 49.3284 76.5417 47.8804 75.5817 46.8244C74.6377 45.7684 73.3657 45.2404 71.7657 45.2404C70.1657 45.2404 68.8857 45.7684 67.9257 46.8244C66.9657 47.8804 66.4857 49.3284 66.4857 51.1684C66.4857 53.0084 66.9657 54.4564 67.9257 55.5124C68.8857 56.5684 70.1657 57.0964 71.7657 57.0964ZM82.8061 59.5684V47.6644H85.5181L85.7581 49.6804C86.1261 48.9764 86.6541 48.4164 87.3421 48.0004C88.0461 47.5844 88.8701 47.3764 89.8141 47.3764C91.2861 47.3764 92.4301 47.8404 93.2461 48.7684C94.0621 49.6964 94.4701 51.0564 94.4701 52.8484V59.5684H91.3981V53.1364C91.3981 52.1124 91.1901 51.3284 90.7741 50.7844C90.3581 50.2404 89.7101 49.9684 88.8301 49.9684C87.9661 49.9684 87.2541 50.2724 86.6941 50.8804C86.1501 51.4884 85.8781 52.3364 85.8781 53.4244V59.5684H82.8061ZM103.192 59.8564C101.992 59.8564 100.928 59.6004 99.9997 59.0884C99.0717 58.5764 98.3437 57.8564 97.8157 56.9284C97.2877 56.0004 97.0237 54.9284 97.0237 53.7124C97.0237 52.4804 97.2797 51.3844 97.7917 50.4244C98.3197 49.4644 99.0397 48.7204 99.9517 48.1924C100.88 47.6484 101.968 47.3764 103.216 47.3764C104.384 47.3764 105.416 47.6324 106.312 48.1444C107.208 48.6564 107.904 49.3604 108.4 50.2564C108.912 51.1364 109.168 52.1204 109.168 53.2084C109.168 53.3844 109.16 53.5684 109.144 53.7604C109.144 53.9524 109.136 54.1524 109.12 54.3604H100.072C100.136 55.2884 100.456 56.0164 101.032 56.5444C101.624 57.0724 102.336 57.3364 103.168 57.3364C103.792 57.3364 104.312 57.2004 104.728 56.9284C105.16 56.6404 105.48 56.2724 105.688 55.8244H108.808C108.584 56.5764 108.208 57.2644 107.68 57.8884C107.168 58.4964 106.528 58.9764 105.76 59.3284C105.008 59.6804 104.152 59.8564 103.192 59.8564ZM103.216 49.8724C102.464 49.8724 101.8 50.0884 101.224 50.5204C100.648 50.9364 100.28 51.5764 100.12 52.4404H106.048C106 51.6564 105.712 51.0324 105.184 50.5684C104.656 50.1044 104 49.8724 103.216 49.8724ZM121.454 59.5684V45.2404H116.558V42.7684H129.446V45.2404H124.526V59.5684H121.454ZM130.478 59.5684V47.6644H133.214L133.502 49.8964C133.934 49.1284 134.518 48.5204 135.254 48.0724C136.006 47.6084 136.886 47.3764 137.894 47.3764V50.6164H137.03C136.358 50.6164 135.758 50.7204 135.23 50.9284C134.702 51.1364 134.286 51.4964 133.982 52.0084C133.694 52.5204 133.55 53.2324 133.55 54.1444V59.5684H130.478ZM144.458 59.8564C142.97 59.8564 141.818 59.3924 141.002 58.4644C140.202 57.5364 139.802 56.1764 139.802 54.3844V47.6644H142.85V54.0964C142.85 55.1204 143.058 55.9044 143.474 56.4484C143.89 56.9924 144.546 57.2644 145.442 57.2644C146.29 57.2644 146.986 56.9604 147.53 56.3524C148.09 55.7444 148.37 54.8964 148.37 53.8084V47.6644H151.442V59.5684H148.73L148.49 57.5524C148.122 58.2564 147.586 58.8164 146.882 59.2324C146.194 59.6484 145.386 59.8564 144.458 59.8564ZM159.899 59.5684C158.651 59.5684 157.651 59.2644 156.899 58.6564C156.147 58.0484 155.771 56.9684 155.771 55.4164V50.2324H153.731V47.6644H155.771L156.131 44.4724H158.843V47.6644H162.059V50.2324H158.843V55.4404C158.843 56.0164 158.963 56.4164 159.203 56.6404C159.459 56.8484 159.891 56.9524 160.499 56.9524H161.987V59.5684H159.899ZM164.697 59.5684V42.2884H167.769V49.4884C168.169 48.8324 168.705 48.3204 169.377 47.9524C170.065 47.5684 170.849 47.3764 171.729 47.3764C173.201 47.3764 174.337 47.8404 175.137 48.7684C175.953 49.6964 176.361 51.0564 176.361 52.8484V59.5684H173.313V53.1364C173.313 52.1124 173.105 51.3284 172.689 50.7844C172.289 50.2404 171.649 49.9684 170.769 49.9684C169.905 49.9684 169.185 50.2724 168.609 50.8804C168.049 51.4884 167.769 52.3364 167.769 53.4244V59.5684H164.697ZM85.6993 90.8564C84.0193 90.8564 82.5473 90.4884 81.2833 89.7524C80.0353 89.0164 79.0513 88.0004 78.3313 86.7044C77.6273 85.3924 77.2753 83.8804 77.2753 82.1684C77.2753 80.4564 77.6273 78.9524 78.3313 77.6564C79.0513 76.3444 80.0353 75.3204 81.2833 74.5844C82.5473 73.8484 84.0193 73.4804 85.6993 73.4804C87.3633 73.4804 88.8273 73.8484 90.0913 74.5844C91.3553 75.3204 92.3393 76.3444 93.0433 77.6564C93.7473 78.9524 94.0993 80.4564 94.0993 82.1684C94.0993 83.8804 93.7473 85.3924 93.0433 86.7044C92.3393 88.0004 91.3553 89.0164 90.0913 89.7524C88.8273 90.4884 87.3633 90.8564 85.6993 90.8564ZM85.6993 88.0964C87.2993 88.0964 88.5713 87.5684 89.5153 86.5124C90.4753 85.4564 90.9553 84.0084 90.9553 82.1684C90.9553 80.3284 90.4753 78.8804 89.5153 77.8244C88.5713 76.7684 87.2993 76.2404 85.6993 76.2404C84.0993 76.2404 82.8193 76.7684 81.8593 77.8244C80.8993 78.8804 80.4193 80.3284 80.4193 82.1684C80.4193 84.0084 80.8993 85.4564 81.8593 86.5124C82.8193 87.5684 84.0993 88.0964 85.6993 88.0964ZM96.7397 90.5684V78.6644H99.4517L99.6917 80.6804C100.06 79.9764 100.588 79.4164 101.276 79.0004C101.98 78.5844 102.804 78.3764 103.748 78.3764C105.22 78.3764 106.364 78.8404 107.18 79.7684C107.996 80.6964 108.404 82.0564 108.404 83.8484V90.5684H105.332V84.1364C105.332 83.1124 105.124 82.3284 104.708 81.7844C104.292 81.2404 103.644 80.9684 102.764 80.9684C101.9 80.9684 101.188 81.2724 100.628 81.8804C100.084 82.4884 99.8117 83.3364 99.8117 84.4244V90.5684H96.7397ZM117.125 90.8564C115.925 90.8564 114.861 90.6004 113.933 90.0884C113.005 89.5764 112.277 88.8564 111.749 87.9284C111.221 87.0004 110.957 85.9284 110.957 84.7124C110.957 83.4804 111.213 82.3844 111.725 81.4244C112.253 80.4644 112.973 79.7204 113.885 79.1924C114.813 78.6484 115.901 78.3764 117.149 78.3764C118.317 78.3764 119.349 78.6324 120.245 79.1444C121.141 79.6564 121.837 80.3604 122.333 81.2564C122.845 82.1364 123.101 83.1204 123.101 84.2084C123.101 84.3844 123.093 84.5684 123.077 84.7604C123.077 84.9524 123.069 85.1524 123.053 85.3604H114.005C114.069 86.2884 114.389 87.0164 114.965 87.5444C115.557 88.0724 116.269 88.3364 117.101 88.3364C117.725 88.3364 118.245 88.2004 118.661 87.9284C119.093 87.6404 119.413 87.2724 119.621 86.8244H122.741C122.517 87.5764 122.141 88.2644 121.613 88.8884C121.101 89.4964 120.461 89.9764 119.693 90.3284C118.941 90.6804 118.085 90.8564 117.125 90.8564ZM117.149 80.8724C116.397 80.8724 115.733 81.0884 115.157 81.5204C114.581 81.9364 114.213 82.5764 114.053 83.4404H119.981C119.933 82.6564 119.645 82.0324 119.117 81.5684C118.589 81.1044 117.933 80.8724 117.149 80.8724ZM131.476 90.5684V73.7684H134.548V88.1684H141.988V90.5684H131.476ZM146.279 76.8164C145.719 76.8164 145.255 76.6484 144.887 76.3124C144.535 75.9764 144.359 75.5524 144.359 75.0404C144.359 74.5284 144.535 74.1124 144.887 73.7924C145.255 73.4564 145.719 73.2884 146.279 73.2884C146.839 73.2884 147.295 73.4564 147.647 73.7924C148.015 74.1124 148.199 74.5284 148.199 75.0404C148.199 75.5524 148.015 75.9764 147.647 76.3124C147.295 76.6484 146.839 76.8164 146.279 76.8164ZM144.743 90.5684V78.6644H147.815V90.5684H144.743ZM156.805 90.8564C155.605 90.8564 154.541 90.6004 153.613 90.0884C152.685 89.5764 151.957 88.8564 151.429 87.9284C150.901 87.0004 150.637 85.9284 150.637 84.7124C150.637 83.4804 150.893 82.3844 151.405 81.4244C151.933 80.4644 152.653 79.7204 153.565 79.1924C154.493 78.6484 155.581 78.3764 156.829 78.3764C157.997 78.3764 159.029 78.6324 159.925 79.1444C160.821 79.6564 161.517 80.3604 162.013 81.2564C162.525 82.1364 162.781 83.1204 162.781 84.2084C162.781 84.3844 162.773 84.5684 162.757 84.7604C162.757 84.9524 162.749 85.1524 162.733 85.3604H153.685C153.749 86.2884 154.069 87.0164 154.645 87.5444C155.237 88.0724 155.949 88.3364 156.781 88.3364C157.405 88.3364 157.925 88.2004 158.341 87.9284C158.773 87.6404 159.093 87.2724 159.301 86.8244H162.421C162.197 87.5764 161.821 88.2644 161.293 88.8884C160.781 89.4964 160.141 89.9764 159.373 90.3284C158.621 90.6804 157.765 90.8564 156.805 90.8564ZM156.829 80.8724C156.077 80.8724 155.413 81.0884 154.837 81.5204C154.261 81.9364 153.893 82.5764 153.733 83.4404H159.661C159.613 82.6564 159.325 82.0324 158.797 81.5684C158.269 81.1044 157.613 80.8724 156.829 80.8724Z" fill="white"/>
<path d="M156.119 118.295C153.039 113.155 146.945 112.916 146.945 112.916C146.945 112.916 141.008 112.166 137.199 119.994C133.648 127.29 128.749 134.334 136.41 136.042L137.794 131.788L138.651 136.359C139.742 136.436 140.836 136.455 141.929 136.414C150.133 136.153 157.947 136.491 157.695 133.583C157.361 129.718 159.082 123.24 156.119 118.295Z" fill="#F7DFA2"/>
<path d="M126.912 145.736L124.218 152.478L110.747 164.788C110.747 164.788 102.665 170.65 106.257 172.408C109.849 174.167 113.142 165.96 113.142 165.96L127.511 157.46L130.504 147.788L126.912 145.736Z" fill="#FFB8B8"/>
<path d="M131.405 220.479L134.099 227.22H137.991L134.698 219.307L131.405 220.479Z" fill="#FFB8B8"/>
<path d="M143.078 223.411L145.772 230.152H149.664L146.371 222.238L143.078 223.411Z" fill="#FFB8B8"/>
<path d="M142.779 224.58L147.868 223.408L141.282 197.322L143.469 177.251L143.527 177.245C143.527 177.245 147.269 163.03 144.275 159.219C141.282 155.409 126.315 156.875 126.315 156.875C126.315 156.875 120.627 162.444 120.926 175.047C121.226 187.65 120.926 198.494 123.022 203.477C125.117 208.46 131.104 221.649 131.104 221.649L135.894 221.063L130.805 199.374L129.991 180.52C130.639 188.075 131.942 202.402 132.601 203.477C133.499 204.943 142.779 224.58 142.779 224.58Z" fill="#2F2E41"/>
<path d="M158.046 151.893L160.142 159.22L169.422 175.633C169.422 175.633 177.504 182.668 174.211 183.547C170.918 184.426 165.829 177.099 165.829 177.099L155.352 162.737L152.658 152.186L158.046 151.893Z" fill="#FFB8B8"/>
<path d="M147.268 131.083C151.401 131.083 154.751 127.802 154.751 123.755C154.751 119.708 151.401 116.428 147.268 116.428C143.135 116.428 139.784 119.708 139.784 123.755C139.784 127.802 143.135 131.083 147.268 131.083Z" fill="#FFB8B8"/>
<path d="M143.377 127.564L141.581 133.133L138.588 139.581L149.664 135.185C149.664 135.185 149.065 130.495 149.664 129.323L143.377 127.564Z" fill="#FFB8B8"/>
<path d="M156.251 139.288L149.366 133.719L141.583 136.943L141.888 132.188L133.584 134.784L132.303 135.185L130.507 144.271C130.507 144.271 129.31 145.15 128.113 150.133C127.421 153.061 126.418 155.909 125.119 158.632C125.119 158.632 137.991 153.65 144.277 160.391C144.277 160.391 145.175 159.805 144.876 158.925C144.577 158.046 147.57 153.65 147.57 153.65C147.57 153.65 147.57 154.529 148.767 152.77C149.965 151.012 150.863 150.719 150.863 150.719L156.251 139.288Z" fill="#6C63FF"/>
<path d="M134.1 136.065L132.792 135.033C132.792 135.033 131.705 134.599 130.807 136.065C129.909 137.53 125.419 146.616 125.419 146.616L130.807 149.254L134.1 136.065Z" fill="#6C63FF"/>
<path d="M152.057 138.996L156.248 139.289C156.248 139.289 158.643 140.462 158.643 142.22C158.643 143.979 159.242 153.358 159.242 153.358L152.656 155.41L149.962 147.203L152.057 138.996Z" fill="#6C63FF"/>
<path d="M133.232 226.195L128.144 228.247C128.144 228.247 122.157 228.54 123.055 231.471C123.953 234.402 132.933 232.35 132.933 232.35C132.933 232.35 141.015 232.644 141.015 230.592C141.015 228.54 139.818 226.195 138.621 226.195H133.232Z" fill="#2F2E41"/>
<path d="M144.61 228.832L139.521 230.884C139.521 230.884 133.535 231.177 134.433 234.108C135.331 237.039 144.311 234.987 144.311 234.987C144.311 234.987 152.393 235.28 152.393 233.228C152.393 231.177 151.196 228.832 149.999 228.832H144.61Z" fill="#2F2E41"/>
<path d="M154.763 117.8L148.743 114.686L140.43 115.96L138.71 123.462L142.992 123.3L144.188 120.543V123.254L146.163 123.179L147.31 118.791L148.027 123.462L155.05 123.32L154.763 117.8Z" fill="#F7DFA2"/>
<path d="M111.945 173.501C111.286 173.8 110.531 173.831 109.848 173.586C109.166 173.341 108.61 172.841 108.304 172.195L92.5319 138.91C92.2259 138.264 92.1945 137.526 92.4446 136.857C92.6947 136.189 93.2057 135.645 93.8654 135.345C94.525 135.045 95.2792 135.015 95.9621 135.259C96.6449 135.504 97.2005 136.004 97.5067 136.65L113.279 169.935C113.585 170.581 113.616 171.32 113.366 171.988C113.116 172.657 112.605 173.201 111.945 173.501Z" fill="#3F3D56"/>
<path d="M96.1691 140.214C92.2334 142.002 87.8446 142.607 83.5577 141.953C79.2708 141.299 75.2784 139.414 72.0853 136.538C68.8921 133.662 66.6417 129.924 65.6186 125.796C64.5955 121.667 64.8457 117.335 66.3375 113.346C67.8293 109.356 70.4957 105.89 73.9995 103.385C77.5033 100.879 81.6873 99.4477 86.0222 99.2706C90.357 99.0935 94.6482 100.179 98.3531 102.39C102.058 104.601 105.01 107.837 106.836 111.691C109.278 116.859 109.526 122.765 107.526 128.112C105.527 133.46 101.442 137.812 96.1691 140.214ZM80.0124 106.118C77.0606 107.459 74.5812 109.627 72.8877 112.347C71.1943 115.068 70.3628 118.219 70.4985 121.402C70.6341 124.586 71.7308 127.658 73.6499 130.231C75.5689 132.804 78.2241 134.762 81.2797 135.858C84.3353 136.953 87.6541 137.137 90.8163 136.385C93.9785 135.634 96.8422 133.982 99.0452 131.637C101.248 129.292 102.692 126.36 103.193 123.212C103.694 120.064 103.231 116.841 101.861 113.951C100.021 110.079 96.687 107.079 92.591 105.611C88.495 104.142 83.9713 104.325 80.0124 106.118Z" fill="#3F3D56"/>
<defs>
<filter id="filter0_d" x="0" y="20.9023" width="240" height="238.99" filterUnits="userSpaceOnUse" color-interpolation-filters="sRGB">
<feFlood flood-opacity="0" result="BackgroundImageFix"/>
<feColorMatrix in="SourceAlpha" type="matrix" values="0 0 0 0 0 0 0 0 0 0 0 0 0 0 0 0 0 0 127 0"/>
<feOffset dy="1"/>
<feGaussianBlur stdDeviation="1"/>
<feColorMatrix type="matrix" values="0 0 0 0 0.0588235 0 0 0 0 0.0588235 0 0 0 0 0.0588235 0 0 0 0.1 0"/>
<feBlend mode="normal" in2="BackgroundImageFix" result="effect1_dropShadow"/>
<feBlend mode="normal" in="SourceGraphic" in2="effect1_dropShadow" result="shape"/>
</filter>
</defs>
</svg>
