<svg width="214" height="237" viewBox="0 0 214 237" fill="none" xmlns="http://www.w3.org/2000/svg">
<g filter="url(#filter0_d)">
<rect x="2" y="20.2988" width="210" height="213.559" rx="20" fill="#5B59E3"/>
</g>
<path d="M33.1445 10.7227C33.1445 5.19981 37.6217 0.722656 43.1445 0.722656H170.856C176.379 0.722656 180.856 5.19981 180.856 10.7227V20.2989H33.1445V10.7227Z" fill="#F12587"/>
<path d="M92.044 15.67C91.12 15.67 90.3127 15.46 89.622 15.04C88.9313 14.62 88.3947 14.0366 88.012 13.29C87.6293 12.534 87.438 11.6566 87.438 10.658C87.438 9.64995 87.634 8.76329 88.026 7.99795C88.4273 7.22329 88.992 6.62129 89.72 6.19195C90.4573 5.75329 91.33 5.53395 92.338 5.53395C93.486 5.53395 94.438 5.80929 95.194 6.35995C95.95 6.91062 96.44 7.67129 96.664 8.64195H94.662C94.5127 8.18462 94.242 7.82995 93.85 7.57795C93.458 7.31662 92.954 7.18595 92.338 7.18595C91.358 7.18595 90.602 7.49862 90.07 8.12395C89.538 8.73995 89.272 9.58929 89.272 10.672C89.272 11.7546 89.5333 12.5946 90.056 13.192C90.588 13.78 91.3067 14.074 92.212 14.074C93.0987 14.074 93.766 13.836 94.214 13.36C94.6713 12.8746 94.9467 12.24 95.04 11.456H92.562V10.112H96.846V15.502H95.194L95.054 14.214C94.7367 14.6806 94.34 15.04 93.864 15.292C93.388 15.544 92.7813 15.67 92.044 15.67ZM100.94 15.67C100.343 15.67 99.8528 15.5766 99.4701 15.39C99.0875 15.194 98.8028 14.9373 98.6161 14.62C98.4295 14.3026 98.3361 13.9526 98.3361 13.57C98.3361 12.926 98.5881 12.4033 99.0921 12.002C99.5961 11.6006 100.352 11.4 101.36 11.4H103.124V11.232C103.124 10.756 102.989 10.406 102.718 10.182C102.447 9.95795 102.111 9.84595 101.71 9.84595C101.346 9.84595 101.029 9.93462 100.758 10.112C100.487 10.28 100.319 10.532 100.254 10.868H98.5041C98.5508 10.364 98.7188 9.92529 99.0081 9.55195C99.3068 9.17862 99.6895 8.89395 100.156 8.69795C100.623 8.49262 101.145 8.38995 101.724 8.38995C102.713 8.38995 103.493 8.63729 104.062 9.13195C104.631 9.62662 104.916 10.3266 104.916 11.232V15.502H103.39L103.222 14.382C103.017 14.7553 102.727 15.0633 102.354 15.306C101.99 15.5486 101.519 15.67 100.94 15.67ZM101.346 14.27C101.859 14.27 102.256 14.102 102.536 13.766C102.825 13.43 103.007 13.0146 103.082 12.52H101.556C101.08 12.52 100.739 12.6086 100.534 12.786C100.329 12.954 100.226 13.164 100.226 13.416C100.226 13.6866 100.329 13.8966 100.534 14.046C100.739 14.1953 101.01 14.27 101.346 14.27ZM106.626 15.502V8.55795H108.208L108.362 9.49595C108.586 9.15995 108.88 8.89395 109.244 8.69795C109.618 8.49262 110.047 8.38995 110.532 8.38995C111.606 8.38995 112.366 8.80529 112.814 9.63595C113.066 9.25329 113.402 8.94995 113.822 8.72595C114.252 8.50195 114.718 8.38995 115.222 8.38995C116.128 8.38995 116.823 8.66062 117.308 9.20195C117.794 9.74329 118.036 10.5366 118.036 11.582V15.502H116.244V11.75C116.244 11.1526 116.128 10.6953 115.894 10.378C115.67 10.0606 115.32 9.90195 114.844 9.90195C114.359 9.90195 113.967 10.0793 113.668 10.434C113.379 10.7886 113.234 11.2833 113.234 11.918V15.502H111.442V11.75C111.442 11.1526 111.326 10.6953 111.092 10.378C110.859 10.0606 110.5 9.90195 110.014 9.90195C109.538 9.90195 109.151 10.0793 108.852 10.434C108.563 10.7886 108.418 11.2833 108.418 11.918V15.502H106.626ZM123.112 15.67C122.412 15.67 121.791 15.5206 121.25 15.222C120.708 14.9233 120.284 14.5033 119.976 13.962C119.668 13.4206 119.514 12.7953 119.514 12.086C119.514 11.3673 119.663 10.728 119.962 10.168C120.27 9.60795 120.69 9.17395 121.222 8.86595C121.763 8.54862 122.398 8.38995 123.126 8.38995C123.807 8.38995 124.409 8.53929 124.932 8.83795C125.454 9.13662 125.86 9.54729 126.15 10.07C126.448 10.5833 126.598 11.1573 126.598 11.792C126.598 11.8946 126.593 12.002 126.584 12.114C126.584 12.226 126.579 12.3426 126.57 12.464H121.292C121.329 13.0053 121.516 13.43 121.852 13.738C122.197 14.046 122.612 14.2 123.098 14.2C123.462 14.2 123.765 14.1206 124.008 13.962C124.26 13.794 124.446 13.5793 124.568 13.318H126.388C126.257 13.7566 126.038 14.158 125.73 14.522C125.431 14.8766 125.058 15.1566 124.61 15.362C124.171 15.5673 123.672 15.67 123.112 15.67ZM123.126 9.84595C122.687 9.84595 122.3 9.97195 121.964 10.224C121.628 10.4666 121.413 10.84 121.32 11.344H124.778C124.75 10.8866 124.582 10.5226 124.274 10.252C123.966 9.98129 123.583 9.84595 123.126 9.84595Z" fill="white"/>
<path d="M64.4009 62.5371V49.2371H69.3219C70.3859 49.2371 71.2662 49.4144 71.9629 49.7691C72.6596 50.1238 73.1789 50.6114 73.5209 51.2321C73.8629 51.8528 74.0339 52.5494 74.0339 53.3221C74.0339 54.0568 73.8692 54.7344 73.5399 55.3551C73.2106 55.9631 72.6976 56.4571 72.0009 56.8371C71.3042 57.2044 70.4112 57.3881 69.3219 57.3881H66.8329V62.5371H64.4009ZM66.8329 55.4121H69.1699C70.0186 55.4121 70.6266 55.2284 70.9939 54.8611C71.3739 54.4811 71.5639 53.9681 71.5639 53.3221C71.5639 52.6634 71.3739 52.1504 70.9939 51.7831C70.6266 51.4031 70.0186 51.2131 69.1699 51.2131H66.8329V55.4121ZM78.5402 62.7651C77.7295 62.7651 77.0645 62.6384 76.5452 62.3851C76.0258 62.1191 75.6395 61.7708 75.3862 61.3401C75.1328 60.9094 75.0062 60.4344 75.0062 59.9151C75.0062 59.0411 75.3482 58.3318 76.0322 57.7871C76.7162 57.2424 77.7422 56.9701 79.1102 56.9701H81.5042V56.7421C81.5042 56.0961 81.3205 55.6211 80.9532 55.3171C80.5858 55.0131 80.1298 54.8611 79.5852 54.8611C79.0912 54.8611 78.6605 54.9814 78.2932 55.2221C77.9258 55.4501 77.6978 55.7921 77.6092 56.2481H75.2342C75.2975 55.5641 75.5255 54.9688 75.9182 54.4621C76.3235 53.9554 76.8428 53.5691 77.4762 53.3031C78.1095 53.0244 78.8188 52.8851 79.6042 52.8851C80.9468 52.8851 82.0045 53.2208 82.7772 53.8921C83.5498 54.5634 83.9362 55.5134 83.9362 56.7421V62.5371H81.8652L81.6372 61.0171C81.3585 61.5238 80.9658 61.9418 80.4592 62.2711C79.9652 62.6004 79.3255 62.7651 78.5402 62.7651ZM79.0912 60.8651C79.7878 60.8651 80.3262 60.6371 80.7062 60.1811C81.0988 59.7251 81.3458 59.1614 81.4472 58.4901H79.3762C78.7302 58.4901 78.2678 58.6104 77.9892 58.8511C77.7105 59.0791 77.5712 59.3641 77.5712 59.7061C77.5712 60.0734 77.7105 60.3584 77.9892 60.5611C78.2678 60.7638 78.6352 60.8651 79.0912 60.8651ZM90.152 62.7651C89.316 62.7651 88.5813 62.6321 87.948 62.3661C87.3146 62.0874 86.808 61.7074 86.428 61.2261C86.048 60.7448 85.82 60.1874 85.744 59.5541H88.195C88.271 59.9214 88.4736 60.2381 88.803 60.5041C89.145 60.7574 89.582 60.8841 90.114 60.8841C90.646 60.8841 91.0323 60.7764 91.273 60.5611C91.5263 60.3458 91.653 60.0988 91.653 59.8201C91.653 59.4148 91.4756 59.1424 91.121 59.0031C90.7663 58.8511 90.2723 58.7054 89.639 58.5661C89.2336 58.4774 88.822 58.3698 88.404 58.2431C87.986 58.1164 87.5996 57.9581 87.245 57.7681C86.903 57.5654 86.6243 57.3121 86.409 57.0081C86.1936 56.6914 86.086 56.3051 86.086 55.8491C86.086 55.0131 86.4153 54.3101 87.074 53.7401C87.7453 53.1701 88.6826 52.8851 89.886 52.8851C91.0006 52.8851 91.8873 53.1448 92.546 53.6641C93.2173 54.1834 93.6163 54.8991 93.743 55.8111H91.444C91.3046 55.1144 90.779 54.7661 89.867 54.7661C89.411 54.7661 89.0563 54.8548 88.803 55.0321C88.5623 55.2094 88.442 55.4311 88.442 55.6971C88.442 55.9758 88.6256 56.1974 88.993 56.3621C89.3603 56.5268 89.848 56.6788 90.456 56.8181C91.1146 56.9701 91.7163 57.1411 92.261 57.3311C92.8183 57.5084 93.2616 57.7808 93.591 58.1481C93.9203 58.5028 94.085 59.0158 94.085 59.6871C94.0976 60.2698 93.9456 60.7954 93.629 61.2641C93.3123 61.7328 92.8563 62.1001 92.261 62.3661C91.6656 62.6321 90.9626 62.7651 90.152 62.7651ZM100.134 62.7651C99.2984 62.7651 98.5637 62.6321 97.9304 62.3661C97.2971 62.0874 96.7904 61.7074 96.4104 61.2261C96.0304 60.7448 95.8024 60.1874 95.7264 59.5541H98.1774C98.2534 59.9214 98.4561 60.2381 98.7854 60.5041C99.1274 60.7574 99.5644 60.8841 100.096 60.8841C100.628 60.8841 101.015 60.7764 101.255 60.5611C101.509 60.3458 101.635 60.0988 101.635 59.8201C101.635 59.4148 101.458 59.1424 101.103 59.0031C100.749 58.8511 100.255 58.7054 99.6214 58.5661C99.2161 58.4774 98.8044 58.3698 98.3864 58.2431C97.9684 58.1164 97.5821 57.9581 97.2274 57.7681C96.8854 57.5654 96.6067 57.3121 96.3914 57.0081C96.1761 56.6914 96.0684 56.3051 96.0684 55.8491C96.0684 55.0131 96.3977 54.3101 97.0564 53.7401C97.7277 53.1701 98.6651 52.8851 99.8684 52.8851C100.983 52.8851 101.87 53.1448 102.528 53.6641C103.2 54.1834 103.599 54.8991 103.725 55.8111H101.426C101.287 55.1144 100.761 54.7661 99.8494 54.7661C99.3934 54.7661 99.0387 54.8548 98.7854 55.0321C98.5447 55.2094 98.4244 55.4311 98.4244 55.6971C98.4244 55.9758 98.6081 56.1974 98.9754 56.3621C99.3427 56.5268 99.8304 56.6788 100.438 56.8181C101.097 56.9701 101.699 57.1411 102.243 57.3311C102.801 57.5084 103.244 57.7808 103.573 58.1481C103.903 58.5028 104.067 59.0158 104.067 59.6871C104.08 60.2698 103.928 60.7954 103.611 61.2641C103.295 61.7328 102.839 62.1001 102.243 62.3661C101.648 62.6321 100.945 62.7651 100.134 62.7651ZM107.786 62.5371L105.031 53.1131H107.444L109.078 59.8961L110.978 53.1131H113.676L115.576 59.8961L117.229 53.1131H119.642L116.868 62.5371H114.341L112.327 55.4881L110.313 62.5371H107.786ZM125.365 62.7651C124.453 62.7651 123.63 62.5561 122.895 62.1381C122.173 61.7201 121.597 61.1438 121.166 60.4091C120.748 59.6618 120.539 58.8004 120.539 57.8251C120.539 56.8498 120.754 55.9948 121.185 55.2601C121.616 54.5128 122.192 53.9301 122.914 53.5121C123.649 53.0941 124.472 52.8851 125.384 52.8851C126.283 52.8851 127.094 53.0941 127.816 53.5121C128.551 53.9301 129.127 54.5128 129.545 55.2601C129.976 55.9948 130.191 56.8498 130.191 57.8251C130.191 58.8004 129.976 59.6618 129.545 60.4091C129.127 61.1438 128.551 61.7201 127.816 62.1381C127.081 62.5561 126.264 62.7651 125.365 62.7651ZM125.365 60.6561C125.998 60.6561 126.549 60.4218 127.018 59.9531C127.487 59.4718 127.721 58.7624 127.721 57.8251C127.721 56.8878 127.487 56.1848 127.018 55.7161C126.549 55.2348 126.005 54.9941 125.384 54.9941C124.738 54.9941 124.181 55.2348 123.712 55.7161C123.256 56.1848 123.028 56.8878 123.028 57.8251C123.028 58.7624 123.256 59.4718 123.712 59.9531C124.181 60.4218 124.732 60.6561 125.365 60.6561ZM132.365 62.5371V53.1131H134.531L134.759 54.8801C135.101 54.2721 135.564 53.7908 136.146 53.4361C136.742 53.0688 137.438 52.8851 138.236 52.8851V55.4501H137.552C137.02 55.4501 136.545 55.5324 136.127 55.6971C135.709 55.8618 135.38 56.1468 135.139 56.5521C134.911 56.9574 134.797 57.5211 134.797 58.2431V62.5371H132.365ZM144.064 62.7651C143.177 62.7651 142.385 62.5498 141.689 62.1191C140.992 61.6884 140.441 61.0994 140.036 60.3521C139.63 59.6048 139.428 58.7561 139.428 57.8061C139.428 56.8561 139.63 56.0138 140.036 55.2791C140.441 54.5318 140.992 53.9491 141.689 53.5311C142.385 53.1004 143.177 52.8851 144.064 52.8851C144.773 52.8851 145.394 53.0181 145.926 53.2841C146.458 53.5501 146.888 53.9238 147.218 54.4051V48.8571H149.65V62.5371H147.484L147.218 61.1881C146.914 61.6061 146.508 61.9734 146.002 62.2901C145.508 62.6068 144.862 62.7651 144.064 62.7651ZM144.577 60.6371C145.362 60.6371 146.002 60.3774 146.496 59.8581C147.002 59.3261 147.256 58.6484 147.256 57.8251C147.256 57.0018 147.002 56.3304 146.496 55.8111C146.002 55.2791 145.362 55.0131 144.577 55.0131C143.804 55.0131 143.164 55.2728 142.658 55.7921C142.151 56.3114 141.898 56.9828 141.898 57.8061C141.898 58.6294 142.151 59.3071 142.658 59.8391C143.164 60.3711 143.804 60.6371 144.577 60.6371Z" fill="white"/>
<path d="M106.63 89.0738V91.2746L102.115 93.5445C102.115 93.5445 97.6322 90.8323 98.7379 89.7531C99.4456 89.0702 99.3094 87.1949 99.1183 85.9052C99.0068 85.1551 98.8777 84.6048 98.8777 84.6048C98.8777 84.6048 106.931 82.3049 105.714 84.0511C105.307 84.6349 105.275 85.3904 105.411 86.1387C105.687 87.623 106.63 89.0738 106.63 89.0738Z" fill="#FFB8B8"/>
<path d="M94.2615 110.594L93.6794 117.762C93.6794 117.762 92.8072 116.972 91.6785 115.942C89.5856 114.033 86.6134 111.303 86.6488 111.231C86.7036 111.119 87.1795 104.616 87.2308 102.981C87.2792 101.821 87.5319 100.678 87.9774 99.6054C88.0835 99.3931 88.3825 98.0415 88.5081 97.4099C88.5506 97.2135 88.5771 97.0861 88.5771 97.0861L89.5537 96.6934C89.5537 96.6934 93.6228 101.233 93.6228 101.316C93.6228 101.399 93.345 104.886 93.345 104.886L93.0567 105.138L92.9311 105.246C92.9311 105.246 92.7364 106.769 92.5985 107.225C92.4605 107.682 92.6091 108.474 92.625 108.559C92.612 108.798 92.5782 109.034 92.5241 109.267C92.5011 109.356 92.4697 109.443 92.4304 109.527C92.3805 109.682 92.3906 109.85 92.4587 109.998C92.5373 110.203 92.6394 110.398 92.763 110.58L94.2615 110.594Z" fill="#3F3D56"/>
<path d="M118.92 111.233C118.962 111.32 114.623 115.281 112.742 116.992L111.889 117.765L111.312 110.596H112.807C112.807 110.596 113.306 109.876 113.14 109.544C113.024 109.233 112.959 108.907 112.947 108.576C112.947 108.576 113.112 107.691 112.974 107.233C112.836 106.775 112.641 105.253 112.641 105.253L112.452 105.091L112.227 104.894C112.227 104.894 111.949 101.407 111.949 101.324C111.949 101.241 116.018 96.7012 116.018 96.7012L116.988 97.0886C116.988 97.0886 117.009 97.193 117.045 97.3593C117.176 97.9626 117.489 99.3903 117.597 99.6079C118.042 100.68 118.295 101.823 118.343 102.983C118.389 104.618 118.863 111.122 118.92 111.233Z" fill="#3F3D56"/>
<path d="M118.941 172.08C118.681 172.596 116.855 172.256 116.478 172.228C116.101 172.2 113.44 170.861 113.403 170.547C113.366 170.234 112.444 169.589 112.186 169.589C111.928 169.589 110.673 168.591 110.562 168.444C110.534 168.371 110.521 168.292 110.525 168.214C110.486 167.607 110.562 166.045 110.562 166.045L115.914 166.34L118.514 170.252C118.733 170.674 118.892 171.125 118.985 171.591C119.016 171.755 119.001 171.924 118.941 172.08Z" fill="#3F3D56"/>
<path opacity="0.1" d="M118.941 172.08C118.681 172.596 116.855 172.256 116.478 172.228C116.101 172.2 113.44 170.861 113.403 170.547C113.366 170.234 112.444 169.589 112.186 169.589C111.928 169.589 110.673 168.591 110.562 168.444C110.534 168.371 110.521 168.292 110.525 168.214C110.486 167.607 110.562 166.045 110.562 166.045L115.914 166.34L118.514 170.252C118.733 170.674 118.892 171.125 118.985 171.591C119.016 171.755 119.001 171.924 118.941 172.08Z" fill="black"/>
<path opacity="0.1" d="M118.94 172.082C118.68 172.599 116.854 172.259 116.477 172.231C116.1 172.203 113.44 170.863 113.403 170.55C113.365 170.237 112.444 169.591 112.185 169.591C111.927 169.591 110.673 168.594 110.561 168.447C110.533 168.374 110.52 168.295 110.524 168.217L112.258 169.314C112.258 169.314 113.365 170.021 113.661 170.441C113.956 170.86 116.284 171.732 116.477 171.75C116.621 171.764 118.149 171.47 118.984 171.594C119.016 171.758 119 171.927 118.94 172.082Z" fill="black"/>
<path d="M93.6397 168.851C93.6397 168.851 92.8825 169.793 91.8705 169.865C91.6035 169.867 91.3474 169.972 91.1551 170.157C90.9629 170.342 90.8491 170.594 90.8373 170.861C90.8373 170.861 91.0142 171.434 88.5675 172.229C87.0902 172.705 86.1614 172.554 85.62 172.229C85.3295 172.068 85.1102 171.804 85.0061 171.489C84.8398 170.9 88.1057 166.415 88.1057 166.415L91.0779 166.238L93.2009 167.197L93.5264 168.413L93.6397 168.851Z" fill="#3F3D56"/>
<path opacity="0.1" d="M93.6397 168.851C93.6397 168.851 92.8825 169.793 91.8705 169.865C91.6035 169.867 91.3474 169.972 91.1551 170.157C90.9629 170.342 90.8491 170.594 90.8373 170.861C90.8373 170.861 91.0142 171.434 88.5675 172.229C87.0902 172.705 86.1614 172.554 85.62 172.229C85.3295 172.068 85.1102 171.804 85.0061 171.489C84.8398 170.9 88.1057 166.415 88.1057 166.415L91.0779 166.238L93.2009 167.197L93.5264 168.413L93.6397 168.851Z" fill="black"/>
<path opacity="0.1" d="M93.6427 168.854C93.6427 168.854 92.8855 169.795 91.8735 169.868C91.6064 169.87 91.3504 169.974 91.1581 170.16C90.9658 170.345 90.8521 170.597 90.8403 170.864C90.8403 170.864 91.0172 171.437 88.5705 172.231C87.0932 172.707 86.1644 172.557 85.623 172.231C87.0154 172.086 90.092 171.207 90.3998 170.903C90.7695 170.533 91.2313 169.517 91.5444 169.5C91.762 169.486 92.8678 168.82 93.5312 168.408L93.6427 168.854Z" fill="black"/>
<path d="M116.426 164.736C116.093 165.511 116.426 167.098 116.426 167.098C116.426 167.098 111.472 167.356 110.262 166.544C109.052 165.732 108.196 161.081 108.196 161.081C108.196 161.081 108.373 155.62 108.196 155.361C108.019 155.103 107.347 153.886 107.568 153.628C107.789 153.369 107.391 152.003 107.088 151.413C106.786 150.822 106.911 149.125 106.911 149.125L106.172 144.621L105.029 139.271L104.058 135.69C104.058 135.69 103.062 132.774 102.724 131.557C102.386 130.34 102.029 131.446 102.029 131.446C101.993 132.628 99.2616 137.942 99.2616 137.942C99.2616 137.942 98.8547 141.153 98.4124 142.296C97.9701 143.439 97.4888 147.427 97.4888 147.427C97.4888 147.427 96.7812 155.545 96.1974 156.911C95.6135 158.277 95.2119 160.306 95.2119 160.306C95.2119 160.306 95.3605 163.112 94.9908 163.333C94.621 163.554 94.6812 165.253 94.6812 165.253C94.6812 165.253 94.9023 166.875 94.0531 167.135C93.2039 167.395 93.3455 167.947 93.3455 167.947C93.3455 167.947 88.6218 168.722 87.8469 166.654C87.072 164.586 88.1423 164.036 88.2007 163.887C88.2591 163.738 88.8482 163.482 88.3316 162.889C87.815 162.296 88.9951 160.676 88.9951 160.676C88.9951 160.676 89.1808 158.388 89.5117 158.314C89.8425 158.24 89.7346 154.919 89.7346 154.919L90.1026 151.45C90.1026 151.45 90.5838 143.699 90.4723 143.404C90.3609 143.108 90.4352 141.634 90.8049 140.927C91.1747 140.219 91.4684 133.765 91.4684 133.765C91.4684 133.765 91.3941 130.593 91.6895 130.002C91.8664 129.668 91.9407 128.382 91.9832 127.332C92.015 126.531 92.0221 125.868 92.0221 125.868L96.1549 124.318L101.462 122.621L105.928 124.762L112.461 126.016L112.543 127.143L113.79 144.359L114.498 150.853C114.498 150.853 114.793 153.916 114.83 154.47C114.867 155.023 115.235 158.641 115.235 158.641C115.235 158.641 116.01 160.375 115.531 160.966C115.051 161.557 115.235 162.028 115.235 162.028C115.235 162.028 116.759 163.961 116.426 164.736Z" fill="#3F3D56"/>
<path opacity="0.1" d="M105.717 84.0507C105.31 84.6345 105.278 85.3899 105.414 86.1383C104.485 86.7942 103.365 87.1264 102.228 87.0839C101.091 87.0414 99.9996 86.6265 99.1215 85.903C99.01 85.1528 98.8809 84.6026 98.8809 84.6026C98.8809 84.6026 106.934 82.3063 105.717 84.0507Z" fill="black"/>
<path d="M107.6 81.797C107.6 82.8222 107.296 83.8244 106.726 84.6769C106.157 85.5293 105.347 86.1937 104.4 86.5861C103.453 86.9784 102.41 87.0811 101.405 86.8811C100.399 86.681 99.4756 86.1873 98.7507 85.4624C98.0257 84.7374 97.532 83.8138 97.332 82.8083C97.132 81.8027 97.2347 80.7605 97.627 79.8133C98.0193 78.8661 98.6838 78.0565 99.5362 77.4869C100.389 76.9174 101.391 76.6133 102.416 76.6133C103.098 76.6101 103.773 76.7419 104.404 77.0012C105.034 77.2606 105.607 77.6423 106.089 78.1243C106.571 78.6063 106.953 79.179 107.212 79.8094C107.471 80.4398 107.603 81.1154 107.6 81.797Z" fill="#FFB8B8"/>
<path opacity="0.1" d="M108.678 90.4063L106.98 120.65L97.7533 118.713L95.9258 106.589L97.7356 90.3125L99.0979 90.4876L101.5 90.7937L103.88 90.9406L106.459 90.6539L108.678 90.4063Z" fill="black"/>
<path d="M108.678 90.6291L106.98 120.873L97.7533 118.936L95.9258 106.812L97.7356 90.5371L99.0979 90.7105L101.5 91.0166L103.88 91.1634L106.459 90.8768L108.678 90.6291Z" fill="#E359D6"/>
<path d="M101.096 91.4395L104.418 91.5509L103.484 92.8583C103.484 92.8583 103.55 95.4997 103.994 96.2569C104.438 97.0141 104.307 108.712 104.307 108.712L103.422 110.391L101.91 108.508L101.929 93.0636L101.096 91.4395Z" fill="#3F3D56"/>
<path opacity="0.1" d="M101.096 91.4395L104.418 91.5509L103.484 92.8583C103.484 92.8583 103.55 95.4997 103.994 96.2569C104.438 97.0141 104.307 108.712 104.307 108.712L103.422 110.391L101.91 108.508L101.929 93.0636L101.096 91.4395Z" fill="black"/>
<path opacity="0.1" d="M106.299 88.0098L103.199 91.442L104.97 93.2872L107.905 90.4265L106.299 88.0098Z" fill="black"/>
<path d="M106.299 87.7871L103.199 91.2193L104.97 93.0645L107.905 90.2038L106.299 87.7871Z" fill="#E359D6"/>
<path opacity="0.1" d="M101.885 91.2754L98.7466 88.1387L98.4512 89.7805L99.8913 93.379L101.885 91.2754Z" fill="black"/>
<path d="M101.999 91.0508L98.8619 87.9141L98.5664 89.5558L100.007 93.1543L101.999 91.0508Z" fill="#E359D6"/>
<path opacity="0.1" d="M112.562 127.149C111.056 127.867 109.442 128.333 107.785 128.531C104.74 128.918 102.748 125.044 102.748 125.044L101.586 126.556C101.216 128.163 95.5885 128.568 93.301 127.959C92.8263 127.842 92.38 127.631 91.9883 127.338C92.0201 126.537 92.0272 125.873 92.0272 125.873L96.16 124.324L101.467 122.627L105.933 124.768L112.466 126.022L112.562 127.149Z" fill="black"/>
<path opacity="0.1" d="M108.678 90.6309L106.981 120.873L97.753 118.936L95.9219 106.813L97.73 90.5371L99.0922 90.714C99.0574 91.3069 98.9907 91.8975 98.8923 92.4832C98.6712 93.5182 100.037 100.862 100.037 100.862C100.037 100.862 102.632 109.097 103.8 107.91C104.968 106.723 106.631 100.455 106.631 100.455C107.758 98.1304 106.65 91.6092 106.567 91.4783C106.509 91.2855 106.473 91.0866 106.461 90.8856L108.678 90.6309Z" fill="black"/>
<path opacity="0.1" d="M112.662 114.033L112.74 116.997L111.887 117.77L111.312 110.596H112.586L112.662 114.033Z" fill="black"/>
<path opacity="0.1" d="M92.6263 108.566C92.6133 108.805 92.5795 109.042 92.5254 109.274C92.5254 109.209 92.5254 109.171 92.5113 109.166C92.4582 109.152 92.5219 108.881 92.6263 108.566Z" fill="black"/>
<path opacity="0.1" d="M94.2607 110.596L93.6787 117.764C93.6787 117.764 92.8065 116.974 91.6777 115.944L91.8122 114.674C91.8122 114.674 92.2881 111.553 92.4615 110.014C92.5401 110.219 92.6422 110.414 92.7658 110.596H94.2607Z" fill="black"/>
<path d="M99.2672 88.0274C99.2672 88.0274 98.7152 87.2153 97.958 88.7828C97.958 88.7828 95.9836 89.9275 95.3043 90.0566C94.6249 90.1858 92.2082 91.035 92.2082 91.035C91.8433 91.2988 91.4042 91.4406 90.9539 91.4401C90.1967 91.4401 89.5686 93.1013 89.6606 94.0054C89.7526 94.9094 89.6058 95.5746 88.9052 95.6118C88.2046 95.6489 88.5903 97.105 88.5903 97.105L93.2591 102.457C93.2591 102.457 93.5546 107.384 93.4077 107.532C93.2609 107.681 92.7248 109.125 92.854 109.174C92.9831 109.224 92.1463 114.673 92.1463 114.673L91.0211 125.247C91.0211 125.247 91.0211 127.016 93.3104 127.627C95.5997 128.237 101.231 127.834 101.594 126.227L102.756 124.713C102.756 124.713 104.748 128.589 107.793 128.202C110.838 127.814 112.777 126.707 112.777 126.707L112.444 114.034L112.223 104.9L116.977 97.089C116.977 97.089 115.703 94.6529 115.814 93.5507C115.926 92.4485 116.145 91.6135 113.433 91.226C113.433 91.226 111.145 90.8846 109.797 89.9522C108.996 89.396 108.121 88.9552 107.197 88.643C107.197 88.643 106.436 87.2277 105.907 87.7125C105.907 87.7125 106.438 89.7134 106.393 90.0124C106.349 90.3114 106.477 91.663 106.56 91.8028C106.643 91.9425 107.75 98.4548 106.623 100.78C106.623 100.78 104.969 107.048 103.793 108.235C102.616 109.422 100.03 101.186 100.03 101.186C100.03 101.186 98.6639 93.8409 98.8851 92.8077C99.1062 91.7745 99.2672 88.0274 99.2672 88.0274Z" fill="#3F3D56"/>
<path d="M103.216 112.22C103.665 112.22 104.028 111.856 104.028 111.408C104.028 110.959 103.665 110.596 103.216 110.596C102.768 110.596 102.404 110.959 102.404 111.408C102.404 111.856 102.768 112.22 103.216 112.22Z" fill="#3F3D56"/>
<path d="M103.216 116.048C103.665 116.048 104.028 115.684 104.028 115.236C104.028 114.787 103.665 114.424 103.216 114.424C102.768 114.424 102.404 114.787 102.404 115.236C102.404 115.684 102.768 116.048 103.216 116.048Z" fill="#3F3D56"/>
<path d="M103.216 112.22C103.665 112.22 104.028 111.856 104.028 111.408C104.028 110.959 103.665 110.596 103.216 110.596C102.768 110.596 102.404 110.959 102.404 111.408C102.404 111.856 102.768 112.22 103.216 112.22Z" fill="#E359D6"/>
<path d="M103.216 116.048C103.665 116.048 104.028 115.684 104.028 115.236C104.028 114.787 103.665 114.424 103.216 114.424C102.768 114.424 102.404 114.787 102.404 115.236C102.404 115.684 102.768 116.048 103.216 116.048Z" fill="#E359D6"/>
<path opacity="0.1" d="M110.514 163.633C110.514 163.633 113.847 163.891 114.178 164.149C114.508 164.408 110.514 163.633 110.514 163.633Z" fill="black" stroke="#01BDD7" stroke-miterlimit="10"/>
<path opacity="0.1" d="M90.6699 161.01C90.6699 161.01 91.3776 161.894 91.0768 162.301C90.7761 162.708 90.6699 161.01 90.6699 161.01Z" fill="black" stroke="#01BDD7" stroke-miterlimit="10"/>
<path opacity="0.1" d="M91.5176 164.197C91.5176 164.197 92.8091 163.348 93.3256 163.912C93.8422 164.477 91.5176 164.197 91.5176 164.197Z" fill="black" stroke="#01BDD7" stroke-miterlimit="10"/>
<g opacity="0.1">
<path opacity="0.1" d="M98.3237 81.3122C98.2317 81.7456 97.9257 82.2374 97.4851 82.1844C97.3489 82.1667 97.2251 82.0977 97.0906 82.0676C96.7208 81.9862 96.5015 82.333 96.1529 82.2445C95.9798 82.1949 95.8187 82.1104 95.6794 81.9964C95.54 81.8823 95.4254 81.741 95.3426 81.5811C95.2501 81.401 95.1942 81.2044 95.1781 81.0026C95.1429 81.3158 95.2 81.6325 95.3426 81.9137C95.4254 82.0736 95.54 82.2149 95.6794 82.329C95.8187 82.443 95.9798 82.5275 96.1529 82.5771C96.5068 82.6585 96.7208 82.3117 97.0906 82.4002C97.22 82.4453 97.3517 82.4836 97.4851 82.5152C97.9257 82.57 98.2317 82.0782 98.3237 81.6448C98.3963 81.2618 98.4248 80.8718 98.4086 80.4824C98.4069 80.7611 98.3785 81.0389 98.3237 81.3122Z" fill="black"/>
<path opacity="0.1" d="M95.9003 78.646C95.9228 78.3561 95.883 78.0647 95.7835 77.7915C95.7035 77.6098 95.6355 77.423 95.5801 77.2324C95.5725 77.2621 95.5666 77.2923 95.5624 77.3226C95.5323 77.6004 95.688 77.8534 95.7835 78.1241C95.8453 78.2921 95.8846 78.4676 95.9003 78.646Z" fill="black"/>
<path opacity="0.1" d="M109.417 77.7168C109.334 78.2192 108.927 78.6916 108.886 79.2206C108.876 79.3111 108.876 79.4025 108.886 79.493C108.975 78.8756 109.521 78.3289 109.417 77.7168Z" fill="black"/>
<path opacity="0.1" d="M109.447 81.4512C109.432 81.5252 109.397 81.5937 109.346 81.6493C109.215 81.7891 108.992 81.7997 108.815 81.8687C108.386 82.0332 108.108 82.5534 107.641 82.5481C107.521 82.5413 107.406 82.4984 107.312 82.4252C107.217 82.3519 107.147 82.2516 107.11 82.1376C107.099 82.1759 107.091 82.215 107.085 82.2544C107.08 82.3318 107.091 82.4095 107.116 82.4829C107.141 82.5563 107.18 82.624 107.232 82.6821C107.283 82.7402 107.346 82.7875 107.416 82.8212C107.486 82.855 107.561 82.8746 107.639 82.8789C108.101 82.8789 108.384 82.3641 108.814 82.2013C108.991 82.1323 109.206 82.1217 109.344 81.9819C109.396 81.9147 109.433 81.8371 109.452 81.7543C109.471 81.6715 109.472 81.5856 109.454 81.5025C109.452 81.4812 109.449 81.4671 109.447 81.4512Z" fill="black"/>
<path opacity="0.1" d="M107.229 81.2997C107.184 80.9777 106.795 80.8468 106.59 80.592C106.464 80.4247 106.396 80.2211 106.395 80.0117C106.381 80.3408 106.387 80.6769 106.59 80.9246C106.793 81.1723 107.103 81.2784 107.202 81.5332C107.227 81.4581 107.236 81.3785 107.229 81.2997Z" fill="black"/>
<path opacity="0.1" d="M106.405 79.4506C106.42 79.0525 106.324 78.566 105.951 78.4298C105.841 78.3891 105.719 78.3838 105.611 78.3395C105.317 78.2157 105.225 77.8512 105.031 77.6C104.636 77.0958 103.856 77.1046 103.262 77.3453C102.996 77.4532 102.743 77.5965 102.467 77.6779C102.332 77.7257 102.188 77.7449 102.044 77.7342C101.901 77.7236 101.761 77.6833 101.634 77.6159C101.517 77.5416 101.422 77.439 101.303 77.3647C100.902 77.1241 100.378 77.3647 100.033 77.6743C99.688 77.9839 99.4084 78.3979 98.9714 78.589C98.7733 78.6774 98.5327 78.7305 98.4301 78.9216C98.3851 79.0257 98.3662 79.1393 98.3752 79.2524C98.3752 79.3214 98.3752 79.3904 98.3752 79.4594C98.3776 79.3881 98.3951 79.3182 98.4265 79.2542C98.5292 79.0631 98.7698 79.01 98.9679 78.9216C99.396 78.7305 99.6756 78.3236 100.029 78.0069C100.383 77.6902 100.898 77.4567 101.3 77.6973C101.418 77.7681 101.514 77.8742 101.631 77.9468C101.757 78.0145 101.897 78.0551 102.041 78.0657C102.184 78.0764 102.328 78.057 102.464 78.0087C102.734 77.9124 102.999 77.802 103.258 77.6779C103.851 77.4372 104.631 77.4266 105.027 77.9308C105.222 78.1821 105.314 78.5465 105.608 78.6704C105.716 78.7164 105.838 78.7217 105.947 78.7624C106.25 78.8756 106.37 79.2153 106.397 79.5514L106.405 79.4506Z" fill="black"/>
</g>
<g opacity="0.1">
<path opacity="0.1" d="M97.6919 81.304C97.702 81.0104 97.8072 80.7279 97.9916 80.4992C98.176 80.2704 98.4297 80.1077 98.7145 80.0355C99.5034 79.8427 100.331 79.8801 101.099 80.1434C102.778 80.6989 100.887 82.6981 100.887 82.6981C100.887 82.6981 99.6292 83.9365 98.4562 83.0714C98.1097 82.8095 97.8672 82.4335 97.7715 82.0099C97.7141 81.7791 97.6873 81.5418 97.6919 81.304Z" fill="black"/>
<path opacity="0.1" d="M106.925 81.3037C106.914 81.0099 106.809 80.7273 106.624 80.4985C106.439 80.2697 106.185 80.1071 105.9 80.0352C105.112 79.8428 104.285 79.8802 103.517 80.1432C101.838 80.6987 103.729 82.6978 103.729 82.6978C103.729 82.6978 104.986 83.9363 106.16 83.0711C106.507 82.8093 106.749 82.4332 106.845 82.0096C106.902 81.7789 106.929 81.5415 106.925 81.3037Z" fill="black"/>
<path opacity="0.1" d="M100.781 79.9808V80.0639H103.847V79.9648L100.781 79.9808Z" fill="black"/>
<path opacity="0.1" d="M101.761 80.868H101.858V80.5867C101.858 80.5867 102.169 80.3444 102.686 80.5867V80.8379H102.863V80.6734H102.776C102.776 80.6734 102.812 80.332 102.235 80.3868C102.235 80.3868 101.771 80.3426 101.782 80.6363H101.676L101.761 80.868Z" fill="black"/>
</g>
<path d="M97.6919 81.1917C97.7021 80.8981 97.8073 80.6157 97.9917 80.3869C98.1761 80.1582 98.4297 79.9955 98.7145 79.9232C99.5036 79.7317 100.331 79.7691 101.099 80.0312C102.778 80.5884 100.887 82.5858 100.887 82.5858C100.887 82.5858 99.6292 83.8243 98.4562 82.9591C98.1091 82.6979 97.8664 82.3216 97.7716 81.8976C97.7139 81.6669 97.6872 81.4295 97.6919 81.1917Z" fill="#5B59E3"/>
<path d="M106.921 81.1918C106.91 80.8979 106.805 80.6153 106.62 80.3865C106.435 80.1577 106.181 79.9952 105.896 79.9233C105.108 79.7317 104.281 79.7691 103.513 80.0312C101.834 80.5885 103.726 82.5859 103.726 82.5859C103.726 82.5859 104.982 83.8243 106.156 82.9592C106.504 82.698 106.746 82.3216 106.841 81.8977C106.899 81.6669 106.925 81.4296 106.921 81.1918Z" fill="#5B59E3"/>
<path d="M100.781 79.8694V79.9544H103.847V79.8535L100.781 79.8694Z" fill="#5B59E3"/>
<path d="M101.761 80.7564H101.858V80.4751C101.858 80.4751 102.169 80.2345 102.686 80.4751V80.7281H102.863V80.5618H102.776C102.776 80.5618 102.812 80.2221 102.235 80.2752C102.235 80.2752 101.771 80.2327 101.782 80.5246H101.676L101.761 80.7564Z" fill="#5B59E3"/>
<path d="M100.996 78.1734C101.787 78.0635 102.584 77.9932 103.385 77.963C103.964 77.9411 104.568 77.9446 105.092 78.1663C105.882 78.5005 106.325 79.256 106.614 79.9895C106.904 80.723 107.11 81.5068 107.647 82.1202C108.542 81.2907 108.72 80.0576 108.853 78.9151C108.947 78.1115 109.03 77.2546 108.612 76.5372C108.354 76.0954 107.929 75.751 107.499 75.4327C105.444 73.9131 102.834 72.7173 100.188 73.0586L100.126 73.4216C99.6744 73.4095 99.2226 73.4347 98.7763 73.4969L98.8708 74.3974L97.4654 74.4766L97.4114 75.415L95.9901 75.4588C96.0174 75.8194 96.1941 76.1583 96.4859 76.4101C96.2672 76.5505 96.0189 76.6501 95.7559 76.7031C95.9929 77.5183 96.223 78.3353 96.4678 79.1487C97.4448 80.6001 97.2759 80.9379 97.6137 80.2624C98.1203 79.9246 98.2626 79.0542 98.8194 78.7617C99.4754 78.4171 100.252 78.2768 100.996 78.1734Z" fill="#6D3004"/>
<rect x="44.25" y="113.25" width="113.5" height="16.5" fill="white" stroke="black" stroke-width="0.5"/>
<path d="M57.0984 127.2L57.4584 122.61L53.7384 125.22L52.6884 123.39L56.8584 121.56L52.7184 119.76L53.7084 117.99L57.4884 120.6L57.0684 116.01H59.1084L58.6584 120.6L62.4084 117.99L63.3684 119.73L59.2284 121.59L63.3984 123.42L62.4084 125.19L58.6584 122.61L59.0784 127.2H57.0984ZM71.4246 127.2L71.7846 122.61L68.0646 125.22L67.0146 123.39L71.1846 121.56L67.0446 119.76L68.0346 117.99L71.8146 120.6L71.3946 116.01H73.4346L72.9846 120.6L76.7346 117.99L77.6946 119.73L73.5546 121.59L77.7246 123.42L76.7346 125.19L72.9846 122.61L73.4046 127.2H71.4246ZM85.7507 127.2L86.1107 122.61L82.3907 125.22L81.3407 123.39L85.5107 121.56L81.3707 119.76L82.3607 117.99L86.1407 120.6L85.7207 116.01H87.7607L87.3107 120.6L91.0607 117.99L92.0207 119.73L87.8807 121.59L92.0507 123.42L91.0607 125.19L87.3107 122.61L87.7307 127.2H85.7507ZM100.077 127.2L100.437 122.61L96.7169 125.22L95.6669 123.39L99.8369 121.56L95.6969 119.76L96.6869 117.99L100.467 120.6L100.047 116.01H102.087L101.637 120.6L105.387 117.99L106.347 119.73L102.207 121.59L106.377 123.42L105.387 125.19L101.637 122.61L102.057 127.2H100.077ZM114.403 127.2L114.763 122.61L111.043 125.22L109.993 123.39L114.163 121.56L110.023 119.76L111.013 117.99L114.793 120.6L114.373 116.01H116.413L115.963 120.6L119.713 117.99L120.673 119.73L116.533 121.59L120.703 123.42L119.713 125.19L115.963 122.61L116.383 127.2H114.403ZM128.729 127.2L129.089 122.61L125.369 125.22L124.319 123.39L128.489 121.56L124.349 119.76L125.339 117.99L129.119 120.6L128.699 116.01H130.739L130.289 120.6L134.039 117.99L134.999 119.73L130.859 121.59L135.029 123.42L134.039 125.19L130.289 122.61L130.709 127.2H128.729ZM143.055 127.2L143.415 122.61L139.695 125.22L138.645 123.39L142.815 121.56L138.675 119.76L139.665 117.99L143.445 120.6L143.025 116.01H145.065L144.615 120.6L148.365 117.99L149.325 119.73L145.185 121.59L149.355 123.42L148.365 125.19L144.615 122.61L145.035 127.2H143.055Z" fill="#5B59E3"/>
<path d="M160.5 121C167.404 121 173 115.404 173 108.5C173 101.596 167.404 96 160.5 96C153.596 96 148 101.596 148 108.5C148 115.404 153.596 121 160.5 121Z" fill="#F12587"/>
<path d="M165.677 113.948H155.32C155.13 113.948 154.949 113.873 154.815 113.739C154.681 113.605 154.606 113.423 154.605 113.234V106.984C154.606 106.794 154.681 106.613 154.815 106.479C154.949 106.345 155.13 106.27 155.32 106.27H165.677C165.866 106.27 166.048 106.345 166.182 106.479C166.316 106.613 166.391 106.794 166.391 106.984V113.234C166.391 113.423 166.316 113.605 166.182 113.739C166.048 113.873 165.866 113.948 165.677 113.948ZM155.32 106.984V113.234H165.677L165.677 106.984L155.32 106.984Z" fill="white"/>
<path d="M163.714 106.983H157.285V104.126C157.285 102.057 158.637 100.555 160.499 100.555C162.362 100.555 163.714 102.057 163.714 104.126L163.714 106.983ZM157.999 106.269H162.999V104.126C162.999 102.444 161.971 101.269 160.499 101.269C159.027 101.269 157.999 102.444 157.999 104.126L157.999 106.269Z" fill="white"/>
<path d="M160.496 110.641C160.89 110.641 161.21 110.322 161.21 109.927C161.21 109.533 160.89 109.213 160.496 109.213C160.101 109.213 159.781 109.533 159.781 109.927C159.781 110.322 160.101 110.641 160.496 110.641Z" fill="white"/>
<defs>
<filter id="filter0_d" x="0" y="19.2988" width="214" height="217.559" filterUnits="userSpaceOnUse" color-interpolation-filters="sRGB">
<feFlood flood-opacity="0" result="BackgroundImageFix"/>
<feColorMatrix in="SourceAlpha" type="matrix" values="0 0 0 0 0 0 0 0 0 0 0 0 0 0 0 0 0 0 127 0"/>
<feOffset dy="1"/>
<feGaussianBlur stdDeviation="1"/>
<feColorMatrix type="matrix" values="0 0 0 0 0.0588235 0 0 0 0 0.0588235 0 0 0 0 0.0588235 0 0 0 0.1 0"/>
<feBlend mode="normal" in2="BackgroundImageFix" result="effect1_dropShadow"/>
<feBlend mode="normal" in="SourceGraphic" in2="effect1_dropShadow" result="shape"/>
</filter>
</defs>
</svg>
