<svg width="214" height="237" viewBox="0 0 214 237" fill="none" xmlns="http://www.w3.org/2000/svg">
<g filter="url(#filter0_d)">
<rect x="2" y="20.2988" width="210" height="213.559" rx="20" fill="#5B59E3"/>
</g>
<path d="M33.1445 10.7227C33.1445 5.19981 37.6217 0.722656 43.1445 0.722656H170.856C176.379 0.722656 180.856 5.19981 180.856 10.7227V20.2989H33.1445V10.7227Z" fill="#F12587"/>
<path d="M92.044 15.67C91.12 15.67 90.3127 15.46 89.622 15.04C88.9313 14.62 88.3947 14.0366 88.012 13.29C87.6293 12.534 87.438 11.6566 87.438 10.658C87.438 9.64995 87.634 8.76329 88.026 7.99795C88.4273 7.22329 88.992 6.62129 89.72 6.19195C90.4573 5.75329 91.33 5.53395 92.338 5.53395C93.486 5.53395 94.438 5.80929 95.194 6.35995C95.95 6.91062 96.44 7.67129 96.664 8.64195H94.662C94.5127 8.18462 94.242 7.82995 93.85 7.57795C93.458 7.31662 92.954 7.18595 92.338 7.18595C91.358 7.18595 90.602 7.49862 90.07 8.12395C89.538 8.73995 89.272 9.58929 89.272 10.672C89.272 11.7546 89.5333 12.5946 90.056 13.192C90.588 13.78 91.3067 14.074 92.212 14.074C93.0987 14.074 93.766 13.836 94.214 13.36C94.6713 12.8746 94.9467 12.24 95.04 11.456H92.562V10.112H96.846V15.502H95.194L95.054 14.214C94.7367 14.6806 94.34 15.04 93.864 15.292C93.388 15.544 92.7813 15.67 92.044 15.67ZM100.94 15.67C100.343 15.67 99.8528 15.5766 99.4701 15.39C99.0875 15.194 98.8028 14.9373 98.6161 14.62C98.4295 14.3026 98.3361 13.9526 98.3361 13.57C98.3361 12.926 98.5881 12.4033 99.0921 12.002C99.5961 11.6006 100.352 11.4 101.36 11.4H103.124V11.232C103.124 10.756 102.989 10.406 102.718 10.182C102.447 9.95795 102.111 9.84595 101.71 9.84595C101.346 9.84595 101.029 9.93462 100.758 10.112C100.487 10.28 100.319 10.532 100.254 10.868H98.5041C98.5508 10.364 98.7188 9.92529 99.0081 9.55195C99.3068 9.17862 99.6895 8.89395 100.156 8.69795C100.623 8.49262 101.145 8.38995 101.724 8.38995C102.713 8.38995 103.493 8.63729 104.062 9.13195C104.631 9.62662 104.916 10.3266 104.916 11.232V15.502H103.39L103.222 14.382C103.017 14.7553 102.727 15.0633 102.354 15.306C101.99 15.5486 101.519 15.67 100.94 15.67ZM101.346 14.27C101.859 14.27 102.256 14.102 102.536 13.766C102.825 13.43 103.007 13.0146 103.082 12.52H101.556C101.08 12.52 100.739 12.6086 100.534 12.786C100.329 12.954 100.226 13.164 100.226 13.416C100.226 13.6866 100.329 13.8966 100.534 14.046C100.739 14.1953 101.01 14.27 101.346 14.27ZM106.626 15.502V8.55795H108.208L108.362 9.49595C108.586 9.15995 108.88 8.89395 109.244 8.69795C109.618 8.49262 110.047 8.38995 110.532 8.38995C111.606 8.38995 112.366 8.80529 112.814 9.63595C113.066 9.25329 113.402 8.94995 113.822 8.72595C114.252 8.50195 114.718 8.38995 115.222 8.38995C116.128 8.38995 116.823 8.66062 117.308 9.20195C117.794 9.74329 118.036 10.5366 118.036 11.582V15.502H116.244V11.75C116.244 11.1526 116.128 10.6953 115.894 10.378C115.67 10.0606 115.32 9.90195 114.844 9.90195C114.359 9.90195 113.967 10.0793 113.668 10.434C113.379 10.7886 113.234 11.2833 113.234 11.918V15.502H111.442V11.75C111.442 11.1526 111.326 10.6953 111.092 10.378C110.859 10.0606 110.5 9.90195 110.014 9.90195C109.538 9.90195 109.151 10.0793 108.852 10.434C108.563 10.7886 108.418 11.2833 108.418 11.918V15.502H106.626ZM123.112 15.67C122.412 15.67 121.791 15.5206 121.25 15.222C120.708 14.9233 120.284 14.5033 119.976 13.962C119.668 13.4206 119.514 12.7953 119.514 12.086C119.514 11.3673 119.663 10.728 119.962 10.168C120.27 9.60795 120.69 9.17395 121.222 8.86595C121.763 8.54862 122.398 8.38995 123.126 8.38995C123.807 8.38995 124.409 8.53929 124.932 8.83795C125.454 9.13662 125.86 9.54729 126.15 10.07C126.448 10.5833 126.598 11.1573 126.598 11.792C126.598 11.8946 126.593 12.002 126.584 12.114C126.584 12.226 126.579 12.3426 126.57 12.464H121.292C121.329 13.0053 121.516 13.43 121.852 13.738C122.197 14.046 122.612 14.2 123.098 14.2C123.462 14.2 123.765 14.1206 124.008 13.962C124.26 13.794 124.446 13.5793 124.568 13.318H126.388C126.257 13.7566 126.038 14.158 125.73 14.522C125.431 14.8766 125.058 15.1566 124.61 15.362C124.171 15.5673 123.672 15.67 123.112 15.67ZM123.126 9.84595C122.687 9.84595 122.3 9.97195 121.964 10.224C121.628 10.4666 121.413 10.84 121.32 11.344H124.778C124.75 10.8866 124.582 10.5226 124.274 10.252C123.966 9.98129 123.583 9.84595 123.126 9.84595Z" fill="white"/>
<path d="M34.6554 89.5371L38.5254 79.0371H39.8604L43.7154 89.5371H42.3804L41.4204 86.8371H36.9504L35.9754 89.5371H34.6554ZM37.3254 85.8171H41.0454L39.1854 80.6271L37.3254 85.8171ZM49.576 89.5371V83.1621H48.451V82.0971H49.576V80.8071C49.576 80.0871 49.756 79.5621 50.116 79.2321C50.476 78.9021 51.001 78.7371 51.691 78.7371H52.441V79.8171H51.886C51.506 79.8171 51.236 79.8971 51.076 80.0571C50.916 80.2071 50.836 80.4671 50.836 80.8371V82.0971H52.666V83.1621H50.836V89.5371H49.576ZM56.8811 89.7171C56.0011 89.7171 55.3011 89.4521 54.7811 88.9221C54.2611 88.3821 54.0011 87.5571 54.0011 86.4471V82.0971H55.2611V86.3121C55.2611 87.8621 55.8961 88.6371 57.1661 88.6371C57.8161 88.6371 58.3511 88.4071 58.7711 87.9471C59.2011 87.4771 59.4161 86.8121 59.4161 85.9521V82.0971H60.6761V89.5371H59.5361L59.4461 88.2021C59.2161 88.6721 58.8711 89.0421 58.4111 89.3121C57.9611 89.5821 57.4511 89.7171 56.8811 89.7171ZM62.7501 89.5371V82.0971H63.8901L63.9651 83.4321C64.2051 82.9621 64.5501 82.5921 65.0001 82.3221C65.4501 82.0521 65.9601 81.9171 66.5301 81.9171C67.4101 81.9171 68.1101 82.1871 68.6301 82.7271C69.1601 83.2571 69.4251 84.0771 69.4251 85.1871V89.5371H68.1651V85.3221C68.1651 83.7721 67.5251 82.9971 66.2451 82.9971C65.6051 82.9971 65.0701 83.2321 64.6401 83.7021C64.2201 84.1621 64.0101 84.8221 64.0101 85.6821V89.5371H62.7501ZM79.2788 89.7171C78.6688 89.7171 78.1238 89.5921 77.6438 89.3421C77.1738 89.0921 76.8138 88.7421 76.5638 88.2921L76.4438 89.5371H75.3038V78.7371H76.5638V83.3271C76.8038 82.9671 77.1438 82.6421 77.5838 82.3521C78.0338 82.0621 78.6038 81.9171 79.2938 81.9171C80.0338 81.9171 80.6788 82.0871 81.2288 82.4271C81.7788 82.7671 82.2038 83.2321 82.5038 83.8221C82.8138 84.4121 82.9688 85.0821 82.9688 85.8321C82.9688 86.5821 82.8138 87.2521 82.5038 87.8421C82.2038 88.4221 81.7738 88.8821 81.2138 89.2221C80.6638 89.5521 80.0188 89.7171 79.2788 89.7171ZM79.1438 88.6221C79.6438 88.6221 80.0838 88.5071 80.4638 88.2771C80.8438 88.0371 81.1438 87.7071 81.3638 87.2871C81.5838 86.8671 81.6938 86.3771 81.6938 85.8171C81.6938 85.2571 81.5838 84.7671 81.3638 84.3471C81.1438 83.9271 80.8438 83.6021 80.4638 83.3721C80.0838 83.1321 79.6438 83.0121 79.1438 83.0121C78.6438 83.0121 78.2038 83.1321 77.8238 83.3721C77.4438 83.6021 77.1438 83.9271 76.9238 84.3471C76.7038 84.7671 76.5938 85.2571 76.5938 85.8171C76.5938 86.3771 76.7038 86.8671 76.9238 87.2871C77.1438 87.7071 77.4438 88.0371 77.8238 88.2771C78.2038 88.5071 78.6438 88.6221 79.1438 88.6221ZM87.4378 89.7171C86.5578 89.7171 85.8578 89.4521 85.3378 88.9221C84.8178 88.3821 84.5578 87.5571 84.5578 86.4471V82.0971H85.8178V86.3121C85.8178 87.8621 86.4528 88.6371 87.7228 88.6371C88.3728 88.6371 88.9078 88.4071 89.3278 87.9471C89.7578 87.4771 89.9728 86.8121 89.9728 85.9521V82.0971H91.2328V89.5371H90.0928L90.0028 88.2021C89.7728 88.6721 89.4278 89.0421 88.9678 89.3121C88.5178 89.5821 88.0078 89.7171 87.4378 89.7171ZM96.2468 89.5371C95.5668 89.5371 95.0318 89.3721 94.6418 89.0421C94.2518 88.7121 94.0568 88.1171 94.0568 87.2571V83.1621H92.7668V82.0971H94.0568L94.2218 80.3121H95.3168V82.0971H97.5068V83.1621H95.3168V87.2571C95.3168 87.7271 95.4118 88.0471 95.6018 88.2171C95.7918 88.3771 96.1268 88.4571 96.6068 88.4571H97.3868V89.5371H96.2468ZM106.497 89.7171C105.787 89.7171 105.147 89.5571 104.577 89.2371C104.017 88.9071 103.572 88.4521 103.242 87.8721C102.922 87.2821 102.762 86.5971 102.762 85.8171C102.762 85.0371 102.922 84.3571 103.242 83.7771C103.572 83.1871 104.017 82.7321 104.577 82.4121C105.147 82.0821 105.787 81.9171 106.497 81.9171C107.377 81.9171 108.117 82.1471 108.717 82.6071C109.327 83.0671 109.712 83.6821 109.872 84.4521H108.582C108.482 83.9921 108.237 83.6371 107.847 83.3871C107.457 83.1271 107.002 82.9971 106.482 82.9971C106.062 82.9971 105.667 83.1021 105.297 83.3121C104.927 83.5221 104.627 83.8371 104.397 84.2571C104.167 84.6771 104.052 85.1971 104.052 85.8171C104.052 86.4371 104.167 86.9571 104.397 87.3771C104.627 87.7971 104.927 88.1171 105.297 88.3371C105.667 88.5471 106.062 88.6521 106.482 88.6521C107.002 88.6521 107.457 88.5271 107.847 88.2771C108.237 88.0171 108.482 87.6521 108.582 87.1821H109.872C109.722 87.9321 109.342 88.5421 108.732 89.0121C108.122 89.4821 107.377 89.7171 106.497 89.7171ZM111.632 89.5371V78.7371H112.892V83.3721C113.142 82.9121 113.497 82.5571 113.957 82.3071C114.417 82.0471 114.917 81.9171 115.457 81.9171C116.317 81.9171 117.007 82.1871 117.527 82.7271C118.047 83.2571 118.307 84.0771 118.307 85.1871V89.5371H117.062V85.3221C117.062 83.7721 116.437 82.9971 115.187 82.9971C114.537 82.9971 113.992 83.2321 113.552 83.7021C113.112 84.1621 112.892 84.8221 112.892 85.6821V89.5371H111.632ZM122.691 89.7171C122.071 89.7171 121.556 89.6121 121.146 89.4021C120.736 89.1921 120.431 88.9121 120.231 88.5621C120.031 88.2121 119.931 87.8321 119.931 87.4221C119.931 86.6621 120.221 86.0771 120.801 85.6671C121.381 85.2571 122.171 85.0521 123.171 85.0521H125.181V84.9621C125.181 84.3121 125.011 83.8221 124.671 83.4921C124.331 83.1521 123.876 82.9821 123.306 82.9821C122.816 82.9821 122.391 83.1071 122.031 83.3571C121.681 83.5971 121.461 83.9521 121.371 84.4221H120.081C120.131 83.8821 120.311 83.4271 120.621 83.0571C120.941 82.6871 121.336 82.4071 121.806 82.2171C122.276 82.0171 122.776 81.9171 123.306 81.9171C124.346 81.9171 125.126 82.1971 125.646 82.7571C126.176 83.3071 126.441 84.0421 126.441 84.9621V89.5371H125.316L125.241 88.2021C125.031 88.6221 124.721 88.9821 124.311 89.2821C123.911 89.5721 123.371 89.7171 122.691 89.7171ZM122.886 88.6521C123.366 88.6521 123.776 88.5271 124.116 88.2771C124.466 88.0271 124.731 87.7021 124.911 87.3021C125.091 86.9021 125.181 86.4821 125.181 86.0421V86.0271H123.276C122.536 86.0271 122.011 86.1571 121.701 86.4171C121.401 86.6671 121.251 86.9821 121.251 87.3621C121.251 87.7521 121.391 88.0671 121.671 88.3071C121.961 88.5371 122.366 88.6521 122.886 88.6521ZM128.331 89.5371V78.7371H129.591V89.5371H128.331ZM131.656 89.5371V78.7371H132.916V89.5371H131.656ZM138.327 89.7171C137.617 89.7171 136.987 89.5571 136.437 89.2371C135.887 88.9071 135.452 88.4521 135.132 87.8721C134.822 87.2921 134.667 86.6071 134.667 85.8171C134.667 85.0371 134.822 84.3571 135.132 83.7771C135.442 83.1871 135.872 82.7321 136.422 82.4121C136.982 82.0821 137.627 81.9171 138.357 81.9171C139.077 81.9171 139.697 82.0821 140.217 82.4121C140.747 82.7321 141.152 83.1571 141.432 83.6871C141.712 84.2171 141.852 84.7871 141.852 85.3971C141.852 85.5071 141.847 85.6171 141.837 85.7271C141.837 85.8371 141.837 85.9621 141.837 86.1021H135.912C135.942 86.6721 136.072 87.1471 136.302 87.5271C136.542 87.8971 136.837 88.1771 137.187 88.3671C137.547 88.5571 137.927 88.6521 138.327 88.6521C138.847 88.6521 139.282 88.5321 139.632 88.2921C139.982 88.0521 140.237 87.7271 140.397 87.3171H141.642C141.442 88.0071 141.057 88.5821 140.487 89.0421C139.927 89.4921 139.207 89.7171 138.327 89.7171ZM138.327 82.9821C137.727 82.9821 137.192 83.1671 136.722 83.5371C136.262 83.8971 135.997 84.4271 135.927 85.1271H140.607C140.577 84.4571 140.347 83.9321 139.917 83.5521C139.487 83.1721 138.957 82.9821 138.327 82.9821ZM143.522 89.5371V82.0971H144.662L144.737 83.4321C144.977 82.9621 145.322 82.5921 145.772 82.3221C146.222 82.0521 146.732 81.9171 147.302 81.9171C148.182 81.9171 148.882 82.1871 149.402 82.7271C149.932 83.2571 150.197 84.0771 150.197 85.1871V89.5371H148.937V85.3221C148.937 83.7721 148.297 82.9971 147.017 82.9971C146.377 82.9971 145.842 83.2321 145.412 83.7021C144.992 84.1621 144.782 84.8221 144.782 85.6821V89.5371H143.522ZM155.046 87.1971C154.626 87.1971 154.241 87.1421 153.891 87.0321L153.141 87.7371C153.251 87.8171 153.386 87.8871 153.546 87.9471C153.716 87.9971 153.956 88.0471 154.266 88.0971C154.576 88.1371 155.011 88.1821 155.571 88.2321C156.571 88.3021 157.286 88.5321 157.716 88.9221C158.146 89.3121 158.361 89.8221 158.361 90.4521C158.361 90.8821 158.241 91.2921 158.001 91.6821C157.771 92.0721 157.411 92.3921 156.921 92.6421C156.441 92.8921 155.821 93.0171 155.061 93.0171C154.391 93.0171 153.796 92.9271 153.276 92.7471C152.756 92.5771 152.351 92.3121 152.061 91.9521C151.771 91.6021 151.626 91.1571 151.626 90.6171C151.626 90.3371 151.701 90.0321 151.851 89.7021C152.001 89.3821 152.281 89.0771 152.691 88.7871C152.471 88.6971 152.281 88.6021 152.121 88.5021C151.971 88.3921 151.831 88.2721 151.701 88.1421V87.7971L152.976 86.5371C152.386 86.0371 152.091 85.3771 152.091 84.5571C152.091 84.0671 152.206 83.6221 152.436 83.2221C152.666 82.8221 153.001 82.5071 153.441 82.2771C153.881 82.0371 154.416 81.9171 155.046 81.9171C155.476 81.9171 155.866 81.9771 156.216 82.0971H158.961V83.0421L157.566 83.1021C157.856 83.5221 158.001 84.0071 158.001 84.5571C158.001 85.0471 157.881 85.4921 157.641 85.8921C157.411 86.2921 157.076 86.6121 156.636 86.8521C156.206 87.0821 155.676 87.1971 155.046 87.1971ZM155.046 86.1621C155.576 86.1621 155.996 86.0271 156.306 85.7571C156.626 85.4771 156.786 85.0771 156.786 84.5571C156.786 84.0471 156.626 83.6571 156.306 83.3871C155.996 83.1071 155.576 82.9671 155.046 82.9671C154.506 82.9671 154.076 83.1071 153.756 83.3871C153.446 83.6571 153.291 84.0471 153.291 84.5571C153.291 85.0771 153.446 85.4771 153.756 85.7571C154.076 86.0271 154.506 86.1621 155.046 86.1621ZM152.856 90.4971C152.856 90.9971 153.066 91.3671 153.486 91.6071C153.906 91.8571 154.431 91.9821 155.061 91.9821C155.681 91.9821 156.176 91.8471 156.546 91.5771C156.926 91.3071 157.116 90.9471 157.116 90.4971C157.116 90.1771 156.986 89.8971 156.726 89.6571C156.466 89.4271 155.986 89.2921 155.286 89.2521C154.736 89.2121 154.261 89.1621 153.861 89.1021C153.451 89.3221 153.181 89.5571 153.051 89.8071C152.921 90.0671 152.856 90.2971 152.856 90.4971ZM161.147 80.4471C160.897 80.4471 160.687 80.3671 160.517 80.2071C160.357 80.0371 160.277 79.8271 160.277 79.5771C160.277 79.3371 160.357 79.1371 160.517 78.9771C160.687 78.8171 160.897 78.7371 161.147 78.7371C161.387 78.7371 161.592 78.8171 161.762 78.9771C161.932 79.1371 162.017 79.3371 162.017 79.5771C162.017 79.8271 161.932 80.0371 161.762 80.2071C161.592 80.3671 161.387 80.4471 161.147 80.4471ZM160.517 89.5371V82.0971H161.777V89.5371H160.517ZM163.971 89.5371V82.0971H165.111L165.186 83.4321C165.426 82.9621 165.771 82.5921 166.221 82.3221C166.671 82.0521 167.181 81.9171 167.751 81.9171C168.631 81.9171 169.331 82.1871 169.851 82.7271C170.381 83.2571 170.646 84.0771 170.646 85.1871V89.5371H169.386V85.3221C169.386 83.7721 168.746 82.9971 167.466 82.9971C166.826 82.9971 166.291 83.2321 165.861 83.7021C165.441 84.1621 165.231 84.8221 165.231 85.6821V89.5371H163.971ZM175.495 87.1971C175.075 87.1971 174.69 87.1421 174.34 87.0321L173.59 87.7371C173.7 87.8171 173.835 87.8871 173.995 87.9471C174.165 87.9971 174.405 88.0471 174.715 88.0971C175.025 88.1371 175.46 88.1821 176.02 88.2321C177.02 88.3021 177.735 88.5321 178.165 88.9221C178.595 89.3121 178.81 89.8221 178.81 90.4521C178.81 90.8821 178.69 91.2921 178.45 91.6821C178.22 92.0721 177.86 92.3921 177.37 92.6421C176.89 92.8921 176.27 93.0171 175.51 93.0171C174.84 93.0171 174.245 92.9271 173.725 92.7471C173.205 92.5771 172.8 92.3121 172.51 91.9521C172.22 91.6021 172.075 91.1571 172.075 90.6171C172.075 90.3371 172.15 90.0321 172.3 89.7021C172.45 89.3821 172.73 89.0771 173.14 88.7871C172.92 88.6971 172.73 88.6021 172.57 88.5021C172.42 88.3921 172.28 88.2721 172.15 88.1421V87.7971L173.425 86.5371C172.835 86.0371 172.54 85.3771 172.54 84.5571C172.54 84.0671 172.655 83.6221 172.885 83.2221C173.115 82.8221 173.45 82.5071 173.89 82.2771C174.33 82.0371 174.865 81.9171 175.495 81.9171C175.925 81.9171 176.315 81.9771 176.665 82.0971H179.41V83.0421L178.015 83.1021C178.305 83.5221 178.45 84.0071 178.45 84.5571C178.45 85.0471 178.33 85.4921 178.09 85.8921C177.86 86.2921 177.525 86.6121 177.085 86.8521C176.655 87.0821 176.125 87.1971 175.495 87.1971ZM175.495 86.1621C176.025 86.1621 176.445 86.0271 176.755 85.7571C177.075 85.4771 177.235 85.0771 177.235 84.5571C177.235 84.0471 177.075 83.6571 176.755 83.3871C176.445 83.1071 176.025 82.9671 175.495 82.9671C174.955 82.9671 174.525 83.1071 174.205 83.3871C173.895 83.6571 173.74 84.0471 173.74 84.5571C173.74 85.0771 173.895 85.4771 174.205 85.7571C174.525 86.0271 174.955 86.1621 175.495 86.1621ZM173.305 90.4971C173.305 90.9971 173.515 91.3671 173.935 91.6071C174.355 91.8571 174.88 91.9821 175.51 91.9821C176.13 91.9821 176.625 91.8471 176.995 91.5771C177.375 91.3071 177.565 90.9471 177.565 90.4971C177.565 90.1771 177.435 89.8971 177.175 89.6571C176.915 89.4271 176.435 89.2921 175.735 89.2521C175.185 89.2121 174.71 89.1621 174.31 89.1021C173.9 89.3221 173.63 89.5571 173.5 89.8071C173.37 90.0671 173.305 90.2971 173.305 90.4971ZM41.8791 107.197C41.4591 107.197 41.0741 107.142 40.7241 107.032L39.9741 107.737C40.0841 107.817 40.2191 107.887 40.3791 107.947C40.5491 107.997 40.7891 108.047 41.0991 108.097C41.4091 108.137 41.8441 108.182 42.4041 108.232C43.4041 108.302 44.1191 108.532 44.5491 108.922C44.9791 109.312 45.1941 109.822 45.1941 110.452C45.1941 110.882 45.0741 111.292 44.8341 111.682C44.6041 112.072 44.2441 112.392 43.7541 112.642C43.2741 112.892 42.6541 113.017 41.8941 113.017C41.2241 113.017 40.6291 112.927 40.1091 112.747C39.5891 112.577 39.1841 112.312 38.8941 111.952C38.6041 111.602 38.4591 111.157 38.4591 110.617C38.4591 110.337 38.5341 110.032 38.6841 109.702C38.8341 109.382 39.1141 109.077 39.5241 108.787C39.3041 108.697 39.1141 108.602 38.9541 108.502C38.8041 108.392 38.6641 108.272 38.5341 108.142V107.797L39.8091 106.537C39.2191 106.037 38.9241 105.377 38.9241 104.557C38.9241 104.067 39.0391 103.622 39.2691 103.222C39.4991 102.822 39.8341 102.507 40.2741 102.277C40.7141 102.037 41.2491 101.917 41.8791 101.917C42.3091 101.917 42.6991 101.977 43.0491 102.097H45.7941V103.042L44.3991 103.102C44.6891 103.522 44.8341 104.007 44.8341 104.557C44.8341 105.047 44.7141 105.492 44.4741 105.892C44.2441 106.292 43.9091 106.612 43.4691 106.852C43.0391 107.082 42.5091 107.197 41.8791 107.197ZM41.8791 106.162C42.4091 106.162 42.8291 106.027 43.1391 105.757C43.4591 105.477 43.6191 105.077 43.6191 104.557C43.6191 104.047 43.4591 103.657 43.1391 103.387C42.8291 103.107 42.4091 102.967 41.8791 102.967C41.3391 102.967 40.9091 103.107 40.5891 103.387C40.2791 103.657 40.1241 104.047 40.1241 104.557C40.1241 105.077 40.2791 105.477 40.5891 105.757C40.9091 106.027 41.3391 106.162 41.8791 106.162ZM39.6891 110.497C39.6891 110.997 39.8991 111.367 40.3191 111.607C40.7391 111.857 41.2641 111.982 41.8941 111.982C42.5141 111.982 43.0091 111.847 43.3791 111.577C43.7591 111.307 43.9491 110.947 43.9491 110.497C43.9491 110.177 43.8191 109.897 43.5591 109.657C43.2991 109.427 42.8191 109.292 42.1191 109.252C41.5691 109.212 41.0941 109.162 40.6941 109.102C40.2841 109.322 40.0141 109.557 39.8841 109.807C39.7541 110.067 39.6891 110.297 39.6891 110.497ZM49.6905 109.717C49.0705 109.717 48.5555 109.612 48.1455 109.402C47.7355 109.192 47.4305 108.912 47.2305 108.562C47.0305 108.212 46.9305 107.832 46.9305 107.422C46.9305 106.662 47.2205 106.077 47.8005 105.667C48.3805 105.257 49.1705 105.052 50.1705 105.052H52.1805V104.962C52.1805 104.312 52.0105 103.822 51.6705 103.492C51.3305 103.152 50.8755 102.982 50.3055 102.982C49.8155 102.982 49.3905 103.107 49.0305 103.357C48.6805 103.597 48.4605 103.952 48.3705 104.422H47.0805C47.1305 103.882 47.3105 103.427 47.6205 103.057C47.9405 102.687 48.3355 102.407 48.8055 102.217C49.2755 102.017 49.7755 101.917 50.3055 101.917C51.3455 101.917 52.1255 102.197 52.6455 102.757C53.1755 103.307 53.4405 104.042 53.4405 104.962V109.537H52.3155L52.2405 108.202C52.0305 108.622 51.7205 108.982 51.3105 109.282C50.9105 109.572 50.3705 109.717 49.6905 109.717ZM49.8855 108.652C50.3655 108.652 50.7755 108.527 51.1155 108.277C51.4655 108.027 51.7305 107.702 51.9105 107.302C52.0905 106.902 52.1805 106.482 52.1805 106.042V106.027H50.2755C49.5355 106.027 49.0105 106.157 48.7005 106.417C48.4005 106.667 48.2505 106.982 48.2505 107.362C48.2505 107.752 48.3905 108.067 48.6705 108.307C48.9605 108.537 49.3655 108.652 49.8855 108.652ZM55.3307 109.537V102.097H56.4707L56.5607 103.177C56.8007 102.777 57.1207 102.467 57.5207 102.247C57.9207 102.027 58.3707 101.917 58.8707 101.917C59.4607 101.917 59.9657 102.037 60.3857 102.277C60.8157 102.517 61.1457 102.882 61.3757 103.372C61.6357 102.922 61.9907 102.567 62.4407 102.307C62.9007 102.047 63.3957 101.917 63.9257 101.917C64.8157 101.917 65.5257 102.187 66.0557 102.727C66.5857 103.257 66.8507 104.077 66.8507 105.187V109.537H65.6057V105.322C65.6057 104.552 65.4507 103.972 65.1407 103.582C64.8307 103.192 64.3857 102.997 63.8057 102.997C63.2057 102.997 62.7057 103.232 62.3057 103.702C61.9157 104.162 61.7207 104.822 61.7207 105.682V109.537H60.4607V105.322C60.4607 104.552 60.3057 103.972 59.9957 103.582C59.6857 103.192 59.2407 102.997 58.6607 102.997C58.0707 102.997 57.5757 103.232 57.1757 103.702C56.7857 104.162 56.5907 104.822 56.5907 105.682V109.537H55.3307ZM72.0937 109.717C71.3837 109.717 70.7537 109.557 70.2037 109.237C69.6537 108.907 69.2187 108.452 68.8987 107.872C68.5887 107.292 68.4337 106.607 68.4337 105.817C68.4337 105.037 68.5887 104.357 68.8987 103.777C69.2087 103.187 69.6387 102.732 70.1887 102.412C70.7487 102.082 71.3937 101.917 72.1237 101.917C72.8437 101.917 73.4637 102.082 73.9837 102.412C74.5137 102.732 74.9187 103.157 75.1987 103.687C75.4787 104.217 75.6187 104.787 75.6187 105.397C75.6187 105.507 75.6137 105.617 75.6037 105.727C75.6037 105.837 75.6037 105.962 75.6037 106.102H69.6787C69.7087 106.672 69.8387 107.147 70.0687 107.527C70.3087 107.897 70.6037 108.177 70.9537 108.367C71.3137 108.557 71.6937 108.652 72.0937 108.652C72.6137 108.652 73.0487 108.532 73.3987 108.292C73.7487 108.052 74.0037 107.727 74.1637 107.317H75.4087C75.2087 108.007 74.8237 108.582 74.2537 109.042C73.6937 109.492 72.9737 109.717 72.0937 109.717ZM72.0937 102.982C71.4937 102.982 70.9587 103.167 70.4887 103.537C70.0287 103.897 69.7637 104.427 69.6937 105.127H74.3737C74.3437 104.457 74.1137 103.932 73.6837 103.552C73.2537 103.172 72.7237 102.982 72.0937 102.982ZM82.7584 109.537L80.5834 102.097H81.8434L83.4184 107.932L85.1584 102.097H86.5834L88.3384 107.932L89.8984 102.097H91.1734L88.9984 109.537H87.7084L85.8784 103.402L84.0484 109.537H82.7584ZM92.567 109.537V98.7371H93.827V103.372C94.077 102.912 94.432 102.557 94.892 102.307C95.352 102.047 95.852 101.917 96.392 101.917C97.252 101.917 97.942 102.187 98.462 102.727C98.982 103.257 99.242 104.077 99.242 105.187V109.537H97.997V105.322C97.997 103.772 97.372 102.997 96.122 102.997C95.472 102.997 94.927 103.232 94.487 103.702C94.047 104.162 93.827 104.822 93.827 105.682V109.537H92.567ZM104.496 109.717C103.786 109.717 103.156 109.557 102.606 109.237C102.056 108.907 101.621 108.452 101.301 107.872C100.991 107.292 100.836 106.607 100.836 105.817C100.836 105.037 100.991 104.357 101.301 103.777C101.611 103.187 102.041 102.732 102.591 102.412C103.151 102.082 103.796 101.917 104.526 101.917C105.246 101.917 105.866 102.082 106.386 102.412C106.916 102.732 107.321 103.157 107.601 103.687C107.881 104.217 108.021 104.787 108.021 105.397C108.021 105.507 108.016 105.617 108.006 105.727C108.006 105.837 108.006 105.962 108.006 106.102H102.081C102.111 106.672 102.241 107.147 102.471 107.527C102.711 107.897 103.006 108.177 103.356 108.367C103.716 108.557 104.096 108.652 104.496 108.652C105.016 108.652 105.451 108.532 105.801 108.292C106.151 108.052 106.406 107.727 106.566 107.317H107.811C107.611 108.007 107.226 108.582 106.656 109.042C106.096 109.492 105.376 109.717 104.496 109.717ZM104.496 102.982C103.896 102.982 103.361 103.167 102.891 103.537C102.431 103.897 102.166 104.427 102.096 105.127H106.776C106.746 104.457 106.516 103.932 106.086 103.552C105.656 103.172 105.126 102.982 104.496 102.982ZM109.691 109.537V102.097H110.831L110.936 103.522C111.166 103.032 111.516 102.642 111.986 102.352C112.456 102.062 113.036 101.917 113.726 101.917V103.237H113.381C112.941 103.237 112.536 103.317 112.166 103.477C111.796 103.627 111.501 103.887 111.281 104.257C111.061 104.627 110.951 105.137 110.951 105.787V109.537H109.691ZM118.207 109.717C117.497 109.717 116.867 109.557 116.317 109.237C115.767 108.907 115.332 108.452 115.012 107.872C114.702 107.292 114.547 106.607 114.547 105.817C114.547 105.037 114.702 104.357 115.012 103.777C115.322 103.187 115.752 102.732 116.302 102.412C116.862 102.082 117.507 101.917 118.237 101.917C118.957 101.917 119.577 102.082 120.097 102.412C120.627 102.732 121.032 103.157 121.312 103.687C121.592 104.217 121.732 104.787 121.732 105.397C121.732 105.507 121.727 105.617 121.717 105.727C121.717 105.837 121.717 105.962 121.717 106.102H115.792C115.822 106.672 115.952 107.147 116.182 107.527C116.422 107.897 116.717 108.177 117.067 108.367C117.427 108.557 117.807 108.652 118.207 108.652C118.727 108.652 119.162 108.532 119.512 108.292C119.862 108.052 120.117 107.727 120.277 107.317H121.522C121.322 108.007 120.937 108.582 120.367 109.042C119.807 109.492 119.087 109.717 118.207 109.717ZM118.207 102.982C117.607 102.982 117.072 103.167 116.602 103.537C116.142 103.897 115.877 104.427 115.807 105.127H120.487C120.457 104.457 120.227 103.932 119.797 103.552C119.367 103.172 118.837 102.982 118.207 102.982ZM127.372 112.837V102.097H128.512L128.632 103.327C128.872 102.967 129.212 102.642 129.652 102.352C130.102 102.062 130.672 101.917 131.362 101.917C132.102 101.917 132.747 102.087 133.297 102.427C133.847 102.767 134.272 103.232 134.572 103.822C134.882 104.412 135.037 105.082 135.037 105.832C135.037 106.582 134.882 107.252 134.572 107.842C134.272 108.422 133.842 108.882 133.282 109.222C132.732 109.552 132.087 109.717 131.347 109.717C130.737 109.717 130.192 109.592 129.712 109.342C129.242 109.092 128.882 108.742 128.632 108.292V112.837H127.372ZM131.212 108.622C131.712 108.622 132.152 108.507 132.532 108.277C132.912 108.037 133.212 107.707 133.432 107.287C133.652 106.867 133.762 106.377 133.762 105.817C133.762 105.257 133.652 104.767 133.432 104.347C133.212 103.927 132.912 103.602 132.532 103.372C132.152 103.132 131.712 103.012 131.212 103.012C130.712 103.012 130.272 103.132 129.892 103.372C129.512 103.602 129.212 103.927 128.992 104.347C128.772 104.767 128.662 105.257 128.662 105.817C128.662 106.377 128.772 106.867 128.992 107.287C129.212 107.707 129.512 108.037 129.892 108.277C130.272 108.507 130.712 108.622 131.212 108.622ZM136.791 109.537V98.7371H138.051V109.537H136.791ZM142.591 109.717C141.971 109.717 141.456 109.612 141.046 109.402C140.636 109.192 140.331 108.912 140.131 108.562C139.931 108.212 139.831 107.832 139.831 107.422C139.831 106.662 140.121 106.077 140.701 105.667C141.281 105.257 142.071 105.052 143.071 105.052H145.081V104.962C145.081 104.312 144.911 103.822 144.571 103.492C144.231 103.152 143.776 102.982 143.206 102.982C142.716 102.982 142.291 103.107 141.931 103.357C141.581 103.597 141.361 103.952 141.271 104.422H139.981C140.031 103.882 140.211 103.427 140.521 103.057C140.841 102.687 141.236 102.407 141.706 102.217C142.176 102.017 142.676 101.917 143.206 101.917C144.246 101.917 145.026 102.197 145.546 102.757C146.076 103.307 146.341 104.042 146.341 104.962V109.537H145.216L145.141 108.202C144.931 108.622 144.621 108.982 144.211 109.282C143.811 109.572 143.271 109.717 142.591 109.717ZM142.786 108.652C143.266 108.652 143.676 108.527 144.016 108.277C144.366 108.027 144.631 107.702 144.811 107.302C144.991 106.902 145.081 106.482 145.081 106.042V106.027H143.176C142.436 106.027 141.911 106.157 141.601 106.417C141.301 106.667 141.151 106.982 141.151 107.362C141.151 107.752 141.291 108.067 141.571 108.307C141.861 108.537 142.266 108.652 142.786 108.652ZM148.821 112.837L150.666 108.817H150.231L147.276 102.097H148.641L151.101 107.887L153.711 102.097H155.016L150.141 112.837H148.821ZM158.988 109.717C158.278 109.717 157.648 109.557 157.098 109.237C156.548 108.907 156.113 108.452 155.793 107.872C155.483 107.292 155.328 106.607 155.328 105.817C155.328 105.037 155.483 104.357 155.793 103.777C156.103 103.187 156.533 102.732 157.083 102.412C157.643 102.082 158.288 101.917 159.018 101.917C159.738 101.917 160.358 102.082 160.878 102.412C161.408 102.732 161.813 103.157 162.093 103.687C162.373 104.217 162.513 104.787 162.513 105.397C162.513 105.507 162.508 105.617 162.498 105.727C162.498 105.837 162.498 105.962 162.498 106.102H156.573C156.603 106.672 156.733 107.147 156.963 107.527C157.203 107.897 157.498 108.177 157.848 108.367C158.208 108.557 158.588 108.652 158.988 108.652C159.508 108.652 159.943 108.532 160.293 108.292C160.643 108.052 160.898 107.727 161.058 107.317H162.303C162.103 108.007 161.718 108.582 161.148 109.042C160.588 109.492 159.868 109.717 158.988 109.717ZM158.988 102.982C158.388 102.982 157.853 103.167 157.383 103.537C156.923 103.897 156.658 104.427 156.588 105.127H161.268C161.238 104.457 161.008 103.932 160.578 103.552C160.148 103.172 159.618 102.982 158.988 102.982ZM164.183 109.537V102.097H165.323L165.428 103.522C165.658 103.032 166.008 102.642 166.478 102.352C166.948 102.062 167.528 101.917 168.218 101.917V103.237H167.873C167.433 103.237 167.028 103.317 166.658 103.477C166.288 103.627 165.993 103.887 165.773 104.257C165.553 104.627 165.443 105.137 165.443 105.787V109.537H164.183ZM172.482 109.717C171.592 109.717 170.852 109.492 170.262 109.042C169.672 108.592 169.327 107.982 169.227 107.212H170.517C170.597 107.602 170.802 107.942 171.132 108.232C171.472 108.512 171.927 108.652 172.497 108.652C173.027 108.652 173.417 108.542 173.667 108.322C173.917 108.092 174.042 107.822 174.042 107.512C174.042 107.062 173.877 106.762 173.547 106.612C173.227 106.462 172.772 106.327 172.182 106.207C171.782 106.127 171.382 106.012 170.982 105.862C170.582 105.712 170.247 105.502 169.977 105.232C169.707 104.952 169.572 104.587 169.572 104.137C169.572 103.487 169.812 102.957 170.292 102.547C170.782 102.127 171.442 101.917 172.272 101.917C173.062 101.917 173.707 102.117 174.207 102.517C174.717 102.907 175.012 103.467 175.092 104.197H173.847C173.797 103.817 173.632 103.522 173.352 103.312C173.082 103.092 172.717 102.982 172.257 102.982C171.807 102.982 171.457 103.077 171.207 103.267C170.967 103.457 170.847 103.707 170.847 104.017C170.847 104.317 171.002 104.552 171.312 104.722C171.632 104.892 172.062 105.037 172.602 105.157C173.062 105.257 173.497 105.382 173.907 105.532C174.327 105.672 174.667 105.887 174.927 106.177C175.197 106.457 175.332 106.867 175.332 107.407C175.342 108.077 175.087 108.632 174.567 109.072C174.057 109.502 173.362 109.717 172.482 109.717ZM54.3859 129.537V118.737H55.6459V123.372C55.8959 122.912 56.2509 122.557 56.7109 122.307C57.1709 122.047 57.6709 121.917 58.2109 121.917C59.0709 121.917 59.7609 122.187 60.2809 122.727C60.8009 123.257 61.0609 124.077 61.0609 125.187V129.537H59.8159V125.322C59.8159 123.772 59.1909 122.997 57.9409 122.997C57.2909 122.997 56.7459 123.232 56.3059 123.702C55.8659 124.162 55.6459 124.822 55.6459 125.682V129.537H54.3859ZM65.4448 129.717C64.8248 129.717 64.3098 129.612 63.8998 129.402C63.4898 129.192 63.1848 128.912 62.9848 128.562C62.7848 128.212 62.6848 127.832 62.6848 127.422C62.6848 126.662 62.9748 126.077 63.5548 125.667C64.1348 125.257 64.9248 125.052 65.9248 125.052H67.9348V124.962C67.9348 124.312 67.7648 123.822 67.4248 123.492C67.0848 123.152 66.6298 122.982 66.0598 122.982C65.5698 122.982 65.1448 123.107 64.7848 123.357C64.4348 123.597 64.2148 123.952 64.1248 124.422H62.8348C62.8848 123.882 63.0648 123.427 63.3748 123.057C63.6948 122.687 64.0898 122.407 64.5598 122.217C65.0298 122.017 65.5298 121.917 66.0598 121.917C67.0998 121.917 67.8798 122.197 68.3998 122.757C68.9298 123.307 69.1948 124.042 69.1948 124.962V129.537H68.0698L67.9948 128.202C67.7848 128.622 67.4748 128.982 67.0648 129.282C66.6648 129.572 66.1248 129.717 65.4448 129.717ZM65.6398 128.652C66.1198 128.652 66.5298 128.527 66.8698 128.277C67.2198 128.027 67.4848 127.702 67.6648 127.302C67.8448 126.902 67.9348 126.482 67.9348 126.042V126.027H66.0298C65.2898 126.027 64.7648 126.157 64.4548 126.417C64.1548 126.667 64.0048 126.982 64.0048 127.362C64.0048 127.752 64.1448 128.067 64.4248 128.307C64.7148 128.537 65.1198 128.652 65.6398 128.652ZM72.9518 129.537L70.1318 122.097H71.4518L73.6868 128.322L75.9368 122.097H77.2268L74.4068 129.537H72.9518ZM81.5932 129.717C80.8832 129.717 80.2532 129.557 79.7032 129.237C79.1532 128.907 78.7182 128.452 78.3982 127.872C78.0882 127.292 77.9332 126.607 77.9332 125.817C77.9332 125.037 78.0882 124.357 78.3982 123.777C78.7082 123.187 79.1382 122.732 79.6882 122.412C80.2482 122.082 80.8932 121.917 81.6232 121.917C82.3432 121.917 82.9632 122.082 83.4832 122.412C84.0132 122.732 84.4182 123.157 84.6982 123.687C84.9782 124.217 85.1182 124.787 85.1182 125.397C85.1182 125.507 85.1132 125.617 85.1032 125.727C85.1032 125.837 85.1032 125.962 85.1032 126.102H79.1782C79.2082 126.672 79.3382 127.147 79.5682 127.527C79.8082 127.897 80.1032 128.177 80.4532 128.367C80.8132 128.557 81.1932 128.652 81.5932 128.652C82.1132 128.652 82.5482 128.532 82.8982 128.292C83.2482 128.052 83.5032 127.727 83.6632 127.317H84.9082C84.7082 128.007 84.3232 128.582 83.7532 129.042C83.1932 129.492 82.4732 129.717 81.5932 129.717ZM81.5932 122.982C80.9932 122.982 80.4582 123.167 79.9882 123.537C79.5282 123.897 79.2632 124.427 79.1932 125.127H83.8732C83.8432 124.457 83.6132 123.932 83.1832 123.552C82.7532 123.172 82.2232 122.982 81.5932 122.982ZM93.6979 129.537C93.0179 129.537 92.4829 129.372 92.0929 129.042C91.7029 128.712 91.5079 128.117 91.5079 127.257V123.162H90.2179V122.097H91.5079L91.6729 120.312H92.7679V122.097H94.9579V123.162H92.7679V127.257C92.7679 127.727 92.8629 128.047 93.0529 128.217C93.2429 128.377 93.5779 128.457 94.0579 128.457H94.8379V129.537H93.6979ZM99.7436 129.717C99.0436 129.717 98.4136 129.557 97.8536 129.237C97.2936 128.917 96.8486 128.467 96.5186 127.887C96.1986 127.297 96.0386 126.607 96.0386 125.817C96.0386 125.027 96.2036 124.342 96.5336 123.762C96.8636 123.172 97.3086 122.717 97.8686 122.397C98.4386 122.077 99.0736 121.917 99.7736 121.917C100.474 121.917 101.104 122.077 101.664 122.397C102.224 122.717 102.664 123.172 102.984 123.762C103.314 124.342 103.479 125.027 103.479 125.817C103.479 126.607 103.314 127.297 102.984 127.887C102.654 128.467 102.204 128.917 101.634 129.237C101.074 129.557 100.444 129.717 99.7436 129.717ZM99.7436 128.637C100.174 128.637 100.574 128.532 100.944 128.322C101.314 128.112 101.614 127.797 101.844 127.377C102.074 126.957 102.189 126.437 102.189 125.817C102.189 125.197 102.074 124.677 101.844 124.257C101.624 123.837 101.329 123.522 100.959 123.312C100.589 123.102 100.194 122.997 99.7736 122.997C99.3436 122.997 98.9436 123.102 98.5736 123.312C98.2036 123.522 97.9036 123.837 97.6736 124.257C97.4436 124.677 97.3286 125.197 97.3286 125.817C97.3286 126.437 97.4436 126.957 97.6736 127.377C97.9036 127.797 98.1986 128.112 98.5586 128.322C98.9286 128.532 99.3236 128.637 99.7436 128.637ZM112.14 127.197C111.72 127.197 111.335 127.142 110.985 127.032L110.235 127.737C110.345 127.817 110.48 127.887 110.64 127.947C110.81 127.997 111.05 128.047 111.36 128.097C111.67 128.137 112.105 128.182 112.665 128.232C113.665 128.302 114.38 128.532 114.81 128.922C115.24 129.312 115.455 129.822 115.455 130.452C115.455 130.882 115.335 131.292 115.095 131.682C114.865 132.072 114.505 132.392 114.015 132.642C113.535 132.892 112.915 133.017 112.155 133.017C111.485 133.017 110.89 132.927 110.37 132.747C109.85 132.577 109.445 132.312 109.155 131.952C108.865 131.602 108.72 131.157 108.72 130.617C108.72 130.337 108.795 130.032 108.945 129.702C109.095 129.382 109.375 129.077 109.785 128.787C109.565 128.697 109.375 128.602 109.215 128.502C109.065 128.392 108.925 128.272 108.795 128.142V127.797L110.07 126.537C109.48 126.037 109.185 125.377 109.185 124.557C109.185 124.067 109.3 123.622 109.53 123.222C109.76 122.822 110.095 122.507 110.535 122.277C110.975 122.037 111.51 121.917 112.14 121.917C112.57 121.917 112.96 121.977 113.31 122.097H116.055V123.042L114.66 123.102C114.95 123.522 115.095 124.007 115.095 124.557C115.095 125.047 114.975 125.492 114.735 125.892C114.505 126.292 114.17 126.612 113.73 126.852C113.3 127.082 112.77 127.197 112.14 127.197ZM112.14 126.162C112.67 126.162 113.09 126.027 113.4 125.757C113.72 125.477 113.88 125.077 113.88 124.557C113.88 124.047 113.72 123.657 113.4 123.387C113.09 123.107 112.67 122.967 112.14 122.967C111.6 122.967 111.17 123.107 110.85 123.387C110.54 123.657 110.385 124.047 110.385 124.557C110.385 125.077 110.54 125.477 110.85 125.757C111.17 126.027 111.6 126.162 112.14 126.162ZM109.95 130.497C109.95 130.997 110.16 131.367 110.58 131.607C111 131.857 111.525 131.982 112.155 131.982C112.775 131.982 113.27 131.847 113.64 131.577C114.02 131.307 114.21 130.947 114.21 130.497C114.21 130.177 114.08 129.897 113.82 129.657C113.56 129.427 113.08 129.292 112.38 129.252C111.83 129.212 111.355 129.162 110.955 129.102C110.545 129.322 110.275 129.557 110.145 129.807C110.015 130.067 109.95 130.297 109.95 130.497ZM120.192 129.717C119.312 129.717 118.612 129.452 118.092 128.922C117.572 128.382 117.312 127.557 117.312 126.447V122.097H118.572V126.312C118.572 127.862 119.207 128.637 120.477 128.637C121.127 128.637 121.662 128.407 122.082 127.947C122.512 127.477 122.727 126.812 122.727 125.952V122.097H123.987V129.537H122.847L122.757 128.202C122.527 128.672 122.182 129.042 121.722 129.312C121.272 129.582 120.762 129.717 120.192 129.717ZM129.406 129.717C128.696 129.717 128.066 129.557 127.516 129.237C126.966 128.907 126.531 128.452 126.211 127.872C125.901 127.292 125.746 126.607 125.746 125.817C125.746 125.037 125.901 124.357 126.211 123.777C126.521 123.187 126.951 122.732 127.501 122.412C128.061 122.082 128.706 121.917 129.436 121.917C130.156 121.917 130.776 122.082 131.296 122.412C131.826 122.732 132.231 123.157 132.511 123.687C132.791 124.217 132.931 124.787 132.931 125.397C132.931 125.507 132.926 125.617 132.916 125.727C132.916 125.837 132.916 125.962 132.916 126.102H126.991C127.021 126.672 127.151 127.147 127.381 127.527C127.621 127.897 127.916 128.177 128.266 128.367C128.626 128.557 129.006 128.652 129.406 128.652C129.926 128.652 130.361 128.532 130.711 128.292C131.061 128.052 131.316 127.727 131.476 127.317H132.721C132.521 128.007 132.136 128.582 131.566 129.042C131.006 129.492 130.286 129.717 129.406 129.717ZM129.406 122.982C128.806 122.982 128.271 123.167 127.801 123.537C127.341 123.897 127.076 124.427 127.006 125.127H131.686C131.656 124.457 131.426 123.932 130.996 123.552C130.566 123.172 130.036 122.982 129.406 122.982ZM137.451 129.717C136.561 129.717 135.821 129.492 135.231 129.042C134.641 128.592 134.296 127.982 134.196 127.212H135.486C135.566 127.602 135.771 127.942 136.101 128.232C136.441 128.512 136.896 128.652 137.466 128.652C137.996 128.652 138.386 128.542 138.636 128.322C138.886 128.092 139.011 127.822 139.011 127.512C139.011 127.062 138.846 126.762 138.516 126.612C138.196 126.462 137.741 126.327 137.151 126.207C136.751 126.127 136.351 126.012 135.951 125.862C135.551 125.712 135.216 125.502 134.946 125.232C134.676 124.952 134.541 124.587 134.541 124.137C134.541 123.487 134.781 122.957 135.261 122.547C135.751 122.127 136.411 121.917 137.241 121.917C138.031 121.917 138.676 122.117 139.176 122.517C139.686 122.907 139.981 123.467 140.061 124.197H138.816C138.766 123.817 138.601 123.522 138.321 123.312C138.051 123.092 137.686 122.982 137.226 122.982C136.776 122.982 136.426 123.077 136.176 123.267C135.936 123.457 135.816 123.707 135.816 124.017C135.816 124.317 135.971 124.552 136.281 124.722C136.601 124.892 137.031 125.037 137.571 125.157C138.031 125.257 138.466 125.382 138.876 125.532C139.296 125.672 139.636 125.887 139.896 126.177C140.166 126.457 140.301 126.867 140.301 127.407C140.311 128.077 140.056 128.632 139.536 129.072C139.026 129.502 138.331 129.717 137.451 129.717ZM144.951 129.717C144.061 129.717 143.321 129.492 142.731 129.042C142.141 128.592 141.796 127.982 141.696 127.212H142.986C143.066 127.602 143.271 127.942 143.601 128.232C143.941 128.512 144.396 128.652 144.966 128.652C145.496 128.652 145.886 128.542 146.136 128.322C146.386 128.092 146.511 127.822 146.511 127.512C146.511 127.062 146.346 126.762 146.016 126.612C145.696 126.462 145.241 126.327 144.651 126.207C144.251 126.127 143.851 126.012 143.451 125.862C143.051 125.712 142.716 125.502 142.446 125.232C142.176 124.952 142.041 124.587 142.041 124.137C142.041 123.487 142.281 122.957 142.761 122.547C143.251 122.127 143.911 121.917 144.741 121.917C145.531 121.917 146.176 122.117 146.676 122.517C147.186 122.907 147.481 123.467 147.561 124.197H146.316C146.266 123.817 146.101 123.522 145.821 123.312C145.551 123.092 145.186 122.982 144.726 122.982C144.276 122.982 143.926 123.077 143.676 123.267C143.436 123.457 143.316 123.707 143.316 124.017C143.316 124.317 143.471 124.552 143.781 124.722C144.101 124.892 144.531 125.037 145.071 125.157C145.531 125.257 145.966 125.382 146.376 125.532C146.796 125.672 147.136 125.887 147.396 126.177C147.666 126.457 147.801 126.867 147.801 127.407C147.811 128.077 147.556 128.632 147.036 129.072C146.526 129.502 145.831 129.717 144.951 129.717ZM156.045 129.717C155.425 129.717 154.91 129.612 154.5 129.402C154.09 129.192 153.785 128.912 153.585 128.562C153.385 128.212 153.285 127.832 153.285 127.422C153.285 126.662 153.575 126.077 154.155 125.667C154.735 125.257 155.525 125.052 156.525 125.052H158.535V124.962C158.535 124.312 158.365 123.822 158.025 123.492C157.685 123.152 157.23 122.982 156.66 122.982C156.17 122.982 155.745 123.107 155.385 123.357C155.035 123.597 154.815 123.952 154.725 124.422H153.435C153.485 123.882 153.665 123.427 153.975 123.057C154.295 122.687 154.69 122.407 155.16 122.217C155.63 122.017 156.13 121.917 156.66 121.917C157.7 121.917 158.48 122.197 159 122.757C159.53 123.307 159.795 124.042 159.795 124.962V129.537H158.67L158.595 128.202C158.385 128.622 158.075 128.982 157.665 129.282C157.265 129.572 156.725 129.717 156.045 129.717ZM156.24 128.652C156.72 128.652 157.13 128.527 157.47 128.277C157.82 128.027 158.085 127.702 158.265 127.302C158.445 126.902 158.535 126.482 158.535 126.042V126.027H156.63C155.89 126.027 155.365 126.157 155.055 126.417C154.755 126.667 154.605 126.982 154.605 127.362C154.605 127.752 154.745 128.067 155.025 128.307C155.315 128.537 155.72 128.652 156.24 128.652ZM37.4156 152.837V142.097H38.5556L38.6756 143.327C38.9156 142.967 39.2556 142.642 39.6956 142.352C40.1456 142.062 40.7156 141.917 41.4056 141.917C42.1456 141.917 42.7906 142.087 43.3406 142.427C43.8906 142.767 44.3156 143.232 44.6156 143.822C44.9256 144.412 45.0806 145.082 45.0806 145.832C45.0806 146.582 44.9256 147.252 44.6156 147.842C44.3156 148.422 43.8856 148.882 43.3256 149.222C42.7756 149.552 42.1306 149.717 41.3906 149.717C40.7806 149.717 40.2356 149.592 39.7556 149.342C39.2856 149.092 38.9256 148.742 38.6756 148.292V152.837H37.4156ZM41.2556 148.622C41.7556 148.622 42.1956 148.507 42.5756 148.277C42.9556 148.037 43.2556 147.707 43.4756 147.287C43.6956 146.867 43.8056 146.377 43.8056 145.817C43.8056 145.257 43.6956 144.767 43.4756 144.347C43.2556 143.927 42.9556 143.602 42.5756 143.372C42.1956 143.132 41.7556 143.012 41.2556 143.012C40.7556 143.012 40.3156 143.132 39.9356 143.372C39.5556 143.602 39.2556 143.927 39.0356 144.347C38.8156 144.767 38.7056 145.257 38.7056 145.817C38.7056 146.377 38.8156 146.867 39.0356 147.287C39.2556 147.707 39.5556 148.037 39.9356 148.277C40.3156 148.507 40.7556 148.622 41.2556 148.622ZM49.3096 149.717C48.6896 149.717 48.1746 149.612 47.7646 149.402C47.3546 149.192 47.0496 148.912 46.8496 148.562C46.6496 148.212 46.5496 147.832 46.5496 147.422C46.5496 146.662 46.8396 146.077 47.4196 145.667C47.9996 145.257 48.7896 145.052 49.7896 145.052H51.7996V144.962C51.7996 144.312 51.6296 143.822 51.2896 143.492C50.9496 143.152 50.4946 142.982 49.9246 142.982C49.4346 142.982 49.0096 143.107 48.6496 143.357C48.2996 143.597 48.0796 143.952 47.9896 144.422H46.6996C46.7496 143.882 46.9296 143.427 47.2396 143.057C47.5596 142.687 47.9546 142.407 48.4246 142.217C48.8946 142.017 49.3946 141.917 49.9246 141.917C50.9646 141.917 51.7446 142.197 52.2646 142.757C52.7946 143.307 53.0596 144.042 53.0596 144.962V149.537H51.9346L51.8596 148.202C51.6496 148.622 51.3396 148.982 50.9296 149.282C50.5296 149.572 49.9896 149.717 49.3096 149.717ZM49.5046 148.652C49.9846 148.652 50.3946 148.527 50.7346 148.277C51.0846 148.027 51.3496 147.702 51.5296 147.302C51.7096 146.902 51.7996 146.482 51.7996 146.042V146.027H49.8946C49.1546 146.027 48.6296 146.157 48.3196 146.417C48.0196 146.667 47.8696 146.982 47.8696 147.362C47.8696 147.752 48.0096 148.067 48.2896 148.307C48.5796 148.537 48.9846 148.652 49.5046 148.652ZM57.7998 149.717C56.9098 149.717 56.1698 149.492 55.5798 149.042C54.9898 148.592 54.6448 147.982 54.5448 147.212H55.8348C55.9148 147.602 56.1198 147.942 56.4498 148.232C56.7898 148.512 57.2448 148.652 57.8148 148.652C58.3448 148.652 58.7348 148.542 58.9848 148.322C59.2348 148.092 59.3598 147.822 59.3598 147.512C59.3598 147.062 59.1948 146.762 58.8648 146.612C58.5448 146.462 58.0898 146.327 57.4998 146.207C57.0998 146.127 56.6998 146.012 56.2998 145.862C55.8998 145.712 55.5648 145.502 55.2948 145.232C55.0248 144.952 54.8898 144.587 54.8898 144.137C54.8898 143.487 55.1298 142.957 55.6098 142.547C56.0998 142.127 56.7598 141.917 57.5898 141.917C58.3798 141.917 59.0248 142.117 59.5248 142.517C60.0348 142.907 60.3298 143.467 60.4098 144.197H59.1648C59.1148 143.817 58.9498 143.522 58.6698 143.312C58.3998 143.092 58.0348 142.982 57.5748 142.982C57.1248 142.982 56.7748 143.077 56.5248 143.267C56.2848 143.457 56.1648 143.707 56.1648 144.017C56.1648 144.317 56.3198 144.552 56.6298 144.722C56.9498 144.892 57.3798 145.037 57.9198 145.157C58.3798 145.257 58.8148 145.382 59.2248 145.532C59.6448 145.672 59.9848 145.887 60.2448 146.177C60.5148 146.457 60.6498 146.867 60.6498 147.407C60.6598 148.077 60.4048 148.632 59.8848 149.072C59.3748 149.502 58.6798 149.717 57.7998 149.717ZM65.2998 149.717C64.4098 149.717 63.6698 149.492 63.0798 149.042C62.4898 148.592 62.1448 147.982 62.0448 147.212H63.3348C63.4148 147.602 63.6198 147.942 63.9498 148.232C64.2898 148.512 64.7448 148.652 65.3148 148.652C65.8448 148.652 66.2348 148.542 66.4848 148.322C66.7348 148.092 66.8598 147.822 66.8598 147.512C66.8598 147.062 66.6948 146.762 66.3648 146.612C66.0448 146.462 65.5898 146.327 64.9998 146.207C64.5998 146.127 64.1998 146.012 63.7998 145.862C63.3998 145.712 63.0648 145.502 62.7948 145.232C62.5248 144.952 62.3898 144.587 62.3898 144.137C62.3898 143.487 62.6298 142.957 63.1098 142.547C63.5998 142.127 64.2598 141.917 65.0898 141.917C65.8798 141.917 66.5248 142.117 67.0248 142.517C67.5348 142.907 67.8298 143.467 67.9098 144.197H66.6648C66.6148 143.817 66.4498 143.522 66.1698 143.312C65.8998 143.092 65.5348 142.982 65.0748 142.982C64.6248 142.982 64.2748 143.077 64.0248 143.267C63.7848 143.457 63.6648 143.707 63.6648 144.017C63.6648 144.317 63.8198 144.552 64.1298 144.722C64.4498 144.892 64.8798 145.037 65.4198 145.157C65.8798 145.257 66.3148 145.382 66.7248 145.532C67.1448 145.672 67.4848 145.887 67.7448 146.177C68.0148 146.457 68.1498 146.867 68.1498 147.407C68.1598 148.077 67.9048 148.632 67.3848 149.072C66.8748 149.502 66.1798 149.717 65.2998 149.717ZM71.1715 149.537L68.9965 142.097H70.2565L71.8315 147.932L73.5715 142.097H74.9965L76.7515 147.932L78.3115 142.097H79.5865L77.4115 149.537H76.1215L74.2915 143.402L72.4615 149.537H71.1715ZM84.0918 149.717C83.3918 149.717 82.7618 149.557 82.2018 149.237C81.6418 148.917 81.1968 148.467 80.8668 147.887C80.5468 147.297 80.3868 146.607 80.3868 145.817C80.3868 145.027 80.5518 144.342 80.8818 143.762C81.2118 143.172 81.6568 142.717 82.2168 142.397C82.7868 142.077 83.4218 141.917 84.1218 141.917C84.8218 141.917 85.4518 142.077 86.0118 142.397C86.5718 142.717 87.0118 143.172 87.3318 143.762C87.6618 144.342 87.8268 145.027 87.8268 145.817C87.8268 146.607 87.6618 147.297 87.3318 147.887C87.0018 148.467 86.5518 148.917 85.9818 149.237C85.4218 149.557 84.7918 149.717 84.0918 149.717ZM84.0918 148.637C84.5218 148.637 84.9218 148.532 85.2918 148.322C85.6618 148.112 85.9618 147.797 86.1918 147.377C86.4218 146.957 86.5368 146.437 86.5368 145.817C86.5368 145.197 86.4218 144.677 86.1918 144.257C85.9718 143.837 85.6768 143.522 85.3068 143.312C84.9368 143.102 84.5418 142.997 84.1218 142.997C83.6918 142.997 83.2918 143.102 82.9218 143.312C82.5518 143.522 82.2518 143.837 82.0218 144.257C81.7918 144.677 81.6768 145.197 81.6768 145.817C81.6768 146.437 81.7918 146.957 82.0218 147.377C82.2518 147.797 82.5468 148.112 82.9068 148.322C83.2768 148.532 83.6718 148.637 84.0918 148.637ZM89.5787 149.537V142.097H90.7187L90.8237 143.522C91.0537 143.032 91.4037 142.642 91.8737 142.352C92.3437 142.062 92.9237 141.917 93.6137 141.917V143.237H93.2687C92.8287 143.237 92.4237 143.317 92.0537 143.477C91.6837 143.627 91.3887 143.887 91.1687 144.257C90.9487 144.627 90.8387 145.137 90.8387 145.787V149.537H89.5787ZM98.1246 149.717C97.3846 149.717 96.7346 149.547 96.1746 149.207C95.6246 148.867 95.1946 148.402 94.8846 147.812C94.5846 147.222 94.4346 146.552 94.4346 145.802C94.4346 145.052 94.5896 144.387 94.8996 143.807C95.2096 143.217 95.6396 142.757 96.1896 142.427C96.7396 142.087 97.3896 141.917 98.1396 141.917C98.7496 141.917 99.2896 142.042 99.7596 142.292C100.23 142.542 100.595 142.892 100.855 143.342V138.737H102.115V149.537H100.975L100.855 148.307C100.615 148.667 100.27 148.992 99.8196 149.282C99.3696 149.572 98.8046 149.717 98.1246 149.717ZM98.2596 148.622C98.7596 148.622 99.1996 148.507 99.5796 148.277C99.9696 148.037 100.27 147.707 100.48 147.287C100.7 146.867 100.81 146.377 100.81 145.817C100.81 145.257 100.7 144.767 100.48 144.347C100.27 143.927 99.9696 143.602 99.5796 143.372C99.1996 143.132 98.7596 143.012 98.2596 143.012C97.7696 143.012 97.3296 143.132 96.9396 143.372C96.5596 143.602 96.2596 143.927 96.0396 144.347C95.8296 144.767 95.7246 145.257 95.7246 145.817C95.7246 146.377 95.8296 146.867 96.0396 147.287C96.2596 147.707 96.5596 148.037 96.9396 148.277C97.3296 148.507 97.7696 148.622 98.2596 148.622ZM109.638 149.537L107.463 142.097H108.723L110.298 147.932L112.038 142.097H113.463L115.218 147.932L116.778 142.097H118.053L115.878 149.537H114.588L112.758 143.402L110.928 149.537H109.638ZM120.212 140.447C119.962 140.447 119.752 140.367 119.582 140.207C119.422 140.037 119.342 139.827 119.342 139.577C119.342 139.337 119.422 139.137 119.582 138.977C119.752 138.817 119.962 138.737 120.212 138.737C120.452 138.737 120.657 138.817 120.827 138.977C120.997 139.137 121.082 139.337 121.082 139.577C121.082 139.827 120.997 140.037 120.827 140.207C120.657 140.367 120.452 140.447 120.212 140.447ZM119.582 149.537V142.097H120.842V149.537H119.582ZM125.976 149.537C125.296 149.537 124.761 149.372 124.371 149.042C123.981 148.712 123.786 148.117 123.786 147.257V143.162H122.496V142.097H123.786L123.951 140.312H125.046V142.097H127.236V143.162H125.046V147.257C125.046 147.727 125.141 148.047 125.331 148.217C125.521 148.377 125.856 148.457 126.336 148.457H127.116V149.537H125.976ZM128.837 149.537V138.737H130.097V143.372C130.347 142.912 130.702 142.557 131.162 142.307C131.622 142.047 132.122 141.917 132.662 141.917C133.522 141.917 134.212 142.187 134.732 142.727C135.252 143.257 135.512 144.077 135.512 145.187V149.537H134.267V145.322C134.267 143.772 133.642 142.997 132.392 142.997C131.742 142.997 131.197 143.232 130.757 143.702C130.317 144.162 130.097 144.822 130.097 145.682V149.537H128.837ZM142.215 140.447C141.975 140.447 141.77 140.367 141.6 140.207C141.43 140.037 141.345 139.827 141.345 139.577C141.345 139.337 141.43 139.137 141.6 138.977C141.77 138.817 141.975 138.737 142.215 138.737C142.455 138.737 142.655 138.817 142.815 138.977C142.985 139.137 143.07 139.337 143.07 139.577C143.07 139.827 142.985 140.037 142.815 140.207C142.655 140.367 142.455 140.447 142.215 140.447ZM139.935 152.837V151.757H140.52C140.89 151.757 141.155 151.677 141.315 151.517C141.485 151.367 141.57 151.107 141.57 150.737V142.097H142.83V150.767C142.83 151.487 142.65 152.012 142.29 152.342C141.93 152.672 141.405 152.837 140.715 152.837H139.935ZM147.738 149.717C146.858 149.717 146.158 149.452 145.638 148.922C145.118 148.382 144.858 147.557 144.858 146.447V142.097H146.118V146.312C146.118 147.862 146.753 148.637 148.023 148.637C148.673 148.637 149.208 148.407 149.628 147.947C150.058 147.477 150.273 146.812 150.273 145.952V142.097H151.533V149.537H150.393L150.303 148.202C150.073 148.672 149.728 149.042 149.268 149.312C148.818 149.582 148.308 149.717 147.738 149.717ZM156.457 149.717C155.567 149.717 154.827 149.492 154.237 149.042C153.647 148.592 153.302 147.982 153.202 147.212H154.492C154.572 147.602 154.777 147.942 155.107 148.232C155.447 148.512 155.902 148.652 156.472 148.652C157.002 148.652 157.392 148.542 157.642 148.322C157.892 148.092 158.017 147.822 158.017 147.512C158.017 147.062 157.852 146.762 157.522 146.612C157.202 146.462 156.747 146.327 156.157 146.207C155.757 146.127 155.357 146.012 154.957 145.862C154.557 145.712 154.222 145.502 153.952 145.232C153.682 144.952 153.547 144.587 153.547 144.137C153.547 143.487 153.787 142.957 154.267 142.547C154.757 142.127 155.417 141.917 156.247 141.917C157.037 141.917 157.682 142.117 158.182 142.517C158.692 142.907 158.987 143.467 159.067 144.197H157.822C157.772 143.817 157.607 143.522 157.327 143.312C157.057 143.092 156.692 142.982 156.232 142.982C155.782 142.982 155.432 143.077 155.182 143.267C154.942 143.457 154.822 143.707 154.822 144.017C154.822 144.317 154.977 144.552 155.287 144.722C155.607 144.892 156.037 145.037 156.577 145.157C157.037 145.257 157.472 145.382 157.882 145.532C158.302 145.672 158.642 145.887 158.902 146.177C159.172 146.457 159.307 146.867 159.307 147.407C159.317 148.077 159.062 148.632 158.542 149.072C158.032 149.502 157.337 149.717 156.457 149.717ZM163.71 149.537C163.03 149.537 162.495 149.372 162.105 149.042C161.715 148.712 161.52 148.117 161.52 147.257V143.162H160.23V142.097H161.52L161.685 140.312H162.78V142.097H164.97V143.162H162.78V147.257C162.78 147.727 162.875 148.047 163.065 148.217C163.255 148.377 163.59 148.457 164.07 148.457H164.85V149.537H163.71ZM173.016 149.717C172.396 149.717 171.881 149.612 171.471 149.402C171.061 149.192 170.756 148.912 170.556 148.562C170.356 148.212 170.256 147.832 170.256 147.422C170.256 146.662 170.546 146.077 171.126 145.667C171.706 145.257 172.496 145.052 173.496 145.052H175.506V144.962C175.506 144.312 175.336 143.822 174.996 143.492C174.656 143.152 174.201 142.982 173.631 142.982C173.141 142.982 172.716 143.107 172.356 143.357C172.006 143.597 171.786 143.952 171.696 144.422H170.406C170.456 143.882 170.636 143.427 170.946 143.057C171.266 142.687 171.661 142.407 172.131 142.217C172.601 142.017 173.101 141.917 173.631 141.917C174.671 141.917 175.451 142.197 175.971 142.757C176.501 143.307 176.766 144.042 176.766 144.962V149.537H175.641L175.566 148.202C175.356 148.622 175.046 148.982 174.636 149.282C174.236 149.572 173.696 149.717 173.016 149.717ZM173.211 148.652C173.691 148.652 174.101 148.527 174.441 148.277C174.791 148.027 175.056 147.702 175.236 147.302C175.416 146.902 175.506 146.482 175.506 146.042V146.027H173.601C172.861 146.027 172.336 146.157 172.026 146.417C171.726 146.667 171.576 146.982 171.576 147.362C171.576 147.752 171.716 148.067 171.996 148.307C172.286 148.537 172.691 148.652 173.211 148.652ZM62.4634 169.717C61.7634 169.717 61.1334 169.557 60.5734 169.237C60.0134 168.917 59.5684 168.467 59.2384 167.887C58.9184 167.297 58.7584 166.607 58.7584 165.817C58.7584 165.027 58.9234 164.342 59.2534 163.762C59.5834 163.172 60.0284 162.717 60.5884 162.397C61.1584 162.077 61.7934 161.917 62.4934 161.917C63.1934 161.917 63.8234 162.077 64.3834 162.397C64.9434 162.717 65.3834 163.172 65.7034 163.762C66.0334 164.342 66.1984 165.027 66.1984 165.817C66.1984 166.607 66.0334 167.297 65.7034 167.887C65.3734 168.467 64.9234 168.917 64.3534 169.237C63.7934 169.557 63.1634 169.717 62.4634 169.717ZM62.4634 168.637C62.8934 168.637 63.2934 168.532 63.6634 168.322C64.0334 168.112 64.3334 167.797 64.5634 167.377C64.7934 166.957 64.9084 166.437 64.9084 165.817C64.9084 165.197 64.7934 164.677 64.5634 164.257C64.3434 163.837 64.0484 163.522 63.6784 163.312C63.3084 163.102 62.9134 162.997 62.4934 162.997C62.0634 162.997 61.6634 163.102 61.2934 163.312C60.9234 163.522 60.6234 163.837 60.3934 164.257C60.1634 164.677 60.0484 165.197 60.0484 165.817C60.0484 166.437 60.1634 166.957 60.3934 167.377C60.6234 167.797 60.9184 168.112 61.2784 168.322C61.6484 168.532 62.0434 168.637 62.4634 168.637ZM67.9503 169.537V162.097H69.0903L69.1653 163.432C69.4053 162.962 69.7503 162.592 70.2003 162.322C70.6503 162.052 71.1603 161.917 71.7303 161.917C72.6103 161.917 73.3103 162.187 73.8303 162.727C74.3603 163.257 74.6253 164.077 74.6253 165.187V169.537H73.3653V165.322C73.3653 163.772 72.7253 162.997 71.4453 162.997C70.8053 162.997 70.2703 163.232 69.8403 163.702C69.4203 164.162 69.2103 164.822 69.2103 165.682V169.537H67.9503ZM79.8793 169.717C79.1693 169.717 78.5393 169.557 77.9893 169.237C77.4393 168.907 77.0043 168.452 76.6843 167.872C76.3743 167.292 76.2193 166.607 76.2193 165.817C76.2193 165.037 76.3743 164.357 76.6843 163.777C76.9943 163.187 77.4243 162.732 77.9743 162.412C78.5343 162.082 79.1793 161.917 79.9093 161.917C80.6293 161.917 81.2493 162.082 81.7693 162.412C82.2993 162.732 82.7043 163.157 82.9843 163.687C83.2643 164.217 83.4043 164.787 83.4043 165.397C83.4043 165.507 83.3993 165.617 83.3893 165.727C83.3893 165.837 83.3893 165.962 83.3893 166.102H77.4643C77.4943 166.672 77.6243 167.147 77.8543 167.527C78.0943 167.897 78.3893 168.177 78.7393 168.367C79.0993 168.557 79.4793 168.652 79.8793 168.652C80.3993 168.652 80.8343 168.532 81.1843 168.292C81.5343 168.052 81.7893 167.727 81.9493 167.317H83.1943C82.9943 168.007 82.6093 168.582 82.0393 169.042C81.4793 169.492 80.7593 169.717 79.8793 169.717ZM79.8793 162.982C79.2793 162.982 78.7443 163.167 78.2743 163.537C77.8143 163.897 77.5493 164.427 77.4793 165.127H82.1593C82.1293 164.457 81.8993 163.932 81.4693 163.552C81.0393 163.172 80.5093 162.982 79.8793 162.982ZM90.5441 169.537L88.3691 162.097H89.6291L91.2041 167.932L92.9441 162.097H94.3691L96.1241 167.932L97.6841 162.097H98.9591L96.7841 169.537H95.4941L93.6641 163.402L91.8341 169.537H90.5441ZM103.464 169.717C102.764 169.717 102.134 169.557 101.574 169.237C101.014 168.917 100.569 168.467 100.239 167.887C99.9193 167.297 99.7593 166.607 99.7593 165.817C99.7593 165.027 99.9243 164.342 100.254 163.762C100.584 163.172 101.029 162.717 101.589 162.397C102.159 162.077 102.794 161.917 103.494 161.917C104.194 161.917 104.824 162.077 105.384 162.397C105.944 162.717 106.384 163.172 106.704 163.762C107.034 164.342 107.199 165.027 107.199 165.817C107.199 166.607 107.034 167.297 106.704 167.887C106.374 168.467 105.924 168.917 105.354 169.237C104.794 169.557 104.164 169.717 103.464 169.717ZM103.464 168.637C103.894 168.637 104.294 168.532 104.664 168.322C105.034 168.112 105.334 167.797 105.564 167.377C105.794 166.957 105.909 166.437 105.909 165.817C105.909 165.197 105.794 164.677 105.564 164.257C105.344 163.837 105.049 163.522 104.679 163.312C104.309 163.102 103.914 162.997 103.494 162.997C103.064 162.997 102.664 163.102 102.294 163.312C101.924 163.522 101.624 163.837 101.394 164.257C101.164 164.677 101.049 165.197 101.049 165.817C101.049 166.437 101.164 166.957 101.394 167.377C101.624 167.797 101.919 168.112 102.279 168.322C102.649 168.532 103.044 168.637 103.464 168.637ZM108.951 169.537V162.097H110.091L110.196 163.522C110.426 163.032 110.776 162.642 111.246 162.352C111.716 162.062 112.296 161.917 112.986 161.917V163.237H112.641C112.201 163.237 111.796 163.317 111.426 163.477C111.056 163.627 110.761 163.887 110.541 164.257C110.321 164.627 110.211 165.137 110.211 165.787V169.537H108.951ZM117.497 169.717C116.757 169.717 116.107 169.547 115.547 169.207C114.997 168.867 114.567 168.402 114.257 167.812C113.957 167.222 113.807 166.552 113.807 165.802C113.807 165.052 113.962 164.387 114.272 163.807C114.582 163.217 115.012 162.757 115.562 162.427C116.112 162.087 116.762 161.917 117.512 161.917C118.122 161.917 118.662 162.042 119.132 162.292C119.602 162.542 119.967 162.892 120.227 163.342V158.737H121.487V169.537H120.347L120.227 168.307C119.987 168.667 119.642 168.992 119.192 169.282C118.742 169.572 118.177 169.717 117.497 169.717ZM117.632 168.622C118.132 168.622 118.572 168.507 118.952 168.277C119.342 168.037 119.642 167.707 119.852 167.287C120.072 166.867 120.182 166.377 120.182 165.817C120.182 165.257 120.072 164.767 119.852 164.347C119.642 163.927 119.342 163.602 118.952 163.372C118.572 163.132 118.132 163.012 117.632 163.012C117.142 163.012 116.702 163.132 116.312 163.372C115.932 163.602 115.632 163.927 115.412 164.347C115.202 164.767 115.097 165.257 115.097 165.817C115.097 166.377 115.202 166.867 115.412 167.287C115.632 167.707 115.932 168.037 116.312 168.277C116.702 168.507 117.142 168.622 117.632 168.622ZM127.511 169.537V158.737H128.771V163.372C129.021 162.912 129.376 162.557 129.836 162.307C130.296 162.047 130.796 161.917 131.336 161.917C132.196 161.917 132.886 162.187 133.406 162.727C133.926 163.257 134.186 164.077 134.186 165.187V169.537H132.941V165.322C132.941 163.772 132.316 162.997 131.066 162.997C130.416 162.997 129.871 163.232 129.431 163.702C128.991 164.162 128.771 164.822 128.771 165.682V169.537H127.511ZM136.86 160.447C136.61 160.447 136.4 160.367 136.23 160.207C136.07 160.037 135.99 159.827 135.99 159.577C135.99 159.337 136.07 159.137 136.23 158.977C136.4 158.817 136.61 158.737 136.86 158.737C137.1 158.737 137.305 158.817 137.475 158.977C137.645 159.137 137.73 159.337 137.73 159.577C137.73 159.827 137.645 160.037 137.475 160.207C137.305 160.367 137.1 160.447 136.86 160.447ZM136.23 169.537V162.097H137.49V169.537H136.23ZM139.684 169.537V162.097H140.824L140.899 163.432C141.139 162.962 141.484 162.592 141.934 162.322C142.384 162.052 142.894 161.917 143.464 161.917C144.344 161.917 145.044 162.187 145.564 162.727C146.094 163.257 146.359 164.077 146.359 165.187V169.537H145.099V165.322C145.099 163.772 144.459 162.997 143.179 162.997C142.539 162.997 142.004 163.232 141.574 163.702C141.154 164.162 140.944 164.822 140.944 165.682V169.537H139.684ZM151.208 169.537C150.528 169.537 149.993 169.372 149.603 169.042C149.213 168.712 149.018 168.117 149.018 167.257V163.162H147.728V162.097H149.018L149.183 160.312H150.278V162.097H152.468V163.162H150.278V167.257C150.278 167.727 150.373 168.047 150.563 168.217C150.753 168.377 151.088 168.457 151.568 168.457H152.348V169.537H151.208ZM154.503 169.612C154.253 169.612 154.043 169.532 153.873 169.372C153.713 169.202 153.633 168.997 153.633 168.757C153.633 168.517 153.713 168.317 153.873 168.157C154.043 167.987 154.253 167.902 154.503 167.902C154.743 167.902 154.943 167.987 155.103 168.157C155.273 168.317 155.358 168.517 155.358 168.757C155.358 168.997 155.273 169.202 155.103 169.372C154.943 169.532 154.743 169.612 154.503 169.612Z" fill="white"/>
<defs>
<filter id="filter0_d" x="0" y="19.2988" width="214" height="217.559" filterUnits="userSpaceOnUse" color-interpolation-filters="sRGB">
<feFlood flood-opacity="0" result="BackgroundImageFix"/>
<feColorMatrix in="SourceAlpha" type="matrix" values="0 0 0 0 0 0 0 0 0 0 0 0 0 0 0 0 0 0 127 0"/>
<feOffset dy="1"/>
<feGaussianBlur stdDeviation="1"/>
<feColorMatrix type="matrix" values="0 0 0 0 0.0588235 0 0 0 0 0.0588235 0 0 0 0 0.0588235 0 0 0 0.1 0"/>
<feBlend mode="normal" in2="BackgroundImageFix" result="effect1_dropShadow"/>
<feBlend mode="normal" in="SourceGraphic" in2="effect1_dropShadow" result="shape"/>
</filter>
</defs>
</svg>
