<svg width="214" height="237" viewBox="0 0 214 237" fill="none" xmlns="http://www.w3.org/2000/svg">
<g filter="url(#filter0_d)">
<rect x="2" y="19.9375" width="210" height="213.559" rx="20" fill="#3895FF"/>
</g>
<path d="M33.1445 10.3613C33.1445 4.83848 37.6217 0.361328 43.1445 0.361328H170.856C176.379 0.361328 180.856 4.83848 180.856 10.3613V19.9376H33.1445V10.3613Z" fill="#F12587"/>
<path d="M92.044 15.3086C91.12 15.3086 90.3127 15.0986 89.622 14.6786C88.9313 14.2586 88.3947 13.6753 88.012 12.9286C87.6293 12.1726 87.438 11.2953 87.438 10.2966C87.438 9.28862 87.634 8.40196 88.026 7.63662C88.4273 6.86196 88.992 6.25996 89.72 5.83062C90.4573 5.39196 91.33 5.17262 92.338 5.17262C93.486 5.17262 94.438 5.44796 95.194 5.99862C95.95 6.54929 96.44 7.30996 96.664 8.28062H94.662C94.5127 7.82329 94.242 7.46862 93.85 7.21662C93.458 6.95529 92.954 6.82462 92.338 6.82462C91.358 6.82462 90.602 7.13729 90.07 7.76262C89.538 8.37862 89.272 9.22796 89.272 10.3106C89.272 11.3933 89.5333 12.2333 90.056 12.8306C90.588 13.4186 91.3067 13.7126 92.212 13.7126C93.0987 13.7126 93.766 13.4746 94.214 12.9986C94.6713 12.5133 94.9467 11.8786 95.04 11.0946H92.562V9.75062H96.846V15.1406H95.194L95.054 13.8526C94.7367 14.3193 94.34 14.6786 93.864 14.9306C93.388 15.1826 92.7813 15.3086 92.044 15.3086ZM100.94 15.3086C100.343 15.3086 99.8528 15.2153 99.4701 15.0286C99.0875 14.8326 98.8028 14.576 98.6161 14.2586C98.4295 13.9413 98.3361 13.5913 98.3361 13.2086C98.3361 12.5646 98.5881 12.042 99.0921 11.6406C99.5961 11.2393 100.352 11.0386 101.36 11.0386H103.124V10.8706C103.124 10.3946 102.989 10.0446 102.718 9.82062C102.447 9.59662 102.111 9.48462 101.71 9.48462C101.346 9.48462 101.029 9.57329 100.758 9.75062C100.487 9.91862 100.319 10.1706 100.254 10.5066H98.5041C98.5508 10.0026 98.7188 9.56396 99.0081 9.19062C99.3068 8.81729 99.6895 8.53262 100.156 8.33662C100.623 8.13129 101.145 8.02862 101.724 8.02862C102.713 8.02862 103.493 8.27596 104.062 8.77062C104.631 9.26529 104.916 9.96529 104.916 10.8706V15.1406H103.39L103.222 14.0206C103.017 14.394 102.727 14.702 102.354 14.9446C101.99 15.1873 101.519 15.3086 100.94 15.3086ZM101.346 13.9086C101.859 13.9086 102.256 13.7406 102.536 13.4046C102.825 13.0686 103.007 12.6533 103.082 12.1586H101.556C101.08 12.1586 100.739 12.2473 100.534 12.4246C100.329 12.5926 100.226 12.8026 100.226 13.0546C100.226 13.3253 100.329 13.5353 100.534 13.6846C100.739 13.834 101.01 13.9086 101.346 13.9086ZM106.626 15.1406V8.19662H108.208L108.362 9.13462C108.586 8.79862 108.88 8.53262 109.244 8.33662C109.618 8.13129 110.047 8.02862 110.532 8.02862C111.606 8.02862 112.366 8.44396 112.814 9.27462C113.066 8.89196 113.402 8.58862 113.822 8.36462C114.252 8.14062 114.718 8.02862 115.222 8.02862C116.128 8.02862 116.823 8.29929 117.308 8.84062C117.794 9.38196 118.036 10.1753 118.036 11.2206V15.1406H116.244V11.3886C116.244 10.7913 116.128 10.334 115.894 10.0166C115.67 9.69929 115.32 9.54062 114.844 9.54062C114.359 9.54062 113.967 9.71796 113.668 10.0726C113.379 10.4273 113.234 10.922 113.234 11.5566V15.1406H111.442V11.3886C111.442 10.7913 111.326 10.334 111.092 10.0166C110.859 9.69929 110.5 9.54062 110.014 9.54062C109.538 9.54062 109.151 9.71796 108.852 10.0726C108.563 10.4273 108.418 10.922 108.418 11.5566V15.1406H106.626ZM123.112 15.3086C122.412 15.3086 121.791 15.1593 121.25 14.8606C120.708 14.562 120.284 14.142 119.976 13.6006C119.668 13.0593 119.514 12.434 119.514 11.7246C119.514 11.006 119.663 10.3666 119.962 9.80662C120.27 9.24662 120.69 8.81262 121.222 8.50462C121.763 8.18729 122.398 8.02862 123.126 8.02862C123.807 8.02862 124.409 8.17796 124.932 8.47662C125.454 8.77529 125.86 9.18596 126.15 9.70862C126.448 10.222 126.598 10.796 126.598 11.4306C126.598 11.5333 126.593 11.6406 126.584 11.7526C126.584 11.8646 126.579 11.9813 126.57 12.1026H121.292C121.329 12.644 121.516 13.0686 121.852 13.3766C122.197 13.6846 122.612 13.8386 123.098 13.8386C123.462 13.8386 123.765 13.7593 124.008 13.6006C124.26 13.4326 124.446 13.218 124.568 12.9566H126.388C126.257 13.3953 126.038 13.7966 125.73 14.1606C125.431 14.5153 125.058 14.7953 124.61 15.0006C124.171 15.206 123.672 15.3086 123.112 15.3086ZM123.126 9.48462C122.687 9.48462 122.3 9.61062 121.964 9.86262C121.628 10.1053 121.413 10.4786 121.32 10.9826H124.778C124.75 10.5253 124.582 10.1613 124.274 9.89062C123.966 9.61996 123.583 9.48462 123.126 9.48462Z" fill="white"/>
<path d="M61.3672 62.1758V48.8758H66.2882C67.3522 48.8758 68.2325 49.0531 68.9292 49.4078C69.6259 49.7624 70.1452 50.2501 70.4872 50.8708C70.8292 51.4914 71.0002 52.1881 71.0002 52.9608C71.0002 53.6954 70.8355 54.3731 70.5062 54.9938C70.1769 55.6018 69.6639 56.0958 68.9672 56.4758C68.2705 56.8431 67.3775 57.0268 66.2882 57.0268H63.7992V62.1758H61.3672ZM63.7992 55.0508H66.1362C66.9849 55.0508 67.5929 54.8671 67.9602 54.4998C68.3402 54.1198 68.5302 53.6068 68.5302 52.9608C68.5302 52.3021 68.3402 51.7891 67.9602 51.4218C67.5929 51.0418 66.9849 50.8518 66.1362 50.8518H63.7992V55.0508ZM74.1622 51.2888C73.7189 51.2888 73.3515 51.1558 73.0602 50.8898C72.7815 50.6238 72.6422 50.2881 72.6422 49.8828C72.6422 49.4774 72.7815 49.1481 73.0602 48.8948C73.3515 48.6288 73.7189 48.4958 74.1622 48.4958C74.6055 48.4958 74.9665 48.6288 75.2452 48.8948C75.5365 49.1481 75.6822 49.4774 75.6822 49.8828C75.6822 50.2881 75.5365 50.6238 75.2452 50.8898C74.9665 51.1558 74.6055 51.2888 74.1622 51.2888ZM72.9462 62.1758V52.7518H75.3782V62.1758H72.9462ZM82.5336 62.4038C81.571 62.4038 80.7223 62.1948 79.9876 61.7768C79.253 61.3588 78.6703 60.7761 78.2396 60.0288C77.8216 59.2814 77.6126 58.4264 77.6126 57.4638C77.6126 56.5011 77.8216 55.6461 78.2396 54.8988C78.6703 54.1514 79.253 53.5688 79.9876 53.1508C80.7223 52.7328 81.571 52.5238 82.5336 52.5238C83.737 52.5238 84.7503 52.8404 85.5736 53.4738C86.397 54.0944 86.9226 54.9558 87.1506 56.0578H84.5856C84.459 55.6018 84.2056 55.2471 83.8256 54.9938C83.4583 54.7278 83.0213 54.5948 82.5146 54.5948C81.8433 54.5948 81.2733 54.8481 80.8046 55.3548C80.336 55.8614 80.1016 56.5644 80.1016 57.4638C80.1016 58.3631 80.336 59.0661 80.8046 59.5728C81.2733 60.0794 81.8433 60.3328 82.5146 60.3328C83.0213 60.3328 83.4583 60.2061 83.8256 59.9528C84.2056 59.6994 84.459 59.3384 84.5856 58.8698H87.1506C86.9226 59.9338 86.397 60.7888 85.5736 61.4348C84.7503 62.0808 83.737 62.4038 82.5336 62.4038ZM93.3783 62.1758C92.3903 62.1758 91.5987 61.9351 91.0033 61.4538C90.408 60.9724 90.1103 60.1174 90.1103 58.8888V54.7848H88.4953V52.7518H90.1103L90.3953 50.2248H92.5423V52.7518H95.0883V54.7848H92.5423V58.9078C92.5423 59.3638 92.6373 59.6804 92.8273 59.8578C93.03 60.0224 93.372 60.1048 93.8533 60.1048H95.0313V62.1758H93.3783ZM98.4874 51.2888C98.0441 51.2888 97.6767 51.1558 97.3854 50.8898C97.1067 50.6238 96.9674 50.2881 96.9674 49.8828C96.9674 49.4774 97.1067 49.1481 97.3854 48.8948C97.6767 48.6288 98.0441 48.4958 98.4874 48.4958C98.9307 48.4958 99.2917 48.6288 99.5704 48.8948C99.8617 49.1481 100.007 49.4774 100.007 49.8828C100.007 50.2881 99.8617 50.6238 99.5704 50.8898C99.2917 51.1558 98.9307 51.2888 98.4874 51.2888ZM97.2714 62.1758V52.7518H99.7034V62.1758H97.2714ZM106.764 62.4038C105.852 62.4038 105.029 62.1948 104.294 61.7768C103.572 61.3588 102.996 60.7824 102.565 60.0478C102.147 59.3004 101.938 58.4391 101.938 57.4638C101.938 56.4884 102.153 55.6334 102.584 54.8988C103.015 54.1514 103.591 53.5688 104.313 53.1508C105.048 52.7328 105.871 52.5238 106.783 52.5238C107.682 52.5238 108.493 52.7328 109.215 53.1508C109.95 53.5688 110.526 54.1514 110.944 54.8988C111.375 55.6334 111.59 56.4884 111.59 57.4638C111.59 58.4391 111.375 59.3004 110.944 60.0478C110.526 60.7824 109.95 61.3588 109.215 61.7768C108.48 62.1948 107.663 62.4038 106.764 62.4038ZM106.764 60.2948C107.397 60.2948 107.948 60.0604 108.417 59.5918C108.886 59.1104 109.12 58.4011 109.12 57.4638C109.12 56.5264 108.886 55.8234 108.417 55.3548C107.948 54.8734 107.404 54.6328 106.783 54.6328C106.137 54.6328 105.58 54.8734 105.111 55.3548C104.655 55.8234 104.427 56.5264 104.427 57.4638C104.427 58.4011 104.655 59.1104 105.111 59.5918C105.58 60.0604 106.131 60.2948 106.764 60.2948ZM113.764 62.1758V52.7518H115.911L116.101 54.3478C116.393 53.7904 116.811 53.3471 117.355 53.0178C117.913 52.6884 118.565 52.5238 119.312 52.5238C120.478 52.5238 121.383 52.8911 122.029 53.6258C122.675 54.3604 122.998 55.4371 122.998 56.8558V62.1758H120.566V57.0838C120.566 56.2731 120.402 55.6524 120.072 55.2218C119.743 54.7911 119.23 54.5758 118.533 54.5758C117.849 54.5758 117.286 54.8164 116.842 55.2978C116.412 55.7791 116.196 56.4504 116.196 57.3118V62.1758H113.764ZM128.573 62.4038C127.762 62.4038 127.097 62.2771 126.578 62.0238C126.059 61.7578 125.672 61.4094 125.419 60.9788C125.166 60.5481 125.039 60.0731 125.039 59.5538C125.039 58.6798 125.381 57.9704 126.065 57.4258C126.749 56.8811 127.775 56.6088 129.143 56.6088H131.537V56.3808C131.537 55.7348 131.353 55.2598 130.986 54.9558C130.619 54.6518 130.163 54.4998 129.618 54.4998C129.124 54.4998 128.693 54.6201 128.326 54.8608C127.959 55.0888 127.731 55.4308 127.642 55.8868H125.267C125.33 55.2028 125.558 54.6074 125.951 54.1008C126.356 53.5941 126.876 53.2078 127.509 52.9418C128.142 52.6631 128.852 52.5238 129.637 52.5238C130.98 52.5238 132.037 52.8594 132.81 53.5308C133.583 54.2021 133.969 55.1521 133.969 56.3808V62.1758H131.898L131.67 60.6558C131.391 61.1624 130.999 61.5804 130.492 61.9098C129.998 62.2391 129.358 62.4038 128.573 62.4038ZM129.124 60.5038C129.821 60.5038 130.359 60.2758 130.739 59.8198C131.132 59.3638 131.379 58.8001 131.48 58.1288H129.409C128.763 58.1288 128.301 58.2491 128.022 58.4898C127.743 58.7178 127.604 59.0028 127.604 59.3448C127.604 59.7121 127.743 59.9971 128.022 60.1998C128.301 60.4024 128.668 60.5038 129.124 60.5038ZM136.29 62.1758V52.7518H138.456L138.684 54.5188C139.026 53.9108 139.488 53.4294 140.071 53.0748C140.666 52.7074 141.363 52.5238 142.161 52.5238V55.0888H141.477C140.945 55.0888 140.47 55.1711 140.052 55.3358C139.634 55.5004 139.304 55.7854 139.064 56.1908C138.836 56.5961 138.722 57.1598 138.722 57.8818V62.1758H136.29ZM145.001 66.3558L147.186 61.5488H146.616L142.949 52.7518H145.59L148.231 59.3828L150.986 52.7518H153.57L147.585 66.3558H145.001Z" fill="white"/>
<path d="M132.062 92.9863L132.091 93.0348C129.436 96.2809 129.26 101.326 129.254 101.365L128.693 100.727C128.7 100.687 129.389 96.2554 132.062 92.9863Z" fill="#444053"/>
<path d="M133.325 100.924C133.325 100.924 131.892 97.9776 133.167 96.0605" stroke="#444053" stroke-miterlimit="10"/>
<path d="M134.568 92.8407C134.568 92.8407 132.718 93.1647 132.459 92.5703" stroke="#444053" stroke-miterlimit="10"/>
<path d="M132.16 90.6562C132.16 90.6562 133.094 91.868 133.333 91.5963" stroke="#444053" stroke-miterlimit="10"/>
<path d="M130.454 91.6699C130.454 91.6699 130.454 94.3804 129.701 94.573" stroke="#444053" stroke-miterlimit="10"/>
<path d="M124.297 95.1814C124.297 95.1814 127.293 95.4365 128.67 93.9199" stroke="#444053" stroke-miterlimit="10"/>
<path d="M122.5 92.2867C122.5 92.2867 124.618 93.0073 126.441 91.1719" stroke="#444053" stroke-miterlimit="10"/>
<path d="M117.588 125.34L117.573 125.836L116.693 156.26H115.213L115.937 125.836L115.952 125.264L117.588 125.34Z" fill="#504F60"/>
<path opacity="0.1" d="M117.588 125.34L117.573 125.836L116.693 156.26H115.213L115.937 125.836L115.952 125.264L117.588 125.34Z" fill="black"/>
<path d="M126.156 151.107L125.049 151.105L108.577 151.07L107.699 151.069L108.167 149.658H126.04L126.156 151.107Z" fill="#504F60"/>
<path opacity="0.1" d="M117.588 125.34L117.574 125.836H115.938L115.952 125.264L117.588 125.34Z" fill="black"/>
<path d="M118.21 124.594H115.465V125.605H118.21V124.594Z" fill="#504F60"/>
<path opacity="0.1" d="M108.723 149.658L108.577 151.07L107.699 151.069L108.167 149.658H108.723Z" fill="black"/>
<path d="M111.081 124.574L111.037 125.013L107.383 160.298L105.709 160.221L109.558 125.013L109.601 124.612L111.081 124.574Z" fill="#504F60"/>
<path opacity="0.1" d="M126.153 151.107L125.046 151.105L124.895 149.658H126.037L126.153 151.107Z" fill="black"/>
<path d="M127.903 160.221L126.228 160.298L122.575 125.013L122.529 124.574L124.009 124.612L124.052 125.013L127.903 160.221Z" fill="#504F60"/>
<path d="M135.032 89.7852H98.1191V124.441H135.032V89.7852Z" fill="white"/>
<path d="M135.032 89.7852H98.1191V124.441H135.032V89.7852Z" fill="white"/>
<path d="M117.296 78.1963V86.5636H115.856V78.1963C115.852 78.1012 115.868 78.0063 115.902 77.9173C115.936 77.8283 115.989 77.7469 116.056 77.6782C116.123 77.6095 116.204 77.5549 116.293 77.5175C116.382 77.4802 116.479 77.4609 116.576 77.4609C116.673 77.4609 116.769 77.4802 116.859 77.5175C116.948 77.5549 117.029 77.6095 117.096 77.6782C117.163 77.7469 117.216 77.8283 117.25 77.9173C117.284 78.0063 117.3 78.1012 117.296 78.1963Z" fill="#504F60"/>
<path opacity="0.1" d="M117.296 85.8027H115.855V86.5642H117.296V85.8027Z" fill="black"/>
<path d="M117.86 86.3744V89.1384H115.295V86.3744C115.295 86.3293 115.304 86.2847 115.322 86.2431C115.339 86.2014 115.365 86.1636 115.398 86.1317C115.43 86.0999 115.469 86.0746 115.511 86.0574C115.554 86.0401 115.599 86.0312 115.645 86.0312H117.51C117.602 86.0316 117.691 86.0678 117.757 86.1321C117.823 86.1964 117.86 86.2835 117.86 86.3744Z" fill="#504F60"/>
<path opacity="0.1" d="M116.576 88.3163C116.877 88.3163 117.12 88.0776 117.12 87.7832C117.12 87.4887 116.877 87.25 116.576 87.25C116.275 87.25 116.031 87.4887 116.031 87.7832C116.031 88.0776 116.275 88.3163 116.576 88.3163Z" fill="black"/>
<path d="M116.576 88.203C116.877 88.203 117.12 87.9643 117.12 87.6699C117.12 87.3754 116.877 87.1367 116.576 87.1367C116.275 87.1367 116.031 87.3754 116.031 87.6699C116.031 87.9643 116.275 88.203 116.576 88.203Z" fill="#3F3D56"/>
<path opacity="0.1" d="M117.859 88.7949H115.289V89.138H117.859V88.7949Z" fill="black"/>
<path opacity="0.1" d="M118.913 89.252H114.24V90.0147H118.913V89.252Z" fill="black"/>
<path d="M118.913 89.0234H114.24V89.7862H118.913V89.0234Z" fill="#504F60"/>
<path opacity="0.1" d="M107.122 123.547H126.747C126.972 123.547 127.187 123.634 127.346 123.79C127.505 123.945 127.594 124.156 127.594 124.376V124.557H106.275V124.376C106.275 124.156 106.365 123.945 106.523 123.79C106.682 123.634 106.898 123.547 107.122 123.547Z" fill="black"/>
<path opacity="0.1" d="M109.604 124.612L111.083 124.574L111.039 125.013H109.561L109.604 124.612Z" fill="black"/>
<path opacity="0.1" d="M118.21 124.594H115.465V125.013H118.21V124.594Z" fill="black"/>
<path opacity="0.1" d="M124.052 125.013H122.575L122.529 124.574L124.009 124.612L124.052 125.013Z" fill="black"/>
<path d="M107.122 123.771H126.747C126.972 123.771 127.187 123.859 127.346 124.014C127.505 124.17 127.594 124.381 127.594 124.601V124.782H106.275V124.601C106.275 124.381 106.365 124.17 106.523 124.014C106.682 123.859 106.898 123.771 107.122 123.771Z" fill="#504F60"/>
<path d="M105.994 109.152C108.446 109.152 110.433 107.206 110.433 104.806C110.433 102.405 108.446 100.459 105.994 100.459C103.542 100.459 101.555 102.405 101.555 104.806C101.555 107.206 103.542 109.152 105.994 109.152Z" stroke="#01BDD7" stroke-width="1.8"/>
<path d="M116.537 109.152C118.989 109.152 120.976 107.206 120.976 104.806C120.976 102.405 118.989 100.459 116.537 100.459C114.085 100.459 112.098 102.405 112.098 104.806C112.098 107.206 114.085 109.152 116.537 109.152Z" stroke="#5B59E3" stroke-width="1.8"/>
<path d="M127.078 109.152C129.53 109.152 131.517 107.206 131.517 104.806C131.517 102.405 129.53 100.459 127.078 100.459C124.626 100.459 122.639 102.405 122.639 104.806C122.639 107.206 124.626 109.152 127.078 109.152Z" stroke="#F12587" stroke-width="1.8"/>
<path d="M111.266 113.561C113.717 113.561 115.705 111.615 115.705 109.214C115.705 106.813 113.717 104.867 111.266 104.867C108.814 104.867 106.826 106.813 106.826 109.214C106.826 111.615 108.814 113.561 111.266 113.561Z" stroke="#FFE500" stroke-width="1.8"/>
<path d="M121.809 113.561C124.26 113.561 126.248 111.615 126.248 109.214C126.248 106.813 124.26 104.867 121.809 104.867C119.357 104.867 117.369 106.813 117.369 109.214C117.369 111.615 119.357 113.561 121.809 113.561Z" stroke="#01AD5A" stroke-width="1.8"/>
<path d="M109.551 102.193C110.735 103.737 110.735 105.864 109.551 107.408" stroke="#01BDD7" stroke-width="1.8"/>
<path d="M127.079 109.153C126.122 109.153 125.181 108.846 124.42 108.285" stroke="#ED334E" stroke-width="1.8"/>
<path d="M84.7737 83.9628C84.3516 84.1427 83.9139 84.394 83.7471 84.8149C83.6429 85.0776 83.6612 85.3697 83.639 85.6503C83.582 86.3207 83.2908 86.9513 82.8144 87.436C82.4731 87.7804 82.0484 88.0381 81.7162 88.3888C81.1118 89.0266 80.8656 90.0215 81.259 90.8021C81.3814 91.047 81.5599 91.2625 81.6915 91.5036C81.9455 91.9654 82.0172 92.5011 82.0536 93.0253C82.1199 93.9413 82.0955 94.8614 81.9807 95.7727C81.9064 96.3556 81.797 96.9526 81.9364 97.524C82.0556 97.9316 82.2431 98.3169 82.4913 98.6643C83.1297 99.6464 83.8709 100.594 84.857 101.246C85.8745 101.918 87.1016 102.24 88.3248 102.334C89.5481 102.428 90.7791 102.311 91.9971 102.167C92.909 102.06 93.9746 101.836 94.3642 101.019C94.5804 100.561 94.5244 100.016 94.7276 99.5533C95.0937 98.7179 96.1489 98.4054 96.739 97.7115C97.3538 96.9857 97.3799 95.9424 97.2288 95.0113C97.0777 94.0801 96.7781 93.1554 96.8484 92.2141C96.9604 90.7026 98.0208 89.2281 97.5545 87.7804C97.3083 87.0036 96.666 86.4182 96.0329 85.8901C94.91 84.9526 93.7154 84.0636 92.3437 83.5304C91.1471 83.049 89.8283 82.939 88.5658 83.2154C87.2866 83.5024 86.0256 83.4322 84.7737 83.9628Z" fill="#FF3939"/>
<g opacity="0.08">
<path opacity="0.08" d="M82.0726 93.6105C82.0889 93.1295 82.0797 92.648 82.0452 92.1679C82.0087 91.6449 81.9371 91.1092 81.6831 90.6462C81.5528 90.4051 81.373 90.1908 81.2506 89.9459C81.1861 89.8165 81.138 89.6799 81.1073 89.5391C81.0095 89.9655 81.0599 90.4117 81.2506 90.8069C81.373 91.0518 81.5515 91.2674 81.6831 91.5084C81.9371 91.9702 82.0087 92.5059 82.0452 93.0301C82.0648 93.2227 82.0726 93.4166 82.0726 93.6105Z" fill="black"/>
<path opacity="0.08" d="M96.8457 91.3575C96.8292 91.6044 96.8336 91.8523 96.8588 92.0986C97.0021 90.7555 97.8332 89.4404 97.6339 88.1445C97.4919 89.2006 96.9239 90.2695 96.8457 91.3575Z" fill="black"/>
<path opacity="0.08" d="M96.7382 96.8531C96.1481 97.5534 95.0929 97.8595 94.7268 98.6937C94.5236 99.1579 94.5796 99.7026 94.3634 100.16C93.9726 100.978 92.9122 101.201 91.9964 101.308C90.7783 101.453 89.5486 101.571 88.3241 101.476C87.0995 101.38 85.8737 101.06 84.8563 100.388C83.8701 99.7358 83.1289 98.7881 82.4906 97.8046C82.2425 97.4577 82.0549 97.0727 81.9356 96.6656C81.9183 96.5958 81.9048 96.5251 81.8952 96.4539C81.8473 96.8111 81.8609 97.1737 81.9356 97.5266C82.0548 97.9342 82.2423 98.3195 82.4906 98.6669C83.1289 99.649 83.8701 100.597 84.8563 101.249C85.8737 101.921 87.1008 102.242 88.3241 102.337C89.5473 102.431 90.7783 102.314 91.9964 102.169C92.9082 102.062 93.9739 101.839 94.3634 101.021C94.5796 100.564 94.5236 100.019 94.7268 99.5559C95.0929 98.7205 96.1481 98.408 96.7382 97.7141C97.2593 97.1018 97.3557 96.2638 97.284 95.459C97.2489 95.9667 97.0587 96.4525 96.7382 96.8531Z" fill="black"/>
</g>
<path d="M93.8719 102.726C93.4042 103.236 92.6995 103.503 91.996 103.537C91.2918 103.551 90.5935 103.409 89.9534 103.121C88.7739 102.614 87.7466 101.82 86.9695 100.814C86.1924 99.8075 85.6912 98.6234 85.5138 97.374C85.4755 97.1847 85.484 96.9892 85.5385 96.8038C85.7274 96.2834 86.4296 96.1992 86.9012 95.8906C87.331 95.6112 87.572 95.1253 87.6919 94.6291C87.7232 94.4952 87.7492 94.3612 87.7701 94.2248C87.8248 93.8612 87.8534 93.4926 87.9186 93.1304C87.9397 92.9555 88.0012 92.7875 88.0983 92.6393C88.2227 92.4886 88.386 92.3732 88.5712 92.3051C89.672 91.837 91.1063 92.05 92.2005 92.4556C92.5666 92.5921 92.4962 92.6329 92.3569 92.985C92.2673 93.2092 92.1894 93.4379 92.1237 93.6699C92.1041 93.735 92.0859 93.7975 92.069 93.8663C91.9137 94.4656 91.8333 95.081 91.8293 95.6992C91.8293 96.2656 91.8957 96.8587 92.2123 97.3344C92.7164 98.0883 93.7416 98.4059 94.2002 99.1877C94.3672 99.499 94.4686 99.8399 94.4985 100.19C94.6092 101.079 94.4829 102.056 93.8719 102.726Z" fill="#FBBEBE"/>
<path d="M82.0831 159.562C81.9856 159.916 81.9417 160.283 81.9529 160.651L81.9164 162.564C81.8903 163.944 81.8682 165.351 82.2838 166.67C82.4105 167.131 82.6371 167.56 82.9481 167.928C83.1049 168.11 83.2991 168.258 83.5182 168.362C83.7373 168.466 83.9762 168.523 84.2196 168.531C84.421 168.523 84.6205 168.488 84.8123 168.428C85.1614 168.328 85.5262 168.172 85.7151 167.869C85.9665 167.463 85.8271 166.948 85.7268 166.484C85.504 165.451 85.5118 164.385 85.521 163.329L85.5431 160.749C85.5356 160.398 85.5583 160.048 85.6108 159.701C85.6617 159.424 85.7502 159.152 85.7724 158.873C85.8024 158.656 85.75 158.436 85.6252 158.254C85.4993 158.113 85.3295 158.015 85.1419 157.977C84.8071 157.893 84.4554 157.915 84.1127 157.864C83.9592 157.844 83.8097 157.801 83.6698 157.736C83.5864 157.697 83.4093 157.514 83.3233 157.516C83.154 157.516 83.0432 157.971 82.9494 158.128C82.6615 158.601 82.2603 159.023 82.0831 159.562Z" fill="#FBBEBE"/>
<path d="M92.8767 141.83C91.9492 144.541 92.5797 147.534 92.2436 150.386C92.1218 151.287 91.9509 152.181 91.7316 153.064L90.1202 160.09C89.8532 161.258 89.5835 162.434 89.547 163.631C89.5105 164.827 89.719 166.054 90.3495 167.083C90.7252 167.681 91.2297 168.19 91.8275 168.577C92.4254 168.963 93.1022 169.217 93.8107 169.321C94.0395 169.352 94.2559 169.441 94.4387 169.579C94.6215 169.717 94.7642 169.9 94.8529 170.109C94.8799 170.175 94.9004 170.243 94.9141 170.313C94.9509 170.481 94.9419 170.656 94.8882 170.82C94.8345 170.984 94.7379 171.131 94.608 171.247C94.3475 171.451 93.9931 171.479 93.6635 171.452C92.1159 171.324 90.825 170.192 89.2956 169.921C87.9799 169.69 86.5599 170.111 85.3198 169.628C85.2387 169.6 85.164 169.556 85.0996 169.5C85.0271 169.427 84.9751 169.336 84.9485 169.238C84.6567 168.345 85.2559 167.442 85.6519 166.59C86.2154 165.373 86.3898 164.018 86.1522 162.702C85.8812 161.217 86.1613 159.648 86.2421 158.136C86.3281 156.734 86.5232 155.34 86.8257 153.967C87.0211 153.05 87.1865 152.113 87.5669 151.252C87.7949 150.742 88.0958 150.256 88.3355 149.747C88.7784 148.807 89.0051 147.785 89.2239 146.772C89.6643 144.731 90.0915 142.674 90.0915 140.59C90.9112 140.588 91.724 140.737 92.4872 141.03C92.6424 141.092 92.7683 141.208 92.8404 141.356C92.9125 141.504 92.9254 141.673 92.8767 141.83Z" fill="#FBBEBE"/>
<path opacity="0.08" d="M92.8767 141.83C91.9492 144.541 92.5797 147.534 92.2436 150.386C92.1218 151.287 91.9509 152.181 91.7316 153.064L90.1202 160.09C89.8532 161.258 89.5835 162.434 89.547 163.631C89.5105 164.827 89.719 166.054 90.3495 167.083C90.7252 167.681 91.2297 168.19 91.8275 168.577C92.4254 168.963 93.1022 169.217 93.8107 169.321C94.0395 169.352 94.2559 169.441 94.4387 169.579C94.6215 169.717 94.7642 169.9 94.8529 170.109C94.8799 170.175 94.9004 170.243 94.9141 170.313C94.9509 170.481 94.9419 170.656 94.8882 170.82C94.8345 170.984 94.7379 171.131 94.608 171.247C94.3475 171.451 93.9931 171.479 93.6635 171.452C92.1159 171.324 90.825 170.192 89.2956 169.921C87.9799 169.69 86.5599 170.111 85.3198 169.628C85.2387 169.6 85.164 169.556 85.0996 169.5C85.0271 169.427 84.9751 169.336 84.9485 169.238C84.6567 168.345 85.2559 167.442 85.6519 166.59C86.2154 165.373 86.3898 164.018 86.1522 162.702C85.8812 161.217 86.1613 159.648 86.2421 158.136C86.3281 156.734 86.5232 155.34 86.8257 153.967C87.0211 153.05 87.1865 152.113 87.5669 151.252C87.7949 150.742 88.0958 150.256 88.3355 149.747C88.7784 148.807 89.0051 147.785 89.2239 146.772C89.6643 144.731 90.0915 142.674 90.0915 140.59C90.9112 140.588 91.724 140.737 92.4872 141.03C92.6424 141.092 92.7683 141.208 92.8404 141.356C92.9125 141.504 92.9254 141.673 92.8767 141.83Z" fill="black"/>
<path d="M93.8066 140.552C93.7545 141.87 93.7046 143.188 93.6568 144.506C93.6568 144.551 93.6568 144.594 93.6568 144.634C93.6506 145.139 93.6071 145.643 93.5266 146.143C93.3507 147.079 92.9182 147.949 92.4609 148.789C92.3249 149.056 92.1686 149.311 91.9933 149.555C91.8396 149.759 91.6611 149.945 91.5178 150.154C91.1465 150.698 91.0319 151.363 90.8143 151.981C89.8204 154.797 86.7186 156.496 85.6791 159.294C84.8918 159.079 84.1219 158.807 83.3759 158.479C83.3004 158.464 83.229 158.434 83.1666 158.389C83.1042 158.345 83.0522 158.288 83.0141 158.223C82.976 158.157 82.9526 158.084 82.9456 158.009C82.9386 157.934 82.9481 157.858 82.9734 157.787C83.2105 156.074 83.6247 154.388 84.039 152.704C84.3165 151.57 84.6057 150.417 85.2284 149.422C85.7494 148.59 86.4829 147.912 87.1707 147.205C87.4169 146.95 87.6709 146.669 87.7282 146.324C87.7506 146.11 87.7352 145.895 87.6826 145.686C87.5419 144.921 87.4403 144.149 87.3778 143.371C87.3778 143.328 87.3778 143.283 87.3661 143.243C87.3075 142.658 87.1655 141.897 87.2957 141.349C87.5315 140.354 89.5103 140.15 90.3766 140.13C91.5243 140.098 92.672 140.323 93.8066 140.552Z" fill="#FBBEBE"/>
<path d="M96.1581 114.102C97.4725 114.649 98.9785 114.492 100.374 114.185C101.769 113.877 103.15 113.431 104.579 113.42C104.979 113.42 105.482 113.536 105.551 113.922C105.587 114.124 105.479 114.321 105.375 114.5C105.183 114.83 104.977 115.175 104.648 115.374C104.387 115.528 104.088 115.579 103.798 115.659C103.258 115.81 102.756 116.073 102.235 116.274C101.351 116.616 100.411 116.784 99.4696 116.945C99.0327 117.04 98.5853 117.08 98.1382 117.064C97.8399 117.033 97.545 116.975 97.2576 116.891C96.4108 116.667 95.5736 116.412 94.746 116.126C94.5818 116.069 94.3995 115.999 94.3343 115.835C94.3043 115.737 94.2976 115.633 94.3148 115.532C94.3477 115.122 94.3107 114.709 94.2054 114.311C94.152 114.112 93.7338 113.402 93.8745 113.258C94.1988 112.922 95.8298 113.965 96.1581 114.102Z" fill="#FBBEBE"/>
<path opacity="0.08" d="M96.1581 114.102C97.4725 114.649 98.9785 114.492 100.374 114.185C101.769 113.877 103.15 113.431 104.579 113.42C104.979 113.42 105.482 113.536 105.551 113.922C105.587 114.124 105.479 114.321 105.375 114.5C105.183 114.83 104.977 115.175 104.648 115.374C104.387 115.528 104.088 115.579 103.798 115.659C103.258 115.81 102.756 116.073 102.235 116.274C101.351 116.616 100.411 116.784 99.4696 116.945C99.0327 117.04 98.5853 117.08 98.1382 117.064C97.8399 117.033 97.545 116.975 97.2576 116.891C96.4108 116.667 95.5736 116.412 94.746 116.126C94.5818 116.069 94.3995 115.999 94.3343 115.835C94.3043 115.737 94.2976 115.633 94.3148 115.532C94.3477 115.122 94.3107 114.709 94.2054 114.311C94.152 114.112 93.7338 113.402 93.8745 113.258C94.1988 112.922 95.8298 113.965 96.1581 114.102Z" fill="black"/>
<path opacity="0.1" d="M92.3602 92.985C92.2706 93.2092 92.1928 93.4379 92.1271 93.6699C91.5185 94.1354 90.7935 94.4325 90.0277 94.5301C89.2619 94.6277 88.4834 94.5222 87.7734 94.2248C87.8282 93.8612 87.8568 93.4926 87.9219 93.1304C87.9431 92.9555 88.0046 92.7875 88.1017 92.6393C88.2261 92.4886 88.3893 92.3732 88.5746 92.3051C89.6754 91.837 91.1096 92.05 92.2039 92.4556C92.57 92.5921 92.4983 92.6329 92.3602 92.985Z" fill="black"/>
<path d="M89.4728 94.3924C91.8535 94.3924 93.7834 92.5028 93.7834 90.1718C93.7834 87.8408 91.8535 85.9512 89.4728 85.9512C87.0921 85.9512 85.1621 87.8408 85.1621 90.1718C85.1621 92.5028 87.0921 94.3924 89.4728 94.3924Z" fill="#FBBEBE"/>
<path opacity="0.08" d="M93.8045 140.552C93.7524 141.87 93.7024 143.188 93.6546 144.506C92.9629 144.545 92.2751 144.347 91.6107 144.153C90.2273 143.753 88.7852 143.358 87.3561 143.241C87.2975 142.656 87.1555 141.894 87.2858 141.347C87.5215 140.352 89.5003 140.148 90.3666 140.128C91.5221 140.098 92.6698 140.323 93.8045 140.552Z" fill="black"/>
<path d="M98.2816 142.46C98.206 142.603 98.107 142.805 97.9845 142.7C96.5151 142.572 95.271 143.826 93.8042 143.975C93.0629 144.051 92.3256 143.839 91.6143 143.632C89.2226 142.938 86.6563 142.266 84.2814 143.004C84.2514 141.672 84.1344 140.344 83.931 139.028C83.707 137.585 83.3787 136.157 83.2093 134.706C82.8941 132.014 83.1286 129.287 82.8993 126.586C82.8081 125.497 82.6387 124.418 82.5423 123.329C82.3118 120.754 82.0564 118.013 83.1494 115.659C83.3057 115.319 83.4629 114.981 83.621 114.645C83.669 114.557 83.6995 114.46 83.7109 114.361C83.7127 114.311 83.7057 114.261 83.69 114.213C83.6262 113.999 83.4152 113.83 83.2888 113.629C83.0751 113.3 83.0986 112.879 83.1286 112.49C83.1429 112.325 83.1872 112.19 83.1989 112.025C82.7417 111.404 82.4746 110.695 82.274 109.953C82.0434 109.111 81.8975 108.228 81.6422 107.394C81.2318 106.055 80.5297 104.809 80.1858 103.451C80.0086 102.754 79.9956 102.002 79.9864 101.283C79.9845 100.99 80.0067 100.697 80.0529 100.408C80.1128 100.045 80.2522 99.704 80.5935 99.5471C80.8606 99.1644 80.9465 98.6912 80.9622 98.2269C80.9752 97.917 80.9622 97.5968 81.0768 97.3073C81.31 96.7308 81.9887 96.4578 82.6114 96.3673C83.2341 96.2767 83.8972 96.2984 84.4729 96.0395C84.6898 95.9353 84.8965 95.8119 85.0904 95.6708C85.8325 95.1873 86.5437 94.6599 87.2203 94.0918C87.2366 94.0758 87.2568 94.0644 87.279 94.0586C87.3089 94.0586 87.335 94.0777 87.3584 94.0969C87.9003 94.5688 88.4397 95.0407 88.9816 95.5114C89.2773 95.7665 89.573 96.0216 89.8453 96.306C90.2327 96.7053 90.5699 97.1485 90.8497 97.6262C90.9816 97.843 91.1 98.0675 91.204 98.2984C91.3673 98.6548 91.5002 99.0238 91.6013 99.4017C91.656 99.6019 91.7003 99.8035 91.7316 100.006C91.7563 100.153 91.7772 100.301 91.7915 100.451C91.7985 100.501 91.8037 100.55 91.8071 100.601C91.8979 100.582 91.9836 100.545 92.0586 100.492C92.1386 100.437 92.2006 100.36 92.237 100.27C92.2702 100.188 92.2934 100.103 92.3061 100.015C92.322 99.9045 92.3307 99.7928 92.3321 99.681C92.3321 99.5535 92.3413 99.4144 92.3413 99.2818C92.342 99.0494 92.3197 98.8174 92.2748 98.5892C92.1875 98.1708 91.9986 97.7792 91.884 97.3672C91.7694 96.9553 91.7329 96.4923 91.9465 96.1185C92.0273 95.977 92.1771 95.8392 92.3373 95.8724C92.3977 95.8927 92.4525 95.9263 92.4976 95.9705C92.5428 96.0147 92.5771 96.0684 92.5979 96.1275C92.6724 96.2961 92.7097 96.4782 92.7073 96.6619C92.7073 96.7512 92.7073 96.8239 92.7907 96.8685C92.8102 97.2869 93.1398 97.6338 93.4967 97.8596C93.8537 98.0854 94.2601 98.2499 94.5793 98.5292C94.9857 98.8813 95.2098 99.3838 95.4912 99.8379C95.6585 100.076 95.7954 100.333 95.8989 100.603C95.9621 100.862 95.9858 101.129 95.9693 101.395C95.9528 103.042 95.9345 104.689 95.9146 106.334C95.8846 107.027 95.9195 107.721 96.0188 108.408C96.0852 108.791 96.1933 109.164 96.2012 109.556C96.2285 110.635 95.4586 111.542 94.9245 112.49C94.5337 113.175 94.6783 114.041 95.0209 114.751C95.3635 115.462 95.8846 116.069 96.2845 116.747C97.7006 119.15 97.4687 122.104 97.3853 124.884C97.2577 129.202 97.597 133.522 98.3975 137.77C98.6919 139.338 99.0332 141.044 98.2816 142.46Z" fill="#3F3D56"/>
<path opacity="0.08" d="M91.7369 100.015C91.5936 100.015 91.4529 100.029 91.3109 100.044C91.3109 100.172 91.3109 100.299 91.3109 100.427C91.4698 100.427 91.6327 100.441 91.7929 100.46C91.8815 100.47 91.9714 100.481 92.06 100.501C92.3407 100.548 92.6074 100.654 92.8416 100.813C93.2793 101.118 93.5372 101.723 93.2884 102.187L93.1256 102.253C93.1916 102.426 93.1985 102.615 93.1451 102.791C93.0683 102.958 92.8142 103.055 92.6892 102.919C92.5485 102.762 92.6748 102.447 92.4859 102.35C92.4247 102.327 92.3567 102.327 92.2956 102.351C92.2345 102.374 92.1847 102.42 92.1564 102.478C92.1062 102.599 92.0939 102.732 92.1212 102.86C92.2515 103.869 92.7439 104.822 92.7621 105.84C92.7686 106.168 92.7752 106.555 92.5407 106.788C92.0917 107.237 91.6409 107.686 91.1885 108.136C90.3469 108.975 89.5041 109.816 88.6156 110.606C87.2404 111.833 85.7584 112.94 84.1865 113.914C84.021 114.017 83.8543 114.117 83.6875 114.217C83.6237 114.003 83.4126 113.835 83.2863 113.633C83.0726 113.304 83.0961 112.883 83.1261 112.494C83.1404 112.33 83.1847 112.194 83.1964 112.03C82.7392 111.409 82.4721 110.7 82.2715 109.957C82.3314 109.957 82.3887 109.957 82.4473 109.957C83.0753 109.948 83.6771 109.726 84.262 109.507C84.7883 109.324 85.3022 109.109 85.8005 108.863C86.5505 108.451 87.2498 107.956 87.8848 107.388C88.2847 107.049 88.7628 106.725 89.2904 106.694C89.6057 106.377 90.0929 106.198 90.2557 105.785C90.325 105.553 90.3326 105.308 90.2779 105.072C90.191 104.512 90.0687 103.959 89.9118 103.414C89.7815 102.987 89.8167 102.566 89.7346 102.128C89.6247 101.647 89.574 101.155 89.5835 100.663C89.6409 99.7404 90.1163 98.9024 90.5801 98.0988C90.6726 97.9445 90.7625 97.7876 90.8511 97.6307C90.9253 97.5031 91.0009 97.3756 91.0751 97.248C91.1637 97.2653 91.2437 97.3113 91.3021 97.3787C91.3605 97.4461 91.3939 97.5309 91.3969 97.6192C91.3976 97.7961 91.3566 97.9707 91.277 98.1294C91.2523 98.1881 91.2301 98.2468 91.2054 98.3054C90.9944 98.8246 90.7807 99.3437 90.5697 99.8641C90.9003 99.6841 91.2459 99.5318 91.6027 99.4088C91.7529 99.362 91.9067 99.3275 92.0626 99.3054C92.1562 99.2929 92.2507 99.2873 92.3453 99.2889C92.7921 99.2889 93.2428 99.4432 93.5177 99.785C93.6219 99.9126 93.6922 100.11 93.5815 100.233C93.167 100.119 92.7412 100.048 92.3114 100.022C92.1199 100.007 91.9284 100.003 91.7369 100.015Z" fill="black"/>
<path d="M97.8303 113.168L95.8945 119.714L106.803 116.097L108.21 110.412L97.8303 113.168ZM102.58 113.168C102.189 113.168 101.877 113.014 101.877 112.824C101.877 112.634 102.192 112.48 102.58 112.48C102.968 112.48 103.285 112.634 103.285 112.824C103.285 113.014 102.969 113.168 102.58 113.168Z" fill="#464353"/>
<path d="M89.9143 89.8292C92.4893 89.8292 94.5767 88.8264 94.5767 87.5894C94.5767 86.3524 92.4893 85.3496 89.9143 85.3496C87.3394 85.3496 85.252 86.3524 85.252 87.5894C85.252 88.8264 87.3394 89.8292 89.9143 89.8292Z" fill="#FF3939"/>
<path opacity="0.9" d="M99.4131 114.633C99.7534 114.633 100.029 114.556 100.029 114.461C100.029 114.366 99.7534 114.289 99.4131 114.289C99.0728 114.289 98.7969 114.366 98.7969 114.461C98.7969 114.556 99.0728 114.633 99.4131 114.633Z" fill="#5B59E3"/>
<path opacity="0.9" d="M98.706 115.495C99.0463 115.495 99.3222 115.418 99.3222 115.323C99.3222 115.227 99.0463 115.15 98.706 115.15C98.3657 115.15 98.0898 115.227 98.0898 115.323C98.0898 115.418 98.3657 115.495 98.706 115.495Z" fill="#FBBEBE"/>
<path opacity="0.9" d="M103.282 114.288C103.622 114.288 103.898 114.211 103.898 114.116C103.898 114.02 103.622 113.943 103.282 113.943C102.942 113.943 102.666 114.02 102.666 114.116C102.666 114.211 102.942 114.288 103.282 114.288Z" fill="#FBBEBE"/>
<path opacity="0.9" d="M99.2334 115.495C99.5737 115.495 99.8495 115.418 99.8495 115.323C99.8495 115.227 99.5737 115.15 99.2334 115.15C98.8931 115.15 98.6172 115.227 98.6172 115.323C98.6172 115.418 98.8931 115.495 99.2334 115.495Z" fill="#FBBEBE"/>
<path opacity="0.9" d="M98.1806 115.323C98.5209 115.323 98.7968 115.246 98.7968 115.151C98.7968 115.056 98.5209 114.979 98.1806 114.979C97.8403 114.979 97.5645 115.056 97.5645 115.151C97.5645 115.246 97.8403 115.323 98.1806 115.323Z" fill="#FBBEBE"/>
<path opacity="0.9" d="M98.1806 115.84C98.5209 115.84 98.7968 115.763 98.7968 115.668C98.7968 115.573 98.5209 115.496 98.1806 115.496C97.8403 115.496 97.5645 115.573 97.5645 115.668C97.5645 115.763 97.8403 115.84 98.1806 115.84Z" fill="#FBBEBE"/>
<path opacity="0.9" d="M99.5869 115.151C99.9272 115.151 100.203 115.074 100.203 114.979C100.203 114.884 99.9272 114.807 99.5869 114.807C99.2466 114.807 98.9707 114.884 98.9707 114.979C98.9707 115.074 99.2466 115.151 99.5869 115.151Z" fill="#FBBEBE"/>
<path opacity="0.9" d="M98.5322 114.805C98.8725 114.805 99.1484 114.728 99.1484 114.633C99.1484 114.538 98.8725 114.461 98.5322 114.461C98.1919 114.461 97.916 114.538 97.916 114.633C97.916 114.728 98.1919 114.805 98.5322 114.805Z" fill="#FBBEBE"/>
<path opacity="0.9" d="M99.7646 115.323C100.105 115.323 100.381 115.246 100.381 115.151C100.381 115.056 100.105 114.979 99.7646 114.979C99.4243 114.979 99.1484 115.056 99.1484 115.151C99.1484 115.246 99.4243 115.323 99.7646 115.323Z" fill="#5B59E3"/>
<path opacity="0.9" d="M100.118 114.46C100.458 114.46 100.734 114.383 100.734 114.287C100.734 114.192 100.458 114.115 100.118 114.115C99.7778 114.115 99.502 114.192 99.502 114.287C99.502 114.383 99.7778 114.46 100.118 114.46Z" fill="#5B59E3"/>
<path opacity="0.9" d="M100.118 114.805C100.458 114.805 100.734 114.728 100.734 114.633C100.734 114.538 100.458 114.461 100.118 114.461C99.7778 114.461 99.502 114.538 99.502 114.633C99.502 114.728 99.7778 114.805 100.118 114.805Z" fill="#5B59E3"/>
<path opacity="0.9" d="M100.292 115.323C100.632 115.323 100.908 115.246 100.908 115.151C100.908 115.056 100.632 114.979 100.292 114.979C99.9517 114.979 99.6758 115.056 99.6758 115.151C99.6758 115.246 99.9517 115.323 100.292 115.323Z" fill="#5B59E3"/>
<path opacity="0.9" d="M102.05 114.633C102.39 114.633 102.666 114.556 102.666 114.461C102.666 114.366 102.39 114.289 102.05 114.289C101.709 114.289 101.434 114.366 101.434 114.461C101.434 114.556 101.709 114.633 102.05 114.633Z" fill="#5B59E3"/>
<path opacity="0.9" d="M102.755 114.46C103.095 114.46 103.371 114.383 103.371 114.287C103.371 114.192 103.095 114.115 102.755 114.115C102.415 114.115 102.139 114.192 102.139 114.287C102.139 114.383 102.415 114.46 102.755 114.46Z" fill="#5B59E3"/>
<path opacity="0.9" d="M102.755 114.805C103.095 114.805 103.371 114.728 103.371 114.633C103.371 114.538 103.095 114.461 102.755 114.461C102.415 114.461 102.139 114.538 102.139 114.633C102.139 114.728 102.415 114.805 102.755 114.805Z" fill="#5B59E3"/>
<path opacity="0.9" d="M101.878 115.323C102.218 115.323 102.494 115.246 102.494 115.151C102.494 115.056 102.218 114.979 101.878 114.979C101.538 114.979 101.262 115.056 101.262 115.151C101.262 115.246 101.538 115.323 101.878 115.323Z" fill="#5B59E3"/>
<path opacity="0.9" d="M102.05 115.323C102.39 115.323 102.666 115.246 102.666 115.151C102.666 115.056 102.39 114.979 102.05 114.979C101.709 114.979 101.434 115.056 101.434 115.151C101.434 115.246 101.709 115.323 102.05 115.323Z" fill="#5B59E3"/>
<path opacity="0.9" d="M101.878 115.323C102.218 115.323 102.494 115.246 102.494 115.151C102.494 115.056 102.218 114.979 101.878 114.979C101.538 114.979 101.262 115.056 101.262 115.151C101.262 115.246 101.538 115.323 101.878 115.323Z" fill="#5B59E3"/>
<path opacity="0.9" d="M101.347 115.323C101.687 115.323 101.963 115.246 101.963 115.151C101.963 115.056 101.687 114.979 101.347 114.979C101.006 114.979 100.73 115.056 100.73 115.151C100.73 115.246 101.006 115.323 101.347 115.323Z" fill="#5B59E3"/>
<path opacity="0.9" d="M100.645 114.633C100.986 114.633 101.262 114.556 101.262 114.461C101.262 114.366 100.986 114.289 100.645 114.289C100.305 114.289 100.029 114.366 100.029 114.461C100.029 114.556 100.305 114.633 100.645 114.633Z" fill="#5B59E3"/>
<path opacity="0.9" d="M100.819 114.979C101.16 114.979 101.435 114.902 101.435 114.807C101.435 114.712 101.16 114.635 100.819 114.635C100.479 114.635 100.203 114.712 100.203 114.807C100.203 114.902 100.479 114.979 100.819 114.979Z" fill="#5B59E3"/>
<path opacity="0.9" d="M101.347 114.46C101.687 114.46 101.963 114.383 101.963 114.287C101.963 114.192 101.687 114.115 101.347 114.115C101.006 114.115 100.73 114.192 100.73 114.287C100.73 114.383 101.006 114.46 101.347 114.46Z" fill="#3F3D56"/>
<path opacity="0.9" d="M101.347 114.805C101.687 114.805 101.963 114.728 101.963 114.633C101.963 114.538 101.687 114.461 101.347 114.461C101.006 114.461 100.73 114.538 100.73 114.633C100.73 114.728 101.006 114.805 101.347 114.805Z" fill="#5B59E3"/>
<path d="M101.175 114.979C101.515 114.979 101.791 114.902 101.791 114.807C101.791 114.712 101.515 114.635 101.175 114.635C100.834 114.635 100.559 114.712 100.559 114.807C100.559 114.902 100.834 114.979 101.175 114.979Z" fill="#F86D70"/>
<path opacity="0.9" d="M101.878 114.979C102.218 114.979 102.494 114.902 102.494 114.807C102.494 114.712 102.218 114.635 101.878 114.635C101.538 114.635 101.262 114.712 101.262 114.807C101.262 114.902 101.538 114.979 101.878 114.979Z" fill="#5B59E3"/>
<path opacity="0.9" d="M102.228 115.667C102.568 115.667 102.844 115.59 102.844 115.494C102.844 115.399 102.568 115.322 102.228 115.322C101.887 115.322 101.611 115.399 101.611 115.494C101.611 115.59 101.887 115.667 102.228 115.667Z" fill="#5B59E3"/>
<path opacity="0.9" d="M102.577 114.805C102.917 114.805 103.193 114.728 103.193 114.633C103.193 114.538 102.917 114.461 102.577 114.461C102.237 114.461 101.961 114.538 101.961 114.633C101.961 114.728 102.237 114.805 102.577 114.805Z" fill="#5B59E3"/>
<path opacity="0.9" d="M102.577 115.151C102.917 115.151 103.193 115.074 103.193 114.979C103.193 114.884 102.917 114.807 102.577 114.807C102.237 114.807 101.961 114.884 101.961 114.979C101.961 115.074 102.237 115.151 102.577 115.151Z" fill="#5B59E3"/>
<path opacity="0.9" d="M102.755 115.667C103.095 115.667 103.371 115.59 103.371 115.494C103.371 115.399 103.095 115.322 102.755 115.322C102.415 115.322 102.139 115.399 102.139 115.494C102.139 115.59 102.415 115.667 102.755 115.667Z" fill="#5B59E3"/>
<path opacity="0.9" d="M104.515 114.979C104.855 114.979 105.131 114.902 105.131 114.807C105.131 114.712 104.855 114.635 104.515 114.635C104.174 114.635 103.898 114.712 103.898 114.807C103.898 114.902 104.174 114.979 104.515 114.979Z" fill="#5B59E3"/>
<path opacity="0.9" d="M105.222 114.805C105.562 114.805 105.838 114.728 105.838 114.633C105.838 114.538 105.562 114.461 105.222 114.461C104.881 114.461 104.605 114.538 104.605 114.633C104.605 114.728 104.881 114.805 105.222 114.805Z" fill="#5B59E3"/>
<path opacity="0.9" d="M105.222 115.151C105.562 115.151 105.838 115.074 105.838 114.979C105.838 114.884 105.562 114.807 105.222 114.807C104.881 114.807 104.605 114.884 104.605 114.979C104.605 115.074 104.881 115.151 105.222 115.151Z" fill="#A1616A"/>
<path opacity="0.9" d="M104.339 115.667C104.679 115.667 104.955 115.59 104.955 115.494C104.955 115.399 104.679 115.322 104.339 115.322C103.999 115.322 103.723 115.399 103.723 115.494C103.723 115.59 103.999 115.667 104.339 115.667Z" fill="#5B59E3"/>
<path opacity="0.9" d="M104.515 115.667C104.855 115.667 105.131 115.59 105.131 115.494C105.131 115.399 104.855 115.322 104.515 115.322C104.174 115.322 103.898 115.399 103.898 115.494C103.898 115.59 104.174 115.667 104.515 115.667Z" fill="#5B59E3"/>
<path opacity="0.9" d="M104.339 115.667C104.679 115.667 104.955 115.59 104.955 115.494C104.955 115.399 104.679 115.322 104.339 115.322C103.999 115.322 103.723 115.399 103.723 115.494C103.723 115.59 103.999 115.667 104.339 115.667Z" fill="#5B59E3"/>
<path d="M103.81 115.667C104.15 115.667 104.426 115.59 104.426 115.494C104.426 115.399 104.15 115.322 103.81 115.322C103.469 115.322 103.193 115.399 103.193 115.494C103.193 115.59 103.469 115.667 103.81 115.667Z" fill="#F86D70"/>
<path opacity="0.9" d="M103.108 114.979C103.449 114.979 103.725 114.902 103.725 114.807C103.725 114.712 103.449 114.635 103.108 114.635C102.768 114.635 102.492 114.712 102.492 114.807C102.492 114.902 102.768 114.979 103.108 114.979Z" fill="#5B59E3"/>
<path opacity="0.9" d="M103.282 115.323C103.622 115.323 103.898 115.246 103.898 115.151C103.898 115.056 103.622 114.979 103.282 114.979C102.942 114.979 102.666 115.056 102.666 115.151C102.666 115.246 102.942 115.323 103.282 115.323Z" fill="#5B59E3"/>
<path opacity="0.9" d="M103.81 114.805C104.15 114.805 104.426 114.728 104.426 114.633C104.426 114.538 104.15 114.461 103.81 114.461C103.469 114.461 103.193 114.538 103.193 114.633C103.193 114.728 103.469 114.805 103.81 114.805Z" fill="#A1616A"/>
<path d="M103.81 115.151C104.15 115.151 104.426 115.074 104.426 114.979C104.426 114.884 104.15 114.807 103.81 114.807C103.469 114.807 103.193 114.884 103.193 114.979C103.193 115.074 103.469 115.151 103.81 115.151Z" fill="#F86D70"/>
<path d="M103.638 115.323C103.978 115.323 104.254 115.246 104.254 115.151C104.254 115.056 103.978 114.979 103.638 114.979C103.297 114.979 103.021 115.056 103.021 115.151C103.021 115.246 103.297 115.323 103.638 115.323Z" fill="#F86D70"/>
<path opacity="0.9" d="M97.6549 116.542C97.9893 116.48 98.2459 116.355 98.228 116.261C98.2101 116.168 97.9244 116.142 97.59 116.203C97.2555 116.265 96.9989 116.39 97.0168 116.484C97.0347 116.577 97.3204 116.603 97.6549 116.542Z" fill="#5B59E3"/>
<path opacity="0.9" d="M98.1275 117.157C98.462 117.095 98.7186 116.97 98.7007 116.876C98.6828 116.783 98.3971 116.757 98.0626 116.818C97.7282 116.88 97.4716 117.005 97.4895 117.099C97.5074 117.192 97.7931 117.218 98.1275 117.157Z" fill="#5B59E3"/>
<path opacity="0.9" d="M98.3131 116.247C98.6475 116.185 98.9041 116.06 98.8862 115.966C98.8683 115.873 98.5826 115.847 98.2482 115.908C97.9137 115.97 97.6571 116.095 97.675 116.189C97.6929 116.282 97.9786 116.308 98.3131 116.247Z" fill="#5B59E3"/>
<path opacity="0.9" d="M97.966 116.702C98.2995 116.642 98.5557 116.517 98.5382 116.424C98.5207 116.331 98.2362 116.304 97.9027 116.364C97.5692 116.424 97.313 116.548 97.3305 116.641C97.348 116.735 97.6325 116.762 97.966 116.702Z" fill="#5B59E3"/>
<path opacity="0.9" d="M98.647 117.063C98.9815 117.002 99.2381 116.876 99.2202 116.783C99.2023 116.689 98.9166 116.663 98.5822 116.725C98.2477 116.786 97.9911 116.912 98.009 117.005C98.0269 117.099 98.3126 117.125 98.647 117.063Z" fill="#5B59E3"/>
<path opacity="0.9" d="M100.245 116.063C100.579 116.002 100.836 115.876 100.818 115.783C100.8 115.689 100.514 115.663 100.18 115.725C99.8454 115.786 99.5887 115.912 99.6067 116.005C99.6246 116.099 99.9102 116.125 100.245 116.063Z" fill="#5B59E3"/>
<path opacity="0.9" d="M100.909 115.77C101.243 115.709 101.5 115.583 101.482 115.49C101.464 115.396 101.178 115.37 100.844 115.432C100.509 115.493 100.253 115.619 100.271 115.712C100.289 115.806 100.574 115.832 100.909 115.77Z" fill="#5B59E3"/>
<path opacity="0.9" d="M100.967 116.108C101.302 116.047 101.558 115.921 101.541 115.828C101.523 115.734 101.237 115.708 100.902 115.77C100.568 115.831 100.311 115.957 100.329 116.05C100.347 116.144 100.633 116.17 100.967 116.108Z" fill="#5B59E3"/>
<path opacity="0.9" d="M100.202 116.776C100.536 116.715 100.793 116.589 100.775 116.495C100.757 116.402 100.471 116.376 100.137 116.438C99.8024 116.499 99.5458 116.625 99.5637 116.718C99.5816 116.812 99.8673 116.837 100.202 116.776Z" fill="#5B59E3"/>
<path opacity="0.9" d="M100.374 116.743C100.708 116.681 100.965 116.556 100.947 116.462C100.929 116.369 100.643 116.343 100.309 116.404C99.9743 116.466 99.7176 116.591 99.7356 116.685C99.7535 116.778 100.039 116.804 100.374 116.743Z" fill="#5B59E3"/>
<path opacity="0.9" d="M100.202 116.776C100.536 116.715 100.793 116.589 100.775 116.495C100.757 116.402 100.471 116.376 100.137 116.438C99.8024 116.499 99.5458 116.625 99.5637 116.718C99.5816 116.812 99.8673 116.837 100.202 116.776Z" fill="#5B59E3"/>
<path opacity="0.9" d="M99.6822 116.87C100.017 116.808 100.273 116.683 100.255 116.589C100.237 116.496 99.9518 116.47 99.6173 116.531C99.2829 116.593 99.0262 116.718 99.0442 116.812C99.0621 116.905 99.3477 116.931 99.6822 116.87Z" fill="#5B59E3"/>
<path opacity="0.9" d="M98.8638 116.321C99.1983 116.259 99.4549 116.134 99.437 116.04C99.4191 115.947 99.1334 115.921 98.799 115.982C98.4645 116.044 98.2079 116.17 98.2258 116.263C98.2437 116.356 98.5294 116.382 98.8638 116.321Z" fill="#3F3D56"/>
<path opacity="0.9" d="M99.1021 116.628C99.4366 116.566 99.6932 116.441 99.6753 116.347C99.6574 116.254 99.3717 116.228 99.0372 116.289C98.7028 116.351 98.4462 116.476 98.4641 116.57C98.482 116.663 98.7677 116.689 99.1021 116.628Z" fill="#5B59E3"/>
<path opacity="0.9" d="M99.5221 116.022C99.8565 115.961 100.113 115.835 100.095 115.742C100.077 115.648 99.7916 115.622 99.4572 115.684C99.1227 115.745 98.8661 115.871 98.884 115.964C98.9019 116.058 99.1876 116.084 99.5221 116.022Z" fill="#3F3D56"/>
<path opacity="0.9" d="M99.5846 116.362C99.919 116.3 100.176 116.175 100.158 116.081C100.14 115.988 99.8541 115.962 99.5197 116.023C99.1852 116.085 98.9286 116.211 98.9465 116.304C98.9644 116.397 99.2501 116.423 99.5846 116.362Z" fill="#5B59E3"/>
<path opacity="0.9" d="M99.4478 116.563C99.7823 116.502 100.039 116.376 100.021 116.283C100.003 116.189 99.7174 116.163 99.3829 116.225C99.0485 116.286 98.7919 116.412 98.8098 116.505C98.8277 116.599 99.1134 116.625 99.4478 116.563Z" fill="#3F3D56"/>
<path opacity="0.9" d="M100.139 116.434C100.474 116.373 100.73 116.247 100.712 116.154C100.694 116.06 100.409 116.034 100.074 116.096C99.7399 116.157 99.4833 116.283 99.5012 116.376C99.5191 116.47 99.8048 116.496 100.139 116.434Z" fill="#5B59E3"/>
<path opacity="0.9" d="M100.614 117.051C100.948 116.99 101.205 116.864 101.187 116.771C101.169 116.677 100.883 116.651 100.549 116.713C100.214 116.774 99.9579 116.9 99.9758 116.993C99.9937 117.087 100.279 117.113 100.614 117.051Z" fill="#5B59E3"/>
<path opacity="0.9" d="M100.797 116.139C101.132 116.078 101.389 115.952 101.371 115.859C101.353 115.765 101.067 115.739 100.733 115.801C100.398 115.862 100.141 115.988 100.159 116.081C100.177 116.175 100.463 116.201 100.797 116.139Z" fill="#5B59E3"/>
<path opacity="0.9" d="M100.866 116.479C101.2 116.418 101.457 116.292 101.439 116.199C101.421 116.105 101.135 116.079 100.801 116.141C100.466 116.202 100.21 116.328 100.228 116.421C100.246 116.515 100.531 116.541 100.866 116.479Z" fill="#5B59E3"/>
<path opacity="0.9" d="M101.129 116.956C101.464 116.894 101.721 116.769 101.703 116.675C101.685 116.582 101.399 116.556 101.065 116.617C100.73 116.679 100.474 116.804 100.491 116.898C100.509 116.991 100.795 117.017 101.129 116.956Z" fill="#5B59E3"/>
<path opacity="0.9" d="M102.733 115.958C103.067 115.896 103.324 115.771 103.306 115.677C103.288 115.584 103.003 115.558 102.668 115.619C102.334 115.681 102.077 115.806 102.095 115.9C102.113 115.993 102.399 116.019 102.733 115.958Z" fill="#5B59E3"/>
<path opacity="0.9" d="M103.391 115.665C103.726 115.603 103.982 115.478 103.964 115.384C103.946 115.291 103.661 115.265 103.326 115.326C102.992 115.388 102.735 115.513 102.753 115.607C102.771 115.7 103.057 115.726 103.391 115.665Z" fill="#5B59E3"/>
<path opacity="0.9" d="M103.456 116.003C103.79 115.941 104.047 115.816 104.029 115.722C104.011 115.629 103.725 115.603 103.391 115.664C103.056 115.726 102.8 115.851 102.818 115.945C102.836 116.038 103.121 116.064 103.456 116.003Z" fill="#A1616A"/>
<path opacity="0.9" d="M102.69 116.671C103.024 116.609 103.281 116.483 103.263 116.39C103.245 116.297 102.96 116.271 102.625 116.332C102.291 116.394 102.034 116.519 102.052 116.613C102.07 116.706 102.356 116.732 102.69 116.671Z" fill="#5B59E3"/>
<path opacity="0.9" d="M102.858 116.635C103.192 116.574 103.449 116.448 103.431 116.355C103.413 116.261 103.128 116.235 102.793 116.297C102.459 116.358 102.202 116.484 102.22 116.577C102.238 116.671 102.524 116.697 102.858 116.635Z" fill="#5B59E3"/>
<path opacity="0.9" d="M102.69 116.671C103.024 116.609 103.281 116.483 103.263 116.39C103.245 116.297 102.96 116.271 102.625 116.332C102.291 116.394 102.034 116.519 102.052 116.613C102.07 116.706 102.356 116.732 102.69 116.671Z" fill="#5B59E3"/>
<path opacity="0.9" d="M102.169 116.764C102.503 116.703 102.76 116.577 102.742 116.484C102.724 116.39 102.438 116.364 102.104 116.426C101.769 116.487 101.513 116.613 101.53 116.706C101.548 116.8 101.834 116.826 102.169 116.764Z" fill="#5B59E3"/>
<path opacity="0.9" d="M100.927 116.344C101.26 116.284 101.517 116.16 101.499 116.067C101.482 115.974 101.197 115.947 100.864 116.007C100.53 116.067 100.274 116.191 100.291 116.284C100.309 116.377 100.593 116.404 100.927 116.344Z" fill="#A1616A"/>
<path opacity="0.9" d="M101.587 116.52C101.921 116.459 102.178 116.333 102.16 116.24C102.142 116.146 101.856 116.12 101.522 116.182C101.187 116.243 100.931 116.369 100.948 116.462C100.966 116.556 101.252 116.582 101.587 116.52Z" fill="#5B59E3"/>
<path d="M87.4252 93.0312L87.2949 93.1588C87.2949 93.1588 93.2079 102.215 94.5171 103.178L94.9196 102.859C94.9196 102.859 93.4085 100.142 87.4252 93.0312Z" fill="#2F2E41"/>
<path d="M95.2674 103.192C95.2674 103.192 94.956 102.641 94.8362 102.751C94.7163 102.86 94.3307 103.116 94.3815 103.196C94.4323 103.276 94.7723 103.718 94.7723 103.718C94.7723 103.718 95.2179 103.705 95.3546 103.325L95.2674 103.192Z" fill="#464353"/>
<path opacity="0.9" d="M97.2396 106.082L97.1731 106.067C97.1731 106.067 97.2252 105.772 96.5127 105.469C96.3825 105.414 96.2494 105.366 96.1141 105.325C95.0198 104.987 94.5925 104.244 94.8114 103.714C94.8172 103.696 94.8241 103.678 94.8322 103.661L95.2881 103.311L95.3416 103.355C95.618 103.575 95.9196 103.763 96.2404 103.915C96.6524 104.098 96.9802 104.425 97.1601 104.831C97.3126 105.231 97.3403 105.667 97.2396 106.082Z" fill="#FDD8D8"/>
<path opacity="0.2" d="M95.2513 103.404C95.2513 103.404 95.4064 103.736 96.2218 104.128C97.0373 104.519 97.2106 105.658 97.2106 105.658C97.2106 105.658 96.7859 104.603 96.1333 104.409C95.4806 104.216 95.1914 103.464 95.1914 103.464L95.2513 103.404Z" stroke="#2F2E41" stroke-width="0.25" stroke-miterlimit="10"/>
<path opacity="0.2" d="M95.126 103.535C95.126 103.535 95.0896 103.983 95.6237 104.38C96.1578 104.776 97.1726 105.417 97.1947 105.718C97.1947 105.718 96.7062 105.219 96.2828 105.053C95.8595 104.887 95.2824 104.552 95.2172 104.241C95.2172 104.241 94.9827 103.753 95.0518 103.563L95.126 103.535Z" stroke="#2F2E41" stroke-width="0.25" stroke-miterlimit="10"/>
<path opacity="0.2" d="M94.9663 103.637C94.9663 103.637 94.7474 104.067 95.2815 104.667C95.5398 104.901 95.8497 105.073 96.1869 105.17C96.5626 105.298 96.8958 105.524 97.1509 105.823" stroke="#2F2E41" stroke-width="0.25" stroke-miterlimit="10"/>
<path opacity="0.9" d="M102.006 115.919C102.341 115.857 102.597 115.732 102.58 115.638C102.562 115.545 102.276 115.519 101.942 115.58C101.607 115.642 101.35 115.767 101.368 115.861C101.386 115.954 101.672 115.98 102.006 115.919Z" fill="#3F3D56"/>
<path opacity="0.9" d="M102.073 116.255C102.407 116.193 102.664 116.067 102.646 115.974C102.628 115.881 102.342 115.855 102.008 115.916C101.673 115.978 101.417 116.103 101.435 116.197C101.453 116.29 101.738 116.316 102.073 116.255Z" fill="#5B59E3"/>
<path opacity="0.9" d="M101.934 116.458C102.269 116.396 102.525 116.271 102.507 116.177C102.489 116.084 102.204 116.058 101.869 116.119C101.535 116.181 101.278 116.306 101.296 116.4C101.314 116.493 101.6 116.519 101.934 116.458Z" fill="#5B59E3"/>
<path d="M79.6826 103.618C79.6804 103.86 79.6427 104.101 79.5705 104.333C79.5197 104.455 79.4403 104.564 79.383 104.683C79.1289 105.193 79.241 105.791 79.2058 106.356C79.1768 106.677 79.1237 106.994 79.0469 107.307C78.7616 108.608 78.4763 109.91 78.135 111.201C78.0229 111.633 77.9096 112.109 78.1102 112.508C78.1623 112.612 78.2327 112.705 78.2757 112.812C78.3955 113.105 78.2848 113.45 78.389 113.747C78.4444 113.896 78.5487 114.023 78.6856 114.108C78.8225 114.193 78.9843 114.232 79.1459 114.217C79.2188 112.997 79.8037 111.856 80.5163 110.851C80.855 110.374 81.2341 109.909 81.7356 109.599C81.9818 109.447 82.2567 109.331 82.4547 109.12C82.6531 108.879 82.7778 108.588 82.8143 108.28C83.1582 106.395 82.3336 104.499 81.3813 102.825C81.1833 102.476 80.7638 101.702 80.3457 101.994C79.9275 102.286 79.7308 103.149 79.6826 103.618Z" fill="#3F3D56"/>
<path opacity="0.1" d="M89.9143 89.1383C87.5825 89.1383 85.6519 88.3168 85.3067 87.2441C85.2703 87.3555 85.2519 87.4716 85.252 87.5885C85.252 88.8245 87.3363 89.827 89.9143 89.827C92.4924 89.827 94.5754 88.8245 94.5754 87.5885C94.5755 87.4716 94.557 87.3555 94.5207 87.2441C94.1754 88.3168 92.2448 89.1383 89.9143 89.1383Z" fill="black"/>
<g opacity="0.1">
<path opacity="0.1" d="M79.3406 112.811C79.2963 112.704 79.226 112.611 79.1739 112.507C78.9733 112.108 79.0866 111.632 79.1999 111.2C79.5347 109.909 79.82 108.607 80.1118 107.306C80.1888 106.993 80.2415 106.676 80.2694 106.356C80.3046 105.791 80.1939 105.19 80.4466 104.682C80.5065 104.564 80.5834 104.454 80.6342 104.333C80.707 104.101 80.7447 103.86 80.7462 103.617C80.7867 103.195 80.9027 102.783 81.0888 102.4C81.0602 102.028 81.055 101.653 81.0498 101.286C81.0476 100.993 81.0702 100.7 81.1175 100.411C81.1761 100.047 81.3155 99.7064 81.6568 99.5495C81.9174 99.1669 82.0111 98.6937 82.0268 98.2294C82.0385 97.9195 82.0268 97.5993 82.1414 97.3098C82.3733 96.7332 83.0533 96.4603 83.6747 96.3697C84.2961 96.2792 84.9605 96.3008 85.5362 96.0419C85.7531 95.9378 85.9598 95.8144 86.1537 95.6733C86.7152 95.2906 87.278 94.908 87.8095 94.4858L87.3665 94.1031C87.3431 94.084 87.317 94.061 87.2871 94.0649C87.2649 94.0707 87.2447 94.0821 87.2284 94.098C86.5493 94.6665 85.8354 95.1938 85.0907 95.6771C84.8968 95.8182 84.6901 95.9416 84.4732 96.0457C83.8975 96.3008 83.2383 96.2817 82.6117 96.3735C81.9851 96.4654 81.309 96.7371 81.0771 97.3136C80.9599 97.6031 80.9755 97.9233 80.9625 98.2332C80.9468 98.6975 80.8609 99.172 80.5938 99.5534C80.2525 99.7103 80.1131 100.051 80.0532 100.414C80.0088 100.704 79.9883 100.997 79.992 101.289C79.992 101.657 80.0024 102.032 80.031 102.404C79.8443 102.787 79.7283 103.199 79.6884 103.621C79.6863 103.863 79.6486 104.104 79.5764 104.337C79.5256 104.458 79.4461 104.567 79.3888 104.686C79.1348 105.196 79.2468 105.794 79.2116 106.359C79.1826 106.68 79.1295 106.997 79.0527 107.31C78.7674 108.611 78.4821 109.913 78.1408 111.204C78.0288 111.636 77.9155 112.112 78.1161 112.511C78.1682 112.615 78.2385 112.708 78.2815 112.815C78.4014 113.108 78.2906 113.453 78.3949 113.75C78.4503 113.899 78.5546 114.026 78.6915 114.111C78.8284 114.196 78.9902 114.235 79.1517 114.22C79.1786 113.811 79.2574 113.407 79.3862 113.016C79.3805 112.946 79.3651 112.877 79.3406 112.811Z" fill="black"/>
<path opacity="0.1" d="M92.0731 97.9227C92.1395 98.0503 92.2034 98.1778 92.2607 98.3054C92.4245 98.6616 92.5575 99.0307 92.658 99.4087C92.7127 99.609 92.757 99.8105 92.7883 100.013C92.813 100.16 92.8339 100.308 92.8482 100.458C92.8543 100.508 92.8595 100.558 92.8638 100.608C92.9546 100.589 93.0403 100.552 93.1153 100.499C93.1958 100.443 93.2578 100.364 93.2937 100.273C93.3258 100.191 93.3486 100.106 93.3615 100.018C93.3778 99.9077 93.3869 99.7961 93.3888 99.6842C93.3888 99.5567 93.3966 99.4176 93.3966 99.285C93.3974 99.0526 93.3751 98.8206 93.3302 98.5924C93.2442 98.174 93.054 97.7824 92.9394 97.3705C92.9303 97.3411 92.9238 97.3092 92.9159 97.2786C92.8463 97.1554 92.8053 97.0186 92.7961 96.8781C92.7153 96.8335 92.7101 96.7608 92.7127 96.6715C92.7151 96.4878 92.6778 96.3056 92.6033 96.137C92.5825 96.078 92.5482 96.0243 92.5031 95.9801C92.4579 95.9359 92.4031 95.9023 92.3428 95.8819C92.1799 95.8488 92.0301 95.9865 91.9519 96.1281C91.7383 96.5018 91.7735 96.9661 91.8894 97.3768C91.9389 97.558 92.0067 97.7403 92.0731 97.9227Z" fill="black"/>
<path opacity="0.1" d="M84.9863 139.03C84.7635 137.587 84.434 136.159 84.2646 134.708C83.9507 132.016 84.1838 129.289 83.9559 126.589C83.8634 125.499 83.6953 124.42 83.5989 123.331C83.3684 120.756 83.113 118.015 84.2047 115.661C84.3623 115.322 84.5186 114.984 84.6763 114.647C84.7243 114.559 84.7548 114.462 84.7661 114.363C84.7686 114.313 84.7616 114.263 84.7453 114.215C84.6815 114.001 84.4704 113.832 84.3441 113.631C84.1317 113.302 84.1539 112.881 84.1838 112.492C84.1982 112.327 84.2425 112.192 84.2542 112.027C83.7969 111.406 83.5299 110.697 83.3293 109.955C83.2772 109.763 83.229 109.572 83.1834 109.377C83.0531 109.453 82.9228 109.521 82.7926 109.599C82.6085 109.714 82.4377 109.849 82.2832 110.001C82.4578 110.725 82.7669 111.412 83.1951 112.027C83.1834 112.192 83.1391 112.327 83.1247 112.492C83.0948 112.881 83.0713 113.302 83.285 113.631C83.4152 113.831 83.6224 114.001 83.6862 114.215C83.7019 114.263 83.7089 114.313 83.7071 114.363C83.6957 114.462 83.6652 114.559 83.6172 114.647C83.4591 114.987 83.3019 115.325 83.1456 115.661C82.0526 118.015 82.308 120.756 82.5385 123.331C82.6375 124.419 82.7991 125.499 82.8955 126.589C83.1247 129.289 82.8955 132.016 83.2055 134.708C83.3749 136.159 83.7031 137.587 83.9272 139.03C84.1306 140.346 84.2476 141.674 84.2776 143.006C84.6182 142.901 84.9667 142.823 85.3198 142.772C85.2862 141.519 85.1748 140.27 84.9863 139.03Z" fill="black"/>
<path opacity="0.1" d="M92.6719 143.638C90.8481 143.11 88.9319 142.598 87.0703 142.706C88.5945 142.79 90.1395 143.216 91.6167 143.638C92.328 143.845 93.0653 144.057 93.8066 143.982C93.8678 143.982 93.929 143.964 93.9903 143.955C93.5437 143.88 93.1032 143.774 92.6719 143.638Z" fill="black"/>
</g>
<path d="M78.6621 113.095L79.2353 114.452C79.3369 114.691 79.445 114.941 79.6509 115.103C79.7809 115.195 79.9302 115.257 80.0879 115.285C80.2457 115.314 80.4079 115.307 80.5627 115.266C80.8702 115.182 81.1631 115.053 81.4316 114.883C82.3005 114.4 83.1694 113.915 84.0149 113.391C85.586 112.416 87.068 111.309 88.4441 110.084C89.3325 109.293 90.1754 108.452 91.0169 107.613L92.3639 106.265C92.5984 106.033 92.5906 105.644 92.5854 105.317C92.5671 104.297 92.0643 103.348 91.9431 102.337C91.9165 102.209 91.9287 102.076 91.9783 101.955C92.0067 101.897 92.0566 101.851 92.1181 101.827C92.1795 101.804 92.2478 101.804 92.3092 101.827C92.4981 101.923 92.3717 102.239 92.5124 102.396C92.6427 102.533 92.8915 102.438 92.967 102.269C93.0222 102.092 93.0158 101.903 92.9488 101.73L93.1116 101.664C93.3605 101.2 93.1025 100.594 92.6648 100.289C92.2271 99.9842 91.6669 99.9166 91.1302 99.9064V99.5237C91.8942 99.4438 92.6667 99.5079 93.406 99.7125C93.5181 99.585 93.4464 99.3936 93.3422 99.2648C93.01 98.8528 92.4186 98.7138 91.8884 98.7852C91.3582 98.8567 90.8697 99.1015 90.3955 99.3439L91.1029 97.6079C91.1823 97.4492 91.2229 97.2745 91.2214 97.0977C91.2187 97.0095 91.1856 96.9248 91.1274 96.8573C91.0692 96.7899 90.9894 96.7438 90.901 96.7266L90.4059 97.5824C89.9422 98.3847 89.4667 99.224 89.4094 100.144C89.3986 100.637 89.4493 101.129 89.5605 101.61C89.6426 102.048 89.6139 102.468 89.7376 102.896C89.8953 103.441 90.0176 103.995 90.1037 104.554C90.1588 104.79 90.1507 105.036 90.0803 105.267C89.9187 105.681 89.4289 105.86 89.1163 106.178C88.5952 106.209 88.1106 106.533 87.7107 106.872C87.0756 107.44 86.3763 107.934 85.6263 108.346C85.1275 108.592 84.6137 108.807 84.0878 108.991C83.5016 109.21 82.8998 109.431 82.2732 109.441C81.8055 109.441 81.3235 109.337 80.878 109.475C80.2071 109.681 79.8358 110.368 79.5362 110.985L79.0399 112.006C78.8857 112.359 78.7594 112.723 78.6621 113.095Z" fill="#FBBEBE"/>
<path d="M80.4775 110.773C80.8253 110.285 81.2161 109.809 81.732 109.498C81.8284 109.439 81.9274 109.386 82.0251 109.331C81.6252 109.312 81.2226 109.257 80.8435 109.372C80.1544 109.583 79.7727 110.282 79.4627 110.919L78.9494 111.961C78.7904 112.32 78.6598 112.691 78.5586 113.071L79.0471 114.218H79.0588C79.1396 112.968 79.7428 111.803 80.4775 110.773Z" fill="#3F3D56"/>
<path d="M102.49 113.221C102.685 113.221 102.842 113.036 102.842 112.808C102.842 112.58 102.685 112.395 102.49 112.395C102.296 112.395 102.139 112.58 102.139 112.808C102.139 113.036 102.296 113.221 102.49 113.221Z" fill="#FBBEBE"/>
<path d="M102.49 113.428C102.685 113.428 102.842 113.243 102.842 113.015C102.842 112.787 102.685 112.602 102.49 112.602C102.296 112.602 102.139 112.787 102.139 113.015C102.139 113.243 102.296 113.428 102.49 113.428Z" fill="#FBBEBE"/>
<path opacity="0.9" d="M97.3188 106.363L97.2289 106.345C97.2289 106.345 97.2993 105.984 96.3379 105.614C96.3392 105.552 96.3479 105.491 96.3639 105.431C96.3736 105.381 96.3889 105.334 96.4095 105.288C96.4276 105.243 96.4508 105.2 96.4786 105.16C96.5323 105.068 96.6066 104.988 96.6961 104.928C96.7555 104.887 96.8216 104.857 96.8915 104.839C96.9424 104.825 96.995 104.818 97.0479 104.818C97.1023 104.819 97.1565 104.826 97.2094 104.839C97.3879 105.227 97.4569 105.728 97.3188 106.363Z" fill="#5B59E3"/>
<defs>
<filter id="filter0_d" x="0" y="18.9375" width="214" height="217.559" filterUnits="userSpaceOnUse" color-interpolation-filters="sRGB">
<feFlood flood-opacity="0" result="BackgroundImageFix"/>
<feColorMatrix in="SourceAlpha" type="matrix" values="0 0 0 0 0 0 0 0 0 0 0 0 0 0 0 0 0 0 127 0"/>
<feOffset dy="1"/>
<feGaussianBlur stdDeviation="1"/>
<feColorMatrix type="matrix" values="0 0 0 0 0.0588235 0 0 0 0 0.0588235 0 0 0 0 0.0588235 0 0 0 0.1 0"/>
<feBlend mode="normal" in2="BackgroundImageFix" result="effect1_dropShadow"/>
<feBlend mode="normal" in="SourceGraphic" in2="effect1_dropShadow" result="shape"/>
</filter>
</defs>
</svg>
