<svg width="240" height="260" viewBox="0 0 240 260" fill="none" xmlns="http://www.w3.org/2000/svg">
<g filter="url(#filter0_d)">
<rect x="2" y="21.9023" width="236" height="234.99" rx="20" fill="#4EA1FF"/>
</g>
<path fill-rule="evenodd" clip-rule="evenodd" d="M221 28.7559C216.032 28.7559 212 32.7037 212 37.568C212 42.4322 216.032 46.3801 221 46.3801C225.968 46.3801 230 42.4322 230 37.568C230 32.7037 225.968 28.7559 221 28.7559ZM220.1 33.1619V34.9243H221.9V33.1619H220.1ZM220.1 36.6868V41.974H221.9V36.6868H220.1ZM213.8 37.568C213.8 41.4541 217.031 44.6176 221 44.6176C224.969 44.6176 228.2 41.4541 228.2 37.568C228.2 33.6818 224.969 30.5183 221 30.5183C217.031 30.5183 213.8 33.6818 213.8 37.568Z" fill="white"/>
<path d="M37 10.3613C37 4.83848 41.4772 0.361328 47 0.361328H193C198.523 0.361328 203 4.83848 203 10.3613V21.902H37V10.3613Z" fill="#F12587"/>
<path d="M102.906 16.5123C101.85 16.5123 100.927 16.2723 100.138 15.7923C99.3485 15.3123 98.7352 14.6456 98.2979 13.7923C97.8605 12.9283 97.6419 11.9256 97.6419 10.7843C97.6419 9.63231 97.8659 8.61898 98.3139 7.74431C98.7725 6.85898 99.4179 6.17098 100.25 5.68031C101.093 5.17898 102.09 4.92831 103.242 4.92831C104.554 4.92831 105.642 5.24298 106.506 5.87231C107.37 6.50165 107.93 7.37098 108.186 8.48031H105.898C105.727 7.95765 105.418 7.55231 104.97 7.26431C104.522 6.96565 103.946 6.81631 103.242 6.81631C102.122 6.81631 101.258 7.17365 100.65 7.88831C100.042 8.59231 99.7379 9.56298 99.7379 10.8003C99.7379 12.0376 100.037 12.9976 100.634 13.6803C101.242 14.3523 102.063 14.6883 103.098 14.6883C104.111 14.6883 104.874 14.4163 105.386 13.8723C105.909 13.3176 106.223 12.5923 106.33 11.6963H103.498V10.1603H108.394V16.3203H106.506L106.346 14.8483C105.983 15.3816 105.53 15.7923 104.986 16.0803C104.442 16.3683 103.749 16.5123 102.906 16.5123ZM113.073 16.5123C112.39 16.5123 111.83 16.4056 111.393 16.1923C110.956 15.9683 110.63 15.675 110.417 15.3123C110.204 14.9496 110.097 14.5496 110.097 14.1123C110.097 13.3763 110.385 12.779 110.961 12.3203C111.537 11.8616 112.401 11.6323 113.553 11.6323H115.569V11.4403C115.569 10.8963 115.414 10.4963 115.105 10.2403C114.796 9.98431 114.412 9.85631 113.953 9.85631C113.537 9.85631 113.174 9.95765 112.865 10.1603C112.556 10.3523 112.364 10.6403 112.289 11.0243H110.289C110.342 10.4483 110.534 9.94698 110.865 9.52031C111.206 9.09365 111.644 8.76831 112.177 8.54431C112.71 8.30965 113.308 8.19231 113.969 8.19231C115.1 8.19231 115.99 8.47498 116.641 9.04031C117.292 9.60565 117.617 10.4056 117.617 11.4403V16.3203H115.873L115.681 15.0403C115.446 15.467 115.116 15.819 114.689 16.0963C114.273 16.3736 113.734 16.5123 113.073 16.5123ZM113.537 14.9123C114.124 14.9123 114.577 14.7203 114.897 14.3363C115.228 13.9523 115.436 13.4776 115.521 12.9123H113.777C113.233 12.9123 112.844 13.0136 112.609 13.2163C112.374 13.4083 112.257 13.6483 112.257 13.9363C112.257 14.2456 112.374 14.4856 112.609 14.6563C112.844 14.827 113.153 14.9123 113.537 14.9123ZM119.571 16.3203V8.38431H121.379L121.555 9.45631C121.811 9.07231 122.147 8.76831 122.563 8.54431C122.99 8.30965 123.481 8.19231 124.035 8.19231C125.262 8.19231 126.131 8.66698 126.643 9.61631C126.931 9.17898 127.315 8.83231 127.795 8.57631C128.286 8.32031 128.819 8.19231 129.395 8.19231C130.43 8.19231 131.225 8.50165 131.779 9.12031C132.334 9.73898 132.611 10.6456 132.611 11.8403V16.3203H130.563V12.0323C130.563 11.3496 130.43 10.827 130.163 10.4643C129.907 10.1016 129.507 9.92031 128.963 9.92031C128.409 9.92031 127.961 10.123 127.619 10.5283C127.289 10.9336 127.123 11.499 127.123 12.2243V16.3203H125.075V12.0323C125.075 11.3496 124.942 10.827 124.675 10.4643C124.409 10.1016 123.998 9.92031 123.443 9.92031C122.899 9.92031 122.457 10.123 122.115 10.5283C121.785 10.9336 121.619 11.499 121.619 12.2243V16.3203H119.571ZM138.412 16.5123C137.612 16.5123 136.902 16.3416 136.284 16.0003C135.665 15.659 135.18 15.179 134.828 14.5603C134.476 13.9416 134.3 13.227 134.3 12.4163C134.3 11.595 134.47 10.8643 134.812 10.2243C135.164 9.58431 135.644 9.08831 136.252 8.73631C136.87 8.37365 137.596 8.19231 138.428 8.19231C139.206 8.19231 139.894 8.36298 140.492 8.70431C141.089 9.04565 141.553 9.51498 141.884 10.1123C142.225 10.699 142.396 11.355 142.396 12.0803C142.396 12.1976 142.39 12.3203 142.38 12.4483C142.38 12.5763 142.374 12.7096 142.364 12.8483H136.332C136.374 13.467 136.588 13.9523 136.972 14.3043C137.366 14.6563 137.841 14.8323 138.396 14.8323C138.812 14.8323 139.158 14.7416 139.436 14.5603C139.724 14.3683 139.937 14.123 140.076 13.8243H142.156C142.006 14.3256 141.756 14.7843 141.404 15.2003C141.062 15.6056 140.636 15.9256 140.124 16.1603C139.622 16.395 139.052 16.5123 138.412 16.5123ZM138.428 9.85631C137.926 9.85631 137.484 10.0003 137.1 10.2883C136.716 10.5656 136.47 10.9923 136.364 11.5683H140.316C140.284 11.0456 140.092 10.6296 139.74 10.3203C139.388 10.011 138.95 9.85631 138.428 9.85631Z" fill="white"/>
<path d="M62.3586 74.5684V57.7684H68.5746C69.9186 57.7684 71.0306 57.9924 71.9106 58.4404C72.7906 58.8884 73.4466 59.5044 73.8786 60.2884C74.3106 61.0724 74.5266 61.9524 74.5266 62.9284C74.5266 63.8564 74.3186 64.7124 73.9026 65.4964C73.4866 66.2644 72.8386 66.8884 71.9586 67.3684C71.0786 67.8324 69.9506 68.0644 68.5746 68.0644H65.4306V74.5684H62.3586ZM65.4306 65.5684H68.3826C69.4546 65.5684 70.2226 65.3364 70.6866 64.8724C71.1666 64.3924 71.4066 63.7444 71.4066 62.9284C71.4066 62.0964 71.1666 61.4484 70.6866 60.9844C70.2226 60.5044 69.4546 60.2644 68.3826 60.2644H65.4306V65.5684ZM78.5207 60.8164C77.9607 60.8164 77.4967 60.6484 77.1287 60.3124C76.7767 59.9764 76.6007 59.5524 76.6007 59.0404C76.6007 58.5284 76.7767 58.1124 77.1287 57.7924C77.4967 57.4564 77.9607 57.2884 78.5207 57.2884C79.0807 57.2884 79.5367 57.4564 79.8887 57.7924C80.2567 58.1124 80.4407 58.5284 80.4407 59.0404C80.4407 59.5524 80.2567 59.9764 79.8887 60.3124C79.5367 60.6484 79.0807 60.8164 78.5207 60.8164ZM76.9847 74.5684V62.6644H80.0567V74.5684H76.9847ZM89.0951 74.8564C87.8791 74.8564 86.8071 74.5924 85.8791 74.0644C84.9511 73.5364 84.2151 72.8004 83.6711 71.8564C83.1431 70.9124 82.8791 69.8324 82.8791 68.6164C82.8791 67.4004 83.1431 66.3204 83.6711 65.3764C84.2151 64.4324 84.9511 63.6964 85.8791 63.1684C86.8071 62.6404 87.8791 62.3764 89.0951 62.3764C90.6151 62.3764 91.8951 62.7764 92.9351 63.5764C93.9751 64.3604 94.6391 65.4484 94.9271 66.8404H91.6871C91.5271 66.2644 91.2071 65.8164 90.7271 65.4964C90.2631 65.1604 89.7111 64.9924 89.0711 64.9924C88.2231 64.9924 87.5031 65.3124 86.9111 65.9524C86.3191 66.5924 86.0231 67.4804 86.0231 68.6164C86.0231 69.7524 86.3191 70.6404 86.9111 71.2804C87.5031 71.9204 88.2231 72.2404 89.0711 72.2404C89.7111 72.2404 90.2631 72.0804 90.7271 71.7604C91.2071 71.4404 91.5271 70.9844 91.6871 70.3924H94.9271C94.6391 71.7364 93.9751 72.8164 92.9351 73.6324C91.8951 74.4484 90.6151 74.8564 89.0951 74.8564ZM102.794 74.5684C101.546 74.5684 100.546 74.2644 99.7937 73.6564C99.0417 73.0484 98.6657 71.9684 98.6657 70.4164V65.2324H96.6257V62.6644H98.6657L99.0257 59.4724H101.738V62.6644H104.954V65.2324H101.738V70.4404C101.738 71.0164 101.858 71.4164 102.098 71.6404C102.354 71.8484 102.786 71.9524 103.394 71.9524H104.882V74.5684H102.794ZM109.247 60.8164C108.687 60.8164 108.223 60.6484 107.855 60.3124C107.503 59.9764 107.327 59.5524 107.327 59.0404C107.327 58.5284 107.503 58.1124 107.855 57.7924C108.223 57.4564 108.687 57.2884 109.247 57.2884C109.807 57.2884 110.263 57.4564 110.615 57.7924C110.983 58.1124 111.167 58.5284 111.167 59.0404C111.167 59.5524 110.983 59.9764 110.615 60.3124C110.263 60.6484 109.807 60.8164 109.247 60.8164ZM107.711 74.5684V62.6644H110.783V74.5684H107.711ZM119.702 74.8564C118.55 74.8564 117.51 74.5924 116.582 74.0644C115.67 73.5364 114.942 72.8084 114.398 71.8804C113.87 70.9364 113.606 69.8484 113.606 68.6164C113.606 67.3844 113.878 66.3044 114.422 65.3764C114.966 64.4324 115.694 63.6964 116.606 63.1684C117.534 62.6404 118.574 62.3764 119.726 62.3764C120.862 62.3764 121.886 62.6404 122.798 63.1684C123.726 63.6964 124.454 64.4324 124.982 65.3764C125.526 66.3044 125.798 67.3844 125.798 68.6164C125.798 69.8484 125.526 70.9364 124.982 71.8804C124.454 72.8084 123.726 73.5364 122.798 74.0644C121.87 74.5924 120.838 74.8564 119.702 74.8564ZM119.702 72.1924C120.502 72.1924 121.198 71.8964 121.79 71.3044C122.382 70.6964 122.678 69.8004 122.678 68.6164C122.678 67.4324 122.382 66.5444 121.79 65.9524C121.198 65.3444 120.51 65.0404 119.726 65.0404C118.91 65.0404 118.206 65.3444 117.614 65.9524C117.038 66.5444 116.75 67.4324 116.75 68.6164C116.75 69.8004 117.038 70.6964 117.614 71.3044C118.206 71.8964 118.902 72.1924 119.702 72.1924ZM128.544 74.5684V62.6644H131.256L131.496 64.6804C131.864 63.9764 132.392 63.4164 133.08 63.0004C133.784 62.5844 134.608 62.3764 135.552 62.3764C137.024 62.3764 138.168 62.8404 138.984 63.7684C139.8 64.6964 140.208 66.0564 140.208 67.8484V74.5684H137.136V68.1364C137.136 67.1124 136.928 66.3284 136.512 65.7844C136.096 65.2404 135.448 64.9684 134.568 64.9684C133.704 64.9684 132.992 65.2724 132.432 65.8804C131.888 66.4884 131.616 67.3364 131.616 68.4244V74.5684H128.544ZM147.25 74.8564C146.226 74.8564 145.386 74.6964 144.73 74.3764C144.074 74.0404 143.586 73.6004 143.266 73.0564C142.946 72.5124 142.786 71.9124 142.786 71.2564C142.786 70.1524 143.218 69.2564 144.082 68.5684C144.946 67.8804 146.242 67.5364 147.97 67.5364H150.994V67.2484C150.994 66.4324 150.762 65.8324 150.298 65.4484C149.834 65.0644 149.258 64.8724 148.57 64.8724C147.946 64.8724 147.402 65.0244 146.938 65.3284C146.474 65.6164 146.186 66.0484 146.074 66.6244H143.074C143.154 65.7604 143.442 65.0084 143.938 64.3684C144.45 63.7284 145.106 63.2404 145.906 62.9044C146.706 62.5524 147.602 62.3764 148.594 62.3764C150.29 62.3764 151.626 62.8004 152.602 63.6484C153.578 64.4964 154.066 65.6964 154.066 67.2484V74.5684H151.45L151.162 72.6484C150.81 73.2884 150.314 73.8164 149.674 74.2324C149.05 74.6484 148.242 74.8564 147.25 74.8564ZM147.946 72.4564C148.826 72.4564 149.506 72.1684 149.986 71.5924C150.482 71.0164 150.794 70.3044 150.922 69.4564H148.306C147.49 69.4564 146.906 69.6084 146.554 69.9124C146.202 70.2004 146.026 70.5604 146.026 70.9924C146.026 71.4564 146.202 71.8164 146.554 72.0724C146.906 72.3284 147.37 72.4564 147.946 72.4564ZM156.998 74.5684V62.6644H159.734L160.022 64.8964C160.454 64.1284 161.038 63.5204 161.773 63.0724C162.526 62.6084 163.406 62.3764 164.414 62.3764V65.6164H163.55C162.878 65.6164 162.278 65.7204 161.75 65.9284C161.222 66.1364 160.806 66.4964 160.502 67.0084C160.214 67.5204 160.07 68.2324 160.07 69.1444V74.5684H156.998ZM168.001 79.8484L170.761 73.7764H170.041L165.409 62.6644H168.745L172.081 71.0404L175.561 62.6644H178.825L171.265 79.8484H168.001Z" fill="white"/>
<path d="M162.053 115.32L162.101 115.401C157.678 120.808 157.385 129.211 157.374 129.277L156.441 128.215C156.452 128.147 157.6 120.766 162.053 115.32Z" fill="#444053"/>
<path d="M164.157 128.547C164.157 128.547 161.77 123.639 163.894 120.445" stroke="#444053" stroke-miterlimit="10"/>
<path d="M166.226 115.079C166.226 115.079 163.145 115.619 162.713 114.629" stroke="#444053" stroke-miterlimit="10"/>
<path d="M162.22 111.438C162.22 111.438 163.776 113.456 164.173 113.003" stroke="#444053" stroke-miterlimit="10"/>
<path d="M159.373 113.129C159.373 113.129 159.373 117.644 158.119 117.965" stroke="#444053" stroke-miterlimit="10"/>
<path d="M149.116 118.978C149.116 118.978 154.107 119.403 156.401 116.877" stroke="#444053" stroke-miterlimit="10"/>
<path d="M146.125 114.154C146.125 114.154 149.653 115.354 152.689 112.297" stroke="#444053" stroke-miterlimit="10"/>
<path d="M137.939 169.211L137.915 170.038L136.448 220.715H133.983L135.19 170.038L135.214 169.084L137.939 169.211Z" fill="#504F60"/>
<path opacity="0.1" d="M137.939 169.211L137.915 170.038L136.448 220.715H133.983L135.19 170.038L135.214 169.084L137.939 169.211Z" fill="black"/>
<path d="M152.214 212.14L150.369 212.136L122.932 212.079L121.47 212.076L122.249 209.727H152.02L152.214 212.14Z" fill="#504F60"/>
<path opacity="0.1" d="M137.943 169.211L137.919 170.038H135.193L135.217 169.084L137.943 169.211Z" fill="black"/>
<path d="M138.978 167.973H134.406V169.658H138.978V167.973Z" fill="#504F60"/>
<path opacity="0.1" d="M123.175 209.727L122.932 212.079L121.47 212.076L122.249 209.727H123.175Z" fill="black"/>
<path d="M127.105 167.939L127.031 168.67L120.945 227.446L118.156 227.317L124.568 168.67L124.64 168.003L127.105 167.939Z" fill="#504F60"/>
<path opacity="0.1" d="M152.21 212.14L150.366 212.136L150.114 209.727H152.017L152.21 212.14Z" fill="black"/>
<path d="M155.129 227.317L152.338 227.446L146.254 168.67L146.178 167.939L148.643 168.003L148.714 168.67L155.129 227.317Z" fill="#504F60"/>
<path d="M167.001 109.99H105.514V167.717H167.001V109.99Z" fill="white"/>
<path d="M167.001 109.99H105.514V167.717H167.001V109.99Z" fill="white"/>
<path d="M137.455 90.6858V104.623H135.057V90.6858C135.05 90.5275 135.076 90.3694 135.133 90.2211C135.19 90.0728 135.277 89.9374 135.389 89.8229C135.501 89.7085 135.636 89.6174 135.785 89.5552C135.934 89.493 136.094 89.4609 136.256 89.4609C136.418 89.4609 136.578 89.493 136.727 89.5552C136.875 89.6174 137.01 89.7085 137.122 89.8229C137.234 89.9374 137.321 90.0728 137.378 90.2211C137.435 90.3694 137.461 90.5275 137.455 90.6858Z" fill="#504F60"/>
<path opacity="0.1" d="M137.456 103.355H135.056V104.624H137.456V103.355Z" fill="black"/>
<path d="M138.397 104.306V108.91H134.124V104.306C134.124 104.231 134.139 104.157 134.168 104.087C134.198 104.018 134.241 103.955 134.295 103.902C134.349 103.849 134.414 103.807 134.484 103.778C134.555 103.749 134.631 103.734 134.708 103.734H137.813C137.968 103.735 138.116 103.795 138.225 103.902C138.334 104.009 138.396 104.154 138.397 104.306Z" fill="#504F60"/>
<path opacity="0.1" d="M136.256 107.546C136.757 107.546 137.163 107.148 137.163 106.658C137.163 106.167 136.757 105.77 136.256 105.77C135.755 105.77 135.349 106.167 135.349 106.658C135.349 107.148 135.755 107.546 136.256 107.546Z" fill="black"/>
<path d="M136.256 107.354C136.757 107.354 137.163 106.957 137.163 106.466C137.163 105.976 136.757 105.578 136.256 105.578C135.755 105.578 135.349 105.976 135.349 106.466C135.349 106.957 135.755 107.354 136.256 107.354Z" fill="#3F3D56"/>
<path opacity="0.1" d="M138.395 108.34H134.113V108.911H138.395V108.34Z" fill="black"/>
<path opacity="0.1" d="M140.149 109.102H132.365V110.372H140.149V109.102Z" fill="black"/>
<path d="M140.149 108.721H132.365V109.991H140.149V108.721Z" fill="#504F60"/>
<path opacity="0.1" d="M120.509 166.23H153.199C153.573 166.23 153.932 166.376 154.197 166.635C154.461 166.894 154.61 167.245 154.61 167.611V167.913H119.099V167.611C119.099 167.245 119.247 166.894 119.512 166.635C119.776 166.376 120.135 166.23 120.509 166.23Z" fill="black"/>
<path opacity="0.1" d="M124.644 168.003L127.109 167.939L127.035 168.67H124.572L124.644 168.003Z" fill="black"/>
<path opacity="0.1" d="M138.978 167.973H134.406V168.672H138.978V167.973Z" fill="black"/>
<path opacity="0.1" d="M148.714 168.67H146.254L146.178 167.939L148.643 168.003L148.714 168.67Z" fill="black"/>
<path d="M120.509 166.605H153.199C153.573 166.605 153.932 166.751 154.197 167.01C154.461 167.269 154.61 167.62 154.61 167.986V168.288H119.099V167.986C119.099 167.62 119.247 167.269 119.512 167.01C119.776 166.751 120.135 166.605 120.509 166.605Z" fill="#504F60"/>
<path d="M118.634 142.254C122.718 142.254 126.029 139.013 126.029 135.014C126.029 131.015 122.718 127.773 118.634 127.773C114.55 127.773 111.239 131.015 111.239 135.014C111.239 139.013 114.55 142.254 118.634 142.254Z" stroke="#00D5E0" stroke-width="1.8"/>
<path d="M136.195 142.254C140.279 142.254 143.59 139.013 143.59 135.014C143.59 131.015 140.279 127.773 136.195 127.773C132.111 127.773 128.8 131.015 128.8 135.014C128.8 139.013 132.111 142.254 136.195 142.254Z" stroke="#6C63FF" stroke-width="1.8"/>
<path d="M153.751 142.254C157.835 142.254 161.146 139.013 161.146 135.014C161.146 131.015 157.835 127.773 153.751 127.773C149.667 127.773 146.356 131.015 146.356 135.014C146.356 139.013 149.667 142.254 153.751 142.254Z" stroke="#F12587" stroke-width="1.8"/>
<path d="M127.415 149.598C131.499 149.598 134.81 146.356 134.81 142.358C134.81 138.359 131.499 135.117 127.415 135.117C123.331 135.117 120.021 138.359 120.021 142.358C120.021 146.356 123.331 149.598 127.415 149.598Z" stroke="#FFE500" stroke-width="1.8"/>
<path d="M144.975 149.598C149.059 149.598 152.37 146.356 152.37 142.358C152.37 138.359 149.059 135.117 144.975 135.117C140.891 135.117 137.58 138.359 137.58 142.358C137.58 146.356 140.891 149.598 144.975 149.598Z" stroke="#04CC78" stroke-width="1.8"/>
<path d="M124.555 130.664C126.528 133.235 126.528 136.779 124.555 139.35" stroke="#00D5E0" stroke-width="1.8"/>
<path d="M153.754 142.254C152.16 142.254 150.593 141.742 149.325 140.809" stroke="#ED334E" stroke-width="1.8"/>
<path d="M83.2824 100.294C82.5793 100.594 81.8502 101.012 81.5725 101.713C81.3989 102.151 81.4293 102.637 81.3924 103.105C81.2973 104.222 80.8123 105.272 80.0188 106.079C79.4503 106.653 78.7429 107.082 78.1895 107.667C77.1827 108.729 76.7726 110.386 77.4279 111.686C77.6319 112.094 77.9291 112.453 78.1483 112.855C78.5715 113.624 78.6908 114.516 78.7516 115.39C78.8619 116.915 78.8212 118.448 78.63 119.966C78.5064 120.937 78.3241 121.931 78.5563 122.883C78.7548 123.562 79.0672 124.204 79.4807 124.783C80.5439 126.419 81.7786 127.997 83.4213 129.083C85.116 130.203 87.1601 130.738 89.1977 130.895C91.2353 131.052 93.2859 130.857 95.3148 130.617C96.8337 130.438 98.6087 130.067 99.2575 128.705C99.6178 127.942 99.5244 127.035 99.863 126.264C100.473 124.872 102.23 124.351 103.213 123.196C104.238 121.987 104.281 120.249 104.029 118.698C103.778 117.147 103.278 115.606 103.396 114.038C103.582 111.521 105.349 109.065 104.572 106.653C104.162 105.359 103.092 104.384 102.037 103.504C100.167 101.943 98.1769 100.462 95.892 99.5737C93.8988 98.7717 91.7021 98.5885 89.5991 99.0489C87.4682 99.527 85.3677 99.4101 83.2824 100.294Z" fill="#FF3939"/>
<g opacity="0.08">
<path opacity="0.08" d="M78.7886 116.362C78.8158 115.561 78.8005 114.759 78.7431 113.959C78.6823 113.088 78.563 112.196 78.1398 111.424C77.9228 111.023 77.6234 110.666 77.4194 110.258C77.312 110.042 77.2318 109.815 77.1807 109.58C77.0178 110.29 77.1018 111.034 77.4194 111.692C77.6234 112.1 77.9207 112.459 78.1398 112.861C78.563 113.63 78.6823 114.522 78.7431 115.395C78.7756 115.716 78.7886 116.039 78.7886 116.362Z" fill="black"/>
<path opacity="0.08" d="M103.396 112.608C103.369 113.019 103.376 113.432 103.418 113.842C103.657 111.605 105.041 109.414 104.709 107.256C104.473 109.015 103.526 110.795 103.396 112.608Z" fill="black"/>
<path opacity="0.08" d="M103.214 121.766C102.231 122.932 100.474 123.442 99.864 124.831C99.5255 125.605 99.6188 126.512 99.2586 127.275C98.6076 128.637 96.8413 129.009 95.3158 129.187C93.2869 129.427 91.2385 129.625 89.1987 129.465C87.159 129.306 85.1171 128.773 83.4224 127.653C81.7797 126.567 80.545 124.989 79.4817 123.351C79.0685 122.773 78.7561 122.131 78.5573 121.453C78.5284 121.337 78.506 121.219 78.4901 121.101C78.4102 121.696 78.4329 122.3 78.5573 122.887C78.7559 123.566 79.0683 124.208 79.4817 124.787C80.545 126.423 81.7797 128.001 83.4224 129.087C85.1171 130.207 87.1612 130.742 89.1987 130.899C91.2363 131.057 93.2869 130.861 95.3158 130.621C96.8348 130.443 98.6098 130.071 99.2586 128.709C99.6188 127.946 99.5255 127.039 99.864 126.268C100.474 124.876 102.231 124.356 103.214 123.2C104.082 122.18 104.243 120.784 104.124 119.443C104.065 120.289 103.748 121.098 103.214 121.766Z" fill="black"/>
</g>
<path d="M98.4381 131.546C97.6591 132.396 96.4852 132.84 95.3134 132.897C94.1405 132.92 92.9773 132.683 91.911 132.204C89.9462 131.359 88.2351 130.036 86.9406 128.36C85.6461 126.684 84.8113 124.712 84.5158 122.631C84.452 122.315 84.4662 121.99 84.557 121.681C84.8717 120.814 86.0413 120.674 86.8268 120.16C87.5429 119.694 87.9443 118.885 88.1439 118.058C88.196 117.835 88.2394 117.612 88.2741 117.385C88.3653 116.779 88.413 116.165 88.5215 115.562C88.5567 115.271 88.6591 114.991 88.821 114.744C89.0281 114.493 89.3 114.301 89.6086 114.187C91.4422 113.408 93.8314 113.762 95.6541 114.438C96.2639 114.665 96.1467 114.733 95.9145 115.32C95.7653 115.693 95.6356 116.074 95.5261 116.461C95.4935 116.569 95.4632 116.673 95.4349 116.788C95.1764 117.786 95.0423 118.811 95.0357 119.841C95.0357 120.784 95.1463 121.772 95.6736 122.565C96.5134 123.82 98.2212 124.349 98.985 125.652C99.2632 126.17 99.4321 126.738 99.4819 127.322C99.6663 128.803 99.4559 130.43 98.4381 131.546Z" fill="#FBBEBE"/>
<path d="M78.7998 226.218C78.6373 226.81 78.5642 227.421 78.5829 228.033L78.5221 231.22C78.4787 233.519 78.4418 235.862 79.134 238.059C79.3451 238.827 79.7225 239.542 80.2407 240.154C80.5018 240.458 80.8253 240.704 81.1903 240.877C81.5552 241.051 81.9532 241.147 82.3586 241.159C82.6942 241.146 83.0264 241.088 83.3459 240.987C83.9274 240.821 84.535 240.562 84.8497 240.056C85.2685 239.381 85.0363 238.522 84.8692 237.749C84.4981 236.028 84.5112 234.254 84.5263 232.495L84.5632 228.197C84.5507 227.612 84.5885 227.028 84.6761 226.45C84.7607 225.989 84.9082 225.536 84.9451 225.071C84.9952 224.71 84.9079 224.343 84.6999 224.041C84.4903 223.805 84.2075 223.643 83.8949 223.58C83.3372 223.439 82.7513 223.476 82.1806 223.391C81.9248 223.358 81.6758 223.286 81.4428 223.178C81.304 223.112 81.0089 222.808 80.8656 222.811C80.5835 222.811 80.3991 223.569 80.2429 223.83C79.7633 224.619 79.095 225.322 78.7998 226.218Z" fill="#FBBEBE"/>
<path d="M96.7795 196.684C95.2345 201.201 96.2848 206.186 95.7249 210.936C95.5221 212.437 95.2374 213.927 94.8722 215.398L92.1879 227.101C91.7431 229.047 91.2939 231.006 91.2332 232.999C91.1724 234.992 91.5196 237.036 92.5698 238.75C93.1957 239.745 94.036 240.594 95.0319 241.237C96.0277 241.881 97.1552 242.304 98.3354 242.477C98.7164 242.529 99.0769 242.677 99.3814 242.908C99.6858 243.138 99.9236 243.442 100.071 243.79C100.116 243.9 100.15 244.014 100.173 244.13C100.235 244.41 100.22 244.701 100.13 244.974C100.041 245.247 99.8798 245.492 99.6634 245.685C99.2294 246.025 98.6392 246.072 98.0902 246.027C95.5123 245.815 93.3619 243.928 90.8144 243.477C88.6227 243.093 86.2575 243.794 84.1917 242.989C84.0567 242.942 83.9322 242.869 83.825 242.776C83.7042 242.654 83.6175 242.503 83.5732 242.339C83.0872 240.851 84.0854 239.347 84.745 237.928C85.6836 235.901 85.9741 233.643 85.5783 231.452C85.1269 228.979 85.5935 226.366 85.728 223.846C85.8713 221.51 86.1963 219.189 86.7001 216.902C87.0256 215.375 87.3012 213.813 87.9348 212.379C88.3146 211.529 88.8158 210.72 89.2151 209.872C89.9529 208.306 90.3305 206.604 90.695 204.917C91.4285 201.518 92.1402 198.091 92.1402 194.619C93.5056 194.616 94.8593 194.865 96.1307 195.352C96.3891 195.455 96.599 195.649 96.7191 195.895C96.8391 196.142 96.8607 196.423 96.7795 196.684Z" fill="#FBBEBE"/>
<path opacity="0.08" d="M96.7795 196.684C95.2345 201.201 96.2848 206.186 95.7249 210.936C95.5221 212.437 95.2374 213.927 94.8722 215.398L92.1879 227.101C91.7431 229.047 91.2939 231.006 91.2332 232.999C91.1724 234.992 91.5196 237.036 92.5698 238.75C93.1957 239.745 94.036 240.594 95.0319 241.237C96.0277 241.881 97.1552 242.304 98.3354 242.477C98.7164 242.529 99.0769 242.677 99.3814 242.908C99.6858 243.138 99.9236 243.442 100.071 243.79C100.116 243.9 100.15 244.014 100.173 244.13C100.235 244.41 100.22 244.701 100.13 244.974C100.041 245.247 99.8798 245.492 99.6634 245.685C99.2294 246.025 98.6392 246.072 98.0902 246.027C95.5123 245.815 93.3619 243.928 90.8144 243.477C88.6227 243.093 86.2575 243.794 84.1917 242.989C84.0567 242.942 83.9322 242.869 83.825 242.776C83.7042 242.654 83.6175 242.503 83.5732 242.339C83.0872 240.851 84.0854 239.347 84.745 237.928C85.6836 235.901 85.9741 233.643 85.5783 231.452C85.1269 228.979 85.5935 226.366 85.728 223.846C85.8713 221.51 86.1963 219.189 86.7001 216.902C87.0256 215.375 87.3012 213.813 87.9348 212.379C88.3146 211.529 88.8158 210.72 89.2151 209.872C89.9529 208.306 90.3305 206.604 90.695 204.917C91.4285 201.518 92.1402 198.091 92.1402 194.619C93.5056 194.616 94.8593 194.865 96.1307 195.352C96.3891 195.455 96.599 195.649 96.7191 195.895C96.8391 196.142 96.8607 196.423 96.7795 196.684Z" fill="black"/>
<path d="M98.3297 194.552C98.2429 196.748 98.1597 198.943 98.0801 201.138C98.0801 201.213 98.0801 201.285 98.0801 201.351C98.0698 202.193 97.9973 203.033 97.8631 203.864C97.5702 205.424 96.8498 206.873 96.0881 208.273C95.8615 208.716 95.601 209.143 95.3091 209.548C95.053 209.888 94.7557 210.198 94.5171 210.546C93.8986 211.451 93.7077 212.561 93.3453 213.589C91.6896 218.28 86.523 221.11 84.7914 225.772C83.4799 225.413 82.1975 224.959 80.9549 224.414C80.8291 224.389 80.7102 224.338 80.6063 224.264C80.5024 224.19 80.4157 224.095 80.3522 223.986C80.2887 223.877 80.2498 223.756 80.2381 223.63C80.2264 223.505 80.2422 223.379 80.2844 223.26C80.6793 220.407 81.3694 217.598 82.0594 214.794C82.5216 212.905 83.0033 210.984 84.0406 209.327C84.9085 207.942 86.1302 206.811 87.2759 205.634C87.6861 205.209 88.1092 204.742 88.2047 204.166C88.242 203.81 88.2163 203.451 88.1287 203.104C87.8944 201.829 87.7251 200.544 87.621 199.248C87.621 199.175 87.621 199.101 87.6014 199.035C87.5038 198.06 87.2673 196.791 87.4843 195.88C87.877 194.223 91.1732 193.883 92.6162 193.849C94.5279 193.796 96.4396 194.17 98.3297 194.552Z" fill="#FBBEBE"/>
<path d="M102.247 150.495C104.437 151.407 106.945 151.145 109.269 150.633C111.593 150.121 113.893 149.378 116.274 149.358C116.94 149.358 117.778 149.552 117.893 150.196C117.953 150.531 117.773 150.861 117.6 151.158C117.281 151.708 116.938 152.282 116.389 152.613C115.955 152.871 115.456 152.955 114.974 153.089C114.074 153.34 113.238 153.778 112.37 154.113C110.897 154.683 109.332 154.963 107.763 155.231C107.036 155.389 106.29 155.455 105.546 155.429C105.049 155.378 104.558 155.282 104.079 155.142C102.668 154.768 101.274 154.343 99.8951 153.867C99.6217 153.771 99.3179 153.655 99.2094 153.383C99.1594 153.219 99.1483 153.046 99.1769 152.877C99.2316 152.194 99.17 151.507 98.9946 150.844C98.9056 150.512 98.2091 149.329 98.4434 149.089C98.9838 148.53 101.701 150.268 102.247 150.495Z" fill="#FBBEBE"/>
<path opacity="0.08" d="M102.247 150.495C104.437 151.407 106.945 151.145 109.269 150.633C111.593 150.121 113.893 149.378 116.274 149.358C116.94 149.358 117.778 149.552 117.893 150.196C117.953 150.531 117.773 150.861 117.6 151.158C117.281 151.708 116.938 152.282 116.389 152.613C115.955 152.871 115.456 152.955 114.974 153.089C114.074 153.34 113.238 153.778 112.37 154.113C110.897 154.683 109.332 154.963 107.763 155.231C107.036 155.389 106.29 155.455 105.546 155.429C105.049 155.378 104.558 155.282 104.079 155.142C102.668 154.768 101.274 154.343 99.8951 153.867C99.6217 153.771 99.3179 153.655 99.2094 153.383C99.1594 153.219 99.1483 153.046 99.1769 152.877C99.2316 152.194 99.17 151.507 98.9946 150.844C98.9056 150.512 98.2091 149.329 98.4434 149.089C98.9838 148.53 101.701 150.268 102.247 150.495Z" fill="black"/>
<path opacity="0.1" d="M95.9197 115.32C95.7704 115.693 95.6408 116.074 95.5313 116.461C94.5176 117.236 93.3099 117.731 92.0343 117.893C90.7587 118.056 89.4619 117.88 88.2793 117.385C88.3704 116.779 88.4182 116.165 88.5267 115.562C88.5619 115.271 88.6643 114.991 88.8261 114.744C89.0332 114.493 89.3052 114.301 89.6138 114.187C91.4474 113.408 93.8365 113.762 95.6593 114.438C96.269 114.665 96.1497 114.733 95.9197 115.32Z" fill="black"/>
<path d="M91.111 117.664C95.0766 117.664 98.2914 114.517 98.2914 110.634C98.2914 106.751 95.0766 103.604 91.111 103.604C87.1454 103.604 83.9307 106.751 83.9307 110.634C83.9307 114.517 87.1454 117.664 91.111 117.664Z" fill="#FBBEBE"/>
<path opacity="0.08" d="M98.3291 194.552C98.2423 196.747 98.1591 198.943 98.0795 201.138C96.9273 201.202 95.7816 200.873 94.6749 200.55C92.3704 199.882 89.9683 199.226 87.5879 199.03C87.4902 198.055 87.2537 196.787 87.4707 195.875C87.8634 194.218 91.1596 193.878 92.6026 193.844C94.5273 193.795 96.4391 194.169 98.3291 194.552Z" fill="black"/>
<path d="M105.785 197.731C105.66 197.969 105.495 198.305 105.291 198.131C102.843 197.918 100.771 200.007 98.3274 200.255C97.0927 200.381 95.8645 200.028 94.6797 199.684C90.6957 198.528 86.4209 197.408 82.4651 198.636C82.415 196.419 82.2201 194.207 81.8813 192.014C81.5081 189.611 80.9613 187.231 80.6792 184.816C80.1541 180.33 80.5447 175.788 80.1627 171.29C80.0108 169.476 79.7288 167.678 79.5682 165.864C79.1841 161.574 78.7588 157.008 80.5794 153.088C80.8398 152.522 81.1016 151.959 81.3649 151.399C81.4449 151.252 81.4957 151.091 81.5146 150.925C81.5177 150.842 81.506 150.758 81.4799 150.679C81.3736 150.322 81.022 150.042 80.8116 149.706C80.4557 149.158 80.4947 148.457 80.5447 147.809C80.5685 147.534 80.6423 147.309 80.6618 147.035C79.9002 146 79.4553 144.819 79.1212 143.583C78.7371 142.18 78.4941 140.71 78.0687 139.321C77.3852 137.09 76.2156 135.014 75.6427 132.753C75.3476 131.591 75.3259 130.34 75.3107 129.141C75.3075 128.653 75.3445 128.166 75.4214 127.684C75.5212 127.078 75.7534 126.511 76.3219 126.25C76.7668 125.612 76.91 124.824 76.936 124.051C76.9577 123.534 76.936 123.001 77.127 122.519C77.5154 121.559 78.6459 121.104 79.6832 120.953C80.7204 120.802 81.8249 120.838 82.784 120.407C83.1453 120.234 83.4896 120.028 83.8126 119.793C85.0486 118.987 86.2334 118.109 87.3605 117.163C87.3875 117.136 87.4211 117.117 87.4581 117.107C87.508 117.107 87.5514 117.139 87.5905 117.171C88.4932 117.957 89.3915 118.743 90.2942 119.527C90.7868 119.952 91.2794 120.377 91.7329 120.851C92.3782 121.516 92.9399 122.254 93.4059 123.05C93.6257 123.411 93.8229 123.785 93.9961 124.17C94.2681 124.763 94.4895 125.378 94.658 126.008C94.7491 126.341 94.8229 126.677 94.875 127.015C94.9162 127.259 94.9509 127.505 94.9748 127.756C94.9864 127.838 94.995 127.921 95.0008 128.005C95.152 127.974 95.2947 127.913 95.4196 127.824C95.553 127.731 95.6562 127.603 95.7169 127.454C95.7721 127.318 95.8107 127.175 95.8319 127.03C95.8584 126.845 95.8729 126.659 95.8753 126.473C95.8753 126.26 95.8905 126.029 95.8905 125.808C95.8917 125.421 95.8547 125.034 95.7798 124.654C95.6345 123.957 95.3198 123.305 95.1289 122.619C94.9379 121.932 94.8771 121.161 95.233 120.539C95.3675 120.303 95.6171 120.073 95.884 120.129C95.9845 120.163 96.0758 120.219 96.151 120.292C96.2262 120.366 96.2833 120.455 96.318 120.554C96.4421 120.834 96.5042 121.138 96.5003 121.444C96.5003 121.593 96.5003 121.714 96.6391 121.788C96.6717 122.485 97.2207 123.063 97.8153 123.439C98.4098 123.815 99.0868 124.089 99.6185 124.554C100.295 125.141 100.669 125.978 101.137 126.734C101.416 127.13 101.644 127.558 101.817 128.009C101.922 128.441 101.961 128.885 101.934 129.328C101.906 132.072 101.876 134.814 101.843 137.555C101.793 138.709 101.851 139.866 102.016 141.01C102.127 141.647 102.307 142.27 102.32 142.922C102.366 144.719 101.083 146.23 100.194 147.809C99.5425 148.949 99.7834 150.392 100.354 151.576C100.925 152.759 101.793 153.77 102.459 154.901C104.818 158.903 104.431 163.824 104.293 168.454C104.08 175.647 104.645 182.842 105.979 189.919C106.469 192.53 107.038 195.373 105.785 197.731Z" fill="#3F3D56"/>
<path opacity="0.08" d="M94.8811 127.03C94.6424 127.03 94.408 127.054 94.1715 127.079C94.1715 127.292 94.1715 127.504 94.1715 127.716C94.4362 127.716 94.7075 127.74 94.9744 127.772C95.1219 127.789 95.2717 127.808 95.4192 127.84C95.8868 127.918 96.3311 128.096 96.7212 128.36C97.4503 128.868 97.8799 129.875 97.4655 130.649L97.1942 130.759C97.3043 131.046 97.3157 131.361 97.2268 131.656C97.0988 131.934 96.6756 132.095 96.4673 131.868C96.2329 131.607 96.4434 131.082 96.1288 130.92C96.0268 130.882 95.9135 130.882 95.8117 130.921C95.7099 130.961 95.6271 131.036 95.5798 131.133C95.4962 131.335 95.4758 131.557 95.5212 131.77C95.7382 133.451 96.5584 135.038 96.5888 136.733C96.5997 137.28 96.6105 137.925 96.2199 138.312C95.472 139.06 94.7212 139.809 93.9675 140.558C92.5657 141.956 91.1618 143.356 89.6819 144.673C87.3911 146.717 84.9225 148.56 82.3041 150.183C82.0285 150.355 81.7507 150.52 81.473 150.688C81.3667 150.331 81.0151 150.051 80.8046 149.715C80.4488 149.167 80.4878 148.466 80.5377 147.818C80.5616 147.544 80.6354 147.318 80.6549 147.044C79.8933 146.01 79.4484 144.828 79.1143 143.592C79.2141 143.592 79.3096 143.592 79.4072 143.592C80.4531 143.577 81.4556 143.207 82.4299 142.842C83.3066 142.538 84.1626 142.18 84.9926 141.769C86.2419 141.083 87.4068 140.259 88.4645 139.313C89.1307 138.748 89.9271 138.208 90.8059 138.157C91.331 137.628 92.1426 137.331 92.4138 136.642C92.5292 136.256 92.5419 135.847 92.4507 135.454C92.306 134.522 92.1023 133.6 91.841 132.692C91.624 131.981 91.6826 131.28 91.5459 130.551C91.3628 129.75 91.2783 128.93 91.2942 128.11C91.3896 126.573 92.1817 125.178 92.9542 123.839C93.1082 123.582 93.258 123.321 93.4055 123.059C93.5292 122.847 93.6551 122.634 93.7787 122.422C93.9262 122.451 94.0595 122.527 94.1568 122.64C94.2541 122.752 94.3098 122.893 94.3147 123.04C94.3159 123.335 94.2476 123.626 94.1151 123.89C94.0739 123.988 94.037 124.085 93.9957 124.183C93.6442 125.048 93.2883 125.913 92.9368 126.78C93.4876 126.48 94.0632 126.226 94.6576 126.021C94.9076 125.943 95.1638 125.886 95.4236 125.849C95.5796 125.828 95.737 125.819 95.8944 125.821C96.6387 125.821 97.3895 126.078 97.8474 126.648C98.021 126.86 98.1382 127.19 97.9537 127.394C97.2632 127.203 96.554 127.086 95.838 127.043C95.519 127.017 95.2001 127.011 94.8811 127.03Z" fill="black"/>
<path d="M105.03 148.941L101.806 159.845L119.977 153.819L122.32 144.35L105.03 148.941ZM112.942 148.941C112.291 148.941 111.77 148.684 111.77 148.367C111.77 148.051 112.295 147.794 112.942 147.794C113.588 147.794 114.116 148.051 114.116 148.367C114.116 148.684 113.591 148.941 112.942 148.941Z" fill="#464353"/>
<path d="M91.8453 110.061C96.1345 110.061 99.6116 108.391 99.6116 106.33C99.6116 104.27 96.1345 102.6 91.8453 102.6C87.5562 102.6 84.0791 104.27 84.0791 106.33C84.0791 108.391 87.5562 110.061 91.8453 110.061Z" fill="#FF3939"/>
<path opacity="0.9" d="M107.668 151.38C108.235 151.38 108.694 151.252 108.694 151.093C108.694 150.935 108.235 150.807 107.668 150.807C107.101 150.807 106.642 150.935 106.642 151.093C106.642 151.252 107.101 151.38 107.668 151.38Z" fill="#6C63FF"/>
<path opacity="0.9" d="M106.491 152.814C107.058 152.814 107.518 152.685 107.518 152.527C107.518 152.369 107.058 152.24 106.491 152.24C105.924 152.24 105.465 152.369 105.465 152.527C105.465 152.685 105.924 152.814 106.491 152.814Z" fill="#FBBEBE"/>
<path opacity="0.9" d="M114.113 150.804C114.68 150.804 115.14 150.676 115.14 150.517C115.14 150.359 114.68 150.23 114.113 150.23C113.546 150.23 113.087 150.359 113.087 150.517C113.087 150.676 113.546 150.804 114.113 150.804Z" fill="#FBBEBE"/>
<path opacity="0.9" d="M107.371 152.814C107.938 152.814 108.397 152.685 108.397 152.527C108.397 152.369 107.938 152.24 107.371 152.24C106.804 152.24 106.345 152.369 106.345 152.527C106.345 152.685 106.804 152.814 107.371 152.814Z" fill="#FBBEBE"/>
<path opacity="0.9" d="M105.615 152.529C106.182 152.529 106.642 152.4 106.642 152.242C106.642 152.083 106.182 151.955 105.615 151.955C105.048 151.955 104.589 152.083 104.589 152.242C104.589 152.4 105.048 152.529 105.615 152.529Z" fill="#FBBEBE"/>
<path opacity="0.9" d="M105.615 153.388C106.182 153.388 106.642 153.26 106.642 153.101C106.642 152.943 106.182 152.814 105.615 152.814C105.048 152.814 104.589 152.943 104.589 153.101C104.589 153.26 105.048 153.388 105.615 153.388Z" fill="#FBBEBE"/>
<path opacity="0.9" d="M107.957 152.242C108.524 152.242 108.983 152.113 108.983 151.955C108.983 151.796 108.524 151.668 107.957 151.668C107.39 151.668 106.931 151.796 106.931 151.955C106.931 152.113 107.39 152.242 107.957 152.242Z" fill="#FBBEBE"/>
<path opacity="0.9" d="M106.202 151.667C106.769 151.667 107.229 151.539 107.229 151.381C107.229 151.222 106.769 151.094 106.202 151.094C105.635 151.094 105.176 151.222 105.176 151.381C105.176 151.539 105.635 151.667 106.202 151.667Z" fill="#FBBEBE"/>
<path opacity="0.9" d="M108.254 152.529C108.821 152.529 109.28 152.4 109.28 152.242C109.28 152.083 108.821 151.955 108.254 151.955C107.687 151.955 107.228 152.083 107.228 152.242C107.228 152.4 107.687 152.529 108.254 152.529Z" fill="#6C63FF"/>
<path opacity="0.9" d="M108.841 151.091C109.408 151.091 109.867 150.963 109.867 150.804C109.867 150.646 109.408 150.518 108.841 150.518C108.274 150.518 107.814 150.646 107.814 150.804C107.814 150.963 108.274 151.091 108.841 151.091Z" fill="#6C63FF"/>
<path opacity="0.9" d="M108.841 151.667C109.408 151.667 109.867 151.539 109.867 151.381C109.867 151.222 109.408 151.094 108.841 151.094C108.274 151.094 107.814 151.222 107.814 151.381C107.814 151.539 108.274 151.667 108.841 151.667Z" fill="#6C63FF"/>
<path opacity="0.9" d="M109.134 152.529C109.701 152.529 110.16 152.4 110.16 152.242C110.16 152.083 109.701 151.955 109.134 151.955C108.567 151.955 108.107 152.083 108.107 152.242C108.107 152.4 108.567 152.529 109.134 152.529Z" fill="#6C63FF"/>
<path opacity="0.9" d="M112.062 151.38C112.628 151.38 113.088 151.252 113.088 151.093C113.088 150.935 112.628 150.807 112.062 150.807C111.495 150.807 111.035 150.935 111.035 151.093C111.035 151.252 111.495 151.38 112.062 151.38Z" fill="#6C63FF"/>
<path opacity="0.9" d="M113.234 151.091C113.801 151.091 114.261 150.963 114.261 150.804C114.261 150.646 113.801 150.518 113.234 150.518C112.668 150.518 112.208 150.646 112.208 150.804C112.208 150.963 112.668 151.091 113.234 151.091Z" fill="#6C63FF"/>
<path opacity="0.9" d="M113.234 151.667C113.801 151.667 114.261 151.539 114.261 151.381C114.261 151.222 113.801 151.094 113.234 151.094C112.668 151.094 112.208 151.222 112.208 151.381C112.208 151.539 112.668 151.667 113.234 151.667Z" fill="#6C63FF"/>
<path opacity="0.9" d="M111.772 152.529C112.339 152.529 112.799 152.4 112.799 152.242C112.799 152.083 112.339 151.955 111.772 151.955C111.206 151.955 110.746 152.083 110.746 152.242C110.746 152.4 111.206 152.529 111.772 152.529Z" fill="#6C63FF"/>
<path opacity="0.9" d="M112.062 152.529C112.628 152.529 113.088 152.4 113.088 152.242C113.088 152.083 112.628 151.955 112.062 151.955C111.495 151.955 111.035 152.083 111.035 152.242C111.035 152.4 111.495 152.529 112.062 152.529Z" fill="#6C63FF"/>
<path opacity="0.9" d="M111.772 152.529C112.339 152.529 112.799 152.4 112.799 152.242C112.799 152.083 112.339 151.955 111.772 151.955C111.206 151.955 110.746 152.083 110.746 152.242C110.746 152.4 111.206 152.529 111.772 152.529Z" fill="#6C63FF"/>
<path opacity="0.9" d="M110.889 152.529C111.456 152.529 111.915 152.4 111.915 152.242C111.915 152.083 111.456 151.955 110.889 151.955C110.322 151.955 109.862 152.083 109.862 152.242C109.862 152.4 110.322 152.529 110.889 152.529Z" fill="#6C63FF"/>
<path opacity="0.9" d="M109.72 151.38C110.287 151.38 110.746 151.252 110.746 151.093C110.746 150.935 110.287 150.807 109.72 150.807C109.153 150.807 108.693 150.935 108.693 151.093C108.693 151.252 109.153 151.38 109.72 151.38Z" fill="#6C63FF"/>
<path opacity="0.9" d="M110.013 151.954C110.58 151.954 111.039 151.826 111.039 151.668C111.039 151.509 110.58 151.381 110.013 151.381C109.446 151.381 108.986 151.509 108.986 151.668C108.986 151.826 109.446 151.954 110.013 151.954Z" fill="#6C63FF"/>
<path opacity="0.9" d="M110.889 151.091C111.456 151.091 111.915 150.963 111.915 150.804C111.915 150.646 111.456 150.518 110.889 150.518C110.322 150.518 109.862 150.646 109.862 150.804C109.862 150.963 110.322 151.091 110.889 151.091Z" fill="#3F3D56"/>
<path opacity="0.9" d="M110.889 151.667C111.456 151.667 111.915 151.539 111.915 151.381C111.915 151.222 111.456 151.094 110.889 151.094C110.322 151.094 109.862 151.222 109.862 151.381C109.862 151.539 110.322 151.667 110.889 151.667Z" fill="#6C63FF"/>
<path d="M110.6 151.954C111.166 151.954 111.626 151.826 111.626 151.668C111.626 151.509 111.166 151.381 110.6 151.381C110.033 151.381 109.573 151.509 109.573 151.668C109.573 151.826 110.033 151.954 110.6 151.954Z" fill="#F86D70"/>
<path opacity="0.9" d="M111.772 151.954C112.339 151.954 112.799 151.826 112.799 151.668C112.799 151.509 112.339 151.381 111.772 151.381C111.206 151.381 110.746 151.509 110.746 151.668C110.746 151.826 111.206 151.954 111.772 151.954Z" fill="#6C63FF"/>
<path opacity="0.9" d="M112.355 153.101C112.921 153.101 113.381 152.973 113.381 152.814C113.381 152.656 112.921 152.527 112.355 152.527C111.788 152.527 111.328 152.656 111.328 152.814C111.328 152.973 111.788 153.101 112.355 153.101Z" fill="#6C63FF"/>
<path opacity="0.9" d="M112.941 151.667C113.508 151.667 113.968 151.539 113.968 151.381C113.968 151.222 113.508 151.094 112.941 151.094C112.375 151.094 111.915 151.222 111.915 151.381C111.915 151.539 112.375 151.667 112.941 151.667Z" fill="#6C63FF"/>
<path opacity="0.9" d="M112.941 152.242C113.508 152.242 113.968 152.113 113.968 151.955C113.968 151.796 113.508 151.668 112.941 151.668C112.375 151.668 111.915 151.796 111.915 151.955C111.915 152.113 112.375 152.242 112.941 152.242Z" fill="#6C63FF"/>
<path opacity="0.9" d="M113.234 153.101C113.801 153.101 114.261 152.973 114.261 152.814C114.261 152.656 113.801 152.527 113.234 152.527C112.668 152.527 112.208 152.656 112.208 152.814C112.208 152.973 112.668 153.101 113.234 153.101Z" fill="#6C63FF"/>
<path opacity="0.9" d="M116.166 151.954C116.733 151.954 117.192 151.826 117.192 151.668C117.192 151.509 116.733 151.381 116.166 151.381C115.599 151.381 115.14 151.509 115.14 151.668C115.14 151.826 115.599 151.954 116.166 151.954Z" fill="#6C63FF"/>
<path opacity="0.9" d="M117.342 151.667C117.909 151.667 118.368 151.539 118.368 151.381C118.368 151.222 117.909 151.094 117.342 151.094C116.775 151.094 116.315 151.222 116.315 151.381C116.315 151.539 116.775 151.667 117.342 151.667Z" fill="#6C63FF"/>
<path opacity="0.9" d="M117.342 152.242C117.909 152.242 118.368 152.113 118.368 151.955C118.368 151.796 117.909 151.668 117.342 151.668C116.775 151.668 116.315 151.796 116.315 151.955C116.315 152.113 116.775 152.242 117.342 152.242Z" fill="#A1616A"/>
<path opacity="0.9" d="M115.872 153.101C116.439 153.101 116.898 152.973 116.898 152.814C116.898 152.656 116.439 152.527 115.872 152.527C115.305 152.527 114.846 152.656 114.846 152.814C114.846 152.973 115.305 153.101 115.872 153.101Z" fill="#6C63FF"/>
<path opacity="0.9" d="M116.166 153.101C116.733 153.101 117.192 152.973 117.192 152.814C117.192 152.656 116.733 152.527 116.166 152.527C115.599 152.527 115.14 152.656 115.14 152.814C115.14 152.973 115.599 153.101 116.166 153.101Z" fill="#6C63FF"/>
<path opacity="0.9" d="M115.872 153.101C116.439 153.101 116.898 152.973 116.898 152.814C116.898 152.656 116.439 152.527 115.872 152.527C115.305 152.527 114.846 152.656 114.846 152.814C114.846 152.973 115.305 153.101 115.872 153.101Z" fill="#6C63FF"/>
<path d="M114.993 153.101C115.56 153.101 116.02 152.973 116.02 152.814C116.02 152.656 115.56 152.527 114.993 152.527C114.426 152.527 113.967 152.656 113.967 152.814C113.967 152.973 114.426 153.101 114.993 153.101Z" fill="#F86D70"/>
<path opacity="0.9" d="M113.82 151.954C114.387 151.954 114.847 151.826 114.847 151.668C114.847 151.509 114.387 151.381 113.82 151.381C113.253 151.381 112.794 151.509 112.794 151.668C112.794 151.826 113.253 151.954 113.82 151.954Z" fill="#6C63FF"/>
<path opacity="0.9" d="M114.113 152.529C114.68 152.529 115.14 152.4 115.14 152.242C115.14 152.083 114.68 151.955 114.113 151.955C113.546 151.955 113.087 152.083 113.087 152.242C113.087 152.4 113.546 152.529 114.113 152.529Z" fill="#6C63FF"/>
<path opacity="0.9" d="M114.993 151.667C115.56 151.667 116.02 151.539 116.02 151.381C116.02 151.222 115.56 151.094 114.993 151.094C114.426 151.094 113.967 151.222 113.967 151.381C113.967 151.539 114.426 151.667 114.993 151.667Z" fill="#A1616A"/>
<path d="M114.993 152.242C115.56 152.242 116.02 152.113 116.02 151.955C116.02 151.796 115.56 151.668 114.993 151.668C114.426 151.668 113.967 151.796 113.967 151.955C113.967 152.113 114.426 152.242 114.993 152.242Z" fill="#F86D70"/>
<path d="M114.704 152.529C115.271 152.529 115.73 152.4 115.73 152.242C115.73 152.083 115.271 151.955 114.704 151.955C114.137 151.955 113.678 152.083 113.678 152.242C113.678 152.4 114.137 152.529 114.704 152.529Z" fill="#F86D70"/>
<path opacity="0.9" d="M104.738 154.56C105.295 154.458 105.723 154.248 105.693 154.093C105.663 153.937 105.187 153.894 104.63 153.996C104.073 154.099 103.645 154.308 103.675 154.464C103.705 154.619 104.181 154.662 104.738 154.56Z" fill="#6C63FF"/>
<path opacity="0.9" d="M105.528 155.582C106.085 155.479 106.513 155.27 106.483 155.114C106.453 154.959 105.977 154.915 105.42 155.018C104.863 155.12 104.435 155.329 104.465 155.485C104.495 155.641 104.971 155.684 105.528 155.582Z" fill="#6C63FF"/>
<path opacity="0.9" d="M105.836 154.068C106.393 153.966 106.82 153.756 106.79 153.601C106.76 153.445 106.285 153.402 105.728 153.504C105.17 153.606 104.743 153.816 104.773 153.971C104.803 154.127 105.278 154.17 105.836 154.068Z" fill="#6C63FF"/>
<path opacity="0.9" d="M105.255 154.827C105.81 154.727 106.237 154.52 106.208 154.365C106.179 154.209 105.705 154.165 105.149 154.264C104.594 154.364 104.167 154.571 104.196 154.726C104.225 154.882 104.699 154.926 105.255 154.827Z" fill="#6C63FF"/>
<path opacity="0.9" d="M106.392 155.425C106.949 155.323 107.377 155.114 107.347 154.958C107.317 154.802 106.841 154.759 106.284 154.861C105.727 154.964 105.3 155.173 105.329 155.329C105.359 155.484 105.835 155.528 106.392 155.425Z" fill="#6C63FF"/>
<path opacity="0.9" d="M109.057 153.765C109.614 153.663 110.042 153.454 110.012 153.298C109.982 153.142 109.506 153.099 108.949 153.201C108.392 153.304 107.965 153.513 107.994 153.669C108.024 153.824 108.5 153.868 109.057 153.765Z" fill="#6C63FF"/>
<path opacity="0.9" d="M110.159 153.273C110.716 153.171 111.143 152.961 111.114 152.806C111.084 152.65 110.608 152.607 110.051 152.709C109.494 152.812 109.066 153.021 109.096 153.176C109.126 153.332 109.602 153.375 110.159 153.273Z" fill="#6C63FF"/>
<path opacity="0.9" d="M110.259 153.837C110.817 153.735 111.244 153.526 111.214 153.37C111.184 153.214 110.708 153.171 110.151 153.274C109.594 153.376 109.167 153.585 109.197 153.741C109.226 153.897 109.702 153.94 110.259 153.837Z" fill="#6C63FF"/>
<path opacity="0.9" d="M108.983 154.949C109.54 154.846 109.968 154.637 109.938 154.481C109.908 154.326 109.432 154.283 108.875 154.385C108.318 154.487 107.89 154.697 107.92 154.852C107.95 155.008 108.426 155.051 108.983 154.949Z" fill="#6C63FF"/>
<path opacity="0.9" d="M109.268 154.894C109.825 154.792 110.253 154.582 110.223 154.427C110.193 154.271 109.717 154.228 109.16 154.33C108.603 154.433 108.176 154.642 108.205 154.798C108.235 154.953 108.711 154.996 109.268 154.894Z" fill="#6C63FF"/>
<path opacity="0.9" d="M108.983 154.949C109.54 154.846 109.968 154.637 109.938 154.481C109.908 154.326 109.432 154.283 108.875 154.385C108.318 154.487 107.89 154.697 107.92 154.852C107.95 155.008 108.426 155.051 108.983 154.949Z" fill="#6C63FF"/>
<path opacity="0.9" d="M108.118 155.105C108.675 155.003 109.102 154.793 109.073 154.638C109.043 154.482 108.567 154.439 108.01 154.541C107.453 154.644 107.025 154.853 107.055 155.008C107.085 155.164 107.561 155.207 108.118 155.105Z" fill="#6C63FF"/>
<path opacity="0.9" d="M106.753 154.191C107.31 154.089 107.737 153.879 107.707 153.724C107.677 153.568 107.202 153.525 106.645 153.627C106.087 153.73 105.66 153.939 105.69 154.094C105.72 154.25 106.195 154.293 106.753 154.191Z" fill="#3F3D56"/>
<path opacity="0.9" d="M107.15 154.699C107.707 154.596 108.135 154.387 108.105 154.231C108.075 154.076 107.599 154.033 107.042 154.135C106.485 154.237 106.057 154.447 106.087 154.602C106.117 154.758 106.593 154.801 107.15 154.699Z" fill="#6C63FF"/>
<path opacity="0.9" d="M107.851 153.695C108.408 153.592 108.836 153.383 108.806 153.228C108.776 153.072 108.3 153.029 107.743 153.131C107.186 153.233 106.759 153.443 106.788 153.598C106.818 153.754 107.294 153.797 107.851 153.695Z" fill="#3F3D56"/>
<path opacity="0.9" d="M107.955 154.261C108.512 154.159 108.939 153.95 108.909 153.794C108.88 153.638 108.404 153.595 107.847 153.697C107.29 153.8 106.862 154.009 106.892 154.165C106.922 154.32 107.398 154.364 107.955 154.261Z" fill="#6C63FF"/>
<path opacity="0.9" d="M107.725 154.597C108.282 154.495 108.71 154.286 108.68 154.13C108.65 153.974 108.174 153.931 107.617 154.033C107.06 154.136 106.633 154.345 106.662 154.501C106.692 154.656 107.168 154.7 107.725 154.597Z" fill="#3F3D56"/>
<path opacity="0.9" d="M108.879 154.384C109.436 154.282 109.863 154.073 109.833 153.917C109.803 153.761 109.328 153.718 108.77 153.82C108.213 153.923 107.786 154.132 107.816 154.288C107.846 154.443 108.321 154.487 108.879 154.384Z" fill="#6C63FF"/>
<path opacity="0.9" d="M109.67 155.406C110.227 155.303 110.654 155.094 110.624 154.938C110.594 154.783 110.119 154.74 109.562 154.842C109.004 154.944 108.577 155.154 108.607 155.309C108.637 155.465 109.112 155.508 109.67 155.406Z" fill="#6C63FF"/>
<path opacity="0.9" d="M109.973 153.888C110.53 153.786 110.958 153.577 110.928 153.421C110.898 153.265 110.422 153.222 109.865 153.324C109.308 153.427 108.881 153.636 108.91 153.792C108.94 153.947 109.416 153.991 109.973 153.888Z" fill="#6C63FF"/>
<path opacity="0.9" d="M110.085 154.455C110.642 154.352 111.069 154.143 111.039 153.987C111.01 153.832 110.534 153.788 109.977 153.891C109.419 153.993 108.992 154.202 109.022 154.358C109.052 154.514 109.527 154.557 110.085 154.455Z" fill="#6C63FF"/>
<path opacity="0.9" d="M110.53 155.248C111.087 155.145 111.515 154.936 111.485 154.78C111.455 154.625 110.979 154.581 110.422 154.684C109.865 154.786 109.437 154.995 109.467 155.151C109.497 155.307 109.973 155.35 110.53 155.248Z" fill="#6C63FF"/>
<path opacity="0.9" d="M113.199 153.589C113.756 153.487 114.183 153.278 114.154 153.122C114.124 152.966 113.648 152.923 113.091 153.026C112.534 153.128 112.106 153.337 112.136 153.493C112.166 153.649 112.642 153.692 113.199 153.589Z" fill="#6C63FF"/>
<path opacity="0.9" d="M114.297 153.097C114.854 152.995 115.281 152.786 115.251 152.63C115.221 152.474 114.746 152.431 114.188 152.533C113.631 152.636 113.204 152.845 113.234 153.001C113.264 153.156 113.739 153.2 114.297 153.097Z" fill="#6C63FF"/>
<path opacity="0.9" d="M114.405 153.66C114.962 153.557 115.39 153.348 115.36 153.192C115.33 153.037 114.854 152.993 114.297 153.096C113.74 153.198 113.312 153.407 113.342 153.563C113.372 153.719 113.848 153.762 114.405 153.66Z" fill="#A1616A"/>
<path opacity="0.9" d="M113.128 154.771C113.685 154.669 114.112 154.459 114.082 154.304C114.052 154.148 113.577 154.105 113.02 154.207C112.462 154.31 112.035 154.519 112.065 154.674C112.095 154.83 112.57 154.873 113.128 154.771Z" fill="#6C63FF"/>
<path opacity="0.9" d="M113.41 154.716C113.967 154.614 114.394 154.405 114.365 154.249C114.335 154.093 113.859 154.05 113.302 154.153C112.745 154.255 112.317 154.464 112.347 154.62C112.377 154.775 112.853 154.819 113.41 154.716Z" fill="#6C63FF"/>
<path opacity="0.9" d="M113.128 154.771C113.685 154.669 114.112 154.459 114.082 154.304C114.052 154.148 113.577 154.105 113.02 154.207C112.462 154.31 112.035 154.519 112.065 154.674C112.095 154.83 112.57 154.873 113.128 154.771Z" fill="#6C63FF"/>
<path opacity="0.9" d="M112.259 154.929C112.817 154.827 113.244 154.618 113.214 154.462C113.184 154.306 112.708 154.263 112.151 154.365C111.594 154.468 111.167 154.677 111.197 154.833C111.226 154.988 111.702 155.032 112.259 154.929Z" fill="#6C63FF"/>
<path opacity="0.9" d="M110.19 154.233C110.746 154.133 111.173 153.926 111.144 153.771C111.114 153.616 110.64 153.571 110.085 153.671C109.529 153.771 109.103 153.977 109.132 154.133C109.161 154.288 109.635 154.333 110.19 154.233Z" fill="#A1616A"/>
<path opacity="0.9" d="M111.291 154.525C111.848 154.423 112.275 154.213 112.245 154.058C112.216 153.902 111.74 153.859 111.183 153.961C110.625 154.063 110.198 154.273 110.228 154.428C110.258 154.584 110.734 154.627 111.291 154.525Z" fill="#6C63FF"/>
<path d="M87.6994 115.398L87.4824 115.611C87.4824 115.611 97.3318 130.696 99.5126 132.3L100.183 131.769C100.183 131.769 97.666 127.243 87.6994 115.398Z" fill="#2F2E41"/>
<path d="M100.762 132.322C100.762 132.322 100.244 131.404 100.044 131.587C99.8446 131.769 99.2023 132.194 99.2869 132.328C99.3716 132.462 99.9379 133.197 99.9379 133.197C99.9379 133.197 100.68 133.176 100.908 132.543L100.762 132.322Z" fill="#464353"/>
<path opacity="0.9" d="M104.047 137.136L103.937 137.111C103.937 137.111 104.023 136.62 102.837 136.114C102.62 136.023 102.398 135.943 102.173 135.874C100.35 135.311 99.638 134.075 100.003 133.191C100.012 133.161 100.024 133.132 100.037 133.104L100.797 132.52L100.886 132.594C101.346 132.961 101.849 133.274 102.383 133.527C103.069 133.831 103.615 134.375 103.915 135.052C104.169 135.719 104.215 136.444 104.047 137.136Z" fill="#FDD8D8"/>
<path opacity="0.2" d="M100.737 132.678C100.737 132.678 100.995 133.23 102.353 133.882C103.712 134.535 104 136.432 104 136.432C104 136.432 103.293 134.675 102.206 134.352C101.118 134.029 100.637 132.778 100.637 132.778L100.737 132.678Z" stroke="#2F2E41" stroke-width="0.25" stroke-miterlimit="10"/>
<path opacity="0.2" d="M100.53 132.896C100.53 132.896 100.469 133.642 101.359 134.303C102.248 134.964 103.939 136.03 103.976 136.532C103.976 136.532 103.162 135.701 102.457 135.425C101.751 135.149 100.79 134.59 100.682 134.071C100.682 134.071 100.291 133.26 100.406 132.943L100.53 132.896Z" stroke="#2F2E41" stroke-width="0.25" stroke-miterlimit="10"/>
<path opacity="0.2" d="M100.259 133.062C100.259 133.062 99.894 133.779 100.784 134.779C101.214 135.168 101.73 135.455 102.292 135.616C102.918 135.83 103.473 136.206 103.898 136.704" stroke="#2F2E41" stroke-width="0.25" stroke-miterlimit="10"/>
<path opacity="0.9" d="M111.989 153.521C112.546 153.419 112.973 153.209 112.944 153.054C112.914 152.898 112.438 152.855 111.881 152.957C111.324 153.06 110.896 153.269 110.926 153.424C110.956 153.58 111.432 153.623 111.989 153.521Z" fill="#3F3D56"/>
<path opacity="0.9" d="M112.1 154.082C112.657 153.979 113.085 153.77 113.055 153.614C113.025 153.459 112.549 153.415 111.992 153.518C111.435 153.62 111.008 153.829 111.037 153.985C111.067 154.141 111.543 154.184 112.1 154.082Z" fill="#6C63FF"/>
<path opacity="0.9" d="M111.866 154.417C112.423 154.315 112.85 154.106 112.821 153.95C112.791 153.795 112.315 153.751 111.758 153.854C111.201 153.956 110.773 154.165 110.803 154.321C110.833 154.477 111.309 154.52 111.866 154.417Z" fill="#6C63FF"/>
<path d="M74.8027 133.033C74.7991 133.437 74.7363 133.838 74.6161 134.225C74.5315 134.427 74.3991 134.609 74.3036 134.807C73.8805 135.657 74.0671 136.653 74.0085 137.594C73.9602 138.128 73.8717 138.657 73.7438 139.177C73.2686 141.344 72.7934 143.514 72.2248 145.664C72.0382 146.384 71.8494 147.177 72.1836 147.842C72.2704 148.014 72.3876 148.169 72.4592 148.347C72.6588 148.836 72.4744 149.41 72.648 149.905C72.7403 150.153 72.914 150.365 73.142 150.507C73.3701 150.649 73.6397 150.713 73.9087 150.689C74.0302 148.655 75.0045 146.756 76.1915 145.082C76.7557 144.287 77.3871 143.512 78.2226 142.995C78.6327 142.742 79.0905 142.549 79.4204 142.199C79.7509 141.796 79.9585 141.311 80.0193 140.798C80.5921 137.658 79.2186 134.501 77.6323 131.711C77.3025 131.131 76.6038 129.842 75.9072 130.328C75.2107 130.815 74.883 132.251 74.8027 133.033Z" fill="#3F3D56"/>
<path opacity="0.1" d="M91.8453 108.913C87.9611 108.913 84.7453 107.545 84.1702 105.758C84.1097 105.943 84.079 106.137 84.0791 106.331C84.0791 108.39 87.551 110.06 91.8453 110.06C96.1397 110.06 99.6094 108.39 99.6094 106.331C99.6095 106.137 99.5788 105.943 99.5183 105.758C98.9432 107.545 95.7274 108.913 91.8453 108.913Z" fill="black"/>
<g opacity="0.1">
<path opacity="0.1" d="M74.2341 148.346C74.1603 148.167 74.0431 148.012 73.9563 147.84C73.6222 147.175 73.8109 146.383 73.9997 145.662C74.5574 143.512 75.0326 141.343 75.5187 139.176C75.6469 138.655 75.7347 138.126 75.7813 137.593C75.8398 136.652 75.6554 135.651 76.0764 134.805C76.1762 134.608 76.3042 134.425 76.3888 134.223C76.5101 133.837 76.5729 133.435 76.5755 133.031C76.6429 132.328 76.8361 131.642 77.1461 131.004C77.0984 130.384 77.0897 129.759 77.081 129.147C77.0774 128.659 77.1152 128.172 77.1939 127.69C77.2915 127.084 77.5237 126.517 78.0922 126.256C78.5262 125.618 78.6825 124.83 78.7085 124.057C78.728 123.541 78.7085 123.007 78.8995 122.525C79.2857 121.565 80.4184 121.11 81.4535 120.959C82.4885 120.808 83.5952 120.844 84.5543 120.413C84.9156 120.24 85.2599 120.034 85.5829 119.799C86.5181 119.162 87.4555 118.524 88.3409 117.821L87.6031 117.184C87.564 117.152 87.5206 117.113 87.4707 117.12C87.4338 117.13 87.4001 117.149 87.3731 117.175C86.2419 118.122 85.0527 119 83.8122 119.805C83.4893 120.04 83.145 120.246 82.7837 120.419C81.8245 120.844 80.7265 120.812 79.6828 120.965C78.6391 121.118 77.5129 121.571 77.1266 122.531C76.9313 123.014 76.9574 123.547 76.9357 124.063C76.9096 124.837 76.7664 125.627 76.3216 126.262C75.753 126.524 75.5209 127.091 75.421 127.696C75.347 128.179 75.3129 128.666 75.3191 129.154C75.3191 129.766 75.3364 130.39 75.3841 131.011C75.0731 131.648 74.8799 132.334 74.8135 133.038C74.8099 133.442 74.747 133.843 74.6268 134.23C74.5422 134.431 74.4098 134.614 74.3144 134.812C73.8912 135.662 74.0778 136.658 74.0193 137.599C73.9709 138.133 73.8824 138.662 73.7545 139.182C73.2793 141.349 72.8041 143.519 72.2356 145.669C72.049 146.389 71.8602 147.181 72.1943 147.846C72.2811 148.019 72.3983 148.174 72.4699 148.352C72.6696 148.841 72.4851 149.414 72.6587 149.91C72.751 150.158 72.9247 150.37 73.1528 150.512C73.3808 150.653 73.6504 150.717 73.9194 150.693C73.9643 150.012 74.0955 149.338 74.31 148.688C74.3005 148.571 74.2749 148.456 74.2341 148.346Z" fill="black"/>
<path opacity="0.1" d="M95.4406 123.544C95.5512 123.757 95.6576 123.969 95.7531 124.182C96.026 124.775 96.2474 125.39 96.4149 126.02C96.506 126.353 96.5798 126.689 96.6319 127.027C96.6731 127.271 96.7078 127.518 96.7317 127.768C96.7418 127.85 96.7505 127.933 96.7577 128.017C96.9089 127.986 97.0516 127.925 97.1765 127.836C97.3108 127.742 97.414 127.611 97.4738 127.46C97.5273 127.323 97.5651 127.181 97.5866 127.035C97.6138 126.851 97.6291 126.665 97.6322 126.479C97.6322 126.266 97.6452 126.035 97.6452 125.814C97.6465 125.426 97.6094 125.04 97.5346 124.66C97.3913 123.963 97.0745 123.311 96.8836 122.624C96.8684 122.576 96.8575 122.522 96.8445 122.472C96.7284 122.266 96.6603 122.038 96.6449 121.804C96.5104 121.73 96.5017 121.609 96.506 121.46C96.51 121.154 96.4479 120.851 96.3237 120.57C96.2891 120.472 96.232 120.382 96.1568 120.309C96.0816 120.235 95.9903 120.179 95.8898 120.145C95.6185 120.09 95.369 120.319 95.2388 120.555C94.8829 121.178 94.9415 121.951 95.1346 122.635C95.2171 122.937 95.3299 123.241 95.4406 123.544Z" fill="black"/>
<path opacity="0.1" d="M83.6374 192.019C83.2663 189.616 82.7173 187.236 82.4352 184.82C81.9123 180.335 82.3007 175.793 81.921 171.295C81.7669 169.48 81.487 167.683 81.3264 165.869C80.9423 161.579 80.517 157.013 82.3354 153.093C82.598 152.528 82.8584 151.965 83.1209 151.404C83.2009 151.257 83.2518 151.096 83.2707 150.93C83.2748 150.847 83.2631 150.763 83.236 150.684C83.1296 150.327 82.7781 150.046 82.5676 149.711C82.2139 149.163 82.2508 148.461 82.3007 147.813C82.3246 147.539 82.3984 147.314 82.4179 147.04C81.6562 146.005 81.2114 144.824 80.8772 143.587C80.7904 143.269 80.7101 142.95 80.6342 142.625C80.4172 142.752 80.2002 142.865 79.9832 142.995C79.6766 143.187 79.3921 143.412 79.1348 143.664C79.4255 144.871 79.9404 146.015 80.6537 147.04C80.6342 147.314 80.5604 147.539 80.5365 147.813C80.4866 148.461 80.4476 149.163 80.8035 149.711C81.0204 150.044 81.3655 150.327 81.4718 150.684C81.4979 150.763 81.5096 150.847 81.5065 150.93C81.4876 151.096 81.4368 151.257 81.3568 151.404C81.0935 151.971 80.8317 152.534 80.5713 153.093C78.7507 157.013 79.176 161.579 79.5601 165.869C79.725 167.681 79.9941 169.48 80.1546 171.295C80.5366 175.793 80.1546 180.335 80.6711 184.82C80.9532 187.236 81.5 189.616 81.8732 192.019C82.212 194.212 82.4069 196.424 82.4569 198.641C83.0243 198.467 83.6048 198.337 84.1929 198.252C84.1369 196.165 83.9514 194.084 83.6374 192.019Z" fill="black"/>
<path opacity="0.1" d="M96.4372 199.693C93.3993 198.813 90.2073 197.959 87.1064 198.14C89.6453 198.28 92.2188 198.989 94.6796 199.693C95.8644 200.037 97.0925 200.39 98.3272 200.264C98.4292 200.264 98.5312 200.234 98.6332 200.22C97.8894 200.095 97.1556 199.919 96.4372 199.693Z" fill="black"/>
</g>
<path d="M73.1055 148.818L74.0602 151.079C74.2295 151.476 74.4096 151.893 74.7525 152.162C74.969 152.316 75.2177 152.42 75.4805 152.467C75.7433 152.514 76.0135 152.503 76.2714 152.434C76.7836 152.294 77.2715 152.079 77.7188 151.797C79.1661 150.992 80.6135 150.184 82.0218 149.311C84.6389 147.687 87.1074 145.844 89.3996 143.802C90.8795 142.485 92.2834 141.085 93.6852 139.687L95.9289 137.441C96.3195 137.054 96.3065 136.406 96.2978 135.862C96.2674 134.162 95.4298 132.582 95.228 130.899C95.1837 130.686 95.2041 130.464 95.2866 130.262C95.3339 130.164 95.4171 130.088 95.5194 130.049C95.6217 130.01 95.7355 130.01 95.8378 130.049C96.1524 130.209 95.9419 130.735 96.1763 130.997C96.3933 131.224 96.8078 131.067 96.9336 130.784C97.0255 130.49 97.0148 130.175 96.9032 129.888L97.1745 129.777C97.5889 129.004 97.1593 127.995 96.4302 127.487C95.7011 126.979 94.768 126.866 93.874 126.849V126.212C95.1465 126.079 96.4334 126.186 97.6649 126.527C97.8515 126.314 97.7322 125.995 97.5586 125.781C97.0052 125.095 96.0201 124.863 95.1369 124.982C94.2537 125.101 93.44 125.509 92.6501 125.912L93.8284 123.021C93.9607 122.756 94.0283 122.465 94.0259 122.171C94.0214 122.024 93.9662 121.883 93.8693 121.771C93.7723 121.658 93.6394 121.582 93.4921 121.553L92.6675 122.978C91.895 124.315 91.103 125.713 91.0075 127.245C90.9895 128.066 91.074 128.887 91.2592 129.688C91.3959 130.417 91.3482 131.116 91.5543 131.83C91.817 132.737 92.0206 133.659 92.1641 134.592C92.2558 134.984 92.2423 135.393 92.125 135.779C91.8559 136.468 91.04 136.767 90.5193 137.296C89.6513 137.347 88.8441 137.887 88.1779 138.452C87.1201 139.398 85.9552 140.222 84.706 140.908C83.8751 141.317 83.0192 141.675 82.1433 141.981C81.1668 142.347 80.1643 142.714 79.1206 142.731C78.3415 142.731 77.5387 142.559 76.7965 142.789C75.679 143.131 75.0606 144.276 74.5615 145.304L73.7348 147.004C73.478 147.592 73.2676 148.199 73.1055 148.818Z" fill="#FBBEBE"/>
<path d="M76.128 144.949C76.7074 144.135 77.3583 143.343 78.2176 142.824C78.3782 142.727 78.5431 142.637 78.7059 142.546C78.0397 142.514 77.3692 142.423 76.7377 142.614C75.5898 142.967 74.954 144.131 74.4376 145.191L73.5826 146.927C73.3178 147.526 73.1002 148.144 72.9316 148.775L73.7454 150.688H73.7649C73.8994 148.605 74.9041 146.664 76.128 144.949Z" fill="#3F3D56"/>
<path d="M112.794 149.027C113.117 149.027 113.38 148.719 113.38 148.339C113.38 147.959 113.117 147.65 112.794 147.65C112.47 147.65 112.208 147.959 112.208 148.339C112.208 148.719 112.47 149.027 112.794 149.027Z" fill="#FBBEBE"/>
<path d="M112.794 149.371C113.117 149.371 113.38 149.063 113.38 148.683C113.38 148.302 113.117 147.994 112.794 147.994C112.47 147.994 112.208 148.302 112.208 148.683C112.208 149.063 112.47 149.371 112.794 149.371Z" fill="#FBBEBE"/>
<path opacity="0.9" d="M104.179 137.606L104.029 137.576C104.029 137.576 104.146 136.975 102.545 136.359C102.547 136.256 102.562 136.153 102.588 136.053C102.604 135.971 102.63 135.891 102.664 135.815C102.694 135.74 102.733 135.669 102.779 135.603C102.869 135.449 102.993 135.316 103.142 135.216C103.24 135.148 103.351 135.098 103.467 135.067C103.552 135.044 103.64 135.032 103.728 135.033C103.818 135.035 103.908 135.046 103.997 135.067C104.294 135.713 104.409 136.548 104.179 137.606Z" fill="#6C63FF"/>
<defs>
<filter id="filter0_d" x="0" y="20.9023" width="240" height="238.99" filterUnits="userSpaceOnUse" color-interpolation-filters="sRGB">
<feFlood flood-opacity="0" result="BackgroundImageFix"/>
<feColorMatrix in="SourceAlpha" type="matrix" values="0 0 0 0 0 0 0 0 0 0 0 0 0 0 0 0 0 0 127 0"/>
<feOffset dy="1"/>
<feGaussianBlur stdDeviation="1"/>
<feColorMatrix type="matrix" values="0 0 0 0 0.0588235 0 0 0 0 0.0588235 0 0 0 0 0.0588235 0 0 0 0.1 0"/>
<feBlend mode="normal" in2="BackgroundImageFix" result="effect1_dropShadow"/>
<feBlend mode="normal" in="SourceGraphic" in2="effect1_dropShadow" result="shape"/>
</filter>
</defs>
</svg>
