<svg width="214" height="237" viewBox="0 0 214 237" fill="none" xmlns="http://www.w3.org/2000/svg">
<g filter="url(#filter0_d)">
<rect x="2" y="19.9375" width="210" height="213.559" rx="20" fill="#3895FF"/>
</g>
<path d="M33.1445 10.3613C33.1445 4.83848 37.6217 0.361328 43.1445 0.361328H170.856C176.379 0.361328 180.856 4.83848 180.856 10.3613V19.9376H33.1445V10.3613Z" fill="#F12587"/>
<path d="M92.044 15.3086C91.12 15.3086 90.3127 15.0986 89.622 14.6786C88.9313 14.2586 88.3947 13.6753 88.012 12.9286C87.6293 12.1726 87.438 11.2953 87.438 10.2966C87.438 9.28862 87.634 8.40196 88.026 7.63662C88.4273 6.86196 88.992 6.25996 89.72 5.83062C90.4573 5.39196 91.33 5.17262 92.338 5.17262C93.486 5.17262 94.438 5.44796 95.194 5.99862C95.95 6.54929 96.44 7.30996 96.664 8.28062H94.662C94.5127 7.82329 94.242 7.46862 93.85 7.21662C93.458 6.95529 92.954 6.82462 92.338 6.82462C91.358 6.82462 90.602 7.13729 90.07 7.76262C89.538 8.37862 89.272 9.22796 89.272 10.3106C89.272 11.3933 89.5333 12.2333 90.056 12.8306C90.588 13.4186 91.3067 13.7126 92.212 13.7126C93.0987 13.7126 93.766 13.4746 94.214 12.9986C94.6713 12.5133 94.9467 11.8786 95.04 11.0946H92.562V9.75062H96.846V15.1406H95.194L95.054 13.8526C94.7367 14.3193 94.34 14.6786 93.864 14.9306C93.388 15.1826 92.7813 15.3086 92.044 15.3086ZM100.94 15.3086C100.343 15.3086 99.8528 15.2153 99.4701 15.0286C99.0875 14.8326 98.8028 14.576 98.6161 14.2586C98.4295 13.9413 98.3361 13.5913 98.3361 13.2086C98.3361 12.5646 98.5881 12.042 99.0921 11.6406C99.5961 11.2393 100.352 11.0386 101.36 11.0386H103.124V10.8706C103.124 10.3946 102.989 10.0446 102.718 9.82062C102.447 9.59662 102.111 9.48462 101.71 9.48462C101.346 9.48462 101.029 9.57329 100.758 9.75062C100.487 9.91862 100.319 10.1706 100.254 10.5066H98.5041C98.5508 10.0026 98.7188 9.56396 99.0081 9.19062C99.3068 8.81729 99.6895 8.53262 100.156 8.33662C100.623 8.13129 101.145 8.02862 101.724 8.02862C102.713 8.02862 103.493 8.27596 104.062 8.77062C104.631 9.26529 104.916 9.96529 104.916 10.8706V15.1406H103.39L103.222 14.0206C103.017 14.394 102.727 14.702 102.354 14.9446C101.99 15.1873 101.519 15.3086 100.94 15.3086ZM101.346 13.9086C101.859 13.9086 102.256 13.7406 102.536 13.4046C102.825 13.0686 103.007 12.6533 103.082 12.1586H101.556C101.08 12.1586 100.739 12.2473 100.534 12.4246C100.329 12.5926 100.226 12.8026 100.226 13.0546C100.226 13.3253 100.329 13.5353 100.534 13.6846C100.739 13.834 101.01 13.9086 101.346 13.9086ZM106.626 15.1406V8.19662H108.208L108.362 9.13462C108.586 8.79862 108.88 8.53262 109.244 8.33662C109.618 8.13129 110.047 8.02862 110.532 8.02862C111.606 8.02862 112.366 8.44396 112.814 9.27462C113.066 8.89196 113.402 8.58862 113.822 8.36462C114.252 8.14062 114.718 8.02862 115.222 8.02862C116.128 8.02862 116.823 8.29929 117.308 8.84062C117.794 9.38196 118.036 10.1753 118.036 11.2206V15.1406H116.244V11.3886C116.244 10.7913 116.128 10.334 115.894 10.0166C115.67 9.69929 115.32 9.54062 114.844 9.54062C114.359 9.54062 113.967 9.71796 113.668 10.0726C113.379 10.4273 113.234 10.922 113.234 11.5566V15.1406H111.442V11.3886C111.442 10.7913 111.326 10.334 111.092 10.0166C110.859 9.69929 110.5 9.54062 110.014 9.54062C109.538 9.54062 109.151 9.71796 108.852 10.0726C108.563 10.4273 108.418 10.922 108.418 11.5566V15.1406H106.626ZM123.112 15.3086C122.412 15.3086 121.791 15.1593 121.25 14.8606C120.708 14.562 120.284 14.142 119.976 13.6006C119.668 13.0593 119.514 12.434 119.514 11.7246C119.514 11.006 119.663 10.3666 119.962 9.80662C120.27 9.24662 120.69 8.81262 121.222 8.50462C121.763 8.18729 122.398 8.02862 123.126 8.02862C123.807 8.02862 124.409 8.17796 124.932 8.47662C125.454 8.77529 125.86 9.18596 126.15 9.70862C126.448 10.222 126.598 10.796 126.598 11.4306C126.598 11.5333 126.593 11.6406 126.584 11.7526C126.584 11.8646 126.579 11.9813 126.57 12.1026H121.292C121.329 12.644 121.516 13.0686 121.852 13.3766C122.197 13.6846 122.612 13.8386 123.098 13.8386C123.462 13.8386 123.765 13.7593 124.008 13.6006C124.26 13.4326 124.446 13.218 124.568 12.9566H126.388C126.257 13.3953 126.038 13.7966 125.73 14.1606C125.431 14.5153 125.058 14.7953 124.61 15.0006C124.171 15.206 123.672 15.3086 123.112 15.3086ZM123.126 9.48462C122.687 9.48462 122.3 9.61062 121.964 9.86262C121.628 10.1053 121.413 10.4786 121.32 10.9826H124.778C124.75 10.5253 124.582 10.1613 124.274 9.89062C123.966 9.61996 123.583 9.48462 123.126 9.48462Z" fill="white"/>
<path d="M49.6993 99.1758L53.5693 88.6758H54.9043L58.7593 99.1758H57.4243L56.4643 96.4758H51.9943L51.0193 99.1758H49.6993ZM52.3693 95.4558H56.0893L54.2293 90.2658L52.3693 95.4558ZM64.62 99.1758V92.8008H63.495V91.7358H64.62V90.4458C64.62 89.7258 64.8 89.2008 65.16 88.8708C65.52 88.5408 66.045 88.3758 66.735 88.3758H67.485V89.4558H66.93C66.55 89.4558 66.28 89.5358 66.12 89.6958C65.96 89.8458 65.88 90.1058 65.88 90.4758V91.7358H67.71V92.8008H65.88V99.1758H64.62ZM71.9251 99.3558C71.0451 99.3558 70.3451 99.0908 69.8251 98.5608C69.3051 98.0208 69.0451 97.1958 69.0451 96.0858V91.7358H70.3051V95.9508C70.3051 97.5008 70.9401 98.2758 72.2101 98.2758C72.8601 98.2758 73.3951 98.0458 73.8151 97.5858C74.2451 97.1158 74.4601 96.4508 74.4601 95.5908V91.7358H75.7201V99.1758H74.5801L74.4901 97.8408C74.2601 98.3108 73.9151 98.6808 73.4551 98.9508C73.0051 99.2208 72.4951 99.3558 71.9251 99.3558ZM77.7941 99.1758V91.7358H78.9341L79.0091 93.0708C79.2491 92.6008 79.5941 92.2308 80.0441 91.9608C80.4941 91.6908 81.0041 91.5558 81.5741 91.5558C82.4541 91.5558 83.1541 91.8258 83.6741 92.3658C84.2041 92.8958 84.4691 93.7158 84.4691 94.8258V99.1758H83.2091V94.9608C83.2091 93.4108 82.5691 92.6358 81.2891 92.6358C80.6491 92.6358 80.1141 92.8708 79.6841 93.3408C79.2641 93.8008 79.0541 94.4608 79.0541 95.3208V99.1758H77.7941ZM90.7528 99.1758V92.8008H89.6278V91.7358H90.7528V90.4458C90.7528 89.7258 90.9328 89.2008 91.2928 88.8708C91.6528 88.5408 92.1778 88.3758 92.8678 88.3758H93.6178V89.4558H93.0628C92.6828 89.4558 92.4128 89.5358 92.2528 89.6958C92.0928 89.8458 92.0128 90.1058 92.0128 90.4758V91.7358H96.6328V99.1758H95.3728V92.8008H92.0128V99.1758H90.7528ZM96.0178 90.3108C95.7778 90.3108 95.5728 90.2308 95.4028 90.0708C95.2328 89.9008 95.1478 89.6908 95.1478 89.4408C95.1478 89.2008 95.2328 89.0008 95.4028 88.8408C95.5728 88.6808 95.7778 88.6008 96.0178 88.6008C96.2678 88.6008 96.4728 88.6808 96.6328 88.8408C96.8028 89.0008 96.8878 89.2008 96.8878 89.4408C96.8878 89.6908 96.8028 89.9008 96.6328 90.0708C96.4728 90.2308 96.2678 90.3108 96.0178 90.3108ZM98.8585 99.1758V88.3758H100.119V99.1758H98.8585ZM102.184 99.1758V88.3758H103.444V99.1758H102.184ZM108.854 99.3558C108.144 99.3558 107.514 99.1958 106.964 98.8758C106.414 98.5458 105.979 98.0908 105.659 97.5108C105.349 96.9308 105.194 96.2458 105.194 95.4558C105.194 94.6758 105.349 93.9958 105.659 93.4158C105.969 92.8258 106.399 92.3708 106.949 92.0508C107.509 91.7208 108.154 91.5558 108.884 91.5558C109.604 91.5558 110.224 91.7208 110.744 92.0508C111.274 92.3708 111.679 92.7958 111.959 93.3258C112.239 93.8558 112.379 94.4258 112.379 95.0358C112.379 95.1458 112.374 95.2558 112.364 95.3658C112.364 95.4758 112.364 95.6008 112.364 95.7408H106.439C106.469 96.3108 106.599 96.7858 106.829 97.1658C107.069 97.5358 107.364 97.8158 107.714 98.0058C108.074 98.1958 108.454 98.2908 108.854 98.2908C109.374 98.2908 109.809 98.1708 110.159 97.9308C110.509 97.6908 110.764 97.3658 110.924 96.9558H112.169C111.969 97.6458 111.584 98.2208 111.014 98.6808C110.454 99.1308 109.734 99.3558 108.854 99.3558ZM108.854 92.6208C108.254 92.6208 107.719 92.8058 107.249 93.1758C106.789 93.5358 106.524 94.0658 106.454 94.7658H111.134C111.104 94.0958 110.874 93.5708 110.444 93.1908C110.014 92.8108 109.484 92.6208 108.854 92.6208ZM117.424 99.3558C116.684 99.3558 116.034 99.1858 115.474 98.8458C114.924 98.5058 114.494 98.0408 114.184 97.4508C113.884 96.8608 113.734 96.1908 113.734 95.4408C113.734 94.6908 113.889 94.0258 114.199 93.4458C114.509 92.8558 114.939 92.3958 115.489 92.0658C116.039 91.7258 116.689 91.5558 117.439 91.5558C118.049 91.5558 118.589 91.6808 119.059 91.9308C119.529 92.1808 119.894 92.5308 120.154 92.9808V88.3758H121.414V99.1758H120.274L120.154 97.9458C119.914 98.3058 119.569 98.6308 119.119 98.9208C118.669 99.2108 118.104 99.3558 117.424 99.3558ZM117.559 98.2608C118.059 98.2608 118.499 98.1458 118.879 97.9158C119.269 97.6758 119.569 97.3458 119.779 96.9258C119.999 96.5058 120.109 96.0158 120.109 95.4558C120.109 94.8958 119.999 94.4058 119.779 93.9858C119.569 93.5658 119.269 93.2408 118.879 93.0108C118.499 92.7708 118.059 92.6508 117.559 92.6508C117.069 92.6508 116.629 92.7708 116.239 93.0108C115.859 93.2408 115.559 93.5658 115.339 93.9858C115.129 94.4058 115.024 94.8958 115.024 95.4558C115.024 96.0158 115.129 96.5058 115.339 96.9258C115.559 97.3458 115.859 97.6758 116.239 97.9158C116.629 98.1458 117.069 98.2608 117.559 98.2608ZM130.378 96.8358C129.958 96.8358 129.573 96.7808 129.223 96.6708L128.473 97.3758C128.583 97.4558 128.718 97.5258 128.878 97.5858C129.048 97.6358 129.288 97.6858 129.598 97.7358C129.908 97.7758 130.343 97.8208 130.903 97.8708C131.903 97.9408 132.618 98.1708 133.048 98.5608C133.478 98.9508 133.693 99.4608 133.693 100.091C133.693 100.521 133.573 100.931 133.333 101.321C133.103 101.711 132.743 102.031 132.253 102.281C131.773 102.531 131.153 102.656 130.393 102.656C129.723 102.656 129.128 102.566 128.608 102.386C128.088 102.216 127.683 101.951 127.393 101.591C127.103 101.241 126.958 100.796 126.958 100.256C126.958 99.9758 127.033 99.6708 127.183 99.3408C127.333 99.0208 127.613 98.7158 128.023 98.4258C127.803 98.3358 127.613 98.2408 127.453 98.1408C127.303 98.0308 127.163 97.9108 127.033 97.7808V97.4358L128.308 96.1758C127.718 95.6758 127.423 95.0158 127.423 94.1958C127.423 93.7058 127.538 93.2608 127.768 92.8608C127.998 92.4608 128.333 92.1458 128.773 91.9158C129.213 91.6758 129.748 91.5558 130.378 91.5558C130.808 91.5558 131.198 91.6158 131.548 91.7358H134.293V92.6808L132.898 92.7408C133.188 93.1608 133.333 93.6458 133.333 94.1958C133.333 94.6858 133.213 95.1308 132.973 95.5308C132.743 95.9308 132.408 96.2508 131.968 96.4908C131.538 96.7208 131.008 96.8358 130.378 96.8358ZM130.378 95.8008C130.908 95.8008 131.328 95.6658 131.638 95.3958C131.958 95.1158 132.118 94.7158 132.118 94.1958C132.118 93.6858 131.958 93.2958 131.638 93.0258C131.328 92.7458 130.908 92.6058 130.378 92.6058C129.838 92.6058 129.408 92.7458 129.088 93.0258C128.778 93.2958 128.623 93.6858 128.623 94.1958C128.623 94.7158 128.778 95.1158 129.088 95.3958C129.408 95.6658 129.838 95.8008 130.378 95.8008ZM128.188 100.136C128.188 100.636 128.398 101.006 128.818 101.246C129.238 101.496 129.763 101.621 130.393 101.621C131.013 101.621 131.508 101.486 131.878 101.216C132.258 100.946 132.448 100.586 132.448 100.136C132.448 99.8158 132.318 99.5358 132.058 99.2958C131.798 99.0658 131.318 98.9308 130.618 98.8908C130.068 98.8508 129.593 98.8008 129.193 98.7408C128.783 98.9608 128.513 99.1958 128.383 99.4458C128.253 99.7058 128.188 99.9358 128.188 100.136ZM138.189 99.3558C137.569 99.3558 137.054 99.2508 136.644 99.0408C136.234 98.8308 135.929 98.5508 135.729 98.2008C135.529 97.8508 135.429 97.4708 135.429 97.0608C135.429 96.3008 135.719 95.7158 136.299 95.3058C136.879 94.8958 137.669 94.6908 138.669 94.6908H140.679V94.6008C140.679 93.9508 140.509 93.4608 140.169 93.1308C139.829 92.7908 139.374 92.6208 138.804 92.6208C138.314 92.6208 137.889 92.7458 137.529 92.9958C137.179 93.2358 136.959 93.5908 136.869 94.0608H135.579C135.629 93.5208 135.809 93.0658 136.119 92.6958C136.439 92.3258 136.834 92.0458 137.304 91.8558C137.774 91.6558 138.274 91.5558 138.804 91.5558C139.844 91.5558 140.624 91.8358 141.144 92.3958C141.674 92.9458 141.939 93.6808 141.939 94.6008V99.1758H140.814L140.739 97.8408C140.529 98.2608 140.219 98.6208 139.809 98.9208C139.409 99.2108 138.869 99.3558 138.189 99.3558ZM138.384 98.2908C138.864 98.2908 139.274 98.1658 139.614 97.9158C139.964 97.6658 140.229 97.3408 140.409 96.9408C140.589 96.5408 140.679 96.1208 140.679 95.6808V95.6658H138.774C138.034 95.6658 137.509 95.7958 137.199 96.0558C136.899 96.3058 136.749 96.6208 136.749 97.0008C136.749 97.3908 136.889 97.7058 137.169 97.9458C137.459 98.1758 137.864 98.2908 138.384 98.2908ZM143.829 99.1758V91.7358H144.969L145.059 92.8158C145.299 92.4158 145.619 92.1058 146.019 91.8858C146.419 91.6658 146.869 91.5558 147.369 91.5558C147.959 91.5558 148.464 91.6758 148.884 91.9158C149.314 92.1558 149.644 92.5208 149.874 93.0108C150.134 92.5608 150.489 92.2058 150.939 91.9458C151.399 91.6858 151.894 91.5558 152.424 91.5558C153.314 91.5558 154.024 91.8258 154.554 92.3658C155.084 92.8958 155.349 93.7158 155.349 94.8258V99.1758H154.104V94.9608C154.104 94.1908 153.949 93.6108 153.639 93.2208C153.329 92.8308 152.884 92.6358 152.304 92.6358C151.704 92.6358 151.204 92.8708 150.804 93.3408C150.414 93.8008 150.219 94.4608 150.219 95.3208V99.1758H148.959V94.9608C148.959 94.1908 148.804 93.6108 148.494 93.2208C148.184 92.8308 147.739 92.6358 147.159 92.6358C146.569 92.6358 146.074 92.8708 145.674 93.3408C145.284 93.8008 145.089 94.4608 145.089 95.3208V99.1758H143.829ZM160.592 99.3558C159.882 99.3558 159.252 99.1958 158.702 98.8758C158.152 98.5458 157.717 98.0908 157.397 97.5108C157.087 96.9308 156.932 96.2458 156.932 95.4558C156.932 94.6758 157.087 93.9958 157.397 93.4158C157.707 92.8258 158.137 92.3708 158.687 92.0508C159.247 91.7208 159.892 91.5558 160.622 91.5558C161.342 91.5558 161.962 91.7208 162.482 92.0508C163.012 92.3708 163.417 92.7958 163.697 93.3258C163.977 93.8558 164.117 94.4258 164.117 95.0358C164.117 95.1458 164.112 95.2558 164.102 95.3658C164.102 95.4758 164.102 95.6008 164.102 95.7408H158.177C158.207 96.3108 158.337 96.7858 158.567 97.1658C158.807 97.5358 159.102 97.8158 159.452 98.0058C159.812 98.1958 160.192 98.2908 160.592 98.2908C161.112 98.2908 161.547 98.1708 161.897 97.9308C162.247 97.6908 162.502 97.3658 162.662 96.9558H163.907C163.707 97.6458 163.322 98.2208 162.752 98.6808C162.192 99.1308 161.472 99.3558 160.592 99.3558ZM160.592 92.6208C159.992 92.6208 159.457 92.8058 158.987 93.1758C158.527 93.5358 158.262 94.0658 158.192 94.7658H162.872C162.842 94.0958 162.612 93.5708 162.182 93.1908C161.752 92.8108 161.222 92.6208 160.592 92.6208ZM40.6002 119.176L38.4252 111.736H39.6852L41.2602 117.571L43.0002 111.736H44.4252L46.1802 117.571L47.7402 111.736H49.0152L46.8402 119.176H45.5502L43.7202 113.041L41.8902 119.176H40.6002ZM50.4088 119.176V108.376H51.6688V113.011C51.9188 112.551 52.2738 112.196 52.7338 111.946C53.1938 111.686 53.6938 111.556 54.2338 111.556C55.0938 111.556 55.7838 111.826 56.3038 112.366C56.8238 112.896 57.0838 113.716 57.0838 114.826V119.176H55.8388V114.961C55.8388 113.411 55.2138 112.636 53.9638 112.636C53.3138 112.636 52.7688 112.871 52.3288 113.341C51.8888 113.801 51.6688 114.461 51.6688 115.321V119.176H50.4088ZM62.3378 119.356C61.6278 119.356 60.9978 119.196 60.4478 118.876C59.8978 118.546 59.4628 118.091 59.1428 117.511C58.8328 116.931 58.6778 116.246 58.6778 115.456C58.6778 114.676 58.8328 113.996 59.1428 113.416C59.4528 112.826 59.8828 112.371 60.4328 112.051C60.9928 111.721 61.6378 111.556 62.3678 111.556C63.0878 111.556 63.7078 111.721 64.2278 112.051C64.7578 112.371 65.1628 112.796 65.4428 113.326C65.7228 113.856 65.8628 114.426 65.8628 115.036C65.8628 115.146 65.8578 115.256 65.8478 115.366C65.8478 115.476 65.8478 115.601 65.8478 115.741H59.9228C59.9528 116.311 60.0828 116.786 60.3128 117.166C60.5528 117.536 60.8478 117.816 61.1978 118.006C61.5578 118.196 61.9378 118.291 62.3378 118.291C62.8578 118.291 63.2928 118.171 63.6428 117.931C63.9928 117.691 64.2478 117.366 64.4078 116.956H65.6528C65.4528 117.646 65.0678 118.221 64.4978 118.681C63.9378 119.131 63.2178 119.356 62.3378 119.356ZM62.3378 112.621C61.7378 112.621 61.2028 112.806 60.7328 113.176C60.2728 113.536 60.0078 114.066 59.9378 114.766H64.6178C64.5878 114.096 64.3578 113.571 63.9278 113.191C63.4978 112.811 62.9678 112.621 62.3378 112.621ZM67.5328 119.176V111.736H68.6728L68.7778 113.161C69.0078 112.671 69.3578 112.281 69.8278 111.991C70.2978 111.701 70.8778 111.556 71.5678 111.556V112.876H71.2228C70.7828 112.876 70.3778 112.956 70.0078 113.116C69.6378 113.266 69.3428 113.526 69.1228 113.896C68.9028 114.266 68.7928 114.776 68.7928 115.426V119.176H67.5328ZM76.0487 119.356C75.3387 119.356 74.7087 119.196 74.1587 118.876C73.6087 118.546 73.1737 118.091 72.8537 117.511C72.5437 116.931 72.3887 116.246 72.3887 115.456C72.3887 114.676 72.5437 113.996 72.8537 113.416C73.1637 112.826 73.5937 112.371 74.1437 112.051C74.7037 111.721 75.3487 111.556 76.0787 111.556C76.7987 111.556 77.4187 111.721 77.9387 112.051C78.4687 112.371 78.8737 112.796 79.1537 113.326C79.4337 113.856 79.5737 114.426 79.5737 115.036C79.5737 115.146 79.5687 115.256 79.5587 115.366C79.5587 115.476 79.5587 115.601 79.5587 115.741H73.6337C73.6637 116.311 73.7937 116.786 74.0237 117.166C74.2637 117.536 74.5587 117.816 74.9087 118.006C75.2687 118.196 75.6487 118.291 76.0487 118.291C76.5687 118.291 77.0037 118.171 77.3537 117.931C77.7037 117.691 77.9587 117.366 78.1187 116.956H79.3637C79.1637 117.646 78.7787 118.221 78.2087 118.681C77.6487 119.131 76.9287 119.356 76.0487 119.356ZM76.0487 112.621C75.4487 112.621 74.9137 112.806 74.4437 113.176C73.9837 113.536 73.7187 114.066 73.6487 114.766H78.3287C78.2987 114.096 78.0687 113.571 77.6387 113.191C77.2087 112.811 76.6787 112.621 76.0487 112.621ZM85.2135 122.476V111.736H86.3535L86.4735 112.966C86.7135 112.606 87.0535 112.281 87.4935 111.991C87.9435 111.701 88.5135 111.556 89.2035 111.556C89.9435 111.556 90.5885 111.726 91.1385 112.066C91.6885 112.406 92.1135 112.871 92.4135 113.461C92.7235 114.051 92.8785 114.721 92.8785 115.471C92.8785 116.221 92.7235 116.891 92.4135 117.481C92.1135 118.061 91.6835 118.521 91.1235 118.861C90.5735 119.191 89.9285 119.356 89.1885 119.356C88.5785 119.356 88.0335 119.231 87.5535 118.981C87.0835 118.731 86.7235 118.381 86.4735 117.931V122.476H85.2135ZM89.0535 118.261C89.5535 118.261 89.9935 118.146 90.3735 117.916C90.7535 117.676 91.0535 117.346 91.2735 116.926C91.4935 116.506 91.6035 116.016 91.6035 115.456C91.6035 114.896 91.4935 114.406 91.2735 113.986C91.0535 113.566 90.7535 113.241 90.3735 113.011C89.9935 112.771 89.5535 112.651 89.0535 112.651C88.5535 112.651 88.1135 112.771 87.7335 113.011C87.3535 113.241 87.0535 113.566 86.8335 113.986C86.6135 114.406 86.5035 114.896 86.5035 115.456C86.5035 116.016 86.6135 116.506 86.8335 116.926C87.0535 117.346 87.3535 117.676 87.7335 117.916C88.1135 118.146 88.5535 118.261 89.0535 118.261ZM94.6324 119.176V108.376H95.8924V119.176H94.6324ZM100.433 119.356C99.8126 119.356 99.2976 119.251 98.8876 119.041C98.4776 118.831 98.1726 118.551 97.9726 118.201C97.7726 117.851 97.6726 117.471 97.6726 117.061C97.6726 116.301 97.9626 115.716 98.5426 115.306C99.1226 114.896 99.9126 114.691 100.913 114.691H102.923V114.601C102.923 113.951 102.753 113.461 102.413 113.131C102.073 112.791 101.618 112.621 101.048 112.621C100.558 112.621 100.133 112.746 99.7726 112.996C99.4226 113.236 99.2026 113.591 99.1126 114.061H97.8226C97.8726 113.521 98.0526 113.066 98.3626 112.696C98.6826 112.326 99.0776 112.046 99.5476 111.856C100.018 111.656 100.518 111.556 101.048 111.556C102.088 111.556 102.868 111.836 103.388 112.396C103.918 112.946 104.183 113.681 104.183 114.601V119.176H103.058L102.983 117.841C102.773 118.261 102.463 118.621 102.053 118.921C101.653 119.211 101.113 119.356 100.433 119.356ZM100.628 118.291C101.108 118.291 101.518 118.166 101.858 117.916C102.208 117.666 102.473 117.341 102.653 116.941C102.833 116.541 102.923 116.121 102.923 115.681V115.666H101.018C100.278 115.666 99.7526 115.796 99.4426 116.056C99.1426 116.306 98.9926 116.621 98.9926 117.001C98.9926 117.391 99.1326 117.706 99.4126 117.946C99.7026 118.176 100.108 118.291 100.628 118.291ZM106.663 122.476L108.508 118.456H108.073L105.118 111.736H106.483L108.943 117.526L111.553 111.736H112.858L107.983 122.476H106.663ZM116.83 119.356C116.12 119.356 115.49 119.196 114.94 118.876C114.39 118.546 113.955 118.091 113.635 117.511C113.325 116.931 113.17 116.246 113.17 115.456C113.17 114.676 113.325 113.996 113.635 113.416C113.945 112.826 114.375 112.371 114.925 112.051C115.485 111.721 116.13 111.556 116.86 111.556C117.58 111.556 118.2 111.721 118.72 112.051C119.25 112.371 119.655 112.796 119.935 113.326C120.215 113.856 120.355 114.426 120.355 115.036C120.355 115.146 120.35 115.256 120.34 115.366C120.34 115.476 120.34 115.601 120.34 115.741H114.415C114.445 116.311 114.575 116.786 114.805 117.166C115.045 117.536 115.34 117.816 115.69 118.006C116.05 118.196 116.43 118.291 116.83 118.291C117.35 118.291 117.785 118.171 118.135 117.931C118.485 117.691 118.74 117.366 118.9 116.956H120.145C119.945 117.646 119.56 118.221 118.99 118.681C118.43 119.131 117.71 119.356 116.83 119.356ZM116.83 112.621C116.23 112.621 115.695 112.806 115.225 113.176C114.765 113.536 114.5 114.066 114.43 114.766H119.11C119.08 114.096 118.85 113.571 118.42 113.191C117.99 112.811 117.46 112.621 116.83 112.621ZM122.025 119.176V111.736H123.165L123.27 113.161C123.5 112.671 123.85 112.281 124.32 111.991C124.79 111.701 125.37 111.556 126.06 111.556V112.876H125.715C125.275 112.876 124.87 112.956 124.5 113.116C124.13 113.266 123.835 113.526 123.615 113.896C123.395 114.266 123.285 114.776 123.285 115.426V119.176H122.025ZM130.324 119.356C129.434 119.356 128.694 119.131 128.104 118.681C127.514 118.231 127.169 117.621 127.069 116.851H128.359C128.439 117.241 128.644 117.581 128.974 117.871C129.314 118.151 129.769 118.291 130.339 118.291C130.869 118.291 131.259 118.181 131.509 117.961C131.759 117.731 131.884 117.461 131.884 117.151C131.884 116.701 131.719 116.401 131.389 116.251C131.069 116.101 130.614 115.966 130.024 115.846C129.624 115.766 129.224 115.651 128.824 115.501C128.424 115.351 128.089 115.141 127.819 114.871C127.549 114.591 127.414 114.226 127.414 113.776C127.414 113.126 127.654 112.596 128.134 112.186C128.624 111.766 129.284 111.556 130.114 111.556C130.904 111.556 131.549 111.756 132.049 112.156C132.559 112.546 132.854 113.106 132.934 113.836H131.689C131.639 113.456 131.474 113.161 131.194 112.951C130.924 112.731 130.559 112.621 130.099 112.621C129.649 112.621 129.299 112.716 129.049 112.906C128.809 113.096 128.689 113.346 128.689 113.656C128.689 113.956 128.844 114.191 129.154 114.361C129.474 114.531 129.904 114.676 130.444 114.796C130.904 114.896 131.339 115.021 131.749 115.171C132.169 115.311 132.509 115.526 132.769 115.816C133.039 116.096 133.174 116.506 133.174 117.046C133.184 117.716 132.929 118.271 132.409 118.711C131.899 119.141 131.204 119.356 130.324 119.356ZM141.884 119.176C141.204 119.176 140.669 119.011 140.279 118.681C139.889 118.351 139.694 117.756 139.694 116.896V112.801H138.404V111.736H139.694L139.859 109.951H140.954V111.736H143.144V112.801H140.954V116.896C140.954 117.366 141.049 117.686 141.239 117.856C141.429 118.016 141.764 118.096 142.244 118.096H143.024V119.176H141.884ZM144.745 119.176V111.736H145.885L145.99 113.161C146.22 112.671 146.57 112.281 147.04 111.991C147.51 111.701 148.09 111.556 148.78 111.556V112.876H148.435C147.995 112.876 147.59 112.956 147.22 113.116C146.85 113.266 146.555 113.526 146.335 113.896C146.115 114.266 146.005 114.776 146.005 115.426V119.176H144.745ZM151.004 122.476L152.849 118.456H152.414L149.459 111.736H150.824L153.284 117.526L155.894 111.736H157.199L152.324 122.476H151.004ZM165.439 119.176C164.759 119.176 164.224 119.011 163.834 118.681C163.444 118.351 163.249 117.756 163.249 116.896V112.801H161.959V111.736H163.249L163.414 109.951H164.509V111.736H166.699V112.801H164.509V116.896C164.509 117.366 164.604 117.686 164.794 117.856C164.984 118.016 165.319 118.096 165.799 118.096H166.579V119.176H165.439ZM171.484 119.356C170.784 119.356 170.154 119.196 169.594 118.876C169.034 118.556 168.589 118.106 168.259 117.526C167.939 116.936 167.779 116.246 167.779 115.456C167.779 114.666 167.944 113.981 168.274 113.401C168.604 112.811 169.049 112.356 169.609 112.036C170.179 111.716 170.814 111.556 171.514 111.556C172.214 111.556 172.844 111.716 173.404 112.036C173.964 112.356 174.404 112.811 174.724 113.401C175.054 113.981 175.219 114.666 175.219 115.456C175.219 116.246 175.054 116.936 174.724 117.526C174.394 118.106 173.944 118.556 173.374 118.876C172.814 119.196 172.184 119.356 171.484 119.356ZM171.484 118.276C171.914 118.276 172.314 118.171 172.684 117.961C173.054 117.751 173.354 117.436 173.584 117.016C173.814 116.596 173.929 116.076 173.929 115.456C173.929 114.836 173.814 114.316 173.584 113.896C173.364 113.476 173.069 113.161 172.699 112.951C172.329 112.741 171.934 112.636 171.514 112.636C171.084 112.636 170.684 112.741 170.314 112.951C169.944 113.161 169.644 113.476 169.414 113.896C169.184 114.316 169.069 114.836 169.069 115.456C169.069 116.076 169.184 116.596 169.414 117.016C169.644 117.436 169.939 117.751 170.299 117.961C170.669 118.171 171.064 118.276 171.484 118.276ZM51.5251 136.836C51.1051 136.836 50.7201 136.781 50.3701 136.671L49.6201 137.376C49.7301 137.456 49.8651 137.526 50.0251 137.586C50.1951 137.636 50.4351 137.686 50.7451 137.736C51.0551 137.776 51.4901 137.821 52.0501 137.871C53.0501 137.941 53.7651 138.171 54.1951 138.561C54.6251 138.951 54.8401 139.461 54.8401 140.091C54.8401 140.521 54.7201 140.931 54.4801 141.321C54.2501 141.711 53.8901 142.031 53.4001 142.281C52.9201 142.531 52.3001 142.656 51.5401 142.656C50.8701 142.656 50.2751 142.566 49.7551 142.386C49.2351 142.216 48.8301 141.951 48.5401 141.591C48.2501 141.241 48.1051 140.796 48.1051 140.256C48.1051 139.976 48.1801 139.671 48.3301 139.341C48.4801 139.021 48.7601 138.716 49.1701 138.426C48.9501 138.336 48.7601 138.241 48.6001 138.141C48.4501 138.031 48.3101 137.911 48.1801 137.781V137.436L49.4551 136.176C48.8651 135.676 48.5701 135.016 48.5701 134.196C48.5701 133.706 48.6851 133.261 48.9151 132.861C49.1451 132.461 49.4801 132.146 49.9201 131.916C50.3601 131.676 50.8951 131.556 51.5251 131.556C51.9551 131.556 52.3451 131.616 52.6951 131.736H55.4401V132.681L54.0451 132.741C54.3351 133.161 54.4801 133.646 54.4801 134.196C54.4801 134.686 54.3601 135.131 54.1201 135.531C53.8901 135.931 53.5551 136.251 53.1151 136.491C52.6851 136.721 52.1551 136.836 51.5251 136.836ZM51.5251 135.801C52.0551 135.801 52.4751 135.666 52.7851 135.396C53.1051 135.116 53.2651 134.716 53.2651 134.196C53.2651 133.686 53.1051 133.296 52.7851 133.026C52.4751 132.746 52.0551 132.606 51.5251 132.606C50.9851 132.606 50.5551 132.746 50.2351 133.026C49.9251 133.296 49.7701 133.686 49.7701 134.196C49.7701 134.716 49.9251 135.116 50.2351 135.396C50.5551 135.666 50.9851 135.801 51.5251 135.801ZM49.3351 140.136C49.3351 140.636 49.5451 141.006 49.9651 141.246C50.3851 141.496 50.9101 141.621 51.5401 141.621C52.1601 141.621 52.6551 141.486 53.0251 141.216C53.4051 140.946 53.5951 140.586 53.5951 140.136C53.5951 139.816 53.4651 139.536 53.2051 139.296C52.9451 139.066 52.4651 138.931 51.7651 138.891C51.2151 138.851 50.7401 138.801 50.3401 138.741C49.9301 138.961 49.6601 139.196 49.5301 139.446C49.4001 139.706 49.3351 139.936 49.3351 140.136ZM59.5764 139.356C58.6964 139.356 57.9964 139.091 57.4764 138.561C56.9564 138.021 56.6964 137.196 56.6964 136.086V131.736H57.9564V135.951C57.9564 137.501 58.5914 138.276 59.8614 138.276C60.5114 138.276 61.0464 138.046 61.4664 137.586C61.8964 137.116 62.1114 136.451 62.1114 135.591V131.736H63.3714V139.176H62.2314L62.1414 137.841C61.9114 138.311 61.5664 138.681 61.1064 138.951C60.6564 139.221 60.1464 139.356 59.5764 139.356ZM68.7904 139.356C68.0804 139.356 67.4504 139.196 66.9004 138.876C66.3504 138.546 65.9154 138.091 65.5954 137.511C65.2854 136.931 65.1304 136.246 65.1304 135.456C65.1304 134.676 65.2854 133.996 65.5954 133.416C65.9054 132.826 66.3354 132.371 66.8854 132.051C67.4454 131.721 68.0904 131.556 68.8204 131.556C69.5404 131.556 70.1604 131.721 70.6804 132.051C71.2104 132.371 71.6154 132.796 71.8954 133.326C72.1754 133.856 72.3154 134.426 72.3154 135.036C72.3154 135.146 72.3104 135.256 72.3004 135.366C72.3004 135.476 72.3004 135.601 72.3004 135.741H66.3754C66.4054 136.311 66.5354 136.786 66.7654 137.166C67.0054 137.536 67.3004 137.816 67.6504 138.006C68.0104 138.196 68.3904 138.291 68.7904 138.291C69.3104 138.291 69.7454 138.171 70.0954 137.931C70.4454 137.691 70.7004 137.366 70.8604 136.956H72.1054C71.9054 137.646 71.5204 138.221 70.9504 138.681C70.3904 139.131 69.6704 139.356 68.7904 139.356ZM68.7904 132.621C68.1904 132.621 67.6554 132.806 67.1854 133.176C66.7254 133.536 66.4604 134.066 66.3904 134.766H71.0704C71.0404 134.096 70.8104 133.571 70.3804 133.191C69.9504 132.811 69.4204 132.621 68.7904 132.621ZM76.8355 139.356C75.9455 139.356 75.2055 139.131 74.6155 138.681C74.0255 138.231 73.6805 137.621 73.5805 136.851H74.8705C74.9505 137.241 75.1555 137.581 75.4855 137.871C75.8255 138.151 76.2805 138.291 76.8505 138.291C77.3805 138.291 77.7705 138.181 78.0205 137.961C78.2705 137.731 78.3955 137.461 78.3955 137.151C78.3955 136.701 78.2305 136.401 77.9005 136.251C77.5805 136.101 77.1255 135.966 76.5355 135.846C76.1355 135.766 75.7355 135.651 75.3355 135.501C74.9355 135.351 74.6005 135.141 74.3305 134.871C74.0605 134.591 73.9255 134.226 73.9255 133.776C73.9255 133.126 74.1655 132.596 74.6455 132.186C75.1355 131.766 75.7955 131.556 76.6255 131.556C77.4155 131.556 78.0605 131.756 78.5605 132.156C79.0705 132.546 79.3655 133.106 79.4455 133.836H78.2005C78.1505 133.456 77.9855 133.161 77.7055 132.951C77.4355 132.731 77.0705 132.621 76.6105 132.621C76.1605 132.621 75.8105 132.716 75.5605 132.906C75.3205 133.096 75.2005 133.346 75.2005 133.656C75.2005 133.956 75.3555 134.191 75.6655 134.361C75.9855 134.531 76.4155 134.676 76.9555 134.796C77.4155 134.896 77.8505 135.021 78.2605 135.171C78.6805 135.311 79.0205 135.526 79.2805 135.816C79.5505 136.096 79.6855 136.506 79.6855 137.046C79.6955 137.716 79.4405 138.271 78.9205 138.711C78.4105 139.141 77.7155 139.356 76.8355 139.356ZM84.3355 139.356C83.4455 139.356 82.7055 139.131 82.1155 138.681C81.5255 138.231 81.1805 137.621 81.0805 136.851H82.3705C82.4505 137.241 82.6555 137.581 82.9855 137.871C83.3255 138.151 83.7805 138.291 84.3505 138.291C84.8805 138.291 85.2705 138.181 85.5205 137.961C85.7705 137.731 85.8955 137.461 85.8955 137.151C85.8955 136.701 85.7305 136.401 85.4005 136.251C85.0805 136.101 84.6255 135.966 84.0355 135.846C83.6355 135.766 83.2355 135.651 82.8355 135.501C82.4355 135.351 82.1005 135.141 81.8305 134.871C81.5605 134.591 81.4255 134.226 81.4255 133.776C81.4255 133.126 81.6655 132.596 82.1455 132.186C82.6355 131.766 83.2955 131.556 84.1255 131.556C84.9155 131.556 85.5605 131.756 86.0605 132.156C86.5705 132.546 86.8655 133.106 86.9455 133.836H85.7005C85.6505 133.456 85.4855 133.161 85.2055 132.951C84.9355 132.731 84.5705 132.621 84.1105 132.621C83.6605 132.621 83.3105 132.716 83.0605 132.906C82.8205 133.096 82.7005 133.346 82.7005 133.656C82.7005 133.956 82.8555 134.191 83.1655 134.361C83.4855 134.531 83.9155 134.676 84.4555 134.796C84.9155 134.896 85.3505 135.021 85.7605 135.171C86.1805 135.311 86.5205 135.526 86.7805 135.816C87.0505 136.096 87.1855 136.506 87.1855 137.046C87.1955 137.716 86.9405 138.271 86.4205 138.711C85.9105 139.141 85.2155 139.356 84.3355 139.356ZM94.4552 139.176L92.2802 131.736H93.5402L95.1152 137.571L96.8552 131.736H98.2802L100.035 137.571L101.595 131.736H102.87L100.695 139.176H99.4052L97.5752 133.041L95.7452 139.176H94.4552ZM104.264 139.176V128.376H105.524V133.011C105.774 132.551 106.129 132.196 106.589 131.946C107.049 131.686 107.549 131.556 108.089 131.556C108.949 131.556 109.639 131.826 110.159 132.366C110.679 132.896 110.939 133.716 110.939 134.826V139.176H109.694V134.961C109.694 133.411 109.069 132.636 107.819 132.636C107.169 132.636 106.624 132.871 106.184 133.341C105.744 133.801 105.524 134.461 105.524 135.321V139.176H104.264ZM115.323 139.356C114.703 139.356 114.188 139.251 113.778 139.041C113.368 138.831 113.063 138.551 112.863 138.201C112.663 137.851 112.563 137.471 112.563 137.061C112.563 136.301 112.853 135.716 113.433 135.306C114.013 134.896 114.803 134.691 115.803 134.691H117.813V134.601C117.813 133.951 117.643 133.461 117.303 133.131C116.963 132.791 116.508 132.621 115.938 132.621C115.448 132.621 115.023 132.746 114.663 132.996C114.313 133.236 114.093 133.591 114.003 134.061H112.713C112.763 133.521 112.943 133.066 113.253 132.696C113.573 132.326 113.968 132.046 114.438 131.856C114.908 131.656 115.408 131.556 115.938 131.556C116.978 131.556 117.758 131.836 118.278 132.396C118.808 132.946 119.073 133.681 119.073 134.601V139.176H117.948L117.873 137.841C117.663 138.261 117.353 138.621 116.943 138.921C116.543 139.211 116.003 139.356 115.323 139.356ZM115.518 138.291C115.998 138.291 116.408 138.166 116.748 137.916C117.098 137.666 117.363 137.341 117.543 136.941C117.723 136.541 117.813 136.121 117.813 135.681V135.666H115.908C115.168 135.666 114.643 135.796 114.333 136.056C114.033 136.306 113.883 136.621 113.883 137.001C113.883 137.391 114.023 137.706 114.303 137.946C114.593 138.176 114.998 138.291 115.518 138.291ZM123.698 139.176C123.018 139.176 122.483 139.011 122.093 138.681C121.703 138.351 121.508 137.756 121.508 136.896V132.801H120.218V131.736H121.508L121.673 129.951H122.768V131.736H124.958V132.801H122.768V136.896C122.768 137.366 122.863 137.686 123.053 137.856C123.243 138.016 123.578 138.096 124.058 138.096H124.838V139.176H123.698ZM133.918 139.356C133.218 139.356 132.588 139.196 132.028 138.876C131.468 138.556 131.023 138.106 130.693 137.526C130.373 136.936 130.213 136.246 130.213 135.456C130.213 134.666 130.378 133.981 130.708 133.401C131.038 132.811 131.483 132.356 132.043 132.036C132.613 131.716 133.248 131.556 133.948 131.556C134.648 131.556 135.278 131.716 135.838 132.036C136.398 132.356 136.838 132.811 137.158 133.401C137.488 133.981 137.653 134.666 137.653 135.456C137.653 136.246 137.488 136.936 137.158 137.526C136.828 138.106 136.378 138.556 135.808 138.876C135.248 139.196 134.618 139.356 133.918 139.356ZM133.918 138.276C134.348 138.276 134.748 138.171 135.118 137.961C135.488 137.751 135.788 137.436 136.018 137.016C136.248 136.596 136.363 136.076 136.363 135.456C136.363 134.836 136.248 134.316 136.018 133.896C135.798 133.476 135.503 133.161 135.133 132.951C134.763 132.741 134.368 132.636 133.948 132.636C133.518 132.636 133.118 132.741 132.748 132.951C132.378 133.161 132.078 133.476 131.848 133.896C131.618 134.316 131.503 134.836 131.503 135.456C131.503 136.076 131.618 136.596 131.848 137.016C132.078 137.436 132.373 137.751 132.733 137.961C133.103 138.171 133.498 138.276 133.918 138.276ZM142.052 139.176C141.372 139.176 140.837 139.011 140.447 138.681C140.057 138.351 139.862 137.756 139.862 136.896V132.801H138.572V131.736H139.862L140.027 129.951H141.122V131.736H143.312V132.801H141.122V136.896C141.122 137.366 141.217 137.686 141.407 137.856C141.597 138.016 141.932 138.096 142.412 138.096H143.192V139.176H142.052ZM144.913 139.176V128.376H146.173V133.011C146.423 132.551 146.778 132.196 147.238 131.946C147.698 131.686 148.198 131.556 148.738 131.556C149.598 131.556 150.288 131.826 150.808 132.366C151.328 132.896 151.588 133.716 151.588 134.826V139.176H150.343V134.961C150.343 133.411 149.718 132.636 148.468 132.636C147.818 132.636 147.273 132.871 146.833 133.341C146.393 133.801 146.173 134.461 146.173 135.321V139.176H144.913ZM156.842 139.356C156.132 139.356 155.502 139.196 154.952 138.876C154.402 138.546 153.967 138.091 153.647 137.511C153.337 136.931 153.182 136.246 153.182 135.456C153.182 134.676 153.337 133.996 153.647 133.416C153.957 132.826 154.387 132.371 154.937 132.051C155.497 131.721 156.142 131.556 156.872 131.556C157.592 131.556 158.212 131.721 158.732 132.051C159.262 132.371 159.667 132.796 159.947 133.326C160.227 133.856 160.367 134.426 160.367 135.036C160.367 135.146 160.362 135.256 160.352 135.366C160.352 135.476 160.352 135.601 160.352 135.741H154.427C154.457 136.311 154.587 136.786 154.817 137.166C155.057 137.536 155.352 137.816 155.702 138.006C156.062 138.196 156.442 138.291 156.842 138.291C157.362 138.291 157.797 138.171 158.147 137.931C158.497 137.691 158.752 137.366 158.912 136.956H160.157C159.957 137.646 159.572 138.221 159.002 138.681C158.442 139.131 157.722 139.356 156.842 139.356ZM156.842 132.621C156.242 132.621 155.707 132.806 155.237 133.176C154.777 133.536 154.512 134.066 154.442 134.766H159.122C159.092 134.096 158.862 133.571 158.432 133.191C158.002 132.811 157.472 132.621 156.842 132.621ZM162.037 139.176V131.736H163.177L163.282 133.161C163.512 132.671 163.862 132.281 164.332 131.991C164.802 131.701 165.382 131.556 166.072 131.556V132.876H165.727C165.287 132.876 164.882 132.956 164.512 133.116C164.142 133.266 163.847 133.526 163.627 133.896C163.407 134.266 163.297 134.776 163.297 135.426V139.176H162.037ZM40.9752 162.476V151.736H42.1152L42.2352 152.966C42.4752 152.606 42.8152 152.281 43.2552 151.991C43.7052 151.701 44.2752 151.556 44.9652 151.556C45.7052 151.556 46.3502 151.726 46.9002 152.066C47.4502 152.406 47.8752 152.871 48.1752 153.461C48.4852 154.051 48.6402 154.721 48.6402 155.471C48.6402 156.221 48.4852 156.891 48.1752 157.481C47.8752 158.061 47.4452 158.521 46.8852 158.861C46.3352 159.191 45.6902 159.356 44.9502 159.356C44.3402 159.356 43.7952 159.231 43.3152 158.981C42.8452 158.731 42.4852 158.381 42.2352 157.931V162.476H40.9752ZM44.8152 158.261C45.3152 158.261 45.7552 158.146 46.1352 157.916C46.5152 157.676 46.8152 157.346 47.0352 156.926C47.2552 156.506 47.3652 156.016 47.3652 155.456C47.3652 154.896 47.2552 154.406 47.0352 153.986C46.8152 153.566 46.5152 153.241 46.1352 153.011C45.7552 152.771 45.3152 152.651 44.8152 152.651C44.3152 152.651 43.8752 152.771 43.4952 153.011C43.1152 153.241 42.8152 153.566 42.5952 153.986C42.3752 154.406 42.2652 154.896 42.2652 155.456C42.2652 156.016 42.3752 156.506 42.5952 156.926C42.8152 157.346 43.1152 157.676 43.4952 157.916C43.8752 158.146 44.3152 158.261 44.8152 158.261ZM50.3942 159.176V148.376H51.6542V159.176H50.3942ZM56.1944 159.356C55.5744 159.356 55.0594 159.251 54.6494 159.041C54.2394 158.831 53.9344 158.551 53.7344 158.201C53.5344 157.851 53.4344 157.471 53.4344 157.061C53.4344 156.301 53.7244 155.716 54.3044 155.306C54.8844 154.896 55.6744 154.691 56.6744 154.691H58.6844V154.601C58.6844 153.951 58.5144 153.461 58.1744 153.131C57.8344 152.791 57.3794 152.621 56.8094 152.621C56.3194 152.621 55.8944 152.746 55.5344 152.996C55.1844 153.236 54.9644 153.591 54.8744 154.061H53.5844C53.6344 153.521 53.8144 153.066 54.1244 152.696C54.4444 152.326 54.8394 152.046 55.3094 151.856C55.7794 151.656 56.2794 151.556 56.8094 151.556C57.8494 151.556 58.6294 151.836 59.1494 152.396C59.6794 152.946 59.9444 153.681 59.9444 154.601V159.176H58.8194L58.7444 157.841C58.5344 158.261 58.2244 158.621 57.8144 158.921C57.4144 159.211 56.8744 159.356 56.1944 159.356ZM56.3894 158.291C56.8694 158.291 57.2794 158.166 57.6194 157.916C57.9694 157.666 58.2344 157.341 58.4144 156.941C58.5944 156.541 58.6844 156.121 58.6844 155.681V155.666H56.7794C56.0394 155.666 55.5144 155.796 55.2044 156.056C54.9044 156.306 54.7544 156.621 54.7544 157.001C54.7544 157.391 54.8944 157.706 55.1744 157.946C55.4644 158.176 55.8694 158.291 56.3894 158.291ZM62.4249 162.476L64.2699 158.456H63.8349L60.8799 151.736H62.2449L64.7049 157.526L67.3149 151.736H68.6199L63.7449 162.476H62.4249ZM72.5917 159.356C71.8817 159.356 71.2517 159.196 70.7017 158.876C70.1517 158.546 69.7167 158.091 69.3967 157.511C69.0867 156.931 68.9317 156.246 68.9317 155.456C68.9317 154.676 69.0867 153.996 69.3967 153.416C69.7067 152.826 70.1367 152.371 70.6867 152.051C71.2467 151.721 71.8917 151.556 72.6217 151.556C73.3417 151.556 73.9617 151.721 74.4817 152.051C75.0117 152.371 75.4167 152.796 75.6967 153.326C75.9767 153.856 76.1167 154.426 76.1167 155.036C76.1167 155.146 76.1117 155.256 76.1017 155.366C76.1017 155.476 76.1017 155.601 76.1017 155.741H70.1767C70.2067 156.311 70.3367 156.786 70.5667 157.166C70.8067 157.536 71.1017 157.816 71.4517 158.006C71.8117 158.196 72.1917 158.291 72.5917 158.291C73.1117 158.291 73.5467 158.171 73.8967 157.931C74.2467 157.691 74.5017 157.366 74.6617 156.956H75.9067C75.7067 157.646 75.3217 158.221 74.7517 158.681C74.1917 159.131 73.4717 159.356 72.5917 159.356ZM72.5917 152.621C71.9917 152.621 71.4567 152.806 70.9867 153.176C70.5267 153.536 70.2617 154.066 70.1917 154.766H74.8717C74.8417 154.096 74.6117 153.571 74.1817 153.191C73.7517 152.811 73.2217 152.621 72.5917 152.621ZM77.7867 159.176V151.736H78.9267L79.0317 153.161C79.2617 152.671 79.6117 152.281 80.0817 151.991C80.5517 151.701 81.1317 151.556 81.8217 151.556V152.876H81.4767C81.0367 152.876 80.6317 152.956 80.2617 153.116C79.8917 153.266 79.5967 153.526 79.3767 153.896C79.1567 154.266 79.0467 154.776 79.0467 155.426V159.176H77.7867ZM86.086 159.356C85.196 159.356 84.456 159.131 83.866 158.681C83.276 158.231 82.931 157.621 82.831 156.851H84.121C84.201 157.241 84.406 157.581 84.736 157.871C85.076 158.151 85.531 158.291 86.101 158.291C86.631 158.291 87.021 158.181 87.271 157.961C87.521 157.731 87.646 157.461 87.646 157.151C87.646 156.701 87.481 156.401 87.151 156.251C86.831 156.101 86.376 155.966 85.786 155.846C85.386 155.766 84.986 155.651 84.586 155.501C84.186 155.351 83.851 155.141 83.581 154.871C83.311 154.591 83.176 154.226 83.176 153.776C83.176 153.126 83.416 152.596 83.896 152.186C84.386 151.766 85.046 151.556 85.876 151.556C86.666 151.556 87.311 151.756 87.811 152.156C88.321 152.546 88.616 153.106 88.696 153.836H87.451C87.401 153.456 87.236 153.161 86.956 152.951C86.686 152.731 86.321 152.621 85.861 152.621C85.411 152.621 85.061 152.716 84.811 152.906C84.571 153.096 84.451 153.346 84.451 153.656C84.451 153.956 84.606 154.191 84.916 154.361C85.236 154.531 85.666 154.676 86.206 154.796C86.666 154.896 87.101 155.021 87.511 155.171C87.931 155.311 88.271 155.526 88.531 155.816C88.801 156.096 88.936 156.506 88.936 157.046C88.946 157.716 88.691 158.271 88.171 158.711C87.661 159.141 86.966 159.356 86.086 159.356ZM97.1807 159.356C96.5607 159.356 96.0457 159.251 95.6357 159.041C95.2257 158.831 94.9207 158.551 94.7207 158.201C94.5207 157.851 94.4207 157.471 94.4207 157.061C94.4207 156.301 94.7107 155.716 95.2907 155.306C95.8707 154.896 96.6607 154.691 97.6607 154.691H99.6707V154.601C99.6707 153.951 99.5007 153.461 99.1607 153.131C98.8207 152.791 98.3657 152.621 97.7957 152.621C97.3057 152.621 96.8807 152.746 96.5207 152.996C96.1707 153.236 95.9507 153.591 95.8607 154.061H94.5707C94.6207 153.521 94.8007 153.066 95.1107 152.696C95.4307 152.326 95.8257 152.046 96.2957 151.856C96.7657 151.656 97.2657 151.556 97.7957 151.556C98.8357 151.556 99.6157 151.836 100.136 152.396C100.666 152.946 100.931 153.681 100.931 154.601V159.176H99.8057L99.7307 157.841C99.5207 158.261 99.2107 158.621 98.8007 158.921C98.4007 159.211 97.8607 159.356 97.1807 159.356ZM97.3757 158.291C97.8557 158.291 98.2657 158.166 98.6057 157.916C98.9557 157.666 99.2207 157.341 99.4007 156.941C99.5807 156.541 99.6707 156.121 99.6707 155.681V155.666H97.7657C97.0257 155.666 96.5007 155.796 96.1907 156.056C95.8907 156.306 95.7407 156.621 95.7407 157.001C95.7407 157.391 95.8807 157.706 96.1607 157.946C96.4507 158.176 96.8557 158.291 97.3757 158.291ZM102.821 159.176V151.736H103.961L104.066 153.161C104.296 152.671 104.646 152.281 105.116 151.991C105.586 151.701 106.166 151.556 106.856 151.556V152.876H106.511C106.071 152.876 105.666 152.956 105.296 153.116C104.926 153.266 104.631 153.526 104.411 153.896C104.191 154.266 104.081 154.776 104.081 155.426V159.176H102.821ZM111.337 159.356C110.627 159.356 109.997 159.196 109.447 158.876C108.897 158.546 108.462 158.091 108.142 157.511C107.832 156.931 107.677 156.246 107.677 155.456C107.677 154.676 107.832 153.996 108.142 153.416C108.452 152.826 108.882 152.371 109.432 152.051C109.992 151.721 110.637 151.556 111.367 151.556C112.087 151.556 112.707 151.721 113.227 152.051C113.757 152.371 114.162 152.796 114.442 153.326C114.722 153.856 114.862 154.426 114.862 155.036C114.862 155.146 114.857 155.256 114.847 155.366C114.847 155.476 114.847 155.601 114.847 155.741H108.922C108.952 156.311 109.082 156.786 109.312 157.166C109.552 157.536 109.847 157.816 110.197 158.006C110.557 158.196 110.937 158.291 111.337 158.291C111.857 158.291 112.292 158.171 112.642 157.931C112.992 157.691 113.247 157.366 113.407 156.956H114.652C114.452 157.646 114.067 158.221 113.497 158.681C112.937 159.131 112.217 159.356 111.337 159.356ZM111.337 152.621C110.737 152.621 110.202 152.806 109.732 153.176C109.272 153.536 109.007 154.066 108.937 154.766H113.617C113.587 154.096 113.357 153.571 112.927 153.191C112.497 152.811 111.967 152.621 111.337 152.621ZM123.877 159.356C123.137 159.356 122.487 159.186 121.927 158.846C121.377 158.506 120.947 158.041 120.637 157.451C120.337 156.861 120.187 156.191 120.187 155.441C120.187 154.691 120.342 154.026 120.652 153.446C120.962 152.856 121.392 152.396 121.942 152.066C122.492 151.726 123.142 151.556 123.892 151.556C124.502 151.556 125.042 151.681 125.512 151.931C125.982 152.181 126.347 152.531 126.607 152.981V148.376H127.867V159.176H126.727L126.607 157.946C126.367 158.306 126.022 158.631 125.572 158.921C125.122 159.211 124.557 159.356 123.877 159.356ZM124.012 158.261C124.512 158.261 124.952 158.146 125.332 157.916C125.722 157.676 126.022 157.346 126.232 156.926C126.452 156.506 126.562 156.016 126.562 155.456C126.562 154.896 126.452 154.406 126.232 153.986C126.022 153.566 125.722 153.241 125.332 153.011C124.952 152.771 124.512 152.651 124.012 152.651C123.522 152.651 123.082 152.771 122.692 153.011C122.312 153.241 122.012 153.566 121.792 153.986C121.582 154.406 121.477 154.896 121.477 155.456C121.477 156.016 121.582 156.506 121.792 156.926C122.012 157.346 122.312 157.676 122.692 157.916C123.082 158.146 123.522 158.261 124.012 158.261ZM129.921 159.176V151.736H131.061L131.166 153.161C131.396 152.671 131.746 152.281 132.216 151.991C132.686 151.701 133.266 151.556 133.956 151.556V152.876H133.611C133.171 152.876 132.766 152.956 132.396 153.116C132.026 153.266 131.731 153.526 131.511 153.896C131.291 154.266 131.181 154.776 131.181 155.426V159.176H129.921ZM137.845 159.356C137.225 159.356 136.71 159.251 136.3 159.041C135.89 158.831 135.585 158.551 135.385 158.201C135.185 157.851 135.085 157.471 135.085 157.061C135.085 156.301 135.375 155.716 135.955 155.306C136.535 154.896 137.325 154.691 138.325 154.691H140.335V154.601C140.335 153.951 140.165 153.461 139.825 153.131C139.485 152.791 139.03 152.621 138.46 152.621C137.97 152.621 137.545 152.746 137.185 152.996C136.835 153.236 136.615 153.591 136.525 154.061H135.235C135.285 153.521 135.465 153.066 135.775 152.696C136.095 152.326 136.49 152.046 136.96 151.856C137.43 151.656 137.93 151.556 138.46 151.556C139.5 151.556 140.28 151.836 140.8 152.396C141.33 152.946 141.595 153.681 141.595 154.601V159.176H140.47L140.395 157.841C140.185 158.261 139.875 158.621 139.465 158.921C139.065 159.211 138.525 159.356 137.845 159.356ZM138.04 158.291C138.52 158.291 138.93 158.166 139.27 157.916C139.62 157.666 139.885 157.341 140.065 156.941C140.245 156.541 140.335 156.121 140.335 155.681V155.666H138.43C137.69 155.666 137.165 155.796 136.855 156.056C136.555 156.306 136.405 156.621 136.405 157.001C136.405 157.391 136.545 157.706 136.825 157.946C137.115 158.176 137.52 158.291 138.04 158.291ZM144.838 159.176L142.663 151.736H143.923L145.498 157.571L147.238 151.736H148.663L150.418 157.571L151.978 151.736H153.253L151.078 159.176H149.788L147.958 153.041L146.128 159.176H144.838ZM155.412 150.086C155.162 150.086 154.952 150.006 154.782 149.846C154.622 149.676 154.542 149.466 154.542 149.216C154.542 148.976 154.622 148.776 154.782 148.616C154.952 148.456 155.162 148.376 155.412 148.376C155.652 148.376 155.857 148.456 156.027 148.616C156.197 148.776 156.282 148.976 156.282 149.216C156.282 149.466 156.197 149.676 156.027 149.846C155.857 150.006 155.652 150.086 155.412 150.086ZM154.782 159.176V151.736H156.042V159.176H154.782ZM158.236 159.176V151.736H159.376L159.451 153.071C159.691 152.601 160.036 152.231 160.486 151.961C160.936 151.691 161.446 151.556 162.016 151.556C162.896 151.556 163.596 151.826 164.116 152.366C164.646 152.896 164.911 153.716 164.911 154.826V159.176H163.651V154.961C163.651 153.411 163.011 152.636 161.731 152.636C161.091 152.636 160.556 152.871 160.126 153.341C159.706 153.801 159.496 154.461 159.496 155.321V159.176H158.236ZM169.76 156.836C169.34 156.836 168.955 156.781 168.605 156.671L167.855 157.376C167.965 157.456 168.1 157.526 168.26 157.586C168.43 157.636 168.67 157.686 168.98 157.736C169.29 157.776 169.725 157.821 170.285 157.871C171.285 157.941 172 158.171 172.43 158.561C172.86 158.951 173.075 159.461 173.075 160.091C173.075 160.521 172.955 160.931 172.715 161.321C172.485 161.711 172.125 162.031 171.635 162.281C171.155 162.531 170.535 162.656 169.775 162.656C169.105 162.656 168.51 162.566 167.99 162.386C167.47 162.216 167.065 161.951 166.775 161.591C166.485 161.241 166.34 160.796 166.34 160.256C166.34 159.976 166.415 159.671 166.565 159.341C166.715 159.021 166.995 158.716 167.405 158.426C167.185 158.336 166.995 158.241 166.835 158.141C166.685 158.031 166.545 157.911 166.415 157.781V157.436L167.69 156.176C167.1 155.676 166.805 155.016 166.805 154.196C166.805 153.706 166.92 153.261 167.15 152.861C167.38 152.461 167.715 152.146 168.155 151.916C168.595 151.676 169.13 151.556 169.76 151.556C170.19 151.556 170.58 151.616 170.93 151.736H173.675V152.681L172.28 152.741C172.57 153.161 172.715 153.646 172.715 154.196C172.715 154.686 172.595 155.131 172.355 155.531C172.125 155.931 171.79 156.251 171.35 156.491C170.92 156.721 170.39 156.836 169.76 156.836ZM169.76 155.801C170.29 155.801 170.71 155.666 171.02 155.396C171.34 155.116 171.5 154.716 171.5 154.196C171.5 153.686 171.34 153.296 171.02 153.026C170.71 152.746 170.29 152.606 169.76 152.606C169.22 152.606 168.79 152.746 168.47 153.026C168.16 153.296 168.005 153.686 168.005 154.196C168.005 154.716 168.16 155.116 168.47 155.396C168.79 155.666 169.22 155.801 169.76 155.801ZM167.57 160.136C167.57 160.636 167.78 161.006 168.2 161.246C168.62 161.496 169.145 161.621 169.775 161.621C170.395 161.621 170.89 161.486 171.26 161.216C171.64 160.946 171.83 160.586 171.83 160.136C171.83 159.816 171.7 159.536 171.44 159.296C171.18 159.066 170.7 158.931 170 158.891C169.45 158.851 168.975 158.801 168.575 158.741C168.165 158.961 167.895 159.196 167.765 159.446C167.635 159.706 167.57 159.936 167.57 160.136Z" fill="white"/>
<defs>
<filter id="filter0_d" x="0" y="18.9375" width="214" height="217.559" filterUnits="userSpaceOnUse" color-interpolation-filters="sRGB">
<feFlood flood-opacity="0" result="BackgroundImageFix"/>
<feColorMatrix in="SourceAlpha" type="matrix" values="0 0 0 0 0 0 0 0 0 0 0 0 0 0 0 0 0 0 127 0"/>
<feOffset dy="1"/>
<feGaussianBlur stdDeviation="1"/>
<feColorMatrix type="matrix" values="0 0 0 0 0.0588235 0 0 0 0 0.0588235 0 0 0 0 0.0588235 0 0 0 0.1 0"/>
<feBlend mode="normal" in2="BackgroundImageFix" result="effect1_dropShadow"/>
<feBlend mode="normal" in="SourceGraphic" in2="effect1_dropShadow" result="shape"/>
</filter>
</defs>
</svg>
