<svg width="214" height="237" viewBox="0 0 214 237" fill="none" xmlns="http://www.w3.org/2000/svg">
<g filter="url(#filter0_d)">
<rect x="2" y="19.5762" width="210" height="213.559" rx="20" fill="#E359D6"/>
</g>
<path d="M33.1445 10C33.1445 4.47715 37.6217 0 43.1445 0H170.856C176.379 0 180.856 4.47715 180.856 10V19.5763H33.1445V10Z" fill="#01BDD7"/>
<path d="M71.5715 14.7793V4.9793H73.3635V14.7793H71.5715ZM78.6229 14.9473C77.9136 14.9473 77.2883 14.7933 76.7469 14.4853C76.2056 14.1773 75.7763 13.748 75.4589 13.1973C75.1509 12.6466 74.9969 12.0166 74.9969 11.3073C74.9969 10.598 75.1509 9.96796 75.4589 9.4173C75.7763 8.86663 76.2056 8.4373 76.7469 8.1293C77.2883 7.8213 77.9136 7.6673 78.6229 7.6673C79.5096 7.6673 80.2563 7.90063 80.8629 8.3673C81.4696 8.82463 81.8569 9.4593 82.0249 10.2713H80.1349C80.0416 9.9353 79.8549 9.67396 79.5749 9.4873C79.3043 9.2913 78.9823 9.1933 78.6089 9.1933C78.1143 9.1933 77.6943 9.37996 77.3489 9.7533C77.0036 10.1266 76.8309 10.6446 76.8309 11.3073C76.8309 11.97 77.0036 12.488 77.3489 12.8613C77.6943 13.2346 78.1143 13.4213 78.6089 13.4213C78.9823 13.4213 79.3043 13.328 79.5749 13.1413C79.8549 12.9546 80.0416 12.6886 80.1349 12.3433H82.0249C81.8569 13.1273 81.4696 13.7573 80.8629 14.2333C80.2563 14.7093 79.5096 14.9473 78.6229 14.9473ZM86.9895 14.9473C86.2895 14.9473 85.6688 14.798 85.1275 14.4993C84.5861 14.2006 84.1615 13.7806 83.8535 13.2393C83.5455 12.698 83.3915 12.0726 83.3915 11.3633C83.3915 10.6446 83.5408 10.0053 83.8395 9.4453C84.1475 8.8853 84.5675 8.4513 85.0995 8.1433C85.6408 7.82596 86.2755 7.6673 87.0035 7.6673C87.6848 7.6673 88.2868 7.81663 88.8095 8.1153C89.3321 8.41396 89.7381 8.82463 90.0275 9.3473C90.3261 9.86063 90.4755 10.4346 90.4755 11.0693C90.4755 11.172 90.4708 11.2793 90.4615 11.3913C90.4615 11.5033 90.4568 11.62 90.4475 11.7413H85.1695C85.2068 12.2826 85.3935 12.7073 85.7295 13.0153C86.0748 13.3233 86.4901 13.4773 86.9755 13.4773C87.3395 13.4773 87.6428 13.398 87.8855 13.2393C88.1375 13.0713 88.3241 12.8566 88.4455 12.5953H90.2655C90.1348 13.034 89.9155 13.4353 89.6075 13.7993C89.3088 14.154 88.9355 14.434 88.4875 14.6393C88.0488 14.8446 87.5495 14.9473 86.9895 14.9473ZM87.0035 9.1233C86.5648 9.1233 86.1775 9.2493 85.8415 9.5013C85.5055 9.74396 85.2908 10.1173 85.1975 10.6213H88.6555C88.6275 10.164 88.4595 9.79996 88.1515 9.5293C87.8435 9.25863 87.4608 9.1233 87.0035 9.1233ZM96.0986 14.9473C95.576 14.9473 95.1186 14.8493 94.7266 14.6533C94.3346 14.4573 94.0173 14.182 93.7746 13.8273L93.5786 14.7793H91.9826V4.6993H93.7746V8.8293C93.9986 8.5213 94.2926 8.25063 94.6566 8.0173C95.03 7.78396 95.5106 7.6673 96.0986 7.6673C96.752 7.6673 97.3353 7.82596 97.8486 8.1433C98.362 8.46063 98.768 8.89463 99.0666 9.4453C99.3653 9.99596 99.5146 10.6213 99.5146 11.3213C99.5146 12.0213 99.3653 12.6466 99.0666 13.1973C98.768 13.7386 98.362 14.168 97.8486 14.4853C97.3353 14.7933 96.752 14.9473 96.0986 14.9473ZM95.7206 13.3793C96.29 13.3793 96.7613 13.188 97.1346 12.8053C97.508 12.4226 97.6946 11.928 97.6946 11.3213C97.6946 10.7146 97.508 10.2153 97.1346 9.8233C96.7613 9.4313 96.29 9.2353 95.7206 9.2353C95.142 9.2353 94.666 9.4313 94.2926 9.8233C93.9286 10.206 93.7466 10.7006 93.7466 11.3073C93.7466 11.914 93.9286 12.4133 94.2926 12.8053C94.666 13.188 95.142 13.3793 95.7206 13.3793ZM101.115 14.7793V7.8353H102.711L102.879 9.1373C103.131 8.6893 103.472 8.33463 103.901 8.0733C104.34 7.80263 104.853 7.6673 105.441 7.6673V9.5573H104.937C104.545 9.5573 104.195 9.61796 103.887 9.7393C103.579 9.86063 103.337 10.0706 103.159 10.3693C102.991 10.668 102.907 11.0833 102.907 11.6153V14.7793H101.115ZM109.917 14.9473C109.217 14.9473 108.597 14.798 108.055 14.4993C107.514 14.2006 107.089 13.7806 106.781 13.2393C106.473 12.698 106.319 12.0726 106.319 11.3633C106.319 10.6446 106.469 10.0053 106.767 9.4453C107.075 8.8853 107.495 8.4513 108.027 8.1433C108.569 7.82596 109.203 7.6673 109.931 7.6673C110.613 7.6673 111.215 7.81663 111.737 8.1153C112.26 8.41396 112.666 8.82463 112.955 9.3473C113.254 9.86063 113.403 10.4346 113.403 11.0693C113.403 11.172 113.399 11.2793 113.389 11.3913C113.389 11.5033 113.385 11.62 113.375 11.7413H108.097C108.135 12.2826 108.321 12.7073 108.657 13.0153C109.003 13.3233 109.418 13.4773 109.903 13.4773C110.267 13.4773 110.571 13.398 110.813 13.2393C111.065 13.0713 111.252 12.8566 111.373 12.5953H113.193C113.063 13.034 112.843 13.4353 112.535 13.7993C112.237 14.154 111.863 14.434 111.415 14.6393C110.977 14.8446 110.477 14.9473 109.917 14.9473ZM109.931 9.1233C109.493 9.1233 109.105 9.2493 108.769 9.5013C108.433 9.74396 108.219 10.1173 108.125 10.6213H111.583C111.555 10.164 111.387 9.79996 111.079 9.5293C110.771 9.25863 110.389 9.1233 109.931 9.1233ZM117.304 14.9473C116.707 14.9473 116.217 14.854 115.834 14.6673C115.452 14.4713 115.167 14.2146 114.98 13.8973C114.794 13.58 114.7 13.23 114.7 12.8473C114.7 12.2033 114.952 11.6806 115.456 11.2793C115.96 10.878 116.716 10.6773 117.724 10.6773H119.488V10.5093C119.488 10.0333 119.353 9.6833 119.082 9.4593C118.812 9.2353 118.476 9.1233 118.074 9.1233C117.71 9.1233 117.393 9.21196 117.122 9.3893C116.852 9.5573 116.684 9.8093 116.618 10.1453H114.868C114.915 9.6413 115.083 9.20263 115.372 8.8293C115.671 8.45596 116.054 8.1713 116.52 7.9753C116.987 7.76996 117.51 7.6673 118.088 7.6673C119.078 7.6673 119.857 7.91463 120.426 8.4093C120.996 8.90396 121.28 9.60396 121.28 10.5093V14.7793H119.754L119.586 13.6593C119.381 14.0326 119.092 14.3406 118.718 14.5833C118.354 14.826 117.883 14.9473 117.304 14.9473ZM117.71 13.5473C118.224 13.5473 118.62 13.3793 118.9 13.0433C119.19 12.7073 119.372 12.292 119.446 11.7973H117.92C117.444 11.7973 117.104 11.886 116.898 12.0633C116.693 12.2313 116.59 12.4413 116.59 12.6933C116.59 12.964 116.693 13.174 116.898 13.3233C117.104 13.4726 117.374 13.5473 117.71 13.5473ZM122.99 14.7793V4.6993H124.782V10.6493L127.246 7.8353H129.374L126.532 10.9993L129.836 14.7793H127.596L124.782 11.2933V14.7793H122.99ZM133.747 14.9473C133.047 14.9473 132.427 14.798 131.885 14.4993C131.344 14.2006 130.919 13.7806 130.611 13.2393C130.303 12.698 130.149 12.0726 130.149 11.3633C130.149 10.6446 130.299 10.0053 130.597 9.4453C130.905 8.8853 131.325 8.4513 131.857 8.1433C132.399 7.82596 133.033 7.6673 133.761 7.6673C134.443 7.6673 135.045 7.81663 135.567 8.1153C136.09 8.41396 136.496 8.82463 136.785 9.3473C137.084 9.86063 137.233 10.4346 137.233 11.0693C137.233 11.172 137.229 11.2793 137.219 11.3913C137.219 11.5033 137.215 11.62 137.205 11.7413H131.927C131.965 12.2826 132.151 12.7073 132.487 13.0153C132.833 13.3233 133.248 13.4773 133.733 13.4773C134.097 13.4773 134.401 13.398 134.643 13.2393C134.895 13.0713 135.082 12.8566 135.203 12.5953H137.023C136.893 13.034 136.673 13.4353 136.365 13.7993C136.067 14.154 135.693 14.434 135.245 14.6393C134.807 14.8446 134.307 14.9473 133.747 14.9473ZM133.761 9.1233C133.323 9.1233 132.935 9.2493 132.599 9.5013C132.263 9.74396 132.049 10.1173 131.955 10.6213H135.413C135.385 10.164 135.217 9.79996 134.909 9.5293C134.601 9.25863 134.219 9.1233 133.761 9.1233ZM138.74 14.7793V7.8353H140.336L140.504 9.1373C140.756 8.6893 141.097 8.33463 141.526 8.0733C141.965 7.80263 142.478 7.6673 143.066 7.6673V9.5573H142.562C142.17 9.5573 141.82 9.61796 141.512 9.7393C141.204 9.86063 140.962 10.0706 140.784 10.3693C140.616 10.668 140.532 11.0833 140.532 11.6153V14.7793H138.74Z" fill="white"/>
<path d="M53.1103 88.9945C52.0803 88.9945 51.1903 88.7695 50.4403 88.3195C49.7003 87.8595 49.1253 87.2245 48.7153 86.4145C48.3053 85.5945 48.1003 84.6445 48.1003 83.5645C48.1003 82.4945 48.3053 81.5545 48.7153 80.7445C49.1253 79.9245 49.7003 79.2845 50.4403 78.8245C51.1903 78.3645 52.0803 78.1345 53.1103 78.1345C54.3103 78.1345 55.2853 78.4245 56.0353 79.0045C56.7953 79.5745 57.2803 80.3745 57.4903 81.4045H56.0953C55.9353 80.7545 55.6053 80.2345 55.1053 79.8445C54.6153 79.4445 53.9503 79.2445 53.1103 79.2445C52.3603 79.2445 51.7053 79.4195 51.1453 79.7695C50.5853 80.1095 50.1503 80.6045 49.8403 81.2545C49.5403 81.8945 49.3903 82.6645 49.3903 83.5645C49.3903 84.4645 49.5403 85.2395 49.8403 85.8895C50.1503 86.5295 50.5853 87.0245 51.1453 87.3745C51.7053 87.7145 52.3603 87.8845 53.1103 87.8845C53.9503 87.8845 54.6153 87.6945 55.1053 87.3145C55.6053 86.9245 55.9353 86.4095 56.0953 85.7695H57.4903C57.2803 86.7795 56.7953 87.5695 56.0353 88.1395C55.2853 88.7095 54.3103 88.9945 53.1103 88.9945ZM61.7012 88.9945C61.0812 88.9945 60.5662 88.8895 60.1562 88.6795C59.7462 88.4695 59.4412 88.1895 59.2412 87.8395C59.0412 87.4895 58.9412 87.1095 58.9412 86.6995C58.9412 85.9395 59.2312 85.3545 59.8112 84.9445C60.3912 84.5345 61.1812 84.3295 62.1812 84.3295H64.1912V84.2395C64.1912 83.5895 64.0212 83.0995 63.6812 82.7695C63.3412 82.4295 62.8862 82.2595 62.3162 82.2595C61.8262 82.2595 61.4012 82.3845 61.0412 82.6345C60.6912 82.8745 60.4712 83.2295 60.3812 83.6995H59.0912C59.1412 83.1595 59.3212 82.7045 59.6312 82.3345C59.9512 81.9645 60.3462 81.6845 60.8162 81.4945C61.2862 81.2945 61.7862 81.1945 62.3162 81.1945C63.3562 81.1945 64.1362 81.4745 64.6562 82.0345C65.1862 82.5845 65.4512 83.3195 65.4512 84.2395V88.8145H64.3262L64.2512 87.4795C64.0412 87.8995 63.7312 88.2595 63.3212 88.5595C62.9212 88.8495 62.3812 88.9945 61.7012 88.9945ZM61.8962 87.9295C62.3762 87.9295 62.7862 87.8045 63.1262 87.5545C63.4762 87.3045 63.7412 86.9795 63.9212 86.5795C64.1012 86.1795 64.1912 85.7595 64.1912 85.3195V85.3045H62.2862C61.5462 85.3045 61.0212 85.4345 60.7112 85.6945C60.4112 85.9445 60.2612 86.2595 60.2612 86.6395C60.2612 87.0295 60.4012 87.3445 60.6812 87.5845C60.9712 87.8145 61.3762 87.9295 61.8962 87.9295ZM67.3414 88.8145V81.3745H68.4814L68.5864 82.7995C68.8164 82.3095 69.1664 81.9195 69.6364 81.6295C70.1064 81.3395 70.6864 81.1945 71.3764 81.1945V82.5145H71.0314C70.5914 82.5145 70.1864 82.5945 69.8164 82.7545C69.4464 82.9045 69.1514 83.1645 68.9314 83.5345C68.7114 83.9045 68.6014 84.4145 68.6014 85.0645V88.8145H67.3414ZM75.8573 88.9945C75.1473 88.9945 74.5173 88.8345 73.9673 88.5145C73.4173 88.1845 72.9823 87.7295 72.6623 87.1495C72.3523 86.5695 72.1973 85.8845 72.1973 85.0945C72.1973 84.3145 72.3523 83.6345 72.6623 83.0545C72.9723 82.4645 73.4023 82.0095 73.9523 81.6895C74.5123 81.3595 75.1573 81.1945 75.8873 81.1945C76.6073 81.1945 77.2273 81.3595 77.7473 81.6895C78.2773 82.0095 78.6823 82.4345 78.9623 82.9645C79.2423 83.4945 79.3823 84.0645 79.3823 84.6745C79.3823 84.7845 79.3773 84.8945 79.3673 85.0045C79.3673 85.1145 79.3673 85.2395 79.3673 85.3795H73.4423C73.4723 85.9495 73.6023 86.4245 73.8323 86.8045C74.0723 87.1745 74.3673 87.4545 74.7173 87.6445C75.0773 87.8345 75.4573 87.9295 75.8573 87.9295C76.3773 87.9295 76.8123 87.8095 77.1623 87.5695C77.5123 87.3295 77.7673 87.0045 77.9273 86.5945H79.1723C78.9723 87.2845 78.5873 87.8595 78.0173 88.3195C77.4573 88.7695 76.7373 88.9945 75.8573 88.9945ZM75.8573 82.2595C75.2573 82.2595 74.7223 82.4445 74.2523 82.8145C73.7923 83.1745 73.5273 83.7045 73.4573 84.4045H78.1373C78.1073 83.7345 77.8773 83.2095 77.4473 82.8295C77.0173 82.4495 76.4873 82.2595 75.8573 82.2595ZM81.4574 88.8145V82.4395H80.3324V81.3745H81.4574V80.0845C81.4574 79.3645 81.6374 78.8395 81.9974 78.5095C82.3574 78.1795 82.8824 78.0145 83.5724 78.0145H84.3224V79.0945H83.7674C83.3874 79.0945 83.1174 79.1745 82.9574 79.3345C82.7974 79.4845 82.7174 79.7445 82.7174 80.1145V81.3745H84.5474V82.4395H82.7174V88.8145H81.4574ZM88.7625 88.9945C87.8825 88.9945 87.1825 88.7295 86.6625 88.1995C86.1425 87.6595 85.8825 86.8345 85.8825 85.7245V81.3745H87.1425V85.5895C87.1425 87.1395 87.7775 87.9145 89.0475 87.9145C89.6975 87.9145 90.2325 87.6845 90.6525 87.2245C91.0825 86.7545 91.2975 86.0895 91.2975 85.2295V81.3745H92.5575V88.8145H91.4175L91.3275 87.4795C91.0975 87.9495 90.7525 88.3195 90.2925 88.5895C89.8425 88.8595 89.3325 88.9945 88.7625 88.9945ZM94.6315 88.8145V78.0145H95.8915V88.8145H94.6315ZM97.9567 88.8145V78.0145H99.2167V88.8145H97.9567ZM102.092 92.1145L103.937 88.0945H103.502L100.547 81.3745H101.912L104.372 87.1645L106.982 81.3745H108.287L103.412 92.1145H102.092ZM117.007 88.9945C116.297 88.9945 115.657 88.8345 115.087 88.5145C114.527 88.1845 114.082 87.7295 113.752 87.1495C113.432 86.5595 113.272 85.8745 113.272 85.0945C113.272 84.3145 113.432 83.6345 113.752 83.0545C114.082 82.4645 114.527 82.0095 115.087 81.6895C115.657 81.3595 116.297 81.1945 117.007 81.1945C117.887 81.1945 118.627 81.4245 119.227 81.8845C119.837 82.3445 120.222 82.9595 120.382 83.7295H119.092C118.992 83.2695 118.747 82.9145 118.357 82.6645C117.967 82.4045 117.512 82.2745 116.992 82.2745C116.572 82.2745 116.177 82.3795 115.807 82.5895C115.437 82.7995 115.137 83.1145 114.907 83.5345C114.677 83.9545 114.562 84.4745 114.562 85.0945C114.562 85.7145 114.677 86.2345 114.907 86.6545C115.137 87.0745 115.437 87.3945 115.807 87.6145C116.177 87.8245 116.572 87.9295 116.992 87.9295C117.512 87.9295 117.967 87.8045 118.357 87.5545C118.747 87.2945 118.992 86.9295 119.092 86.4595H120.382C120.232 87.2095 119.852 87.8195 119.242 88.2895C118.632 88.7595 117.887 88.9945 117.007 88.9945ZM124.856 88.9945C123.976 88.9945 123.276 88.7295 122.756 88.1995C122.236 87.6595 121.976 86.8345 121.976 85.7245V81.3745H123.236V85.5895C123.236 87.1395 123.871 87.9145 125.141 87.9145C125.791 87.9145 126.326 87.6845 126.746 87.2245C127.176 86.7545 127.391 86.0895 127.391 85.2295V81.3745H128.651V88.8145H127.511L127.421 87.4795C127.191 87.9495 126.846 88.3195 126.386 88.5895C125.936 88.8595 125.426 88.9945 124.856 88.9945ZM130.725 88.8145V81.3745H131.865L131.97 82.7995C132.2 82.3095 132.55 81.9195 133.02 81.6295C133.49 81.3395 134.07 81.1945 134.76 81.1945V82.5145H134.415C133.975 82.5145 133.57 82.5945 133.2 82.7545C132.83 82.9045 132.535 83.1645 132.315 83.5345C132.095 83.9045 131.985 84.4145 131.985 85.0645V88.8145H130.725ZM138.649 88.9945C138.029 88.9945 137.514 88.8895 137.104 88.6795C136.694 88.4695 136.389 88.1895 136.189 87.8395C135.989 87.4895 135.889 87.1095 135.889 86.6995C135.889 85.9395 136.179 85.3545 136.759 84.9445C137.339 84.5345 138.129 84.3295 139.129 84.3295H141.139V84.2395C141.139 83.5895 140.969 83.0995 140.629 82.7695C140.289 82.4295 139.834 82.2595 139.264 82.2595C138.774 82.2595 138.349 82.3845 137.989 82.6345C137.639 82.8745 137.419 83.2295 137.329 83.6995H136.039C136.089 83.1595 136.269 82.7045 136.579 82.3345C136.899 81.9645 137.294 81.6845 137.764 81.4945C138.234 81.2945 138.734 81.1945 139.264 81.1945C140.304 81.1945 141.084 81.4745 141.604 82.0345C142.134 82.5845 142.399 83.3195 142.399 84.2395V88.8145H141.274L141.199 87.4795C140.989 87.8995 140.679 88.2595 140.269 88.5595C139.869 88.8495 139.329 88.9945 138.649 88.9945ZM138.844 87.9295C139.324 87.9295 139.734 87.8045 140.074 87.5545C140.424 87.3045 140.689 86.9795 140.869 86.5795C141.049 86.1795 141.139 85.7595 141.139 85.3195V85.3045H139.234C138.494 85.3045 137.969 85.4345 137.659 85.6945C137.359 85.9445 137.209 86.2595 137.209 86.6395C137.209 87.0295 137.349 87.3445 137.629 87.5845C137.919 87.8145 138.324 87.9295 138.844 87.9295ZM147.025 88.8145C146.345 88.8145 145.81 88.6495 145.42 88.3195C145.03 87.9895 144.835 87.3945 144.835 86.5345V82.4395H143.545V81.3745H144.835L145 79.5895H146.095V81.3745H148.285V82.4395H146.095V86.5345C146.095 87.0045 146.19 87.3245 146.38 87.4945C146.57 87.6545 146.905 87.7345 147.385 87.7345H148.165V88.8145H147.025ZM153.025 88.9945C152.315 88.9945 151.685 88.8345 151.135 88.5145C150.585 88.1845 150.15 87.7295 149.83 87.1495C149.52 86.5695 149.365 85.8845 149.365 85.0945C149.365 84.3145 149.52 83.6345 149.83 83.0545C150.14 82.4645 150.57 82.0095 151.12 81.6895C151.68 81.3595 152.325 81.1945 153.055 81.1945C153.775 81.1945 154.395 81.3595 154.915 81.6895C155.445 82.0095 155.85 82.4345 156.13 82.9645C156.41 83.4945 156.55 84.0645 156.55 84.6745C156.55 84.7845 156.545 84.8945 156.535 85.0045C156.535 85.1145 156.535 85.2395 156.535 85.3795H150.61C150.64 85.9495 150.77 86.4245 151 86.8045C151.24 87.1745 151.535 87.4545 151.885 87.6445C152.245 87.8345 152.625 87.9295 153.025 87.9295C153.545 87.9295 153.98 87.8095 154.33 87.5695C154.68 87.3295 154.935 87.0045 155.095 86.5945H156.34C156.14 87.2845 155.755 87.8595 155.185 88.3195C154.625 88.7695 153.905 88.9945 153.025 88.9945ZM153.025 82.2595C152.425 82.2595 151.89 82.4445 151.42 82.8145C150.96 83.1745 150.695 83.7045 150.625 84.4045H155.305C155.275 83.7345 155.045 83.2095 154.615 82.8295C154.185 82.4495 153.655 82.2595 153.025 82.2595ZM161.595 88.9945C160.855 88.9945 160.205 88.8245 159.645 88.4845C159.095 88.1445 158.665 87.6795 158.355 87.0895C158.055 86.4995 157.905 85.8295 157.905 85.0795C157.905 84.3295 158.06 83.6645 158.37 83.0845C158.68 82.4945 159.11 82.0345 159.66 81.7045C160.21 81.3645 160.86 81.1945 161.61 81.1945C162.22 81.1945 162.76 81.3195 163.23 81.5695C163.7 81.8195 164.065 82.1695 164.325 82.6195V78.0145H165.585V88.8145H164.445L164.325 87.5845C164.085 87.9445 163.74 88.2695 163.29 88.5595C162.84 88.8495 162.275 88.9945 161.595 88.9945ZM161.73 87.8995C162.23 87.8995 162.67 87.7845 163.05 87.5545C163.44 87.3145 163.74 86.9845 163.95 86.5645C164.17 86.1445 164.28 85.6545 164.28 85.0945C164.28 84.5345 164.17 84.0445 163.95 83.6245C163.74 83.2045 163.44 82.8795 163.05 82.6495C162.67 82.4095 162.23 82.2895 161.73 82.2895C161.24 82.2895 160.8 82.4095 160.41 82.6495C160.03 82.8795 159.73 83.2045 159.51 83.6245C159.3 84.0445 159.195 84.5345 159.195 85.0945C159.195 85.6545 159.3 86.1445 159.51 86.5645C159.73 86.9845 160.03 87.3145 160.41 87.5545C160.8 87.7845 161.24 87.8995 161.73 87.8995ZM36.9718 112.114V107.584C36.7318 107.944 36.3868 108.269 35.9368 108.559C35.4868 108.849 34.9218 108.994 34.2418 108.994C33.5018 108.994 32.8518 108.824 32.2918 108.484C31.7418 108.144 31.3118 107.679 31.0018 107.089C30.7018 106.499 30.5518 105.829 30.5518 105.079C30.5518 104.329 30.7068 103.664 31.0168 103.084C31.3268 102.494 31.7568 102.034 32.3068 101.704C32.8568 101.364 33.5068 101.194 34.2568 101.194C34.8668 101.194 35.4068 101.319 35.8768 101.569C36.3468 101.819 36.7118 102.169 36.9718 102.619L37.0918 101.374H38.2318V112.114H36.9718ZM34.3768 107.899C34.8768 107.899 35.3168 107.784 35.6968 107.554C36.0868 107.314 36.3868 106.984 36.5968 106.564C36.8168 106.144 36.9268 105.654 36.9268 105.094C36.9268 104.534 36.8168 104.044 36.5968 103.624C36.3868 103.204 36.0868 102.879 35.6968 102.649C35.3168 102.409 34.8768 102.289 34.3768 102.289C33.8868 102.289 33.4468 102.409 33.0568 102.649C32.6768 102.879 32.3768 103.204 32.1568 103.624C31.9468 104.044 31.8418 104.534 31.8418 105.094C31.8418 105.654 31.9468 106.144 32.1568 106.564C32.3768 106.984 32.6768 107.314 33.0568 107.554C33.4468 107.784 33.8868 107.899 34.3768 107.899ZM43.0008 108.994C42.1208 108.994 41.4208 108.729 40.9008 108.199C40.3808 107.659 40.1208 106.834 40.1208 105.724V101.374H41.3808V105.589C41.3808 107.139 42.0158 107.914 43.2858 107.914C43.9358 107.914 44.4708 107.684 44.8908 107.224C45.3208 106.754 45.5358 106.089 45.5358 105.229V101.374H46.7958V108.814H45.6558L45.5658 107.479C45.3358 107.949 44.9908 108.319 44.5308 108.589C44.0808 108.859 43.5708 108.994 43.0008 108.994ZM52.2147 108.994C51.5047 108.994 50.8747 108.834 50.3247 108.514C49.7747 108.184 49.3397 107.729 49.0197 107.149C48.7097 106.569 48.5547 105.884 48.5547 105.094C48.5547 104.314 48.7097 103.634 49.0197 103.054C49.3297 102.464 49.7597 102.009 50.3097 101.689C50.8697 101.359 51.5147 101.194 52.2447 101.194C52.9647 101.194 53.5847 101.359 54.1047 101.689C54.6347 102.009 55.0397 102.434 55.3197 102.964C55.5997 103.494 55.7397 104.064 55.7397 104.674C55.7397 104.784 55.7347 104.894 55.7247 105.004C55.7247 105.114 55.7247 105.239 55.7247 105.379H49.7997C49.8297 105.949 49.9597 106.424 50.1897 106.804C50.4297 107.174 50.7247 107.454 51.0747 107.644C51.4347 107.834 51.8147 107.929 52.2147 107.929C52.7347 107.929 53.1697 107.809 53.5197 107.569C53.8697 107.329 54.1247 107.004 54.2847 106.594H55.5297C55.3297 107.284 54.9447 107.859 54.3747 108.319C53.8147 108.769 53.0947 108.994 52.2147 108.994ZM52.2147 102.259C51.6147 102.259 51.0797 102.444 50.6097 102.814C50.1497 103.174 49.8847 103.704 49.8147 104.404H54.4947C54.4647 103.734 54.2347 103.209 53.8047 102.829C53.3747 102.449 52.8447 102.259 52.2147 102.259ZM60.2598 108.994C59.3698 108.994 58.6298 108.769 58.0398 108.319C57.4498 107.869 57.1048 107.259 57.0048 106.489H58.2948C58.3748 106.879 58.5798 107.219 58.9098 107.509C59.2498 107.789 59.7048 107.929 60.2748 107.929C60.8048 107.929 61.1948 107.819 61.4448 107.599C61.6948 107.369 61.8198 107.099 61.8198 106.789C61.8198 106.339 61.6548 106.039 61.3248 105.889C61.0048 105.739 60.5498 105.604 59.9598 105.484C59.5598 105.404 59.1598 105.289 58.7598 105.139C58.3598 104.989 58.0248 104.779 57.7548 104.509C57.4848 104.229 57.3498 103.864 57.3498 103.414C57.3498 102.764 57.5898 102.234 58.0698 101.824C58.5598 101.404 59.2198 101.194 60.0498 101.194C60.8398 101.194 61.4848 101.394 61.9848 101.794C62.4948 102.184 62.7898 102.744 62.8698 103.474H61.6248C61.5748 103.094 61.4098 102.799 61.1298 102.589C60.8598 102.369 60.4948 102.259 60.0348 102.259C59.5848 102.259 59.2348 102.354 58.9848 102.544C58.7448 102.734 58.6248 102.984 58.6248 103.294C58.6248 103.594 58.7798 103.829 59.0898 103.999C59.4098 104.169 59.8398 104.314 60.3798 104.434C60.8398 104.534 61.2748 104.659 61.6848 104.809C62.1048 104.949 62.4448 105.164 62.7048 105.454C62.9748 105.734 63.1098 106.144 63.1098 106.684C63.1198 107.354 62.8648 107.909 62.3448 108.349C61.8348 108.779 61.1398 108.994 60.2598 108.994ZM67.5129 108.814C66.8329 108.814 66.2979 108.649 65.9079 108.319C65.5179 107.989 65.3229 107.394 65.3229 106.534V102.439H64.0329V101.374H65.3229L65.4879 99.5895H66.5829V101.374H68.7729V102.439H66.5829V106.534C66.5829 107.004 66.6779 107.324 66.8679 107.494C67.0579 107.654 67.3929 107.734 67.8729 107.734H68.6529V108.814H67.5129ZM71.1387 99.7245C70.8887 99.7245 70.6787 99.6445 70.5087 99.4845C70.3487 99.3145 70.2687 99.1045 70.2687 98.8545C70.2687 98.6145 70.3487 98.4145 70.5087 98.2545C70.6787 98.0945 70.8887 98.0145 71.1387 98.0145C71.3787 98.0145 71.5837 98.0945 71.7537 98.2545C71.9237 98.4145 72.0087 98.6145 72.0087 98.8545C72.0087 99.1045 71.9237 99.3145 71.7537 99.4845C71.5837 99.6445 71.3787 99.7245 71.1387 99.7245ZM70.5087 108.814V101.374H71.7687V108.814H70.5087ZM77.3525 108.994C76.6525 108.994 76.0225 108.834 75.4625 108.514C74.9025 108.194 74.4575 107.744 74.1275 107.164C73.8075 106.574 73.6475 105.884 73.6475 105.094C73.6475 104.304 73.8125 103.619 74.1425 103.039C74.4725 102.449 74.9175 101.994 75.4775 101.674C76.0475 101.354 76.6825 101.194 77.3825 101.194C78.0825 101.194 78.7125 101.354 79.2725 101.674C79.8325 101.994 80.2725 102.449 80.5925 103.039C80.9225 103.619 81.0875 104.304 81.0875 105.094C81.0875 105.884 80.9225 106.574 80.5925 107.164C80.2625 107.744 79.8125 108.194 79.2425 108.514C78.6825 108.834 78.0525 108.994 77.3525 108.994ZM77.3525 107.914C77.7825 107.914 78.1825 107.809 78.5525 107.599C78.9225 107.389 79.2225 107.074 79.4525 106.654C79.6825 106.234 79.7975 105.714 79.7975 105.094C79.7975 104.474 79.6825 103.954 79.4525 103.534C79.2325 103.114 78.9375 102.799 78.5675 102.589C78.1975 102.379 77.8025 102.274 77.3825 102.274C76.9525 102.274 76.5525 102.379 76.1825 102.589C75.8125 102.799 75.5125 103.114 75.2825 103.534C75.0525 103.954 74.9375 104.474 74.9375 105.094C74.9375 105.714 75.0525 106.234 75.2825 106.654C75.5125 107.074 75.8075 107.389 76.1675 107.599C76.5375 107.809 76.9325 107.914 77.3525 107.914ZM82.8395 108.814V101.374H83.9795L84.0545 102.709C84.2945 102.239 84.6395 101.869 85.0895 101.599C85.5395 101.329 86.0495 101.194 86.6195 101.194C87.4995 101.194 88.1995 101.464 88.7195 102.004C89.2495 102.534 89.5145 103.354 89.5145 104.464V108.814H88.2545V104.599C88.2545 103.049 87.6145 102.274 86.3345 102.274C85.6945 102.274 85.1595 102.509 84.7295 102.979C84.3095 103.439 84.0995 104.099 84.0995 104.959V108.814H82.8395ZM94.2735 108.994C93.3835 108.994 92.6435 108.769 92.0535 108.319C91.4635 107.869 91.1185 107.259 91.0185 106.489H92.3085C92.3885 106.879 92.5935 107.219 92.9235 107.509C93.2635 107.789 93.7185 107.929 94.2885 107.929C94.8185 107.929 95.2085 107.819 95.4585 107.599C95.7085 107.369 95.8335 107.099 95.8335 106.789C95.8335 106.339 95.6685 106.039 95.3385 105.889C95.0185 105.739 94.5635 105.604 93.9735 105.484C93.5735 105.404 93.1735 105.289 92.7735 105.139C92.3735 104.989 92.0385 104.779 91.7685 104.509C91.4985 104.229 91.3635 103.864 91.3635 103.414C91.3635 102.764 91.6035 102.234 92.0835 101.824C92.5735 101.404 93.2335 101.194 94.0635 101.194C94.8535 101.194 95.4985 101.394 95.9985 101.794C96.5085 102.184 96.8035 102.744 96.8835 103.474H95.6385C95.5885 103.094 95.4235 102.799 95.1435 102.589C94.8735 102.369 94.5085 102.259 94.0485 102.259C93.5985 102.259 93.2485 102.354 92.9985 102.544C92.7585 102.734 92.6385 102.984 92.6385 103.294C92.6385 103.594 92.7935 103.829 93.1035 103.999C93.4235 104.169 93.8535 104.314 94.3935 104.434C94.8535 104.534 95.2885 104.659 95.6985 104.809C96.1185 104.949 96.4585 105.164 96.7185 105.454C96.9885 105.734 97.1235 106.144 97.1235 106.684C97.1335 107.354 96.8785 107.909 96.3585 108.349C95.8485 108.779 95.1535 108.994 94.2735 108.994ZM106.268 108.994C105.528 108.994 104.878 108.824 104.318 108.484C103.768 108.144 103.338 107.679 103.028 107.089C102.728 106.499 102.578 105.829 102.578 105.079C102.578 104.329 102.733 103.664 103.043 103.084C103.353 102.494 103.783 102.034 104.333 101.704C104.883 101.364 105.533 101.194 106.283 101.194C106.893 101.194 107.433 101.319 107.903 101.569C108.373 101.819 108.738 102.169 108.998 102.619V98.0145H110.258V108.814H109.118L108.998 107.584C108.758 107.944 108.413 108.269 107.963 108.559C107.513 108.849 106.948 108.994 106.268 108.994ZM106.403 107.899C106.903 107.899 107.343 107.784 107.723 107.554C108.113 107.314 108.413 106.984 108.623 106.564C108.843 106.144 108.953 105.654 108.953 105.094C108.953 104.534 108.843 104.044 108.623 103.624C108.413 103.204 108.113 102.879 107.723 102.649C107.343 102.409 106.903 102.289 106.403 102.289C105.913 102.289 105.473 102.409 105.083 102.649C104.703 102.879 104.403 103.204 104.183 103.624C103.973 104.044 103.868 104.534 103.868 105.094C103.868 105.654 103.973 106.144 104.183 106.564C104.403 106.984 104.703 107.314 105.083 107.554C105.473 107.784 105.913 107.899 106.403 107.899ZM115.657 108.994C114.947 108.994 114.317 108.834 113.767 108.514C113.217 108.184 112.782 107.729 112.462 107.149C112.152 106.569 111.997 105.884 111.997 105.094C111.997 104.314 112.152 103.634 112.462 103.054C112.772 102.464 113.202 102.009 113.752 101.689C114.312 101.359 114.957 101.194 115.687 101.194C116.407 101.194 117.027 101.359 117.547 101.689C118.077 102.009 118.482 102.434 118.762 102.964C119.042 103.494 119.182 104.064 119.182 104.674C119.182 104.784 119.177 104.894 119.167 105.004C119.167 105.114 119.167 105.239 119.167 105.379H113.242C113.272 105.949 113.402 106.424 113.632 106.804C113.872 107.174 114.167 107.454 114.517 107.644C114.877 107.834 115.257 107.929 115.657 107.929C116.177 107.929 116.612 107.809 116.962 107.569C117.312 107.329 117.567 107.004 117.727 106.594H118.972C118.772 107.284 118.387 107.859 117.817 108.319C117.257 108.769 116.537 108.994 115.657 108.994ZM115.657 102.259C115.057 102.259 114.522 102.444 114.052 102.814C113.592 103.174 113.327 103.704 113.257 104.404H117.937C117.907 103.734 117.677 103.209 117.247 102.829C116.817 102.449 116.287 102.259 115.657 102.259ZM123.702 108.994C122.812 108.994 122.072 108.769 121.482 108.319C120.892 107.869 120.547 107.259 120.447 106.489H121.737C121.817 106.879 122.022 107.219 122.352 107.509C122.692 107.789 123.147 107.929 123.717 107.929C124.247 107.929 124.637 107.819 124.887 107.599C125.137 107.369 125.262 107.099 125.262 106.789C125.262 106.339 125.097 106.039 124.767 105.889C124.447 105.739 123.992 105.604 123.402 105.484C123.002 105.404 122.602 105.289 122.202 105.139C121.802 104.989 121.467 104.779 121.197 104.509C120.927 104.229 120.792 103.864 120.792 103.414C120.792 102.764 121.032 102.234 121.512 101.824C122.002 101.404 122.662 101.194 123.492 101.194C124.282 101.194 124.927 101.394 125.427 101.794C125.937 102.184 126.232 102.744 126.312 103.474H125.067C125.017 103.094 124.852 102.799 124.572 102.589C124.302 102.369 123.937 102.259 123.477 102.259C123.027 102.259 122.677 102.354 122.427 102.544C122.187 102.734 122.067 102.984 122.067 103.294C122.067 103.594 122.222 103.829 122.532 103.999C122.852 104.169 123.282 104.314 123.822 104.434C124.282 104.534 124.717 104.659 125.127 104.809C125.547 104.949 125.887 105.164 126.147 105.454C126.417 105.734 126.552 106.144 126.552 106.684C126.562 107.354 126.307 107.909 125.787 108.349C125.277 108.779 124.582 108.994 123.702 108.994ZM129.117 99.7245C128.867 99.7245 128.657 99.6445 128.487 99.4845C128.327 99.3145 128.247 99.1045 128.247 98.8545C128.247 98.6145 128.327 98.4145 128.487 98.2545C128.657 98.0945 128.867 98.0145 129.117 98.0145C129.357 98.0145 129.562 98.0945 129.732 98.2545C129.902 98.4145 129.987 98.6145 129.987 98.8545C129.987 99.1045 129.902 99.3145 129.732 99.4845C129.562 99.6445 129.357 99.7245 129.117 99.7245ZM128.487 108.814V101.374H129.747V108.814H128.487ZM134.881 106.474C134.461 106.474 134.076 106.419 133.726 106.309L132.976 107.014C133.086 107.094 133.221 107.164 133.381 107.224C133.551 107.274 133.791 107.324 134.101 107.374C134.411 107.414 134.846 107.459 135.406 107.509C136.406 107.579 137.121 107.809 137.551 108.199C137.981 108.589 138.196 109.099 138.196 109.729C138.196 110.159 138.076 110.569 137.836 110.959C137.606 111.349 137.246 111.669 136.756 111.919C136.276 112.169 135.656 112.294 134.896 112.294C134.226 112.294 133.631 112.204 133.111 112.024C132.591 111.854 132.186 111.589 131.896 111.229C131.606 110.879 131.461 110.434 131.461 109.894C131.461 109.614 131.536 109.309 131.686 108.979C131.836 108.659 132.116 108.354 132.526 108.064C132.306 107.974 132.116 107.879 131.956 107.779C131.806 107.669 131.666 107.549 131.536 107.419V107.074L132.811 105.814C132.221 105.314 131.926 104.654 131.926 103.834C131.926 103.344 132.041 102.899 132.271 102.499C132.501 102.099 132.836 101.784 133.276 101.554C133.716 101.314 134.251 101.194 134.881 101.194C135.311 101.194 135.701 101.254 136.051 101.374H138.796V102.319L137.401 102.379C137.691 102.799 137.836 103.284 137.836 103.834C137.836 104.324 137.716 104.769 137.476 105.169C137.246 105.569 136.911 105.889 136.471 106.129C136.041 106.359 135.511 106.474 134.881 106.474ZM134.881 105.439C135.411 105.439 135.831 105.304 136.141 105.034C136.461 104.754 136.621 104.354 136.621 103.834C136.621 103.324 136.461 102.934 136.141 102.664C135.831 102.384 135.411 102.244 134.881 102.244C134.341 102.244 133.911 102.384 133.591 102.664C133.281 102.934 133.126 103.324 133.126 103.834C133.126 104.354 133.281 104.754 133.591 105.034C133.911 105.304 134.341 105.439 134.881 105.439ZM132.691 109.774C132.691 110.274 132.901 110.644 133.321 110.884C133.741 111.134 134.266 111.259 134.896 111.259C135.516 111.259 136.011 111.124 136.381 110.854C136.761 110.584 136.951 110.224 136.951 109.774C136.951 109.454 136.821 109.174 136.561 108.934C136.301 108.704 135.821 108.569 135.121 108.529C134.571 108.489 134.096 108.439 133.696 108.379C133.286 108.599 133.016 108.834 132.886 109.084C132.756 109.344 132.691 109.574 132.691 109.774ZM140.217 108.814V101.374H141.357L141.432 102.709C141.672 102.239 142.017 101.869 142.467 101.599C142.917 101.329 143.427 101.194 143.997 101.194C144.877 101.194 145.577 101.464 146.097 102.004C146.627 102.534 146.892 103.354 146.892 104.464V108.814H145.632V104.599C145.632 103.049 144.992 102.274 143.712 102.274C143.072 102.274 142.537 102.509 142.107 102.979C141.687 103.439 141.477 104.099 141.477 104.959V108.814H140.217ZM152.146 108.994C151.436 108.994 150.806 108.834 150.256 108.514C149.706 108.184 149.271 107.729 148.951 107.149C148.641 106.569 148.486 105.884 148.486 105.094C148.486 104.314 148.641 103.634 148.951 103.054C149.261 102.464 149.691 102.009 150.241 101.689C150.801 101.359 151.446 101.194 152.176 101.194C152.896 101.194 153.516 101.359 154.036 101.689C154.566 102.009 154.971 102.434 155.251 102.964C155.531 103.494 155.671 104.064 155.671 104.674C155.671 104.784 155.666 104.894 155.656 105.004C155.656 105.114 155.656 105.239 155.656 105.379H149.731C149.761 105.949 149.891 106.424 150.121 106.804C150.361 107.174 150.656 107.454 151.006 107.644C151.366 107.834 151.746 107.929 152.146 107.929C152.666 107.929 153.101 107.809 153.451 107.569C153.801 107.329 154.056 107.004 154.216 106.594H155.461C155.261 107.284 154.876 107.859 154.306 108.319C153.746 108.769 153.026 108.994 152.146 108.994ZM152.146 102.259C151.546 102.259 151.011 102.444 150.541 102.814C150.081 103.174 149.816 103.704 149.746 104.404H154.426C154.396 103.734 154.166 103.209 153.736 102.829C153.306 102.449 152.776 102.259 152.146 102.259ZM160.716 108.994C159.976 108.994 159.326 108.824 158.766 108.484C158.216 108.144 157.786 107.679 157.476 107.089C157.176 106.499 157.026 105.829 157.026 105.079C157.026 104.329 157.181 103.664 157.491 103.084C157.801 102.494 158.231 102.034 158.781 101.704C159.331 101.364 159.981 101.194 160.731 101.194C161.341 101.194 161.881 101.319 162.351 101.569C162.821 101.819 163.186 102.169 163.446 102.619V98.0145H164.706V108.814H163.566L163.446 107.584C163.206 107.944 162.861 108.269 162.411 108.559C161.961 108.849 161.396 108.994 160.716 108.994ZM160.851 107.899C161.351 107.899 161.791 107.784 162.171 107.554C162.561 107.314 162.861 106.984 163.071 106.564C163.291 106.144 163.401 105.654 163.401 105.094C163.401 104.534 163.291 104.044 163.071 103.624C162.861 103.204 162.561 102.879 162.171 102.649C161.791 102.409 161.351 102.289 160.851 102.289C160.361 102.289 159.921 102.409 159.531 102.649C159.151 102.879 158.851 103.204 158.631 103.624C158.421 104.044 158.316 104.534 158.316 105.094C158.316 105.654 158.421 106.144 158.631 106.564C158.851 106.984 159.151 107.314 159.531 107.554C159.921 107.784 160.361 107.899 160.851 107.899ZM173.67 108.814C172.99 108.814 172.455 108.649 172.065 108.319C171.675 107.989 171.48 107.394 171.48 106.534V102.439H170.19V101.374H171.48L171.645 99.5895H172.74V101.374H174.93V102.439H172.74V106.534C172.74 107.004 172.835 107.324 173.025 107.494C173.215 107.654 173.55 107.734 174.03 107.734H174.81V108.814H173.67ZM179.716 108.994C179.016 108.994 178.386 108.834 177.826 108.514C177.266 108.194 176.821 107.744 176.491 107.164C176.171 106.574 176.011 105.884 176.011 105.094C176.011 104.304 176.176 103.619 176.506 103.039C176.836 102.449 177.281 101.994 177.841 101.674C178.411 101.354 179.046 101.194 179.746 101.194C180.446 101.194 181.076 101.354 181.636 101.674C182.196 101.994 182.636 102.449 182.956 103.039C183.286 103.619 183.451 104.304 183.451 105.094C183.451 105.884 183.286 106.574 182.956 107.164C182.626 107.744 182.176 108.194 181.606 108.514C181.046 108.834 180.416 108.994 179.716 108.994ZM179.716 107.914C180.146 107.914 180.546 107.809 180.916 107.599C181.286 107.389 181.586 107.074 181.816 106.654C182.046 106.234 182.161 105.714 182.161 105.094C182.161 104.474 182.046 103.954 181.816 103.534C181.596 103.114 181.301 102.799 180.931 102.589C180.561 102.379 180.166 102.274 179.746 102.274C179.316 102.274 178.916 102.379 178.546 102.589C178.176 102.799 177.876 103.114 177.646 103.534C177.416 103.954 177.301 104.474 177.301 105.094C177.301 105.714 177.416 106.234 177.646 106.654C177.876 107.074 178.171 107.389 178.531 107.599C178.901 107.809 179.296 107.914 179.716 107.914ZM50.77 119.724C50.52 119.724 50.31 119.644 50.14 119.484C49.98 119.314 49.9 119.104 49.9 118.854C49.9 118.614 49.98 118.414 50.14 118.254C50.31 118.094 50.52 118.014 50.77 118.014C51.01 118.014 51.215 118.094 51.385 118.254C51.555 118.414 51.64 118.614 51.64 118.854C51.64 119.104 51.555 119.314 51.385 119.484C51.215 119.644 51.01 119.724 50.77 119.724ZM50.14 128.814V121.374H51.4V128.814H50.14ZM53.5939 128.814V121.374H54.7339L54.8089 122.709C55.0489 122.239 55.3939 121.869 55.8439 121.599C56.2939 121.329 56.8039 121.194 57.3739 121.194C58.2539 121.194 58.9539 121.464 59.4739 122.004C60.0039 122.534 60.2689 123.354 60.2689 124.464V128.814H59.0089V124.599C59.0089 123.049 58.3689 122.274 57.0889 122.274C56.4489 122.274 55.9139 122.509 55.4839 122.979C55.0639 123.439 54.8539 124.099 54.8539 124.959V128.814H53.5939ZM65.0279 128.994C64.1379 128.994 63.3979 128.769 62.8079 128.319C62.2179 127.869 61.8729 127.259 61.7729 126.489H63.0629C63.1429 126.879 63.3479 127.219 63.6779 127.509C64.0179 127.789 64.4729 127.929 65.0429 127.929C65.5729 127.929 65.9629 127.819 66.2129 127.599C66.4629 127.369 66.5879 127.099 66.5879 126.789C66.5879 126.339 66.4229 126.039 66.0929 125.889C65.7729 125.739 65.3179 125.604 64.7279 125.484C64.3279 125.404 63.9279 125.289 63.5279 125.139C63.1279 124.989 62.7929 124.779 62.5229 124.509C62.2529 124.229 62.1179 123.864 62.1179 123.414C62.1179 122.764 62.3579 122.234 62.8379 121.824C63.3279 121.404 63.9879 121.194 64.8179 121.194C65.6079 121.194 66.2529 121.394 66.7529 121.794C67.2629 122.184 67.5579 122.744 67.6379 123.474H66.3929C66.3429 123.094 66.1779 122.799 65.8979 122.589C65.6279 122.369 65.2629 122.259 64.8029 122.259C64.3529 122.259 64.0029 122.354 63.7529 122.544C63.5129 122.734 63.3929 122.984 63.3929 123.294C63.3929 123.594 63.5479 123.829 63.8579 123.999C64.1779 124.169 64.6079 124.314 65.1479 124.434C65.6079 124.534 66.0429 124.659 66.4529 124.809C66.8729 124.949 67.2129 125.164 67.4729 125.454C67.7429 125.734 67.8779 126.144 67.8779 126.684C67.8879 127.354 67.6329 127.909 67.1129 128.349C66.6029 128.779 65.9079 128.994 65.0279 128.994ZM70.4429 119.724C70.1929 119.724 69.9829 119.644 69.8129 119.484C69.6529 119.314 69.5729 119.104 69.5729 118.854C69.5729 118.614 69.6529 118.414 69.8129 118.254C69.9829 118.094 70.1929 118.014 70.4429 118.014C70.6829 118.014 70.8879 118.094 71.0579 118.254C71.2279 118.414 71.3129 118.614 71.3129 118.854C71.3129 119.104 71.2279 119.314 71.0579 119.484C70.8879 119.644 70.6829 119.724 70.4429 119.724ZM69.8129 128.814V121.374H71.0729V128.814H69.8129ZM76.2067 128.814C75.5267 128.814 74.9917 128.649 74.6017 128.319C74.2117 127.989 74.0167 127.394 74.0167 126.534V122.439H72.7267V121.374H74.0167L74.1817 119.589H75.2767V121.374H77.4667V122.439H75.2767V126.534C75.2767 127.004 75.3717 127.324 75.5617 127.494C75.7517 127.654 76.0867 127.734 76.5667 127.734H77.3467V128.814H76.2067ZM82.0075 126.474C81.5875 126.474 81.2025 126.419 80.8525 126.309L80.1025 127.014C80.2125 127.094 80.3475 127.164 80.5075 127.224C80.6775 127.274 80.9175 127.324 81.2275 127.374C81.5375 127.414 81.9725 127.459 82.5325 127.509C83.5325 127.579 84.2475 127.809 84.6775 128.199C85.1075 128.589 85.3225 129.099 85.3225 129.729C85.3225 130.159 85.2025 130.569 84.9625 130.959C84.7325 131.349 84.3725 131.669 83.8825 131.919C83.4025 132.169 82.7825 132.294 82.0225 132.294C81.3525 132.294 80.7575 132.204 80.2375 132.024C79.7175 131.854 79.3125 131.589 79.0225 131.229C78.7325 130.879 78.5875 130.434 78.5875 129.894C78.5875 129.614 78.6625 129.309 78.8125 128.979C78.9625 128.659 79.2425 128.354 79.6525 128.064C79.4325 127.974 79.2425 127.879 79.0825 127.779C78.9325 127.669 78.7925 127.549 78.6625 127.419V127.074L79.9375 125.814C79.3475 125.314 79.0525 124.654 79.0525 123.834C79.0525 123.344 79.1675 122.899 79.3975 122.499C79.6275 122.099 79.9625 121.784 80.4025 121.554C80.8425 121.314 81.3775 121.194 82.0075 121.194C82.4375 121.194 82.8275 121.254 83.1775 121.374H85.9225V122.319L84.5275 122.379C84.8175 122.799 84.9625 123.284 84.9625 123.834C84.9625 124.324 84.8425 124.769 84.6025 125.169C84.3725 125.569 84.0375 125.889 83.5975 126.129C83.1675 126.359 82.6375 126.474 82.0075 126.474ZM82.0075 125.439C82.5375 125.439 82.9575 125.304 83.2675 125.034C83.5875 124.754 83.7475 124.354 83.7475 123.834C83.7475 123.324 83.5875 122.934 83.2675 122.664C82.9575 122.384 82.5375 122.244 82.0075 122.244C81.4675 122.244 81.0375 122.384 80.7175 122.664C80.4075 122.934 80.2525 123.324 80.2525 123.834C80.2525 124.354 80.4075 124.754 80.7175 125.034C81.0375 125.304 81.4675 125.439 82.0075 125.439ZM79.8175 129.774C79.8175 130.274 80.0275 130.644 80.4475 130.884C80.8675 131.134 81.3925 131.259 82.0225 131.259C82.6425 131.259 83.1375 131.124 83.5075 130.854C83.8875 130.584 84.0775 130.224 84.0775 129.774C84.0775 129.454 83.9475 129.174 83.6875 128.934C83.4275 128.704 82.9475 128.569 82.2475 128.529C81.6975 128.489 81.2225 128.439 80.8225 128.379C80.4125 128.599 80.1425 128.834 80.0125 129.084C79.8825 129.344 79.8175 129.574 79.8175 129.774ZM89.8189 128.994C89.1989 128.994 88.6839 128.889 88.2739 128.679C87.8639 128.469 87.5589 128.189 87.3589 127.839C87.1589 127.489 87.0589 127.109 87.0589 126.699C87.0589 125.939 87.3489 125.354 87.9289 124.944C88.5089 124.534 89.2989 124.329 90.2989 124.329H92.3089V124.239C92.3089 123.589 92.1389 123.099 91.7989 122.769C91.4589 122.429 91.0039 122.259 90.4339 122.259C89.9439 122.259 89.5189 122.384 89.1589 122.634C88.8089 122.874 88.5889 123.229 88.4989 123.699H87.2089C87.2589 123.159 87.4389 122.704 87.7489 122.334C88.0689 121.964 88.4639 121.684 88.9339 121.494C89.4039 121.294 89.9039 121.194 90.4339 121.194C91.4739 121.194 92.2539 121.474 92.7739 122.034C93.3039 122.584 93.5689 123.319 93.5689 124.239V128.814H92.4439L92.3689 127.479C92.1589 127.899 91.8489 128.259 91.4389 128.559C91.0389 128.849 90.4989 128.994 89.8189 128.994ZM90.0139 127.929C90.4939 127.929 90.9039 127.804 91.2439 127.554C91.5939 127.304 91.8589 126.979 92.0389 126.579C92.2189 126.179 92.3089 125.759 92.3089 125.319V125.304H90.4039C89.6639 125.304 89.1389 125.434 88.8289 125.694C88.5289 125.944 88.3789 126.259 88.3789 126.639C88.3789 127.029 88.5189 127.344 88.7989 127.584C89.0889 127.814 89.4939 127.929 90.0139 127.929ZM98.194 128.814C97.514 128.814 96.979 128.649 96.589 128.319C96.199 127.989 96.004 127.394 96.004 126.534V122.439H94.714V121.374H96.004L96.169 119.589H97.264V121.374H99.454V122.439H97.264V126.534C97.264 127.004 97.359 127.324 97.549 127.494C97.739 127.654 98.074 127.734 98.554 127.734H99.334V128.814H98.194ZM104.195 128.994C103.485 128.994 102.855 128.834 102.305 128.514C101.755 128.184 101.32 127.729 101 127.149C100.69 126.569 100.535 125.884 100.535 125.094C100.535 124.314 100.69 123.634 101 123.054C101.31 122.464 101.74 122.009 102.29 121.689C102.85 121.359 103.495 121.194 104.225 121.194C104.945 121.194 105.565 121.359 106.085 121.689C106.615 122.009 107.02 122.434 107.3 122.964C107.58 123.494 107.72 124.064 107.72 124.674C107.72 124.784 107.715 124.894 107.705 125.004C107.705 125.114 107.705 125.239 107.705 125.379H101.78C101.81 125.949 101.94 126.424 102.17 126.804C102.41 127.174 102.705 127.454 103.055 127.644C103.415 127.834 103.795 127.929 104.195 127.929C104.715 127.929 105.15 127.809 105.5 127.569C105.85 127.329 106.105 127.004 106.265 126.594H107.51C107.31 127.284 106.925 127.859 106.355 128.319C105.795 128.769 105.075 128.994 104.195 128.994ZM104.195 122.259C103.595 122.259 103.06 122.444 102.59 122.814C102.13 123.174 101.865 123.704 101.795 124.404H106.475C106.445 123.734 106.215 123.209 105.785 122.829C105.355 122.449 104.825 122.259 104.195 122.259ZM114.859 128.814L112.684 121.374H113.944L115.519 127.209L117.259 121.374H118.684L120.439 127.209L121.999 121.374H123.274L121.099 128.814H119.809L117.979 122.679L116.149 128.814H114.859ZM127.735 128.994C127.025 128.994 126.395 128.834 125.845 128.514C125.295 128.184 124.86 127.729 124.54 127.149C124.23 126.569 124.075 125.884 124.075 125.094C124.075 124.314 124.23 123.634 124.54 123.054C124.85 122.464 125.28 122.009 125.83 121.689C126.39 121.359 127.035 121.194 127.765 121.194C128.485 121.194 129.105 121.359 129.625 121.689C130.155 122.009 130.56 122.434 130.84 122.964C131.12 123.494 131.26 124.064 131.26 124.674C131.26 124.784 131.255 124.894 131.245 125.004C131.245 125.114 131.245 125.239 131.245 125.379H125.32C125.35 125.949 125.48 126.424 125.71 126.804C125.95 127.174 126.245 127.454 126.595 127.644C126.955 127.834 127.335 127.929 127.735 127.929C128.255 127.929 128.69 127.809 129.04 127.569C129.39 127.329 129.645 127.004 129.805 126.594H131.05C130.85 127.284 130.465 127.859 129.895 128.319C129.335 128.769 128.615 128.994 127.735 128.994ZM127.735 122.259C127.135 122.259 126.6 122.444 126.13 122.814C125.67 123.174 125.405 123.704 125.335 124.404H130.015C129.985 123.734 129.755 123.209 129.325 122.829C128.895 122.449 128.365 122.259 127.735 122.259ZM133.695 119.724C133.445 119.724 133.235 119.644 133.065 119.484C132.905 119.314 132.825 119.104 132.825 118.854C132.825 118.614 132.905 118.414 133.065 118.254C133.235 118.094 133.445 118.014 133.695 118.014C133.935 118.014 134.14 118.094 134.31 118.254C134.48 118.414 134.565 118.614 134.565 118.854C134.565 119.104 134.48 119.314 134.31 119.484C134.14 119.644 133.935 119.724 133.695 119.724ZM133.065 128.814V121.374H134.325V128.814H133.065ZM136.519 128.814V121.374H137.659L137.764 122.799C137.994 122.309 138.344 121.919 138.814 121.629C139.284 121.339 139.864 121.194 140.554 121.194V122.514H140.209C139.769 122.514 139.364 122.594 138.994 122.754C138.624 122.904 138.329 123.164 138.109 123.534C137.889 123.904 137.779 124.414 137.779 125.064V128.814H136.519ZM145.065 128.994C144.325 128.994 143.675 128.824 143.115 128.484C142.565 128.144 142.135 127.679 141.825 127.089C141.525 126.499 141.375 125.829 141.375 125.079C141.375 124.329 141.53 123.664 141.84 123.084C142.15 122.494 142.58 122.034 143.13 121.704C143.68 121.364 144.33 121.194 145.08 121.194C145.69 121.194 146.23 121.319 146.7 121.569C147.17 121.819 147.535 122.169 147.795 122.619V118.014H149.055V128.814H147.915L147.795 127.584C147.555 127.944 147.21 128.269 146.76 128.559C146.31 128.849 145.745 128.994 145.065 128.994ZM145.2 127.899C145.7 127.899 146.14 127.784 146.52 127.554C146.91 127.314 147.21 126.984 147.42 126.564C147.64 126.144 147.75 125.654 147.75 125.094C147.75 124.534 147.64 124.044 147.42 123.624C147.21 123.204 146.91 122.879 146.52 122.649C146.14 122.409 145.7 122.289 145.2 122.289C144.71 122.289 144.27 122.409 143.88 122.649C143.5 122.879 143.2 123.204 142.98 123.624C142.77 124.044 142.665 124.534 142.665 125.094C142.665 125.654 142.77 126.144 142.98 126.564C143.2 126.984 143.5 127.314 143.88 127.554C144.27 127.784 144.71 127.899 145.2 127.899ZM158.258 128.994C157.538 128.994 156.903 128.864 156.353 128.604C155.813 128.334 155.388 127.964 155.078 127.494C154.778 127.014 154.628 126.449 154.628 125.799C154.628 125.089 154.833 124.459 155.243 123.909C155.663 123.349 156.268 122.909 157.058 122.589C156.718 122.219 156.473 121.869 156.323 121.539C156.173 121.199 156.098 120.834 156.098 120.444C156.098 119.774 156.333 119.224 156.803 118.794C157.283 118.354 157.938 118.134 158.768 118.134C159.308 118.134 159.778 118.239 160.178 118.449C160.578 118.649 160.888 118.929 161.108 119.289C161.328 119.649 161.428 120.059 161.408 120.519H160.163C160.173 120.069 160.033 119.729 159.743 119.499C159.463 119.269 159.138 119.154 158.768 119.154C158.318 119.154 157.968 119.274 157.718 119.514C157.468 119.754 157.343 120.059 157.343 120.429C157.343 120.749 157.428 121.059 157.598 121.359C157.778 121.659 158.043 121.994 158.393 122.364L161.708 125.709C161.998 125.289 162.313 124.784 162.653 124.194L163.118 123.384H164.453L163.793 124.554C163.353 125.344 162.933 126.004 162.533 126.534L164.798 128.814H163.208L161.813 127.404C161.283 127.974 160.733 128.384 160.163 128.634C159.593 128.874 158.958 128.994 158.258 128.994ZM155.888 125.754C155.888 126.374 156.108 126.889 156.548 127.299C156.988 127.709 157.563 127.914 158.273 127.914C158.803 127.914 159.283 127.814 159.713 127.614C160.153 127.404 160.583 127.064 161.003 126.594L157.823 123.369C157.163 123.629 156.673 123.959 156.353 124.359C156.043 124.759 155.888 125.224 155.888 125.754ZM75.1329 148.814L72.9579 141.374H74.2179L75.7929 147.209L77.5329 141.374H78.9579L80.7129 147.209L82.2729 141.374H83.5479L81.3729 148.814H80.0829L78.2529 142.679L76.4229 148.814H75.1329ZM88.0532 148.994C87.3532 148.994 86.7232 148.834 86.1632 148.514C85.6032 148.194 85.1582 147.744 84.8282 147.164C84.5082 146.574 84.3482 145.884 84.3482 145.094C84.3482 144.304 84.5132 143.619 84.8432 143.039C85.1732 142.449 85.6182 141.994 86.1782 141.674C86.7482 141.354 87.3832 141.194 88.0832 141.194C88.7832 141.194 89.4132 141.354 89.9732 141.674C90.5332 141.994 90.9732 142.449 91.2932 143.039C91.6232 143.619 91.7882 144.304 91.7882 145.094C91.7882 145.884 91.6232 146.574 91.2932 147.164C90.9632 147.744 90.5132 148.194 89.9432 148.514C89.3832 148.834 88.7532 148.994 88.0532 148.994ZM88.0532 147.914C88.4832 147.914 88.8832 147.809 89.2532 147.599C89.6232 147.389 89.9232 147.074 90.1532 146.654C90.3832 146.234 90.4982 145.714 90.4982 145.094C90.4982 144.474 90.3832 143.954 90.1532 143.534C89.9332 143.114 89.6382 142.799 89.2682 142.589C88.8982 142.379 88.5032 142.274 88.0832 142.274C87.6532 142.274 87.2532 142.379 86.8832 142.589C86.5132 142.799 86.2132 143.114 85.9832 143.534C85.7532 143.954 85.6382 144.474 85.6382 145.094C85.6382 145.714 85.7532 146.234 85.9832 146.654C86.2132 147.074 86.5082 147.389 86.8682 147.599C87.2382 147.809 87.6332 147.914 88.0532 147.914ZM93.5402 148.814V141.374H94.6802L94.7552 142.709C94.9952 142.239 95.3402 141.869 95.7902 141.599C96.2402 141.329 96.7502 141.194 97.3202 141.194C98.2002 141.194 98.9002 141.464 99.4202 142.004C99.9502 142.534 100.215 143.354 100.215 144.464V148.814H98.9552V144.599C98.9552 143.049 98.3152 142.274 97.0352 142.274C96.3952 142.274 95.8602 142.509 95.4302 142.979C95.0102 143.439 94.8002 144.099 94.8002 144.959V148.814H93.5402ZM105.499 148.994C104.759 148.994 104.109 148.824 103.549 148.484C102.999 148.144 102.569 147.679 102.259 147.089C101.959 146.499 101.809 145.829 101.809 145.079C101.809 144.329 101.964 143.664 102.274 143.084C102.584 142.494 103.014 142.034 103.564 141.704C104.114 141.364 104.764 141.194 105.514 141.194C106.124 141.194 106.664 141.319 107.134 141.569C107.604 141.819 107.969 142.169 108.229 142.619V138.014H109.489V148.814H108.349L108.229 147.584C107.989 147.944 107.644 148.269 107.194 148.559C106.744 148.849 106.179 148.994 105.499 148.994ZM105.634 147.899C106.134 147.899 106.574 147.784 106.954 147.554C107.344 147.314 107.644 146.984 107.854 146.564C108.074 146.144 108.184 145.654 108.184 145.094C108.184 144.534 108.074 144.044 107.854 143.624C107.644 143.204 107.344 142.879 106.954 142.649C106.574 142.409 106.134 142.289 105.634 142.289C105.144 142.289 104.704 142.409 104.314 142.649C103.934 142.879 103.634 143.204 103.414 143.624C103.204 144.044 103.099 144.534 103.099 145.094C103.099 145.654 103.204 146.144 103.414 146.564C103.634 146.984 103.934 147.314 104.314 147.554C104.704 147.784 105.144 147.899 105.634 147.899ZM114.888 148.994C114.178 148.994 113.548 148.834 112.998 148.514C112.448 148.184 112.013 147.729 111.693 147.149C111.383 146.569 111.228 145.884 111.228 145.094C111.228 144.314 111.383 143.634 111.693 143.054C112.003 142.464 112.433 142.009 112.983 141.689C113.543 141.359 114.188 141.194 114.918 141.194C115.638 141.194 116.258 141.359 116.778 141.689C117.308 142.009 117.713 142.434 117.993 142.964C118.273 143.494 118.413 144.064 118.413 144.674C118.413 144.784 118.408 144.894 118.398 145.004C118.398 145.114 118.398 145.239 118.398 145.379H112.473C112.503 145.949 112.633 146.424 112.863 146.804C113.103 147.174 113.398 147.454 113.748 147.644C114.108 147.834 114.488 147.929 114.888 147.929C115.408 147.929 115.843 147.809 116.193 147.569C116.543 147.329 116.798 147.004 116.958 146.594H118.203C118.003 147.284 117.618 147.859 117.048 148.319C116.488 148.769 115.768 148.994 114.888 148.994ZM114.888 142.259C114.288 142.259 113.753 142.444 113.283 142.814C112.823 143.174 112.558 143.704 112.488 144.404H117.168C117.138 143.734 116.908 143.209 116.478 142.829C116.048 142.449 115.518 142.259 114.888 142.259ZM120.083 148.814V141.374H121.223L121.328 142.799C121.558 142.309 121.908 141.919 122.378 141.629C122.848 141.339 123.428 141.194 124.118 141.194V142.514H123.773C123.333 142.514 122.928 142.594 122.558 142.754C122.188 142.904 121.893 143.164 121.673 143.534C121.453 143.904 121.343 144.414 121.343 145.064V148.814H120.083ZM125.937 148.814V142.439H124.812V141.374H125.937V140.084C125.937 139.364 126.117 138.839 126.477 138.509C126.837 138.179 127.362 138.014 128.052 138.014H128.802V139.094H128.247C127.867 139.094 127.597 139.174 127.437 139.334C127.277 139.484 127.197 139.744 127.197 140.114V141.374H129.027V142.439H127.197V148.814H125.937ZM133.242 148.994C132.362 148.994 131.662 148.729 131.142 148.199C130.622 147.659 130.362 146.834 130.362 145.724V141.374H131.622V145.589C131.622 147.139 132.257 147.914 133.527 147.914C134.177 147.914 134.712 147.684 135.132 147.224C135.562 146.754 135.777 146.089 135.777 145.229V141.374H137.037V148.814H135.897L135.807 147.479C135.577 147.949 135.232 148.319 134.772 148.589C134.322 148.859 133.812 148.994 133.242 148.994ZM139.111 148.814V138.014H140.371V148.814H139.111ZM62.9245 168.994C62.2145 168.994 61.5745 168.834 61.0045 168.514C60.4445 168.184 59.9995 167.729 59.6695 167.149C59.3495 166.559 59.1895 165.874 59.1895 165.094C59.1895 164.314 59.3495 163.634 59.6695 163.054C59.9995 162.464 60.4445 162.009 61.0045 161.689C61.5745 161.359 62.2145 161.194 62.9245 161.194C63.8045 161.194 64.5445 161.424 65.1445 161.884C65.7545 162.344 66.1395 162.959 66.2995 163.729H65.0095C64.9095 163.269 64.6645 162.914 64.2745 162.664C63.8845 162.404 63.4295 162.274 62.9095 162.274C62.4895 162.274 62.0945 162.379 61.7245 162.589C61.3545 162.799 61.0545 163.114 60.8245 163.534C60.5945 163.954 60.4795 164.474 60.4795 165.094C60.4795 165.714 60.5945 166.234 60.8245 166.654C61.0545 167.074 61.3545 167.394 61.7245 167.614C62.0945 167.824 62.4895 167.929 62.9095 167.929C63.4295 167.929 63.8845 167.804 64.2745 167.554C64.6645 167.294 64.9095 166.929 65.0095 166.459H66.2995C66.1495 167.209 65.7695 167.819 65.1595 168.289C64.5495 168.759 63.8045 168.994 62.9245 168.994ZM71.4492 168.994C70.7492 168.994 70.1192 168.834 69.5592 168.514C68.9992 168.194 68.5542 167.744 68.2242 167.164C67.9042 166.574 67.7442 165.884 67.7442 165.094C67.7442 164.304 67.9092 163.619 68.2392 163.039C68.5692 162.449 69.0142 161.994 69.5742 161.674C70.1442 161.354 70.7792 161.194 71.4792 161.194C72.1792 161.194 72.8092 161.354 73.3692 161.674C73.9292 161.994 74.3692 162.449 74.6892 163.039C75.0192 163.619 75.1842 164.304 75.1842 165.094C75.1842 165.884 75.0192 166.574 74.6892 167.164C74.3592 167.744 73.9092 168.194 73.3392 168.514C72.7792 168.834 72.1492 168.994 71.4492 168.994ZM71.4492 167.914C71.8792 167.914 72.2792 167.809 72.6492 167.599C73.0192 167.389 73.3192 167.074 73.5492 166.654C73.7792 166.234 73.8942 165.714 73.8942 165.094C73.8942 164.474 73.7792 163.954 73.5492 163.534C73.3292 163.114 73.0342 162.799 72.6642 162.589C72.2942 162.379 71.8992 162.274 71.4792 162.274C71.0492 162.274 70.6492 162.379 70.2792 162.589C69.9092 162.799 69.6092 163.114 69.3792 163.534C69.1492 163.954 69.0342 164.474 69.0342 165.094C69.0342 165.714 69.1492 166.234 69.3792 166.654C69.6092 167.074 69.9042 167.389 70.2642 167.599C70.6342 167.809 71.0292 167.914 71.4492 167.914ZM76.9362 168.814V161.374H78.0762L78.1512 162.709C78.3912 162.239 78.7362 161.869 79.1862 161.599C79.6362 161.329 80.1462 161.194 80.7162 161.194C81.5962 161.194 82.2962 161.464 82.8162 162.004C83.3462 162.534 83.6112 163.354 83.6112 164.464V168.814H82.3512V164.599C82.3512 163.049 81.7112 162.274 80.4312 162.274C79.7912 162.274 79.2562 162.509 78.8262 162.979C78.4062 163.439 78.1962 164.099 78.1962 164.959V168.814H76.9362ZM87.5187 168.814L84.6987 161.374H86.0187L88.2537 167.599L90.5037 161.374H91.7937L88.9737 168.814H87.5187ZM96.1601 168.994C95.4501 168.994 94.8201 168.834 94.2701 168.514C93.7201 168.184 93.2851 167.729 92.9651 167.149C92.6551 166.569 92.5001 165.884 92.5001 165.094C92.5001 164.314 92.6551 163.634 92.9651 163.054C93.2751 162.464 93.7051 162.009 94.2551 161.689C94.8151 161.359 95.4601 161.194 96.1901 161.194C96.9101 161.194 97.5301 161.359 98.0501 161.689C98.5801 162.009 98.9851 162.434 99.2651 162.964C99.5451 163.494 99.6851 164.064 99.6851 164.674C99.6851 164.784 99.6801 164.894 99.6701 165.004C99.6701 165.114 99.6701 165.239 99.6701 165.379H93.7451C93.7751 165.949 93.9051 166.424 94.1351 166.804C94.3751 167.174 94.6701 167.454 95.0201 167.644C95.3801 167.834 95.7601 167.929 96.1601 167.929C96.6801 167.929 97.1151 167.809 97.4651 167.569C97.8151 167.329 98.0701 167.004 98.2301 166.594H99.4751C99.2751 167.284 98.8901 167.859 98.3201 168.319C97.7601 168.769 97.0401 168.994 96.1601 168.994ZM96.1601 162.259C95.5601 162.259 95.0251 162.444 94.5551 162.814C94.0951 163.174 93.8301 163.704 93.7601 164.404H98.4401C98.4101 163.734 98.1801 163.209 97.7501 162.829C97.3201 162.449 96.7901 162.259 96.1601 162.259ZM101.355 168.814V161.374H102.495L102.6 162.799C102.83 162.309 103.18 161.919 103.65 161.629C104.12 161.339 104.7 161.194 105.39 161.194V162.514H105.045C104.605 162.514 104.2 162.594 103.83 162.754C103.46 162.904 103.165 163.164 102.945 163.534C102.725 163.904 102.615 164.414 102.615 165.064V168.814H101.355ZM109.654 168.994C108.764 168.994 108.024 168.769 107.434 168.319C106.844 167.869 106.499 167.259 106.399 166.489H107.689C107.769 166.879 107.974 167.219 108.304 167.509C108.644 167.789 109.099 167.929 109.669 167.929C110.199 167.929 110.589 167.819 110.839 167.599C111.089 167.369 111.214 167.099 111.214 166.789C111.214 166.339 111.049 166.039 110.719 165.889C110.399 165.739 109.944 165.604 109.354 165.484C108.954 165.404 108.554 165.289 108.154 165.139C107.754 164.989 107.419 164.779 107.149 164.509C106.879 164.229 106.744 163.864 106.744 163.414C106.744 162.764 106.984 162.234 107.464 161.824C107.954 161.404 108.614 161.194 109.444 161.194C110.234 161.194 110.879 161.394 111.379 161.794C111.889 162.184 112.184 162.744 112.264 163.474H111.019C110.969 163.094 110.804 162.799 110.524 162.589C110.254 162.369 109.889 162.259 109.429 162.259C108.979 162.259 108.629 162.354 108.379 162.544C108.139 162.734 108.019 162.984 108.019 163.294C108.019 163.594 108.174 163.829 108.484 163.999C108.804 164.169 109.234 164.314 109.774 164.434C110.234 164.534 110.669 164.659 111.079 164.809C111.499 164.949 111.839 165.164 112.099 165.454C112.369 165.734 112.504 166.144 112.504 166.684C112.514 167.354 112.259 167.909 111.739 168.349C111.229 168.779 110.534 168.994 109.654 168.994ZM116.779 168.994C116.159 168.994 115.644 168.889 115.234 168.679C114.824 168.469 114.519 168.189 114.319 167.839C114.119 167.489 114.019 167.109 114.019 166.699C114.019 165.939 114.309 165.354 114.889 164.944C115.469 164.534 116.259 164.329 117.259 164.329H119.269V164.239C119.269 163.589 119.099 163.099 118.759 162.769C118.419 162.429 117.964 162.259 117.394 162.259C116.904 162.259 116.479 162.384 116.119 162.634C115.769 162.874 115.549 163.229 115.459 163.699H114.169C114.219 163.159 114.399 162.704 114.709 162.334C115.029 161.964 115.424 161.684 115.894 161.494C116.364 161.294 116.864 161.194 117.394 161.194C118.434 161.194 119.214 161.474 119.734 162.034C120.264 162.584 120.529 163.319 120.529 164.239V168.814H119.404L119.329 167.479C119.119 167.899 118.809 168.259 118.399 168.559C117.999 168.849 117.459 168.994 116.779 168.994ZM116.974 167.929C117.454 167.929 117.864 167.804 118.204 167.554C118.554 167.304 118.819 166.979 118.999 166.579C119.179 166.179 119.269 165.759 119.269 165.319V165.304H117.364C116.624 165.304 116.099 165.434 115.789 165.694C115.489 165.944 115.339 166.259 115.339 166.639C115.339 167.029 115.479 167.344 115.759 167.584C116.049 167.814 116.454 167.929 116.974 167.929ZM125.154 168.814C124.474 168.814 123.939 168.649 123.549 168.319C123.159 167.989 122.964 167.394 122.964 166.534V162.439H121.674V161.374H122.964L123.129 159.589H124.224V161.374H126.414V162.439H124.224V166.534C124.224 167.004 124.319 167.324 124.509 167.494C124.699 167.654 125.034 167.734 125.514 167.734H126.294V168.814H125.154ZM128.78 159.724C128.53 159.724 128.32 159.644 128.15 159.484C127.99 159.314 127.91 159.104 127.91 158.854C127.91 158.614 127.99 158.414 128.15 158.254C128.32 158.094 128.53 158.014 128.78 158.014C129.02 158.014 129.225 158.094 129.395 158.254C129.565 158.414 129.65 158.614 129.65 158.854C129.65 159.104 129.565 159.314 129.395 159.484C129.225 159.644 129.02 159.724 128.78 159.724ZM128.15 168.814V161.374H129.41V168.814H128.15ZM134.994 168.994C134.294 168.994 133.664 168.834 133.104 168.514C132.544 168.194 132.099 167.744 131.769 167.164C131.449 166.574 131.289 165.884 131.289 165.094C131.289 164.304 131.454 163.619 131.784 163.039C132.114 162.449 132.559 161.994 133.119 161.674C133.689 161.354 134.324 161.194 135.024 161.194C135.724 161.194 136.354 161.354 136.914 161.674C137.474 161.994 137.914 162.449 138.234 163.039C138.564 163.619 138.729 164.304 138.729 165.094C138.729 165.884 138.564 166.574 138.234 167.164C137.904 167.744 137.454 168.194 136.884 168.514C136.324 168.834 135.694 168.994 134.994 168.994ZM134.994 167.914C135.424 167.914 135.824 167.809 136.194 167.599C136.564 167.389 136.864 167.074 137.094 166.654C137.324 166.234 137.439 165.714 137.439 165.094C137.439 164.474 137.324 163.954 137.094 163.534C136.874 163.114 136.579 162.799 136.209 162.589C135.839 162.379 135.444 162.274 135.024 162.274C134.594 162.274 134.194 162.379 133.824 162.589C133.454 162.799 133.154 163.114 132.924 163.534C132.694 163.954 132.579 164.474 132.579 165.094C132.579 165.714 132.694 166.234 132.924 166.654C133.154 167.074 133.449 167.389 133.809 167.599C134.179 167.809 134.574 167.914 134.994 167.914ZM140.481 168.814V161.374H141.621L141.696 162.709C141.936 162.239 142.281 161.869 142.731 161.599C143.181 161.329 143.691 161.194 144.261 161.194C145.141 161.194 145.841 161.464 146.361 162.004C146.891 162.534 147.156 163.354 147.156 164.464V168.814H145.896V164.599C145.896 163.049 145.256 162.274 143.976 162.274C143.336 162.274 142.801 162.509 142.371 162.979C141.951 163.439 141.741 164.099 141.741 164.959V168.814H140.481ZM151.915 168.994C151.025 168.994 150.285 168.769 149.695 168.319C149.105 167.869 148.76 167.259 148.66 166.489H149.95C150.03 166.879 150.235 167.219 150.565 167.509C150.905 167.789 151.36 167.929 151.93 167.929C152.46 167.929 152.85 167.819 153.1 167.599C153.35 167.369 153.475 167.099 153.475 166.789C153.475 166.339 153.31 166.039 152.98 165.889C152.66 165.739 152.205 165.604 151.615 165.484C151.215 165.404 150.815 165.289 150.415 165.139C150.015 164.989 149.68 164.779 149.41 164.509C149.14 164.229 149.005 163.864 149.005 163.414C149.005 162.764 149.245 162.234 149.725 161.824C150.215 161.404 150.875 161.194 151.705 161.194C152.495 161.194 153.14 161.394 153.64 161.794C154.15 162.184 154.445 162.744 154.525 163.474H153.28C153.23 163.094 153.065 162.799 152.785 162.589C152.515 162.369 152.15 162.259 151.69 162.259C151.24 162.259 150.89 162.354 150.64 162.544C150.4 162.734 150.28 162.984 150.28 163.294C150.28 163.594 150.435 163.829 150.745 163.999C151.065 164.169 151.495 164.314 152.035 164.434C152.495 164.534 152.93 164.659 153.34 164.809C153.76 164.949 154.1 165.164 154.36 165.454C154.63 165.734 154.765 166.144 154.765 166.684C154.775 167.354 154.52 167.909 154 168.349C153.49 168.779 152.795 168.994 151.915 168.994Z" fill="white"/>
<defs>
<filter id="filter0_d" x="0" y="18.5762" width="214" height="217.559" filterUnits="userSpaceOnUse" color-interpolation-filters="sRGB">
<feFlood flood-opacity="0" result="BackgroundImageFix"/>
<feColorMatrix in="SourceAlpha" type="matrix" values="0 0 0 0 0 0 0 0 0 0 0 0 0 0 0 0 0 0 127 0"/>
<feOffset dy="1"/>
<feGaussianBlur stdDeviation="1"/>
<feColorMatrix type="matrix" values="0 0 0 0 0.0588235 0 0 0 0 0.0588235 0 0 0 0 0.0588235 0 0 0 0.1 0"/>
<feBlend mode="normal" in2="BackgroundImageFix" result="effect1_dropShadow"/>
<feBlend mode="normal" in="SourceGraphic" in2="effect1_dropShadow" result="shape"/>
</filter>
</defs>
</svg>
