<svg width="214" height="237" viewBox="0 0 214 237" fill="none" xmlns="http://www.w3.org/2000/svg">
<g filter="url(#filter0_d)">
<rect x="2" y="19.5762" width="210" height="213.559" rx="20" fill="#E359D6"/>
</g>
<path d="M33.1445 10C33.1445 4.47715 37.6217 0 43.1445 0H170.856C176.379 0 180.856 4.47715 180.856 10V19.5763H33.1445V10Z" fill="#01BDD7"/>
<path d="M71.5715 14.7793V4.9793H73.3635V14.7793H71.5715ZM78.6229 14.9473C77.9136 14.9473 77.2883 14.7933 76.7469 14.4853C76.2056 14.1773 75.7763 13.748 75.4589 13.1973C75.1509 12.6466 74.9969 12.0166 74.9969 11.3073C74.9969 10.598 75.1509 9.96796 75.4589 9.4173C75.7763 8.86663 76.2056 8.4373 76.7469 8.1293C77.2883 7.8213 77.9136 7.6673 78.6229 7.6673C79.5096 7.6673 80.2563 7.90063 80.8629 8.3673C81.4696 8.82463 81.8569 9.4593 82.0249 10.2713H80.1349C80.0416 9.9353 79.8549 9.67396 79.5749 9.4873C79.3043 9.2913 78.9823 9.1933 78.6089 9.1933C78.1143 9.1933 77.6943 9.37996 77.3489 9.7533C77.0036 10.1266 76.8309 10.6446 76.8309 11.3073C76.8309 11.97 77.0036 12.488 77.3489 12.8613C77.6943 13.2346 78.1143 13.4213 78.6089 13.4213C78.9823 13.4213 79.3043 13.328 79.5749 13.1413C79.8549 12.9546 80.0416 12.6886 80.1349 12.3433H82.0249C81.8569 13.1273 81.4696 13.7573 80.8629 14.2333C80.2563 14.7093 79.5096 14.9473 78.6229 14.9473ZM86.9895 14.9473C86.2895 14.9473 85.6688 14.798 85.1275 14.4993C84.5861 14.2006 84.1615 13.7806 83.8535 13.2393C83.5455 12.698 83.3915 12.0726 83.3915 11.3633C83.3915 10.6446 83.5408 10.0053 83.8395 9.4453C84.1475 8.8853 84.5675 8.4513 85.0995 8.1433C85.6408 7.82596 86.2755 7.6673 87.0035 7.6673C87.6848 7.6673 88.2868 7.81663 88.8095 8.1153C89.3321 8.41396 89.7381 8.82463 90.0275 9.3473C90.3261 9.86063 90.4755 10.4346 90.4755 11.0693C90.4755 11.172 90.4708 11.2793 90.4615 11.3913C90.4615 11.5033 90.4568 11.62 90.4475 11.7413H85.1695C85.2068 12.2826 85.3935 12.7073 85.7295 13.0153C86.0748 13.3233 86.4901 13.4773 86.9755 13.4773C87.3395 13.4773 87.6428 13.398 87.8855 13.2393C88.1375 13.0713 88.3241 12.8566 88.4455 12.5953H90.2655C90.1348 13.034 89.9155 13.4353 89.6075 13.7993C89.3088 14.154 88.9355 14.434 88.4875 14.6393C88.0488 14.8446 87.5495 14.9473 86.9895 14.9473ZM87.0035 9.1233C86.5648 9.1233 86.1775 9.2493 85.8415 9.5013C85.5055 9.74396 85.2908 10.1173 85.1975 10.6213H88.6555C88.6275 10.164 88.4595 9.79996 88.1515 9.5293C87.8435 9.25863 87.4608 9.1233 87.0035 9.1233ZM96.0986 14.9473C95.576 14.9473 95.1186 14.8493 94.7266 14.6533C94.3346 14.4573 94.0173 14.182 93.7746 13.8273L93.5786 14.7793H91.9826V4.6993H93.7746V8.8293C93.9986 8.5213 94.2926 8.25063 94.6566 8.0173C95.03 7.78396 95.5106 7.6673 96.0986 7.6673C96.752 7.6673 97.3353 7.82596 97.8486 8.1433C98.362 8.46063 98.768 8.89463 99.0666 9.4453C99.3653 9.99596 99.5146 10.6213 99.5146 11.3213C99.5146 12.0213 99.3653 12.6466 99.0666 13.1973C98.768 13.7386 98.362 14.168 97.8486 14.4853C97.3353 14.7933 96.752 14.9473 96.0986 14.9473ZM95.7206 13.3793C96.29 13.3793 96.7613 13.188 97.1346 12.8053C97.508 12.4226 97.6946 11.928 97.6946 11.3213C97.6946 10.7146 97.508 10.2153 97.1346 9.8233C96.7613 9.4313 96.29 9.2353 95.7206 9.2353C95.142 9.2353 94.666 9.4313 94.2926 9.8233C93.9286 10.206 93.7466 10.7006 93.7466 11.3073C93.7466 11.914 93.9286 12.4133 94.2926 12.8053C94.666 13.188 95.142 13.3793 95.7206 13.3793ZM101.115 14.7793V7.8353H102.711L102.879 9.1373C103.131 8.6893 103.472 8.33463 103.901 8.0733C104.34 7.80263 104.853 7.6673 105.441 7.6673V9.5573H104.937C104.545 9.5573 104.195 9.61796 103.887 9.7393C103.579 9.86063 103.337 10.0706 103.159 10.3693C102.991 10.668 102.907 11.0833 102.907 11.6153V14.7793H101.115ZM109.917 14.9473C109.217 14.9473 108.597 14.798 108.055 14.4993C107.514 14.2006 107.089 13.7806 106.781 13.2393C106.473 12.698 106.319 12.0726 106.319 11.3633C106.319 10.6446 106.469 10.0053 106.767 9.4453C107.075 8.8853 107.495 8.4513 108.027 8.1433C108.569 7.82596 109.203 7.6673 109.931 7.6673C110.613 7.6673 111.215 7.81663 111.737 8.1153C112.26 8.41396 112.666 8.82463 112.955 9.3473C113.254 9.86063 113.403 10.4346 113.403 11.0693C113.403 11.172 113.399 11.2793 113.389 11.3913C113.389 11.5033 113.385 11.62 113.375 11.7413H108.097C108.135 12.2826 108.321 12.7073 108.657 13.0153C109.003 13.3233 109.418 13.4773 109.903 13.4773C110.267 13.4773 110.571 13.398 110.813 13.2393C111.065 13.0713 111.252 12.8566 111.373 12.5953H113.193C113.063 13.034 112.843 13.4353 112.535 13.7993C112.237 14.154 111.863 14.434 111.415 14.6393C110.977 14.8446 110.477 14.9473 109.917 14.9473ZM109.931 9.1233C109.493 9.1233 109.105 9.2493 108.769 9.5013C108.433 9.74396 108.219 10.1173 108.125 10.6213H111.583C111.555 10.164 111.387 9.79996 111.079 9.5293C110.771 9.25863 110.389 9.1233 109.931 9.1233ZM117.304 14.9473C116.707 14.9473 116.217 14.854 115.834 14.6673C115.452 14.4713 115.167 14.2146 114.98 13.8973C114.794 13.58 114.7 13.23 114.7 12.8473C114.7 12.2033 114.952 11.6806 115.456 11.2793C115.96 10.878 116.716 10.6773 117.724 10.6773H119.488V10.5093C119.488 10.0333 119.353 9.6833 119.082 9.4593C118.812 9.2353 118.476 9.1233 118.074 9.1233C117.71 9.1233 117.393 9.21196 117.122 9.3893C116.852 9.5573 116.684 9.8093 116.618 10.1453H114.868C114.915 9.6413 115.083 9.20263 115.372 8.8293C115.671 8.45596 116.054 8.1713 116.52 7.9753C116.987 7.76996 117.51 7.6673 118.088 7.6673C119.078 7.6673 119.857 7.91463 120.426 8.4093C120.996 8.90396 121.28 9.60396 121.28 10.5093V14.7793H119.754L119.586 13.6593C119.381 14.0326 119.092 14.3406 118.718 14.5833C118.354 14.826 117.883 14.9473 117.304 14.9473ZM117.71 13.5473C118.224 13.5473 118.62 13.3793 118.9 13.0433C119.19 12.7073 119.372 12.292 119.446 11.7973H117.92C117.444 11.7973 117.104 11.886 116.898 12.0633C116.693 12.2313 116.59 12.4413 116.59 12.6933C116.59 12.964 116.693 13.174 116.898 13.3233C117.104 13.4726 117.374 13.5473 117.71 13.5473ZM122.99 14.7793V4.6993H124.782V10.6493L127.246 7.8353H129.374L126.532 10.9993L129.836 14.7793H127.596L124.782 11.2933V14.7793H122.99ZM133.747 14.9473C133.047 14.9473 132.427 14.798 131.885 14.4993C131.344 14.2006 130.919 13.7806 130.611 13.2393C130.303 12.698 130.149 12.0726 130.149 11.3633C130.149 10.6446 130.299 10.0053 130.597 9.4453C130.905 8.8853 131.325 8.4513 131.857 8.1433C132.399 7.82596 133.033 7.6673 133.761 7.6673C134.443 7.6673 135.045 7.81663 135.567 8.1153C136.09 8.41396 136.496 8.82463 136.785 9.3473C137.084 9.86063 137.233 10.4346 137.233 11.0693C137.233 11.172 137.229 11.2793 137.219 11.3913C137.219 11.5033 137.215 11.62 137.205 11.7413H131.927C131.965 12.2826 132.151 12.7073 132.487 13.0153C132.833 13.3233 133.248 13.4773 133.733 13.4773C134.097 13.4773 134.401 13.398 134.643 13.2393C134.895 13.0713 135.082 12.8566 135.203 12.5953H137.023C136.893 13.034 136.673 13.4353 136.365 13.7993C136.067 14.154 135.693 14.434 135.245 14.6393C134.807 14.8446 134.307 14.9473 133.747 14.9473ZM133.761 9.1233C133.323 9.1233 132.935 9.2493 132.599 9.5013C132.263 9.74396 132.049 10.1173 131.955 10.6213H135.413C135.385 10.164 135.217 9.79996 134.909 9.5293C134.601 9.25863 134.219 9.1233 133.761 9.1233ZM138.74 14.7793V7.8353H140.336L140.504 9.1373C140.756 8.6893 141.097 8.33463 141.526 8.0733C141.965 7.80263 142.478 7.6673 143.066 7.6673V9.5573H142.562C142.17 9.5573 141.82 9.61796 141.512 9.7393C141.204 9.86063 140.962 10.0706 140.784 10.3693C140.616 10.668 140.532 11.0833 140.532 11.6153V14.7793H138.74Z" fill="white"/>
<path d="M38.3839 61.216C37.1239 61.216 36.0199 60.94 35.0719 60.388C34.1359 59.836 33.3979 59.074 32.8579 58.102C32.3299 57.118 32.0659 55.984 32.0659 54.7C32.0659 53.416 32.3299 52.288 32.8579 51.316C33.3979 50.332 34.1359 49.564 35.0719 49.012C36.0199 48.46 37.1239 48.184 38.3839 48.184C39.6319 48.184 40.7299 48.46 41.6779 49.012C42.6259 49.564 43.3639 50.332 43.8919 51.316C44.4199 52.288 44.6839 53.416 44.6839 54.7C44.6839 55.9 44.4499 56.974 43.9819 57.922C43.5139 58.858 42.8659 59.602 42.0379 60.154L44.9539 63.286H42.0919L40.1119 61.018C39.5599 61.15 38.9839 61.216 38.3839 61.216ZM38.3839 59.146C39.5839 59.146 40.5379 58.75 41.2459 57.958C41.9659 57.166 42.3259 56.08 42.3259 54.7C42.3259 53.32 41.9659 52.234 41.2459 51.442C40.5379 50.65 39.5839 50.254 38.3839 50.254C37.1839 50.254 36.2239 50.65 35.5039 51.442C34.7839 52.234 34.4239 53.32 34.4239 54.7C34.4239 56.08 34.7839 57.166 35.5039 57.958C36.2239 58.75 37.1839 59.146 38.3839 59.146ZM50.1528 61.216C49.0368 61.216 48.1728 60.868 47.5608 60.172C46.9608 59.476 46.6608 58.456 46.6608 57.112V52.072H48.9468V56.896C48.9468 57.664 49.1028 58.252 49.4148 58.66C49.7268 59.068 50.2188 59.272 50.8908 59.272C51.5268 59.272 52.0488 59.044 52.4568 58.588C52.8768 58.132 53.0868 57.496 53.0868 56.68V52.072H55.3908V61H53.3568L53.1768 59.488C52.9008 60.016 52.4988 60.436 51.9708 60.748C51.4548 61.06 50.8488 61.216 50.1528 61.216ZM58.9979 50.686C58.5779 50.686 58.2299 50.56 57.9539 50.308C57.6899 50.056 57.5579 49.738 57.5579 49.354C57.5579 48.97 57.6899 48.658 57.9539 48.418C58.2299 48.166 58.5779 48.04 58.9979 48.04C59.4179 48.04 59.7599 48.166 60.0239 48.418C60.2999 48.658 60.4379 48.97 60.4379 49.354C60.4379 49.738 60.2999 50.056 60.0239 50.308C59.7599 50.56 59.4179 50.686 58.9979 50.686ZM57.8459 61V52.072H60.1499V61H57.8459ZM62.5548 61V52.072H64.6068L64.8228 53.746C65.1468 53.17 65.5848 52.714 66.1368 52.378C66.7008 52.03 67.3608 51.856 68.1168 51.856V54.286H67.4688C66.9648 54.286 66.5148 54.364 66.1188 54.52C65.7228 54.676 65.4108 54.946 65.1828 55.33C64.9668 55.714 64.8588 56.248 64.8588 56.932V61H62.5548ZM69.6915 61V48.04H71.9955V55.69L75.1635 52.072H77.8995L74.2455 56.14L78.4935 61H75.6135L71.9955 56.518V61H69.6915ZM81.038 64.96L83.108 60.406H82.568L79.094 52.072H81.596L84.098 58.354L86.708 52.072H89.156L83.486 64.96H81.038ZM100.909 61.216C99.6493 61.216 98.5453 60.94 97.5973 60.388C96.6613 59.836 95.9233 59.074 95.3833 58.102C94.8553 57.118 94.5913 55.984 94.5913 54.7C94.5913 53.416 94.8553 52.288 95.3833 51.316C95.9233 50.332 96.6613 49.564 97.5973 49.012C98.5453 48.46 99.6493 48.184 100.909 48.184C102.157 48.184 103.255 48.46 104.203 49.012C105.151 49.564 105.889 50.332 106.417 51.316C106.945 52.288 107.209 53.416 107.209 54.7C107.209 55.9 106.975 56.974 106.507 57.922C106.039 58.858 105.391 59.602 104.563 60.154L107.479 63.286H104.617L102.637 61.018C102.085 61.15 101.509 61.216 100.909 61.216ZM100.909 59.146C102.109 59.146 103.063 58.75 103.771 57.958C104.491 57.166 104.851 56.08 104.851 54.7C104.851 53.32 104.491 52.234 103.771 51.442C103.063 50.65 102.109 50.254 100.909 50.254C99.7093 50.254 98.7493 50.65 98.0293 51.442C97.3093 52.234 96.9493 53.32 96.9493 54.7C96.9493 56.08 97.3093 57.166 98.0293 57.958C98.7493 58.75 99.7093 59.146 100.909 59.146ZM112.678 61.216C111.562 61.216 110.698 60.868 110.086 60.172C109.486 59.476 109.186 58.456 109.186 57.112V52.072H111.472V56.896C111.472 57.664 111.628 58.252 111.94 58.66C112.252 59.068 112.744 59.272 113.416 59.272C114.052 59.272 114.574 59.044 114.982 58.588C115.402 58.132 115.612 57.496 115.612 56.68V52.072H117.916V61H115.882L115.702 59.488C115.426 60.016 115.024 60.436 114.496 60.748C113.98 61.06 113.374 61.216 112.678 61.216ZM124.619 61.216C123.719 61.216 122.921 61.024 122.225 60.64C121.529 60.256 120.983 59.716 120.587 59.02C120.191 58.324 119.993 57.52 119.993 56.608C119.993 55.684 120.185 54.862 120.569 54.142C120.965 53.422 121.505 52.864 122.189 52.468C122.885 52.06 123.701 51.856 124.637 51.856C125.513 51.856 126.287 52.048 126.959 52.432C127.631 52.816 128.153 53.344 128.525 54.016C128.909 54.676 129.101 55.414 129.101 56.23C129.101 56.362 129.095 56.5 129.083 56.644C129.083 56.788 129.077 56.938 129.065 57.094H122.279C122.327 57.79 122.567 58.336 122.999 58.732C123.443 59.128 123.977 59.326 124.601 59.326C125.069 59.326 125.459 59.224 125.771 59.02C126.095 58.804 126.335 58.528 126.491 58.192H128.831C128.663 58.756 128.381 59.272 127.985 59.74C127.601 60.196 127.121 60.556 126.545 60.82C125.981 61.084 125.339 61.216 124.619 61.216ZM124.637 53.728C124.073 53.728 123.575 53.89 123.143 54.214C122.711 54.526 122.435 55.006 122.315 55.654H126.761C126.725 55.066 126.509 54.598 126.113 54.25C125.717 53.902 125.225 53.728 124.637 53.728ZM134.729 61.216C133.937 61.216 133.241 61.09 132.641 60.838C132.041 60.574 131.561 60.214 131.201 59.758C130.841 59.302 130.625 58.774 130.553 58.174H132.875C132.947 58.522 133.139 58.822 133.451 59.074C133.775 59.314 134.189 59.434 134.693 59.434C135.197 59.434 135.563 59.332 135.791 59.128C136.031 58.924 136.151 58.69 136.151 58.426C136.151 58.042 135.983 57.784 135.647 57.652C135.311 57.508 134.843 57.37 134.243 57.238C133.859 57.154 133.469 57.052 133.073 56.932C132.677 56.812 132.311 56.662 131.975 56.482C131.651 56.29 131.387 56.05 131.183 55.762C130.979 55.462 130.877 55.096 130.877 54.664C130.877 53.872 131.189 53.206 131.813 52.666C132.449 52.126 133.337 51.856 134.477 51.856C135.533 51.856 136.373 52.102 136.997 52.594C137.633 53.086 138.011 53.764 138.131 54.628H135.953C135.821 53.968 135.323 53.638 134.459 53.638C134.027 53.638 133.691 53.722 133.451 53.89C133.223 54.058 133.109 54.268 133.109 54.52C133.109 54.784 133.283 54.994 133.631 55.15C133.979 55.306 134.441 55.45 135.017 55.582C135.641 55.726 136.211 55.888 136.727 56.068C137.255 56.236 137.675 56.494 137.987 56.842C138.299 57.178 138.455 57.664 138.455 58.3C138.467 58.852 138.323 59.35 138.023 59.794C137.723 60.238 137.291 60.586 136.727 60.838C136.163 61.09 135.497 61.216 134.729 61.216ZM144.193 61C143.257 61 142.507 60.772 141.943 60.316C141.379 59.86 141.097 59.05 141.097 57.886V53.998H139.567V52.072H141.097L141.367 49.678H143.401V52.072H145.813V53.998H143.401V57.904C143.401 58.336 143.491 58.636 143.671 58.804C143.863 58.96 144.187 59.038 144.643 59.038H145.759V61H144.193ZM149.033 50.686C148.613 50.686 148.265 50.56 147.989 50.308C147.725 50.056 147.593 49.738 147.593 49.354C147.593 48.97 147.725 48.658 147.989 48.418C148.265 48.166 148.613 48.04 149.033 48.04C149.453 48.04 149.795 48.166 150.059 48.418C150.335 48.658 150.473 48.97 150.473 49.354C150.473 49.738 150.335 50.056 150.059 50.308C149.795 50.56 149.453 50.686 149.033 50.686ZM147.881 61V52.072H150.185V61H147.881ZM156.874 61.216C156.01 61.216 155.23 61.018 154.534 60.622C153.85 60.226 153.304 59.68 152.896 58.984C152.5 58.276 152.302 57.46 152.302 56.536C152.302 55.612 152.506 54.802 152.914 54.106C153.322 53.398 153.868 52.846 154.552 52.45C155.248 52.054 156.028 51.856 156.892 51.856C157.744 51.856 158.512 52.054 159.196 52.45C159.892 52.846 160.438 53.398 160.834 54.106C161.242 54.802 161.446 55.612 161.446 56.536C161.446 57.46 161.242 58.276 160.834 58.984C160.438 59.68 159.892 60.226 159.196 60.622C158.5 61.018 157.726 61.216 156.874 61.216ZM156.874 59.218C157.474 59.218 157.996 58.996 158.44 58.552C158.884 58.096 159.106 57.424 159.106 56.536C159.106 55.648 158.884 54.982 158.44 54.538C157.996 54.082 157.48 53.854 156.892 53.854C156.28 53.854 155.752 54.082 155.308 54.538C154.876 54.982 154.66 55.648 154.66 56.536C154.66 57.424 154.876 58.096 155.308 58.552C155.752 58.996 156.274 59.218 156.874 59.218ZM163.506 61V52.072H165.54L165.72 53.584C165.996 53.056 166.392 52.636 166.908 52.324C167.436 52.012 168.054 51.856 168.762 51.856C169.866 51.856 170.724 52.204 171.336 52.9C171.948 53.596 172.254 54.616 172.254 55.96V61H169.95V56.176C169.95 55.408 169.794 54.82 169.482 54.412C169.17 54.004 168.684 53.8 168.024 53.8C167.376 53.8 166.842 54.028 166.422 54.484C166.014 54.94 165.81 55.576 165.81 56.392V61H163.506ZM178.147 61.216C177.355 61.216 176.659 61.09 176.059 60.838C175.459 60.574 174.979 60.214 174.619 59.758C174.259 59.302 174.043 58.774 173.971 58.174H176.293C176.365 58.522 176.557 58.822 176.869 59.074C177.193 59.314 177.607 59.434 178.111 59.434C178.615 59.434 178.981 59.332 179.209 59.128C179.449 58.924 179.569 58.69 179.569 58.426C179.569 58.042 179.401 57.784 179.065 57.652C178.729 57.508 178.261 57.37 177.661 57.238C177.277 57.154 176.887 57.052 176.491 56.932C176.095 56.812 175.729 56.662 175.393 56.482C175.069 56.29 174.805 56.05 174.601 55.762C174.397 55.462 174.295 55.096 174.295 54.664C174.295 53.872 174.607 53.206 175.231 52.666C175.867 52.126 176.755 51.856 177.895 51.856C178.951 51.856 179.791 52.102 180.415 52.594C181.051 53.086 181.429 53.764 181.549 54.628H179.371C179.239 53.968 178.741 53.638 177.877 53.638C177.445 53.638 177.109 53.722 176.869 53.89C176.641 54.058 176.527 54.268 176.527 54.52C176.527 54.784 176.701 54.994 177.049 55.15C177.397 55.306 177.859 55.45 178.435 55.582C179.059 55.726 179.629 55.888 180.145 56.068C180.673 56.236 181.093 56.494 181.405 56.842C181.717 57.178 181.873 57.664 181.873 58.3C181.885 58.852 181.741 59.35 181.441 59.794C181.141 60.238 180.709 60.586 180.145 60.838C179.581 61.09 178.915 61.216 178.147 61.216Z" fill="white"/>
<path d="M157.229 154.872C162.378 149.831 162.378 141.657 157.229 136.616C152.08 131.575 143.733 131.575 138.584 136.616C133.436 141.657 133.436 149.831 138.584 154.872C143.733 159.913 152.08 159.913 157.229 154.872Z" fill="#2F2E41"/>
<path d="M147.833 146.933C150.263 146.407 151.797 144.051 151.259 141.672C150.721 139.293 148.315 137.791 145.886 138.318C143.456 138.845 141.922 141.2 142.46 143.579C142.998 145.958 145.404 147.46 147.833 146.933Z" fill="white"/>
<path d="M145.36 142.923C146.17 142.748 146.681 141.962 146.502 141.169C146.322 140.376 145.521 139.876 144.711 140.051C143.901 140.227 143.389 141.012 143.569 141.805C143.748 142.598 144.55 143.099 145.36 142.923Z" fill="#3F3D56"/>
<path d="M147.385 137.019C141.993 137.009 138.208 136.066 138.217 131.283C138.226 126.5 142.604 122.631 147.996 122.641C153.388 122.65 157.751 126.536 157.742 131.319C157.733 136.101 152.776 137.029 147.385 137.019Z" fill="#FFE500"/>
<path d="M168.57 147.902C167.023 153.155 162.508 156.833 157.797 159.956C157.139 160.393 156.482 160.819 155.823 161.235C155.819 161.237 155.814 161.241 155.81 161.243C155.778 161.263 155.746 161.283 155.717 161.303C155.581 161.389 155.445 161.474 155.311 161.559L155.385 161.592C155.385 161.592 155.457 161.63 155.378 161.598C155.354 161.588 155.329 161.579 155.306 161.57C152.569 160.489 149.784 159.329 147.687 157.304C145.511 155.202 144.24 151.905 145.418 149.143C145.573 148.781 145.768 148.438 146.001 148.118C146.097 147.985 146.2 147.856 146.307 147.731C146.957 146.954 147.806 146.361 148.767 146.013C149.729 145.664 150.768 145.572 151.777 145.747C152.787 145.922 153.731 146.357 154.512 147.008C155.293 147.658 155.883 148.5 156.221 149.448C156.567 146.293 153.91 143.651 151.353 141.701C148.795 139.752 145.888 137.629 145.394 134.492C145.118 132.746 145.738 131.055 146.867 129.697C146.902 129.655 146.937 129.614 146.973 129.574C148.348 127.992 150.281 126.977 152.387 126.73C156.31 126.331 160.12 128.364 162.969 131.034C167.556 135.33 170.328 141.929 168.57 147.902Z" fill="#01AD5A"/>
<path d="M161.198 141.032C161.951 142.179 162.529 143.427 162.914 144.737C163.239 145.908 163.384 147.12 163.344 148.333C163.239 150.829 162.523 153.264 161.257 155.432C160.303 157.078 159.141 158.598 157.798 159.958C157.14 160.394 156.482 160.82 155.824 161.237C155.82 161.239 155.815 161.243 155.811 161.245C155.779 161.265 155.747 161.284 155.718 161.305C155.582 161.39 155.446 161.476 155.311 161.561C155.311 161.561 155.458 161.631 155.378 161.599C155.355 161.59 155.33 161.581 155.306 161.571C155.552 159.602 155.311 157.605 154.606 155.745C153.9 153.886 152.75 152.22 151.251 150.886C149.748 149.572 147.95 148.624 146.002 148.12C146.098 147.986 146.2 147.858 146.308 147.732C147.06 147.939 147.792 148.21 148.495 148.543C151.01 149.725 153.069 151.669 154.367 154.086C155.533 156.281 156.034 158.756 155.813 161.22C155.925 161.12 156.038 161.018 156.147 160.917C158.227 159.019 160.074 156.84 161.324 154.326C162.408 152.196 162.941 149.838 162.876 147.46C162.774 144.866 161.718 142.464 160.19 140.372C158.515 138.141 156.537 136.144 154.309 134.438C152.065 132.678 149.608 131.193 146.995 130.017C146.936 129.99 146.89 129.942 146.866 129.882C146.843 129.823 146.843 129.757 146.868 129.698C146.885 129.645 146.923 129.601 146.974 129.576C147 129.565 147.028 129.56 147.056 129.561C147.084 129.562 147.112 129.569 147.137 129.582C147.459 129.728 147.78 129.875 148.097 130.029C150.744 131.31 153.219 132.908 155.463 134.787C157.632 136.596 159.673 138.664 161.198 141.032Z" fill="white"/>
<path d="M61.0242 160.449C62.8676 160.449 64.3619 159.9 64.3619 159.224C64.3619 158.547 62.8676 157.998 61.0242 157.998C59.1809 157.998 57.6865 158.547 57.6865 159.224C57.6865 159.9 59.1809 160.449 61.0242 160.449Z" fill="#2F2E41"/>
<path d="M69.0311 160.285C70.8744 160.285 72.3688 159.736 72.3688 159.059C72.3688 158.383 70.8744 157.834 69.0311 157.834C67.1877 157.834 65.6934 158.383 65.6934 159.059C65.6934 159.736 67.1877 160.285 69.0311 160.285Z" fill="#2F2E41"/>
<path d="M79.6677 139.686C82.8217 137.905 84.9159 135.676 84.3451 134.707C83.7743 133.737 80.7547 134.395 77.6006 136.175C74.4465 137.955 72.3524 140.184 72.9232 141.154C73.494 142.123 76.5136 141.466 79.6677 139.686Z" fill="#2F2E41"/>
<path d="M76.7046 144.054C77.8709 137.016 72.99 130.386 65.8028 129.244C58.6155 128.102 51.8436 132.881 50.6773 139.918C49.5109 146.955 54.3919 153.586 61.5791 154.728C68.7663 155.87 75.5382 151.091 76.7046 144.054Z" fill="#2F2E41"/>
<path d="M61.6918 152.113H57.6865V159.14H61.6918V152.113Z" fill="#2F2E41"/>
<path d="M69.6986 152.113H65.6934V159.14H69.6986V152.113Z" fill="#2F2E41"/>
<path d="M64.0235 143.128C66.512 143.128 68.5294 141.153 68.5294 138.716C68.5294 136.28 66.512 134.305 64.0235 134.305C61.5349 134.305 59.5176 136.28 59.5176 138.716C59.5176 141.153 61.5349 143.128 64.0235 143.128Z" fill="white"/>
<path d="M64.0283 140.187C64.8578 140.187 65.5303 139.529 65.5303 138.717C65.5303 137.905 64.8578 137.246 64.0283 137.246C63.1988 137.246 62.5264 137.905 62.5264 138.717C62.5264 139.529 63.1988 140.187 64.0283 140.187Z" fill="#3F3D56"/>
<path d="M50.9039 129.98C49.8394 125.312 53.2423 120.595 58.5045 119.444C63.7667 118.294 68.8956 121.145 69.9601 125.813C71.0247 130.481 67.5372 132.203 62.2749 133.353C57.0127 134.504 51.9684 134.648 50.9039 129.98Z" fill="#01AD5A"/>
<path d="M54.7988 138.762C55.2886 137.75 53.019 135.692 49.7296 134.165C46.4402 132.637 43.3766 132.219 42.8868 133.23C42.397 134.241 44.6666 136.299 47.956 137.826C51.2454 139.354 54.309 139.773 54.7988 138.762Z" fill="#2F2E41"/>
<path d="M57.2188 146.641C57.2188 147.904 60.5412 150.399 64.2279 150.399C67.9146 150.399 71.3713 146.842 71.3713 145.579C71.3713 144.315 67.9146 145.824 64.2279 145.824C60.5412 145.824 57.2188 145.377 57.2188 146.641Z" fill="white"/>
<path d="M109.664 160.449C111.507 160.449 113.002 159.9 113.002 159.224C113.002 158.547 111.507 157.998 109.664 157.998C107.821 157.998 106.326 158.547 106.326 159.224C106.326 159.9 107.821 160.449 109.664 160.449Z" fill="#2F2E41"/>
<path d="M101.652 160.285C103.496 160.285 104.99 159.736 104.99 159.059C104.99 158.383 103.496 157.834 101.652 157.834C99.8088 157.834 98.3145 158.383 98.3145 159.059C98.3145 159.736 99.8088 160.285 101.652 160.285Z" fill="#2F2E41"/>
<path d="M97.765 141.155C98.3358 140.185 96.2417 137.956 93.0876 136.176C89.9335 134.395 86.9139 133.738 86.3431 134.707C85.7723 135.677 87.8664 137.906 91.0205 139.686C94.1746 141.467 97.1942 142.124 97.765 141.155Z" fill="#2F2E41"/>
<path d="M106.994 154.892C114.276 154.892 120.178 149.112 120.178 141.983C120.178 134.854 114.276 129.074 106.994 129.074C99.7132 129.074 93.8105 134.854 93.8105 141.983C93.8105 149.112 99.7132 154.892 106.994 154.892Z" fill="#2F2E41"/>
<path d="M113.002 152.113H108.997V159.14H113.002V152.113Z" fill="#2F2E41"/>
<path d="M104.991 152.113H100.985V159.14H104.991V152.113Z" fill="#2F2E41"/>
<path d="M103.905 143.128C106.394 143.128 108.411 141.153 108.411 138.716C108.411 136.28 106.394 134.305 103.905 134.305C101.417 134.305 99.3994 136.28 99.3994 138.716C99.3994 141.153 101.417 143.128 103.905 143.128Z" fill="white"/>
<path d="M102.819 139.153C103.407 138.577 103.411 137.646 102.827 137.074C102.243 136.502 101.293 136.505 100.704 137.081C100.116 137.656 100.112 138.587 100.696 139.159C101.28 139.731 102.23 139.728 102.819 139.153Z" fill="#3F3D56"/>
<path d="M108.413 133.353C103.15 132.203 99.663 130.481 100.728 125.813C101.792 121.145 106.921 118.294 112.183 119.444C117.445 120.595 120.848 125.312 119.784 129.98C118.719 134.648 113.675 134.504 108.413 133.353Z" fill="#FFE500"/>
<path d="M120.779 151.823C121.884 151.536 122.021 148.51 121.087 145.065C120.152 141.62 118.499 139.06 117.395 139.347C116.29 139.634 116.152 142.66 117.087 146.105C118.021 149.55 119.674 152.11 120.779 151.823Z" fill="#2F2E41"/>
<path d="M104.006 145.824C101.586 145.824 99.3164 144.315 99.3164 145.579C99.3164 146.842 101.586 150.399 104.006 150.399C106.427 150.399 108.608 147.904 108.608 146.641C108.608 145.377 106.427 145.824 104.006 145.824Z" fill="white"/>
<path d="M86.9701 120.582H85.7993C84.7505 120.58 83.7449 120.172 83.0033 119.446C82.2617 118.72 81.8445 117.735 81.8433 116.708V115.746C81.8433 113.362 82.3046 111.366 83.2144 109.813C84.317 108.007 85.6034 106.315 87.0538 104.762C88.0167 103.814 88.8905 102.783 89.6644 101.681C90.2197 100.826 90.5063 99.8291 90.4889 98.8153C90.4889 96.4241 88.8977 95.2616 85.6244 95.2616C83.8086 95.2817 82.0044 95.5468 80.2626 96.0495C79.5909 96.2373 78.8838 96.2698 78.1971 96.1446C77.5104 96.0193 76.8627 95.7397 76.3051 95.3278C75.7474 94.9159 75.295 94.3828 74.9835 93.7706C74.672 93.1585 74.5098 92.4838 74.5098 91.7999V89.8516C74.506 89.0129 74.7507 88.1911 75.2143 87.4859C75.6779 86.7806 76.3405 86.2222 77.1217 85.8783C80.1979 84.5929 83.5153 83.9539 86.8595 84.0026C90.3629 84.0026 93.5254 84.5788 96.2596 85.7149C98.9987 86.8537 101.163 88.4595 102.692 90.4878C104.216 92.5017 105.026 94.9483 104.999 97.4548C104.999 100.146 104.248 102.491 102.768 104.423C101.304 106.335 99.2054 108.428 96.5304 110.645C95.121 111.793 93.7855 113.025 92.5314 114.334C91.7214 115.188 91.1489 116.232 90.8688 117.364C90.7127 118.266 90.2354 119.083 89.5215 119.672C88.8077 120.262 87.9036 120.584 86.9701 120.582Z" fill="#FFE500"/>
<path d="M86.3176 138.797H86.1632C84.2195 138.796 82.3558 138.039 80.9818 136.693C79.6078 135.347 78.8359 133.522 78.8359 131.618C78.8359 129.715 79.6078 127.89 80.9818 126.544C82.3558 125.198 84.2195 124.441 86.1632 124.439H86.3176C87.2809 124.439 88.2348 124.624 89.1249 124.985C90.015 125.345 90.8238 125.874 91.5052 126.54C92.1865 127.207 92.727 127.999 93.0958 128.87C93.4645 129.741 93.6544 130.675 93.6544 131.618C93.6544 132.562 93.4645 133.495 93.0958 134.367C92.727 135.238 92.1865 136.03 91.5052 136.696C90.8238 137.363 90.015 137.892 89.1249 138.252C88.2348 138.613 87.2809 138.798 86.3176 138.797Z" fill="#FFE500"/>
<path d="M145.189 153.841C148.829 153.772 151.762 152.808 151.739 151.689C151.717 150.571 148.748 149.72 145.108 149.79C141.468 149.86 138.536 150.823 138.558 151.942C138.58 153.061 141.549 153.911 145.189 153.841Z" fill="#2F2E41"/>
<path d="M136.79 116.715C137.884 116.715 138.77 115.847 138.77 114.776C138.77 113.706 137.884 112.838 136.79 112.838C135.697 112.838 134.811 113.706 134.811 114.776C134.811 115.847 135.697 116.715 136.79 116.715Z" fill="#01AD5A"/>
<path d="M57.1984 109.822C58.2918 109.822 59.1781 108.954 59.1781 107.884C59.1781 106.813 58.2918 105.945 57.1984 105.945C56.1051 105.945 55.2188 106.813 55.2188 107.884C55.2188 108.954 56.1051 109.822 57.1984 109.822Z" fill="#01AD5A"/>
<path d="M169.142 128.617C170.235 128.617 171.121 127.749 171.121 126.679C171.121 125.608 170.235 124.74 169.142 124.74C168.048 124.74 167.162 125.608 167.162 126.679C167.162 127.749 168.048 128.617 169.142 128.617Z" fill="#01AD5A"/>
<defs>
<filter id="filter0_d" x="0" y="18.5762" width="214" height="217.559" filterUnits="userSpaceOnUse" color-interpolation-filters="sRGB">
<feFlood flood-opacity="0" result="BackgroundImageFix"/>
<feColorMatrix in="SourceAlpha" type="matrix" values="0 0 0 0 0 0 0 0 0 0 0 0 0 0 0 0 0 0 127 0"/>
<feOffset dy="1"/>
<feGaussianBlur stdDeviation="1"/>
<feColorMatrix type="matrix" values="0 0 0 0 0.0588235 0 0 0 0 0.0588235 0 0 0 0 0.0588235 0 0 0 0.1 0"/>
<feBlend mode="normal" in2="BackgroundImageFix" result="effect1_dropShadow"/>
<feBlend mode="normal" in="SourceGraphic" in2="effect1_dropShadow" result="shape"/>
</filter>
</defs>
</svg>
