<svg width="86" height="69" viewBox="0 0 86 69" fill="none" xmlns="http://www.w3.org/2000/svg">
<path d="M6.01763 64.192C5.19629 64.192 4.48163 64.0427 3.87363 63.744C3.26563 63.4453 2.79629 63.0293 2.46563 62.496C2.13496 61.9627 1.96963 61.344 1.96963 60.64H3.37762C3.37762 61.0773 3.47896 61.4827 3.68163 61.856C3.88429 62.2187 4.17763 62.512 4.56163 62.736C4.95629 62.9493 5.44163 63.056 6.01763 63.056C6.77496 63.056 7.36163 62.8747 7.77763 62.512C8.19363 62.1493 8.40163 61.696 8.40163 61.152C8.40163 60.704 8.30563 60.3467 8.11363 60.08C7.92163 59.8027 7.66029 59.5787 7.32963 59.408C7.00963 59.2373 6.63629 59.088 6.20963 58.96C5.79363 58.832 5.35629 58.688 4.89763 58.528C4.03363 58.2293 3.39363 57.8613 2.97763 57.424C2.56163 56.976 2.35363 56.3947 2.35363 55.68C2.34296 55.0827 2.48163 54.5547 2.76963 54.096C3.05763 53.6267 3.46296 53.264 3.98563 53.008C4.51896 52.7413 5.14829 52.608 5.87363 52.608C6.58829 52.608 7.20696 52.7413 7.72963 53.008C8.26296 53.2747 8.67363 53.6427 8.96163 54.112C9.26029 54.5813 9.41496 55.1147 9.42563 55.712H8.01763C8.01763 55.4027 7.93763 55.0987 7.77763 54.8C7.61763 54.4907 7.37229 54.24 7.04163 54.048C6.72163 53.856 6.31629 53.76 5.82563 53.76C5.21763 53.7493 4.71629 53.904 4.32163 54.224C3.93763 54.544 3.74563 54.9867 3.74563 55.552C3.74563 56.032 3.87896 56.4 4.14563 56.656C4.42296 56.912 4.80696 57.1253 5.29763 57.296C5.78829 57.456 6.35363 57.6427 6.99363 57.856C7.52696 58.048 8.00696 58.272 8.43363 58.528C8.86029 58.784 9.19096 59.1147 9.42563 59.52C9.67096 59.9253 9.79363 60.4427 9.79363 61.072C9.79363 61.6053 9.65496 62.112 9.37763 62.592C9.10029 63.0613 8.67896 63.4453 8.11363 63.744C7.55896 64.0427 6.86029 64.192 6.01763 64.192ZM14.7556 64C14.0303 64 13.4596 63.824 13.0436 63.472C12.6276 63.12 12.4196 62.4853 12.4196 61.568V57.2H11.0436V56.064H12.4196L12.5956 54.16H13.7636V56.064H16.0996V57.2H13.7636V61.568C13.7636 62.0693 13.865 62.4107 14.0676 62.592C14.2703 62.7627 14.6276 62.848 15.1396 62.848H15.9716V64H14.7556ZM20.4471 64.192C19.7858 64.192 19.2365 64.08 18.7991 63.856C18.3618 63.632 18.0365 63.3333 17.8231 62.96C17.6098 62.5867 17.5031 62.1813 17.5031 61.744C17.5031 60.9333 17.8125 60.3093 18.4311 59.872C19.0498 59.4347 19.8925 59.216 20.9591 59.216H23.1031V59.12C23.1031 58.4267 22.9218 57.904 22.5591 57.552C22.1965 57.1893 21.7111 57.008 21.1031 57.008C20.5805 57.008 20.1271 57.1413 19.7431 57.408C19.3698 57.664 19.1351 58.0427 19.0391 58.544H17.6631C17.7165 57.968 17.9085 57.4827 18.2391 57.088C18.5805 56.6933 19.0018 56.3947 19.5031 56.192C20.0045 55.9787 20.5378 55.872 21.1031 55.872C22.2125 55.872 23.0445 56.1707 23.5991 56.768C24.1645 57.3547 24.4471 58.1387 24.4471 59.12V64H23.2471L23.1671 62.576C22.9431 63.024 22.6125 63.408 22.1751 63.728C21.7485 64.0373 21.1725 64.192 20.4471 64.192ZM20.6551 63.056C21.1671 63.056 21.6045 62.9227 21.9671 62.656C22.3405 62.3893 22.6231 62.0427 22.8151 61.616C23.0071 61.1893 23.1031 60.7413 23.1031 60.272V60.256H21.0711C20.2818 60.256 19.7218 60.3947 19.3911 60.672C19.0711 60.9387 18.9111 61.2747 18.9111 61.68C18.9111 62.096 19.0605 62.432 19.3591 62.688C19.6685 62.9333 20.1005 63.056 20.6551 63.056ZM26.4634 64V56.064H27.6794L27.7914 57.584C28.0367 57.0613 28.41 56.6453 28.9114 56.336C29.4127 56.0267 30.0314 55.872 30.7674 55.872V57.28H30.3994C29.93 57.28 29.498 57.3653 29.1034 57.536C28.7087 57.696 28.394 57.9733 28.1594 58.368C27.9247 58.7627 27.8074 59.3067 27.8074 60V64H26.4634ZM35.4119 64C34.6865 64 34.1159 63.824 33.6999 63.472C33.2839 63.12 33.0759 62.4853 33.0759 61.568V57.2H31.6999V56.064H33.0759L33.2519 54.16H34.4199V56.064H36.7559V57.2H34.4199V61.568C34.4199 62.0693 34.5212 62.4107 34.7239 62.592C34.9265 62.7627 35.2839 62.848 35.7959 62.848H36.6279V64H35.4119ZM46.1538 64L41.9458 52.8H43.4018L46.9378 62.576L50.5058 52.8H51.9298L47.7218 64H46.1538ZM54.2013 54.304C53.9346 54.304 53.7106 54.2187 53.5293 54.048C53.3586 53.8667 53.2733 53.6427 53.2733 53.376C53.2733 53.12 53.3586 52.9067 53.5293 52.736C53.7106 52.5653 53.9346 52.48 54.2013 52.48C54.4573 52.48 54.6759 52.5653 54.8573 52.736C55.0386 52.9067 55.1293 53.12 55.1293 53.376C55.1293 53.6427 55.0386 53.8667 54.8573 54.048C54.6759 54.2187 54.4573 54.304 54.2013 54.304ZM53.5293 64V56.064H54.8733V64H53.5293ZM60.8134 64.192C60.024 64.192 59.3307 64.0107 58.7334 63.648C58.1467 63.2853 57.688 62.7893 57.3574 62.16C57.0374 61.5307 56.8774 60.816 56.8774 60.016C56.8774 59.216 57.0427 58.5067 57.3734 57.888C57.704 57.2587 58.1627 56.768 58.7494 56.416C59.336 56.0533 60.0294 55.872 60.8294 55.872C61.48 55.872 62.056 56.0053 62.5574 56.272C63.0587 56.5387 63.448 56.912 63.7254 57.392V52.48H65.0694V64H63.8534L63.7254 62.688C63.4694 63.072 63.1014 63.4187 62.6214 63.728C62.1414 64.0373 61.5387 64.192 60.8134 64.192ZM60.9574 63.024C61.4907 63.024 61.96 62.9013 62.3654 62.656C62.7814 62.4 63.1014 62.048 63.3254 61.6C63.56 61.152 63.6774 60.6293 63.6774 60.032C63.6774 59.4347 63.56 58.912 63.3254 58.464C63.1014 58.016 62.7814 57.6693 62.3654 57.424C61.96 57.168 61.4907 57.04 60.9574 57.04C60.4347 57.04 59.9654 57.168 59.5494 57.424C59.144 57.6693 58.824 58.016 58.5894 58.464C58.3654 58.912 58.2534 59.4347 58.2534 60.032C58.2534 60.6293 58.3654 61.152 58.5894 61.6C58.824 62.048 59.144 62.4 59.5494 62.656C59.9654 62.9013 60.4347 63.024 60.9574 63.024ZM70.8283 64.192C70.0709 64.192 69.3989 64.0213 68.8123 63.68C68.2256 63.328 67.7616 62.8427 67.4203 62.224C67.0896 61.6053 66.9243 60.8747 66.9243 60.032C66.9243 59.2 67.0896 58.4747 67.4203 57.856C67.7509 57.2267 68.2096 56.7413 68.7963 56.4C69.3936 56.048 70.0816 55.872 70.8602 55.872C71.6283 55.872 72.2896 56.048 72.8443 56.4C73.4096 56.7413 73.8416 57.1947 74.1403 57.76C74.4389 58.3253 74.5883 58.9333 74.5883 59.584C74.5883 59.7013 74.5829 59.8187 74.5723 59.936C74.5723 60.0533 74.5723 60.1867 74.5723 60.336H68.2523C68.2843 60.944 68.4229 61.4507 68.6683 61.856C68.9243 62.2507 69.2389 62.5493 69.6123 62.752C69.9963 62.9547 70.4016 63.056 70.8283 63.056C71.3829 63.056 71.8469 62.928 72.2203 62.672C72.5936 62.416 72.8656 62.0693 73.0363 61.632H74.3643C74.1509 62.368 73.7403 62.9813 73.1323 63.472C72.5349 63.952 71.7669 64.192 70.8283 64.192ZM70.8283 57.008C70.1883 57.008 69.6176 57.2053 69.1163 57.6C68.6256 57.984 68.3429 58.5493 68.2682 59.296H73.2603C73.2283 58.5813 72.9829 58.0213 72.5243 57.616C72.0656 57.2107 71.5003 57.008 70.8283 57.008ZM79.9856 64.192C79.239 64.192 78.567 64.0213 77.9696 63.68C77.3723 63.3387 76.8976 62.8587 76.5456 62.24C76.2043 61.6107 76.0336 60.8747 76.0336 60.032C76.0336 59.1893 76.2096 58.4587 76.5616 57.84C76.9136 57.2107 77.3883 56.7253 77.9856 56.384C78.5936 56.0427 79.271 55.872 80.0176 55.872C80.7643 55.872 81.4363 56.0427 82.0336 56.384C82.631 56.7253 83.1003 57.2107 83.4416 57.84C83.7936 58.4587 83.9696 59.1893 83.9696 60.032C83.9696 60.8747 83.7936 61.6107 83.4416 62.24C83.0896 62.8587 82.6096 63.3387 82.0016 63.68C81.4043 64.0213 80.7323 64.192 79.9856 64.192ZM79.9856 63.04C80.4443 63.04 80.871 62.928 81.2656 62.704C81.6603 62.48 81.9803 62.144 82.2256 61.696C82.471 61.248 82.5936 60.6933 82.5936 60.032C82.5936 59.3707 82.471 58.816 82.2256 58.368C81.991 57.92 81.6763 57.584 81.2816 57.36C80.887 57.136 80.4656 57.024 80.0176 57.024C79.559 57.024 79.1323 57.136 78.7376 57.36C78.343 57.584 78.023 57.92 77.7776 58.368C77.5323 58.816 77.4096 59.3707 77.4096 60.032C77.4096 60.6933 77.5323 61.248 77.7776 61.696C78.023 62.144 78.3376 62.48 78.7216 62.704C79.1163 62.928 79.5376 63.04 79.9856 63.04Z" fill="#696D91"/>
<g filter="url(#filter0_d)">
<rect x="19" width="48" height="45.3333" rx="18" fill="#FF7A41"/>
</g>
<path d="M55.8663 14.4466C55.1791 14.0687 54.389 14.0687 53.7362 14.481L49.2356 17.1264V16.611C49.2356 15.1681 48.0675 14 46.6245 14H31.611C30.1681 14 29 15.1681 29 16.611V28.6699C29 30.1129 30.1681 31.281 31.611 31.281H46.6589C48.1018 31.281 49.2699 30.1129 49.2699 28.6699V28.0515L53.8049 30.6969C54.1485 30.9031 54.5264 31.0061 54.8699 31.0061C55.2479 31.0061 55.5914 30.9031 55.935 30.7313C56.6221 30.3534 57 29.6663 57 28.8761L56.9656 16.3018C56.9656 15.546 56.5534 14.8589 55.8663 14.4466ZM47.8957 28.6699C47.8957 29.3571 47.346 29.9067 46.6589 29.9067H31.611C30.9239 29.9067 30.3742 29.3571 30.3742 28.6699V16.6454C30.3742 15.9583 30.9239 15.4086 31.611 15.4086H46.6589C47.346 15.4086 47.8957 15.9583 47.8957 16.6454V28.6699ZM55.2479 29.5288C55.1448 29.5975 54.8356 29.735 54.492 29.5288L49.2699 26.4712V18.7411L54.4577 15.6491C54.8012 15.4429 55.1104 15.5804 55.2135 15.6491C55.3166 15.7178 55.5914 15.9239 55.5914 16.3018L55.6258 28.8761C55.6258 29.2883 55.3509 29.4601 55.2479 29.5288Z" fill="white"/>
<path d="M28.6451 35.1017L28.2915 35.4553L28.6451 35.8088L30.4836 37.6473L30.8371 38.0008L31.1907 37.6473L56.6465 12.1914L57.0001 11.8379L56.6465 11.4843L54.808 9.64586L54.4545 9.29231L54.1009 9.64586L28.6451 35.1017Z" fill="#FF0000" stroke="#FF7A41"/>
<rect x="19" width="48" height="45.3333" rx="18" fill="white" fill-opacity="0.5"/>
<defs>
<filter id="filter0_d" x="15" y="0" width="56" height="53.3333" filterUnits="userSpaceOnUse" color-interpolation-filters="sRGB">
<feFlood flood-opacity="0" result="BackgroundImageFix"/>
<feColorMatrix in="SourceAlpha" type="matrix" values="0 0 0 0 0 0 0 0 0 0 0 0 0 0 0 0 0 0 127 0"/>
<feOffset dy="4"/>
<feGaussianBlur stdDeviation="2"/>
<feColorMatrix type="matrix" values="0 0 0 0 0.0588235 0 0 0 0 0.0588235 0 0 0 0 0.0588235 0 0 0 0.1 0"/>
<feBlend mode="normal" in2="BackgroundImageFix" result="effect1_dropShadow"/>
<feBlend mode="normal" in="SourceGraphic" in2="effect1_dropShadow" result="shape"/>
</filter>
</defs>
</svg>
