<svg width="86" height="69" viewBox="0 0 86 69" fill="none" xmlns="http://www.w3.org/2000/svg">
<path d="M6.69731 64.192C5.87598 64.192 5.16131 64.0427 4.55331 63.744C3.94531 63.4453 3.47598 63.0293 3.14531 62.496C2.81465 61.9627 2.64931 61.344 2.64931 60.64H4.05731C4.05731 61.0773 4.15865 61.4827 4.36131 61.856C4.56398 62.2187 4.85731 62.512 5.24131 62.736C5.63598 62.9493 6.12131 63.056 6.69731 63.056C7.45465 63.056 8.04131 62.8747 8.45731 62.512C8.87331 62.1493 9.08131 61.696 9.08131 61.152C9.08131 60.704 8.98531 60.3467 8.79331 60.08C8.60131 59.8027 8.33998 59.5787 8.00931 59.408C7.68931 59.2373 7.31598 59.088 6.88931 58.96C6.47331 58.832 6.03598 58.688 5.57731 58.528C4.71331 58.2293 4.07331 57.8613 3.65731 57.424C3.24131 56.976 3.03331 56.3947 3.03331 55.68C3.02265 55.0827 3.16131 54.5547 3.44931 54.096C3.73731 53.6267 4.14265 53.264 4.66531 53.008C5.19865 52.7413 5.82798 52.608 6.55331 52.608C7.26798 52.608 7.88665 52.7413 8.40931 53.008C8.94265 53.2747 9.35331 53.6427 9.64131 54.112C9.93998 54.5813 10.0946 55.1147 10.1053 55.712H8.69731C8.69731 55.4027 8.61731 55.0987 8.45731 54.8C8.29731 54.4907 8.05198 54.24 7.72131 54.048C7.40131 53.856 6.99598 53.76 6.50531 53.76C5.89731 53.7493 5.39598 53.904 5.00131 54.224C4.61731 54.544 4.42531 54.9867 4.42531 55.552C4.42531 56.032 4.55865 56.4 4.82531 56.656C5.10265 56.912 5.48665 57.1253 5.97731 57.296C6.46798 57.456 7.03331 57.6427 7.67331 57.856C8.20665 58.048 8.68665 58.272 9.11331 58.528C9.53998 58.784 9.87065 59.1147 10.1053 59.52C10.3506 59.9253 10.4733 60.4427 10.4733 61.072C10.4733 61.6053 10.3346 62.112 10.0573 62.592C9.77998 63.0613 9.35865 63.4453 8.79331 63.744C8.23865 64.0427 7.53998 64.192 6.69731 64.192ZM15.4353 64C14.71 64 14.1393 63.824 13.7233 63.472C13.3073 63.12 13.0993 62.4853 13.0993 61.568V57.2H11.7233V56.064H13.0993L13.2753 54.16H14.4433V56.064H16.7793V57.2H14.4433V61.568C14.4433 62.0693 14.5446 62.4107 14.7473 62.592C14.95 62.7627 15.3073 62.848 15.8193 62.848H16.6513V64H15.4353ZM21.8841 64.192C21.1374 64.192 20.4654 64.0213 19.8681 63.68C19.2707 63.3387 18.7961 62.8587 18.4441 62.24C18.1027 61.6107 17.9321 60.8747 17.9321 60.032C17.9321 59.1893 18.1081 58.4587 18.4601 57.84C18.8121 57.2107 19.2867 56.7253 19.8841 56.384C20.4921 56.0427 21.1694 55.872 21.9161 55.872C22.6627 55.872 23.3347 56.0427 23.9321 56.384C24.5294 56.7253 24.9987 57.2107 25.3401 57.84C25.6921 58.4587 25.8681 59.1893 25.8681 60.032C25.8681 60.8747 25.6921 61.6107 25.3401 62.24C24.9881 62.8587 24.5081 63.3387 23.9001 63.68C23.3027 64.0213 22.6307 64.192 21.8841 64.192ZM21.8841 63.04C22.3427 63.04 22.7694 62.928 23.1641 62.704C23.5587 62.48 23.8787 62.144 24.1241 61.696C24.3694 61.248 24.4921 60.6933 24.4921 60.032C24.4921 59.3707 24.3694 58.816 24.1241 58.368C23.8894 57.92 23.5747 57.584 23.1801 57.36C22.7854 57.136 22.3641 57.024 21.9161 57.024C21.4574 57.024 21.0307 57.136 20.6361 57.36C20.2414 57.584 19.9214 57.92 19.6761 58.368C19.4307 58.816 19.3081 59.3707 19.3081 60.032C19.3081 60.6933 19.4307 61.248 19.6761 61.696C19.9214 62.144 20.2361 62.48 20.6201 62.704C21.0147 62.928 21.4361 63.04 21.8841 63.04ZM27.7368 67.52V56.064H28.9528L29.0808 57.376C29.3368 56.992 29.6995 56.6453 30.1688 56.336C30.6488 56.0267 31.2568 55.872 31.9928 55.872C32.7821 55.872 33.4701 56.0533 34.0568 56.416C34.6435 56.7787 35.0968 57.2747 35.4168 57.904C35.7475 58.5333 35.9128 59.248 35.9128 60.048C35.9128 60.848 35.7475 61.5627 35.4168 62.192C35.0968 62.8107 34.6381 63.3013 34.0408 63.664C33.4541 64.016 32.7661 64.192 31.9768 64.192C31.3261 64.192 30.7448 64.0587 30.2328 63.792C29.7315 63.5253 29.3475 63.152 29.0808 62.672V67.52H27.7368ZM31.8328 63.024C32.3661 63.024 32.8355 62.9013 33.2408 62.656C33.6461 62.4 33.9661 62.048 34.2008 61.6C34.4355 61.152 34.5528 60.6293 34.5528 60.032C34.5528 59.4347 34.4355 58.912 34.2008 58.464C33.9661 58.016 33.6461 57.6693 33.2408 57.424C32.8355 57.168 32.3661 57.04 31.8328 57.04C31.2995 57.04 30.8301 57.168 30.4248 57.424C30.0195 57.6693 29.6995 58.016 29.4648 58.464C29.2301 58.912 29.1128 59.4347 29.1128 60.032C29.1128 60.6293 29.2301 61.152 29.4648 61.6C29.6995 62.048 30.0195 62.4 30.4248 62.656C30.8301 62.9013 31.2995 63.024 31.8328 63.024ZM45.4741 64L41.2661 52.8H42.7221L46.2581 62.576L49.8261 52.8H51.2501L47.0421 64H45.4741ZM53.5216 54.304C53.2549 54.304 53.0309 54.2187 52.8496 54.048C52.6789 53.8667 52.5936 53.6427 52.5936 53.376C52.5936 53.12 52.6789 52.9067 52.8496 52.736C53.0309 52.5653 53.2549 52.48 53.5216 52.48C53.7776 52.48 53.9962 52.5653 54.1776 52.736C54.3589 52.9067 54.4496 53.12 54.4496 53.376C54.4496 53.6427 54.3589 53.8667 54.1776 54.048C53.9962 54.2187 53.7776 54.304 53.5216 54.304ZM52.8496 64V56.064H54.1936V64H52.8496ZM60.1337 64.192C59.3444 64.192 58.651 64.0107 58.0537 63.648C57.467 63.2853 57.0084 62.7893 56.6777 62.16C56.3577 61.5307 56.1977 60.816 56.1977 60.016C56.1977 59.216 56.363 58.5067 56.6937 57.888C57.0244 57.2587 57.483 56.768 58.0697 56.416C58.6564 56.0533 59.3497 55.872 60.1497 55.872C60.8004 55.872 61.3764 56.0053 61.8777 56.272C62.379 56.5387 62.7684 56.912 63.0457 57.392V52.48H64.3897V64H63.1737L63.0457 62.688C62.7897 63.072 62.4217 63.4187 61.9417 63.728C61.4617 64.0373 60.859 64.192 60.1337 64.192ZM60.2777 63.024C60.811 63.024 61.2804 62.9013 61.6857 62.656C62.1017 62.4 62.4217 62.048 62.6457 61.6C62.8804 61.152 62.9977 60.6293 62.9977 60.032C62.9977 59.4347 62.8804 58.912 62.6457 58.464C62.4217 58.016 62.1017 57.6693 61.6857 57.424C61.2804 57.168 60.811 57.04 60.2777 57.04C59.755 57.04 59.2857 57.168 58.8697 57.424C58.4644 57.6693 58.1444 58.016 57.9097 58.464C57.6857 58.912 57.5737 59.4347 57.5737 60.032C57.5737 60.6293 57.6857 61.152 57.9097 61.6C58.1444 62.048 58.4644 62.4 58.8697 62.656C59.2857 62.9013 59.755 63.024 60.2777 63.024ZM70.1486 64.192C69.3912 64.192 68.7192 64.0213 68.1326 63.68C67.5459 63.328 67.0819 62.8427 66.7406 62.224C66.4099 61.6053 66.2446 60.8747 66.2446 60.032C66.2446 59.2 66.4099 58.4747 66.7406 57.856C67.0712 57.2267 67.5299 56.7413 68.1166 56.4C68.7139 56.048 69.4019 55.872 70.1806 55.872C70.9486 55.872 71.6099 56.048 72.1646 56.4C72.7299 56.7413 73.1619 57.1947 73.4606 57.76C73.7592 58.3253 73.9086 58.9333 73.9086 59.584C73.9086 59.7013 73.9032 59.8187 73.8926 59.936C73.8926 60.0533 73.8926 60.1867 73.8926 60.336H67.5726C67.6046 60.944 67.7432 61.4507 67.9886 61.856C68.2446 62.2507 68.5592 62.5493 68.9326 62.752C69.3166 62.9547 69.7219 63.056 70.1486 63.056C70.7032 63.056 71.1672 62.928 71.5406 62.672C71.9139 62.416 72.1859 62.0693 72.3566 61.632H73.6846C73.4712 62.368 73.0606 62.9813 72.4526 63.472C71.8552 63.952 71.0872 64.192 70.1486 64.192ZM70.1486 57.008C69.5086 57.008 68.9379 57.2053 68.4366 57.6C67.9459 57.984 67.6632 58.5493 67.5886 59.296H72.5806C72.5486 58.5813 72.3032 58.0213 71.8446 57.616C71.3859 57.2107 70.8206 57.008 70.1486 57.008ZM79.3059 64.192C78.5593 64.192 77.8873 64.0213 77.2899 63.68C76.6926 63.3387 76.2179 62.8587 75.8659 62.24C75.5246 61.6107 75.3539 60.8747 75.3539 60.032C75.3539 59.1893 75.5299 58.4587 75.8819 57.84C76.2339 57.2107 76.7086 56.7253 77.3059 56.384C77.9139 56.0427 78.5913 55.872 79.3379 55.872C80.0846 55.872 80.7566 56.0427 81.3539 56.384C81.9513 56.7253 82.4206 57.2107 82.7619 57.84C83.1139 58.4587 83.2899 59.1893 83.2899 60.032C83.2899 60.8747 83.1139 61.6107 82.7619 62.24C82.4099 62.8587 81.9299 63.3387 81.3219 63.68C80.7246 64.0213 80.0526 64.192 79.3059 64.192ZM79.3059 63.04C79.7646 63.04 80.1913 62.928 80.5859 62.704C80.9806 62.48 81.3006 62.144 81.5459 61.696C81.7913 61.248 81.9139 60.6933 81.9139 60.032C81.9139 59.3707 81.7913 58.816 81.5459 58.368C81.3113 57.92 80.9966 57.584 80.6019 57.36C80.2073 57.136 79.7859 57.024 79.3379 57.024C78.8793 57.024 78.4526 57.136 78.0579 57.36C77.6633 57.584 77.3433 57.92 77.0979 58.368C76.8526 58.816 76.7299 59.3707 76.7299 60.032C76.7299 60.6933 76.8526 61.248 77.0979 61.696C77.3433 62.144 77.6579 62.48 78.0419 62.704C78.4366 62.928 78.8579 63.04 79.3059 63.04Z" fill="#696D91"/>
<g filter="url(#filter0_d)">
<rect x="19" width="48" height="45.3333" rx="18" fill="#FF7A41"/>
</g>
<path d="M55.8663 14.4466C55.1791 14.0687 54.389 14.0687 53.7362 14.481L49.2356 17.1264V16.611C49.2356 15.1681 48.0675 14 46.6245 14H31.611C30.1681 14 29 15.1681 29 16.611V28.6699C29 30.1129 30.1681 31.281 31.611 31.281H46.6589C48.1018 31.281 49.2699 30.1129 49.2699 28.6699V28.0515L53.8049 30.6969C54.1485 30.9031 54.5264 31.0061 54.8699 31.0061C55.2479 31.0061 55.5914 30.9031 55.935 30.7313C56.6221 30.3534 57 29.6663 57 28.8761L56.9656 16.3018C56.9656 15.546 56.5534 14.8589 55.8663 14.4466ZM47.8957 28.6699C47.8957 29.3571 47.346 29.9067 46.6589 29.9067H31.611C30.9239 29.9067 30.3742 29.3571 30.3742 28.6699V16.6454C30.3742 15.9583 30.9239 15.4086 31.611 15.4086H46.6589C47.346 15.4086 47.8957 15.9583 47.8957 16.6454V28.6699ZM55.2479 29.5288C55.1448 29.5975 54.8356 29.735 54.492 29.5288L49.2699 26.4712V18.7411L54.4577 15.6491C54.8012 15.4429 55.1104 15.5804 55.2135 15.6491C55.3166 15.7178 55.5914 15.9239 55.5914 16.3018L55.6258 28.8761C55.6258 29.2883 55.3509 29.4601 55.2479 29.5288Z" fill="white"/>
<defs>
<filter id="filter0_d" x="15" y="0" width="56" height="53.3333" filterUnits="userSpaceOnUse" color-interpolation-filters="sRGB">
<feFlood flood-opacity="0" result="BackgroundImageFix"/>
<feColorMatrix in="SourceAlpha" type="matrix" values="0 0 0 0 0 0 0 0 0 0 0 0 0 0 0 0 0 0 127 0"/>
<feOffset dy="4"/>
<feGaussianBlur stdDeviation="2"/>
<feColorMatrix type="matrix" values="0 0 0 0 0.0588235 0 0 0 0 0.0588235 0 0 0 0 0.0588235 0 0 0 0.1 0"/>
<feBlend mode="normal" in2="BackgroundImageFix" result="effect1_dropShadow"/>
<feBlend mode="normal" in="SourceGraphic" in2="effect1_dropShadow" result="shape"/>
</filter>
</defs>
</svg>
