<svg width="214" height="237" viewBox="0 0 214 237" fill="none" xmlns="http://www.w3.org/2000/svg">
<g filter="url(#filter0_d)">
<rect x="2" y="19.9375" width="210" height="213.559" rx="20" fill="#FF6105"/>
</g>
<path d="M33.1445 10.3613C33.1445 4.83848 37.6217 0.361328 43.1445 0.361328H170.856C176.379 0.361328 180.856 4.83848 180.856 10.3613V19.9376H33.1445V10.3613Z" fill="#F12587"/>
<path d="M92.043 15.3086C91.119 15.3086 90.3117 15.0986 89.621 14.6786C88.9304 14.2586 88.3937 13.6753 88.011 12.9286C87.6284 12.1726 87.437 11.2953 87.437 10.2966C87.437 9.28862 87.633 8.40196 88.025 7.63662C88.4264 6.86196 88.991 6.25996 89.719 5.83062C90.4564 5.39196 91.329 5.17262 92.337 5.17262C93.485 5.17262 94.437 5.44796 95.193 5.99862C95.949 6.54929 96.439 7.30996 96.663 8.28062H94.661C94.5117 7.82329 94.241 7.46862 93.849 7.21662C93.457 6.95529 92.953 6.82462 92.337 6.82462C91.357 6.82462 90.601 7.13729 90.069 7.76262C89.537 8.37862 89.271 9.22796 89.271 10.3106C89.271 11.3933 89.5324 12.2333 90.055 12.8306C90.587 13.4186 91.3057 13.7126 92.211 13.7126C93.0977 13.7126 93.765 13.4746 94.213 12.9986C94.6704 12.5133 94.9457 11.8786 95.039 11.0946H92.561V9.75062H96.845V15.1406H95.193L95.053 13.8526C94.7357 14.3193 94.339 14.6786 93.863 14.9306C93.387 15.1826 92.7804 15.3086 92.043 15.3086ZM100.939 15.3086C100.342 15.3086 99.8518 15.2153 99.4691 15.0286C99.0865 14.8326 98.8018 14.576 98.6151 14.2586C98.4285 13.9413 98.3351 13.5913 98.3351 13.2086C98.3351 12.5646 98.5871 12.042 99.0911 11.6406C99.5951 11.2393 100.351 11.0386 101.359 11.0386H103.123V10.8706C103.123 10.3946 102.988 10.0446 102.717 9.82062C102.446 9.59662 102.11 9.48462 101.709 9.48462C101.345 9.48462 101.028 9.57329 100.757 9.75062C100.486 9.91862 100.318 10.1706 100.253 10.5066H98.5031C98.5498 10.0026 98.7178 9.56396 99.0071 9.19062C99.3058 8.81729 99.6885 8.53262 100.155 8.33662C100.622 8.13129 101.144 8.02862 101.723 8.02862C102.712 8.02862 103.492 8.27596 104.061 8.77062C104.63 9.26529 104.915 9.96529 104.915 10.8706V15.1406H103.389L103.221 14.0206C103.016 14.394 102.726 14.702 102.353 14.9446C101.989 15.1873 101.518 15.3086 100.939 15.3086ZM101.345 13.9086C101.858 13.9086 102.255 13.7406 102.535 13.4046C102.824 13.0686 103.006 12.6533 103.081 12.1586H101.555C101.079 12.1586 100.738 12.2473 100.533 12.4246C100.328 12.5926 100.225 12.8026 100.225 13.0546C100.225 13.3253 100.328 13.5353 100.533 13.6846C100.738 13.834 101.009 13.9086 101.345 13.9086ZM106.625 15.1406V8.19662H108.207L108.361 9.13462C108.585 8.79862 108.879 8.53262 109.243 8.33662C109.617 8.13129 110.046 8.02862 110.531 8.02862C111.605 8.02862 112.365 8.44396 112.813 9.27462C113.065 8.89196 113.401 8.58862 113.821 8.36462C114.251 8.14062 114.717 8.02862 115.221 8.02862C116.127 8.02862 116.822 8.29929 117.307 8.84062C117.793 9.38196 118.035 10.1753 118.035 11.2206V15.1406H116.243V11.3886C116.243 10.7913 116.127 10.334 115.893 10.0166C115.669 9.69929 115.319 9.54062 114.843 9.54062C114.358 9.54062 113.966 9.71796 113.667 10.0726C113.378 10.4273 113.233 10.922 113.233 11.5566V15.1406H111.441V11.3886C111.441 10.7913 111.325 10.334 111.091 10.0166C110.858 9.69929 110.499 9.54062 110.013 9.54062C109.537 9.54062 109.15 9.71796 108.851 10.0726C108.562 10.4273 108.417 10.922 108.417 11.5566V15.1406H106.625ZM123.111 15.3086C122.411 15.3086 121.79 15.1593 121.249 14.8606C120.707 14.562 120.283 14.142 119.975 13.6006C119.667 13.0593 119.513 12.434 119.513 11.7246C119.513 11.006 119.662 10.3666 119.961 9.80662C120.269 9.24662 120.689 8.81262 121.221 8.50462C121.762 8.18729 122.397 8.02862 123.125 8.02862C123.806 8.02862 124.408 8.17796 124.931 8.47662C125.453 8.77529 125.859 9.18596 126.149 9.70862C126.447 10.222 126.597 10.796 126.597 11.4306C126.597 11.5333 126.592 11.6406 126.583 11.7526C126.583 11.8646 126.578 11.9813 126.569 12.1026H121.291C121.328 12.644 121.515 13.0686 121.851 13.3766C122.196 13.6846 122.611 13.8386 123.097 13.8386C123.461 13.8386 123.764 13.7593 124.007 13.6006C124.259 13.4326 124.445 13.218 124.567 12.9566H126.387C126.256 13.3953 126.037 13.7966 125.729 14.1606C125.43 14.5153 125.057 14.7953 124.609 15.0006C124.17 15.206 123.671 15.3086 123.111 15.3086ZM123.125 9.48462C122.686 9.48462 122.299 9.61062 121.963 9.86262C121.627 10.1053 121.412 10.4786 121.319 10.9826H124.777C124.749 10.5253 124.581 10.1613 124.273 9.89062C123.965 9.61996 123.582 9.48462 123.125 9.48462Z" fill="white"/>
<path d="M31.037 79.1758V68.6758H34.487C35.307 68.6758 35.982 68.8108 36.512 69.0808C37.042 69.3508 37.432 69.7158 37.682 70.1758C37.942 70.6358 38.072 71.1558 38.072 71.7358C38.072 72.3058 37.947 72.8208 37.697 73.2808C37.447 73.7408 37.057 74.1108 36.527 74.3908C35.997 74.6608 35.317 74.7958 34.487 74.7958H32.297V79.1758H31.037ZM32.297 73.7308H34.457C35.297 73.7308 35.892 73.5558 36.242 73.2058C36.602 72.8458 36.782 72.3558 36.782 71.7358C36.782 71.1058 36.602 70.6158 36.242 70.2658C35.892 69.9058 35.297 69.7258 34.457 69.7258H32.297V73.7308ZM39.6486 79.1758V68.3758H40.9086V79.1758H39.6486ZM45.4488 79.3558C44.8288 79.3558 44.3138 79.2508 43.9038 79.0408C43.4938 78.8308 43.1888 78.5508 42.9888 78.2008C42.7888 77.8508 42.6888 77.4708 42.6888 77.0608C42.6888 76.3008 42.9788 75.7158 43.5588 75.3058C44.1388 74.8958 44.9288 74.6908 45.9288 74.6908H47.9388V74.6008C47.9388 73.9508 47.7688 73.4608 47.4288 73.1308C47.0888 72.7908 46.6338 72.6208 46.0638 72.6208C45.5738 72.6208 45.1488 72.7458 44.7888 72.9958C44.4388 73.2358 44.2188 73.5908 44.1288 74.0608H42.8388C42.8888 73.5208 43.0688 73.0658 43.3788 72.6958C43.6988 72.3258 44.0938 72.0458 44.5638 71.8558C45.0338 71.6558 45.5338 71.5558 46.0638 71.5558C47.1038 71.5558 47.8838 71.8358 48.4038 72.3958C48.9338 72.9458 49.1988 73.6808 49.1988 74.6008V79.1758H48.0738L47.9988 77.8408C47.7888 78.2608 47.4788 78.6208 47.0688 78.9208C46.6688 79.2108 46.1288 79.3558 45.4488 79.3558ZM45.6438 78.2908C46.1238 78.2908 46.5338 78.1658 46.8738 77.9158C47.2238 77.6658 47.4888 77.3408 47.6688 76.9408C47.8488 76.5408 47.9388 76.1208 47.9388 75.6808V75.6658H46.0338C45.2938 75.6658 44.7688 75.7958 44.4588 76.0558C44.1588 76.3058 44.0088 76.6208 44.0088 77.0008C44.0088 77.3908 44.1488 77.7058 44.4288 77.9458C44.7188 78.1758 45.1238 78.2908 45.6438 78.2908ZM51.6793 82.4758L53.5243 78.4558H53.0893L50.1343 71.7358H51.4993L53.9593 77.5258L56.5693 71.7358H57.8743L52.9993 82.4758H51.6793ZM61.8461 79.3558C61.1361 79.3558 60.5061 79.1958 59.9561 78.8758C59.4061 78.5458 58.9711 78.0908 58.6511 77.5108C58.3411 76.9308 58.1861 76.2458 58.1861 75.4558C58.1861 74.6758 58.3411 73.9958 58.6511 73.4158C58.9611 72.8258 59.3911 72.3708 59.9411 72.0508C60.5011 71.7208 61.1461 71.5558 61.8761 71.5558C62.5961 71.5558 63.2161 71.7208 63.7361 72.0508C64.2661 72.3708 64.6711 72.7958 64.9511 73.3258C65.2311 73.8558 65.3711 74.4258 65.3711 75.0358C65.3711 75.1458 65.3661 75.2558 65.3561 75.3658C65.3561 75.4758 65.3561 75.6008 65.3561 75.7408H59.4311C59.4611 76.3108 59.5911 76.7858 59.8211 77.1658C60.0611 77.5358 60.3561 77.8158 60.7061 78.0058C61.0661 78.1958 61.4461 78.2908 61.8461 78.2908C62.3661 78.2908 62.8011 78.1708 63.1511 77.9308C63.5011 77.6908 63.7561 77.3658 63.9161 76.9558H65.1611C64.9611 77.6458 64.5761 78.2208 64.0061 78.6808C63.4461 79.1308 62.7261 79.3558 61.8461 79.3558ZM61.8461 72.6208C61.2461 72.6208 60.7111 72.8058 60.2411 73.1758C59.7811 73.5358 59.5161 74.0658 59.4461 74.7658H64.1261C64.0961 74.0958 63.8661 73.5708 63.4361 73.1908C63.0061 72.8108 62.4761 72.6208 61.8461 72.6208ZM67.0411 79.1758V71.7358H68.1811L68.2861 73.1608C68.5161 72.6708 68.8661 72.2808 69.3361 71.9908C69.8061 71.7008 70.3861 71.5558 71.0761 71.5558V72.8758H70.7311C70.2911 72.8758 69.8861 72.9558 69.5161 73.1158C69.1461 73.2658 68.8511 73.5258 68.6311 73.8958C68.4111 74.2658 68.3011 74.7758 68.3011 75.4258V79.1758H67.0411ZM75.3404 79.3558C74.4504 79.3558 73.7104 79.1308 73.1204 78.6808C72.5304 78.2308 72.1854 77.6208 72.0854 76.8508H73.3754C73.4554 77.2408 73.6604 77.5808 73.9904 77.8708C74.3304 78.1508 74.7854 78.2908 75.3554 78.2908C75.8854 78.2908 76.2754 78.1808 76.5254 77.9608C76.7754 77.7308 76.9004 77.4608 76.9004 77.1508C76.9004 76.7008 76.7354 76.4008 76.4054 76.2508C76.0854 76.1008 75.6304 75.9658 75.0404 75.8458C74.6404 75.7658 74.2404 75.6508 73.8404 75.5008C73.4404 75.3508 73.1054 75.1408 72.8354 74.8708C72.5654 74.5908 72.4304 74.2258 72.4304 73.7758C72.4304 73.1258 72.6704 72.5958 73.1504 72.1858C73.6404 71.7658 74.3004 71.5558 75.1304 71.5558C75.9204 71.5558 76.5654 71.7558 77.0654 72.1558C77.5754 72.5458 77.8704 73.1058 77.9504 73.8358H76.7054C76.6554 73.4558 76.4904 73.1608 76.2104 72.9508C75.9404 72.7308 75.5754 72.6208 75.1154 72.6208C74.6654 72.6208 74.3154 72.7158 74.0654 72.9058C73.8254 73.0958 73.7054 73.3458 73.7054 73.6558C73.7054 73.9558 73.8604 74.1908 74.1704 74.3608C74.4904 74.5308 74.9204 74.6758 75.4604 74.7958C75.9204 74.8958 76.3554 75.0208 76.7654 75.1708C77.1854 75.3108 77.5254 75.5258 77.7854 75.8158C78.0554 76.0958 78.1904 76.5058 78.1904 77.0458C78.2004 77.7158 77.9454 78.2708 77.4254 78.7108C76.9154 79.1408 76.2204 79.3558 75.3404 79.3558ZM86.9001 79.1758C86.2201 79.1758 85.6851 79.0108 85.2951 78.6808C84.9051 78.3508 84.7101 77.7558 84.7101 76.8958V72.8008H83.4201V71.7358H84.7101L84.8751 69.9508H85.9701V71.7358H88.1601V72.8008H85.9701V76.8958C85.9701 77.3658 86.0651 77.6858 86.2551 77.8558C86.4451 78.0158 86.7801 78.0958 87.2601 78.0958H88.0401V79.1758H86.9001ZM92.9008 79.3558C92.1908 79.3558 91.5608 79.1958 91.0108 78.8758C90.4608 78.5458 90.0258 78.0908 89.7058 77.5108C89.3958 76.9308 89.2408 76.2458 89.2408 75.4558C89.2408 74.6758 89.3958 73.9958 89.7058 73.4158C90.0158 72.8258 90.4458 72.3708 90.9958 72.0508C91.5558 71.7208 92.2008 71.5558 92.9308 71.5558C93.6508 71.5558 94.2708 71.7208 94.7908 72.0508C95.3208 72.3708 95.7258 72.7958 96.0058 73.3258C96.2858 73.8558 96.4258 74.4258 96.4258 75.0358C96.4258 75.1458 96.4208 75.2558 96.4108 75.3658C96.4108 75.4758 96.4108 75.6008 96.4108 75.7408H90.4858C90.5158 76.3108 90.6458 76.7858 90.8758 77.1658C91.1158 77.5358 91.4108 77.8158 91.7608 78.0058C92.1208 78.1958 92.5008 78.2908 92.9008 78.2908C93.4208 78.2908 93.8558 78.1708 94.2058 77.9308C94.5558 77.6908 94.8108 77.3658 94.9708 76.9558H96.2158C96.0158 77.6458 95.6308 78.2208 95.0608 78.6808C94.5008 79.1308 93.7808 79.3558 92.9008 79.3558ZM92.9008 72.6208C92.3008 72.6208 91.7658 72.8058 91.2958 73.1758C90.8358 73.5358 90.5708 74.0658 90.5008 74.7658H95.1808C95.1508 74.0958 94.9208 73.5708 94.4908 73.1908C94.0608 72.8108 93.5308 72.6208 92.9008 72.6208ZM98.0958 79.1758V68.3758H99.3558V79.1758H98.0958ZM101.421 79.1758V68.3758H102.681V79.1758H101.421ZM111.191 79.3558C110.571 79.3558 110.056 79.2508 109.646 79.0408C109.236 78.8308 108.931 78.5508 108.731 78.2008C108.531 77.8508 108.431 77.4708 108.431 77.0608C108.431 76.3008 108.721 75.7158 109.301 75.3058C109.881 74.8958 110.671 74.6908 111.671 74.6908H113.681V74.6008C113.681 73.9508 113.511 73.4608 113.171 73.1308C112.831 72.7908 112.376 72.6208 111.806 72.6208C111.316 72.6208 110.891 72.7458 110.531 72.9958C110.181 73.2358 109.961 73.5908 109.871 74.0608H108.581C108.631 73.5208 108.811 73.0658 109.121 72.6958C109.441 72.3258 109.836 72.0458 110.306 71.8558C110.776 71.6558 111.276 71.5558 111.806 71.5558C112.846 71.5558 113.626 71.8358 114.146 72.3958C114.676 72.9458 114.941 73.6808 114.941 74.6008V79.1758H113.816L113.741 77.8408C113.531 78.2608 113.221 78.6208 112.811 78.9208C112.411 79.2108 111.871 79.3558 111.191 79.3558ZM111.386 78.2908C111.866 78.2908 112.276 78.1658 112.616 77.9158C112.966 77.6658 113.231 77.3408 113.411 76.9408C113.591 76.5408 113.681 76.1208 113.681 75.6808V75.6658H111.776C111.036 75.6658 110.511 75.7958 110.201 76.0558C109.901 76.3058 109.751 76.6208 109.751 77.0008C109.751 77.3908 109.891 77.7058 110.171 77.9458C110.461 78.1758 110.866 78.2908 111.386 78.2908ZM123.741 79.1758C123.061 79.1758 122.526 79.0108 122.136 78.6808C121.746 78.3508 121.551 77.7558 121.551 76.8958V72.8008H120.261V71.7358H121.551L121.716 69.9508H122.811V71.7358H125.001V72.8008H122.811V76.8958C122.811 77.3658 122.906 77.6858 123.096 77.8558C123.286 78.0158 123.621 78.0958 124.101 78.0958H124.881V79.1758H123.741ZM126.602 79.1758V71.7358H127.742L127.847 73.1608C128.077 72.6708 128.427 72.2808 128.897 71.9908C129.367 71.7008 129.947 71.5558 130.637 71.5558V72.8758H130.292C129.852 72.8758 129.447 72.9558 129.077 73.1158C128.707 73.2658 128.412 73.5258 128.192 73.8958C127.972 74.2658 127.862 74.7758 127.862 75.4258V79.1758H126.602ZM134.766 79.3558C133.886 79.3558 133.186 79.0908 132.666 78.5608C132.146 78.0208 131.886 77.1958 131.886 76.0858V71.7358H133.146V75.9508C133.146 77.5008 133.781 78.2758 135.051 78.2758C135.701 78.2758 136.236 78.0458 136.656 77.5858C137.086 77.1158 137.301 76.4508 137.301 75.5908V71.7358H138.561V79.1758H137.421L137.331 77.8408C137.101 78.3108 136.756 78.6808 136.296 78.9508C135.846 79.2208 135.336 79.3558 134.766 79.3558ZM143.575 79.1758C142.895 79.1758 142.36 79.0108 141.97 78.6808C141.58 78.3508 141.385 77.7558 141.385 76.8958V72.8008H140.095V71.7358H141.385L141.55 69.9508H142.645V71.7358H144.835V72.8008H142.645V76.8958C142.645 77.3658 142.74 77.6858 142.93 77.8558C143.12 78.0158 143.455 78.0958 143.935 78.0958H144.715V79.1758H143.575ZM146.436 79.1758V68.3758H147.696V73.0108C147.946 72.5508 148.301 72.1958 148.761 71.9458C149.221 71.6858 149.721 71.5558 150.261 71.5558C151.121 71.5558 151.811 71.8258 152.331 72.3658C152.851 72.8958 153.111 73.7158 153.111 74.8258V79.1758H151.866V74.9608C151.866 73.4108 151.241 72.6358 149.991 72.6358C149.341 72.6358 148.796 72.8708 148.356 73.3408C147.916 73.8008 147.696 74.4608 147.696 75.3208V79.1758H146.436ZM161.464 79.3558C160.844 79.3558 160.329 79.2508 159.919 79.0408C159.509 78.8308 159.204 78.5508 159.004 78.2008C158.804 77.8508 158.704 77.4708 158.704 77.0608C158.704 76.3008 158.994 75.7158 159.574 75.3058C160.154 74.8958 160.944 74.6908 161.944 74.6908H163.954V74.6008C163.954 73.9508 163.784 73.4608 163.444 73.1308C163.104 72.7908 162.649 72.6208 162.079 72.6208C161.589 72.6208 161.164 72.7458 160.804 72.9958C160.454 73.2358 160.234 73.5908 160.144 74.0608H158.854C158.904 73.5208 159.084 73.0658 159.394 72.6958C159.714 72.3258 160.109 72.0458 160.579 71.8558C161.049 71.6558 161.549 71.5558 162.079 71.5558C163.119 71.5558 163.899 71.8358 164.419 72.3958C164.949 72.9458 165.214 73.6808 165.214 74.6008V79.1758H164.089L164.014 77.8408C163.804 78.2608 163.494 78.6208 163.084 78.9208C162.684 79.2108 162.144 79.3558 161.464 79.3558ZM161.659 78.2908C162.139 78.2908 162.549 78.1658 162.889 77.9158C163.239 77.6658 163.504 77.3408 163.684 76.9408C163.864 76.5408 163.954 76.1208 163.954 75.6808V75.6658H162.049C161.309 75.6658 160.784 75.7958 160.474 76.0558C160.174 76.3058 160.024 76.6208 160.024 77.0008C160.024 77.3908 160.164 77.7058 160.444 77.9458C160.734 78.1758 161.139 78.2908 161.659 78.2908ZM167.105 79.1758V71.7358H168.245L168.32 73.0708C168.56 72.6008 168.905 72.2308 169.355 71.9608C169.805 71.6908 170.315 71.5558 170.885 71.5558C171.765 71.5558 172.465 71.8258 172.985 72.3658C173.515 72.8958 173.78 73.7158 173.78 74.8258V79.1758H172.52V74.9608C172.52 73.4108 171.88 72.6358 170.6 72.6358C169.96 72.6358 169.425 72.8708 168.995 73.3408C168.575 73.8008 168.365 74.4608 168.365 75.3208V79.1758H167.105ZM179.064 79.3558C178.324 79.3558 177.674 79.1858 177.114 78.8458C176.564 78.5058 176.134 78.0408 175.824 77.4508C175.524 76.8608 175.374 76.1908 175.374 75.4408C175.374 74.6908 175.529 74.0258 175.839 73.4458C176.149 72.8558 176.579 72.3958 177.129 72.0658C177.679 71.7258 178.329 71.5558 179.079 71.5558C179.689 71.5558 180.229 71.6808 180.699 71.9308C181.169 72.1808 181.534 72.5308 181.794 72.9808V68.3758H183.054V79.1758H181.914L181.794 77.9458C181.554 78.3058 181.209 78.6308 180.759 78.9208C180.309 79.2108 179.744 79.3558 179.064 79.3558ZM179.199 78.2608C179.699 78.2608 180.139 78.1458 180.519 77.9158C180.909 77.6758 181.209 77.3458 181.419 76.9258C181.639 76.5058 181.749 76.0158 181.749 75.4558C181.749 74.8958 181.639 74.4058 181.419 73.9858C181.209 73.5658 180.909 73.2408 180.519 73.0108C180.139 72.7708 179.699 72.6508 179.199 72.6508C178.709 72.6508 178.269 72.7708 177.879 73.0108C177.499 73.2408 177.199 73.5658 176.979 73.9858C176.769 74.4058 176.664 74.8958 176.664 75.4558C176.664 76.0158 176.769 76.5058 176.979 76.9258C177.199 77.3458 177.499 77.6758 177.879 77.9158C178.269 78.1458 178.709 78.2608 179.199 78.2608ZM52.1284 99.3558C51.5084 99.3558 50.9934 99.2508 50.5834 99.0408C50.1734 98.8308 49.8684 98.5508 49.6684 98.2008C49.4684 97.8508 49.3684 97.4708 49.3684 97.0608C49.3684 96.3008 49.6584 95.7158 50.2384 95.3058C50.8184 94.8958 51.6084 94.6908 52.6084 94.6908H54.6184V94.6008C54.6184 93.9508 54.4484 93.4608 54.1084 93.1308C53.7684 92.7908 53.3134 92.6208 52.7434 92.6208C52.2534 92.6208 51.8284 92.7458 51.4684 92.9958C51.1184 93.2358 50.8984 93.5908 50.8084 94.0608H49.5184C49.5684 93.5208 49.7484 93.0658 50.0584 92.6958C50.3784 92.3258 50.7734 92.0458 51.2434 91.8558C51.7134 91.6558 52.2134 91.5558 52.7434 91.5558C53.7834 91.5558 54.5634 91.8358 55.0834 92.3958C55.6134 92.9458 55.8784 93.6808 55.8784 94.6008V99.1758H54.7534L54.6784 97.8408C54.4684 98.2608 54.1584 98.6208 53.7484 98.9208C53.3484 99.2108 52.8084 99.3558 52.1284 99.3558ZM52.3234 98.2908C52.8034 98.2908 53.2134 98.1658 53.5534 97.9158C53.9034 97.6658 54.1684 97.3408 54.3484 96.9408C54.5284 96.5408 54.6184 96.1208 54.6184 95.6808V95.6658H52.7134C51.9734 95.6658 51.4484 95.7958 51.1384 96.0558C50.8384 96.3058 50.6884 96.6208 50.6884 97.0008C50.6884 97.3908 50.8284 97.7058 51.1084 97.9458C51.3984 98.1758 51.8034 98.2908 52.3234 98.2908ZM61.7384 99.1758V88.3758H62.9984V99.1758H61.7384ZM65.8286 90.0858C65.5786 90.0858 65.3686 90.0058 65.1986 89.8458C65.0386 89.6758 64.9586 89.4658 64.9586 89.2158C64.9586 88.9758 65.0386 88.7758 65.1986 88.6158C65.3686 88.4558 65.5786 88.3758 65.8286 88.3758C66.0686 88.3758 66.2736 88.4558 66.4436 88.6158C66.6136 88.7758 66.6986 88.9758 66.6986 89.2158C66.6986 89.4658 66.6136 89.6758 66.4436 89.8458C66.2736 90.0058 66.0686 90.0858 65.8286 90.0858ZM65.1986 99.1758V91.7358H66.4586V99.1758H65.1986ZM71.9975 99.3558C71.2875 99.3558 70.6575 99.1958 70.1075 98.8758C69.5575 98.5458 69.1225 98.0908 68.8025 97.5108C68.4925 96.9308 68.3375 96.2458 68.3375 95.4558C68.3375 94.6758 68.4925 93.9958 68.8025 93.4158C69.1125 92.8258 69.5425 92.3708 70.0925 92.0508C70.6525 91.7208 71.2975 91.5558 72.0275 91.5558C72.7475 91.5558 73.3675 91.7208 73.8875 92.0508C74.4175 92.3708 74.8225 92.7958 75.1025 93.3258C75.3825 93.8558 75.5225 94.4258 75.5225 95.0358C75.5225 95.1458 75.5175 95.2558 75.5075 95.3658C75.5075 95.4758 75.5075 95.6008 75.5075 95.7408H69.5825C69.6125 96.3108 69.7425 96.7858 69.9725 97.1658C70.2125 97.5358 70.5075 97.8158 70.8575 98.0058C71.2175 98.1958 71.5975 98.2908 71.9975 98.2908C72.5175 98.2908 72.9525 98.1708 73.3025 97.9308C73.6525 97.6908 73.9075 97.3658 74.0675 96.9558H75.3125C75.1125 97.6458 74.7275 98.2208 74.1575 98.6808C73.5975 99.1308 72.8775 99.3558 71.9975 99.3558ZM71.9975 92.6208C71.3975 92.6208 70.8625 92.8058 70.3925 93.1758C69.9325 93.5358 69.6675 94.0658 69.5975 94.7658H74.2775C74.2475 94.0958 74.0175 93.5708 73.5875 93.1908C73.1575 92.8108 72.6275 92.6208 71.9975 92.6208ZM76.1875 100.961L77.0575 97.6458H78.3625L77.0575 100.961H76.1875ZM86.3032 99.3558C85.6832 99.3558 85.1682 99.2508 84.7582 99.0408C84.3482 98.8308 84.0432 98.5508 83.8432 98.2008C83.6432 97.8508 83.5432 97.4708 83.5432 97.0608C83.5432 96.3008 83.8332 95.7158 84.4132 95.3058C84.9932 94.8958 85.7832 94.6908 86.7832 94.6908H88.7932V94.6008C88.7932 93.9508 88.6232 93.4608 88.2832 93.1308C87.9432 92.7908 87.4882 92.6208 86.9182 92.6208C86.4282 92.6208 86.0032 92.7458 85.6432 92.9958C85.2932 93.2358 85.0732 93.5908 84.9832 94.0608H83.6932C83.7432 93.5208 83.9232 93.0658 84.2332 92.6958C84.5532 92.3258 84.9482 92.0458 85.4182 91.8558C85.8882 91.6558 86.3882 91.5558 86.9182 91.5558C87.9582 91.5558 88.7382 91.8358 89.2582 92.3958C89.7882 92.9458 90.0532 93.6808 90.0532 94.6008V99.1758H88.9282L88.8532 97.8408C88.6432 98.2608 88.3332 98.6208 87.9232 98.9208C87.5232 99.2108 86.9832 99.3558 86.3032 99.3558ZM86.4982 98.2908C86.9782 98.2908 87.3882 98.1658 87.7282 97.9158C88.0782 97.6658 88.3432 97.3408 88.5232 96.9408C88.7032 96.5408 88.7932 96.1208 88.7932 95.6808V95.6658H86.8882C86.1482 95.6658 85.6232 95.7958 85.3132 96.0558C85.0132 96.3058 84.8632 96.6208 84.8632 97.0008C84.8632 97.3908 85.0032 97.7058 85.2832 97.9458C85.5732 98.1758 85.9782 98.2908 86.4982 98.2908ZM91.9435 99.1758V88.3758H93.2035V99.1758H91.9435ZM95.2687 99.1758V88.3758H96.5287V99.1758H95.2687ZM105.504 99.1758C104.824 99.1758 104.289 99.0108 103.899 98.6808C103.509 98.3508 103.314 97.7558 103.314 96.8958V92.8008H102.024V91.7358H103.314L103.479 89.9508H104.574V91.7358H106.764V92.8008H104.574V96.8958C104.574 97.3658 104.669 97.6858 104.859 97.8558C105.049 98.0158 105.384 98.0958 105.864 98.0958H106.644V99.1758H105.504ZM108.364 99.1758V88.3758H109.624V93.0108C109.874 92.5508 110.229 92.1958 110.689 91.9458C111.149 91.6858 111.649 91.5558 112.189 91.5558C113.049 91.5558 113.739 91.8258 114.259 92.3658C114.779 92.8958 115.039 93.7158 115.039 94.8258V99.1758H113.794V94.9608C113.794 93.4108 113.169 92.6358 111.919 92.6358C111.269 92.6358 110.724 92.8708 110.284 93.3408C109.844 93.8008 109.624 94.4608 109.624 95.3208V99.1758H108.364ZM120.293 99.3558C119.583 99.3558 118.953 99.1958 118.403 98.8758C117.853 98.5458 117.418 98.0908 117.098 97.5108C116.788 96.9308 116.633 96.2458 116.633 95.4558C116.633 94.6758 116.788 93.9958 117.098 93.4158C117.408 92.8258 117.838 92.3708 118.388 92.0508C118.948 91.7208 119.593 91.5558 120.323 91.5558C121.043 91.5558 121.663 91.7208 122.183 92.0508C122.713 92.3708 123.118 92.7958 123.398 93.3258C123.678 93.8558 123.818 94.4258 123.818 95.0358C123.818 95.1458 123.813 95.2558 123.803 95.3658C123.803 95.4758 123.803 95.6008 123.803 95.7408H117.878C117.908 96.3108 118.038 96.7858 118.268 97.1658C118.508 97.5358 118.803 97.8158 119.153 98.0058C119.513 98.1958 119.893 98.2908 120.293 98.2908C120.813 98.2908 121.248 98.1708 121.598 97.9308C121.948 97.6908 122.203 97.3658 122.363 96.9558H123.608C123.408 97.6458 123.023 98.2208 122.453 98.6808C121.893 99.1308 121.173 99.3558 120.293 99.3558ZM120.293 92.6208C119.693 92.6208 119.158 92.8058 118.688 93.1758C118.228 93.5358 117.963 94.0658 117.893 94.7658H122.573C122.543 94.0958 122.313 93.5708 121.883 93.1908C121.453 92.8108 120.923 92.6208 120.293 92.6208ZM132.848 99.3558C132.148 99.3558 131.518 99.1958 130.958 98.8758C130.398 98.5558 129.953 98.1058 129.623 97.5258C129.303 96.9358 129.143 96.2458 129.143 95.4558C129.143 94.6658 129.308 93.9808 129.638 93.4008C129.968 92.8108 130.413 92.3558 130.973 92.0358C131.543 91.7158 132.178 91.5558 132.878 91.5558C133.578 91.5558 134.208 91.7158 134.768 92.0358C135.328 92.3558 135.768 92.8108 136.088 93.4008C136.418 93.9808 136.583 94.6658 136.583 95.4558C136.583 96.2458 136.418 96.9358 136.088 97.5258C135.758 98.1058 135.308 98.5558 134.738 98.8758C134.178 99.1958 133.548 99.3558 132.848 99.3558ZM132.848 98.2758C133.278 98.2758 133.678 98.1708 134.048 97.9608C134.418 97.7508 134.718 97.4358 134.948 97.0158C135.178 96.5958 135.293 96.0758 135.293 95.4558C135.293 94.8358 135.178 94.3158 134.948 93.8958C134.728 93.4758 134.433 93.1608 134.063 92.9508C133.693 92.7408 133.298 92.6358 132.878 92.6358C132.448 92.6358 132.048 92.7408 131.678 92.9508C131.308 93.1608 131.008 93.4758 130.778 93.8958C130.548 94.3158 130.433 94.8358 130.433 95.4558C130.433 96.0758 130.548 96.5958 130.778 97.0158C131.008 97.4358 131.303 97.7508 131.663 97.9608C132.033 98.1708 132.428 98.2758 132.848 98.2758ZM140.982 99.1758C140.302 99.1758 139.767 99.0108 139.377 98.6808C138.987 98.3508 138.792 97.7558 138.792 96.8958V92.8008H137.502V91.7358H138.792L138.957 89.9508H140.052V91.7358H142.242V92.8008H140.052V96.8958C140.052 97.3658 140.147 97.6858 140.337 97.8558C140.527 98.0158 140.862 98.0958 141.342 98.0958H142.122V99.1758H140.982ZM143.843 99.1758V88.3758H145.103V93.0108C145.353 92.5508 145.708 92.1958 146.168 91.9458C146.628 91.6858 147.128 91.5558 147.668 91.5558C148.528 91.5558 149.218 91.8258 149.738 92.3658C150.258 92.8958 150.518 93.7158 150.518 94.8258V99.1758H149.273V94.9608C149.273 93.4108 148.648 92.6358 147.398 92.6358C146.748 92.6358 146.203 92.8708 145.763 93.3408C145.323 93.8008 145.103 94.4608 145.103 95.3208V99.1758H143.843ZM155.772 99.3558C155.062 99.3558 154.432 99.1958 153.882 98.8758C153.332 98.5458 152.897 98.0908 152.577 97.5108C152.267 96.9308 152.112 96.2458 152.112 95.4558C152.112 94.6758 152.267 93.9958 152.577 93.4158C152.887 92.8258 153.317 92.3708 153.867 92.0508C154.427 91.7208 155.072 91.5558 155.802 91.5558C156.522 91.5558 157.142 91.7208 157.662 92.0508C158.192 92.3708 158.597 92.7958 158.877 93.3258C159.157 93.8558 159.297 94.4258 159.297 95.0358C159.297 95.1458 159.292 95.2558 159.282 95.3658C159.282 95.4758 159.282 95.6008 159.282 95.7408H153.357C153.387 96.3108 153.517 96.7858 153.747 97.1658C153.987 97.5358 154.282 97.8158 154.632 98.0058C154.992 98.1958 155.372 98.2908 155.772 98.2908C156.292 98.2908 156.727 98.1708 157.077 97.9308C157.427 97.6908 157.682 97.3658 157.842 96.9558H159.087C158.887 97.6458 158.502 98.2208 157.932 98.6808C157.372 99.1308 156.652 99.3558 155.772 99.3558ZM155.772 92.6208C155.172 92.6208 154.637 92.8058 154.167 93.1758C153.707 93.5358 153.442 94.0658 153.372 94.7658H158.052C158.022 94.0958 157.792 93.5708 157.362 93.1908C156.932 92.8108 156.402 92.6208 155.772 92.6208ZM160.967 99.1758V91.7358H162.107L162.212 93.1608C162.442 92.6708 162.792 92.2808 163.262 91.9908C163.732 91.7008 164.312 91.5558 165.002 91.5558V92.8758H164.657C164.217 92.8758 163.812 92.9558 163.442 93.1158C163.072 93.2658 162.777 93.5258 162.557 93.8958C162.337 94.2658 162.227 94.7758 162.227 95.4258V99.1758H160.967ZM33.5621 122.476V111.736H34.7021L34.8221 112.966C35.0621 112.606 35.4021 112.281 35.8421 111.991C36.2921 111.701 36.8621 111.556 37.5521 111.556C38.2921 111.556 38.9371 111.726 39.4871 112.066C40.0371 112.406 40.4621 112.871 40.7621 113.461C41.0721 114.051 41.2271 114.721 41.2271 115.471C41.2271 116.221 41.0721 116.891 40.7621 117.481C40.4621 118.061 40.0321 118.521 39.4721 118.861C38.9221 119.191 38.2771 119.356 37.5371 119.356C36.9271 119.356 36.3821 119.231 35.9021 118.981C35.4321 118.731 35.0721 118.381 34.8221 117.931V122.476H33.5621ZM37.4021 118.261C37.9021 118.261 38.3421 118.146 38.7221 117.916C39.1021 117.676 39.4021 117.346 39.6221 116.926C39.8421 116.506 39.9521 116.016 39.9521 115.456C39.9521 114.896 39.8421 114.406 39.6221 113.986C39.4021 113.566 39.1021 113.241 38.7221 113.011C38.3421 112.771 37.9021 112.651 37.4021 112.651C36.9021 112.651 36.4621 112.771 36.0821 113.011C35.7021 113.241 35.4021 113.566 35.1821 113.986C34.9621 114.406 34.8521 114.896 34.8521 115.456C34.8521 116.016 34.9621 116.506 35.1821 116.926C35.4021 117.346 35.7021 117.676 36.0821 117.916C36.4621 118.146 36.9021 118.261 37.4021 118.261ZM42.9811 119.176V108.376H44.2411V119.176H42.9811ZM48.7813 119.356C48.1613 119.356 47.6463 119.251 47.2363 119.041C46.8263 118.831 46.5213 118.551 46.3213 118.201C46.1213 117.851 46.0213 117.471 46.0213 117.061C46.0213 116.301 46.3113 115.716 46.8913 115.306C47.4713 114.896 48.2613 114.691 49.2613 114.691H51.2713V114.601C51.2713 113.951 51.1013 113.461 50.7613 113.131C50.4213 112.791 49.9663 112.621 49.3963 112.621C48.9063 112.621 48.4813 112.746 48.1213 112.996C47.7713 113.236 47.5513 113.591 47.4613 114.061H46.1713C46.2213 113.521 46.4013 113.066 46.7113 112.696C47.0313 112.326 47.4263 112.046 47.8963 111.856C48.3663 111.656 48.8663 111.556 49.3963 111.556C50.4363 111.556 51.2163 111.836 51.7363 112.396C52.2663 112.946 52.5313 113.681 52.5313 114.601V119.176H51.4063L51.3313 117.841C51.1213 118.261 50.8113 118.621 50.4013 118.921C50.0013 119.211 49.4613 119.356 48.7813 119.356ZM48.9763 118.291C49.4563 118.291 49.8663 118.166 50.2063 117.916C50.5563 117.666 50.8213 117.341 51.0013 116.941C51.1813 116.541 51.2713 116.121 51.2713 115.681V115.666H49.3663C48.6263 115.666 48.1013 115.796 47.7913 116.056C47.4913 116.306 47.3413 116.621 47.3413 117.001C47.3413 117.391 47.4813 117.706 47.7613 117.946C48.0513 118.176 48.4563 118.291 48.9763 118.291ZM55.0118 122.476L56.8568 118.456H56.4218L53.4668 111.736H54.8318L57.2918 117.526L59.9018 111.736H61.2068L56.3318 122.476H55.0118ZM65.1786 119.356C64.4686 119.356 63.8386 119.196 63.2886 118.876C62.7386 118.546 62.3036 118.091 61.9836 117.511C61.6736 116.931 61.5186 116.246 61.5186 115.456C61.5186 114.676 61.6736 113.996 61.9836 113.416C62.2936 112.826 62.7236 112.371 63.2736 112.051C63.8336 111.721 64.4786 111.556 65.2086 111.556C65.9286 111.556 66.5486 111.721 67.0686 112.051C67.5986 112.371 68.0036 112.796 68.2836 113.326C68.5636 113.856 68.7036 114.426 68.7036 115.036C68.7036 115.146 68.6986 115.256 68.6886 115.366C68.6886 115.476 68.6886 115.601 68.6886 115.741H62.7636C62.7936 116.311 62.9236 116.786 63.1536 117.166C63.3936 117.536 63.6886 117.816 64.0386 118.006C64.3986 118.196 64.7786 118.291 65.1786 118.291C65.6986 118.291 66.1336 118.171 66.4836 117.931C66.8336 117.691 67.0886 117.366 67.2486 116.956H68.4936C68.2936 117.646 67.9086 118.221 67.3386 118.681C66.7786 119.131 66.0586 119.356 65.1786 119.356ZM65.1786 112.621C64.5786 112.621 64.0436 112.806 63.5736 113.176C63.1136 113.536 62.8486 114.066 62.7786 114.766H67.4586C67.4286 114.096 67.1986 113.571 66.7686 113.191C66.3386 112.811 65.8086 112.621 65.1786 112.621ZM70.3737 119.176V111.736H71.5137L71.6187 113.161C71.8487 112.671 72.1987 112.281 72.6687 111.991C73.1387 111.701 73.7187 111.556 74.4087 111.556V112.876H74.0637C73.6237 112.876 73.2187 112.956 72.8487 113.116C72.4787 113.266 72.1837 113.526 71.9637 113.896C71.7437 114.266 71.6337 114.776 71.6337 115.426V119.176H70.3737ZM78.6729 119.356C77.7829 119.356 77.0429 119.131 76.4529 118.681C75.8629 118.231 75.5179 117.621 75.4179 116.851H76.7079C76.7879 117.241 76.9929 117.581 77.3229 117.871C77.6629 118.151 78.1179 118.291 78.6879 118.291C79.2179 118.291 79.6079 118.181 79.8579 117.961C80.1079 117.731 80.2329 117.461 80.2329 117.151C80.2329 116.701 80.0679 116.401 79.7379 116.251C79.4179 116.101 78.9629 115.966 78.3729 115.846C77.9729 115.766 77.5729 115.651 77.1729 115.501C76.7729 115.351 76.4379 115.141 76.1679 114.871C75.8979 114.591 75.7629 114.226 75.7629 113.776C75.7629 113.126 76.0029 112.596 76.4829 112.186C76.9729 111.766 77.6329 111.556 78.4629 111.556C79.2529 111.556 79.8979 111.756 80.3979 112.156C80.9079 112.546 81.2029 113.106 81.2829 113.836H80.0379C79.9879 113.456 79.8229 113.161 79.5429 112.951C79.2729 112.731 78.9079 112.621 78.4479 112.621C77.9979 112.621 77.6479 112.716 77.3979 112.906C77.1579 113.096 77.0379 113.346 77.0379 113.656C77.0379 113.956 77.1929 114.191 77.5029 114.361C77.8229 114.531 78.2529 114.676 78.7929 114.796C79.2529 114.896 79.6879 115.021 80.0979 115.171C80.5179 115.311 80.8579 115.526 81.1179 115.816C81.3879 116.096 81.5229 116.506 81.5229 117.046C81.5329 117.716 81.2779 118.271 80.7579 118.711C80.2479 119.141 79.5529 119.356 78.6729 119.356ZM87.2926 119.176V108.376H88.5526V113.011C88.8026 112.551 89.1576 112.196 89.6176 111.946C90.0776 111.686 90.5776 111.556 91.1176 111.556C91.9776 111.556 92.6676 111.826 93.1876 112.366C93.7076 112.896 93.9676 113.716 93.9676 114.826V119.176H92.7226V114.961C92.7226 113.411 92.0976 112.636 90.8476 112.636C90.1976 112.636 89.6526 112.871 89.2126 113.341C88.7726 113.801 88.5526 114.461 88.5526 115.321V119.176H87.2926ZM98.3516 119.356C97.7316 119.356 97.2166 119.251 96.8066 119.041C96.3966 118.831 96.0916 118.551 95.8916 118.201C95.6916 117.851 95.5916 117.471 95.5916 117.061C95.5916 116.301 95.8816 115.716 96.4616 115.306C97.0416 114.896 97.8316 114.691 98.8316 114.691H100.842V114.601C100.842 113.951 100.672 113.461 100.332 113.131C99.9916 112.791 99.5366 112.621 98.9666 112.621C98.4766 112.621 98.0516 112.746 97.6916 112.996C97.3416 113.236 97.1216 113.591 97.0316 114.061H95.7416C95.7916 113.521 95.9716 113.066 96.2816 112.696C96.6016 112.326 96.9966 112.046 97.4666 111.856C97.9366 111.656 98.4366 111.556 98.9666 111.556C100.007 111.556 100.787 111.836 101.307 112.396C101.837 112.946 102.102 113.681 102.102 114.601V119.176H100.977L100.902 117.841C100.692 118.261 100.382 118.621 99.9716 118.921C99.5716 119.211 99.0316 119.356 98.3516 119.356ZM98.5466 118.291C99.0266 118.291 99.4366 118.166 99.7766 117.916C100.127 117.666 100.392 117.341 100.572 116.941C100.752 116.541 100.842 116.121 100.842 115.681V115.666H98.9366C98.1966 115.666 97.6716 115.796 97.3616 116.056C97.0616 116.306 96.9116 116.621 96.9116 117.001C96.9116 117.391 97.0516 117.706 97.3316 117.946C97.6216 118.176 98.0266 118.291 98.5466 118.291ZM105.858 119.176L103.038 111.736H104.358L106.593 117.961L108.843 111.736H110.133L107.313 119.176H105.858ZM114.5 119.356C113.79 119.356 113.16 119.196 112.61 118.876C112.06 118.546 111.625 118.091 111.305 117.511C110.995 116.931 110.84 116.246 110.84 115.456C110.84 114.676 110.995 113.996 111.305 113.416C111.615 112.826 112.045 112.371 112.595 112.051C113.155 111.721 113.8 111.556 114.53 111.556C115.25 111.556 115.87 111.721 116.39 112.051C116.92 112.371 117.325 112.796 117.605 113.326C117.885 113.856 118.025 114.426 118.025 115.036C118.025 115.146 118.02 115.256 118.01 115.366C118.01 115.476 118.01 115.601 118.01 115.741H112.085C112.115 116.311 112.245 116.786 112.475 117.166C112.715 117.536 113.01 117.816 113.36 118.006C113.72 118.196 114.1 118.291 114.5 118.291C115.02 118.291 115.455 118.171 115.805 117.931C116.155 117.691 116.41 117.366 116.57 116.956H117.815C117.615 117.646 117.23 118.221 116.66 118.681C116.1 119.131 115.38 119.356 114.5 119.356ZM114.5 112.621C113.9 112.621 113.365 112.806 112.895 113.176C112.435 113.536 112.17 114.066 112.1 114.766H116.78C116.75 114.096 116.52 113.571 116.09 113.191C115.66 112.811 115.13 112.621 114.5 112.621ZM126.605 119.176C125.925 119.176 125.39 119.011 125 118.681C124.61 118.351 124.415 117.756 124.415 116.896V112.801H123.125V111.736H124.415L124.58 109.951H125.675V111.736H127.865V112.801H125.675V116.896C125.675 117.366 125.77 117.686 125.96 117.856C126.15 118.016 126.485 118.096 126.965 118.096H127.745V119.176H126.605ZM132.65 119.356C131.95 119.356 131.32 119.196 130.76 118.876C130.2 118.556 129.755 118.106 129.425 117.526C129.105 116.936 128.945 116.246 128.945 115.456C128.945 114.666 129.11 113.981 129.44 113.401C129.77 112.811 130.215 112.356 130.775 112.036C131.345 111.716 131.98 111.556 132.68 111.556C133.38 111.556 134.01 111.716 134.57 112.036C135.13 112.356 135.57 112.811 135.89 113.401C136.22 113.981 136.385 114.666 136.385 115.456C136.385 116.246 136.22 116.936 135.89 117.526C135.56 118.106 135.11 118.556 134.54 118.876C133.98 119.196 133.35 119.356 132.65 119.356ZM132.65 118.276C133.08 118.276 133.48 118.171 133.85 117.961C134.22 117.751 134.52 117.436 134.75 117.016C134.98 116.596 135.095 116.076 135.095 115.456C135.095 114.836 134.98 114.316 134.75 113.896C134.53 113.476 134.235 113.161 133.865 112.951C133.495 112.741 133.1 112.636 132.68 112.636C132.25 112.636 131.85 112.741 131.48 112.951C131.11 113.161 130.81 113.476 130.58 113.896C130.35 114.316 130.235 114.836 130.235 115.456C130.235 116.076 130.35 116.596 130.58 117.016C130.81 117.436 131.105 117.751 131.465 117.961C131.835 118.171 132.23 118.276 132.65 118.276ZM145.047 116.836C144.627 116.836 144.242 116.781 143.892 116.671L143.142 117.376C143.252 117.456 143.387 117.526 143.547 117.586C143.717 117.636 143.957 117.686 144.267 117.736C144.577 117.776 145.012 117.821 145.572 117.871C146.572 117.941 147.287 118.171 147.717 118.561C148.147 118.951 148.362 119.461 148.362 120.091C148.362 120.521 148.242 120.931 148.002 121.321C147.772 121.711 147.412 122.031 146.922 122.281C146.442 122.531 145.822 122.656 145.062 122.656C144.392 122.656 143.797 122.566 143.277 122.386C142.757 122.216 142.352 121.951 142.062 121.591C141.772 121.241 141.627 120.796 141.627 120.256C141.627 119.976 141.702 119.671 141.852 119.341C142.002 119.021 142.282 118.716 142.692 118.426C142.472 118.336 142.282 118.241 142.122 118.141C141.972 118.031 141.832 117.911 141.702 117.781V117.436L142.977 116.176C142.387 115.676 142.092 115.016 142.092 114.196C142.092 113.706 142.207 113.261 142.437 112.861C142.667 112.461 143.002 112.146 143.442 111.916C143.882 111.676 144.417 111.556 145.047 111.556C145.477 111.556 145.867 111.616 146.217 111.736H148.962V112.681L147.567 112.741C147.857 113.161 148.002 113.646 148.002 114.196C148.002 114.686 147.882 115.131 147.642 115.531C147.412 115.931 147.077 116.251 146.637 116.491C146.207 116.721 145.677 116.836 145.047 116.836ZM145.047 115.801C145.577 115.801 145.997 115.666 146.307 115.396C146.627 115.116 146.787 114.716 146.787 114.196C146.787 113.686 146.627 113.296 146.307 113.026C145.997 112.746 145.577 112.606 145.047 112.606C144.507 112.606 144.077 112.746 143.757 113.026C143.447 113.296 143.292 113.686 143.292 114.196C143.292 114.716 143.447 115.116 143.757 115.396C144.077 115.666 144.507 115.801 145.047 115.801ZM142.857 120.136C142.857 120.636 143.067 121.006 143.487 121.246C143.907 121.496 144.432 121.621 145.062 121.621C145.682 121.621 146.177 121.486 146.547 121.216C146.927 120.946 147.117 120.586 147.117 120.136C147.117 119.816 146.987 119.536 146.727 119.296C146.467 119.066 145.987 118.931 145.287 118.891C144.737 118.851 144.262 118.801 143.862 118.741C143.452 118.961 143.182 119.196 143.052 119.446C142.922 119.706 142.857 119.936 142.857 120.136ZM153.098 119.356C152.218 119.356 151.518 119.091 150.998 118.561C150.478 118.021 150.218 117.196 150.218 116.086V111.736H151.478V115.951C151.478 117.501 152.113 118.276 153.383 118.276C154.033 118.276 154.568 118.046 154.988 117.586C155.418 117.116 155.633 116.451 155.633 115.591V111.736H156.893V119.176H155.753L155.663 117.841C155.433 118.311 155.088 118.681 154.628 118.951C154.178 119.221 153.668 119.356 153.098 119.356ZM162.312 119.356C161.602 119.356 160.972 119.196 160.422 118.876C159.872 118.546 159.437 118.091 159.117 117.511C158.807 116.931 158.652 116.246 158.652 115.456C158.652 114.676 158.807 113.996 159.117 113.416C159.427 112.826 159.857 112.371 160.407 112.051C160.967 111.721 161.612 111.556 162.342 111.556C163.062 111.556 163.682 111.721 164.202 112.051C164.732 112.371 165.137 112.796 165.417 113.326C165.697 113.856 165.837 114.426 165.837 115.036C165.837 115.146 165.832 115.256 165.822 115.366C165.822 115.476 165.822 115.601 165.822 115.741H159.897C159.927 116.311 160.057 116.786 160.287 117.166C160.527 117.536 160.822 117.816 161.172 118.006C161.532 118.196 161.912 118.291 162.312 118.291C162.832 118.291 163.267 118.171 163.617 117.931C163.967 117.691 164.222 117.366 164.382 116.956H165.627C165.427 117.646 165.042 118.221 164.472 118.681C163.912 119.131 163.192 119.356 162.312 119.356ZM162.312 112.621C161.712 112.621 161.177 112.806 160.707 113.176C160.247 113.536 159.982 114.066 159.912 114.766H164.592C164.562 114.096 164.332 113.571 163.902 113.191C163.472 112.811 162.942 112.621 162.312 112.621ZM170.357 119.356C169.467 119.356 168.727 119.131 168.137 118.681C167.547 118.231 167.202 117.621 167.102 116.851H168.392C168.472 117.241 168.677 117.581 169.007 117.871C169.347 118.151 169.802 118.291 170.372 118.291C170.902 118.291 171.292 118.181 171.542 117.961C171.792 117.731 171.917 117.461 171.917 117.151C171.917 116.701 171.752 116.401 171.422 116.251C171.102 116.101 170.647 115.966 170.057 115.846C169.657 115.766 169.257 115.651 168.857 115.501C168.457 115.351 168.122 115.141 167.852 114.871C167.582 114.591 167.447 114.226 167.447 113.776C167.447 113.126 167.687 112.596 168.167 112.186C168.657 111.766 169.317 111.556 170.147 111.556C170.937 111.556 171.582 111.756 172.082 112.156C172.592 112.546 172.887 113.106 172.967 113.836H171.722C171.672 113.456 171.507 113.161 171.227 112.951C170.957 112.731 170.592 112.621 170.132 112.621C169.682 112.621 169.332 112.716 169.082 112.906C168.842 113.096 168.722 113.346 168.722 113.656C168.722 113.956 168.877 114.191 169.187 114.361C169.507 114.531 169.937 114.676 170.477 114.796C170.937 114.896 171.372 115.021 171.782 115.171C172.202 115.311 172.542 115.526 172.802 115.816C173.072 116.096 173.207 116.506 173.207 117.046C173.217 117.716 172.962 118.271 172.442 118.711C171.932 119.141 171.237 119.356 170.357 119.356ZM177.857 119.356C176.967 119.356 176.227 119.131 175.637 118.681C175.047 118.231 174.702 117.621 174.602 116.851H175.892C175.972 117.241 176.177 117.581 176.507 117.871C176.847 118.151 177.302 118.291 177.872 118.291C178.402 118.291 178.792 118.181 179.042 117.961C179.292 117.731 179.417 117.461 179.417 117.151C179.417 116.701 179.252 116.401 178.922 116.251C178.602 116.101 178.147 115.966 177.557 115.846C177.157 115.766 176.757 115.651 176.357 115.501C175.957 115.351 175.622 115.141 175.352 114.871C175.082 114.591 174.947 114.226 174.947 113.776C174.947 113.126 175.187 112.596 175.667 112.186C176.157 111.766 176.817 111.556 177.647 111.556C178.437 111.556 179.082 111.756 179.582 112.156C180.092 112.546 180.387 113.106 180.467 113.836H179.222C179.172 113.456 179.007 113.161 178.727 112.951C178.457 112.731 178.092 112.621 177.632 112.621C177.182 112.621 176.832 112.716 176.582 112.906C176.342 113.096 176.222 113.346 176.222 113.656C176.222 113.956 176.377 114.191 176.687 114.361C177.007 114.531 177.437 114.676 177.977 114.796C178.437 114.896 178.872 115.021 179.282 115.171C179.702 115.311 180.042 115.526 180.302 115.816C180.572 116.096 180.707 116.506 180.707 117.046C180.717 117.716 180.462 118.271 179.942 118.711C179.432 119.141 178.737 119.356 177.857 119.356ZM45.4772 139.176L43.3022 131.736H44.5622L46.1372 137.571L47.8772 131.736H49.3022L51.0572 137.571L52.6172 131.736H53.8922L51.7172 139.176H50.4272L48.5972 133.041L46.7672 139.176H45.4772ZM55.2858 139.176V128.376H56.5458V133.011C56.7958 132.551 57.1508 132.196 57.6108 131.946C58.0708 131.686 58.5708 131.556 59.1108 131.556C59.9708 131.556 60.6608 131.826 61.1808 132.366C61.7008 132.896 61.9608 133.716 61.9608 134.826V139.176H60.7158V134.961C60.7158 133.411 60.0908 132.636 58.8408 132.636C58.1908 132.636 57.6458 132.871 57.2058 133.341C56.7658 133.801 56.5458 134.461 56.5458 135.321V139.176H55.2858ZM64.6347 130.086C64.3847 130.086 64.1747 130.006 64.0047 129.846C63.8447 129.676 63.7647 129.466 63.7647 129.216C63.7647 128.976 63.8447 128.776 64.0047 128.616C64.1747 128.456 64.3847 128.376 64.6347 128.376C64.8747 128.376 65.0797 128.456 65.2497 128.616C65.4197 128.776 65.5047 128.976 65.5047 129.216C65.5047 129.466 65.4197 129.676 65.2497 129.846C65.0797 130.006 64.8747 130.086 64.6347 130.086ZM64.0047 139.176V131.736H65.2647V139.176H64.0047ZM70.8786 139.356C70.1686 139.356 69.5286 139.196 68.9586 138.876C68.3986 138.546 67.9536 138.091 67.6236 137.511C67.3036 136.921 67.1436 136.236 67.1436 135.456C67.1436 134.676 67.3036 133.996 67.6236 133.416C67.9536 132.826 68.3986 132.371 68.9586 132.051C69.5286 131.721 70.1686 131.556 70.8786 131.556C71.7586 131.556 72.4986 131.786 73.0986 132.246C73.7086 132.706 74.0936 133.321 74.2536 134.091H72.9636C72.8636 133.631 72.6186 133.276 72.2286 133.026C71.8386 132.766 71.3836 132.636 70.8636 132.636C70.4436 132.636 70.0486 132.741 69.6786 132.951C69.3086 133.161 69.0086 133.476 68.7786 133.896C68.5486 134.316 68.4336 134.836 68.4336 135.456C68.4336 136.076 68.5486 136.596 68.7786 137.016C69.0086 137.436 69.3086 137.756 69.6786 137.976C70.0486 138.186 70.4436 138.291 70.8636 138.291C71.3836 138.291 71.8386 138.166 72.2286 137.916C72.6186 137.656 72.8636 137.291 72.9636 136.821H74.2536C74.1036 137.571 73.7236 138.181 73.1136 138.651C72.5036 139.121 71.7586 139.356 70.8786 139.356ZM76.0133 139.176V128.376H77.2733V133.011C77.5233 132.551 77.8783 132.196 78.3383 131.946C78.7983 131.686 79.2983 131.556 79.8383 131.556C80.6983 131.556 81.3883 131.826 81.9083 132.366C82.4283 132.896 82.6883 133.716 82.6883 134.826V139.176H81.4433V134.961C81.4433 133.411 80.8183 132.636 79.5683 132.636C78.9183 132.636 78.3733 132.871 77.9333 133.341C77.4933 133.801 77.2733 134.461 77.2733 135.321V139.176H76.0133ZM91.957 139.356C91.257 139.356 90.627 139.196 90.067 138.876C89.507 138.556 89.062 138.106 88.732 137.526C88.412 136.936 88.252 136.246 88.252 135.456C88.252 134.666 88.417 133.981 88.747 133.401C89.077 132.811 89.522 132.356 90.082 132.036C90.652 131.716 91.287 131.556 91.987 131.556C92.687 131.556 93.317 131.716 93.877 132.036C94.437 132.356 94.877 132.811 95.197 133.401C95.527 133.981 95.692 134.666 95.692 135.456C95.692 136.246 95.527 136.936 95.197 137.526C94.867 138.106 94.417 138.556 93.847 138.876C93.287 139.196 92.657 139.356 91.957 139.356ZM91.957 138.276C92.387 138.276 92.787 138.171 93.157 137.961C93.527 137.751 93.827 137.436 94.057 137.016C94.287 136.596 94.402 136.076 94.402 135.456C94.402 134.836 94.287 134.316 94.057 133.896C93.837 133.476 93.542 133.161 93.172 132.951C92.802 132.741 92.407 132.636 91.987 132.636C91.557 132.636 91.157 132.741 90.787 132.951C90.417 133.161 90.117 133.476 89.887 133.896C89.657 134.316 89.542 134.836 89.542 135.456C89.542 136.076 89.657 136.596 89.887 137.016C90.117 137.436 90.412 137.751 90.772 137.961C91.142 138.171 91.537 138.276 91.957 138.276ZM97.444 139.176V131.736H98.584L98.659 133.071C98.899 132.601 99.244 132.231 99.694 131.961C100.144 131.691 100.654 131.556 101.224 131.556C102.104 131.556 102.804 131.826 103.324 132.366C103.854 132.896 104.119 133.716 104.119 134.826V139.176H102.859V134.961C102.859 133.411 102.219 132.636 100.939 132.636C100.299 132.636 99.764 132.871 99.334 133.341C98.914 133.801 98.704 134.461 98.704 135.321V139.176H97.444ZM109.373 139.356C108.663 139.356 108.033 139.196 107.483 138.876C106.933 138.546 106.498 138.091 106.178 137.511C105.868 136.931 105.713 136.246 105.713 135.456C105.713 134.676 105.868 133.996 106.178 133.416C106.488 132.826 106.918 132.371 107.468 132.051C108.028 131.721 108.673 131.556 109.403 131.556C110.123 131.556 110.743 131.721 111.263 132.051C111.793 132.371 112.198 132.796 112.478 133.326C112.758 133.856 112.898 134.426 112.898 135.036C112.898 135.146 112.893 135.256 112.883 135.366C112.883 135.476 112.883 135.601 112.883 135.741H106.958C106.988 136.311 107.118 136.786 107.348 137.166C107.588 137.536 107.883 137.816 108.233 138.006C108.593 138.196 108.973 138.291 109.373 138.291C109.893 138.291 110.328 138.171 110.678 137.931C111.028 137.691 111.283 137.366 111.443 136.956H112.688C112.488 137.646 112.103 138.221 111.533 138.681C110.973 139.131 110.253 139.356 109.373 139.356ZM109.373 132.621C108.773 132.621 108.238 132.806 107.768 133.176C107.308 133.536 107.043 134.066 106.973 134.766H111.653C111.623 134.096 111.393 133.571 110.963 133.191C110.533 132.811 110.003 132.621 109.373 132.621ZM120.038 139.176L117.863 131.736H119.123L120.698 137.571L122.438 131.736H123.863L125.618 137.571L127.178 131.736H128.453L126.278 139.176H124.988L123.158 133.041L121.328 139.176H120.038ZM132.058 139.356C131.438 139.356 130.923 139.251 130.513 139.041C130.103 138.831 129.798 138.551 129.598 138.201C129.398 137.851 129.298 137.471 129.298 137.061C129.298 136.301 129.588 135.716 130.168 135.306C130.748 134.896 131.538 134.691 132.538 134.691H134.548V134.601C134.548 133.951 134.378 133.461 134.038 133.131C133.698 132.791 133.243 132.621 132.673 132.621C132.183 132.621 131.758 132.746 131.398 132.996C131.048 133.236 130.828 133.591 130.738 134.061H129.448C129.498 133.521 129.678 133.066 129.988 132.696C130.308 132.326 130.703 132.046 131.173 131.856C131.643 131.656 132.143 131.556 132.673 131.556C133.713 131.556 134.493 131.836 135.013 132.396C135.543 132.946 135.808 133.681 135.808 134.601V139.176H134.683L134.608 137.841C134.398 138.261 134.088 138.621 133.678 138.921C133.278 139.211 132.738 139.356 132.058 139.356ZM132.253 138.291C132.733 138.291 133.143 138.166 133.483 137.916C133.833 137.666 134.098 137.341 134.278 136.941C134.458 136.541 134.548 136.121 134.548 135.681V135.666H132.643C131.903 135.666 131.378 135.796 131.068 136.056C130.768 136.306 130.618 136.621 130.618 137.001C130.618 137.391 130.758 137.706 131.038 137.946C131.328 138.176 131.733 138.291 132.253 138.291ZM140.548 139.356C139.658 139.356 138.918 139.131 138.328 138.681C137.738 138.231 137.393 137.621 137.293 136.851H138.583C138.663 137.241 138.868 137.581 139.198 137.871C139.538 138.151 139.993 138.291 140.563 138.291C141.093 138.291 141.483 138.181 141.733 137.961C141.983 137.731 142.108 137.461 142.108 137.151C142.108 136.701 141.943 136.401 141.613 136.251C141.293 136.101 140.838 135.966 140.248 135.846C139.848 135.766 139.448 135.651 139.048 135.501C138.648 135.351 138.313 135.141 138.043 134.871C137.773 134.591 137.638 134.226 137.638 133.776C137.638 133.126 137.878 132.596 138.358 132.186C138.848 131.766 139.508 131.556 140.338 131.556C141.128 131.556 141.773 131.756 142.273 132.156C142.783 132.546 143.078 133.106 143.158 133.836H141.913C141.863 133.456 141.698 133.161 141.418 132.951C141.148 132.731 140.783 132.621 140.323 132.621C139.873 132.621 139.523 132.716 139.273 132.906C139.033 133.096 138.913 133.346 138.913 133.656C138.913 133.956 139.068 134.191 139.378 134.361C139.698 134.531 140.128 134.676 140.668 134.796C141.128 134.896 141.563 135.021 141.973 135.171C142.393 135.311 142.733 135.526 142.993 135.816C143.263 136.096 143.398 136.506 143.398 137.046C143.408 137.716 143.153 138.271 142.633 138.711C142.123 139.141 141.428 139.356 140.548 139.356ZM152.108 139.176C151.428 139.176 150.893 139.011 150.503 138.681C150.113 138.351 149.918 137.756 149.918 136.896V132.801H148.628V131.736H149.918L150.083 129.951H151.178V131.736H153.368V132.801H151.178V136.896C151.178 137.366 151.273 137.686 151.463 137.856C151.653 138.016 151.988 138.096 152.468 138.096H153.248V139.176H152.108ZM154.968 139.176V128.376H156.228V133.011C156.478 132.551 156.833 132.196 157.293 131.946C157.753 131.686 158.253 131.556 158.793 131.556C159.653 131.556 160.343 131.826 160.863 132.366C161.383 132.896 161.643 133.716 161.643 134.826V139.176H160.398V134.961C160.398 133.411 159.773 132.636 158.523 132.636C157.873 132.636 157.328 132.871 156.888 133.341C156.448 133.801 156.228 134.461 156.228 135.321V139.176H154.968ZM166.897 139.356C166.187 139.356 165.557 139.196 165.007 138.876C164.457 138.546 164.022 138.091 163.702 137.511C163.392 136.931 163.237 136.246 163.237 135.456C163.237 134.676 163.392 133.996 163.702 133.416C164.012 132.826 164.442 132.371 164.992 132.051C165.552 131.721 166.197 131.556 166.927 131.556C167.647 131.556 168.267 131.721 168.787 132.051C169.317 132.371 169.722 132.796 170.002 133.326C170.282 133.856 170.422 134.426 170.422 135.036C170.422 135.146 170.417 135.256 170.407 135.366C170.407 135.476 170.407 135.601 170.407 135.741H164.482C164.512 136.311 164.642 136.786 164.872 137.166C165.112 137.536 165.407 137.816 165.757 138.006C166.117 138.196 166.497 138.291 166.897 138.291C167.417 138.291 167.852 138.171 168.202 137.931C168.552 137.691 168.807 137.366 168.967 136.956H170.212C170.012 137.646 169.627 138.221 169.057 138.681C168.497 139.131 167.777 139.356 166.897 139.356ZM166.897 132.621C166.297 132.621 165.762 132.806 165.292 133.176C164.832 133.536 164.567 134.066 164.497 134.766H169.177C169.147 134.096 168.917 133.571 168.487 133.191C168.057 132.811 167.527 132.621 166.897 132.621ZM41.5412 159.176C40.8612 159.176 40.3262 159.011 39.9362 158.681C39.5462 158.351 39.3512 157.756 39.3512 156.896V152.801H38.0612V151.736H39.3512L39.5162 149.951H40.6112V151.736H42.8012V152.801H40.6112V156.896C40.6112 157.366 40.7062 157.686 40.8962 157.856C41.0862 158.016 41.4212 158.096 41.9012 158.096H42.6812V159.176H41.5412ZM44.402 159.176V151.736H45.542L45.647 153.161C45.877 152.671 46.227 152.281 46.697 151.991C47.167 151.701 47.747 151.556 48.437 151.556V152.876H48.092C47.652 152.876 47.247 152.956 46.877 153.116C46.507 153.266 46.212 153.526 45.992 153.896C45.772 154.266 45.662 154.776 45.662 155.426V159.176H44.402ZM52.5662 159.356C51.6862 159.356 50.9862 159.091 50.4662 158.561C49.9462 158.021 49.6862 157.196 49.6862 156.086V151.736H50.9462V155.951C50.9462 157.501 51.5812 158.276 52.8512 158.276C53.5012 158.276 54.0362 158.046 54.4562 157.586C54.8862 157.116 55.1012 156.451 55.1012 155.591V151.736H56.3612V159.176H55.2212L55.1312 157.841C54.9012 158.311 54.5562 158.681 54.0962 158.951C53.6462 159.221 53.1362 159.356 52.5662 159.356ZM61.3752 159.176C60.6952 159.176 60.1602 159.011 59.7702 158.681C59.3802 158.351 59.1852 157.756 59.1852 156.896V152.801H57.8952V151.736H59.1852L59.3502 149.951H60.4452V151.736H62.6352V152.801H60.4452V156.896C60.4452 157.366 60.5402 157.686 60.7302 157.856C60.9202 158.016 61.2552 158.096 61.7352 158.096H62.5152V159.176H61.3752ZM64.236 159.176V148.376H65.496V153.011C65.746 152.551 66.101 152.196 66.561 151.946C67.021 151.686 67.521 151.556 68.061 151.556C68.921 151.556 69.611 151.826 70.131 152.366C70.651 152.896 70.911 153.716 70.911 154.826V159.176H69.666V154.961C69.666 153.411 69.041 152.636 67.791 152.636C67.141 152.636 66.596 152.871 66.156 153.341C65.716 153.801 65.496 154.461 65.496 155.321V159.176H64.236ZM79.2647 159.356C78.6447 159.356 78.1297 159.251 77.7197 159.041C77.3097 158.831 77.0047 158.551 76.8047 158.201C76.6047 157.851 76.5047 157.471 76.5047 157.061C76.5047 156.301 76.7947 155.716 77.3747 155.306C77.9547 154.896 78.7447 154.691 79.7447 154.691H81.7547V154.601C81.7547 153.951 81.5847 153.461 81.2447 153.131C80.9047 152.791 80.4497 152.621 79.8797 152.621C79.3897 152.621 78.9647 152.746 78.6047 152.996C78.2547 153.236 78.0347 153.591 77.9447 154.061H76.6547C76.7047 153.521 76.8847 153.066 77.1947 152.696C77.5147 152.326 77.9097 152.046 78.3797 151.856C78.8497 151.656 79.3497 151.556 79.8797 151.556C80.9197 151.556 81.6997 151.836 82.2197 152.396C82.7497 152.946 83.0147 153.681 83.0147 154.601V159.176H81.8897L81.8147 157.841C81.6047 158.261 81.2947 158.621 80.8847 158.921C80.4847 159.211 79.9447 159.356 79.2647 159.356ZM79.4597 158.291C79.9397 158.291 80.3497 158.166 80.6897 157.916C81.0397 157.666 81.3047 157.341 81.4847 156.941C81.6647 156.541 81.7547 156.121 81.7547 155.681V155.666H79.8497C79.1097 155.666 78.5847 155.796 78.2747 156.056C77.9747 156.306 77.8247 156.621 77.8247 157.001C77.8247 157.391 77.9647 157.706 78.2447 157.946C78.5347 158.176 78.9397 158.291 79.4597 158.291ZM84.9049 159.176V151.736H86.0449L86.1199 153.071C86.3599 152.601 86.7049 152.231 87.1549 151.961C87.6049 151.691 88.1149 151.556 88.6849 151.556C89.5649 151.556 90.2649 151.826 90.7849 152.366C91.3149 152.896 91.5799 153.716 91.5799 154.826V159.176H90.3199V154.961C90.3199 153.411 89.6799 152.636 88.3999 152.636C87.7599 152.636 87.2249 152.871 86.7949 153.341C86.3749 153.801 86.1649 154.461 86.1649 155.321V159.176H84.9049ZM96.8639 159.356C96.1239 159.356 95.4739 159.186 94.9139 158.846C94.3639 158.506 93.9339 158.041 93.6239 157.451C93.3239 156.861 93.1739 156.191 93.1739 155.441C93.1739 154.691 93.3289 154.026 93.6389 153.446C93.9489 152.856 94.3789 152.396 94.9289 152.066C95.4789 151.726 96.1289 151.556 96.8789 151.556C97.4889 151.556 98.0289 151.681 98.4989 151.931C98.9689 152.181 99.3339 152.531 99.5939 152.981V148.376H100.854V159.176H99.7139L99.5939 157.946C99.3539 158.306 99.0089 158.631 98.5589 158.921C98.1089 159.211 97.5439 159.356 96.8639 159.356ZM96.9989 158.261C97.4989 158.261 97.9389 158.146 98.3189 157.916C98.7089 157.676 99.0089 157.346 99.2189 156.926C99.4389 156.506 99.5489 156.016 99.5489 155.456C99.5489 154.896 99.4389 154.406 99.2189 153.986C99.0089 153.566 98.7089 153.241 98.3189 153.011C97.9389 152.771 97.4989 152.651 96.9989 152.651C96.5089 152.651 96.0689 152.771 95.6789 153.011C95.2989 153.241 94.9989 153.566 94.7789 153.986C94.5689 154.406 94.4639 154.896 94.4639 155.456C94.4639 156.016 94.5689 156.506 94.7789 156.926C94.9989 157.346 95.2989 157.676 95.6789 157.916C96.0689 158.146 96.5089 158.261 96.9989 158.261ZM108.378 159.176L106.203 151.736H107.463L109.038 157.571L110.778 151.736H112.203L113.958 157.571L115.518 151.736H116.793L114.618 159.176H113.328L111.498 153.041L109.668 159.176H108.378ZM118.186 159.176V148.376H119.446V153.011C119.696 152.551 120.051 152.196 120.511 151.946C120.971 151.686 121.471 151.556 122.011 151.556C122.871 151.556 123.561 151.826 124.081 152.366C124.601 152.896 124.861 153.716 124.861 154.826V159.176H123.616V154.961C123.616 153.411 122.991 152.636 121.741 152.636C121.091 152.636 120.546 152.871 120.106 153.341C119.666 153.801 119.446 154.461 119.446 155.321V159.176H118.186ZM127.535 150.086C127.285 150.086 127.075 150.006 126.905 149.846C126.745 149.676 126.665 149.466 126.665 149.216C126.665 148.976 126.745 148.776 126.905 148.616C127.075 148.456 127.285 148.376 127.535 148.376C127.775 148.376 127.98 148.456 128.15 148.616C128.32 148.776 128.405 148.976 128.405 149.216C128.405 149.466 128.32 149.676 128.15 149.846C127.98 150.006 127.775 150.086 127.535 150.086ZM126.905 159.176V151.736H128.165V159.176H126.905ZM133.779 159.356C133.069 159.356 132.429 159.196 131.859 158.876C131.299 158.546 130.854 158.091 130.524 157.511C130.204 156.921 130.044 156.236 130.044 155.456C130.044 154.676 130.204 153.996 130.524 153.416C130.854 152.826 131.299 152.371 131.859 152.051C132.429 151.721 133.069 151.556 133.779 151.556C134.659 151.556 135.399 151.786 135.999 152.246C136.609 152.706 136.994 153.321 137.154 154.091H135.864C135.764 153.631 135.519 153.276 135.129 153.026C134.739 152.766 134.284 152.636 133.764 152.636C133.344 152.636 132.949 152.741 132.579 152.951C132.209 153.161 131.909 153.476 131.679 153.896C131.449 154.316 131.334 154.836 131.334 155.456C131.334 156.076 131.449 156.596 131.679 157.016C131.909 157.436 132.209 157.756 132.579 157.976C132.949 158.186 133.344 158.291 133.764 158.291C134.284 158.291 134.739 158.166 135.129 157.916C135.519 157.656 135.764 157.291 135.864 156.821H137.154C137.004 157.571 136.624 158.181 136.014 158.651C135.404 159.121 134.659 159.356 133.779 159.356ZM138.914 159.176V148.376H140.174V153.011C140.424 152.551 140.779 152.196 141.239 151.946C141.699 151.686 142.199 151.556 142.739 151.556C143.599 151.556 144.289 151.826 144.809 152.366C145.329 152.896 145.589 153.716 145.589 154.826V159.176H144.344V154.961C144.344 153.411 143.719 152.636 142.469 152.636C141.819 152.636 141.274 152.871 140.834 153.341C140.394 153.801 140.174 154.461 140.174 155.321V159.176H138.914ZM154.857 159.356C154.157 159.356 153.527 159.196 152.967 158.876C152.407 158.556 151.962 158.106 151.632 157.526C151.312 156.936 151.152 156.246 151.152 155.456C151.152 154.666 151.317 153.981 151.647 153.401C151.977 152.811 152.422 152.356 152.982 152.036C153.552 151.716 154.187 151.556 154.887 151.556C155.587 151.556 156.217 151.716 156.777 152.036C157.337 152.356 157.777 152.811 158.097 153.401C158.427 153.981 158.592 154.666 158.592 155.456C158.592 156.246 158.427 156.936 158.097 157.526C157.767 158.106 157.317 158.556 156.747 158.876C156.187 159.196 155.557 159.356 154.857 159.356ZM154.857 158.276C155.287 158.276 155.687 158.171 156.057 157.961C156.427 157.751 156.727 157.436 156.957 157.016C157.187 156.596 157.302 156.076 157.302 155.456C157.302 154.836 157.187 154.316 156.957 153.896C156.737 153.476 156.442 153.161 156.072 152.951C155.702 152.741 155.307 152.636 154.887 152.636C154.457 152.636 154.057 152.741 153.687 152.951C153.317 153.161 153.017 153.476 152.787 153.896C152.557 154.316 152.442 154.836 152.442 155.456C152.442 156.076 152.557 156.596 152.787 157.016C153.017 157.436 153.312 157.751 153.672 157.961C154.042 158.171 154.437 158.276 154.857 158.276ZM160.344 159.176V151.736H161.484L161.559 153.071C161.799 152.601 162.144 152.231 162.594 151.961C163.044 151.691 163.554 151.556 164.124 151.556C165.004 151.556 165.704 151.826 166.224 152.366C166.754 152.896 167.019 153.716 167.019 154.826V159.176H165.759V154.961C165.759 153.411 165.119 152.636 163.839 152.636C163.199 152.636 162.664 152.871 162.234 153.341C161.814 153.801 161.604 154.461 161.604 155.321V159.176H160.344ZM172.273 159.356C171.563 159.356 170.933 159.196 170.383 158.876C169.833 158.546 169.398 158.091 169.078 157.511C168.768 156.931 168.613 156.246 168.613 155.456C168.613 154.676 168.768 153.996 169.078 153.416C169.388 152.826 169.818 152.371 170.368 152.051C170.928 151.721 171.573 151.556 172.303 151.556C173.023 151.556 173.643 151.721 174.163 152.051C174.693 152.371 175.098 152.796 175.378 153.326C175.658 153.856 175.798 154.426 175.798 155.036C175.798 155.146 175.793 155.256 175.783 155.366C175.783 155.476 175.783 155.601 175.783 155.741H169.858C169.888 156.311 170.018 156.786 170.248 157.166C170.488 157.536 170.783 157.816 171.133 158.006C171.493 158.196 171.873 158.291 172.273 158.291C172.793 158.291 173.228 158.171 173.578 157.931C173.928 157.691 174.183 157.366 174.343 156.956H175.588C175.388 157.646 175.003 158.221 174.433 158.681C173.873 159.131 173.153 159.356 172.273 159.356ZM172.273 152.621C171.673 152.621 171.138 152.806 170.668 153.176C170.208 153.536 169.943 154.066 169.873 154.766H174.553C174.523 154.096 174.293 153.571 173.863 153.191C173.433 152.811 172.903 152.621 172.273 152.621ZM73.0455 179.176L70.8705 171.736H72.1305L73.7055 177.571L75.4455 171.736H76.8705L78.6255 177.571L80.1855 171.736H81.4605L79.2855 179.176H77.9955L76.1655 173.041L74.3355 179.176H73.0455ZM85.0655 179.356C84.4455 179.356 83.9305 179.251 83.5205 179.041C83.1105 178.831 82.8055 178.551 82.6055 178.201C82.4055 177.851 82.3055 177.471 82.3055 177.061C82.3055 176.301 82.5955 175.716 83.1755 175.306C83.7555 174.896 84.5455 174.691 85.5455 174.691H87.5555V174.601C87.5555 173.951 87.3855 173.461 87.0455 173.131C86.7055 172.791 86.2505 172.621 85.6805 172.621C85.1905 172.621 84.7655 172.746 84.4055 172.996C84.0555 173.236 83.8355 173.591 83.7455 174.061H82.4555C82.5055 173.521 82.6855 173.066 82.9955 172.696C83.3155 172.326 83.7105 172.046 84.1805 171.856C84.6505 171.656 85.1505 171.556 85.6805 171.556C86.7205 171.556 87.5005 171.836 88.0205 172.396C88.5505 172.946 88.8155 173.681 88.8155 174.601V179.176H87.6905L87.6155 177.841C87.4055 178.261 87.0955 178.621 86.6855 178.921C86.2855 179.211 85.7455 179.356 85.0655 179.356ZM85.2605 178.291C85.7405 178.291 86.1505 178.166 86.4905 177.916C86.8405 177.666 87.1055 177.341 87.2855 176.941C87.4655 176.541 87.5555 176.121 87.5555 175.681V175.666H85.6505C84.9105 175.666 84.3855 175.796 84.0755 176.056C83.7755 176.306 83.6255 176.621 83.6255 177.001C83.6255 177.391 83.7655 177.706 84.0455 177.946C84.3355 178.176 84.7405 178.291 85.2605 178.291ZM93.5557 179.356C92.6657 179.356 91.9257 179.131 91.3357 178.681C90.7457 178.231 90.4007 177.621 90.3007 176.851H91.5907C91.6707 177.241 91.8757 177.581 92.2057 177.871C92.5457 178.151 93.0007 178.291 93.5707 178.291C94.1007 178.291 94.4907 178.181 94.7407 177.961C94.9907 177.731 95.1157 177.461 95.1157 177.151C95.1157 176.701 94.9507 176.401 94.6207 176.251C94.3007 176.101 93.8457 175.966 93.2557 175.846C92.8557 175.766 92.4557 175.651 92.0557 175.501C91.6557 175.351 91.3207 175.141 91.0507 174.871C90.7807 174.591 90.6457 174.226 90.6457 173.776C90.6457 173.126 90.8857 172.596 91.3657 172.186C91.8557 171.766 92.5157 171.556 93.3457 171.556C94.1357 171.556 94.7807 171.756 95.2807 172.156C95.7907 172.546 96.0857 173.106 96.1657 173.836H94.9207C94.8707 173.456 94.7057 173.161 94.4257 172.951C94.1557 172.731 93.7907 172.621 93.3307 172.621C92.8807 172.621 92.5307 172.716 92.2807 172.906C92.0407 173.096 91.9207 173.346 91.9207 173.656C91.9207 173.956 92.0757 174.191 92.3857 174.361C92.7057 174.531 93.1357 174.676 93.6757 174.796C94.1357 174.896 94.5707 175.021 94.9807 175.171C95.4007 175.311 95.7407 175.526 96.0007 175.816C96.2707 176.096 96.4057 176.506 96.4057 177.046C96.4157 177.716 96.1607 178.271 95.6407 178.711C95.1307 179.141 94.4357 179.356 93.5557 179.356ZM105.115 179.176C104.435 179.176 103.9 179.011 103.51 178.681C103.12 178.351 102.925 177.756 102.925 176.896V172.801H101.635V171.736H102.925L103.09 169.951H104.185V171.736H106.375V172.801H104.185V176.896C104.185 177.366 104.28 177.686 104.47 177.856C104.66 178.016 104.995 178.096 105.475 178.096H106.255V179.176H105.115ZM107.976 179.176V168.376H109.236V173.011C109.486 172.551 109.841 172.196 110.301 171.946C110.761 171.686 111.261 171.556 111.801 171.556C112.661 171.556 113.351 171.826 113.871 172.366C114.391 172.896 114.651 173.716 114.651 174.826V179.176H113.406V174.961C113.406 173.411 112.781 172.636 111.531 172.636C110.881 172.636 110.336 172.871 109.896 173.341C109.456 173.801 109.236 174.461 109.236 175.321V179.176H107.976ZM119.905 179.356C119.195 179.356 118.565 179.196 118.015 178.876C117.465 178.546 117.03 178.091 116.71 177.511C116.4 176.931 116.245 176.246 116.245 175.456C116.245 174.676 116.4 173.996 116.71 173.416C117.02 172.826 117.45 172.371 118 172.051C118.56 171.721 119.205 171.556 119.935 171.556C120.655 171.556 121.275 171.721 121.795 172.051C122.325 172.371 122.73 172.796 123.01 173.326C123.29 173.856 123.43 174.426 123.43 175.036C123.43 175.146 123.425 175.256 123.415 175.366C123.415 175.476 123.415 175.601 123.415 175.741H117.49C117.52 176.311 117.65 176.786 117.88 177.166C118.12 177.536 118.415 177.816 118.765 178.006C119.125 178.196 119.505 178.291 119.905 178.291C120.425 178.291 120.86 178.171 121.21 177.931C121.56 177.691 121.815 177.366 121.975 176.956H123.22C123.02 177.646 122.635 178.221 122.065 178.681C121.505 179.131 120.785 179.356 119.905 179.356ZM119.905 172.621C119.305 172.621 118.77 172.806 118.3 173.176C117.84 173.536 117.575 174.066 117.505 174.766H122.185C122.155 174.096 121.925 173.571 121.495 173.191C121.065 172.811 120.535 172.621 119.905 172.621ZM129.07 179.176V168.376H130.33V179.176H129.07ZM133.16 170.086C132.91 170.086 132.7 170.006 132.53 169.846C132.37 169.676 132.29 169.466 132.29 169.216C132.29 168.976 132.37 168.776 132.53 168.616C132.7 168.456 132.91 168.376 133.16 168.376C133.4 168.376 133.605 168.456 133.775 168.616C133.945 168.776 134.03 168.976 134.03 169.216C134.03 169.466 133.945 169.676 133.775 169.846C133.605 170.006 133.4 170.086 133.16 170.086ZM132.53 179.176V171.736H133.79V179.176H132.53ZM139.329 179.356C138.619 179.356 137.989 179.196 137.439 178.876C136.889 178.546 136.454 178.091 136.134 177.511C135.824 176.931 135.669 176.246 135.669 175.456C135.669 174.676 135.824 173.996 136.134 173.416C136.444 172.826 136.874 172.371 137.424 172.051C137.984 171.721 138.629 171.556 139.359 171.556C140.079 171.556 140.699 171.721 141.219 172.051C141.749 172.371 142.154 172.796 142.434 173.326C142.714 173.856 142.854 174.426 142.854 175.036C142.854 175.146 142.849 175.256 142.839 175.366C142.839 175.476 142.839 175.601 142.839 175.741H136.914C136.944 176.311 137.074 176.786 137.304 177.166C137.544 177.536 137.839 177.816 138.189 178.006C138.549 178.196 138.929 178.291 139.329 178.291C139.849 178.291 140.284 178.171 140.634 177.931C140.984 177.691 141.239 177.366 141.399 176.956H142.644C142.444 177.646 142.059 178.221 141.489 178.681C140.929 179.131 140.209 179.356 139.329 179.356ZM139.329 172.621C138.729 172.621 138.194 172.806 137.724 173.176C137.264 173.536 136.999 174.066 136.929 174.766H141.609C141.579 174.096 141.349 173.571 140.919 173.191C140.489 172.811 139.959 172.621 139.329 172.621Z" fill="white"/>
<defs>
<filter id="filter0_d" x="0" y="18.9375" width="214" height="217.559" filterUnits="userSpaceOnUse" color-interpolation-filters="sRGB">
<feFlood flood-opacity="0" result="BackgroundImageFix"/>
<feColorMatrix in="SourceAlpha" type="matrix" values="0 0 0 0 0 0 0 0 0 0 0 0 0 0 0 0 0 0 127 0"/>
<feOffset dy="1"/>
<feGaussianBlur stdDeviation="1"/>
<feColorMatrix type="matrix" values="0 0 0 0 0.0588235 0 0 0 0 0.0588235 0 0 0 0 0.0588235 0 0 0 0.1 0"/>
<feBlend mode="normal" in2="BackgroundImageFix" result="effect1_dropShadow"/>
<feBlend mode="normal" in="SourceGraphic" in2="effect1_dropShadow" result="shape"/>
</filter>
</defs>
</svg>
