<svg width="214" height="237" viewBox="0 0 214 237" fill="none" xmlns="http://www.w3.org/2000/svg">
<g filter="url(#filter0_d)">
<rect x="2" y="19.5762" width="210" height="213.559" rx="20" fill="#FF6105"/>
</g>
<path d="M33.1445 10C33.1445 4.47715 37.6217 0 43.1445 0H170.856C176.379 0 180.856 4.47715 180.856 10V19.5763H33.1445V10Z" fill="#F12587"/>
<path d="M92.043 14.9473C91.119 14.9473 90.3117 14.7373 89.621 14.3173C88.9304 13.8973 88.3937 13.314 88.011 12.5673C87.6284 11.8113 87.437 10.934 87.437 9.9353C87.437 8.9273 87.633 8.04063 88.025 7.2753C88.4264 6.50063 88.991 5.89863 89.719 5.4693C90.4564 5.03063 91.329 4.8113 92.337 4.8113C93.485 4.8113 94.437 5.08663 95.193 5.6373C95.949 6.18796 96.439 6.94863 96.663 7.9193H94.661C94.5117 7.46196 94.241 7.1073 93.849 6.8553C93.457 6.59396 92.953 6.4633 92.337 6.4633C91.357 6.4633 90.601 6.77596 90.069 7.4013C89.537 8.0173 89.271 8.86663 89.271 9.9493C89.271 11.032 89.5324 11.872 90.055 12.4693C90.587 13.0573 91.3057 13.3513 92.211 13.3513C93.0977 13.3513 93.765 13.1133 94.213 12.6373C94.6704 12.152 94.9457 11.5173 95.039 10.7333H92.561V9.3893H96.845V14.7793H95.193L95.053 13.4913C94.7357 13.958 94.339 14.3173 93.863 14.5693C93.387 14.8213 92.7804 14.9473 92.043 14.9473ZM100.939 14.9473C100.342 14.9473 99.8518 14.854 99.4691 14.6673C99.0865 14.4713 98.8018 14.2146 98.6151 13.8973C98.4285 13.58 98.3351 13.23 98.3351 12.8473C98.3351 12.2033 98.5871 11.6806 99.0911 11.2793C99.5951 10.878 100.351 10.6773 101.359 10.6773H103.123V10.5093C103.123 10.0333 102.988 9.6833 102.717 9.4593C102.446 9.2353 102.11 9.1233 101.709 9.1233C101.345 9.1233 101.028 9.21196 100.757 9.3893C100.486 9.5573 100.318 9.8093 100.253 10.1453H98.5031C98.5498 9.6413 98.7178 9.20263 99.0071 8.8293C99.3058 8.45596 99.6885 8.1713 100.155 7.9753C100.622 7.76996 101.144 7.6673 101.723 7.6673C102.712 7.6673 103.492 7.91463 104.061 8.4093C104.63 8.90396 104.915 9.60396 104.915 10.5093V14.7793H103.389L103.221 13.6593C103.016 14.0326 102.726 14.3406 102.353 14.5833C101.989 14.826 101.518 14.9473 100.939 14.9473ZM101.345 13.5473C101.858 13.5473 102.255 13.3793 102.535 13.0433C102.824 12.7073 103.006 12.292 103.081 11.7973H101.555C101.079 11.7973 100.738 11.886 100.533 12.0633C100.328 12.2313 100.225 12.4413 100.225 12.6933C100.225 12.964 100.328 13.174 100.533 13.3233C100.738 13.4726 101.009 13.5473 101.345 13.5473ZM106.625 14.7793V7.8353H108.207L108.361 8.7733C108.585 8.4373 108.879 8.1713 109.243 7.9753C109.617 7.76996 110.046 7.6673 110.531 7.6673C111.605 7.6673 112.365 8.08263 112.813 8.9133C113.065 8.53063 113.401 8.2273 113.821 8.0033C114.251 7.7793 114.717 7.6673 115.221 7.6673C116.127 7.6673 116.822 7.93796 117.307 8.4793C117.793 9.02063 118.035 9.81396 118.035 10.8593V14.7793H116.243V11.0273C116.243 10.43 116.127 9.97263 115.893 9.6553C115.669 9.33796 115.319 9.1793 114.843 9.1793C114.358 9.1793 113.966 9.35663 113.667 9.7113C113.378 10.066 113.233 10.5606 113.233 11.1953V14.7793H111.441V11.0273C111.441 10.43 111.325 9.97263 111.091 9.6553C110.858 9.33796 110.499 9.1793 110.013 9.1793C109.537 9.1793 109.15 9.35663 108.851 9.7113C108.562 10.066 108.417 10.5606 108.417 11.1953V14.7793H106.625ZM123.111 14.9473C122.411 14.9473 121.79 14.798 121.249 14.4993C120.707 14.2006 120.283 13.7806 119.975 13.2393C119.667 12.698 119.513 12.0726 119.513 11.3633C119.513 10.6446 119.662 10.0053 119.961 9.4453C120.269 8.8853 120.689 8.4513 121.221 8.1433C121.762 7.82596 122.397 7.6673 123.125 7.6673C123.806 7.6673 124.408 7.81663 124.931 8.1153C125.453 8.41396 125.859 8.82463 126.149 9.3473C126.447 9.86063 126.597 10.4346 126.597 11.0693C126.597 11.172 126.592 11.2793 126.583 11.3913C126.583 11.5033 126.578 11.62 126.569 11.7413H121.291C121.328 12.2826 121.515 12.7073 121.851 13.0153C122.196 13.3233 122.611 13.4773 123.097 13.4773C123.461 13.4773 123.764 13.398 124.007 13.2393C124.259 13.0713 124.445 12.8566 124.567 12.5953H126.387C126.256 13.034 126.037 13.4353 125.729 13.7993C125.43 14.154 125.057 14.434 124.609 14.6393C124.17 14.8446 123.671 14.9473 123.111 14.9473ZM123.125 9.1233C122.686 9.1233 122.299 9.2493 121.963 9.5013C121.627 9.74396 121.412 10.1173 121.319 10.6213H124.777C124.749 10.164 124.581 9.79996 124.273 9.5293C123.965 9.25863 123.582 9.1233 123.125 9.1233Z" fill="white"/>
<path d="M48.7098 61.8145V49.8745H44.6298V47.8145H55.3698V49.8745H51.2698V61.8145H48.7098ZM56.2297 61.8145V51.8945H58.5097L58.7497 53.7545C59.1097 53.1145 59.5964 52.6078 60.2097 52.2345C60.8364 51.8478 61.5697 51.6545 62.4097 51.6545V54.3545H61.6897C61.1297 54.3545 60.6297 54.4411 60.1897 54.6145C59.7497 54.7878 59.403 55.0878 59.1497 55.5145C58.9097 55.9411 58.7897 56.5345 58.7897 57.2945V61.8145H56.2297ZM67.8794 62.0545C66.6394 62.0545 65.6794 61.6678 64.9994 60.8945C64.3327 60.1211 63.9994 58.9878 63.9994 57.4945V51.8945H66.5394V57.2545C66.5394 58.1078 66.7127 58.7611 67.0594 59.2145C67.406 59.6678 67.9527 59.8945 68.6994 59.8945C69.406 59.8945 69.986 59.6411 70.4394 59.1345C70.906 58.6278 71.1394 57.9211 71.1394 57.0145V51.8945H73.6994V61.8145H71.4394L71.2394 60.1345C70.9327 60.7211 70.486 61.1878 69.8994 61.5345C69.326 61.8811 68.6527 62.0545 67.8794 62.0545ZM80.7473 61.8145C79.7073 61.8145 78.874 61.5611 78.2473 61.0545C77.6207 60.5478 77.3073 59.6478 77.3073 58.3545V54.0345H75.6073V51.8945H77.3073L77.6073 49.2345H79.8673V51.8945H82.5473V54.0345H79.8673V58.3745C79.8673 58.8545 79.9673 59.1878 80.1673 59.3745C80.3807 59.5478 80.7407 59.6345 81.2473 59.6345H82.4873V61.8145H80.7473ZM84.7453 61.8145V47.4145H87.3053V53.4145C87.6386 52.8678 88.0853 52.4411 88.6453 52.1345C89.2186 51.8145 89.872 51.6545 90.6053 51.6545C91.832 51.6545 92.7786 52.0411 93.4453 52.8145C94.1253 53.5878 94.4653 54.7211 94.4653 56.2145V61.8145H91.9253V56.4545C91.9253 55.6011 91.752 54.9478 91.4053 54.4945C91.072 54.0411 90.5386 53.8145 89.8053 53.8145C89.0853 53.8145 88.4853 54.0678 88.0053 54.5745C87.5386 55.0811 87.3053 55.7878 87.3053 56.6945V61.8145H84.7453ZM101.013 62.0545C100.133 62.0545 99.3599 61.9145 98.6933 61.6345C98.0266 61.3411 97.4933 60.9411 97.0933 60.4345C96.6933 59.9278 96.4533 59.3411 96.3733 58.6745H98.9533C99.0333 59.0611 99.2466 59.3945 99.5933 59.6745C99.9533 59.9411 100.413 60.0745 100.973 60.0745C101.533 60.0745 101.94 59.9611 102.193 59.7345C102.46 59.5078 102.593 59.2478 102.593 58.9545C102.593 58.5278 102.407 58.2411 102.033 58.0945C101.66 57.9345 101.14 57.7811 100.473 57.6345C100.047 57.5411 99.6133 57.4278 99.1733 57.2945C98.7333 57.1611 98.3266 56.9945 97.9533 56.7945C97.5933 56.5811 97.2999 56.3145 97.0733 55.9945C96.8466 55.6611 96.7333 55.2545 96.7333 54.7745C96.7333 53.8945 97.0799 53.1545 97.7733 52.5545C98.4799 51.9545 99.4666 51.6545 100.733 51.6545C101.907 51.6545 102.84 51.9278 103.533 52.4745C104.24 53.0211 104.66 53.7745 104.793 54.7345H102.373C102.227 54.0011 101.673 53.6345 100.713 53.6345C100.233 53.6345 99.8599 53.7278 99.5933 53.9145C99.3399 54.1011 99.2133 54.3345 99.2133 54.6145C99.2133 54.9078 99.4066 55.1411 99.7933 55.3145C100.18 55.4878 100.693 55.6478 101.333 55.7945C102.027 55.9545 102.66 56.1345 103.233 56.3345C103.82 56.5211 104.287 56.8078 104.633 57.1945C104.98 57.5678 105.153 58.1078 105.153 58.8145C105.167 59.4278 105.007 59.9811 104.673 60.4745C104.34 60.9678 103.86 61.3545 103.233 61.6345C102.607 61.9145 101.867 62.0545 101.013 62.0545ZM116.727 62.0345C115.7 62.0345 114.807 61.8611 114.047 61.5145C113.287 61.1545 112.693 60.6545 112.267 60.0145C111.853 59.3745 111.647 58.6278 111.647 57.7745C111.647 56.8678 111.9 56.0478 112.407 55.3145C112.913 54.5811 113.667 53.9945 114.667 53.5545C114.267 53.0878 113.98 52.6478 113.807 52.2345C113.633 51.8211 113.547 51.3811 113.547 50.9145C113.547 50.2745 113.707 49.7078 114.027 49.2145C114.347 48.7078 114.8 48.3078 115.387 48.0145C115.987 47.7211 116.7 47.5745 117.527 47.5745C118.367 47.5745 119.08 47.7278 119.667 48.0345C120.253 48.3411 120.693 48.7545 120.987 49.2745C121.293 49.7945 121.433 50.3745 121.407 51.0145H118.967C118.967 50.5211 118.82 50.1545 118.527 49.9145C118.247 49.6611 117.907 49.5345 117.507 49.5345C117.053 49.5345 116.687 49.6611 116.407 49.9145C116.14 50.1678 116.007 50.4945 116.007 50.8945C116.007 51.2278 116.113 51.5678 116.327 51.9145C116.54 52.2611 116.853 52.6611 117.267 53.1145L121.187 56.9945C121.467 56.5411 121.76 56.0145 122.067 55.4145L122.507 54.5345H125.127L124.427 55.8945C123.893 56.9745 123.36 57.8878 122.827 58.6345L126.047 61.8145H122.987L121.427 60.2545C120.747 60.8811 120.02 61.3345 119.247 61.6145C118.487 61.8945 117.647 62.0345 116.727 62.0345ZM114.127 57.6145C114.127 58.2678 114.367 58.8211 114.847 59.2745C115.34 59.7145 115.993 59.9345 116.807 59.9345C117.967 59.9345 118.973 59.5211 119.827 58.6945L116.127 55.0345C115.447 55.3278 114.94 55.6945 114.607 56.1345C114.287 56.5745 114.127 57.0678 114.127 57.6145ZM132.462 61.8145V47.8145H135.022V59.8145H141.222V61.8145H132.462ZM144.797 50.3545C144.331 50.3545 143.944 50.2145 143.637 49.9345C143.344 49.6545 143.197 49.3011 143.197 48.8745C143.197 48.4478 143.344 48.1011 143.637 47.8345C143.944 47.5545 144.331 47.4145 144.797 47.4145C145.264 47.4145 145.644 47.5545 145.937 47.8345C146.244 48.1011 146.397 48.4478 146.397 48.8745C146.397 49.3011 146.244 49.6545 145.937 49.9345C145.644 50.2145 145.264 50.3545 144.797 50.3545ZM143.517 61.8145V51.8945H146.077V61.8145H143.517ZM153.569 62.0545C152.569 62.0545 151.683 61.8411 150.909 61.4145C150.136 60.9878 149.529 60.3878 149.089 59.6145C148.649 58.8411 148.429 57.9478 148.429 56.9345C148.429 55.9078 148.643 54.9945 149.069 54.1945C149.509 53.3945 150.109 52.7745 150.869 52.3345C151.643 51.8811 152.549 51.6545 153.589 51.6545C154.563 51.6545 155.423 51.8678 156.169 52.2945C156.916 52.7211 157.496 53.3078 157.909 54.0545C158.336 54.7878 158.549 55.6078 158.549 56.5145C158.549 56.6611 158.543 56.8145 158.529 56.9745C158.529 57.1345 158.523 57.3011 158.509 57.4745H150.969C151.023 58.2478 151.289 58.8545 151.769 59.2945C152.263 59.7345 152.856 59.9545 153.549 59.9545C154.069 59.9545 154.503 59.8411 154.849 59.6145C155.209 59.3745 155.476 59.0678 155.649 58.6945H158.249C158.063 59.3211 157.749 59.8945 157.309 60.4145C156.883 60.9211 156.349 61.3211 155.709 61.6145C155.083 61.9078 154.369 62.0545 153.569 62.0545ZM153.589 53.7345C152.963 53.7345 152.409 53.9145 151.929 54.2745C151.449 54.6211 151.143 55.1545 151.009 55.8745H155.949C155.909 55.2211 155.669 54.7011 155.229 54.3145C154.789 53.9278 154.243 53.7345 153.589 53.7345ZM164.802 62.0545C163.922 62.0545 163.149 61.9145 162.482 61.6345C161.816 61.3411 161.282 60.9411 160.882 60.4345C160.482 59.9278 160.242 59.3411 160.162 58.6745H162.742C162.822 59.0611 163.036 59.3945 163.382 59.6745C163.742 59.9411 164.202 60.0745 164.762 60.0745C165.322 60.0745 165.729 59.9611 165.982 59.7345C166.249 59.5078 166.382 59.2478 166.382 58.9545C166.382 58.5278 166.196 58.2411 165.822 58.0945C165.449 57.9345 164.929 57.7811 164.262 57.6345C163.836 57.5411 163.402 57.4278 162.962 57.2945C162.522 57.1611 162.116 56.9945 161.742 56.7945C161.382 56.5811 161.089 56.3145 160.862 55.9945C160.636 55.6611 160.522 55.2545 160.522 54.7745C160.522 53.8945 160.869 53.1545 161.562 52.5545C162.269 51.9545 163.256 51.6545 164.522 51.6545C165.696 51.6545 166.629 51.9278 167.322 52.4745C168.029 53.0211 168.449 53.7745 168.582 54.7345H166.162C166.016 54.0011 165.462 53.6345 164.502 53.6345C164.022 53.6345 163.649 53.7278 163.382 53.9145C163.129 54.1011 163.002 54.3345 163.002 54.6145C163.002 54.9078 163.196 55.1411 163.582 55.3145C163.969 55.4878 164.482 55.6478 165.122 55.7945C165.816 55.9545 166.449 56.1345 167.022 56.3345C167.609 56.5211 168.076 56.8078 168.422 57.1945C168.769 57.5678 168.942 58.1078 168.942 58.8145C168.956 59.4278 168.796 59.9811 168.462 60.4745C168.129 60.9678 167.649 61.3545 167.022 61.6345C166.396 61.9145 165.656 62.0545 164.802 62.0545Z" fill="white"/>
<path d="M129.1 94.3628C127.204 91.1985 123.452 91.051 123.452 91.051C123.452 91.051 119.797 90.5893 117.451 95.4087C115.266 99.9007 112.249 104.238 116.966 105.289L117.818 102.67L118.345 105.484C119.017 105.532 119.691 105.543 120.364 105.518C125.415 105.357 130.226 105.566 130.071 103.775C129.865 101.396 130.925 97.4076 129.1 94.3628Z" fill="#F7DFA2"/>
<path d="M111.117 111.258L109.459 115.408L101.165 122.987C101.165 122.987 96.189 126.596 98.4006 127.679C100.612 128.762 102.64 123.709 102.64 123.709L111.486 118.476L113.329 112.521L111.117 111.258Z" fill="#FFB8B8"/>
<path d="M113.883 157.277L115.542 161.427H117.937L115.91 156.555L113.883 157.277Z" fill="#FFB8B8"/>
<path d="M121.07 159.081L122.729 163.232H125.125L123.098 158.359L121.07 159.081Z" fill="#FFB8B8"/>
<path d="M120.886 159.801L124.019 159.079L119.964 143.019L121.311 130.661L121.347 130.657C121.347 130.657 123.65 121.905 121.807 119.56C119.964 117.214 110.749 118.116 110.749 118.116C110.749 118.116 107.248 121.545 107.432 129.304C107.616 137.064 107.432 143.74 108.722 146.808C110.012 149.876 113.698 157.996 113.698 157.996L116.647 157.635L113.514 144.282L113.013 132.674C113.412 137.325 114.214 146.146 114.62 146.808C115.173 147.71 120.886 159.801 120.886 159.801Z" fill="#2F2E41"/>
<path d="M130.286 115.049L131.576 119.56L137.29 129.666C137.29 129.666 142.266 133.996 140.238 134.538C138.211 135.079 135.078 130.568 135.078 130.568L128.627 121.726L126.969 115.229L130.286 115.049Z" fill="#FFB8B8"/>
<path d="M123.65 102.236C126.194 102.236 128.257 100.216 128.257 97.7242C128.257 95.2327 126.194 93.2129 123.65 93.2129C121.105 93.2129 119.042 95.2327 119.042 97.7242C119.042 100.216 121.105 102.236 123.65 102.236Z" fill="#FFB8B8"/>
<path d="M121.254 100.07L120.149 103.499L118.306 107.469L125.125 104.762C125.125 104.762 124.756 101.875 125.125 101.153L121.254 100.07Z" fill="#FFB8B8"/>
<path d="M129.181 107.288L124.942 103.859L120.15 105.844L120.338 102.916L115.225 104.515L114.437 104.761L113.331 110.355C113.331 110.355 112.594 110.897 111.857 113.964C111.431 115.767 110.813 117.521 110.014 119.198C110.014 119.198 117.939 116.13 121.809 120.28C121.809 120.28 122.362 119.919 122.178 119.378C121.993 118.837 123.836 116.13 123.836 116.13C123.836 116.13 123.836 116.671 124.573 115.589C125.311 114.506 125.864 114.325 125.864 114.325L129.181 107.288Z" fill="#5B59E3"/>
<path d="M115.543 105.303L114.738 104.668C114.738 104.668 114.069 104.401 113.516 105.303C112.963 106.205 110.198 111.799 110.198 111.799L113.516 113.424L115.543 105.303Z" fill="#5B59E3"/>
<path d="M126.599 107.107L129.179 107.288C129.179 107.288 130.653 108.01 130.653 109.092C130.653 110.175 131.022 115.95 131.022 115.95L126.967 117.213L125.309 112.16L126.599 107.107Z" fill="#5B59E3"/>
<path d="M115.008 160.795L111.875 162.058C111.875 162.058 108.189 162.239 108.742 164.043C109.295 165.848 114.824 164.585 114.824 164.585C114.824 164.585 119.8 164.765 119.8 163.502C119.8 162.239 119.063 160.795 118.326 160.795H115.008Z" fill="#2F2E41"/>
<path d="M122.014 162.418L118.881 163.681C118.881 163.681 115.195 163.862 115.748 165.666C116.301 167.471 121.83 166.207 121.83 166.207C121.83 166.207 126.806 166.388 126.806 165.125C126.806 163.862 126.069 162.418 125.332 162.418H122.014Z" fill="#2F2E41"/>
<path d="M128.265 94.0581L124.558 92.1406L119.44 92.9251L118.381 97.5441L121.017 97.4442L121.753 95.747V97.4162L122.97 97.37L123.676 94.6682L124.117 97.5441L128.441 97.457L128.265 94.0581Z" fill="#F7DFA2"/>
<path d="M101.903 128.352C101.497 128.537 101.033 128.556 100.612 128.405C100.192 128.254 99.8496 127.946 99.6612 127.548L89.9506 107.056C89.7623 106.658 89.743 106.203 89.8969 105.792C90.0509 105.38 90.3655 105.045 90.7717 104.861C91.1778 104.676 91.6421 104.657 92.0626 104.808C92.483 104.958 92.8251 105.267 93.0135 105.664L102.724 126.157C102.913 126.555 102.932 127.009 102.778 127.421C102.624 127.833 102.309 128.168 101.903 128.352Z" fill="#3F3D56"/>
<path d="M92.1902 107.859C89.7671 108.959 87.065 109.332 84.4256 108.929C81.7863 108.526 79.3282 107.366 77.3623 105.595C75.3963 103.824 74.0108 101.523 73.3809 98.981C72.751 96.4393 72.905 93.7718 73.8235 91.3158C74.7419 88.8598 76.3836 86.7256 78.5408 85.1832C80.6981 83.6407 83.274 82.7592 85.9429 82.6502C88.6119 82.5411 91.2539 83.2094 93.5348 84.5706C95.8158 85.9317 97.6334 87.9246 98.7576 90.2972C100.261 93.4792 100.414 97.1152 99.1826 100.407C97.9514 103.7 95.4367 106.379 92.1902 107.859ZM82.2428 86.8658C80.4255 87.6914 78.899 89.0261 77.8563 90.7011C76.8137 92.3762 76.3018 94.3163 76.3853 96.2762C76.4688 98.2361 77.144 100.128 78.3256 101.712C79.5071 103.296 81.1418 104.502 83.0231 105.176C84.9044 105.85 86.9477 105.964 88.8946 105.501C90.8415 105.038 92.6047 104.021 93.961 102.577C95.3174 101.134 96.206 99.3286 96.5146 97.3904C96.8232 95.4522 96.5379 93.468 95.6947 91.6885C94.5617 89.3045 92.5091 87.4579 89.9872 86.5537C87.4654 85.6496 84.6803 85.7619 82.2428 86.8658Z" fill="#3F3D56"/>
<defs>
<filter id="filter0_d" x="0" y="18.5762" width="214" height="217.559" filterUnits="userSpaceOnUse" color-interpolation-filters="sRGB">
<feFlood flood-opacity="0" result="BackgroundImageFix"/>
<feColorMatrix in="SourceAlpha" type="matrix" values="0 0 0 0 0 0 0 0 0 0 0 0 0 0 0 0 0 0 127 0"/>
<feOffset dy="1"/>
<feGaussianBlur stdDeviation="1"/>
<feColorMatrix type="matrix" values="0 0 0 0 0.0588235 0 0 0 0 0.0588235 0 0 0 0 0.0588235 0 0 0 0.1 0"/>
<feBlend mode="normal" in2="BackgroundImageFix" result="effect1_dropShadow"/>
<feBlend mode="normal" in="SourceGraphic" in2="effect1_dropShadow" result="shape"/>
</filter>
</defs>
</svg>
