<svg width="214" height="237" viewBox="0 0 214 237" fill="none" xmlns="http://www.w3.org/2000/svg">
<g filter="url(#filter0_d)">
<rect x="2" y="20.2988" width="210" height="213.559" rx="20" fill="#01AD5A"/>
</g>
<path d="M33.1445 10.7227C33.1445 5.19981 37.6217 0.722656 43.1445 0.722656H170.856C176.379 0.722656 180.856 5.19981 180.856 10.7227V20.2989H33.1445V10.7227Z" fill="#F12587"/>
<path d="M92.044 15.67C91.12 15.67 90.3127 15.46 89.622 15.04C88.9313 14.62 88.3947 14.0366 88.012 13.29C87.6293 12.534 87.438 11.6566 87.438 10.658C87.438 9.64995 87.634 8.76329 88.026 7.99795C88.4273 7.22329 88.992 6.62129 89.72 6.19195C90.4573 5.75329 91.33 5.53395 92.338 5.53395C93.486 5.53395 94.438 5.80929 95.194 6.35995C95.95 6.91062 96.44 7.67129 96.664 8.64195H94.662C94.5127 8.18462 94.242 7.82995 93.85 7.57795C93.458 7.31662 92.954 7.18595 92.338 7.18595C91.358 7.18595 90.602 7.49862 90.07 8.12395C89.538 8.73995 89.272 9.58929 89.272 10.672C89.272 11.7546 89.5333 12.5946 90.056 13.192C90.588 13.78 91.3067 14.074 92.212 14.074C93.0987 14.074 93.766 13.836 94.214 13.36C94.6713 12.8746 94.9467 12.24 95.04 11.456H92.562V10.112H96.846V15.502H95.194L95.054 14.214C94.7367 14.6806 94.34 15.04 93.864 15.292C93.388 15.544 92.7813 15.67 92.044 15.67ZM100.94 15.67C100.343 15.67 99.8528 15.5766 99.4701 15.39C99.0875 15.194 98.8028 14.9373 98.6161 14.62C98.4295 14.3026 98.3361 13.9526 98.3361 13.57C98.3361 12.926 98.5881 12.4033 99.0921 12.002C99.5961 11.6006 100.352 11.4 101.36 11.4H103.124V11.232C103.124 10.756 102.989 10.406 102.718 10.182C102.447 9.95795 102.111 9.84595 101.71 9.84595C101.346 9.84595 101.029 9.93462 100.758 10.112C100.487 10.28 100.319 10.532 100.254 10.868H98.5041C98.5508 10.364 98.7188 9.92529 99.0081 9.55195C99.3068 9.17862 99.6895 8.89395 100.156 8.69795C100.623 8.49262 101.145 8.38995 101.724 8.38995C102.713 8.38995 103.493 8.63729 104.062 9.13195C104.631 9.62662 104.916 10.3266 104.916 11.232V15.502H103.39L103.222 14.382C103.017 14.7553 102.727 15.0633 102.354 15.306C101.99 15.5486 101.519 15.67 100.94 15.67ZM101.346 14.27C101.859 14.27 102.256 14.102 102.536 13.766C102.825 13.43 103.007 13.0146 103.082 12.52H101.556C101.08 12.52 100.739 12.6086 100.534 12.786C100.329 12.954 100.226 13.164 100.226 13.416C100.226 13.6866 100.329 13.8966 100.534 14.046C100.739 14.1953 101.01 14.27 101.346 14.27ZM106.626 15.502V8.55795H108.208L108.362 9.49595C108.586 9.15995 108.88 8.89395 109.244 8.69795C109.618 8.49262 110.047 8.38995 110.532 8.38995C111.606 8.38995 112.366 8.80529 112.814 9.63595C113.066 9.25329 113.402 8.94995 113.822 8.72595C114.252 8.50195 114.718 8.38995 115.222 8.38995C116.128 8.38995 116.823 8.66062 117.308 9.20195C117.794 9.74329 118.036 10.5366 118.036 11.582V15.502H116.244V11.75C116.244 11.1526 116.128 10.6953 115.894 10.378C115.67 10.0606 115.32 9.90195 114.844 9.90195C114.359 9.90195 113.967 10.0793 113.668 10.434C113.379 10.7886 113.234 11.2833 113.234 11.918V15.502H111.442V11.75C111.442 11.1526 111.326 10.6953 111.092 10.378C110.859 10.0606 110.5 9.90195 110.014 9.90195C109.538 9.90195 109.151 10.0793 108.852 10.434C108.563 10.7886 108.418 11.2833 108.418 11.918V15.502H106.626ZM123.112 15.67C122.412 15.67 121.791 15.5206 121.25 15.222C120.708 14.9233 120.284 14.5033 119.976 13.962C119.668 13.4206 119.514 12.7953 119.514 12.086C119.514 11.3673 119.663 10.728 119.962 10.168C120.27 9.60795 120.69 9.17395 121.222 8.86595C121.763 8.54862 122.398 8.38995 123.126 8.38995C123.807 8.38995 124.409 8.53929 124.932 8.83795C125.454 9.13662 125.86 9.54729 126.15 10.07C126.448 10.5833 126.598 11.1573 126.598 11.792C126.598 11.8946 126.593 12.002 126.584 12.114C126.584 12.226 126.579 12.3426 126.57 12.464H121.292C121.329 13.0053 121.516 13.43 121.852 13.738C122.197 14.046 122.612 14.2 123.098 14.2C123.462 14.2 123.765 14.1206 124.008 13.962C124.26 13.794 124.446 13.5793 124.568 13.318H126.388C126.257 13.7566 126.038 14.158 125.73 14.522C125.431 14.8766 125.058 15.1566 124.61 15.362C124.171 15.5673 123.672 15.67 123.112 15.67ZM123.126 9.84595C122.687 9.84595 122.3 9.97195 121.964 10.224C121.628 10.4666 121.413 10.84 121.32 11.344H124.778C124.75 10.8866 124.582 10.5226 124.274 10.252C123.966 9.98129 123.583 9.84595 123.126 9.84595Z" fill="white"/>
<path d="M34.172 79.5371L38.042 69.0371H39.377L43.232 79.5371H41.897L40.937 76.8371H36.467L35.492 79.5371H34.172ZM36.842 75.8171H40.562L38.702 70.6271L36.842 75.8171ZM51.6276 77.1971C51.2076 77.1971 50.8226 77.1421 50.4726 77.0321L49.7226 77.7371C49.8326 77.8171 49.9676 77.8871 50.1276 77.9471C50.2976 77.9971 50.5376 78.0471 50.8476 78.0971C51.1576 78.1371 51.5926 78.1821 52.1526 78.2321C53.1526 78.3021 53.8676 78.5321 54.2976 78.9221C54.7276 79.3121 54.9426 79.8221 54.9426 80.4521C54.9426 80.8821 54.8226 81.2921 54.5826 81.6821C54.3526 82.0721 53.9926 82.3921 53.5026 82.6421C53.0226 82.8921 52.4026 83.0171 51.6426 83.0171C50.9726 83.0171 50.3776 82.9271 49.8576 82.7471C49.3376 82.5771 48.9326 82.3121 48.6426 81.9521C48.3526 81.6021 48.2076 81.1571 48.2076 80.6171C48.2076 80.3371 48.2826 80.0321 48.4326 79.7021C48.5826 79.3821 48.8626 79.0771 49.2726 78.7871C49.0526 78.6971 48.8626 78.6021 48.7026 78.5021C48.5526 78.3921 48.4126 78.2721 48.2826 78.1421V77.7971L49.5576 76.5371C48.9676 76.0371 48.6726 75.3771 48.6726 74.5571C48.6726 74.0671 48.7876 73.6221 49.0176 73.2221C49.2476 72.8221 49.5826 72.5071 50.0226 72.2771C50.4626 72.0371 50.9976 71.9171 51.6276 71.9171C52.0576 71.9171 52.4476 71.9771 52.7976 72.0971H55.5426V73.0421L54.1476 73.1021C54.4376 73.5221 54.5826 74.0071 54.5826 74.5571C54.5826 75.0471 54.4626 75.4921 54.2226 75.8921C53.9926 76.2921 53.6576 76.6121 53.2176 76.8521C52.7876 77.0821 52.2576 77.1971 51.6276 77.1971ZM51.6276 76.1621C52.1576 76.1621 52.5776 76.0271 52.8876 75.7571C53.2076 75.4771 53.3676 75.0771 53.3676 74.5571C53.3676 74.0471 53.2076 73.6571 52.8876 73.3871C52.5776 73.1071 52.1576 72.9671 51.6276 72.9671C51.0876 72.9671 50.6576 73.1071 50.3376 73.3871C50.0276 73.6571 49.8726 74.0471 49.8726 74.5571C49.8726 75.0771 50.0276 75.4771 50.3376 75.7571C50.6576 76.0271 51.0876 76.1621 51.6276 76.1621ZM49.4376 80.4971C49.4376 80.9971 49.6476 81.3671 50.0676 81.6071C50.4876 81.8571 51.0126 81.9821 51.6426 81.9821C52.2626 81.9821 52.7576 81.8471 53.1276 81.5771C53.5076 81.3071 53.6976 80.9471 53.6976 80.4971C53.6976 80.1771 53.5676 79.8971 53.3076 79.6571C53.0476 79.4271 52.5676 79.2921 51.8676 79.2521C51.3176 79.2121 50.8426 79.1621 50.4426 79.1021C50.0326 79.3221 49.7626 79.5571 49.6326 79.8071C49.5026 80.0671 49.4376 80.2971 49.4376 80.4971ZM60.061 79.7171C59.361 79.7171 58.731 79.5571 58.171 79.2371C57.611 78.9171 57.166 78.4671 56.836 77.8871C56.516 77.2971 56.356 76.6071 56.356 75.8171C56.356 75.0271 56.521 74.3421 56.851 73.7621C57.181 73.1721 57.626 72.7171 58.186 72.3971C58.756 72.0771 59.391 71.9171 60.091 71.9171C60.791 71.9171 61.421 72.0771 61.981 72.3971C62.541 72.7171 62.981 73.1721 63.301 73.7621C63.631 74.3421 63.796 75.0271 63.796 75.8171C63.796 76.6071 63.631 77.2971 63.301 77.8871C62.971 78.4671 62.521 78.9171 61.951 79.2371C61.391 79.5571 60.761 79.7171 60.061 79.7171ZM60.061 78.6371C60.491 78.6371 60.891 78.5321 61.261 78.3221C61.631 78.1121 61.931 77.7971 62.161 77.3771C62.391 76.9571 62.506 76.4371 62.506 75.8171C62.506 75.1971 62.391 74.6771 62.161 74.2571C61.941 73.8371 61.646 73.5221 61.276 73.3121C60.906 73.1021 60.511 72.9971 60.091 72.9971C59.661 72.9971 59.261 73.1021 58.891 73.3121C58.521 73.5221 58.221 73.8371 57.991 74.2571C57.761 74.6771 57.646 75.1971 57.646 75.8171C57.646 76.4371 57.761 76.9571 57.991 77.3771C58.221 77.7971 58.516 78.1121 58.876 78.3221C59.246 78.5321 59.641 78.6371 60.061 78.6371ZM68.938 79.7171C68.238 79.7171 67.608 79.5571 67.048 79.2371C66.488 78.9171 66.043 78.4671 65.713 77.8871C65.393 77.2971 65.233 76.6071 65.233 75.8171C65.233 75.0271 65.398 74.3421 65.728 73.7621C66.058 73.1721 66.503 72.7171 67.063 72.3971C67.633 72.0771 68.268 71.9171 68.968 71.9171C69.668 71.9171 70.298 72.0771 70.858 72.3971C71.418 72.7171 71.858 73.1721 72.178 73.7621C72.508 74.3421 72.673 75.0271 72.673 75.8171C72.673 76.6071 72.508 77.2971 72.178 77.8871C71.848 78.4671 71.398 78.9171 70.828 79.2371C70.268 79.5571 69.638 79.7171 68.938 79.7171ZM68.938 78.6371C69.368 78.6371 69.768 78.5321 70.138 78.3221C70.508 78.1121 70.808 77.7971 71.038 77.3771C71.268 76.9571 71.383 76.4371 71.383 75.8171C71.383 75.1971 71.268 74.6771 71.038 74.2571C70.818 73.8371 70.523 73.5221 70.153 73.3121C69.783 73.1021 69.388 72.9971 68.968 72.9971C68.538 72.9971 68.138 73.1021 67.768 73.3121C67.398 73.5221 67.098 73.8371 66.868 74.2571C66.638 74.6771 66.523 75.1971 66.523 75.8171C66.523 76.4371 66.638 76.9571 66.868 77.3771C67.098 77.7971 67.393 78.1121 67.753 78.3221C68.123 78.5321 68.518 78.6371 68.938 78.6371ZM77.7999 79.7171C77.0599 79.7171 76.4099 79.5471 75.8499 79.2071C75.2999 78.8671 74.8699 78.4021 74.5599 77.8121C74.2599 77.2221 74.1099 76.5521 74.1099 75.8021C74.1099 75.0521 74.2649 74.3871 74.5749 73.8071C74.8849 73.2171 75.3149 72.7571 75.8649 72.4271C76.4149 72.0871 77.0649 71.9171 77.8149 71.9171C78.4249 71.9171 78.9649 72.0421 79.4349 72.2921C79.9049 72.5421 80.2699 72.8921 80.5299 73.3421V68.7371H81.7899V79.5371H80.6499L80.5299 78.3071C80.2899 78.6671 79.9449 78.9921 79.4949 79.2821C79.0449 79.5721 78.4799 79.7171 77.7999 79.7171ZM77.9349 78.6221C78.4349 78.6221 78.8749 78.5071 79.2549 78.2771C79.6449 78.0371 79.9449 77.7071 80.1549 77.2871C80.3749 76.8671 80.4849 76.3771 80.4849 75.8171C80.4849 75.2571 80.3749 74.7671 80.1549 74.3471C79.9449 73.9271 79.6449 73.6021 79.2549 73.3721C78.8749 73.1321 78.4349 73.0121 77.9349 73.0121C77.4449 73.0121 77.0049 73.1321 76.6149 73.3721C76.2349 73.6021 75.9349 73.9271 75.7149 74.3471C75.5049 74.7671 75.3999 75.2571 75.3999 75.8171C75.3999 76.3771 75.5049 76.8671 75.7149 77.2871C75.9349 77.7071 76.2349 78.0371 76.6149 78.2771C77.0049 78.5071 77.4449 78.6221 77.9349 78.6221ZM91.2036 79.7171C90.5036 79.7171 89.8736 79.5571 89.3136 79.2371C88.7536 78.9171 88.3086 78.4671 87.9786 77.8871C87.6586 77.2971 87.4986 76.6071 87.4986 75.8171C87.4986 75.0271 87.6636 74.3421 87.9936 73.7621C88.3236 73.1721 88.7686 72.7171 89.3286 72.3971C89.8986 72.0771 90.5336 71.9171 91.2336 71.9171C91.9336 71.9171 92.5636 72.0771 93.1236 72.3971C93.6836 72.7171 94.1236 73.1721 94.4436 73.7621C94.7736 74.3421 94.9386 75.0271 94.9386 75.8171C94.9386 76.6071 94.7736 77.2971 94.4436 77.8871C94.1136 78.4671 93.6636 78.9171 93.0936 79.2371C92.5336 79.5571 91.9036 79.7171 91.2036 79.7171ZM91.2036 78.6371C91.6336 78.6371 92.0336 78.5321 92.4036 78.3221C92.7736 78.1121 93.0736 77.7971 93.3036 77.3771C93.5336 76.9571 93.6486 76.4371 93.6486 75.8171C93.6486 75.1971 93.5336 74.6771 93.3036 74.2571C93.0836 73.8371 92.7886 73.5221 92.4186 73.3121C92.0486 73.1021 91.6536 72.9971 91.2336 72.9971C90.8036 72.9971 90.4036 73.1021 90.0336 73.3121C89.6636 73.5221 89.3636 73.8371 89.1336 74.2571C88.9036 74.6771 88.7886 75.1971 88.7886 75.8171C88.7886 76.4371 88.9036 76.9571 89.1336 77.3771C89.3636 77.7971 89.6586 78.1121 90.0186 78.3221C90.3886 78.5321 90.7836 78.6371 91.2036 78.6371ZM96.6905 79.5371V68.7371H97.9505V79.5371H96.6905ZM103.391 79.7171C102.651 79.7171 102.001 79.5471 101.441 79.2071C100.891 78.8671 100.461 78.4021 100.151 77.8121C99.8507 77.2221 99.7007 76.5521 99.7007 75.8021C99.7007 75.0521 99.8557 74.3871 100.166 73.8071C100.476 73.2171 100.906 72.7571 101.456 72.4271C102.006 72.0871 102.656 71.9171 103.406 71.9171C104.016 71.9171 104.556 72.0421 105.026 72.2921C105.496 72.5421 105.861 72.8921 106.121 73.3421V68.7371H107.381V79.5371H106.241L106.121 78.3071C105.881 78.6671 105.536 78.9921 105.086 79.2821C104.636 79.5721 104.071 79.7171 103.391 79.7171ZM103.526 78.6221C104.026 78.6221 104.466 78.5071 104.846 78.2771C105.236 78.0371 105.536 77.7071 105.746 77.2871C105.966 76.8671 106.076 76.3771 106.076 75.8171C106.076 75.2571 105.966 74.7671 105.746 74.3471C105.536 73.9271 105.236 73.6021 104.846 73.3721C104.466 73.1321 104.026 73.0121 103.526 73.0121C103.036 73.0121 102.596 73.1321 102.206 73.3721C101.826 73.6021 101.526 73.9271 101.306 74.3471C101.096 74.7671 100.991 75.2571 100.991 75.8171C100.991 76.3771 101.096 76.8671 101.306 77.2871C101.526 77.7071 101.826 78.0371 102.206 78.2771C102.596 78.5071 103.036 78.6221 103.526 78.6221ZM113.809 79.5371V73.1621H112.684V72.0971H113.809V70.8071C113.809 70.0871 113.989 69.5621 114.349 69.2321C114.709 68.9021 115.234 68.7371 115.924 68.7371H116.674V69.8171H116.119C115.739 69.8171 115.469 69.8971 115.309 70.0571C115.149 70.2071 115.069 70.4671 115.069 70.8371V72.0971H116.899V73.1621H115.069V79.5371H113.809ZM120.582 79.7171C119.962 79.7171 119.447 79.6121 119.037 79.4021C118.627 79.1921 118.322 78.9121 118.122 78.5621C117.922 78.2121 117.822 77.8321 117.822 77.4221C117.822 76.6621 118.112 76.0771 118.692 75.6671C119.272 75.2571 120.062 75.0521 121.062 75.0521H123.072V74.9621C123.072 74.3121 122.902 73.8221 122.562 73.4921C122.222 73.1521 121.767 72.9821 121.197 72.9821C120.707 72.9821 120.282 73.1071 119.922 73.3571C119.572 73.5971 119.352 73.9521 119.262 74.4221H117.972C118.022 73.8821 118.202 73.4271 118.512 73.0571C118.832 72.6871 119.227 72.4071 119.697 72.2171C120.167 72.0171 120.667 71.9171 121.197 71.9171C122.237 71.9171 123.017 72.1971 123.537 72.7571C124.067 73.3071 124.332 74.0421 124.332 74.9621V79.5371H123.207L123.132 78.2021C122.922 78.6221 122.612 78.9821 122.202 79.2821C121.802 79.5721 121.262 79.7171 120.582 79.7171ZM120.777 78.6521C121.257 78.6521 121.667 78.5271 122.007 78.2771C122.357 78.0271 122.622 77.7021 122.802 77.3021C122.982 76.9021 123.072 76.4821 123.072 76.0421V76.0271H121.167C120.427 76.0271 119.902 76.1571 119.592 76.4171C119.292 76.6671 119.142 76.9821 119.142 77.3621C119.142 77.7521 119.282 78.0671 119.562 78.3071C119.852 78.5371 120.257 78.6521 120.777 78.6521ZM129.072 79.7171C128.182 79.7171 127.442 79.4921 126.852 79.0421C126.262 78.5921 125.917 77.9821 125.817 77.2121H127.107C127.187 77.6021 127.392 77.9421 127.722 78.2321C128.062 78.5121 128.517 78.6521 129.087 78.6521C129.617 78.6521 130.007 78.5421 130.257 78.3221C130.507 78.0921 130.632 77.8221 130.632 77.5121C130.632 77.0621 130.467 76.7621 130.137 76.6121C129.817 76.4621 129.362 76.3271 128.772 76.2071C128.372 76.1271 127.972 76.0121 127.572 75.8621C127.172 75.7121 126.837 75.5021 126.567 75.2321C126.297 74.9521 126.162 74.5871 126.162 74.1371C126.162 73.4871 126.402 72.9571 126.882 72.5471C127.372 72.1271 128.032 71.9171 128.862 71.9171C129.652 71.9171 130.297 72.1171 130.797 72.5171C131.307 72.9071 131.602 73.4671 131.682 74.1971H130.437C130.387 73.8171 130.222 73.5221 129.942 73.3121C129.672 73.0921 129.307 72.9821 128.847 72.9821C128.397 72.9821 128.047 73.0771 127.797 73.2671C127.557 73.4571 127.437 73.7071 127.437 74.0171C127.437 74.3171 127.592 74.5521 127.902 74.7221C128.222 74.8921 128.652 75.0371 129.192 75.1571C129.652 75.2571 130.087 75.3821 130.497 75.5321C130.917 75.6721 131.257 75.8871 131.517 76.1771C131.787 76.4571 131.922 76.8671 131.922 77.4071C131.932 78.0771 131.677 78.6321 131.157 79.0721C130.647 79.5021 129.952 79.7171 129.072 79.7171ZM133.722 79.5371V68.7371H134.982V73.3721C135.232 72.9121 135.587 72.5571 136.047 72.3071C136.507 72.0471 137.007 71.9171 137.547 71.9171C138.407 71.9171 139.097 72.1871 139.617 72.7271C140.137 73.2571 140.397 74.0771 140.397 75.1871V79.5371H139.152V75.3221C139.152 73.7721 138.527 72.9971 137.277 72.9971C136.627 72.9971 136.082 73.2321 135.642 73.7021C135.202 74.1621 134.982 74.8221 134.982 75.6821V79.5371H133.722ZM143.071 70.4471C142.821 70.4471 142.611 70.3671 142.441 70.2071C142.281 70.0371 142.201 69.8271 142.201 69.5771C142.201 69.3371 142.281 69.1371 142.441 68.9771C142.611 68.8171 142.821 68.7371 143.071 68.7371C143.311 68.7371 143.516 68.8171 143.686 68.9771C143.856 69.1371 143.941 69.3371 143.941 69.5771C143.941 69.8271 143.856 70.0371 143.686 70.2071C143.516 70.3671 143.311 70.4471 143.071 70.4471ZM142.441 79.5371V72.0971H143.701V79.5371H142.441ZM149.285 79.7171C148.585 79.7171 147.955 79.5571 147.395 79.2371C146.835 78.9171 146.39 78.4671 146.06 77.8871C145.74 77.2971 145.58 76.6071 145.58 75.8171C145.58 75.0271 145.745 74.3421 146.075 73.7621C146.405 73.1721 146.85 72.7171 147.41 72.3971C147.98 72.0771 148.615 71.9171 149.315 71.9171C150.015 71.9171 150.645 72.0771 151.205 72.3971C151.765 72.7171 152.205 73.1721 152.525 73.7621C152.855 74.3421 153.02 75.0271 153.02 75.8171C153.02 76.6071 152.855 77.2971 152.525 77.8871C152.195 78.4671 151.745 78.9171 151.175 79.2371C150.615 79.5571 149.985 79.7171 149.285 79.7171ZM149.285 78.6371C149.715 78.6371 150.115 78.5321 150.485 78.3221C150.855 78.1121 151.155 77.7971 151.385 77.3771C151.615 76.9571 151.73 76.4371 151.73 75.8171C151.73 75.1971 151.615 74.6771 151.385 74.2571C151.165 73.8371 150.87 73.5221 150.5 73.3121C150.13 73.1021 149.735 72.9971 149.315 72.9971C148.885 72.9971 148.485 73.1021 148.115 73.3121C147.745 73.5221 147.445 73.8371 147.215 74.2571C146.985 74.6771 146.87 75.1971 146.87 75.8171C146.87 76.4371 146.985 76.9571 147.215 77.3771C147.445 77.7971 147.74 78.1121 148.1 78.3221C148.47 78.5321 148.865 78.6371 149.285 78.6371ZM154.772 79.5371V72.0971H155.912L155.987 73.4321C156.227 72.9621 156.572 72.5921 157.022 72.3221C157.472 72.0521 157.982 71.9171 158.552 71.9171C159.432 71.9171 160.132 72.1871 160.652 72.7271C161.182 73.2571 161.447 74.0771 161.447 75.1871V79.5371H160.187V75.3221C160.187 73.7721 159.547 72.9971 158.267 72.9971C157.627 72.9971 157.092 73.2321 156.662 73.7021C156.242 74.1621 156.032 74.8221 156.032 75.6821V79.5371H154.772ZM166.701 79.7171C165.991 79.7171 165.361 79.5571 164.811 79.2371C164.261 78.9071 163.826 78.4521 163.506 77.8721C163.196 77.2921 163.041 76.6071 163.041 75.8171C163.041 75.0371 163.196 74.3571 163.506 73.7771C163.816 73.1871 164.246 72.7321 164.796 72.4121C165.356 72.0821 166.001 71.9171 166.731 71.9171C167.451 71.9171 168.071 72.0821 168.591 72.4121C169.121 72.7321 169.526 73.1571 169.806 73.6871C170.086 74.2171 170.226 74.7871 170.226 75.3971C170.226 75.5071 170.221 75.6171 170.211 75.7271C170.211 75.8371 170.211 75.9621 170.211 76.1021H164.286C164.316 76.6721 164.446 77.1471 164.676 77.5271C164.916 77.8971 165.211 78.1771 165.561 78.3671C165.921 78.5571 166.301 78.6521 166.701 78.6521C167.221 78.6521 167.656 78.5321 168.006 78.2921C168.356 78.0521 168.611 77.7271 168.771 77.3171H170.016C169.816 78.0071 169.431 78.5821 168.861 79.0421C168.301 79.4921 167.581 79.7171 166.701 79.7171ZM166.701 72.9821C166.101 72.9821 165.566 73.1671 165.096 73.5371C164.636 73.8971 164.371 74.4271 164.301 75.1271H168.981C168.951 74.4571 168.721 73.9321 168.291 73.5521C167.861 73.1721 167.331 72.9821 166.701 72.9821ZM175.271 79.7171C174.531 79.7171 173.881 79.5471 173.321 79.2071C172.771 78.8671 172.341 78.4021 172.031 77.8121C171.731 77.2221 171.581 76.5521 171.581 75.8021C171.581 75.0521 171.736 74.3871 172.046 73.8071C172.356 73.2171 172.786 72.7571 173.336 72.4271C173.886 72.0871 174.536 71.9171 175.286 71.9171C175.896 71.9171 176.436 72.0421 176.906 72.2921C177.376 72.5421 177.741 72.8921 178.001 73.3421V68.7371H179.261V79.5371H178.121L178.001 78.3071C177.761 78.6671 177.416 78.9921 176.966 79.2821C176.516 79.5721 175.951 79.7171 175.271 79.7171ZM175.406 78.6221C175.906 78.6221 176.346 78.5071 176.726 78.2771C177.116 78.0371 177.416 77.7071 177.626 77.2871C177.846 76.8671 177.956 76.3771 177.956 75.8171C177.956 75.2571 177.846 74.7671 177.626 74.3471C177.416 73.9271 177.116 73.6021 176.726 73.3721C176.346 73.1321 175.906 73.0121 175.406 73.0121C174.916 73.0121 174.476 73.1321 174.086 73.3721C173.706 73.6021 173.406 73.9271 173.186 74.3471C172.976 74.7671 172.871 75.2571 172.871 75.8171C172.871 76.3771 172.976 76.8671 173.186 77.2871C173.406 77.7071 173.706 78.0371 174.086 78.2771C174.476 78.5071 174.916 78.6221 175.406 78.6221ZM53.3928 99.5371C52.7128 99.5371 52.1778 99.3721 51.7878 99.0421C51.3978 98.7121 51.2028 98.1171 51.2028 97.2571V93.1621H49.9128V92.0971H51.2028L51.3678 90.3121H52.4628V92.0971H54.6528V93.1621H52.4628V97.2571C52.4628 97.7271 52.5578 98.0471 52.7478 98.2171C52.9378 98.3771 53.2728 98.4571 53.7528 98.4571H54.5328V99.5371H53.3928ZM56.2535 99.5371V92.0971H57.3935L57.4985 93.5221C57.7285 93.0321 58.0785 92.6421 58.5485 92.3521C59.0185 92.0621 59.5985 91.9171 60.2885 91.9171V93.2371H59.9435C59.5035 93.2371 59.0985 93.3171 58.7285 93.4771C58.3585 93.6271 58.0635 93.8871 57.8435 94.2571C57.6235 94.6271 57.5135 95.1371 57.5135 95.7871V99.5371H56.2535ZM64.4178 99.7171C63.5378 99.7171 62.8378 99.4521 62.3178 98.9221C61.7978 98.3821 61.5378 97.5571 61.5378 96.4471V92.0971H62.7978V96.3121C62.7978 97.8621 63.4328 98.6371 64.7028 98.6371C65.3528 98.6371 65.8878 98.4071 66.3078 97.9471C66.7378 97.4771 66.9528 96.8121 66.9528 95.9521V92.0971H68.2128V99.5371H67.0728L66.9828 98.2021C66.7528 98.6721 66.4078 99.0421 65.9478 99.3121C65.4978 99.5821 64.9878 99.7171 64.4178 99.7171ZM73.6317 99.7171C72.9217 99.7171 72.2917 99.5571 71.7417 99.2371C71.1917 98.9071 70.7567 98.4521 70.4367 97.8721C70.1267 97.2921 69.9717 96.6071 69.9717 95.8171C69.9717 95.0371 70.1267 94.3571 70.4367 93.7771C70.7467 93.1871 71.1767 92.7321 71.7267 92.4121C72.2867 92.0821 72.9317 91.9171 73.6617 91.9171C74.3817 91.9171 75.0017 92.0821 75.5217 92.4121C76.0517 92.7321 76.4567 93.1571 76.7367 93.6871C77.0167 94.2171 77.1567 94.7871 77.1567 95.3971C77.1567 95.5071 77.1517 95.6171 77.1417 95.7271C77.1417 95.8371 77.1417 95.9621 77.1417 96.1021H71.2167C71.2467 96.6721 71.3767 97.1471 71.6067 97.5271C71.8467 97.8971 72.1417 98.1771 72.4917 98.3671C72.8517 98.5571 73.2317 98.6521 73.6317 98.6521C74.1517 98.6521 74.5867 98.5321 74.9367 98.2921C75.2867 98.0521 75.5417 97.7271 75.7017 97.3171H76.9467C76.7467 98.0071 76.3617 98.5821 75.7917 99.0421C75.2317 99.4921 74.5117 99.7171 73.6317 99.7171ZM73.6317 92.9821C73.0317 92.9821 72.4967 93.1671 72.0267 93.5371C71.5667 93.8971 71.3017 94.4271 71.2317 95.1271H75.9117C75.8817 94.4571 75.6517 93.9321 75.2217 93.5521C74.7917 93.1721 74.2617 92.9821 73.6317 92.9821ZM86.1865 99.7171C85.4865 99.7171 84.8565 99.5571 84.2965 99.2371C83.7365 98.9171 83.2915 98.4671 82.9615 97.8871C82.6415 97.2971 82.4815 96.6071 82.4815 95.8171C82.4815 95.0271 82.6465 94.3421 82.9765 93.7621C83.3065 93.1721 83.7515 92.7171 84.3115 92.3971C84.8815 92.0771 85.5165 91.9171 86.2165 91.9171C86.9165 91.9171 87.5465 92.0771 88.1065 92.3971C88.6665 92.7171 89.1065 93.1721 89.4265 93.7621C89.7565 94.3421 89.9215 95.0271 89.9215 95.8171C89.9215 96.6071 89.7565 97.2971 89.4265 97.8871C89.0965 98.4671 88.6465 98.9171 88.0765 99.2371C87.5165 99.5571 86.8865 99.7171 86.1865 99.7171ZM86.1865 98.6371C86.6165 98.6371 87.0165 98.5321 87.3865 98.3221C87.7565 98.1121 88.0565 97.7971 88.2865 97.3771C88.5165 96.9571 88.6315 96.4371 88.6315 95.8171C88.6315 95.1971 88.5165 94.6771 88.2865 94.2571C88.0665 93.8371 87.7715 93.5221 87.4015 93.3121C87.0315 93.1021 86.6365 92.9971 86.2165 92.9971C85.7865 92.9971 85.3865 93.1021 85.0165 93.3121C84.6465 93.5221 84.3465 93.8371 84.1165 94.2571C83.8865 94.6771 83.7715 95.1971 83.7715 95.8171C83.7715 96.4371 83.8865 96.9571 84.1165 97.3771C84.3465 97.7971 84.6415 98.1121 85.0015 98.3221C85.3715 98.5321 85.7665 98.6371 86.1865 98.6371ZM91.6735 99.5371V92.0971H92.8135L92.9185 93.5221C93.1485 93.0321 93.4985 92.6421 93.9685 92.3521C94.4385 92.0621 95.0185 91.9171 95.7085 91.9171V93.2371H95.3635C94.9235 93.2371 94.5185 93.3171 94.1485 93.4771C93.7785 93.6271 93.4835 93.8871 93.2635 94.2571C93.0435 94.6271 92.9335 95.1371 92.9335 95.7871V99.5371H91.6735ZM101.497 99.5371V93.1621H100.372V92.0971H101.497V90.8071C101.497 90.0871 101.677 89.5621 102.037 89.2321C102.397 88.9021 102.922 88.7371 103.612 88.7371H104.362V89.8171H103.807C103.427 89.8171 103.157 89.8971 102.997 90.0571C102.837 90.2071 102.757 90.4671 102.757 90.8371V92.0971H104.587V93.1621H102.757V99.5371H101.497ZM108.27 99.7171C107.65 99.7171 107.135 99.6121 106.725 99.4021C106.315 99.1921 106.01 98.9121 105.81 98.5621C105.61 98.2121 105.51 97.8321 105.51 97.4221C105.51 96.6621 105.8 96.0771 106.38 95.6671C106.96 95.2571 107.75 95.0521 108.75 95.0521H110.76V94.9621C110.76 94.3121 110.59 93.8221 110.25 93.4921C109.91 93.1521 109.455 92.9821 108.885 92.9821C108.395 92.9821 107.97 93.1071 107.61 93.3571C107.26 93.5971 107.04 93.9521 106.95 94.4221H105.66C105.71 93.8821 105.89 93.4271 106.2 93.0571C106.52 92.6871 106.915 92.4071 107.385 92.2171C107.855 92.0171 108.355 91.9171 108.885 91.9171C109.925 91.9171 110.705 92.1971 111.225 92.7571C111.755 93.3071 112.02 94.0421 112.02 94.9621V99.5371H110.895L110.82 98.2021C110.61 98.6221 110.3 98.9821 109.89 99.2821C109.49 99.5721 108.95 99.7171 108.27 99.7171ZM108.465 98.6521C108.945 98.6521 109.355 98.5271 109.695 98.2771C110.045 98.0271 110.31 97.7021 110.49 97.3021C110.67 96.9021 110.76 96.4821 110.76 96.0421V96.0271H108.855C108.115 96.0271 107.59 96.1571 107.28 96.4171C106.98 96.6671 106.83 96.9821 106.83 97.3621C106.83 97.7521 106.97 98.0671 107.25 98.3071C107.54 98.5371 107.945 98.6521 108.465 98.6521ZM113.91 99.5371V88.7371H115.17V99.5371H113.91ZM120.085 99.7171C119.195 99.7171 118.455 99.4921 117.865 99.0421C117.275 98.5921 116.93 97.9821 116.83 97.2121H118.12C118.2 97.6021 118.405 97.9421 118.735 98.2321C119.075 98.5121 119.53 98.6521 120.1 98.6521C120.63 98.6521 121.02 98.5421 121.27 98.3221C121.52 98.0921 121.645 97.8221 121.645 97.5121C121.645 97.0621 121.48 96.7621 121.15 96.6121C120.83 96.4621 120.375 96.3271 119.785 96.2071C119.385 96.1271 118.985 96.0121 118.585 95.8621C118.185 95.7121 117.85 95.5021 117.58 95.2321C117.31 94.9521 117.175 94.5871 117.175 94.1371C117.175 93.4871 117.415 92.9571 117.895 92.5471C118.385 92.1271 119.045 91.9171 119.875 91.9171C120.665 91.9171 121.31 92.1171 121.81 92.5171C122.32 92.9071 122.615 93.4671 122.695 94.1971H121.45C121.4 93.8171 121.235 93.5221 120.955 93.3121C120.685 93.0921 120.32 92.9821 119.86 92.9821C119.41 92.9821 119.06 93.0771 118.81 93.2671C118.57 93.4571 118.45 93.7071 118.45 94.0171C118.45 94.3171 118.605 94.5521 118.915 94.7221C119.235 94.8921 119.665 95.0371 120.205 95.1571C120.665 95.2571 121.1 95.3821 121.51 95.5321C121.93 95.6721 122.27 95.8871 122.53 96.1771C122.8 96.4571 122.935 96.8671 122.935 97.4071C122.945 98.0771 122.69 98.6321 122.17 99.0721C121.66 99.5021 120.965 99.7171 120.085 99.7171ZM128.08 99.7171C127.37 99.7171 126.74 99.5571 126.19 99.2371C125.64 98.9071 125.205 98.4521 124.885 97.8721C124.575 97.2921 124.42 96.6071 124.42 95.8171C124.42 95.0371 124.575 94.3571 124.885 93.7771C125.195 93.1871 125.625 92.7321 126.175 92.4121C126.735 92.0821 127.38 91.9171 128.11 91.9171C128.83 91.9171 129.45 92.0821 129.97 92.4121C130.5 92.7321 130.905 93.1571 131.185 93.6871C131.465 94.2171 131.605 94.7871 131.605 95.3971C131.605 95.5071 131.6 95.6171 131.59 95.7271C131.59 95.8371 131.59 95.9621 131.59 96.1021H125.665C125.695 96.6721 125.825 97.1471 126.055 97.5271C126.295 97.8971 126.59 98.1771 126.94 98.3671C127.3 98.5571 127.68 98.6521 128.08 98.6521C128.6 98.6521 129.035 98.5321 129.385 98.2921C129.735 98.0521 129.99 97.7271 130.15 97.3171H131.395C131.195 98.0071 130.81 98.5821 130.24 99.0421C129.68 99.4921 128.96 99.7171 128.08 99.7171ZM128.08 92.9821C127.48 92.9821 126.945 93.1671 126.475 93.5371C126.015 93.8971 125.75 94.4271 125.68 95.1271H130.36C130.33 94.4571 130.1 93.9321 129.67 93.5521C129.24 93.1721 128.71 92.9821 128.08 92.9821ZM143.35 102.837V98.3071C143.11 98.6671 142.765 98.9921 142.315 99.2821C141.865 99.5721 141.3 99.7171 140.62 99.7171C139.88 99.7171 139.23 99.5471 138.67 99.2071C138.12 98.8671 137.69 98.4021 137.38 97.8121C137.08 97.2221 136.93 96.5521 136.93 95.8021C136.93 95.0521 137.085 94.3871 137.395 93.8071C137.705 93.2171 138.135 92.7571 138.685 92.4271C139.235 92.0871 139.885 91.9171 140.635 91.9171C141.245 91.9171 141.785 92.0421 142.255 92.2921C142.725 92.5421 143.09 92.8921 143.35 93.3421L143.47 92.0971H144.61V102.837H143.35ZM140.755 98.6221C141.255 98.6221 141.695 98.5071 142.075 98.2771C142.465 98.0371 142.765 97.7071 142.975 97.2871C143.195 96.8671 143.305 96.3771 143.305 95.8171C143.305 95.2571 143.195 94.7671 142.975 94.3471C142.765 93.9271 142.465 93.6021 142.075 93.3721C141.695 93.1321 141.255 93.0121 140.755 93.0121C140.265 93.0121 139.825 93.1321 139.435 93.3721C139.055 93.6021 138.755 93.9271 138.535 94.3471C138.325 94.7671 138.22 95.2571 138.22 95.8171C138.22 96.3771 138.325 96.8671 138.535 97.2871C138.755 97.7071 139.055 98.0371 139.435 98.2771C139.825 98.5071 140.265 98.6221 140.755 98.6221ZM149.379 99.7171C148.499 99.7171 147.799 99.4521 147.279 98.9221C146.759 98.3821 146.499 97.5571 146.499 96.4471V92.0971H147.759V96.3121C147.759 97.8621 148.394 98.6371 149.664 98.6371C150.314 98.6371 150.849 98.4071 151.269 97.9471C151.699 97.4771 151.914 96.8121 151.914 95.9521V92.0971H153.174V99.5371H152.034L151.944 98.2021C151.714 98.6721 151.369 99.0421 150.909 99.3121C150.459 99.5821 149.949 99.7171 149.379 99.7171ZM156.013 90.4471C155.763 90.4471 155.553 90.3671 155.383 90.2071C155.223 90.0371 155.143 89.8271 155.143 89.5771C155.143 89.3371 155.223 89.1371 155.383 88.9771C155.553 88.8171 155.763 88.7371 156.013 88.7371C156.253 88.7371 156.458 88.8171 156.628 88.9771C156.798 89.1371 156.883 89.3371 156.883 89.5771C156.883 89.8271 156.798 90.0371 156.628 90.2071C156.458 90.3671 156.253 90.4471 156.013 90.4471ZM155.383 99.5371V92.0971H156.643V99.5371H155.383ZM158.327 99.5371V98.5021L162.467 93.1471H158.402V92.0971H163.877V93.1321L159.737 98.4871H163.952V99.5371H158.327ZM61.5988 119.537L59.4238 112.097H60.6838L62.2588 117.932L63.9988 112.097H65.4238L67.1788 117.932L68.7388 112.097H70.0138L67.8388 119.537H66.5488L64.7188 113.402L62.8888 119.537H61.5988ZM71.4073 119.537V108.737H72.6673V113.372C72.9173 112.912 73.2723 112.557 73.7323 112.307C74.1923 112.047 74.6923 111.917 75.2323 111.917C76.0923 111.917 76.7823 112.187 77.3023 112.727C77.8223 113.257 78.0823 114.077 78.0823 115.187V119.537H76.8373V115.322C76.8373 113.772 76.2123 112.997 74.9623 112.997C74.3123 112.997 73.7673 113.232 73.3273 113.702C72.8873 114.162 72.6673 114.822 72.6673 115.682V119.537H71.4073ZM83.3363 119.717C82.6263 119.717 81.9963 119.557 81.4463 119.237C80.8963 118.907 80.4613 118.452 80.1413 117.872C79.8313 117.292 79.6763 116.607 79.6763 115.817C79.6763 115.037 79.8313 114.357 80.1413 113.777C80.4513 113.187 80.8813 112.732 81.4313 112.412C81.9913 112.082 82.6363 111.917 83.3663 111.917C84.0863 111.917 84.7063 112.082 85.2263 112.412C85.7563 112.732 86.1613 113.157 86.4413 113.687C86.7213 114.217 86.8613 114.787 86.8613 115.397C86.8613 115.507 86.8563 115.617 86.8463 115.727C86.8463 115.837 86.8463 115.962 86.8463 116.102H80.9213C80.9513 116.672 81.0813 117.147 81.3113 117.527C81.5513 117.897 81.8463 118.177 82.1963 118.367C82.5563 118.557 82.9363 118.652 83.3363 118.652C83.8563 118.652 84.2913 118.532 84.6413 118.292C84.9913 118.052 85.2463 117.727 85.4063 117.317H86.6513C86.4513 118.007 86.0663 118.582 85.4963 119.042C84.9363 119.492 84.2163 119.717 83.3363 119.717ZM83.3363 112.982C82.7363 112.982 82.2013 113.167 81.7313 113.537C81.2713 113.897 81.0063 114.427 80.9363 115.127H85.6163C85.5863 114.457 85.3563 113.932 84.9263 113.552C84.4963 113.172 83.9663 112.982 83.3363 112.982ZM88.5314 119.537V112.097H89.6714L89.7764 113.522C90.0064 113.032 90.3564 112.642 90.8264 112.352C91.2964 112.062 91.8764 111.917 92.5664 111.917V113.237H92.2214C91.7814 113.237 91.3764 113.317 91.0064 113.477C90.6364 113.627 90.3414 113.887 90.1214 114.257C89.9014 114.627 89.7914 115.137 89.7914 115.787V119.537H88.5314ZM97.0473 119.717C96.3373 119.717 95.7073 119.557 95.1573 119.237C94.6073 118.907 94.1723 118.452 93.8523 117.872C93.5423 117.292 93.3873 116.607 93.3873 115.817C93.3873 115.037 93.5423 114.357 93.8523 113.777C94.1623 113.187 94.5923 112.732 95.1423 112.412C95.7023 112.082 96.3473 111.917 97.0773 111.917C97.7973 111.917 98.4173 112.082 98.9373 112.412C99.4673 112.732 99.8723 113.157 100.152 113.687C100.432 114.217 100.572 114.787 100.572 115.397C100.572 115.507 100.567 115.617 100.557 115.727C100.557 115.837 100.557 115.962 100.557 116.102H94.6323C94.6623 116.672 94.7923 117.147 95.0223 117.527C95.2623 117.897 95.5573 118.177 95.9073 118.367C96.2673 118.557 96.6473 118.652 97.0473 118.652C97.5673 118.652 98.0023 118.532 98.3523 118.292C98.7023 118.052 98.9573 117.727 99.1173 117.317H100.362C100.162 118.007 99.7773 118.582 99.2073 119.042C98.6473 119.492 97.9273 119.717 97.0473 119.717ZM97.0473 112.982C96.4473 112.982 95.9123 113.167 95.4423 113.537C94.9823 113.897 94.7173 114.427 94.6473 115.127H99.3273C99.2973 114.457 99.0673 113.932 98.6373 113.552C98.2073 113.172 97.6773 112.982 97.0473 112.982ZM106.212 122.837V112.097H107.352L107.472 113.327C107.712 112.967 108.052 112.642 108.492 112.352C108.942 112.062 109.512 111.917 110.202 111.917C110.942 111.917 111.587 112.087 112.137 112.427C112.687 112.767 113.112 113.232 113.412 113.822C113.722 114.412 113.877 115.082 113.877 115.832C113.877 116.582 113.722 117.252 113.412 117.842C113.112 118.422 112.682 118.882 112.122 119.222C111.572 119.552 110.927 119.717 110.187 119.717C109.577 119.717 109.032 119.592 108.552 119.342C108.082 119.092 107.722 118.742 107.472 118.292V122.837H106.212ZM110.052 118.622C110.552 118.622 110.992 118.507 111.372 118.277C111.752 118.037 112.052 117.707 112.272 117.287C112.492 116.867 112.602 116.377 112.602 115.817C112.602 115.257 112.492 114.767 112.272 114.347C112.052 113.927 111.752 113.602 111.372 113.372C110.992 113.132 110.552 113.012 110.052 113.012C109.552 113.012 109.112 113.132 108.732 113.372C108.352 113.602 108.052 113.927 107.832 114.347C107.612 114.767 107.502 115.257 107.502 115.817C107.502 116.377 107.612 116.867 107.832 117.287C108.052 117.707 108.352 118.037 108.732 118.277C109.112 118.507 109.552 118.622 110.052 118.622ZM115.631 119.537V108.737H116.891V119.537H115.631ZM121.431 119.717C120.811 119.717 120.296 119.612 119.886 119.402C119.476 119.192 119.171 118.912 118.971 118.562C118.771 118.212 118.671 117.832 118.671 117.422C118.671 116.662 118.961 116.077 119.541 115.667C120.121 115.257 120.911 115.052 121.911 115.052H123.921V114.962C123.921 114.312 123.751 113.822 123.411 113.492C123.071 113.152 122.616 112.982 122.046 112.982C121.556 112.982 121.131 113.107 120.771 113.357C120.421 113.597 120.201 113.952 120.111 114.422H118.821C118.871 113.882 119.051 113.427 119.361 113.057C119.681 112.687 120.076 112.407 120.546 112.217C121.016 112.017 121.516 111.917 122.046 111.917C123.086 111.917 123.866 112.197 124.386 112.757C124.916 113.307 125.181 114.042 125.181 114.962V119.537H124.056L123.981 118.202C123.771 118.622 123.461 118.982 123.051 119.282C122.651 119.572 122.111 119.717 121.431 119.717ZM121.626 118.652C122.106 118.652 122.516 118.527 122.856 118.277C123.206 118.027 123.471 117.702 123.651 117.302C123.831 116.902 123.921 116.482 123.921 116.042V116.027H122.016C121.276 116.027 120.751 116.157 120.441 116.417C120.141 116.667 119.991 116.982 119.991 117.362C119.991 117.752 120.131 118.067 120.411 118.307C120.701 118.537 121.106 118.652 121.626 118.652ZM127.662 122.837L129.507 118.817H129.072L126.117 112.097H127.482L129.942 117.887L132.552 112.097H133.857L128.982 122.837H127.662ZM137.829 119.717C137.119 119.717 136.489 119.557 135.939 119.237C135.389 118.907 134.954 118.452 134.634 117.872C134.324 117.292 134.169 116.607 134.169 115.817C134.169 115.037 134.324 114.357 134.634 113.777C134.944 113.187 135.374 112.732 135.924 112.412C136.484 112.082 137.129 111.917 137.859 111.917C138.579 111.917 139.199 112.082 139.719 112.412C140.249 112.732 140.654 113.157 140.934 113.687C141.214 114.217 141.354 114.787 141.354 115.397C141.354 115.507 141.349 115.617 141.339 115.727C141.339 115.837 141.339 115.962 141.339 116.102H135.414C135.444 116.672 135.574 117.147 135.804 117.527C136.044 117.897 136.339 118.177 136.689 118.367C137.049 118.557 137.429 118.652 137.829 118.652C138.349 118.652 138.784 118.532 139.134 118.292C139.484 118.052 139.739 117.727 139.899 117.317H141.144C140.944 118.007 140.559 118.582 139.989 119.042C139.429 119.492 138.709 119.717 137.829 119.717ZM137.829 112.982C137.229 112.982 136.694 113.167 136.224 113.537C135.764 113.897 135.499 114.427 135.429 115.127H140.109C140.079 114.457 139.849 113.932 139.419 113.552C138.989 113.172 138.459 112.982 137.829 112.982ZM143.024 119.537V112.097H144.164L144.269 113.522C144.499 113.032 144.849 112.642 145.319 112.352C145.789 112.062 146.369 111.917 147.059 111.917V113.237H146.714C146.274 113.237 145.869 113.317 145.499 113.477C145.129 113.627 144.834 113.887 144.614 114.257C144.394 114.627 144.284 115.137 144.284 115.787V119.537H143.024ZM151.323 119.717C150.433 119.717 149.693 119.492 149.103 119.042C148.513 118.592 148.168 117.982 148.068 117.212H149.358C149.438 117.602 149.643 117.942 149.973 118.232C150.313 118.512 150.768 118.652 151.338 118.652C151.868 118.652 152.258 118.542 152.508 118.322C152.758 118.092 152.883 117.822 152.883 117.512C152.883 117.062 152.718 116.762 152.388 116.612C152.068 116.462 151.613 116.327 151.023 116.207C150.623 116.127 150.223 116.012 149.823 115.862C149.423 115.712 149.088 115.502 148.818 115.232C148.548 114.952 148.413 114.587 148.413 114.137C148.413 113.487 148.653 112.957 149.133 112.547C149.623 112.127 150.283 111.917 151.113 111.917C151.903 111.917 152.548 112.117 153.048 112.517C153.558 112.907 153.853 113.467 153.933 114.197H152.688C152.638 113.817 152.473 113.522 152.193 113.312C151.923 113.092 151.558 112.982 151.098 112.982C150.648 112.982 150.298 113.077 150.048 113.267C149.808 113.457 149.688 113.707 149.688 114.017C149.688 114.317 149.843 114.552 150.153 114.722C150.473 114.892 150.903 115.037 151.443 115.157C151.903 115.257 152.338 115.382 152.748 115.532C153.168 115.672 153.508 115.887 153.768 116.177C154.038 116.457 154.173 116.867 154.173 117.407C154.183 118.077 153.928 118.632 153.408 119.072C152.898 119.502 152.203 119.717 151.323 119.717ZM44.4318 139.717C43.7218 139.717 43.0818 139.557 42.5118 139.237C41.9518 138.907 41.5068 138.452 41.1768 137.872C40.8568 137.282 40.6968 136.597 40.6968 135.817C40.6968 135.037 40.8568 134.357 41.1768 133.777C41.5068 133.187 41.9518 132.732 42.5118 132.412C43.0818 132.082 43.7218 131.917 44.4318 131.917C45.3118 131.917 46.0518 132.147 46.6518 132.607C47.2618 133.067 47.6468 133.682 47.8068 134.452H46.5168C46.4168 133.992 46.1718 133.637 45.7818 133.387C45.3918 133.127 44.9368 132.997 44.4168 132.997C43.9968 132.997 43.6018 133.102 43.2318 133.312C42.8618 133.522 42.5618 133.837 42.3318 134.257C42.1018 134.677 41.9868 135.197 41.9868 135.817C41.9868 136.437 42.1018 136.957 42.3318 137.377C42.5618 137.797 42.8618 138.117 43.2318 138.337C43.6018 138.547 43.9968 138.652 44.4168 138.652C44.9368 138.652 45.3918 138.527 45.7818 138.277C46.1718 138.017 46.4168 137.652 46.5168 137.182H47.8068C47.6568 137.932 47.2768 138.542 46.6668 139.012C46.0568 139.482 45.3118 139.717 44.4318 139.717ZM52.9565 139.717C52.2565 139.717 51.6265 139.557 51.0665 139.237C50.5065 138.917 50.0615 138.467 49.7315 137.887C49.4115 137.297 49.2515 136.607 49.2515 135.817C49.2515 135.027 49.4165 134.342 49.7465 133.762C50.0765 133.172 50.5215 132.717 51.0815 132.397C51.6515 132.077 52.2865 131.917 52.9865 131.917C53.6865 131.917 54.3165 132.077 54.8765 132.397C55.4365 132.717 55.8765 133.172 56.1965 133.762C56.5265 134.342 56.6915 135.027 56.6915 135.817C56.6915 136.607 56.5265 137.297 56.1965 137.887C55.8665 138.467 55.4165 138.917 54.8465 139.237C54.2865 139.557 53.6565 139.717 52.9565 139.717ZM52.9565 138.637C53.3865 138.637 53.7865 138.532 54.1565 138.322C54.5265 138.112 54.8265 137.797 55.0565 137.377C55.2865 136.957 55.4015 136.437 55.4015 135.817C55.4015 135.197 55.2865 134.677 55.0565 134.257C54.8365 133.837 54.5415 133.522 54.1715 133.312C53.8015 133.102 53.4065 132.997 52.9865 132.997C52.5565 132.997 52.1565 133.102 51.7865 133.312C51.4165 133.522 51.1165 133.837 50.8865 134.257C50.6565 134.677 50.5415 135.197 50.5415 135.817C50.5415 136.437 50.6565 136.957 50.8865 137.377C51.1165 137.797 51.4115 138.112 51.7715 138.322C52.1415 138.532 52.5365 138.637 52.9565 138.637ZM58.4435 139.537V132.097H59.5835L59.6735 133.177C59.9135 132.777 60.2335 132.467 60.6335 132.247C61.0335 132.027 61.4835 131.917 61.9835 131.917C62.5735 131.917 63.0785 132.037 63.4985 132.277C63.9285 132.517 64.2585 132.882 64.4885 133.372C64.7485 132.922 65.1035 132.567 65.5535 132.307C66.0135 132.047 66.5085 131.917 67.0385 131.917C67.9285 131.917 68.6385 132.187 69.1685 132.727C69.6985 133.257 69.9635 134.077 69.9635 135.187V139.537H68.7185V135.322C68.7185 134.552 68.5635 133.972 68.2535 133.582C67.9435 133.192 67.4985 132.997 66.9185 132.997C66.3185 132.997 65.8185 133.232 65.4185 133.702C65.0285 134.162 64.8335 134.822 64.8335 135.682V139.537H63.5735V135.322C63.5735 134.552 63.4185 133.972 63.1085 133.582C62.7985 133.192 62.3535 132.997 61.7735 132.997C61.1835 132.997 60.6885 133.232 60.2885 133.702C59.8985 134.162 59.7035 134.822 59.7035 135.682V139.537H58.4435ZM71.8614 142.837V132.097H73.0014L73.1214 133.327C73.3614 132.967 73.7014 132.642 74.1414 132.352C74.5914 132.062 75.1614 131.917 75.8514 131.917C76.5914 131.917 77.2364 132.087 77.7864 132.427C78.3364 132.767 78.7614 133.232 79.0614 133.822C79.3714 134.412 79.5264 135.082 79.5264 135.832C79.5264 136.582 79.3714 137.252 79.0614 137.842C78.7614 138.422 78.3314 138.882 77.7714 139.222C77.2214 139.552 76.5764 139.717 75.8364 139.717C75.2264 139.717 74.6814 139.592 74.2014 139.342C73.7314 139.092 73.3714 138.742 73.1214 138.292V142.837H71.8614ZM75.7014 138.622C76.2014 138.622 76.6414 138.507 77.0214 138.277C77.4014 138.037 77.7014 137.707 77.9214 137.287C78.1414 136.867 78.2514 136.377 78.2514 135.817C78.2514 135.257 78.1414 134.767 77.9214 134.347C77.7014 133.927 77.4014 133.602 77.0214 133.372C76.6414 133.132 76.2014 133.012 75.7014 133.012C75.2014 133.012 74.7614 133.132 74.3814 133.372C74.0014 133.602 73.7014 133.927 73.4814 134.347C73.2614 134.767 73.1514 135.257 73.1514 135.817C73.1514 136.377 73.2614 136.867 73.4814 137.287C73.7014 137.707 74.0014 138.037 74.3814 138.277C74.7614 138.507 75.2014 138.622 75.7014 138.622ZM84.6254 139.717C83.9154 139.717 83.2854 139.557 82.7354 139.237C82.1854 138.907 81.7504 138.452 81.4304 137.872C81.1204 137.292 80.9654 136.607 80.9654 135.817C80.9654 135.037 81.1204 134.357 81.4304 133.777C81.7404 133.187 82.1704 132.732 82.7204 132.412C83.2804 132.082 83.9254 131.917 84.6554 131.917C85.3754 131.917 85.9954 132.082 86.5154 132.412C87.0454 132.732 87.4504 133.157 87.7304 133.687C88.0104 134.217 88.1504 134.787 88.1504 135.397C88.1504 135.507 88.1454 135.617 88.1354 135.727C88.1354 135.837 88.1354 135.962 88.1354 136.102H82.2104C82.2404 136.672 82.3704 137.147 82.6004 137.527C82.8404 137.897 83.1354 138.177 83.4854 138.367C83.8454 138.557 84.2254 138.652 84.6254 138.652C85.1454 138.652 85.5804 138.532 85.9304 138.292C86.2804 138.052 86.5354 137.727 86.6954 137.317H87.9404C87.7404 138.007 87.3554 138.582 86.7854 139.042C86.2254 139.492 85.5054 139.717 84.6254 139.717ZM84.6254 132.982C84.0254 132.982 83.4904 133.167 83.0204 133.537C82.5604 133.897 82.2954 134.427 82.2254 135.127H86.9054C86.8754 134.457 86.6454 133.932 86.2154 133.552C85.7854 133.172 85.2554 132.982 84.6254 132.982ZM92.5114 139.537C91.8314 139.537 91.2964 139.372 90.9064 139.042C90.5164 138.712 90.3214 138.117 90.3214 137.257V133.162H89.0314V132.097H90.3214L90.4864 130.312H91.5814V132.097H93.7714V133.162H91.5814V137.257C91.5814 137.727 91.6764 138.047 91.8664 138.217C92.0564 138.377 92.3914 138.457 92.8714 138.457H93.6514V139.537H92.5114ZM98.5121 139.717C97.8021 139.717 97.1721 139.557 96.6221 139.237C96.0721 138.907 95.6371 138.452 95.3171 137.872C95.0071 137.292 94.8521 136.607 94.8521 135.817C94.8521 135.037 95.0071 134.357 95.3171 133.777C95.6271 133.187 96.0571 132.732 96.6071 132.412C97.1671 132.082 97.8121 131.917 98.5421 131.917C99.2621 131.917 99.8821 132.082 100.402 132.412C100.932 132.732 101.337 133.157 101.617 133.687C101.897 134.217 102.037 134.787 102.037 135.397C102.037 135.507 102.032 135.617 102.022 135.727C102.022 135.837 102.022 135.962 102.022 136.102H96.0971C96.1271 136.672 96.2571 137.147 96.4871 137.527C96.7271 137.897 97.0221 138.177 97.3721 138.367C97.7321 138.557 98.1121 138.652 98.5121 138.652C99.0321 138.652 99.4671 138.532 99.8171 138.292C100.167 138.052 100.422 137.727 100.582 137.317H101.827C101.627 138.007 101.242 138.582 100.672 139.042C100.112 139.492 99.3921 139.717 98.5121 139.717ZM98.5121 132.982C97.9121 132.982 97.3771 133.167 96.9071 133.537C96.4471 133.897 96.1821 134.427 96.1121 135.127H100.792C100.762 134.457 100.532 133.932 100.102 133.552C99.6721 133.172 99.1421 132.982 98.5121 132.982ZM110.617 139.537C109.937 139.537 109.402 139.372 109.012 139.042C108.622 138.712 108.427 138.117 108.427 137.257V133.162H107.137V132.097H108.427L108.592 130.312H109.687V132.097H111.877V133.162H109.687V137.257C109.687 137.727 109.782 138.047 109.972 138.217C110.162 138.377 110.497 138.457 110.977 138.457H111.757V139.537H110.617ZM116.663 139.717C115.963 139.717 115.333 139.557 114.773 139.237C114.213 138.917 113.768 138.467 113.438 137.887C113.118 137.297 112.958 136.607 112.958 135.817C112.958 135.027 113.123 134.342 113.453 133.762C113.783 133.172 114.228 132.717 114.788 132.397C115.358 132.077 115.993 131.917 116.693 131.917C117.393 131.917 118.023 132.077 118.583 132.397C119.143 132.717 119.583 133.172 119.903 133.762C120.233 134.342 120.398 135.027 120.398 135.817C120.398 136.607 120.233 137.297 119.903 137.887C119.573 138.467 119.123 138.917 118.553 139.237C117.993 139.557 117.363 139.717 116.663 139.717ZM116.663 138.637C117.093 138.637 117.493 138.532 117.863 138.322C118.233 138.112 118.533 137.797 118.763 137.377C118.993 136.957 119.108 136.437 119.108 135.817C119.108 135.197 118.993 134.677 118.763 134.257C118.543 133.837 118.248 133.522 117.878 133.312C117.508 133.102 117.113 132.997 116.693 132.997C116.263 132.997 115.863 133.102 115.493 133.312C115.123 133.522 114.823 133.837 114.593 134.257C114.363 134.677 114.248 135.197 114.248 135.817C114.248 136.437 114.363 136.957 114.593 137.377C114.823 137.797 115.118 138.112 115.478 138.322C115.848 138.532 116.243 138.637 116.663 138.637ZM128.594 139.717C127.974 139.717 127.459 139.612 127.049 139.402C126.639 139.192 126.334 138.912 126.134 138.562C125.934 138.212 125.834 137.832 125.834 137.422C125.834 136.662 126.124 136.077 126.704 135.667C127.284 135.257 128.074 135.052 129.074 135.052H131.084V134.962C131.084 134.312 130.914 133.822 130.574 133.492C130.234 133.152 129.779 132.982 129.209 132.982C128.719 132.982 128.294 133.107 127.934 133.357C127.584 133.597 127.364 133.952 127.274 134.422H125.984C126.034 133.882 126.214 133.427 126.524 133.057C126.844 132.687 127.239 132.407 127.709 132.217C128.179 132.017 128.679 131.917 129.209 131.917C130.249 131.917 131.029 132.197 131.549 132.757C132.079 133.307 132.344 134.042 132.344 134.962V139.537H131.219L131.144 138.202C130.934 138.622 130.624 138.982 130.214 139.282C129.814 139.572 129.274 139.717 128.594 139.717ZM128.789 138.652C129.269 138.652 129.679 138.527 130.019 138.277C130.369 138.027 130.634 137.702 130.814 137.302C130.994 136.902 131.084 136.482 131.084 136.042V136.027H129.179C128.439 136.027 127.914 136.157 127.604 136.417C127.304 136.667 127.154 136.982 127.154 137.362C127.154 137.752 127.294 138.067 127.574 138.307C127.864 138.537 128.269 138.652 128.789 138.652ZM134.234 139.537V132.097H135.374L135.449 133.432C135.689 132.962 136.034 132.592 136.484 132.322C136.934 132.052 137.444 131.917 138.014 131.917C138.894 131.917 139.594 132.187 140.114 132.727C140.644 133.257 140.909 134.077 140.909 135.187V139.537H139.649V135.322C139.649 133.772 139.009 132.997 137.729 132.997C137.089 132.997 136.554 133.232 136.124 133.702C135.704 134.162 135.494 134.822 135.494 135.682V139.537H134.234ZM145.668 139.717C144.778 139.717 144.038 139.492 143.448 139.042C142.858 138.592 142.513 137.982 142.413 137.212H143.703C143.783 137.602 143.988 137.942 144.318 138.232C144.658 138.512 145.113 138.652 145.683 138.652C146.213 138.652 146.603 138.542 146.853 138.322C147.103 138.092 147.228 137.822 147.228 137.512C147.228 137.062 147.063 136.762 146.733 136.612C146.413 136.462 145.958 136.327 145.368 136.207C144.968 136.127 144.568 136.012 144.168 135.862C143.768 135.712 143.433 135.502 143.163 135.232C142.893 134.952 142.758 134.587 142.758 134.137C142.758 133.487 142.998 132.957 143.478 132.547C143.968 132.127 144.628 131.917 145.458 131.917C146.248 131.917 146.893 132.117 147.393 132.517C147.903 132.907 148.198 133.467 148.278 134.197H147.033C146.983 133.817 146.818 133.522 146.538 133.312C146.268 133.092 145.903 132.982 145.443 132.982C144.993 132.982 144.643 133.077 144.393 133.267C144.153 133.457 144.033 133.707 144.033 134.017C144.033 134.317 144.188 134.552 144.498 134.722C144.818 134.892 145.248 135.037 145.788 135.157C146.248 135.257 146.683 135.382 147.093 135.532C147.513 135.672 147.853 135.887 148.113 136.177C148.383 136.457 148.518 136.867 148.518 137.407C148.528 138.077 148.273 138.632 147.753 139.072C147.243 139.502 146.548 139.717 145.668 139.717ZM151.54 139.537L149.365 132.097H150.625L152.2 137.932L153.94 132.097H155.365L157.12 137.932L158.68 132.097H159.955L157.78 139.537H156.49L154.66 133.402L152.83 139.537H151.54ZM164.415 139.717C163.705 139.717 163.075 139.557 162.525 139.237C161.975 138.907 161.54 138.452 161.22 137.872C160.91 137.292 160.755 136.607 160.755 135.817C160.755 135.037 160.91 134.357 161.22 133.777C161.53 133.187 161.96 132.732 162.51 132.412C163.07 132.082 163.715 131.917 164.445 131.917C165.165 131.917 165.785 132.082 166.305 132.412C166.835 132.732 167.24 133.157 167.52 133.687C167.8 134.217 167.94 134.787 167.94 135.397C167.94 135.507 167.935 135.617 167.925 135.727C167.925 135.837 167.925 135.962 167.925 136.102H162C162.03 136.672 162.16 137.147 162.39 137.527C162.63 137.897 162.925 138.177 163.275 138.367C163.635 138.557 164.015 138.652 164.415 138.652C164.935 138.652 165.37 138.532 165.72 138.292C166.07 138.052 166.325 137.727 166.485 137.317H167.73C167.53 138.007 167.145 138.582 166.575 139.042C166.015 139.492 165.295 139.717 164.415 139.717ZM164.415 132.982C163.815 132.982 163.28 133.167 162.81 133.537C162.35 133.897 162.085 134.427 162.015 135.127H166.695C166.665 134.457 166.435 133.932 166.005 133.552C165.575 133.172 165.045 132.982 164.415 132.982ZM169.61 139.537V132.097H170.75L170.855 133.522C171.085 133.032 171.435 132.642 171.905 132.352C172.375 132.062 172.955 131.917 173.645 131.917V133.237H173.3C172.86 133.237 172.455 133.317 172.085 133.477C171.715 133.627 171.42 133.887 171.2 134.257C170.98 134.627 170.87 135.137 170.87 135.787V139.537H169.61ZM43.8859 159.537C43.2059 159.537 42.6709 159.372 42.2809 159.042C41.8909 158.712 41.6959 158.117 41.6959 157.257V153.162H40.4059V152.097H41.6959L41.8609 150.312H42.9559V152.097H45.1459V153.162H42.9559V157.257C42.9559 157.727 43.0509 158.047 43.2409 158.217C43.4309 158.377 43.7659 158.457 44.2459 158.457H45.0259V159.537H43.8859ZM46.7467 159.537V148.737H48.0067V153.372C48.2567 152.912 48.6117 152.557 49.0717 152.307C49.5317 152.047 50.0317 151.917 50.5717 151.917C51.4317 151.917 52.1217 152.187 52.6417 152.727C53.1617 153.257 53.4217 154.077 53.4217 155.187V159.537H52.1767V155.322C52.1767 153.772 51.5517 152.997 50.3017 152.997C49.6517 152.997 49.1067 153.232 48.6667 153.702C48.2267 154.162 48.0067 154.822 48.0067 155.682V159.537H46.7467ZM58.6757 159.717C57.9657 159.717 57.3357 159.557 56.7857 159.237C56.2357 158.907 55.8007 158.452 55.4807 157.872C55.1707 157.292 55.0157 156.607 55.0157 155.817C55.0157 155.037 55.1707 154.357 55.4807 153.777C55.7907 153.187 56.2207 152.732 56.7707 152.412C57.3307 152.082 57.9757 151.917 58.7057 151.917C59.4257 151.917 60.0457 152.082 60.5657 152.412C61.0957 152.732 61.5007 153.157 61.7807 153.687C62.0607 154.217 62.2007 154.787 62.2007 155.397C62.2007 155.507 62.1957 155.617 62.1857 155.727C62.1857 155.837 62.1857 155.962 62.1857 156.102H56.2607C56.2907 156.672 56.4207 157.147 56.6507 157.527C56.8907 157.897 57.1857 158.177 57.5357 158.367C57.8957 158.557 58.2757 158.652 58.6757 158.652C59.1957 158.652 59.6307 158.532 59.9807 158.292C60.3307 158.052 60.5857 157.727 60.7457 157.317H61.9907C61.7907 158.007 61.4057 158.582 60.8357 159.042C60.2757 159.492 59.5557 159.717 58.6757 159.717ZM58.6757 152.982C58.0757 152.982 57.5407 153.167 57.0707 153.537C56.6107 153.897 56.3457 154.427 56.2757 155.127H60.9557C60.9257 154.457 60.6957 153.932 60.2657 153.552C59.8357 153.172 59.3057 152.982 58.6757 152.982ZM67.8405 159.537V152.097H68.9805L69.0705 153.177C69.3105 152.777 69.6305 152.467 70.0305 152.247C70.4305 152.027 70.8805 151.917 71.3805 151.917C71.9705 151.917 72.4755 152.037 72.8955 152.277C73.3255 152.517 73.6555 152.882 73.8855 153.372C74.1455 152.922 74.5005 152.567 74.9505 152.307C75.4105 152.047 75.9055 151.917 76.4355 151.917C77.3255 151.917 78.0355 152.187 78.5655 152.727C79.0955 153.257 79.3605 154.077 79.3605 155.187V159.537H78.1155V155.322C78.1155 154.552 77.9605 153.972 77.6505 153.582C77.3405 153.192 76.8955 152.997 76.3155 152.997C75.7155 152.997 75.2155 153.232 74.8155 153.702C74.4255 154.162 74.2305 154.822 74.2305 155.682V159.537H72.9705V155.322C72.9705 154.552 72.8155 153.972 72.5055 153.582C72.1955 153.192 71.7505 152.997 71.1705 152.997C70.5805 152.997 70.0855 153.232 69.6855 153.702C69.2955 154.162 69.1005 154.822 69.1005 155.682V159.537H67.8405ZM84.6484 159.717C83.9484 159.717 83.3184 159.557 82.7584 159.237C82.1984 158.917 81.7534 158.467 81.4234 157.887C81.1034 157.297 80.9434 156.607 80.9434 155.817C80.9434 155.027 81.1084 154.342 81.4384 153.762C81.7684 153.172 82.2134 152.717 82.7734 152.397C83.3434 152.077 83.9784 151.917 84.6784 151.917C85.3784 151.917 86.0084 152.077 86.5684 152.397C87.1284 152.717 87.5684 153.172 87.8884 153.762C88.2184 154.342 88.3834 155.027 88.3834 155.817C88.3834 156.607 88.2184 157.297 87.8884 157.887C87.5584 158.467 87.1084 158.917 86.5384 159.237C85.9784 159.557 85.3484 159.717 84.6484 159.717ZM84.6484 158.637C85.0784 158.637 85.4784 158.532 85.8484 158.322C86.2184 158.112 86.5184 157.797 86.7484 157.377C86.9784 156.957 87.0934 156.437 87.0934 155.817C87.0934 155.197 86.9784 154.677 86.7484 154.257C86.5284 153.837 86.2334 153.522 85.8634 153.312C85.4934 153.102 85.0984 152.997 84.6784 152.997C84.2484 152.997 83.8484 153.102 83.4784 153.312C83.1084 153.522 82.8084 153.837 82.5784 154.257C82.3484 154.677 82.2334 155.197 82.2334 155.817C82.2334 156.437 82.3484 156.957 82.5784 157.377C82.8084 157.797 83.1034 158.112 83.4634 158.322C83.8334 158.532 84.2284 158.637 84.6484 158.637ZM92.9854 159.717C92.0954 159.717 91.3554 159.492 90.7654 159.042C90.1754 158.592 89.8304 157.982 89.7304 157.212H91.0204C91.1004 157.602 91.3054 157.942 91.6354 158.232C91.9754 158.512 92.4304 158.652 93.0004 158.652C93.5304 158.652 93.9204 158.542 94.1704 158.322C94.4204 158.092 94.5454 157.822 94.5454 157.512C94.5454 157.062 94.3804 156.762 94.0504 156.612C93.7304 156.462 93.2754 156.327 92.6854 156.207C92.2854 156.127 91.8854 156.012 91.4854 155.862C91.0854 155.712 90.7504 155.502 90.4804 155.232C90.2104 154.952 90.0754 154.587 90.0754 154.137C90.0754 153.487 90.3154 152.957 90.7954 152.547C91.2854 152.127 91.9454 151.917 92.7754 151.917C93.5654 151.917 94.2104 152.117 94.7104 152.517C95.2204 152.907 95.5154 153.467 95.5954 154.197H94.3504C94.3004 153.817 94.1354 153.522 93.8554 153.312C93.5854 153.092 93.2204 152.982 92.7604 152.982C92.3104 152.982 91.9604 153.077 91.7104 153.267C91.4704 153.457 91.3504 153.707 91.3504 154.017C91.3504 154.317 91.5054 154.552 91.8154 154.722C92.1354 154.892 92.5654 155.037 93.1054 155.157C93.5654 155.257 94.0004 155.382 94.4104 155.532C94.8304 155.672 95.1704 155.887 95.4304 156.177C95.7004 156.457 95.8354 156.867 95.8354 157.407C95.8454 158.077 95.5904 158.632 95.0704 159.072C94.5604 159.502 93.8654 159.717 92.9854 159.717ZM100.238 159.537C99.5585 159.537 99.0235 159.372 98.6335 159.042C98.2435 158.712 98.0485 158.117 98.0485 157.257V153.162H96.7585V152.097H98.0485L98.2135 150.312H99.3085V152.097H101.498V153.162H99.3085V157.257C99.3085 157.727 99.4035 158.047 99.5935 158.217C99.7835 158.377 100.118 158.457 100.598 158.457H101.378V159.537H100.238ZM113.174 162.837V158.307C112.934 158.667 112.589 158.992 112.139 159.282C111.689 159.572 111.124 159.717 110.444 159.717C109.704 159.717 109.054 159.547 108.494 159.207C107.944 158.867 107.514 158.402 107.204 157.812C106.904 157.222 106.754 156.552 106.754 155.802C106.754 155.052 106.909 154.387 107.219 153.807C107.529 153.217 107.959 152.757 108.509 152.427C109.059 152.087 109.709 151.917 110.459 151.917C111.069 151.917 111.609 152.042 112.079 152.292C112.549 152.542 112.914 152.892 113.174 153.342L113.294 152.097H114.434V162.837H113.174ZM110.579 158.622C111.079 158.622 111.519 158.507 111.899 158.277C112.289 158.037 112.589 157.707 112.799 157.287C113.019 156.867 113.129 156.377 113.129 155.817C113.129 155.257 113.019 154.767 112.799 154.347C112.589 153.927 112.289 153.602 111.899 153.372C111.519 153.132 111.079 153.012 110.579 153.012C110.089 153.012 109.649 153.132 109.259 153.372C108.879 153.602 108.579 153.927 108.359 154.347C108.149 154.767 108.044 155.257 108.044 155.817C108.044 156.377 108.149 156.867 108.359 157.287C108.579 157.707 108.879 158.037 109.259 158.277C109.649 158.507 110.089 158.622 110.579 158.622ZM119.203 159.717C118.323 159.717 117.623 159.452 117.103 158.922C116.583 158.382 116.323 157.557 116.323 156.447V152.097H117.583V156.312C117.583 157.862 118.218 158.637 119.488 158.637C120.138 158.637 120.673 158.407 121.093 157.947C121.523 157.477 121.738 156.812 121.738 155.952V152.097H122.998V159.537H121.858L121.768 158.202C121.538 158.672 121.193 159.042 120.733 159.312C120.283 159.582 119.773 159.717 119.203 159.717ZM128.417 159.717C127.707 159.717 127.077 159.557 126.527 159.237C125.977 158.907 125.542 158.452 125.222 157.872C124.912 157.292 124.757 156.607 124.757 155.817C124.757 155.037 124.912 154.357 125.222 153.777C125.532 153.187 125.962 152.732 126.512 152.412C127.072 152.082 127.717 151.917 128.447 151.917C129.167 151.917 129.787 152.082 130.307 152.412C130.837 152.732 131.242 153.157 131.522 153.687C131.802 154.217 131.942 154.787 131.942 155.397C131.942 155.507 131.937 155.617 131.927 155.727C131.927 155.837 131.927 155.962 131.927 156.102H126.002C126.032 156.672 126.162 157.147 126.392 157.527C126.632 157.897 126.927 158.177 127.277 158.367C127.637 158.557 128.017 158.652 128.417 158.652C128.937 158.652 129.372 158.532 129.722 158.292C130.072 158.052 130.327 157.727 130.487 157.317H131.732C131.532 158.007 131.147 158.582 130.577 159.042C130.017 159.492 129.297 159.717 128.417 159.717ZM128.417 152.982C127.817 152.982 127.282 153.167 126.812 153.537C126.352 153.897 126.087 154.427 126.017 155.127H130.697C130.667 154.457 130.437 153.932 130.007 153.552C129.577 153.172 129.047 152.982 128.417 152.982ZM136.462 159.717C135.572 159.717 134.832 159.492 134.242 159.042C133.652 158.592 133.307 157.982 133.207 157.212H134.497C134.577 157.602 134.782 157.942 135.112 158.232C135.452 158.512 135.907 158.652 136.477 158.652C137.007 158.652 137.397 158.542 137.647 158.322C137.897 158.092 138.022 157.822 138.022 157.512C138.022 157.062 137.857 156.762 137.527 156.612C137.207 156.462 136.752 156.327 136.162 156.207C135.762 156.127 135.362 156.012 134.962 155.862C134.562 155.712 134.227 155.502 133.957 155.232C133.687 154.952 133.552 154.587 133.552 154.137C133.552 153.487 133.792 152.957 134.272 152.547C134.762 152.127 135.422 151.917 136.252 151.917C137.042 151.917 137.687 152.117 138.187 152.517C138.697 152.907 138.992 153.467 139.072 154.197H137.827C137.777 153.817 137.612 153.522 137.332 153.312C137.062 153.092 136.697 152.982 136.237 152.982C135.787 152.982 135.437 153.077 135.187 153.267C134.947 153.457 134.827 153.707 134.827 154.017C134.827 154.317 134.982 154.552 135.292 154.722C135.612 154.892 136.042 155.037 136.582 155.157C137.042 155.257 137.477 155.382 137.887 155.532C138.307 155.672 138.647 155.887 138.907 156.177C139.177 156.457 139.312 156.867 139.312 157.407C139.322 158.077 139.067 158.632 138.547 159.072C138.037 159.502 137.342 159.717 136.462 159.717ZM143.715 159.537C143.035 159.537 142.5 159.372 142.11 159.042C141.72 158.712 141.525 158.117 141.525 157.257V153.162H140.235V152.097H141.525L141.69 150.312H142.785V152.097H144.975V153.162H142.785V157.257C142.785 157.727 142.88 158.047 143.07 158.217C143.26 158.377 143.595 158.457 144.075 158.457H144.855V159.537H143.715ZM147.341 150.447C147.091 150.447 146.881 150.367 146.711 150.207C146.551 150.037 146.471 149.827 146.471 149.577C146.471 149.337 146.551 149.137 146.711 148.977C146.881 148.817 147.091 148.737 147.341 148.737C147.581 148.737 147.786 148.817 147.956 148.977C148.126 149.137 148.211 149.337 148.211 149.577C148.211 149.827 148.126 150.037 147.956 150.207C147.786 150.367 147.581 150.447 147.341 150.447ZM146.711 159.537V152.097H147.971V159.537H146.711ZM153.555 159.717C152.855 159.717 152.225 159.557 151.665 159.237C151.105 158.917 150.66 158.467 150.33 157.887C150.01 157.297 149.85 156.607 149.85 155.817C149.85 155.027 150.015 154.342 150.345 153.762C150.675 153.172 151.12 152.717 151.68 152.397C152.25 152.077 152.885 151.917 153.585 151.917C154.285 151.917 154.915 152.077 155.475 152.397C156.035 152.717 156.475 153.172 156.795 153.762C157.125 154.342 157.29 155.027 157.29 155.817C157.29 156.607 157.125 157.297 156.795 157.887C156.465 158.467 156.015 158.917 155.445 159.237C154.885 159.557 154.255 159.717 153.555 159.717ZM153.555 158.637C153.985 158.637 154.385 158.532 154.755 158.322C155.125 158.112 155.425 157.797 155.655 157.377C155.885 156.957 156 156.437 156 155.817C156 155.197 155.885 154.677 155.655 154.257C155.435 153.837 155.14 153.522 154.77 153.312C154.4 153.102 154.005 152.997 153.585 152.997C153.155 152.997 152.755 153.102 152.385 153.312C152.015 153.522 151.715 153.837 151.485 154.257C151.255 154.677 151.14 155.197 151.14 155.817C151.14 156.437 151.255 156.957 151.485 157.377C151.715 157.797 152.01 158.112 152.37 158.322C152.74 158.532 153.135 158.637 153.555 158.637ZM159.042 159.537V152.097H160.182L160.257 153.432C160.497 152.962 160.842 152.592 161.292 152.322C161.742 152.052 162.252 151.917 162.822 151.917C163.702 151.917 164.402 152.187 164.922 152.727C165.452 153.257 165.717 154.077 165.717 155.187V159.537H164.457V155.322C164.457 153.772 163.817 152.997 162.537 152.997C161.897 152.997 161.362 153.232 160.932 153.702C160.512 154.162 160.302 154.822 160.302 155.682V159.537H159.042ZM170.476 159.717C169.586 159.717 168.846 159.492 168.256 159.042C167.666 158.592 167.321 157.982 167.221 157.212H168.511C168.591 157.602 168.796 157.942 169.126 158.232C169.466 158.512 169.921 158.652 170.491 158.652C171.021 158.652 171.411 158.542 171.661 158.322C171.911 158.092 172.036 157.822 172.036 157.512C172.036 157.062 171.871 156.762 171.541 156.612C171.221 156.462 170.766 156.327 170.176 156.207C169.776 156.127 169.376 156.012 168.976 155.862C168.576 155.712 168.241 155.502 167.971 155.232C167.701 154.952 167.566 154.587 167.566 154.137C167.566 153.487 167.806 152.957 168.286 152.547C168.776 152.127 169.436 151.917 170.266 151.917C171.056 151.917 171.701 152.117 172.201 152.517C172.711 152.907 173.006 153.467 173.086 154.197H171.841C171.791 153.817 171.626 153.522 171.346 153.312C171.076 153.092 170.711 152.982 170.251 152.982C169.801 152.982 169.451 153.077 169.201 153.267C168.961 153.457 168.841 153.707 168.841 154.017C168.841 154.317 168.996 154.552 169.306 154.722C169.626 154.892 170.056 155.037 170.596 155.157C171.056 155.257 171.491 155.382 171.901 155.532C172.321 155.672 172.661 155.887 172.921 156.177C173.191 156.457 173.326 156.867 173.326 157.407C173.336 158.077 173.081 158.632 172.561 159.072C172.051 159.502 171.356 159.717 170.476 159.717ZM80.2546 179.717C79.5446 179.717 78.9046 179.557 78.3346 179.237C77.7746 178.907 77.3296 178.452 76.9996 177.872C76.6796 177.282 76.5196 176.597 76.5196 175.817C76.5196 175.037 76.6796 174.357 76.9996 173.777C77.3296 173.187 77.7746 172.732 78.3346 172.412C78.9046 172.082 79.5446 171.917 80.2546 171.917C81.1346 171.917 81.8746 172.147 82.4746 172.607C83.0846 173.067 83.4696 173.682 83.6296 174.452H82.3396C82.2396 173.992 81.9946 173.637 81.6046 173.387C81.2146 173.127 80.7596 172.997 80.2396 172.997C79.8196 172.997 79.4246 173.102 79.0546 173.312C78.6846 173.522 78.3846 173.837 78.1546 174.257C77.9246 174.677 77.8096 175.197 77.8096 175.817C77.8096 176.437 77.9246 176.957 78.1546 177.377C78.3846 177.797 78.6846 178.117 79.0546 178.337C79.4246 178.547 79.8196 178.652 80.2396 178.652C80.7596 178.652 81.2146 178.527 81.6046 178.277C81.9946 178.017 82.2396 177.652 82.3396 177.182H83.6296C83.4796 177.932 83.0996 178.542 82.4896 179.012C81.8796 179.482 81.1346 179.717 80.2546 179.717ZM88.7793 179.717C88.0793 179.717 87.4493 179.557 86.8893 179.237C86.3293 178.917 85.8843 178.467 85.5543 177.887C85.2343 177.297 85.0743 176.607 85.0743 175.817C85.0743 175.027 85.2393 174.342 85.5693 173.762C85.8993 173.172 86.3443 172.717 86.9043 172.397C87.4743 172.077 88.1093 171.917 88.8093 171.917C89.5093 171.917 90.1393 172.077 90.6993 172.397C91.2593 172.717 91.6993 173.172 92.0193 173.762C92.3493 174.342 92.5143 175.027 92.5143 175.817C92.5143 176.607 92.3493 177.297 92.0193 177.887C91.6893 178.467 91.2393 178.917 90.6693 179.237C90.1093 179.557 89.4793 179.717 88.7793 179.717ZM88.7793 178.637C89.2093 178.637 89.6093 178.532 89.9793 178.322C90.3493 178.112 90.6493 177.797 90.8793 177.377C91.1093 176.957 91.2243 176.437 91.2243 175.817C91.2243 175.197 91.1093 174.677 90.8793 174.257C90.6593 173.837 90.3643 173.522 89.9943 173.312C89.6243 173.102 89.2293 172.997 88.8093 172.997C88.3793 172.997 87.9793 173.102 87.6093 173.312C87.2393 173.522 86.9393 173.837 86.7093 174.257C86.4793 174.677 86.3643 175.197 86.3643 175.817C86.3643 176.437 86.4793 176.957 86.7093 177.377C86.9393 177.797 87.2343 178.112 87.5943 178.322C87.9643 178.532 88.3593 178.637 88.7793 178.637ZM94.2662 179.537V172.097H95.4062L95.5112 173.522C95.7412 173.032 96.0912 172.642 96.5612 172.352C97.0312 172.062 97.6112 171.917 98.3012 171.917V173.237H97.9562C97.5162 173.237 97.1112 173.317 96.7412 173.477C96.3712 173.627 96.0762 173.887 95.8562 174.257C95.6362 174.627 95.5262 175.137 95.5262 175.787V179.537H94.2662ZM99.7155 179.537V172.097H100.855L100.96 173.522C101.19 173.032 101.54 172.642 102.01 172.352C102.48 172.062 103.06 171.917 103.75 171.917V173.237H103.405C102.965 173.237 102.56 173.317 102.19 173.477C101.82 173.627 101.525 173.887 101.305 174.257C101.085 174.627 100.975 175.137 100.975 175.787V179.537H99.7155ZM108.231 179.717C107.521 179.717 106.891 179.557 106.341 179.237C105.791 178.907 105.356 178.452 105.036 177.872C104.726 177.292 104.571 176.607 104.571 175.817C104.571 175.037 104.726 174.357 105.036 173.777C105.346 173.187 105.776 172.732 106.326 172.412C106.886 172.082 107.531 171.917 108.261 171.917C108.981 171.917 109.601 172.082 110.121 172.412C110.651 172.732 111.056 173.157 111.336 173.687C111.616 174.217 111.756 174.787 111.756 175.397C111.756 175.507 111.751 175.617 111.741 175.727C111.741 175.837 111.741 175.962 111.741 176.102H105.816C105.846 176.672 105.976 177.147 106.206 177.527C106.446 177.897 106.741 178.177 107.091 178.367C107.451 178.557 107.831 178.652 108.231 178.652C108.751 178.652 109.186 178.532 109.536 178.292C109.886 178.052 110.141 177.727 110.301 177.317H111.546C111.346 178.007 110.961 178.582 110.391 179.042C109.831 179.492 109.111 179.717 108.231 179.717ZM108.231 172.982C107.631 172.982 107.096 173.167 106.626 173.537C106.166 173.897 105.901 174.427 105.831 175.127H110.511C110.481 174.457 110.251 173.932 109.821 173.552C109.391 173.172 108.861 172.982 108.231 172.982ZM116.846 179.717C116.136 179.717 115.496 179.557 114.926 179.237C114.366 178.907 113.921 178.452 113.591 177.872C113.271 177.282 113.111 176.597 113.111 175.817C113.111 175.037 113.271 174.357 113.591 173.777C113.921 173.187 114.366 172.732 114.926 172.412C115.496 172.082 116.136 171.917 116.846 171.917C117.726 171.917 118.466 172.147 119.066 172.607C119.676 173.067 120.061 173.682 120.221 174.452H118.931C118.831 173.992 118.586 173.637 118.196 173.387C117.806 173.127 117.351 172.997 116.831 172.997C116.411 172.997 116.016 173.102 115.646 173.312C115.276 173.522 114.976 173.837 114.746 174.257C114.516 174.677 114.401 175.197 114.401 175.817C114.401 176.437 114.516 176.957 114.746 177.377C114.976 177.797 115.276 178.117 115.646 178.337C116.016 178.547 116.411 178.652 116.831 178.652C117.351 178.652 117.806 178.527 118.196 178.277C118.586 178.017 118.831 177.652 118.931 177.182H120.221C120.071 177.932 119.691 178.542 119.081 179.012C118.471 179.482 117.726 179.717 116.846 179.717ZM124.716 179.537C124.036 179.537 123.501 179.372 123.111 179.042C122.721 178.712 122.526 178.117 122.526 177.257V173.162H121.236V172.097H122.526L122.691 170.312H123.786V172.097H125.976V173.162H123.786V177.257C123.786 177.727 123.881 178.047 124.071 178.217C124.261 178.377 124.596 178.457 125.076 178.457H125.856V179.537H124.716ZM127.577 179.537V168.737H128.837V179.537H127.577ZM131.712 182.837L133.557 178.817H133.122L130.167 172.097H131.532L133.992 177.887L136.602 172.097H137.907L133.032 182.837H131.712Z" fill="white"/>
<defs>
<filter id="filter0_d" x="0" y="19.2988" width="214" height="217.559" filterUnits="userSpaceOnUse" color-interpolation-filters="sRGB">
<feFlood flood-opacity="0" result="BackgroundImageFix"/>
<feColorMatrix in="SourceAlpha" type="matrix" values="0 0 0 0 0 0 0 0 0 0 0 0 0 0 0 0 0 0 127 0"/>
<feOffset dy="1"/>
<feGaussianBlur stdDeviation="1"/>
<feColorMatrix type="matrix" values="0 0 0 0 0.0588235 0 0 0 0 0.0588235 0 0 0 0 0.0588235 0 0 0 0.1 0"/>
<feBlend mode="normal" in2="BackgroundImageFix" result="effect1_dropShadow"/>
<feBlend mode="normal" in="SourceGraphic" in2="effect1_dropShadow" result="shape"/>
</filter>
</defs>
</svg>
