<svg width="240" height="261" viewBox="0 0 240 261" fill="none" xmlns="http://www.w3.org/2000/svg">
<g filter="url(#filter0_d)">
<rect x="2" y="22.2637" width="236" height="234.99" rx="20" fill="#04CC78"/>
</g>
<path fill-rule="evenodd" clip-rule="evenodd" d="M221 29.1172C216.032 29.1172 212 33.065 212 37.9293C212 42.7936 216.032 46.7414 221 46.7414C225.968 46.7414 230 42.7936 230 37.9293C230 33.065 225.968 29.1172 221 29.1172ZM220.1 33.5232V35.2857H221.9V33.5232H220.1ZM220.1 37.0481V42.3354H221.9V37.0481H220.1ZM213.8 37.9293C213.8 41.8154 217.031 44.979 221 44.979C224.969 44.979 228.2 41.8154 228.2 37.9293C228.2 34.0432 224.969 30.8796 221 30.8796C217.031 30.8796 213.8 34.0432 213.8 37.9293Z" fill="white"/>
<path d="M37 10.7227C37 5.19981 41.4772 0.722656 47 0.722656H193C198.523 0.722656 203 5.19981 203 10.7227V22.2634H37V10.7227Z" fill="#F12587"/>
<path d="M102.906 16.8736C101.85 16.8736 100.927 16.6336 100.138 16.1536C99.3485 15.6736 98.7352 15.007 98.2979 14.1536C97.8605 13.2896 97.6419 12.287 97.6419 11.1456C97.6419 9.99364 97.8659 8.98031 98.3139 8.10564C98.7725 7.22031 99.4179 6.53231 100.25 6.04164C101.093 5.54031 102.09 5.28964 103.242 5.28964C104.554 5.28964 105.642 5.60431 106.506 6.23364C107.37 6.86297 107.93 7.73231 108.186 8.84164H105.898C105.727 8.31897 105.418 7.91364 104.97 7.62564C104.522 7.32697 103.946 7.17764 103.242 7.17764C102.122 7.17764 101.258 7.53497 100.65 8.24964C100.042 8.95364 99.7379 9.92431 99.7379 11.1616C99.7379 12.399 100.037 13.359 100.634 14.0416C101.242 14.7136 102.063 15.0496 103.098 15.0496C104.111 15.0496 104.874 14.7776 105.386 14.2336C105.909 13.679 106.223 12.9536 106.33 12.0576H103.498V10.5216H108.394V16.6816H106.506L106.346 15.2096C105.983 15.743 105.53 16.1536 104.986 16.4416C104.442 16.7296 103.749 16.8736 102.906 16.8736ZM113.073 16.8736C112.39 16.8736 111.83 16.767 111.393 16.5536C110.956 16.3296 110.63 16.0363 110.417 15.6736C110.204 15.311 110.097 14.911 110.097 14.4736C110.097 13.7376 110.385 13.1403 110.961 12.6816C111.537 12.223 112.401 11.9936 113.553 11.9936H115.569V11.8016C115.569 11.2576 115.414 10.8576 115.105 10.6016C114.796 10.3456 114.412 10.2176 113.953 10.2176C113.537 10.2176 113.174 10.319 112.865 10.5216C112.556 10.7136 112.364 11.0016 112.289 11.3856H110.289C110.342 10.8096 110.534 10.3083 110.865 9.88164C111.206 9.45497 111.644 9.12964 112.177 8.90564C112.71 8.67097 113.308 8.55364 113.969 8.55364C115.1 8.55364 115.99 8.83631 116.641 9.40164C117.292 9.96697 117.617 10.767 117.617 11.8016V16.6816H115.873L115.681 15.4016C115.446 15.8283 115.116 16.1803 114.689 16.4576C114.273 16.735 113.734 16.8736 113.073 16.8736ZM113.537 15.2736C114.124 15.2736 114.577 15.0816 114.897 14.6976C115.228 14.3136 115.436 13.839 115.521 13.2736H113.777C113.233 13.2736 112.844 13.375 112.609 13.5776C112.374 13.7696 112.257 14.0096 112.257 14.2976C112.257 14.607 112.374 14.847 112.609 15.0176C112.844 15.1883 113.153 15.2736 113.537 15.2736ZM119.571 16.6816V8.74564H121.379L121.555 9.81764C121.811 9.43364 122.147 9.12964 122.563 8.90564C122.99 8.67097 123.481 8.55364 124.035 8.55364C125.262 8.55364 126.131 9.02831 126.643 9.97764C126.931 9.54031 127.315 9.19364 127.795 8.93764C128.286 8.68164 128.819 8.55364 129.395 8.55364C130.43 8.55364 131.225 8.86297 131.779 9.48164C132.334 10.1003 132.611 11.007 132.611 12.2016V16.6816H130.563V12.3936C130.563 11.711 130.43 11.1883 130.163 10.8256C129.907 10.463 129.507 10.2816 128.963 10.2816C128.409 10.2816 127.961 10.4843 127.619 10.8896C127.289 11.295 127.123 11.8603 127.123 12.5856V16.6816H125.075V12.3936C125.075 11.711 124.942 11.1883 124.675 10.8256C124.409 10.463 123.998 10.2816 123.443 10.2816C122.899 10.2816 122.457 10.4843 122.115 10.8896C121.785 11.295 121.619 11.8603 121.619 12.5856V16.6816H119.571ZM138.412 16.8736C137.612 16.8736 136.902 16.703 136.284 16.3616C135.665 16.0203 135.18 15.5403 134.828 14.9216C134.476 14.303 134.3 13.5883 134.3 12.7776C134.3 11.9563 134.47 11.2256 134.812 10.5856C135.164 9.94564 135.644 9.44964 136.252 9.09764C136.87 8.73497 137.596 8.55364 138.428 8.55364C139.206 8.55364 139.894 8.72431 140.492 9.06564C141.089 9.40697 141.553 9.87631 141.884 10.4736C142.225 11.0603 142.396 11.7163 142.396 12.4416C142.396 12.559 142.39 12.6816 142.38 12.8096C142.38 12.9376 142.374 13.071 142.364 13.2096H136.332C136.374 13.8283 136.588 14.3136 136.972 14.6656C137.366 15.0176 137.841 15.1936 138.396 15.1936C138.812 15.1936 139.158 15.103 139.436 14.9216C139.724 14.7296 139.937 14.4843 140.076 14.1856H142.156C142.006 14.687 141.756 15.1456 141.404 15.5616C141.062 15.967 140.636 16.287 140.124 16.5216C139.622 16.7563 139.052 16.8736 138.412 16.8736ZM138.428 10.2176C137.926 10.2176 137.484 10.3616 137.1 10.6496C136.716 10.927 136.47 11.3536 136.364 11.9296H140.316C140.284 11.407 140.092 10.991 139.74 10.6816C139.388 10.3723 138.95 10.2176 138.428 10.2176Z" fill="white"/>
<path d="M52.4424 74.9297V60.6017H47.5464V58.1297H60.4344V60.6017H55.5144V74.9297H52.4424ZM61.4663 74.9297V63.0257H64.2023L64.4903 65.2577C64.9223 64.4897 65.5063 63.8817 66.2422 63.4337C66.9943 62.9697 67.8743 62.7377 68.8823 62.7377V65.9777H68.0183C67.3463 65.9777 66.7463 66.0817 66.2183 66.2897C65.6903 66.4977 65.2743 66.8577 64.9703 67.3697C64.6823 67.8817 64.5383 68.5937 64.5383 69.5057V74.9297H61.4663ZM75.4459 75.2177C73.9579 75.2177 72.8059 74.7537 71.9899 73.8257C71.1899 72.8977 70.7899 71.5377 70.7899 69.7457V63.0257H73.8379V69.4577C73.8379 70.4817 74.0459 71.2657 74.4619 71.8097C74.8779 72.3537 75.5339 72.6257 76.4299 72.6257C77.2779 72.6257 77.9739 72.3217 78.5179 71.7137C79.0779 71.1057 79.3579 70.2577 79.3579 69.1697V63.0257H82.4299V74.9297H79.7179L79.4779 72.9137C79.1099 73.6177 78.5739 74.1777 77.8699 74.5937C77.1819 75.0097 76.3739 75.2177 75.4459 75.2177ZM91.3674 75.2177C90.1674 75.2177 89.1034 74.9617 88.1754 74.4497C87.2474 73.9377 86.5194 73.2177 85.9914 72.2897C85.4634 71.3617 85.1994 70.2897 85.1994 69.0737C85.1994 67.8417 85.4554 66.7457 85.9674 65.7857C86.4954 64.8257 87.2154 64.0817 88.1274 63.5537C89.0554 63.0097 90.1434 62.7377 91.3914 62.7377C92.5594 62.7377 93.5914 62.9937 94.4874 63.5057C95.3834 64.0177 96.0794 64.7217 96.5754 65.6177C97.0874 66.4977 97.3434 67.4817 97.3434 68.5697C97.3434 68.7457 97.3354 68.9297 97.3194 69.1217C97.3194 69.3137 97.3114 69.5137 97.2954 69.7217H88.2474C88.3114 70.6497 88.6314 71.3777 89.2074 71.9057C89.7994 72.4337 90.5114 72.6977 91.3434 72.6977C91.9674 72.6977 92.4874 72.5617 92.9034 72.2897C93.3354 72.0017 93.6554 71.6337 93.8634 71.1857H96.9834C96.7594 71.9377 96.3834 72.6257 95.8554 73.2497C95.3434 73.8577 94.7034 74.3377 93.9354 74.6897C93.1834 75.0417 92.3274 75.2177 91.3674 75.2177ZM91.3914 65.2337C90.6394 65.2337 89.9754 65.4497 89.3994 65.8817C88.8234 66.2977 88.4554 66.9377 88.2954 67.8017H94.2234C94.1754 67.0177 93.8874 66.3937 93.3594 65.9297C92.8314 65.4657 92.1754 65.2337 91.3914 65.2337ZM111.358 75.2177C110.206 75.2177 109.166 74.9537 108.238 74.4257C107.326 73.8977 106.598 73.1697 106.054 72.2417C105.526 71.2977 105.262 70.2097 105.262 68.9777C105.262 67.7457 105.534 66.6657 106.078 65.7377C106.622 64.7937 107.35 64.0577 108.262 63.5297C109.19 63.0017 110.23 62.7377 111.382 62.7377C112.518 62.7377 113.542 63.0017 114.454 63.5297C115.382 64.0577 116.11 64.7937 116.638 65.7377C117.182 66.6657 117.454 67.7457 117.454 68.9777C117.454 70.2097 117.182 71.2977 116.638 72.2417C116.11 73.1697 115.382 73.8977 114.454 74.4257C113.526 74.9537 112.494 75.2177 111.358 75.2177ZM111.358 72.5537C112.158 72.5537 112.854 72.2577 113.446 71.6657C114.038 71.0577 114.334 70.1617 114.334 68.9777C114.334 67.7937 114.038 66.9057 113.446 66.3137C112.854 65.7057 112.166 65.4017 111.382 65.4017C110.566 65.4017 109.862 65.7057 109.27 66.3137C108.694 66.9057 108.406 67.7937 108.406 68.9777C108.406 70.1617 108.694 71.0577 109.27 71.6657C109.862 72.2577 110.558 72.5537 111.358 72.5537ZM120.201 74.9297V63.0257H122.937L123.225 65.2577C123.657 64.4897 124.241 63.8817 124.977 63.4337C125.729 62.9697 126.609 62.7377 127.617 62.7377V65.9777H126.753C126.081 65.9777 125.481 66.0817 124.953 66.2897C124.425 66.4977 124.009 66.8577 123.705 67.3697C123.417 67.8817 123.273 68.5937 123.273 69.5057V74.9297H120.201ZM135.507 74.9297V58.1297H146.355V60.6017H138.579V65.3057H144.867V67.7297H138.579V74.9297H135.507ZM151.75 75.2177C150.726 75.2177 149.886 75.0577 149.23 74.7377C148.574 74.4017 148.086 73.9617 147.766 73.4177C147.446 72.8737 147.286 72.2737 147.286 71.6177C147.286 70.5137 147.718 69.6177 148.582 68.9297C149.446 68.2417 150.742 67.8977 152.47 67.8977H155.494V67.6097C155.494 66.7937 155.262 66.1937 154.798 65.8097C154.334 65.4257 153.758 65.2337 153.07 65.2337C152.446 65.2337 151.902 65.3857 151.438 65.6897C150.974 65.9777 150.686 66.4097 150.574 66.9857H147.574C147.654 66.1217 147.942 65.3697 148.438 64.7297C148.95 64.0897 149.606 63.6017 150.406 63.2657C151.206 62.9137 152.102 62.7377 153.094 62.7377C154.79 62.7377 156.126 63.1617 157.102 64.0097C158.078 64.8577 158.566 66.0577 158.566 67.6097V74.9297H155.95L155.662 73.0097C155.31 73.6497 154.814 74.1777 154.174 74.5937C153.55 75.0097 152.742 75.2177 151.75 75.2177ZM152.446 72.8177C153.326 72.8177 154.006 72.5297 154.486 71.9537C154.982 71.3777 155.294 70.6657 155.422 69.8177H152.806C151.99 69.8177 151.406 69.9697 151.054 70.2737C150.702 70.5617 150.526 70.9217 150.526 71.3537C150.526 71.8177 150.702 72.1777 151.054 72.4337C151.406 72.6897 151.87 72.8177 152.446 72.8177ZM161.498 74.9297V57.6497H164.57V74.9297H161.498ZM172.628 75.2177C171.572 75.2177 170.644 75.0497 169.844 74.7137C169.044 74.3617 168.404 73.8817 167.924 73.2737C167.444 72.6657 167.156 71.9617 167.06 71.1617H170.156C170.252 71.6257 170.508 72.0257 170.924 72.3617C171.356 72.6817 171.908 72.8417 172.58 72.8417C173.252 72.8417 173.74 72.7057 174.044 72.4337C174.364 72.1617 174.524 71.8497 174.524 71.4977C174.524 70.9857 174.3 70.6417 173.852 70.4657C173.404 70.2737 172.78 70.0897 171.98 69.9137C171.468 69.8017 170.948 69.6657 170.42 69.5057C169.892 69.3457 169.404 69.1457 168.956 68.9057C168.524 68.6497 168.172 68.3297 167.9 67.9457C167.628 67.5457 167.492 67.0577 167.492 66.4817C167.492 65.4257 167.908 64.5377 168.74 63.8177C169.588 63.0977 170.772 62.7377 172.292 62.7377C173.7 62.7377 174.82 63.0657 175.652 63.7217C176.5 64.3777 177.004 65.2817 177.164 66.4337H174.26C174.084 65.5537 173.42 65.1137 172.268 65.1137C171.692 65.1137 171.244 65.2257 170.924 65.4497C170.62 65.6737 170.468 65.9537 170.468 66.2897C170.468 66.6417 170.7 66.9217 171.164 67.1297C171.628 67.3377 172.244 67.5297 173.012 67.7057C173.844 67.8977 174.604 68.1137 175.292 68.3537C175.996 68.5777 176.556 68.9217 176.972 69.3857C177.388 69.8337 177.596 70.4817 177.596 71.3297C177.612 72.0657 177.42 72.7297 177.02 73.3217C176.62 73.9137 176.044 74.3777 175.292 74.7137C174.54 75.0497 173.652 75.2177 172.628 75.2177ZM186.102 75.2177C184.902 75.2177 183.838 74.9617 182.91 74.4497C181.982 73.9377 181.254 73.2177 180.726 72.2897C180.198 71.3617 179.934 70.2897 179.934 69.0737C179.934 67.8417 180.19 66.7457 180.702 65.7857C181.23 64.8257 181.95 64.0817 182.862 63.5537C183.79 63.0097 184.878 62.7377 186.126 62.7377C187.294 62.7377 188.326 62.9937 189.222 63.5057C190.118 64.0177 190.814 64.7217 191.31 65.6177C191.822 66.4977 192.078 67.4817 192.078 68.5697C192.078 68.7457 192.07 68.9297 192.054 69.1217C192.054 69.3137 192.046 69.5137 192.03 69.7217H182.982C183.046 70.6497 183.366 71.3777 183.942 71.9057C184.534 72.4337 185.246 72.6977 186.078 72.6977C186.702 72.6977 187.222 72.5617 187.638 72.2897C188.07 72.0017 188.39 71.6337 188.598 71.1857H191.718C191.494 71.9377 191.118 72.6257 190.59 73.2497C190.078 73.8577 189.438 74.3377 188.67 74.6897C187.918 75.0417 187.062 75.2177 186.102 75.2177ZM186.126 65.2337C185.374 65.2337 184.71 65.4497 184.134 65.8817C183.558 66.2977 183.19 66.9377 183.03 67.8017H188.958C188.91 67.0177 188.622 66.3937 188.094 65.9297C187.566 65.4657 186.91 65.2337 186.126 65.2337Z" fill="white"/>
<path d="M136.468 115.658L136.468 115.658C136.641 115.823 136.761 116.036 136.812 116.271C136.862 116.505 136.84 116.749 136.748 116.971C136.656 117.192 136.5 117.38 136.3 117.512L136.025 117.094L136.3 117.512C136.101 117.643 135.868 117.712 135.63 117.713C135.318 117.713 135.016 117.595 134.79 117.379L136.468 115.658ZM136.468 115.658L128.298 107.894L137.028 99.6646L137.028 99.6646C137.26 99.4459 137.395 99.1438 137.402 98.8238C137.408 98.5038 137.284 98.1966 137.06 97.9693C136.837 97.7424 136.533 97.6135 136.216 97.6076C135.899 97.6018 135.59 97.7194 135.359 97.9376L126.555 106.236L118.515 98.5962C118.515 98.5962 118.514 98.5962 118.514 98.5962C118.4 98.4876 118.266 98.4026 118.119 98.3456C117.972 98.2885 117.816 98.2605 117.659 98.2628C117.501 98.2651 117.346 98.2977 117.201 98.3589C117.056 98.4202 116.924 98.5092 116.813 98.6212C116.702 98.7332 116.614 98.8662 116.554 99.0127C116.495 99.1593 116.466 99.3162 116.468 99.4744C116.47 99.6327 116.505 99.7886 116.568 99.9333C116.632 100.078 116.724 100.208 116.838 100.317L116.838 100.317L124.804 107.886L116.842 115.393L116.842 115.393C116.61 115.612 116.474 115.914 116.468 116.234C116.462 116.554 116.586 116.861 116.81 117.088C117.033 117.315 117.337 117.444 117.654 117.45C117.971 117.456 118.279 117.338 118.511 117.12C118.511 117.12 118.511 117.12 118.511 117.12L126.547 109.544L134.789 117.378L136.468 115.658Z" fill="#F12587" stroke="#F12587"/>
<path d="M155.07 109.249C152.662 109.244 150.272 109.646 148.005 110.439M155.07 109.249L155.07 109.499L155.07 109.249C155.07 109.249 155.07 109.249 155.07 109.249ZM155.07 109.249C160.684 109.256 166.067 111.443 170.038 115.331C174.009 119.219 176.243 124.492 176.25 129.993C176.27 135.34 174.161 140.48 170.379 144.326L174.362 149.204C174.476 149.342 174.547 149.51 174.568 149.688C174.589 149.866 174.558 150.046 174.479 150.207C174.4 150.367 174.276 150.502 174.124 150.596C173.971 150.69 173.794 150.74 173.615 150.739H173.614L156.3 150.697C155.93 150.717 155.501 150.739 155.07 150.739H155.07C149.456 150.733 144.073 148.546 140.103 144.657C136.132 140.768 133.898 135.494 133.893 129.993V129.992C133.894 129.298 133.931 128.604 134.004 127.913C131.734 128.705 129.341 129.108 126.93 129.105M148.005 110.439L126.931 128.855M148.005 110.439C148.077 109.751 148.114 109.06 148.114 108.368V108.368C148.116 104.966 147.262 101.615 145.63 98.6119C143.998 95.6088 141.636 93.0453 138.754 91.1469C135.873 89.2486 132.559 88.0735 129.105 87.7246C125.651 87.3758 122.162 87.864 118.945 89.1464C115.729 90.4287 112.884 92.466 110.66 95.0793C108.436 97.6926 106.902 100.802 106.194 104.133C105.486 107.464 105.626 110.915 106.601 114.18C107.554 117.375 109.277 120.296 111.624 122.699M148.005 110.439L111.624 122.699M126.93 129.105L126.931 128.855M126.93 129.105C126.93 129.105 126.931 129.105 126.931 129.105V128.855M126.93 129.105C126.502 129.105 126.081 129.09 125.661 129.068M126.931 128.855C126.505 128.855 126.087 128.84 125.667 128.818M125.661 129.068L125.668 129.068L125.667 128.818M125.661 129.068L108.393 129.105L108.391 129.105C108.212 129.104 108.037 129.054 107.884 128.96C107.732 128.866 107.61 128.732 107.531 128.571C107.452 128.411 107.421 128.232 107.441 128.055C107.461 127.877 107.532 127.71 107.644 127.571L107.645 127.57L111.624 122.699M125.661 129.068C125.659 129.068 125.657 129.068 125.654 129.068L125.667 128.818M125.667 128.818L111.624 122.699M125.718 127.182L125.718 127.182C126.148 127.204 126.538 127.218 126.941 127.222C129.486 127.227 132.005 126.734 134.351 125.771C134.363 125.719 134.376 125.667 134.388 125.617C134.401 125.564 134.414 125.514 134.423 125.47L134.424 125.469C134.433 125.428 134.442 125.387 134.452 125.345C134.489 125.181 134.527 125.012 134.571 124.846L134.571 124.845C134.609 124.698 134.652 124.551 134.693 124.409C134.707 124.362 134.72 124.316 134.734 124.27L134.734 124.27C134.743 124.238 134.752 124.206 134.762 124.174C134.812 124.001 134.863 123.824 134.92 123.649M125.718 127.182L135.158 123.726M125.718 127.182L125.705 127.182L110.397 127.213M125.718 127.182L110.397 127.213M134.92 123.649L135.158 123.726M134.92 123.649C134.92 123.649 134.92 123.649 134.92 123.649L135.158 123.726M134.92 123.649C134.965 123.509 135.016 123.37 135.064 123.235C135.082 123.186 135.099 123.138 135.116 123.091L135.116 123.09C135.138 123.029 135.161 122.967 135.183 122.903C135.232 122.765 135.282 122.621 135.337 122.483M135.158 123.726C135.202 123.591 135.25 123.457 135.298 123.323C135.316 123.274 135.334 123.225 135.352 123.175C135.375 123.11 135.398 123.045 135.421 122.98C135.469 122.844 135.516 122.709 135.569 122.575M135.337 122.483C135.337 122.483 135.337 122.483 135.337 122.484L135.569 122.575M135.337 122.483C135.388 122.354 135.444 122.224 135.498 122.099C135.522 122.045 135.545 121.992 135.567 121.94L135.567 121.939C135.585 121.897 135.604 121.854 135.622 121.81C135.687 121.659 135.753 121.502 135.825 121.349C135.884 121.221 135.949 121.093 136.012 120.97C136.039 120.918 136.065 120.867 136.09 120.816L136.09 120.815C136.118 120.761 136.146 120.704 136.175 120.646C136.241 120.514 136.309 120.378 136.378 120.251C136.452 120.114 136.532 119.978 136.609 119.847C136.635 119.803 136.661 119.759 136.687 119.716C136.717 119.663 136.749 119.608 136.78 119.553C136.849 119.433 136.92 119.308 136.995 119.189L136.995 119.189C137.079 119.053 137.171 118.917 137.259 118.787C137.296 118.732 137.332 118.678 137.368 118.625L137.368 118.624C137.401 118.575 137.435 118.523 137.47 118.47C137.536 118.37 137.604 118.265 137.674 118.166L137.674 118.165C137.856 117.909 138.049 117.659 138.239 117.416L138.239 117.415C138.339 117.288 138.44 117.159 138.543 117.033M135.337 122.483L135.569 122.575M135.569 122.575C135.619 122.45 135.672 122.327 135.725 122.204C135.749 122.148 135.773 122.093 135.797 122.038C135.816 121.994 135.835 121.95 135.853 121.905C135.917 121.755 135.981 121.604 136.051 121.455L110.397 127.213M110.397 127.213L113.658 123.221L113.658 123.221C113.808 123.037 113.883 122.804 113.867 122.568C113.851 122.332 113.746 122.111 113.574 121.948L113.574 121.948C111.281 119.786 109.572 117.102 108.599 114.137C107.625 111.171 107.418 108.016 107.994 104.952C108.571 101.889 109.914 99.013 111.904 96.5814C113.893 94.1497 116.468 92.2383 119.398 91.0185C122.327 89.7987 125.521 89.3087 128.691 89.5925C131.862 89.8763 134.911 90.925 137.566 92.6445C140.221 94.364 142.399 96.7005 143.905 99.4447C145.411 102.189 146.2 105.255 146.199 108.37V108.371C146.201 109.343 146.124 110.313 145.967 111.273L145.966 111.273L145.966 111.273L145.965 111.274L145.964 111.274L145.963 111.275L145.962 111.275L145.961 111.275L145.96 111.276L145.96 111.276L145.959 111.277L145.958 111.277L145.957 111.277L145.956 111.278L145.955 111.278L145.954 111.279L145.954 111.279L145.953 111.28L145.952 111.28L145.951 111.28L145.95 111.281L145.949 111.281L145.949 111.282L145.948 111.282L145.947 111.282L145.946 111.283L145.945 111.283L145.944 111.284L145.943 111.284L145.943 111.285L145.942 111.285L145.941 111.285L145.94 111.286L145.939 111.286L145.938 111.287L145.937 111.287L145.937 111.287L145.936 111.288L145.935 111.288L145.934 111.289L145.933 111.289L145.932 111.29L145.932 111.29L145.931 111.29L145.93 111.291L145.929 111.291L145.928 111.292L145.927 111.292L145.926 111.292L145.926 111.293L145.925 111.293L145.924 111.294L145.923 111.294L145.922 111.295L145.921 111.295L145.92 111.295L145.92 111.296L145.919 111.296L145.918 111.297L145.917 111.297L145.916 111.297L145.915 111.298L145.914 111.298L145.914 111.299L145.913 111.299L145.912 111.3L145.911 111.3L145.91 111.3L145.909 111.301L145.909 111.301L145.908 111.302L145.907 111.302L145.906 111.302L145.905 111.303L145.904 111.303L145.903 111.304L145.903 111.304L145.902 111.305L145.901 111.305L145.9 111.305L145.899 111.306L145.898 111.306L145.897 111.307L145.897 111.307L145.896 111.307L145.895 111.308L145.894 111.308L145.893 111.309L145.892 111.309L145.891 111.31L145.891 111.31L145.89 111.31L145.889 111.311L145.888 111.311L145.887 111.312L145.886 111.312L145.886 111.312L145.885 111.313L145.884 111.313L145.883 111.314L145.882 111.314L145.881 111.315L145.88 111.315L145.88 111.315L145.879 111.316L145.878 111.316L145.877 111.317L145.876 111.317L145.875 111.317L145.874 111.318L145.874 111.318L145.873 111.319L145.872 111.319L145.871 111.32L145.87 111.32L145.869 111.32L145.869 111.321L145.868 111.321L145.867 111.322L145.866 111.322L145.865 111.322L145.864 111.323L145.863 111.323L145.863 111.324L145.862 111.324L145.861 111.325L145.86 111.325L145.859 111.325L145.858 111.326L145.857 111.326L145.857 111.327L145.856 111.327L145.855 111.327L145.854 111.328L145.853 111.328L145.852 111.329L145.851 111.329L145.851 111.33L145.85 111.33L145.849 111.33L145.848 111.331L145.847 111.331L145.846 111.332L145.846 111.332L145.845 111.332L145.844 111.333L145.843 111.333L145.842 111.334L145.841 111.334L145.84 111.335L145.84 111.335L145.839 111.335L145.838 111.336L145.837 111.336L145.836 111.337L145.835 111.337L145.834 111.337L145.834 111.338L145.833 111.338L145.832 111.339L145.831 111.339L145.83 111.34L145.829 111.34L145.829 111.34L145.828 111.341L145.827 111.341L145.826 111.342L145.825 111.342L145.824 111.342L145.823 111.343L145.823 111.343L145.822 111.344L145.821 111.344L145.82 111.345L145.819 111.345L145.818 111.345L145.817 111.346L145.817 111.346L145.816 111.347L145.815 111.347L145.814 111.347L145.813 111.348L145.812 111.348L145.811 111.349L145.811 111.349L145.81 111.35L145.809 111.35L145.808 111.35L145.807 111.351L145.806 111.351L145.806 111.352L145.805 111.352L145.804 111.352L145.803 111.353L145.802 111.353L145.801 111.354L145.8 111.354L145.8 111.355L145.799 111.355L145.798 111.355L145.797 111.356L145.796 111.356L145.795 111.357L145.794 111.357L145.794 111.358L145.793 111.358L145.792 111.358L145.791 111.359L145.79 111.359L145.789 111.36L145.788 111.36L145.788 111.36L145.787 111.361L145.786 111.361L145.785 111.362L145.784 111.362L145.783 111.363L145.783 111.363L145.782 111.363L145.781 111.364L145.78 111.364L145.779 111.365L145.778 111.365L145.777 111.365L145.777 111.366L145.776 111.366L145.775 111.367L145.774 111.367L145.773 111.368L145.772 111.368L145.771 111.368L145.771 111.369L145.77 111.369L145.769 111.37L145.768 111.37L145.767 111.37L145.766 111.371L145.766 111.371L145.765 111.372L145.764 111.372L145.763 111.373L145.762 111.373L145.761 111.373L145.76 111.374L145.76 111.374L145.759 111.375L145.758 111.375L145.757 111.375L145.756 111.376L145.755 111.376L145.754 111.377L145.754 111.377L145.753 111.378L145.752 111.378L145.751 111.378L145.75 111.379L145.749 111.379L145.748 111.38L145.748 111.38L145.747 111.38L145.746 111.381L145.745 111.381L145.744 111.382L145.743 111.382L145.743 111.383L145.742 111.383L145.741 111.383L145.74 111.384L145.739 111.384L145.738 111.385L145.737 111.385L145.737 111.385L145.736 111.386L145.735 111.386L145.734 111.387L145.733 111.387L145.732 111.388L145.731 111.388L145.731 111.388L145.73 111.389L145.729 111.389L145.728 111.39L145.727 111.39L145.726 111.39L145.725 111.391L145.725 111.391L145.724 111.392L145.723 111.392L145.722 111.393L145.721 111.393L145.72 111.393L145.72 111.394L145.719 111.394L145.718 111.395L145.717 111.395L145.716 111.395L145.715 111.396L145.714 111.396L145.714 111.397L145.713 111.397L145.712 111.398L145.711 111.398L145.71 111.398L145.709 111.399L145.708 111.399L145.708 111.4L145.707 111.4L145.706 111.4L145.705 111.401L145.704 111.401L145.703 111.402L145.703 111.402L145.702 111.403L145.701 111.403L145.7 111.403L145.699 111.404L145.698 111.404L145.697 111.405L145.697 111.405L145.696 111.405L145.695 111.406L145.694 111.406L145.693 111.407L145.692 111.407L145.691 111.408L145.691 111.408L145.69 111.408L145.689 111.409L145.688 111.409L145.687 111.41L145.686 111.41L145.685 111.41L145.685 111.411L145.684 111.411L145.683 111.412L145.682 111.412L145.681 111.413L145.68 111.413L145.68 111.413L145.679 111.414L145.678 111.414L145.677 111.415L145.676 111.415L145.675 111.415L145.674 111.416L145.674 111.416L145.673 111.417L145.672 111.417L145.671 111.418L145.67 111.418L145.669 111.418L145.668 111.419L145.668 111.419L145.667 111.42L145.666 111.42L145.665 111.42L145.664 111.421L145.663 111.421L145.663 111.422L145.662 111.422L145.661 111.423L145.66 111.423L145.659 111.423L145.658 111.424L145.657 111.424L145.657 111.425L145.656 111.425L145.655 111.425L145.654 111.426L145.653 111.426L145.652 111.427L145.651 111.427L145.651 111.428L145.65 111.428L145.649 111.428L145.648 111.429L145.647 111.429L145.647 111.429C145.647 111.429 145.647 111.429 145.647 111.429C145.611 111.447 145.576 111.464 145.54 111.481C145.4 111.549 145.257 111.618 145.117 111.691L145.117 111.691C144.942 111.782 144.771 111.878 144.605 111.972C144.574 111.989 144.544 112.006 144.514 112.023L144.514 112.023C144.482 112.041 144.45 112.059 144.417 112.077C144.284 112.152 144.145 112.229 144.011 112.311C143.841 112.413 143.674 112.521 143.512 112.625C143.482 112.644 143.453 112.663 143.424 112.682C143.388 112.705 143.351 112.729 143.314 112.752C143.194 112.829 143.071 112.907 142.951 112.989M142.951 112.989C142.951 112.989 142.951 112.989 142.952 112.989L143.092 113.195L142.951 112.989ZM142.951 112.989C142.774 113.11 142.603 113.236 142.435 113.359C142.417 113.373 142.398 113.387 142.38 113.4M142.38 113.4L142.377 113.403C142.233 113.508 142.088 113.614 141.943 113.721L141.941 113.724C141.817 113.817 141.694 113.92 141.574 114.02C141.51 114.073 141.447 114.125 141.386 114.175L141.384 114.177C141.341 114.212 141.296 114.249 141.25 114.287C141.159 114.361 141.065 114.438 140.976 114.515M142.38 113.4L142.38 113.4L142.528 113.602M142.38 113.4L142.528 113.602M140.976 114.515C140.827 114.645 140.683 114.781 140.542 114.913C140.506 114.947 140.47 114.98 140.434 115.014L140.434 115.014C140.397 115.048 140.358 115.085 140.317 115.122C140.234 115.198 140.146 115.279 140.066 115.359M140.976 114.515C140.976 114.515 140.976 114.515 140.976 114.515L141.14 114.703M140.976 114.515L141.14 114.703M140.066 115.359C139.903 115.519 139.747 115.684 139.596 115.845C139.57 115.872 139.544 115.9 139.519 115.926L139.519 115.927C139.48 115.968 139.435 116.014 139.39 116.062C139.329 116.125 139.266 116.19 139.212 116.248L139.21 116.25C138.979 116.506 138.759 116.769 138.543 117.033M140.066 115.359C140.066 115.359 140.066 115.358 140.067 115.358L140.242 115.536M140.066 115.359C140.065 115.359 140.065 115.359 140.065 115.36L140.242 115.536M138.543 117.033C138.543 117.033 138.543 117.032 138.543 117.032L138.737 117.191M138.543 117.033L138.737 117.191M138.737 117.191C138.951 116.928 139.168 116.669 139.396 116.418M138.737 117.191C138.635 117.315 138.536 117.442 138.436 117.569L139.396 116.418M139.396 116.418C139.451 116.359 139.508 116.299 139.565 116.24C139.611 116.193 139.656 116.146 139.701 116.098C139.727 116.071 139.752 116.043 139.778 116.016C139.93 115.854 140.083 115.693 140.242 115.536M139.396 116.418L140.605 115.196M140.242 115.536C140.318 115.46 140.398 115.386 140.479 115.313C140.521 115.274 140.563 115.235 140.605 115.196M140.605 115.196C140.642 115.162 140.678 115.128 140.715 115.093C140.855 114.961 140.995 114.83 141.14 114.703M140.605 115.196L141.544 114.369C141.497 114.408 141.45 114.446 141.403 114.484C141.315 114.557 141.226 114.629 141.14 114.703M142.528 113.602C142.383 113.708 142.237 113.815 142.092 113.922L142.528 113.602ZM134.035 127.637C134.123 127.605 134.211 127.573 134.298 127.541C134.287 127.634 134.276 127.727 134.265 127.819L134.035 127.637ZM156.257 148.81L156.257 148.809L156.243 148.81C155.855 148.831 155.46 148.852 155.069 148.852C149.96 148.845 145.064 146.854 141.455 143.318C137.845 139.782 135.817 134.99 135.812 129.993L135.812 129.992C135.809 128.856 135.916 127.722 136.131 126.605L136.131 126.603C136.271 125.844 136.458 125.094 136.691 124.358C136.807 123.992 136.934 123.631 137.072 123.275C138.744 118.972 141.971 115.418 146.142 113.287L146.143 113.287C146.492 113.108 146.848 112.939 147.212 112.78L147.213 112.78C149.68 111.688 152.358 111.128 155.066 111.137H155.067C160.176 111.142 165.074 113.131 168.686 116.667C172.298 120.202 174.328 124.995 174.334 129.993V129.994C174.343 132.531 173.824 135.043 172.809 137.378C171.794 139.712 170.304 141.82 168.429 143.573L168.428 143.574C168.256 143.737 168.15 143.958 168.135 144.194C168.119 144.431 168.194 144.663 168.343 144.847L168.344 144.848L171.611 148.848L156.257 148.81Z" fill="#F1F1F1" stroke="#F1F1F1" stroke-width="0.5"/>
<path d="M163.117 122.804C163.263 122.736 163.423 122.698 163.586 122.692C163.895 122.681 164.197 122.788 164.431 122.992C164.664 123.196 164.81 123.483 164.834 123.794C164.858 124.105 164.759 124.411 164.558 124.649L164.552 124.657L164.545 124.664L151.758 138.647C151.758 138.647 151.758 138.647 151.758 138.648C151.644 138.773 151.505 138.872 151.35 138.94C151.196 139.007 151.029 139.042 150.86 139.042C150.86 139.042 150.86 139.042 150.86 139.042L150.86 138.542C150.76 138.542 150.662 138.521 150.571 138.481L150.369 138.939C150.215 138.871 150.075 138.771 149.962 138.646C149.962 138.645 149.961 138.645 149.961 138.645L145.603 133.852L163.117 122.804ZM163.117 122.804L163.035 122.75L162.748 123.064L150.864 136.062L147.402 132.254L147.402 132.254C147.295 132.137 147.167 132.043 147.025 131.975L146.812 132.425L147.025 131.975C146.882 131.908 146.728 131.869 146.571 131.86C146.414 131.851 146.256 131.873 146.107 131.924C145.958 131.975 145.82 132.054 145.701 132.158C145.583 132.262 145.485 132.388 145.415 132.53C145.345 132.671 145.304 132.826 145.295 132.984C145.286 133.142 145.308 133.3 145.361 133.449C145.415 133.598 145.497 133.735 145.603 133.852L163.117 122.804Z" fill="#6C63FF" stroke="#6C63FF"/>
<path d="M93.2408 137.977C97.6394 137.977 101.205 134.486 101.205 130.179C101.205 125.872 97.6394 122.381 93.2408 122.381C88.8421 122.381 85.2764 125.872 85.2764 130.179C85.2764 134.486 88.8421 137.977 93.2408 137.977Z" fill="#A0616A"/>
<path d="M90.3665 176.321C90.2662 176.321 90.1655 176.317 90.0643 176.308C89.5634 176.267 89.077 176.123 88.6369 175.885C88.1968 175.647 87.8131 175.321 87.5107 174.928C87.2084 174.535 86.9944 174.084 86.8826 173.604C86.7708 173.124 86.7638 172.626 86.8621 172.144C86.8854 172.032 86.9146 171.921 86.9497 171.812L75.1949 158.2C74.8119 157.753 74.5863 157.197 74.5516 156.614C74.5169 156.032 74.6749 155.454 75.0022 154.966L75.0235 154.941L85.6042 144.725C85.8918 144.448 86.2329 144.229 86.6075 144.081C86.9822 143.933 87.3831 143.859 87.7871 143.863C88.191 143.868 88.5901 143.951 88.9611 144.107C89.3322 144.264 89.6679 144.491 89.9489 144.775C90.2299 145.059 90.4506 145.395 90.5983 145.763C90.746 146.131 90.8177 146.525 90.8093 146.92C90.8009 147.316 90.7126 147.705 90.5495 148.067C90.3863 148.429 90.1516 148.756 89.8588 149.028L82.1955 156.162L90.5849 169.345C90.7438 169.353 90.9019 169.372 91.0581 169.402C91.9258 169.572 92.6983 170.051 93.2254 170.747C93.7525 171.443 93.9967 172.306 93.9105 173.168C93.8243 174.03 93.4139 174.831 92.759 175.413C92.1041 175.996 91.2514 176.32 90.3665 176.321L90.3665 176.321Z" fill="#A0616A"/>
<path d="M106.355 238.709L110.331 238.709L112.222 223.695L106.354 223.696L106.355 238.709Z" fill="#A0616A"/>
<path d="M105.347 237.438L113.176 237.438H113.176C113.831 237.437 114.48 237.564 115.085 237.809C115.691 238.055 116.241 238.415 116.704 238.868C117.167 239.322 117.535 239.86 117.786 240.453C118.036 241.046 118.165 241.681 118.165 242.323V242.481L105.347 242.482L105.347 237.438Z" fill="#2F2E41"/>
<path d="M66.8457 233.326L70.2616 235.317L79.7318 223.365L74.6904 220.426L66.8457 233.326Z" fill="#A0616A"/>
<path d="M66.6354 231.727L73.3625 235.648L73.3627 235.648C73.9257 235.977 74.4172 236.41 74.809 236.924C75.2008 237.438 75.4854 238.023 75.6464 238.645C75.8075 239.267 75.8419 239.914 75.7476 240.549C75.6533 241.183 75.4323 241.794 75.097 242.345L75.0141 242.481L64 236.061L66.6354 231.727Z" fill="#2F2E41"/>
<path d="M111.271 233.406H106.819C106.459 233.406 106.111 233.276 105.843 233.04C105.575 232.804 105.406 232.479 105.368 232.128L100.881 190.822C100.869 190.718 100.823 190.621 100.75 190.545C100.676 190.469 100.579 190.419 100.474 190.402C100.368 190.386 100.26 190.404 100.166 190.453C100.072 190.503 99.9975 190.581 99.9535 190.677L91.8572 208.23L77.5232 231.115C77.3377 231.409 77.0504 231.627 76.714 231.73C76.3777 231.833 76.0147 231.814 75.6916 231.676L69.9652 229.209C69.7759 229.127 69.6064 229.007 69.4681 228.857C69.3297 228.706 69.2257 228.528 69.1628 228.335C69.0999 228.142 69.0797 227.939 69.1034 227.737C69.127 227.536 69.1941 227.342 69.3002 227.168L82.4771 205.565L86.5184 187.364C85.2474 179.47 90.6962 167.735 90.7515 167.617L90.7785 167.56L107.162 161.143L107.238 161.233C116.973 172.869 115.389 201.392 112.726 232.097C112.693 232.453 112.526 232.784 112.257 233.026C111.988 233.268 111.636 233.404 111.271 233.406Z" fill="#2F2E41"/>
<path d="M90.171 169.482L90.1011 169.338C90.0677 169.269 86.7303 162.378 84.1576 155.011C83.6631 153.587 83.4762 152.078 83.6087 150.579C83.7411 149.08 84.1901 147.624 84.927 146.304C85.6735 144.97 86.6949 143.803 87.9263 142.876C89.1577 141.949 90.5723 141.282 92.0806 140.918C94.699 140.304 97.4557 140.631 99.8485 141.839C102.241 143.048 104.111 145.059 105.117 147.504C107.157 152.501 107.882 157.161 107.27 161.355L107.258 161.439L107.18 161.476L90.171 169.482Z" fill="#6C63FF"/>
<path d="M118.196 180.664C117.858 181.078 117.43 181.414 116.944 181.647C116.457 181.881 115.924 182.006 115.382 182.013C114.888 182.02 114.398 181.929 113.941 181.745C113.484 181.562 113.069 181.29 112.722 180.945C112.375 180.601 112.103 180.191 111.921 179.741C111.74 179.291 111.653 178.81 111.667 178.327C111.672 178.15 111.692 177.974 111.725 177.8L96.0422 149.201C95.8371 148.879 95.6988 148.522 95.6354 148.148C95.572 147.774 95.5846 147.392 95.6726 147.023C95.7606 146.654 95.9222 146.306 96.1482 145.998C96.3741 145.691 96.6599 145.43 96.9891 145.231C97.3183 145.032 97.6845 144.899 98.0665 144.839C98.4485 144.779 98.8389 144.794 99.2151 144.882C99.5913 144.97 99.946 145.13 100.259 145.353C100.572 145.576 100.836 145.858 101.038 146.181L116.358 174.981C116.936 175.145 117.464 175.447 117.895 175.859C118.325 176.27 118.646 176.78 118.828 177.342C119.009 177.904 119.047 178.501 118.937 179.08C118.826 179.66 118.572 180.204 118.196 180.664V180.664Z" fill="#A0616A"/>
<path d="M102.895 125.774H90.248V120.376C93.0238 119.296 95.74 118.378 97.382 120.376C98.844 120.376 100.246 120.945 101.28 121.957C102.314 122.969 102.895 124.342 102.895 125.774Z" fill="#2F2E41"/>
<path d="M89.5485 119.424C81.9882 119.424 79.8721 128.703 79.8721 133.937C79.8721 136.856 81.2204 137.901 83.3393 138.254L84.0876 134.346L85.8402 138.422C86.4354 138.425 87.0606 138.414 87.7088 138.402L88.3031 137.204L89.6282 138.38C94.9354 138.388 99.2248 139.146 99.2248 133.937C99.2248 128.703 97.369 119.424 89.5485 119.424Z" fill="#2F2E41"/>
<defs>
<filter id="filter0_d" x="0" y="21.2637" width="240" height="238.99" filterUnits="userSpaceOnUse" color-interpolation-filters="sRGB">
<feFlood flood-opacity="0" result="BackgroundImageFix"/>
<feColorMatrix in="SourceAlpha" type="matrix" values="0 0 0 0 0 0 0 0 0 0 0 0 0 0 0 0 0 0 127 0"/>
<feOffset dy="1"/>
<feGaussianBlur stdDeviation="1"/>
<feColorMatrix type="matrix" values="0 0 0 0 0.0588235 0 0 0 0 0.0588235 0 0 0 0 0.0588235 0 0 0 0.1 0"/>
<feBlend mode="normal" in2="BackgroundImageFix" result="effect1_dropShadow"/>
<feBlend mode="normal" in="SourceGraphic" in2="effect1_dropShadow" result="shape"/>
</filter>
</defs>
</svg>
