<svg width="240" height="266" viewBox="0 0 240 266" fill="none" xmlns="http://www.w3.org/2000/svg">
<g filter="url(#filter0_d)">
<rect x="2" y="22.7227" width="236" height="240" rx="20" fill="#04CC78"/>
</g>
<path fill-rule="evenodd" clip-rule="evenodd" d="M221 29.7227C216.032 29.7227 212 33.7547 212 38.7227C212 43.6907 216.032 47.7227 221 47.7227C225.968 47.7227 230 43.6907 230 38.7227C230 33.7547 225.968 29.7227 221 29.7227ZM220.1 34.2227V36.0227H221.9V34.2227H220.1ZM220.1 37.8227V43.2227H221.9V37.8227H220.1ZM213.8 38.7227C213.8 42.6917 217.031 45.9227 221 45.9227C224.969 45.9227 228.2 42.6917 228.2 38.7227C228.2 34.7537 224.969 31.5227 221 31.5227C217.031 31.5227 213.8 34.7537 213.8 38.7227Z" fill="white"/>
<path d="M37 10.7227C37 5.19981 41.4772 0.722656 47 0.722656H193C198.523 0.722656 203 5.19981 203 10.7227V22.7227H37V10.7227Z" fill="#F12587"/>
<path d="M102.906 16.9147C101.85 16.9147 100.927 16.6747 100.138 16.1947C99.3485 15.7147 98.7352 15.048 98.2979 14.1947C97.8605 13.3307 97.6419 12.328 97.6419 11.1867C97.6419 10.0347 97.8659 9.02132 98.3139 8.14666C98.7725 7.26132 99.4179 6.57332 100.25 6.08266C101.093 5.58132 102.09 5.33066 103.242 5.33066C104.554 5.33066 105.642 5.64532 106.506 6.27466C107.37 6.90399 107.93 7.77332 108.186 8.88266H105.898C105.727 8.35999 105.418 7.95466 104.97 7.66666C104.522 7.36799 103.946 7.21866 103.242 7.21866C102.122 7.21866 101.258 7.57599 100.65 8.29066C100.042 8.99466 99.7379 9.96532 99.7379 11.2027C99.7379 12.44 100.037 13.4 100.634 14.0827C101.242 14.7547 102.063 15.0907 103.098 15.0907C104.111 15.0907 104.874 14.8187 105.386 14.2747C105.909 13.72 106.223 12.9947 106.33 12.0987H103.498V10.5627H108.394V16.7227H106.506L106.346 15.2507C105.983 15.784 105.53 16.1947 104.986 16.4827C104.442 16.7707 103.749 16.9147 102.906 16.9147ZM113.073 16.9147C112.39 16.9147 111.83 16.808 111.393 16.5947C110.956 16.3707 110.63 16.0773 110.417 15.7147C110.204 15.352 110.097 14.952 110.097 14.5147C110.097 13.7787 110.385 13.1813 110.961 12.7227C111.537 12.264 112.401 12.0347 113.553 12.0347H115.569V11.8427C115.569 11.2987 115.414 10.8987 115.105 10.6427C114.796 10.3867 114.412 10.2587 113.953 10.2587C113.537 10.2587 113.174 10.36 112.865 10.5627C112.556 10.7547 112.364 11.0427 112.289 11.4267H110.289C110.342 10.8507 110.534 10.3493 110.865 9.92266C111.206 9.49599 111.644 9.17066 112.177 8.94666C112.71 8.71199 113.308 8.59466 113.969 8.59466C115.1 8.59466 115.99 8.87732 116.641 9.44266C117.292 10.008 117.617 10.808 117.617 11.8427V16.7227H115.873L115.681 15.4427C115.446 15.8693 115.116 16.2213 114.689 16.4987C114.273 16.776 113.734 16.9147 113.073 16.9147ZM113.537 15.3147C114.124 15.3147 114.577 15.1227 114.897 14.7387C115.228 14.3547 115.436 13.88 115.521 13.3147H113.777C113.233 13.3147 112.844 13.416 112.609 13.6187C112.374 13.8107 112.257 14.0507 112.257 14.3387C112.257 14.648 112.374 14.888 112.609 15.0587C112.844 15.2293 113.153 15.3147 113.537 15.3147ZM119.571 16.7227V8.78666H121.379L121.555 9.85866C121.811 9.47466 122.147 9.17066 122.563 8.94666C122.99 8.71199 123.481 8.59466 124.035 8.59466C125.262 8.59466 126.131 9.06932 126.643 10.0187C126.931 9.58132 127.315 9.23466 127.795 8.97866C128.286 8.72266 128.819 8.59466 129.395 8.59466C130.43 8.59466 131.225 8.90399 131.779 9.52266C132.334 10.1413 132.611 11.048 132.611 12.2427V16.7227H130.563V12.4347C130.563 11.752 130.43 11.2293 130.163 10.8667C129.907 10.504 129.507 10.3227 128.963 10.3227C128.409 10.3227 127.961 10.5253 127.619 10.9307C127.289 11.336 127.123 11.9013 127.123 12.6267V16.7227H125.075V12.4347C125.075 11.752 124.942 11.2293 124.675 10.8667C124.409 10.504 123.998 10.3227 123.443 10.3227C122.899 10.3227 122.457 10.5253 122.115 10.9307C121.785 11.336 121.619 11.9013 121.619 12.6267V16.7227H119.571ZM138.412 16.9147C137.612 16.9147 136.902 16.744 136.284 16.4027C135.665 16.0613 135.18 15.5813 134.828 14.9627C134.476 14.344 134.3 13.6293 134.3 12.8187C134.3 11.9973 134.47 11.2667 134.812 10.6267C135.164 9.98666 135.644 9.49066 136.252 9.13866C136.87 8.77599 137.596 8.59466 138.428 8.59466C139.206 8.59466 139.894 8.76532 140.492 9.10666C141.089 9.44799 141.553 9.91732 141.884 10.5147C142.225 11.1013 142.396 11.7573 142.396 12.4827C142.396 12.6 142.39 12.7227 142.38 12.8507C142.38 12.9787 142.374 13.112 142.364 13.2507H136.332C136.374 13.8693 136.588 14.3547 136.972 14.7067C137.366 15.0587 137.841 15.2347 138.396 15.2347C138.812 15.2347 139.158 15.144 139.436 14.9627C139.724 14.7707 139.937 14.5253 140.076 14.2267H142.156C142.006 14.728 141.756 15.1867 141.404 15.6027C141.062 16.008 140.636 16.328 140.124 16.5627C139.622 16.7973 139.052 16.9147 138.412 16.9147ZM138.428 10.2587C137.926 10.2587 137.484 10.4027 137.1 10.6907C136.716 10.968 136.47 11.3947 136.364 11.9707H140.316C140.284 11.448 140.092 11.032 139.74 10.7227C139.388 10.4133 138.95 10.2587 138.428 10.2587Z" fill="white"/>
<path d="M52.4424 76.7227V62.3947H47.5464V59.9227H60.4344V62.3947H55.5144V76.7227H52.4424ZM61.4663 76.7227V64.8187H64.2023L64.4903 67.0507C64.9223 66.2827 65.5063 65.6747 66.2422 65.2267C66.9943 64.7627 67.8743 64.5307 68.8823 64.5307V67.7707H68.0183C67.3463 67.7707 66.7463 67.8747 66.2183 68.0827C65.6903 68.2907 65.2743 68.6507 64.9703 69.1627C64.6823 69.6747 64.5383 70.3867 64.5383 71.2987V76.7227H61.4663ZM75.4459 77.0107C73.9579 77.0107 72.8059 76.5467 71.9899 75.6187C71.1899 74.6907 70.7899 73.3307 70.7899 71.5387V64.8187H73.8379V71.2507C73.8379 72.2747 74.0459 73.0587 74.4619 73.6027C74.8779 74.1467 75.5339 74.4187 76.4299 74.4187C77.2779 74.4187 77.9739 74.1147 78.5179 73.5067C79.0779 72.8987 79.3579 72.0507 79.3579 70.9627V64.8187H82.4299V76.7227H79.7179L79.4779 74.7067C79.1099 75.4107 78.5739 75.9707 77.8699 76.3867C77.1819 76.8027 76.3739 77.0107 75.4459 77.0107ZM91.3674 77.0107C90.1674 77.0107 89.1034 76.7547 88.1754 76.2427C87.2474 75.7307 86.5194 75.0107 85.9914 74.0827C85.4634 73.1547 85.1994 72.0827 85.1994 70.8667C85.1994 69.6347 85.4554 68.5387 85.9674 67.5787C86.4954 66.6187 87.2154 65.8747 88.1274 65.3467C89.0554 64.8027 90.1434 64.5307 91.3914 64.5307C92.5594 64.5307 93.5914 64.7867 94.4874 65.2987C95.3834 65.8107 96.0794 66.5147 96.5754 67.4107C97.0874 68.2907 97.3434 69.2747 97.3434 70.3627C97.3434 70.5387 97.3354 70.7227 97.3194 70.9147C97.3194 71.1067 97.3114 71.3067 97.2954 71.5147H88.2474C88.3114 72.4427 88.6314 73.1707 89.2074 73.6987C89.7994 74.2267 90.5114 74.4907 91.3434 74.4907C91.9674 74.4907 92.4874 74.3547 92.9034 74.0827C93.3354 73.7947 93.6554 73.4267 93.8634 72.9787H96.9834C96.7594 73.7307 96.3834 74.4187 95.8554 75.0427C95.3434 75.6507 94.7034 76.1307 93.9354 76.4827C93.1834 76.8347 92.3274 77.0107 91.3674 77.0107ZM91.3914 67.0267C90.6394 67.0267 89.9754 67.2427 89.3994 67.6747C88.8234 68.0907 88.4554 68.7307 88.2954 69.5947H94.2234C94.1754 68.8107 93.8874 68.1867 93.3594 67.7227C92.8314 67.2587 92.1754 67.0267 91.3914 67.0267ZM111.358 77.0107C110.206 77.0107 109.166 76.7467 108.238 76.2187C107.326 75.6907 106.598 74.9627 106.054 74.0347C105.526 73.0907 105.262 72.0027 105.262 70.7707C105.262 69.5387 105.534 68.4587 106.078 67.5307C106.622 66.5867 107.35 65.8507 108.262 65.3227C109.19 64.7947 110.23 64.5307 111.382 64.5307C112.518 64.5307 113.542 64.7947 114.454 65.3227C115.382 65.8507 116.11 66.5867 116.638 67.5307C117.182 68.4587 117.454 69.5387 117.454 70.7707C117.454 72.0027 117.182 73.0907 116.638 74.0347C116.11 74.9627 115.382 75.6907 114.454 76.2187C113.526 76.7467 112.494 77.0107 111.358 77.0107ZM111.358 74.3467C112.158 74.3467 112.854 74.0507 113.446 73.4587C114.038 72.8507 114.334 71.9547 114.334 70.7707C114.334 69.5867 114.038 68.6987 113.446 68.1067C112.854 67.4987 112.166 67.1947 111.382 67.1947C110.566 67.1947 109.862 67.4987 109.27 68.1067C108.694 68.6987 108.406 69.5867 108.406 70.7707C108.406 71.9547 108.694 72.8507 109.27 73.4587C109.862 74.0507 110.558 74.3467 111.358 74.3467ZM120.201 76.7227V64.8187H122.937L123.225 67.0507C123.657 66.2827 124.241 65.6747 124.977 65.2267C125.729 64.7627 126.609 64.5307 127.617 64.5307V67.7707H126.753C126.081 67.7707 125.481 67.8747 124.953 68.0827C124.425 68.2907 124.009 68.6507 123.705 69.1627C123.417 69.6747 123.273 70.3867 123.273 71.2987V76.7227H120.201ZM135.507 76.7227V59.9227H146.355V62.3947H138.579V67.0987H144.867V69.5227H138.579V76.7227H135.507ZM151.75 77.0107C150.726 77.0107 149.886 76.8507 149.23 76.5307C148.574 76.1947 148.086 75.7547 147.766 75.2107C147.446 74.6667 147.286 74.0667 147.286 73.4107C147.286 72.3067 147.718 71.4107 148.582 70.7227C149.446 70.0347 150.742 69.6907 152.47 69.6907H155.494V69.4027C155.494 68.5867 155.262 67.9867 154.798 67.6027C154.334 67.2187 153.758 67.0267 153.07 67.0267C152.446 67.0267 151.902 67.1787 151.438 67.4827C150.974 67.7707 150.686 68.2027 150.574 68.7787H147.574C147.654 67.9147 147.942 67.1627 148.438 66.5227C148.95 65.8827 149.606 65.3947 150.406 65.0587C151.206 64.7067 152.102 64.5307 153.094 64.5307C154.79 64.5307 156.126 64.9547 157.102 65.8027C158.078 66.6507 158.566 67.8507 158.566 69.4027V76.7227H155.95L155.662 74.8027C155.31 75.4427 154.814 75.9707 154.174 76.3867C153.55 76.8027 152.742 77.0107 151.75 77.0107ZM152.446 74.6107C153.326 74.6107 154.006 74.3227 154.486 73.7467C154.982 73.1707 155.294 72.4587 155.422 71.6107H152.806C151.99 71.6107 151.406 71.7627 151.054 72.0667C150.702 72.3547 150.526 72.7147 150.526 73.1467C150.526 73.6107 150.702 73.9707 151.054 74.2267C151.406 74.4827 151.87 74.6107 152.446 74.6107ZM161.498 76.7227V59.4427H164.57V76.7227H161.498ZM172.628 77.0107C171.572 77.0107 170.644 76.8427 169.844 76.5067C169.044 76.1547 168.404 75.6747 167.924 75.0667C167.444 74.4587 167.156 73.7547 167.06 72.9547H170.156C170.252 73.4187 170.508 73.8187 170.924 74.1547C171.356 74.4747 171.908 74.6347 172.58 74.6347C173.252 74.6347 173.74 74.4987 174.044 74.2267C174.364 73.9547 174.524 73.6427 174.524 73.2907C174.524 72.7787 174.3 72.4347 173.852 72.2587C173.404 72.0667 172.78 71.8827 171.98 71.7067C171.468 71.5947 170.948 71.4587 170.42 71.2987C169.892 71.1387 169.404 70.9387 168.956 70.6987C168.524 70.4427 168.172 70.1227 167.9 69.7387C167.628 69.3387 167.492 68.8507 167.492 68.2747C167.492 67.2187 167.908 66.3307 168.74 65.6107C169.588 64.8907 170.772 64.5307 172.292 64.5307C173.7 64.5307 174.82 64.8587 175.652 65.5147C176.5 66.1707 177.004 67.0747 177.164 68.2267H174.26C174.084 67.3467 173.42 66.9067 172.268 66.9067C171.692 66.9067 171.244 67.0187 170.924 67.2427C170.62 67.4667 170.468 67.7467 170.468 68.0827C170.468 68.4347 170.7 68.7147 171.164 68.9227C171.628 69.1307 172.244 69.3227 173.012 69.4987C173.844 69.6907 174.604 69.9067 175.292 70.1467C175.996 70.3707 176.556 70.7147 176.972 71.1787C177.388 71.6267 177.596 72.2747 177.596 73.1227C177.612 73.8587 177.42 74.5227 177.02 75.1147C176.62 75.7067 176.044 76.1707 175.292 76.5067C174.54 76.8427 173.652 77.0107 172.628 77.0107ZM186.102 77.0107C184.902 77.0107 183.838 76.7547 182.91 76.2427C181.982 75.7307 181.254 75.0107 180.726 74.0827C180.198 73.1547 179.934 72.0827 179.934 70.8667C179.934 69.6347 180.19 68.5387 180.702 67.5787C181.23 66.6187 181.95 65.8747 182.862 65.3467C183.79 64.8027 184.878 64.5307 186.126 64.5307C187.294 64.5307 188.326 64.7867 189.222 65.2987C190.118 65.8107 190.814 66.5147 191.31 67.4107C191.822 68.2907 192.078 69.2747 192.078 70.3627C192.078 70.5387 192.07 70.7227 192.054 70.9147C192.054 71.1067 192.046 71.3067 192.03 71.5147H182.982C183.046 72.4427 183.366 73.1707 183.942 73.6987C184.534 74.2267 185.246 74.4907 186.078 74.4907C186.702 74.4907 187.222 74.3547 187.638 74.0827C188.07 73.7947 188.39 73.4267 188.598 72.9787H191.718C191.494 73.7307 191.118 74.4187 190.59 75.0427C190.078 75.6507 189.438 76.1307 188.67 76.4827C187.918 76.8347 187.062 77.0107 186.102 77.0107ZM186.126 67.0267C185.374 67.0267 184.71 67.2427 184.134 67.6747C183.558 68.0907 183.19 68.7307 183.03 69.5947H188.958C188.91 68.8107 188.622 68.1867 188.094 67.7227C187.566 67.2587 186.91 67.0267 186.126 67.0267Z" fill="white"/>
<path d="M99.8469 132.63C104.638 132.63 108.521 128.828 108.521 124.138C108.521 119.447 104.638 115.645 99.8469 115.645C95.0564 115.645 91.1729 119.447 91.1729 124.138C91.1729 128.828 95.0564 132.63 99.8469 132.63Z" fill="#A0616A"/>
<path d="M96.7167 174.391C96.6074 174.391 96.4977 174.387 96.3875 174.377C95.8419 174.332 95.3122 174.176 94.8329 173.917C94.3536 173.657 93.9356 173.302 93.6064 172.874C93.2771 172.446 93.044 171.954 92.9222 171.432C92.8005 170.909 92.7929 170.367 92.9 169.842C92.9253 169.719 92.9571 169.599 92.9953 169.48L80.1931 154.655C79.776 154.168 79.5303 153.562 79.4924 152.928C79.4546 152.294 79.6267 151.664 79.9832 151.133L80.0063 151.105L91.5299 139.98C91.8432 139.677 92.2146 139.439 92.6227 139.278C93.0308 139.117 93.4674 139.036 93.9073 139.041C94.3473 139.046 94.7819 139.137 95.186 139.307C95.5901 139.477 95.9557 139.724 96.2618 140.034C96.5678 140.343 96.8082 140.709 96.969 141.11C97.1299 141.511 97.208 141.939 97.1988 142.37C97.1897 142.801 97.0935 143.226 96.9159 143.62C96.7382 144.014 96.4825 144.37 96.1636 144.666L87.8175 152.435L96.9544 166.794C97.1275 166.802 97.2997 166.823 97.4698 166.856C98.4149 167.04 99.2562 167.562 99.8302 168.32C100.404 169.078 100.67 170.018 100.576 170.957C100.483 171.896 100.036 172.768 99.3223 173.402C98.609 174.037 97.6804 174.389 96.7166 174.391L96.7167 174.391Z" fill="#A0616A"/>
<path d="M114.13 242.338L118.459 242.338L120.519 225.986L114.129 225.987L114.13 242.338Z" fill="#A0616A"/>
<path d="M113.031 240.952L121.558 240.951H121.558C122.272 240.951 122.979 241.089 123.638 241.356C124.297 241.623 124.896 242.015 125.401 242.509C125.905 243.003 126.306 243.59 126.579 244.235C126.852 244.881 126.992 245.573 126.992 246.272V246.444L113.032 246.445L113.031 240.952Z" fill="#2F2E41"/>
<path d="M71.0996 236.474L74.8198 238.642L85.134 225.624L79.6434 222.424L71.0996 236.474Z" fill="#A0616A"/>
<path d="M70.8703 234.732L78.1967 239.003L78.197 239.004C78.8102 239.361 79.3454 239.833 79.7722 240.393C80.1989 240.953 80.5089 241.59 80.6842 242.267C80.8596 242.945 80.8971 243.649 80.7944 244.34C80.6917 245.032 80.451 245.697 80.0859 246.297L79.9956 246.446L68 239.453L70.8703 234.732Z" fill="#2F2E41"/>
<path d="M119.484 236.562H114.635C114.243 236.562 113.864 236.42 113.572 236.163C113.28 235.906 113.096 235.552 113.055 235.17L108.167 190.184C108.155 190.071 108.105 189.964 108.025 189.882C107.945 189.799 107.839 189.745 107.724 189.727C107.609 189.709 107.492 189.728 107.389 189.782C107.287 189.836 107.205 189.921 107.157 190.025L98.3397 209.143L82.7284 234.067C82.5264 234.387 82.2135 234.624 81.8472 234.737C81.4808 234.849 81.0855 234.828 80.7336 234.678L74.497 231.991C74.2908 231.902 74.1062 231.771 73.9555 231.607C73.8049 231.443 73.6915 231.25 73.6231 231.04C73.5546 230.83 73.5325 230.608 73.5583 230.388C73.5841 230.169 73.6572 229.958 73.7727 229.769L88.1238 206.241L92.5252 186.417C91.1409 177.82 97.0753 165.039 97.1355 164.911L97.1649 164.848L115.009 157.859L115.091 157.958C125.694 170.63 123.968 201.696 121.068 235.136C121.032 235.524 120.85 235.885 120.557 236.149C120.264 236.412 119.881 236.56 119.484 236.562Z" fill="#2F2E41"/>
<path d="M96.5026 166.941L96.4264 166.785C96.3901 166.71 92.7553 159.203 89.9533 151.181C89.4148 149.63 89.2113 147.986 89.3555 146.353C89.4998 144.721 89.9887 143.136 90.7913 141.698C91.6044 140.245 92.7167 138.974 94.0578 137.964C95.399 136.954 96.9397 136.228 98.5823 135.832C101.434 135.163 104.436 135.519 107.042 136.835C109.648 138.152 111.685 140.341 112.78 143.005C115.003 148.446 115.792 153.522 115.125 158.09L115.112 158.181L115.027 158.221L96.5026 166.941Z" fill="#6C63FF"/>
<path d="M127.025 179.119C126.657 179.57 126.191 179.936 125.661 180.19C125.132 180.444 124.551 180.581 123.961 180.589C123.423 180.596 122.889 180.497 122.391 180.297C121.893 180.097 121.442 179.801 121.064 179.426C120.686 179.051 120.389 178.605 120.191 178.115C119.994 177.624 119.9 177.1 119.914 176.574C119.92 176.381 119.942 176.189 119.978 176L102.897 144.852C102.674 144.502 102.523 144.113 102.454 143.706C102.385 143.299 102.399 142.882 102.495 142.481C102.591 142.079 102.767 141.7 103.013 141.365C103.259 141.03 103.57 140.746 103.929 140.529C104.287 140.312 104.686 140.167 105.102 140.102C105.518 140.037 105.943 140.053 106.353 140.149C106.763 140.245 107.149 140.419 107.49 140.662C107.83 140.905 108.119 141.211 108.338 141.564L125.024 172.93C125.653 173.109 126.228 173.437 126.697 173.886C127.166 174.334 127.515 174.889 127.713 175.501C127.911 176.113 127.952 176.763 127.832 177.394C127.712 178.026 127.435 178.618 127.025 179.119V179.119Z" fill="#A0616A"/>
<path d="M110.36 119.338H96.5869V113.46C99.61 112.284 102.568 111.284 104.357 113.46C105.949 113.46 107.476 114.079 108.602 115.181C109.728 116.284 110.36 117.779 110.36 119.338Z" fill="#2F2E41"/>
<path d="M95.8248 112.422C87.5908 112.422 85.2861 122.527 85.2861 128.228C85.2861 131.408 86.7547 132.545 89.0623 132.93L89.8773 128.674L91.786 133.113C92.4343 133.116 93.1152 133.104 93.8212 133.091L94.4684 131.786L95.9116 133.068C101.692 133.076 106.363 133.901 106.363 128.228C106.363 122.527 104.342 112.422 95.8248 112.422Z" fill="#2F2E41"/>
<path d="M140.309 115.981C140.44 115.981 140.569 115.942 140.678 115.868C140.787 115.795 140.872 115.69 140.922 115.568C140.971 115.446 140.983 115.312 140.956 115.183C140.929 115.054 140.864 114.936 140.77 114.844L132.786 107.095L141.294 98.9034C141.42 98.7817 141.493 98.6148 141.496 98.4395C141.5 98.2641 141.433 98.0946 141.311 97.9682C141.19 97.8419 141.023 97.769 140.848 97.7657C140.672 97.7624 140.503 97.8289 140.376 97.9506L131.836 106.172L124.01 98.5772C123.948 98.5167 123.874 98.4691 123.793 98.437C123.713 98.405 123.626 98.3891 123.539 98.3904C123.453 98.3917 123.367 98.4101 123.287 98.4445C123.207 98.479 123.135 98.5288 123.075 98.5911C123.014 98.6534 122.966 98.7271 122.934 98.8078C122.902 98.8886 122.886 98.9749 122.888 99.0617C122.889 99.1486 122.907 99.2344 122.942 99.3141C122.976 99.3939 123.026 99.4661 123.088 99.5266L130.882 107.091L123.091 114.593C122.964 114.715 122.891 114.881 122.888 115.057C122.885 115.232 122.951 115.402 123.073 115.528C123.195 115.654 123.361 115.727 123.537 115.731C123.712 115.734 123.882 115.667 124.008 115.546L131.832 108.013L139.847 115.794C139.97 115.914 140.136 115.981 140.309 115.981Z" fill="#F12587"/>
<path d="M172.439 141.815C176.02 138.177 178.018 133.272 178 128.167C177.994 122.987 175.933 118.02 172.271 114.357C168.608 110.694 163.641 108.633 158.461 108.626C156.114 108.621 153.786 109.045 151.591 109.877C151.686 109.104 151.734 108.326 151.735 107.548C151.736 104.344 150.949 101.189 149.444 98.36C147.938 95.5315 145.76 93.1165 143.102 91.3279C140.443 89.5393 137.386 88.4318 134.199 88.1031C131.011 87.7744 127.792 88.2345 124.825 89.4429C121.857 90.6512 119.232 92.5708 117.181 95.0326C115.13 97.4943 113.716 100.423 113.063 103.56C112.41 106.697 112.539 109.946 113.438 113.021C114.336 116.097 115.978 118.904 118.217 121.196L114.37 126.006C114.292 126.104 114.244 126.221 114.23 126.345C114.217 126.468 114.238 126.593 114.292 126.705C114.346 126.817 114.43 126.912 114.535 126.978C114.64 127.045 114.762 127.08 114.886 127.08L131.013 127.046C131.405 127.067 131.795 127.08 132.193 127.08C134.542 127.084 136.873 126.66 139.07 125.828C138.975 126.604 138.927 127.384 138.926 128.166C138.93 133.346 140.99 138.313 144.652 141.976C148.315 145.64 153.281 147.701 158.461 147.708C158.859 147.708 159.257 147.687 159.603 147.667L175.773 147.708C175.898 147.708 176.02 147.673 176.126 147.606C176.231 147.54 176.316 147.445 176.37 147.333C176.424 147.22 176.445 147.095 176.431 146.971C176.417 146.847 176.368 146.73 176.29 146.633L172.439 141.815ZM131.049 125.724L116.265 125.755L119.621 121.558C119.724 121.43 119.775 121.267 119.764 121.102C119.754 120.938 119.682 120.783 119.564 120.669C117.395 118.581 115.779 115.988 114.858 113.122C113.937 110.257 113.74 107.207 114.286 104.247C114.831 101.287 116.102 98.5083 117.984 96.1593C119.866 93.8103 122.301 91.9643 125.071 90.7864C127.841 89.6085 130.859 89.1354 133.857 89.4094C136.854 89.6834 139.737 90.696 142.248 92.3566C144.758 94.0172 146.818 96.2741 148.243 98.9255C149.668 101.577 150.414 104.54 150.414 107.55C150.416 108.531 150.335 109.51 150.174 110.478C150.038 110.545 149.902 110.613 149.767 110.681C149.603 110.762 149.438 110.842 149.278 110.927C149.089 111.028 148.905 111.135 148.721 111.24C148.566 111.329 148.41 111.417 148.258 111.512C148.074 111.624 147.895 111.744 147.715 111.862C147.569 111.957 147.422 112.051 147.28 112.151C147.101 112.275 146.927 112.407 146.753 112.538C146.617 112.639 146.482 112.741 146.346 112.844C146.172 112.979 146.007 113.126 145.834 113.269C145.709 113.376 145.58 113.479 145.458 113.588C145.287 113.74 145.123 113.9 144.958 114.058C144.845 114.167 144.727 114.271 144.619 114.382C144.445 114.557 144.28 114.738 144.114 114.918C144.019 115.02 143.921 115.121 143.829 115.223C143.617 115.463 143.414 115.709 143.214 115.96C143.119 116.078 143.026 116.199 142.933 116.32C142.756 116.553 142.579 116.787 142.412 117.027C142.315 117.169 142.224 117.315 142.13 117.459C142.015 117.636 141.895 117.81 141.786 117.991C141.687 118.153 141.596 118.321 141.501 118.487C141.407 118.653 141.308 118.82 141.217 118.991C141.126 119.162 141.04 119.346 140.951 119.523C140.869 119.691 140.784 119.856 140.707 120.026C140.623 120.209 140.547 120.395 140.469 120.581C140.398 120.752 140.324 120.92 140.257 121.093C140.184 121.282 140.121 121.474 140.054 121.666C139.993 121.84 139.929 122.014 139.873 122.191C139.811 122.384 139.757 122.58 139.701 122.776C139.65 122.956 139.597 123.135 139.55 123.318C139.501 123.513 139.459 123.709 139.415 123.906C139.385 124.042 139.347 124.177 139.322 124.313C137.071 125.274 134.649 125.768 132.201 125.762C131.82 125.758 131.453 125.745 131.049 125.724ZM159.569 146.344C159.208 146.364 158.833 146.384 158.46 146.384C153.631 146.378 149.001 144.456 145.588 141.04C142.174 137.625 140.254 132.995 140.25 128.166C140.247 127.067 140.348 125.97 140.552 124.891C140.684 124.157 140.861 123.432 141.082 122.721C141.192 122.368 141.312 122.019 141.442 121.674C143.024 117.516 146.077 114.083 150.021 112.026C150.351 111.853 150.688 111.689 151.032 111.536C153.365 110.482 155.898 109.94 158.458 109.949C163.289 109.954 167.92 111.875 171.335 115.29C174.751 118.705 176.672 123.335 176.678 128.166C176.687 130.617 176.196 133.045 175.235 135.302C174.275 137.558 172.865 139.594 171.091 141.288C170.973 141.402 170.901 141.557 170.89 141.721C170.879 141.886 170.93 142.049 171.033 142.178L174.396 146.382L159.569 146.344Z" fill="white"/>
<path d="M165.972 121.878L154.531 134.656L150.956 130.639C150.898 130.574 150.828 130.521 150.749 130.484C150.671 130.446 150.586 130.424 150.499 130.419C150.412 130.414 150.325 130.426 150.243 130.455C150.161 130.483 150.085 130.528 150.02 130.586C149.955 130.643 149.903 130.714 149.865 130.792C149.827 130.87 149.805 130.955 149.8 131.042C149.795 131.129 149.807 131.216 149.836 131.298C149.864 131.38 149.909 131.456 149.967 131.521L154.036 136.091C154.098 136.161 154.174 136.217 154.259 136.255C154.344 136.293 154.436 136.313 154.529 136.313C154.622 136.313 154.714 136.294 154.799 136.256C154.884 136.218 154.96 136.162 155.022 136.093L166.96 122.761C167.068 122.629 167.122 122.46 167.109 122.289C167.096 122.119 167.017 121.96 166.89 121.846C166.763 121.732 166.596 121.672 166.425 121.678C166.254 121.684 166.093 121.756 165.974 121.879L165.972 121.878Z" fill="#6C63FF"/>
<defs>
<filter id="filter0_d" x="0" y="21.7227" width="240" height="244" filterUnits="userSpaceOnUse" color-interpolation-filters="sRGB">
<feFlood flood-opacity="0" result="BackgroundImageFix"/>
<feColorMatrix in="SourceAlpha" type="matrix" values="0 0 0 0 0 0 0 0 0 0 0 0 0 0 0 0 0 0 127 0"/>
<feOffset dy="1"/>
<feGaussianBlur stdDeviation="1"/>
<feColorMatrix type="matrix" values="0 0 0 0 0.0588235 0 0 0 0 0.0588235 0 0 0 0 0.0588235 0 0 0 0.1 0"/>
<feBlend mode="normal" in2="BackgroundImageFix" result="effect1_dropShadow"/>
<feBlend mode="normal" in="SourceGraphic" in2="effect1_dropShadow" result="shape"/>
</filter>
</defs>
</svg>
