<svg width="214" height="237" viewBox="0 0 214 237" fill="none" xmlns="http://www.w3.org/2000/svg">
<g filter="url(#filter0_d)">
<rect x="2" y="19.5762" width="210" height="213.559" rx="20" fill="#01AD5A"/>
</g>
<path d="M33.1445 10C33.1445 4.47715 37.6217 0 43.1445 0H170.856C176.379 0 180.856 4.47715 180.856 10V19.5763H33.1445V10Z" fill="#F12587"/>
<path d="M92.044 14.9473C91.12 14.9473 90.3127 14.7373 89.622 14.3173C88.9313 13.8973 88.3947 13.314 88.012 12.5673C87.6293 11.8113 87.438 10.934 87.438 9.9353C87.438 8.9273 87.634 8.04063 88.026 7.2753C88.4273 6.50063 88.992 5.89863 89.72 5.4693C90.4573 5.03063 91.33 4.8113 92.338 4.8113C93.486 4.8113 94.438 5.08663 95.194 5.6373C95.95 6.18796 96.44 6.94863 96.664 7.9193H94.662C94.5127 7.46196 94.242 7.1073 93.85 6.8553C93.458 6.59396 92.954 6.4633 92.338 6.4633C91.358 6.4633 90.602 6.77596 90.07 7.4013C89.538 8.0173 89.272 8.86663 89.272 9.9493C89.272 11.032 89.5333 11.872 90.056 12.4693C90.588 13.0573 91.3067 13.3513 92.212 13.3513C93.0987 13.3513 93.766 13.1133 94.214 12.6373C94.6713 12.152 94.9467 11.5173 95.04 10.7333H92.562V9.3893H96.846V14.7793H95.194L95.054 13.4913C94.7367 13.958 94.34 14.3173 93.864 14.5693C93.388 14.8213 92.7813 14.9473 92.044 14.9473ZM100.94 14.9473C100.343 14.9473 99.8528 14.854 99.4701 14.6673C99.0875 14.4713 98.8028 14.2146 98.6161 13.8973C98.4295 13.58 98.3361 13.23 98.3361 12.8473C98.3361 12.2033 98.5881 11.6806 99.0921 11.2793C99.5961 10.878 100.352 10.6773 101.36 10.6773H103.124V10.5093C103.124 10.0333 102.989 9.6833 102.718 9.4593C102.447 9.2353 102.111 9.1233 101.71 9.1233C101.346 9.1233 101.029 9.21196 100.758 9.3893C100.487 9.5573 100.319 9.8093 100.254 10.1453H98.5041C98.5508 9.6413 98.7188 9.20263 99.0081 8.8293C99.3068 8.45596 99.6895 8.1713 100.156 7.9753C100.623 7.76996 101.145 7.6673 101.724 7.6673C102.713 7.6673 103.493 7.91463 104.062 8.4093C104.631 8.90396 104.916 9.60396 104.916 10.5093V14.7793H103.39L103.222 13.6593C103.017 14.0326 102.727 14.3406 102.354 14.5833C101.99 14.826 101.519 14.9473 100.94 14.9473ZM101.346 13.5473C101.859 13.5473 102.256 13.3793 102.536 13.0433C102.825 12.7073 103.007 12.292 103.082 11.7973H101.556C101.08 11.7973 100.739 11.886 100.534 12.0633C100.329 12.2313 100.226 12.4413 100.226 12.6933C100.226 12.964 100.329 13.174 100.534 13.3233C100.739 13.4726 101.01 13.5473 101.346 13.5473ZM106.626 14.7793V7.8353H108.208L108.362 8.7733C108.586 8.4373 108.88 8.1713 109.244 7.9753C109.618 7.76996 110.047 7.6673 110.532 7.6673C111.606 7.6673 112.366 8.08263 112.814 8.9133C113.066 8.53063 113.402 8.2273 113.822 8.0033C114.252 7.7793 114.718 7.6673 115.222 7.6673C116.128 7.6673 116.823 7.93796 117.308 8.4793C117.794 9.02063 118.036 9.81396 118.036 10.8593V14.7793H116.244V11.0273C116.244 10.43 116.128 9.97263 115.894 9.6553C115.67 9.33796 115.32 9.1793 114.844 9.1793C114.359 9.1793 113.967 9.35663 113.668 9.7113C113.379 10.066 113.234 10.5606 113.234 11.1953V14.7793H111.442V11.0273C111.442 10.43 111.326 9.97263 111.092 9.6553C110.859 9.33796 110.5 9.1793 110.014 9.1793C109.538 9.1793 109.151 9.35663 108.852 9.7113C108.563 10.066 108.418 10.5606 108.418 11.1953V14.7793H106.626ZM123.112 14.9473C122.412 14.9473 121.791 14.798 121.25 14.4993C120.708 14.2006 120.284 13.7806 119.976 13.2393C119.668 12.698 119.514 12.0726 119.514 11.3633C119.514 10.6446 119.663 10.0053 119.962 9.4453C120.27 8.8853 120.69 8.4513 121.222 8.1433C121.763 7.82596 122.398 7.6673 123.126 7.6673C123.807 7.6673 124.409 7.81663 124.932 8.1153C125.454 8.41396 125.86 8.82463 126.15 9.3473C126.448 9.86063 126.598 10.4346 126.598 11.0693C126.598 11.172 126.593 11.2793 126.584 11.3913C126.584 11.5033 126.579 11.62 126.57 11.7413H121.292C121.329 12.2826 121.516 12.7073 121.852 13.0153C122.197 13.3233 122.612 13.4773 123.098 13.4773C123.462 13.4773 123.765 13.398 124.008 13.2393C124.26 13.0713 124.446 12.8566 124.568 12.5953H126.388C126.257 13.034 126.038 13.4353 125.73 13.7993C125.431 14.154 125.058 14.434 124.61 14.6393C124.171 14.8446 123.672 14.9473 123.112 14.9473ZM123.126 9.1233C122.687 9.1233 122.3 9.2493 121.964 9.5013C121.628 9.74396 121.413 10.1173 121.32 10.6213H124.778C124.75 10.164 124.582 9.79996 124.274 9.5293C123.966 9.25863 123.583 9.1233 123.126 9.1233Z" fill="white"/>
<path d="M53.5169 61.8145V50.4715H49.6409V48.5145H59.8439V50.4715H55.9489V61.8145H53.5169ZM60.6608 61.8145V52.3905H62.8268L63.0548 54.1575C63.3968 53.5495 63.8591 53.0681 64.4418 52.7135C65.0371 52.3461 65.7338 52.1625 66.5318 52.1625V54.7275H65.8478C65.3158 54.7275 64.8408 54.8098 64.4228 54.9745C64.0048 55.1391 63.6754 55.4241 63.4348 55.8295C63.2068 56.2348 63.0928 56.7985 63.0928 57.5205V61.8145H60.6608ZM71.728 62.0425C70.55 62.0425 69.638 61.6751 68.992 60.9405C68.3587 60.2058 68.042 59.1291 68.042 57.7105V52.3905H70.455V57.4825C70.455 58.2931 70.6197 58.9138 70.949 59.3445C71.2783 59.7751 71.7977 59.9905 72.507 59.9905C73.1783 59.9905 73.7293 59.7498 74.16 59.2685C74.6033 58.7871 74.825 58.1158 74.825 57.2545V52.3905H77.257V61.8145H75.11L74.92 60.2185C74.6287 60.7758 74.2043 61.2191 73.647 61.5485C73.1023 61.8778 72.4627 62.0425 71.728 62.0425ZM84.3326 62.0425C83.3826 62.0425 82.5402 61.8398 81.8056 61.4345C81.0709 61.0291 80.4946 60.4591 80.0766 59.7245C79.6586 58.9898 79.4496 58.1411 79.4496 57.1785C79.4496 56.2031 79.6522 55.3355 80.0576 54.5755C80.4756 53.8155 81.0456 53.2265 81.7676 52.8085C82.5022 52.3778 83.3636 52.1625 84.3516 52.1625C85.2762 52.1625 86.0932 52.3651 86.8026 52.7705C87.5119 53.1758 88.0629 53.7331 88.4556 54.4425C88.8609 55.1391 89.0636 55.9181 89.0636 56.7795C89.0636 56.9188 89.0572 57.0645 89.0446 57.2165C89.0446 57.3685 89.0382 57.5268 89.0256 57.6915H81.8626C81.9132 58.4261 82.1666 59.0025 82.6226 59.4205C83.0912 59.8385 83.6549 60.0475 84.3136 60.0475C84.8076 60.0475 85.2192 59.9398 85.5486 59.7245C85.8906 59.4965 86.1439 59.2051 86.3086 58.8505H88.7786C88.6012 59.4458 88.3036 59.9905 87.8856 60.4845C87.4802 60.9658 86.9736 61.3458 86.3656 61.6245C85.7702 61.9031 85.0926 62.0425 84.3326 62.0425ZM84.3516 54.1385C83.7562 54.1385 83.2306 54.3095 82.7746 54.6515C82.3186 54.9808 82.0272 55.4875 81.9006 56.1715H86.5936C86.5556 55.5508 86.3276 55.0568 85.9096 54.6895C85.4916 54.3221 84.9722 54.1385 84.3516 54.1385ZM100.158 62.0425C99.2464 62.0425 98.423 61.8335 97.6884 61.4155C96.9664 60.9975 96.39 60.4211 95.9594 59.6865C95.5414 58.9391 95.3324 58.0778 95.3324 57.1025C95.3324 56.1271 95.5477 55.2721 95.9784 54.5375C96.409 53.7901 96.9854 53.2075 97.7074 52.7895C98.442 52.3715 99.2654 52.1625 100.177 52.1625C101.077 52.1625 101.887 52.3715 102.609 52.7895C103.344 53.2075 103.92 53.7901 104.338 54.5375C104.769 55.2721 104.984 56.1271 104.984 57.1025C104.984 58.0778 104.769 58.9391 104.338 59.6865C103.92 60.4211 103.344 60.9975 102.609 61.4155C101.875 61.8335 101.058 62.0425 100.158 62.0425ZM100.158 59.9335C100.792 59.9335 101.343 59.6991 101.811 59.2305C102.28 58.7491 102.514 58.0398 102.514 57.1025C102.514 56.1651 102.28 55.4621 101.811 54.9935C101.343 54.5121 100.798 54.2715 100.177 54.2715C99.5314 54.2715 98.974 54.5121 98.5054 54.9935C98.0494 55.4621 97.8214 56.1651 97.8214 57.1025C97.8214 58.0398 98.0494 58.7491 98.5054 59.2305C98.974 59.6991 99.525 59.9335 100.158 59.9335ZM107.159 61.8145V52.3905H109.325L109.553 54.1575C109.895 53.5495 110.357 53.0681 110.94 52.7135C111.535 52.3461 112.232 52.1625 113.03 52.1625V54.7275H112.346C111.814 54.7275 111.339 54.8098 110.921 54.9745C110.503 55.1391 110.173 55.4241 109.933 55.8295C109.705 56.2348 109.591 56.7985 109.591 57.5205V61.8145H107.159ZM119.276 61.8145V48.5145H127.864V50.4715H121.708V54.1955H126.686V56.1145H121.708V61.8145H119.276ZM132.135 62.0425C131.325 62.0425 130.66 61.9158 130.14 61.6625C129.621 61.3965 129.235 61.0481 128.981 60.6175C128.728 60.1868 128.601 59.7118 128.601 59.1925C128.601 58.3185 128.943 57.6091 129.627 57.0645C130.311 56.5198 131.337 56.2475 132.705 56.2475H135.099V56.0195C135.099 55.3735 134.916 54.8985 134.548 54.5945C134.181 54.2905 133.725 54.1385 133.18 54.1385C132.686 54.1385 132.256 54.2588 131.888 54.4995C131.521 54.7275 131.293 55.0695 131.204 55.5255H128.829C128.893 54.8415 129.121 54.2461 129.513 53.7395C129.919 53.2328 130.438 52.8465 131.071 52.5805C131.705 52.3018 132.414 52.1625 133.199 52.1625C134.542 52.1625 135.6 52.4981 136.372 53.1695C137.145 53.8408 137.531 54.7908 137.531 56.0195V61.8145H135.46L135.232 60.2945C134.954 60.8011 134.561 61.2191 134.054 61.5485C133.56 61.8778 132.921 62.0425 132.135 62.0425ZM132.686 60.1425C133.383 60.1425 133.921 59.9145 134.301 59.4585C134.694 59.0025 134.941 58.4388 135.042 57.7675H132.971C132.325 57.7675 131.863 57.8878 131.584 58.1285C131.306 58.3565 131.166 58.6415 131.166 58.9835C131.166 59.3508 131.306 59.6358 131.584 59.8385C131.863 60.0411 132.23 60.1425 132.686 60.1425ZM139.852 61.8145V48.1345H142.284V61.8145H139.852ZM148.664 62.0425C147.828 62.0425 147.094 61.9095 146.46 61.6435C145.827 61.3648 145.32 60.9848 144.94 60.5035C144.56 60.0221 144.332 59.4648 144.256 58.8315H146.707C146.783 59.1988 146.986 59.5155 147.315 59.7815C147.657 60.0348 148.094 60.1615 148.626 60.1615C149.158 60.1615 149.545 60.0538 149.785 59.8385C150.039 59.6231 150.165 59.3761 150.165 59.0975C150.165 58.6921 149.988 58.4198 149.633 58.2805C149.279 58.1285 148.785 57.9828 148.151 57.8435C147.746 57.7548 147.334 57.6471 146.916 57.5205C146.498 57.3938 146.112 57.2355 145.757 57.0455C145.415 56.8428 145.137 56.5895 144.921 56.2855C144.706 55.9688 144.598 55.5825 144.598 55.1265C144.598 54.2905 144.928 53.5875 145.586 53.0175C146.258 52.4475 147.195 52.1625 148.398 52.1625C149.513 52.1625 150.4 52.4221 151.058 52.9415C151.73 53.4608 152.129 54.1765 152.255 55.0885H149.956C149.817 54.3918 149.291 54.0435 148.379 54.0435C147.923 54.0435 147.569 54.1321 147.315 54.3095C147.075 54.4868 146.954 54.7085 146.954 54.9745C146.954 55.2531 147.138 55.4748 147.505 55.6395C147.873 55.8041 148.36 55.9561 148.968 56.0955C149.627 56.2475 150.229 56.4185 150.773 56.6085C151.331 56.7858 151.774 57.0581 152.103 57.4255C152.433 57.7801 152.597 58.2931 152.597 58.9645C152.61 59.5471 152.458 60.0728 152.141 60.5415C151.825 61.0101 151.369 61.3775 150.773 61.6435C150.178 61.9095 149.475 62.0425 148.664 62.0425ZM159.331 62.0425C158.381 62.0425 157.538 61.8398 156.804 61.4345C156.069 61.0291 155.493 60.4591 155.075 59.7245C154.657 58.9898 154.448 58.1411 154.448 57.1785C154.448 56.2031 154.65 55.3355 155.056 54.5755C155.474 53.8155 156.044 53.2265 156.766 52.8085C157.5 52.3778 158.362 52.1625 159.35 52.1625C160.274 52.1625 161.091 52.3651 161.801 52.7705C162.51 53.1758 163.061 53.7331 163.454 54.4425C163.859 55.1391 164.062 55.9181 164.062 56.7795C164.062 56.9188 164.055 57.0645 164.043 57.2165C164.043 57.3685 164.036 57.5268 164.024 57.6915H156.861C156.911 58.4261 157.165 59.0025 157.621 59.4205C158.089 59.8385 158.653 60.0475 159.312 60.0475C159.806 60.0475 160.217 59.9398 160.547 59.7245C160.889 59.4965 161.142 59.2051 161.307 58.8505H163.777C163.599 59.4458 163.302 59.9905 162.884 60.4845C162.478 60.9658 161.972 61.3458 161.364 61.6245C160.768 61.9031 160.091 62.0425 159.331 62.0425ZM159.35 54.1385C158.754 54.1385 158.229 54.3095 157.773 54.6515C157.317 54.9808 157.025 55.4875 156.899 56.1715H161.592C161.554 55.5508 161.326 55.0568 160.908 54.6895C160.49 54.3221 159.97 54.1385 159.35 54.1385Z" fill="white"/>
<path d="M92.8941 102.757C95.7362 102.757 98.0402 100.501 98.0402 97.7183C98.0402 94.9356 95.7362 92.6797 92.8941 92.6797C90.052 92.6797 87.748 94.9356 87.748 97.7183C87.748 100.501 90.052 102.757 92.8941 102.757Z" fill="#A0616A"/>
<path d="M91.0361 127.531C90.9713 127.531 90.9062 127.528 90.8408 127.522C90.5171 127.496 90.2028 127.403 89.9185 127.249C89.6342 127.095 89.3862 126.885 89.1909 126.631C88.9955 126.377 88.8572 126.085 88.785 125.775C88.7128 125.465 88.7083 125.143 88.7718 124.832C88.7868 124.759 88.8057 124.688 88.8283 124.617L81.2332 115.822C80.9857 115.533 80.8399 115.174 80.8175 114.797C80.7951 114.421 80.8972 114.047 81.1086 113.732L81.1224 113.716L87.9589 107.116C88.1448 106.936 88.3652 106.795 88.6073 106.699C88.8494 106.603 89.1084 106.556 89.3694 106.559C89.6304 106.562 89.8882 106.615 90.128 106.716C90.3677 106.817 90.5847 106.964 90.7662 107.148C90.9478 107.331 91.0904 107.548 91.1858 107.786C91.2812 108.024 91.3276 108.278 91.3222 108.534C91.3168 108.789 91.2597 109.041 91.1543 109.275C91.0489 109.509 90.8972 109.72 90.708 109.896L85.7565 114.505L91.1772 123.023C91.2798 123.029 91.382 123.041 91.4829 123.06C92.0436 123.17 92.5427 123.479 92.8833 123.929C93.2239 124.379 93.3816 124.936 93.326 125.494C93.2703 126.051 93.0051 126.568 92.5819 126.944C92.1588 127.321 91.6078 127.53 91.0361 127.531L91.0361 127.531Z" fill="#A0616A"/>
<path d="M101.368 167.842L103.936 167.842L105.158 158.141L101.367 158.141L101.368 167.842Z" fill="#A0616A"/>
<path d="M100.715 167.02L105.773 167.02H105.774C106.197 167.02 106.616 167.101 107.007 167.26C107.399 167.418 107.754 167.651 108.053 167.944C108.353 168.237 108.59 168.585 108.752 168.968C108.914 169.351 108.997 169.761 108.997 170.176V170.278L100.715 170.279L100.715 167.02Z" fill="#2F2E41"/>
<path d="M75.8398 164.363L78.0469 165.649L84.166 157.926L80.9086 156.027L75.8398 164.363Z" fill="#A0616A"/>
<path d="M75.7028 163.33L80.0494 165.864L80.0496 165.864C80.4133 166.076 80.7309 166.356 80.9841 166.689C81.2372 167.021 81.4211 167.399 81.5252 167.8C81.6292 168.202 81.6514 168.62 81.5905 169.03C81.5296 169.44 81.3868 169.835 81.1702 170.191L81.1166 170.279L74 166.13L75.7028 163.33Z" fill="#2F2E41"/>
<path d="M104.543 164.416H101.667C101.434 164.417 101.209 164.332 101.036 164.18C100.863 164.027 100.754 163.818 100.729 163.591L97.8296 136.902C97.8222 136.835 97.7926 136.772 97.7451 136.723C97.6976 136.674 97.635 136.641 97.5668 136.63C97.4987 136.62 97.4289 136.631 97.3681 136.663C97.3073 136.695 97.259 136.746 97.2306 136.808L91.9993 148.149L82.7376 162.936C82.6177 163.126 82.4321 163.267 82.2148 163.333C81.9974 163.4 81.7629 163.388 81.5541 163.299L77.8541 161.705C77.7318 161.652 77.6223 161.574 77.5329 161.477C77.4435 161.38 77.3763 161.265 77.3356 161.14C77.295 161.016 77.2819 160.884 77.2972 160.754C77.3125 160.624 77.3559 160.498 77.4244 160.386L85.9385 146.428L88.5497 134.667C87.7284 129.567 91.2491 121.984 91.2848 121.908L91.3023 121.871L101.888 117.725L101.937 117.783C108.228 125.301 107.204 143.731 105.483 163.57C105.462 163.801 105.354 164.015 105.18 164.171C105.006 164.328 104.779 164.415 104.543 164.416Z" fill="#2F2E41"/>
<path d="M90.9094 123.111L90.8642 123.018C90.8426 122.973 88.6862 118.52 87.0239 113.761C86.7045 112.841 86.5837 111.865 86.6693 110.897C86.7548 109.928 87.0449 108.988 87.5211 108.135C88.0034 107.273 88.6634 106.519 89.459 105.92C90.2547 105.321 91.1687 104.89 92.1432 104.655C93.8351 104.258 95.6163 104.469 97.1624 105.25C98.7084 106.031 99.9165 107.33 100.566 108.91C101.885 112.139 102.353 115.15 101.958 117.86L101.95 117.914L101.899 117.938L90.9094 123.111Z" fill="#5B59E3"/>
<path d="M109.017 130.337C108.798 130.605 108.522 130.822 108.208 130.973C107.893 131.123 107.549 131.204 107.199 131.209C106.88 131.213 106.563 131.154 106.268 131.036C105.972 130.917 105.704 130.741 105.48 130.519C105.256 130.296 105.08 130.032 104.963 129.741C104.845 129.45 104.789 129.139 104.798 128.827C104.802 128.713 104.814 128.599 104.836 128.486L94.7026 110.008C94.57 109.8 94.4807 109.569 94.4397 109.327C94.3987 109.086 94.4069 108.839 94.4638 108.601C94.5206 108.362 94.6251 108.137 94.771 107.939C94.917 107.74 95.1017 107.571 95.3144 107.443C95.5271 107.314 95.7637 107.228 96.0105 107.189C96.2574 107.151 96.5096 107.16 96.7527 107.217C96.9958 107.274 97.225 107.378 97.4271 107.522C97.6291 107.666 97.8002 107.848 97.9302 108.057L107.829 126.665C108.203 126.771 108.544 126.966 108.822 127.232C109.101 127.498 109.308 127.827 109.425 128.191C109.542 128.554 109.567 128.939 109.495 129.314C109.424 129.688 109.26 130.04 109.017 130.337V130.337Z" fill="#A0616A"/>
<path d="M99.1303 94.8703H90.959V91.3828C92.7525 90.6851 94.5076 90.0918 95.5685 91.3828C96.5131 91.3828 97.4191 91.7502 98.0871 92.4042C98.7551 93.0583 99.1303 93.9453 99.1303 94.8703Z" fill="#2F2E41"/>
<path d="M90.5062 90.7676C85.6212 90.7676 84.2539 96.7629 84.2539 100.145C84.2539 102.031 85.1251 102.706 86.4942 102.934L86.9777 100.409L88.1101 103.043C88.4947 103.045 88.8987 103.038 89.3175 103.03L89.7015 102.256L90.5577 103.016C93.9868 103.021 96.7584 103.51 96.7584 100.145C96.7584 96.7629 95.5593 90.7676 90.5062 90.7676Z" fill="#2F2E41"/>
<path d="M116.9 92.877C116.978 92.8769 117.054 92.8536 117.119 92.81C117.184 92.7663 117.234 92.7043 117.263 92.6319C117.293 92.5595 117.3 92.48 117.284 92.4035C117.268 92.3271 117.229 92.2571 117.173 92.2027L112.437 87.6049L117.484 82.7453C117.559 82.6731 117.602 82.5741 117.604 82.4701C117.606 82.366 117.567 82.2655 117.495 82.1905C117.423 82.1156 117.324 82.0723 117.219 82.0704C117.115 82.0684 117.015 82.1079 116.94 82.1801L111.873 87.0578L107.23 82.5518C107.193 82.5159 107.15 82.4876 107.102 82.4686C107.054 82.4496 107.003 82.4402 106.951 82.441C106.9 82.4417 106.849 82.4527 106.801 82.4731C106.754 82.4935 106.711 82.5231 106.675 82.56C106.639 82.597 106.611 82.6407 106.592 82.6886C106.573 82.7365 106.564 82.7877 106.564 82.8393C106.565 82.8908 106.576 82.9417 106.597 82.989C106.617 83.0363 106.647 83.0791 106.684 83.115L111.307 87.6025L106.685 92.0534C106.61 92.1256 106.567 92.2246 106.565 92.3286C106.563 92.4327 106.602 92.5332 106.674 92.6082C106.746 92.6832 106.845 92.7264 106.95 92.7283C107.054 92.7303 107.154 92.6908 107.229 92.6187L111.871 88.1497L116.626 92.7659C116.699 92.8374 116.797 92.8772 116.9 92.877Z" fill="#F12587"/>
<path d="M135.961 108.204C138.085 106.046 139.271 103.136 139.26 100.107C139.257 97.0338 138.034 94.0873 135.861 91.914C133.688 89.7407 130.742 88.5181 127.669 88.5142C126.276 88.5111 124.895 88.7625 123.593 89.2561C123.649 88.7978 123.678 88.3364 123.678 87.8746C123.679 85.9736 123.212 84.1017 122.319 82.4236C121.426 80.7455 120.134 79.3128 118.556 78.2517C116.979 77.1906 115.165 76.5335 113.274 76.3385C111.383 76.1435 109.474 76.4165 107.713 77.1333C105.952 77.8502 104.395 78.9891 103.178 80.4495C101.962 81.91 101.123 83.6473 100.735 85.5083C100.348 87.3694 100.424 89.2972 100.958 91.1218C101.491 92.9464 102.464 94.6119 103.793 95.9717L101.51 98.8253C101.465 98.8831 101.436 98.9527 101.428 99.026C101.42 99.0993 101.432 99.1734 101.464 99.2399C101.496 99.3064 101.546 99.3625 101.609 99.4019C101.671 99.4413 101.743 99.4623 101.817 99.4626L111.385 99.4421C111.617 99.4545 111.848 99.4626 112.084 99.4626C113.478 99.4647 114.861 99.2129 116.165 98.7195C116.108 99.1796 116.079 99.6427 116.079 100.106C116.082 103.18 117.303 106.126 119.476 108.3C121.649 110.473 124.595 111.696 127.669 111.7C127.905 111.7 128.14 111.688 128.346 111.676L137.939 111.7C138.013 111.7 138.086 111.679 138.149 111.64C138.211 111.601 138.261 111.544 138.293 111.478C138.326 111.411 138.338 111.337 138.33 111.263C138.321 111.19 138.292 111.12 138.246 111.062L135.961 108.204ZM111.406 98.658L102.635 98.6761L104.626 96.1865C104.687 96.11 104.717 96.0136 104.711 95.916C104.705 95.8184 104.662 95.7266 104.592 95.6587C103.306 94.4199 102.346 92.8818 101.8 91.1817C101.253 89.4816 101.137 87.6726 101.461 85.9164C101.784 84.1602 102.538 82.5116 103.655 81.118C104.771 79.7244 106.216 78.6292 107.859 77.9304C109.502 77.2316 111.293 76.9509 113.072 77.1135C114.85 77.2761 116.56 77.8768 118.05 78.862C119.539 79.8472 120.761 81.1861 121.607 82.7591C122.452 84.3321 122.894 86.09 122.894 87.8758C122.895 88.4577 122.848 89.0386 122.752 89.6126C122.671 89.6528 122.591 89.693 122.51 89.7333C122.413 89.7816 122.316 89.8286 122.22 89.8793C122.108 89.9389 121.999 90.0024 121.89 90.0652C121.798 90.1179 121.705 90.1698 121.615 90.2261C121.506 90.2929 121.4 90.3637 121.293 90.4337C121.207 90.4904 121.12 90.546 121.035 90.6051C120.929 90.6791 120.826 90.7572 120.722 90.8348C120.642 90.8952 120.562 90.9555 120.481 91.0163C120.378 91.0967 120.28 91.184 120.177 91.2689C120.103 91.3321 120.027 91.3933 119.954 91.458C119.853 91.5481 119.756 91.6431 119.658 91.7368C119.59 91.8012 119.521 91.8632 119.456 91.9291C119.353 92.0325 119.255 92.1404 119.157 92.247C119.101 92.3077 119.042 92.3677 118.988 92.428C118.862 92.57 118.741 92.7165 118.623 92.8649C118.566 92.9353 118.511 93.007 118.456 93.079C118.351 93.217 118.246 93.3558 118.147 93.4982C118.089 93.5823 118.036 93.6692 117.98 93.7545C117.911 93.8595 117.841 93.9629 117.775 94.0699C117.717 94.1664 117.663 94.2658 117.607 94.3644C117.551 94.463 117.492 94.5619 117.438 94.6633C117.384 94.7647 117.333 94.8737 117.281 94.9791C117.232 95.0785 117.181 95.1767 117.135 95.2773C117.085 95.3859 117.041 95.4965 116.995 95.6068C116.952 95.7081 116.908 95.8079 116.869 95.9105C116.825 96.0228 116.788 96.1366 116.748 96.2501C116.712 96.3539 116.674 96.4569 116.641 96.5619C116.604 96.6765 116.572 96.7928 116.539 96.9087C116.509 97.0157 116.477 97.1219 116.449 97.2305C116.42 97.346 116.395 97.4627 116.369 97.5793C116.351 97.6598 116.329 97.7403 116.314 97.8207C114.979 98.3911 113.541 98.6837 112.089 98.6805C111.863 98.6781 111.645 98.67 111.406 98.658ZM128.326 110.891C128.111 110.903 127.889 110.915 127.668 110.915C124.803 110.911 122.056 109.771 120.031 107.745C118.006 105.718 116.867 102.971 116.865 100.106C116.863 99.4545 116.923 98.804 117.044 98.1635C117.122 97.7283 117.227 97.2984 117.358 96.8761C117.423 96.6666 117.494 96.4597 117.572 96.2553C118.51 93.7884 120.321 91.7516 122.661 90.5311C122.857 90.4284 123.057 90.3315 123.261 90.2406C124.645 89.615 126.148 89.294 127.667 89.2992C130.532 89.3019 133.28 90.4414 135.306 92.4674C137.333 94.4935 138.473 97.2407 138.476 100.106C138.481 101.561 138.19 103.001 137.62 104.34C137.05 105.678 136.214 106.887 135.162 107.891C135.091 107.959 135.049 108.051 135.042 108.149C135.036 108.246 135.066 108.343 135.127 108.419L137.122 110.914L128.326 110.891Z" fill="white"/>
<path d="M132.124 96.3764L125.337 103.958L123.216 101.574C123.181 101.536 123.14 101.504 123.093 101.482C123.047 101.46 122.996 101.447 122.945 101.444C122.893 101.441 122.842 101.448 122.793 101.465C122.744 101.482 122.699 101.508 122.661 101.543C122.622 101.577 122.591 101.618 122.568 101.665C122.546 101.711 122.533 101.762 122.53 101.813C122.527 101.865 122.534 101.916 122.551 101.965C122.568 102.014 122.595 102.059 122.629 102.097L125.043 104.809C125.08 104.85 125.125 104.883 125.175 104.906C125.226 104.929 125.28 104.941 125.336 104.941C125.391 104.941 125.446 104.929 125.496 104.907C125.546 104.884 125.591 104.851 125.628 104.81L132.71 96.9002C132.775 96.8219 132.806 96.7218 132.799 96.6207C132.791 96.5195 132.745 96.4253 132.669 96.3578C132.593 96.2902 132.495 96.2544 132.393 96.2581C132.292 96.2617 132.196 96.3044 132.125 96.3772L132.124 96.3764Z" fill="#5B59E3"/>
<defs>
<filter id="filter0_d" x="0" y="18.5762" width="214" height="217.559" filterUnits="userSpaceOnUse" color-interpolation-filters="sRGB">
<feFlood flood-opacity="0" result="BackgroundImageFix"/>
<feColorMatrix in="SourceAlpha" type="matrix" values="0 0 0 0 0 0 0 0 0 0 0 0 0 0 0 0 0 0 127 0"/>
<feOffset dy="1"/>
<feGaussianBlur stdDeviation="1"/>
<feColorMatrix type="matrix" values="0 0 0 0 0.0588235 0 0 0 0 0.0588235 0 0 0 0 0.0588235 0 0 0 0.1 0"/>
<feBlend mode="normal" in2="BackgroundImageFix" result="effect1_dropShadow"/>
<feBlend mode="normal" in="SourceGraphic" in2="effect1_dropShadow" result="shape"/>
</filter>
</defs>
</svg>
