<svg width="60" height="69" viewBox="0 0 60 69" fill="none" xmlns="http://www.w3.org/2000/svg">
<path d="M6.13044 64.192C5.36244 64.192 4.66377 64.0427 4.03444 63.744C3.41577 63.4347 2.91977 62.96 2.54644 62.32C2.1731 61.68 1.98644 60.864 1.98644 59.872V52.8H3.33044V59.888C3.33044 60.976 3.59177 61.7653 4.11444 62.256C4.6371 62.7467 5.31977 62.992 6.16244 62.992C7.0051 62.992 7.68244 62.7467 8.19444 62.256C8.70644 61.7653 8.96244 60.976 8.96244 59.888V52.8H10.3064V59.872C10.3064 60.864 10.1198 61.68 9.74644 62.32C9.3731 62.96 8.87177 63.4347 8.24244 63.744C7.6131 64.0427 6.9091 64.192 6.13044 64.192ZM12.5024 64V56.064H13.7184L13.7984 57.488C14.0544 56.9867 14.4224 56.592 14.9024 56.304C15.3824 56.016 15.9264 55.872 16.5344 55.872C17.4731 55.872 18.2198 56.16 18.7744 56.736C19.3398 57.3013 19.6224 58.176 19.6224 59.36V64H18.2784V59.504C18.2784 57.8507 17.5958 57.024 16.2304 57.024C15.5478 57.024 14.9771 57.2747 14.5184 57.776C14.0704 58.2667 13.8464 58.9707 13.8464 59.888V64H12.5024ZM21.6587 64V56.064H22.8747L22.9707 57.216C23.2267 56.7893 23.568 56.4587 23.9947 56.224C24.4214 55.9893 24.9014 55.872 25.4347 55.872C26.064 55.872 26.6027 56 27.0507 56.256C27.5094 56.512 27.8614 56.9013 28.1067 57.424C28.384 56.944 28.7627 56.5653 29.2427 56.288C29.7334 56.0107 30.2614 55.872 30.8267 55.872C31.776 55.872 32.5334 56.16 33.0987 56.736C33.664 57.3013 33.9467 58.176 33.9467 59.36V64H32.6187V59.504C32.6187 58.6827 32.4534 58.064 32.1227 57.648C31.792 57.232 31.3174 57.024 30.6987 57.024C30.0587 57.024 29.5254 57.2747 29.0987 57.776C28.6827 58.2667 28.4747 58.9707 28.4747 59.888V64H27.1307V59.504C27.1307 58.6827 26.9654 58.064 26.6347 57.648C26.304 57.232 25.8294 57.024 25.2107 57.024C24.5814 57.024 24.0534 57.2747 23.6267 57.776C23.2107 58.2667 23.0027 58.9707 23.0027 59.888V64H21.6587ZM38.8672 64.192C37.9285 64.192 37.1819 63.9093 36.6272 63.344C36.0725 62.768 35.7952 61.888 35.7952 60.704V56.064H37.1392V60.56C37.1392 62.2133 37.8165 63.04 39.1712 63.04C39.8645 63.04 40.4352 62.7947 40.8832 62.304C41.3419 61.8027 41.5712 61.0933 41.5712 60.176V56.064H42.9152V64H41.6992L41.6032 62.576C41.3579 63.0773 40.9899 63.472 40.4992 63.76C40.0192 64.048 39.4752 64.192 38.8672 64.192ZM48.2634 64C47.5381 64 46.9674 63.824 46.5514 63.472C46.1354 63.12 45.9274 62.4853 45.9274 61.568V57.2H44.5514V56.064H45.9274L46.1034 54.16H47.2714V56.064H49.6074V57.2H47.2714V61.568C47.2714 62.0693 47.3728 62.4107 47.5754 62.592C47.7781 62.7627 48.1354 62.848 48.6474 62.848H49.4794V64H48.2634ZM54.6642 64.192C53.9069 64.192 53.2349 64.0213 52.6482 63.68C52.0615 63.328 51.5975 62.8427 51.2562 62.224C50.9255 61.6053 50.7602 60.8747 50.7602 60.032C50.7602 59.2 50.9255 58.4747 51.2562 57.856C51.5869 57.2267 52.0455 56.7413 52.6322 56.4C53.2295 56.048 53.9175 55.872 54.6962 55.872C55.4642 55.872 56.1255 56.048 56.6802 56.4C57.2455 56.7413 57.6775 57.1947 57.9762 57.76C58.2749 58.3253 58.4242 58.9333 58.4242 59.584C58.4242 59.7013 58.4189 59.8187 58.4082 59.936C58.4082 60.0533 58.4082 60.1867 58.4082 60.336H52.0882C52.1202 60.944 52.2589 61.4507 52.5042 61.856C52.7602 62.2507 53.0749 62.5493 53.4482 62.752C53.8322 62.9547 54.2375 63.056 54.6642 63.056C55.2189 63.056 55.6829 62.928 56.0562 62.672C56.4295 62.416 56.7015 62.0693 56.8722 61.632H58.2002C57.9869 62.368 57.5762 62.9813 56.9682 63.472C56.3709 63.952 55.6029 64.192 54.6642 64.192ZM54.6642 57.008C54.0242 57.008 53.4535 57.2053 52.9522 57.6C52.4615 57.984 52.1789 58.5493 52.1042 59.296H57.0962C57.0642 58.5813 56.8189 58.0213 56.3602 57.616C55.9015 57.2107 55.3362 57.008 54.6642 57.008Z" fill="#696D91"/>
<g filter="url(#filter0_d)">
<rect x="6" width="48" height="45.3333" rx="18" fill="#6C63FF"/>
</g>
<path d="M29.9991 28.1841C32.5118 28.1841 34.5334 26.1625 34.5334 23.6498V15.5343C34.5334 13.0217 32.5118 11 29.9991 11C27.4865 11 25.4648 13.0217 25.4648 15.5343V23.6498C25.4648 26.1625 27.4865 28.1841 29.9991 28.1841ZM26.6201 15.5343C26.6201 13.657 28.1219 12.1552 29.9991 12.1552C31.8764 12.1552 33.3782 13.657 33.3782 15.5343V23.6498C33.3782 25.5271 31.8764 27.0289 29.9991 27.0289C28.1219 27.0289 26.6201 25.5271 26.6201 23.6498V15.5343Z" fill="white"/>
<path d="M37.4224 23.1289C37.7401 23.1289 38 23.3888 38 23.7065C38 27.8365 34.7076 31.2444 30.5776 31.36V34.508H29.4224V31.36C25.2924 31.2444 22 27.8365 22 23.7065C22 23.3888 22.2599 23.1289 22.5776 23.1289C22.8953 23.1289 23.1552 23.3888 23.1552 23.7065C23.1552 27.2878 26.0722 30.2047 29.6534 30.2336H30.3466C33.9278 30.2047 36.8448 27.2878 36.8448 23.7065C36.8448 23.3888 37.1047 23.1289 37.4224 23.1289Z" fill="white"/>
<path d="M15.6451 35.1017L15.2915 35.4553L15.6451 35.8088L17.4836 37.6473L17.8371 38.0008L18.1907 37.6473L43.6465 12.1914L44.0001 11.8379L43.6465 11.4843L41.808 9.64586L41.4545 9.29231L41.1009 9.64586L15.6451 35.1017Z" fill="#FF0000" stroke="#6C63FF"/>
<rect x="6" width="48" height="45.3333" rx="18" fill="white" fill-opacity="0.5"/>
<defs>
<filter id="filter0_d" x="2" y="0" width="56" height="53.3333" filterUnits="userSpaceOnUse" color-interpolation-filters="sRGB">
<feFlood flood-opacity="0" result="BackgroundImageFix"/>
<feColorMatrix in="SourceAlpha" type="matrix" values="0 0 0 0 0 0 0 0 0 0 0 0 0 0 0 0 0 0 127 0"/>
<feOffset dy="4"/>
<feGaussianBlur stdDeviation="2"/>
<feColorMatrix type="matrix" values="0 0 0 0 0.0588235 0 0 0 0 0.0588235 0 0 0 0 0.0588235 0 0 0 0.1 0"/>
<feBlend mode="normal" in2="BackgroundImageFix" result="effect1_dropShadow"/>
<feBlend mode="normal" in="SourceGraphic" in2="effect1_dropShadow" result="shape"/>
</filter>
</defs>
</svg>
