<svg width="88" height="85" viewBox="0 0 88 85" fill="none" xmlns="http://www.w3.org/2000/svg">
<g filter="url(#filter0_d)">
<g filter="url(#filter1_d)">
<rect x="4" y="1" width="80" height="75.5556" rx="25" fill="#F12587"/>
</g>
<path fill-rule="evenodd" clip-rule="evenodd" d="M46.667 16.1111C31.947 16.1111 18.667 22.0578 18.667 36.7778C18.667 51.4978 29.2537 66.7778 43.9737 66.7778C58.6231 66.7778 79.7199 43.0934 63.0049 27.749C62.6324 27.1772 62.2347 26.6233 61.8135 26.0889C61.8103 26.0836 61.807 26.0782 61.8038 26.0729L61.8038 26.0728C60.9543 24.671 60.4894 23.9036 58.1635 22.4099C56.2822 20.903 54.1553 19.6899 51.8521 18.84C50.3884 18.0592 48.6766 17.1596 46.667 16.1111ZM51.8521 18.84C49.4059 17.9374 46.7609 17.4445 44.0003 17.4445C31.477 17.4445 21.3337 27.5878 21.3337 40.1111C21.3337 52.6345 31.477 62.7778 44.0003 62.7778C56.5237 62.7778 66.667 52.6345 66.667 40.1111C66.667 35.5496 65.3213 31.3038 63.0049 27.749C62.894 27.6471 62.7813 27.5456 62.667 27.4445C62.3195 26.9232 62.0512 26.4812 61.8135 26.0889C60.7409 24.728 59.5157 23.493 58.1635 22.4099C56.8221 21.5485 54.8619 20.4455 51.8521 18.84ZM34.667 29.4445C32.4579 29.4445 30.667 31.2353 30.667 33.4445C30.667 35.6536 32.4579 37.4445 34.667 37.4445C36.8761 37.4445 38.667 35.6536 38.667 33.4445C38.667 31.2353 36.8761 29.4445 34.667 29.4445ZM53.3337 29.4445C51.1245 29.4445 49.3337 31.2353 49.3337 33.4445C49.3337 35.6536 51.1245 37.4445 53.3337 37.4445C55.5428 37.4445 57.3337 35.6536 57.3337 33.4445C57.3337 31.2353 55.5428 29.4445 53.3337 29.4445ZM34.8003 45.4445C36.667 48.6178 40.0537 50.7778 44.0003 50.7778C47.947 50.7778 51.3337 48.6178 53.2003 45.4445H57.6537C55.5203 50.9111 50.2137 54.7778 44.0003 54.7778C37.787 54.7778 32.4803 50.9111 30.347 45.4445H34.8003Z" fill="white"/>
<path d="M64.889 14.7761L68.185 17.0556L67.3103 12.7595L70.2223 9.8689L66.3877 9.49613L64.889 5.44446L63.3903 9.49613L59.5557 9.8689L62.4677 12.7595L61.593 17.0556L64.889 14.7761Z" fill="#FFE816"/>
<path d="M54.6668 20.9983L57.9628 23.2777L57.0882 18.9816L60.0002 16.0911L56.1655 15.7183L54.6668 11.6666L53.1682 15.7183L49.3335 16.0911L52.2455 18.9816L51.3708 23.2777L54.6668 20.9983Z" fill="#FFE816"/>
<path d="M63.5555 27.2205L66.8515 29.5L65.9768 25.2039L68.8888 22.3133L65.0542 21.9405L63.5555 17.8889L62.0568 21.9405L58.2222 22.3133L61.1342 25.2039L60.2595 29.5L63.5555 27.2205Z" fill="#FFE816"/>
</g>
<defs>
<filter id="filter0_d" x="0" y="1" width="88" height="83.5556" filterUnits="userSpaceOnUse" color-interpolation-filters="sRGB">
<feFlood flood-opacity="0" result="BackgroundImageFix"/>
<feColorMatrix in="SourceAlpha" type="matrix" values="0 0 0 0 0 0 0 0 0 0 0 0 0 0 0 0 0 0 127 0"/>
<feOffset dy="4"/>
<feGaussianBlur stdDeviation="2"/>
<feColorMatrix type="matrix" values="0 0 0 0 0 0 0 0 0 0 0 0 0 0 0 0 0 0 0.25 0"/>
<feBlend mode="normal" in2="BackgroundImageFix" result="effect1_dropShadow"/>
<feBlend mode="normal" in="SourceGraphic" in2="effect1_dropShadow" result="shape"/>
</filter>
<filter id="filter1_d" x="2" y="0" width="84" height="79.5556" filterUnits="userSpaceOnUse" color-interpolation-filters="sRGB">
<feFlood flood-opacity="0" result="BackgroundImageFix"/>
<feColorMatrix in="SourceAlpha" type="matrix" values="0 0 0 0 0 0 0 0 0 0 0 0 0 0 0 0 0 0 127 0"/>
<feOffset dy="1"/>
<feGaussianBlur stdDeviation="1"/>
<feColorMatrix type="matrix" values="0 0 0 0 0.0588235 0 0 0 0 0.0588235 0 0 0 0 0.0588235 0 0 0 0.1 0"/>
<feBlend mode="normal" in2="BackgroundImageFix" result="effect1_dropShadow"/>
<feBlend mode="normal" in="SourceGraphic" in2="effect1_dropShadow" result="shape"/>
</filter>
</defs>
</svg>
