<svg width="240" height="260" viewBox="0 0 240 260" fill="none" xmlns="http://www.w3.org/2000/svg">
<g filter="url(#filter0_d)">
<rect x="2" y="21.9023" width="236" height="234.99" rx="20" fill="#DB61CF"/>
</g>
<path fill-rule="evenodd" clip-rule="evenodd" d="M221 28.7559C216.032 28.7559 212 32.7037 212 37.568C212 42.4322 216.032 46.3801 221 46.3801C225.968 46.3801 230 42.4322 230 37.568C230 32.7037 225.968 28.7559 221 28.7559ZM220.1 33.1619V34.9243H221.9V33.1619H220.1ZM220.1 36.6868V41.974H221.9V36.6868H220.1ZM213.8 37.568C213.8 41.4541 217.031 44.6177 221 44.6177C224.969 44.6177 228.2 41.4541 228.2 37.568C228.2 33.6818 224.969 30.5183 221 30.5183C217.031 30.5183 213.8 33.6818 213.8 37.568Z" fill="white"/>
<path d="M37 10.3613C37 4.83848 41.4772 0.361328 47 0.361328H193C198.523 0.361328 203 4.83848 203 10.3613V21.902H37V10.3613Z" fill="#F12587"/>
<path d="M102.906 16.5123C101.85 16.5123 100.927 16.2723 100.138 15.7923C99.3485 15.3123 98.7352 14.6456 98.2979 13.7923C97.8605 12.9283 97.6419 11.9256 97.6419 10.7843C97.6419 9.63231 97.8659 8.61898 98.3139 7.74431C98.7725 6.85898 99.4179 6.17098 100.25 5.68031C101.093 5.17898 102.09 4.92831 103.242 4.92831C104.554 4.92831 105.642 5.24298 106.506 5.87231C107.37 6.50165 107.93 7.37098 108.186 8.48031H105.898C105.727 7.95765 105.418 7.55231 104.97 7.26431C104.522 6.96565 103.946 6.81631 103.242 6.81631C102.122 6.81631 101.258 7.17365 100.65 7.88831C100.042 8.59231 99.7379 9.56298 99.7379 10.8003C99.7379 12.0376 100.037 12.9976 100.634 13.6803C101.242 14.3523 102.063 14.6883 103.098 14.6883C104.111 14.6883 104.874 14.4163 105.386 13.8723C105.909 13.3176 106.223 12.5923 106.33 11.6963H103.498V10.1603H108.394V16.3203H106.506L106.346 14.8483C105.983 15.3816 105.53 15.7923 104.986 16.0803C104.442 16.3683 103.749 16.5123 102.906 16.5123ZM113.073 16.5123C112.39 16.5123 111.83 16.4056 111.393 16.1923C110.956 15.9683 110.63 15.675 110.417 15.3123C110.204 14.9496 110.097 14.5496 110.097 14.1123C110.097 13.3763 110.385 12.779 110.961 12.3203C111.537 11.8616 112.401 11.6323 113.553 11.6323H115.569V11.4403C115.569 10.8963 115.414 10.4963 115.105 10.2403C114.796 9.98431 114.412 9.85631 113.953 9.85631C113.537 9.85631 113.174 9.95765 112.865 10.1603C112.556 10.3523 112.364 10.6403 112.289 11.0243H110.289C110.342 10.4483 110.534 9.94698 110.865 9.52031C111.206 9.09365 111.644 8.76831 112.177 8.54431C112.71 8.30965 113.308 8.19231 113.969 8.19231C115.1 8.19231 115.99 8.47498 116.641 9.04031C117.292 9.60565 117.617 10.4056 117.617 11.4403V16.3203H115.873L115.681 15.0403C115.446 15.467 115.116 15.819 114.689 16.0963C114.273 16.3736 113.734 16.5123 113.073 16.5123ZM113.537 14.9123C114.124 14.9123 114.577 14.7203 114.897 14.3363C115.228 13.9523 115.436 13.4776 115.521 12.9123H113.777C113.233 12.9123 112.844 13.0136 112.609 13.2163C112.374 13.4083 112.257 13.6483 112.257 13.9363C112.257 14.2456 112.374 14.4856 112.609 14.6563C112.844 14.827 113.153 14.9123 113.537 14.9123ZM119.571 16.3203V8.38431H121.379L121.555 9.45631C121.811 9.07231 122.147 8.76831 122.563 8.54431C122.99 8.30965 123.481 8.19231 124.035 8.19231C125.262 8.19231 126.131 8.66698 126.643 9.61631C126.931 9.17898 127.315 8.83231 127.795 8.57631C128.286 8.32031 128.819 8.19231 129.395 8.19231C130.43 8.19231 131.225 8.50165 131.779 9.12031C132.334 9.73898 132.611 10.6456 132.611 11.8403V16.3203H130.563V12.0323C130.563 11.3496 130.43 10.827 130.163 10.4643C129.907 10.1016 129.507 9.92031 128.963 9.92031C128.409 9.92031 127.961 10.123 127.619 10.5283C127.289 10.9336 127.123 11.499 127.123 12.2243V16.3203H125.075V12.0323C125.075 11.3496 124.942 10.827 124.675 10.4643C124.409 10.1016 123.998 9.92031 123.443 9.92031C122.899 9.92031 122.457 10.123 122.115 10.5283C121.785 10.9336 121.619 11.499 121.619 12.2243V16.3203H119.571ZM138.412 16.5123C137.612 16.5123 136.902 16.3416 136.284 16.0003C135.665 15.659 135.18 15.179 134.828 14.5603C134.476 13.9416 134.3 13.227 134.3 12.4163C134.3 11.595 134.47 10.8643 134.812 10.2243C135.164 9.58431 135.644 9.08831 136.252 8.73631C136.87 8.37365 137.596 8.19231 138.428 8.19231C139.206 8.19231 139.894 8.36298 140.492 8.70431C141.089 9.04565 141.553 9.51498 141.884 10.1123C142.225 10.699 142.396 11.355 142.396 12.0803C142.396 12.1976 142.39 12.3203 142.38 12.4483C142.38 12.5763 142.374 12.7096 142.364 12.8483H136.332C136.374 13.467 136.588 13.9523 136.972 14.3043C137.366 14.6563 137.841 14.8323 138.396 14.8323C138.812 14.8323 139.158 14.7416 139.436 14.5603C139.724 14.3683 139.937 14.123 140.076 13.8243H142.156C142.006 14.3256 141.756 14.7843 141.404 15.2003C141.062 15.6056 140.636 15.9256 140.124 16.1603C139.622 16.395 139.052 16.5123 138.412 16.5123ZM138.428 9.85631C137.926 9.85631 137.484 10.0003 137.1 10.2883C136.716 10.5656 136.47 10.9923 136.364 11.5683H140.316C140.284 11.0456 140.092 10.6296 139.74 10.3203C139.388 10.011 138.95 9.85631 138.428 9.85631Z" fill="white"/>
<path d="M92.0743 59.5684L85.9303 42.7684H89.2183L93.9703 56.4244L98.7463 42.7684H101.986L95.8423 59.5684H92.0743ZM108.194 59.8564C107.042 59.8564 106.002 59.5924 105.074 59.0644C104.162 58.5364 103.434 57.8084 102.89 56.8804C102.362 55.9364 102.098 54.8484 102.098 53.6164C102.098 52.3844 102.37 51.3044 102.914 50.3764C103.458 49.4324 104.186 48.6964 105.098 48.1684C106.026 47.6404 107.066 47.3764 108.218 47.3764C109.354 47.3764 110.378 47.6404 111.29 48.1684C112.218 48.6964 112.946 49.4324 113.474 50.3764C114.018 51.3044 114.29 52.3844 114.29 53.6164C114.29 54.8484 114.018 55.9364 113.474 56.8804C112.946 57.8084 112.218 58.5364 111.29 59.0644C110.362 59.5924 109.33 59.8564 108.194 59.8564ZM108.194 57.1924C108.994 57.1924 109.69 56.8964 110.282 56.3044C110.874 55.6964 111.17 54.8004 111.17 53.6164C111.17 52.4324 110.874 51.5444 110.282 50.9524C109.69 50.3444 109.002 50.0404 108.218 50.0404C107.402 50.0404 106.698 50.3444 106.106 50.9524C105.53 51.5444 105.242 52.4324 105.242 53.6164C105.242 54.8004 105.53 55.6964 106.106 56.3044C106.698 56.8964 107.394 57.1924 108.194 57.1924ZM118.943 59.5684L115.463 47.6644H118.511L120.575 56.2324L122.975 47.6644H126.383L128.783 56.2324L130.871 47.6644H133.919L130.415 59.5684H127.223L124.679 50.6644L122.135 59.5684H118.943ZM141.219 59.8564C140.019 59.8564 138.955 59.6004 138.027 59.0884C137.099 58.5764 136.371 57.8564 135.843 56.9284C135.315 56.0004 135.051 54.9284 135.051 53.7124C135.051 52.4804 135.307 51.3844 135.819 50.4244C136.347 49.4644 137.067 48.7204 137.979 48.1924C138.907 47.6484 139.995 47.3764 141.243 47.3764C142.411 47.3764 143.443 47.6324 144.339 48.1444C145.235 48.6564 145.931 49.3604 146.427 50.2564C146.939 51.1364 147.195 52.1204 147.195 53.2084C147.195 53.3844 147.187 53.5684 147.171 53.7604C147.171 53.9524 147.163 54.1524 147.147 54.3604H138.099C138.163 55.2884 138.483 56.0164 139.059 56.5444C139.651 57.0724 140.363 57.3364 141.195 57.3364C141.819 57.3364 142.339 57.2004 142.755 56.9284C143.187 56.6404 143.507 56.2724 143.715 55.8244H146.835C146.611 56.5764 146.235 57.2644 145.707 57.8884C145.195 58.4964 144.555 58.9764 143.787 59.3284C143.035 59.6804 142.179 59.8564 141.219 59.8564ZM141.243 49.8724C140.491 49.8724 139.827 50.0884 139.251 50.5204C138.675 50.9364 138.307 51.5764 138.147 52.4404H144.075C144.027 51.6564 143.739 51.0324 143.211 50.5684C142.683 50.1044 142.027 49.8724 141.243 49.8724ZM149.779 59.5684V42.2884H152.851V59.5684H149.779ZM59.7804 90.5684V73.7684H63.4284L68.7804 84.4244L74.0604 73.7684H77.7084V90.5684H74.6364V78.9764L69.9564 88.1684H67.5324L62.8524 78.9764V90.5684H59.7804ZM86.6079 90.8564C85.4559 90.8564 84.4159 90.5924 83.4879 90.0644C82.5759 89.5364 81.8479 88.8084 81.3039 87.8804C80.7759 86.9364 80.5119 85.8484 80.5119 84.6164C80.5119 83.3844 80.7839 82.3044 81.3279 81.3764C81.8719 80.4324 82.5999 79.6964 83.5119 79.1684C84.4399 78.6404 85.4799 78.3764 86.6319 78.3764C87.7679 78.3764 88.7919 78.6404 89.7039 79.1684C90.6319 79.6964 91.3599 80.4324 91.8879 81.3764C92.4319 82.3044 92.7039 83.3844 92.7039 84.6164C92.7039 85.8484 92.4319 86.9364 91.8879 87.8804C91.3599 88.8084 90.6319 89.5364 89.7039 90.0644C88.7759 90.5924 87.7439 90.8564 86.6079 90.8564ZM86.6079 88.1924C87.4079 88.1924 88.1039 87.8964 88.6959 87.3044C89.2879 86.6964 89.5839 85.8004 89.5839 84.6164C89.5839 83.4324 89.2879 82.5444 88.6959 81.9524C88.1039 81.3444 87.4159 81.0404 86.6319 81.0404C85.8159 81.0404 85.1119 81.3444 84.5199 81.9524C83.9439 82.5444 83.6559 83.4324 83.6559 84.6164C83.6559 85.8004 83.9439 86.6964 84.5199 87.3044C85.1119 87.8964 85.8079 88.1924 86.6079 88.1924ZM98.0807 90.5684L93.7127 78.6644H96.9287L99.9527 87.6644L102.977 78.6644H106.193L101.801 90.5684H98.0807ZM113.328 90.8564C112.128 90.8564 111.064 90.6004 110.136 90.0884C109.208 89.5764 108.48 88.8564 107.952 87.9284C107.424 87.0004 107.16 85.9284 107.16 84.7124C107.16 83.4804 107.416 82.3844 107.928 81.4244C108.456 80.4644 109.176 79.7204 110.088 79.1924C111.016 78.6484 112.104 78.3764 113.352 78.3764C114.52 78.3764 115.552 78.6324 116.448 79.1444C117.344 79.6564 118.04 80.3604 118.536 81.2564C119.048 82.1364 119.304 83.1204 119.304 84.2084C119.304 84.3844 119.296 84.5684 119.28 84.7604C119.28 84.9524 119.272 85.1524 119.256 85.3604H110.208C110.272 86.2884 110.592 87.0164 111.168 87.5444C111.76 88.0724 112.472 88.3364 113.304 88.3364C113.928 88.3364 114.448 88.2004 114.864 87.9284C115.296 87.6404 115.616 87.2724 115.824 86.8244H118.944C118.72 87.5764 118.344 88.2644 117.816 88.8884C117.304 89.4964 116.664 89.9764 115.896 90.3284C115.144 90.6804 114.288 90.8564 113.328 90.8564ZM113.352 80.8724C112.6 80.8724 111.936 81.0884 111.36 81.5204C110.784 81.9364 110.416 82.5764 110.256 83.4404H116.184C116.136 82.6564 115.848 82.0324 115.32 81.5684C114.792 81.1044 114.136 80.8724 113.352 80.8724ZM121.888 90.5684V78.6644H124.6L124.864 80.2724C125.248 79.6964 125.752 79.2404 126.376 78.9044C127.016 78.5524 127.752 78.3764 128.584 78.3764C130.424 78.3764 131.728 79.0884 132.496 80.5124C132.928 79.8564 133.504 79.3364 134.224 78.9524C134.96 78.5684 135.76 78.3764 136.624 78.3764C138.176 78.3764 139.368 78.8404 140.2 79.7684C141.032 80.6964 141.448 82.0564 141.448 83.8484V90.5684H138.376V84.1364C138.376 83.1124 138.176 82.3284 137.776 81.7844C137.392 81.2404 136.792 80.9684 135.976 80.9684C135.144 80.9684 134.472 81.2724 133.96 81.8804C133.464 82.4884 133.216 83.3364 133.216 84.4244V90.5684H130.144V84.1364C130.144 83.1124 129.944 82.3284 129.544 81.7844C129.144 81.2404 128.528 80.9684 127.696 80.9684C126.88 80.9684 126.216 81.2724 125.704 81.8804C125.208 82.4884 124.96 83.3364 124.96 84.4244V90.5684H121.888ZM150.149 90.8564C148.949 90.8564 147.885 90.6004 146.957 90.0884C146.029 89.5764 145.301 88.8564 144.773 87.9284C144.245 87.0004 143.981 85.9284 143.981 84.7124C143.981 83.4804 144.237 82.3844 144.749 81.4244C145.277 80.4644 145.997 79.7204 146.909 79.1924C147.837 78.6484 148.925 78.3764 150.173 78.3764C151.341 78.3764 152.373 78.6324 153.269 79.1444C154.165 79.6564 154.861 80.3604 155.357 81.2564C155.869 82.1364 156.125 83.1204 156.125 84.2084C156.125 84.3844 156.117 84.5684 156.101 84.7604C156.101 84.9524 156.093 85.1524 156.077 85.3604H147.029C147.093 86.2884 147.413 87.0164 147.989 87.5444C148.581 88.0724 149.293 88.3364 150.125 88.3364C150.749 88.3364 151.269 88.2004 151.685 87.9284C152.117 87.6404 152.437 87.2724 152.645 86.8244H155.765C155.541 87.5764 155.165 88.2644 154.637 88.8884C154.125 89.4964 153.485 89.9764 152.717 90.3284C151.965 90.6804 151.109 90.8564 150.149 90.8564ZM150.173 80.8724C149.421 80.8724 148.757 81.0884 148.181 81.5204C147.605 81.9364 147.237 82.5764 147.077 83.4404H153.005C152.957 82.6564 152.669 82.0324 152.141 81.5684C151.613 81.1044 150.957 80.8724 150.173 80.8724ZM158.708 90.5684V78.6644H161.42L161.66 80.6804C162.028 79.9764 162.556 79.4164 163.244 79.0004C163.948 78.5844 164.772 78.3764 165.716 78.3764C167.188 78.3764 168.332 78.8404 169.148 79.7684C169.964 80.6964 170.372 82.0564 170.372 83.8484V90.5684H167.3V84.1364C167.3 83.1124 167.092 82.3284 166.676 81.7844C166.26 81.2404 165.612 80.9684 164.732 80.9684C163.868 80.9684 163.156 81.2724 162.596 81.8804C162.052 82.4884 161.78 83.3364 161.78 84.4244V90.5684H158.708ZM178.614 90.5684C177.366 90.5684 176.366 90.2644 175.614 89.6564C174.862 89.0484 174.486 87.9684 174.486 86.4164V81.2324H172.446V78.6644H174.486L174.846 75.4724H177.558V78.6644H180.774V81.2324H177.558V86.4404C177.558 87.0164 177.678 87.4164 177.918 87.6404C178.174 87.8484 178.606 87.9524 179.214 87.9524H180.702V90.5684H178.614Z" fill="white"/>
<path fill-rule="evenodd" clip-rule="evenodd" d="M115.21 177.649C115.21 176.625 116.059 175.794 117.105 175.794H117.264C118.31 175.794 119.158 176.625 119.158 177.649C119.158 178.673 118.31 179.504 117.264 179.504H117.105C116.059 179.504 115.21 178.673 115.21 177.649ZM121.552 182.391C121.552 182.391 121.586 182.389 121.604 182.389C122.626 182.389 123.468 183.188 123.496 184.195C123.524 185.219 122.7 186.071 121.656 186.098C121.493 186.105 111.523 186.519 105.774 194.248C105.403 194.746 104.825 195.011 104.24 195.011C103.854 195.011 103.464 194.895 103.128 194.656C102.281 194.052 102.094 192.892 102.71 192.064C109.598 182.804 121.552 182.391 121.552 182.391ZM100.043 202.163C98.8796 204.41 97.9967 206.796 97.3828 209.292C96.8522 211.448 96.52 213.685 96.4063 215.998C96.3583 216.992 95.5208 217.765 94.5154 217.765C94.4851 217.765 94.4547 217.764 94.4244 217.763C93.3785 217.715 92.5714 216.844 92.6219 215.821C92.7431 213.341 93.0968 210.938 93.6552 208.616C94.3385 205.771 95.3352 203.05 96.6628 200.485C97.1364 199.57 98.2771 199.206 99.2106 199.67C100.143 200.134 100.517 201.249 100.043 202.163ZM88.389 214.711C88.3271 215.747 88.2842 216.802 88.2842 217.9C88.2842 218.924 87.4353 219.755 86.3894 219.755C85.3422 219.755 84.4947 218.924 84.4947 217.9C84.4947 213.949 84.9027 210.379 85.5949 207.152C87.7347 197.172 92.632 190.519 96.9129 186.408C103.08 180.485 109.233 178.432 109.491 178.346C110.484 178.023 111.557 178.549 111.888 179.52C112.219 180.491 111.683 181.54 110.693 181.865C109.796 182.162 89.9313 189.067 88.389 214.711ZM139.54 155.777C139.54 158.533 137.258 160.768 134.443 160.768C131.628 160.768 129.347 158.533 129.347 155.777C129.347 153.022 131.628 150.788 134.443 150.788C137.258 150.788 139.54 153.022 139.54 155.777ZM109.793 155.777C109.793 158.533 107.512 160.768 104.698 160.768C101.882 160.768 99.6009 158.533 99.6009 155.777C99.6009 153.022 101.882 150.788 104.698 150.788C107.512 150.788 109.793 153.022 109.793 155.777ZM168.931 188.483C165.776 191.584 161.38 193.163 156.91 193.163H131.285C134.629 190.369 136.759 186.221 136.761 181.59C136.759 172.497 129.515 166.292 118.307 165.783C99.5794 164.932 86.1267 177.176 79.1224 191.903C71.9274 189.289 66.7194 182.849 66.3392 175.116C65.9211 166.636 71.3615 158.841 79.5683 156.158L80.1506 155.968C81.4479 155.545 82.1654 154.185 81.7687 152.903L81.5906 152.328C81.1157 150.8 81.0348 149.223 81.3468 147.637C82.0138 144.248 84.3557 141.492 87.693 140.382C88.7995 140.014 89.9263 139.836 91.0353 139.836C93.1524 139.836 95.1975 140.489 96.9204 141.737L97.5217 142.174C98.7823 143.088 100.579 142.668 101.283 141.297L101.619 140.641C106.426 131.282 116.434 125.988 127.125 127.138C138.158 128.333 147.207 136.653 149.131 147.369C149.787 151.028 149.621 154.684 148.64 158.237L148.34 159.321C147.821 161.199 149.621 162.902 151.522 162.33L152.616 162.001C154.55 161.417 156.565 161.193 158.603 161.338C166.705 161.906 173.324 168.578 173.668 176.531C173.864 181.033 172.18 185.292 168.931 188.483ZM159.054 155.17C157.91 155.09 156.774 155.093 155.645 155.179C155.981 152.241 155.883 149.27 155.349 146.298C152.944 132.893 141.623 122.486 127.819 120.992C115.599 119.657 104.091 125.111 97.6278 135.02C94.8021 133.782 91.6568 133.366 88.5128 133.841C81.914 134.842 76.562 139.814 75.1965 146.217C74.8327 147.924 74.7506 149.628 74.9476 151.31C65.5497 155.563 59.5231 165.106 60.0296 175.413C60.5336 185.631 67.3396 194.148 76.7552 197.638C75.8837 200.118 75.1876 202.627 74.6735 205.12C74.3287 206.793 75.4352 208.425 77.1443 208.762C78.8445 209.105 80.5182 208.017 80.8643 206.342C80.8668 206.326 80.8706 206.31 80.8744 206.295C84.4366 189.1 97.5773 171.041 118.015 171.959C120.931 172.093 130.444 173.179 130.445 181.59C130.444 186.573 126.3 190.629 121.211 190.629C106.975 190.629 103.562 204.179 102.104 209.966C102.089 210.026 102.089 210.085 102.078 210.146C101.776 211.743 102.783 213.314 104.415 213.709C104.669 213.769 104.923 213.799 105.174 213.799C106.593 213.799 107.882 212.857 108.237 211.447C109.582 206.107 111.245 201.864 114.068 199.347H157.411C163.627 199.347 169.42 196.927 173.722 192.531C178.022 188.137 180.244 182.362 179.979 176.267C179.5 165.224 170.309 155.957 159.054 155.17Z" fill="white"/>
<defs>
<filter id="filter0_d" x="0" y="20.9023" width="240" height="238.99" filterUnits="userSpaceOnUse" color-interpolation-filters="sRGB">
<feFlood flood-opacity="0" result="BackgroundImageFix"/>
<feColorMatrix in="SourceAlpha" type="matrix" values="0 0 0 0 0 0 0 0 0 0 0 0 0 0 0 0 0 0 127 0"/>
<feOffset dy="1"/>
<feGaussianBlur stdDeviation="1"/>
<feColorMatrix type="matrix" values="0 0 0 0 0.0588235 0 0 0 0 0.0588235 0 0 0 0 0.0588235 0 0 0 0.1 0"/>
<feBlend mode="normal" in2="BackgroundImageFix" result="effect1_dropShadow"/>
<feBlend mode="normal" in="SourceGraphic" in2="effect1_dropShadow" result="shape"/>
</filter>
</defs>
</svg>
