<svg width="240" height="265" viewBox="0 0 240 265" fill="none" xmlns="http://www.w3.org/2000/svg">
<g filter="url(#filter0_d)">
<rect x="2" y="22" width="236" height="240" rx="20" fill="#DB61CF"/>
</g>
<path fill-rule="evenodd" clip-rule="evenodd" d="M221 29C216.032 29 212 33.032 212 38C212 42.968 216.032 47 221 47C225.968 47 230 42.968 230 38C230 33.032 225.968 29 221 29ZM220.1 33.5V35.3H221.9V33.5H220.1ZM220.1 37.1V42.5H221.9V37.1H220.1ZM213.8 38C213.8 41.969 217.031 45.2 221 45.2C224.969 45.2 228.2 41.969 228.2 38C228.2 34.031 224.969 30.8 221 30.8C217.031 30.8 213.8 34.031 213.8 38Z" fill="white"/>
<path d="M37 10C37 4.47715 41.4772 0 47 0H193C198.523 0 203 4.47715 203 10V22H37V10Z" fill="#F12587"/>
<path d="M102.906 16.192C101.85 16.192 100.927 15.952 100.138 15.472C99.3485 14.992 98.7352 14.3253 98.2979 13.472C97.8605 12.608 97.6419 11.6053 97.6419 10.464C97.6419 9.312 97.8659 8.29867 98.3139 7.424C98.7725 6.53867 99.4179 5.85067 100.25 5.36C101.093 4.85867 102.09 4.608 103.242 4.608C104.554 4.608 105.642 4.92267 106.506 5.552C107.37 6.18133 107.93 7.05067 108.186 8.16H105.898C105.727 7.63733 105.418 7.232 104.97 6.944C104.522 6.64533 103.946 6.496 103.242 6.496C102.122 6.496 101.258 6.85333 100.65 7.568C100.042 8.272 99.7379 9.24267 99.7379 10.48C99.7379 11.7173 100.037 12.6773 100.634 13.36C101.242 14.032 102.063 14.368 103.098 14.368C104.111 14.368 104.874 14.096 105.386 13.552C105.909 12.9973 106.223 12.272 106.33 11.376H103.498V9.84H108.394V16H106.506L106.346 14.528C105.983 15.0613 105.53 15.472 104.986 15.76C104.442 16.048 103.749 16.192 102.906 16.192ZM113.073 16.192C112.39 16.192 111.83 16.0853 111.393 15.872C110.956 15.648 110.63 15.3547 110.417 14.992C110.204 14.6293 110.097 14.2293 110.097 13.792C110.097 13.056 110.385 12.4587 110.961 12C111.537 11.5413 112.401 11.312 113.553 11.312H115.569V11.12C115.569 10.576 115.414 10.176 115.105 9.92C114.796 9.664 114.412 9.536 113.953 9.536C113.537 9.536 113.174 9.63733 112.865 9.84C112.556 10.032 112.364 10.32 112.289 10.704H110.289C110.342 10.128 110.534 9.62667 110.865 9.2C111.206 8.77333 111.644 8.448 112.177 8.224C112.71 7.98933 113.308 7.872 113.969 7.872C115.1 7.872 115.99 8.15467 116.641 8.72C117.292 9.28533 117.617 10.0853 117.617 11.12V16H115.873L115.681 14.72C115.446 15.1467 115.116 15.4987 114.689 15.776C114.273 16.0533 113.734 16.192 113.073 16.192ZM113.537 14.592C114.124 14.592 114.577 14.4 114.897 14.016C115.228 13.632 115.436 13.1573 115.521 12.592H113.777C113.233 12.592 112.844 12.6933 112.609 12.896C112.374 13.088 112.257 13.328 112.257 13.616C112.257 13.9253 112.374 14.1653 112.609 14.336C112.844 14.5067 113.153 14.592 113.537 14.592ZM119.571 16V8.064H121.379L121.555 9.136C121.811 8.752 122.147 8.448 122.563 8.224C122.99 7.98933 123.481 7.872 124.035 7.872C125.262 7.872 126.131 8.34667 126.643 9.296C126.931 8.85867 127.315 8.512 127.795 8.256C128.286 8 128.819 7.872 129.395 7.872C130.43 7.872 131.225 8.18133 131.779 8.8C132.334 9.41867 132.611 10.3253 132.611 11.52V16H130.563V11.712C130.563 11.0293 130.43 10.5067 130.163 10.144C129.907 9.78133 129.507 9.6 128.963 9.6C128.409 9.6 127.961 9.80267 127.619 10.208C127.289 10.6133 127.123 11.1787 127.123 11.904V16H125.075V11.712C125.075 11.0293 124.942 10.5067 124.675 10.144C124.409 9.78133 123.998 9.6 123.443 9.6C122.899 9.6 122.457 9.80267 122.115 10.208C121.785 10.6133 121.619 11.1787 121.619 11.904V16H119.571ZM138.412 16.192C137.612 16.192 136.902 16.0213 136.284 15.68C135.665 15.3387 135.18 14.8587 134.828 14.24C134.476 13.6213 134.3 12.9067 134.3 12.096C134.3 11.2747 134.47 10.544 134.812 9.904C135.164 9.264 135.644 8.768 136.252 8.416C136.87 8.05333 137.596 7.872 138.428 7.872C139.206 7.872 139.894 8.04267 140.492 8.384C141.089 8.72533 141.553 9.19467 141.884 9.792C142.225 10.3787 142.396 11.0347 142.396 11.76C142.396 11.8773 142.39 12 142.38 12.128C142.38 12.256 142.374 12.3893 142.364 12.528H136.332C136.374 13.1467 136.588 13.632 136.972 13.984C137.366 14.336 137.841 14.512 138.396 14.512C138.812 14.512 139.158 14.4213 139.436 14.24C139.724 14.048 139.937 13.8027 140.076 13.504H142.156C142.006 14.0053 141.756 14.464 141.404 14.88C141.062 15.2853 140.636 15.6053 140.124 15.84C139.622 16.0747 139.052 16.192 138.412 16.192ZM138.428 9.536C137.926 9.536 137.484 9.68 137.1 9.968C136.716 10.2453 136.47 10.672 136.364 11.248H140.316C140.284 10.7253 140.092 10.3093 139.74 10C139.388 9.69067 138.95 9.536 138.428 9.536Z" fill="white"/>
<path d="M92.0743 60L85.9303 43.2H89.2183L93.9703 56.856L98.7463 43.2H101.986L95.8423 60H92.0743ZM108.194 60.288C107.042 60.288 106.002 60.024 105.074 59.496C104.162 58.968 103.434 58.24 102.89 57.312C102.362 56.368 102.098 55.28 102.098 54.048C102.098 52.816 102.37 51.736 102.914 50.808C103.458 49.864 104.186 49.128 105.098 48.6C106.026 48.072 107.066 47.808 108.218 47.808C109.354 47.808 110.378 48.072 111.29 48.6C112.218 49.128 112.946 49.864 113.474 50.808C114.018 51.736 114.29 52.816 114.29 54.048C114.29 55.28 114.018 56.368 113.474 57.312C112.946 58.24 112.218 58.968 111.29 59.496C110.362 60.024 109.33 60.288 108.194 60.288ZM108.194 57.624C108.994 57.624 109.69 57.328 110.282 56.736C110.874 56.128 111.17 55.232 111.17 54.048C111.17 52.864 110.874 51.976 110.282 51.384C109.69 50.776 109.002 50.472 108.218 50.472C107.402 50.472 106.698 50.776 106.106 51.384C105.53 51.976 105.242 52.864 105.242 54.048C105.242 55.232 105.53 56.128 106.106 56.736C106.698 57.328 107.394 57.624 108.194 57.624ZM118.943 60L115.463 48.096H118.511L120.575 56.664L122.975 48.096H126.383L128.783 56.664L130.871 48.096H133.919L130.415 60H127.223L124.679 51.096L122.135 60H118.943ZM141.219 60.288C140.019 60.288 138.955 60.032 138.027 59.52C137.099 59.008 136.371 58.288 135.843 57.36C135.315 56.432 135.051 55.36 135.051 54.144C135.051 52.912 135.307 51.816 135.819 50.856C136.347 49.896 137.067 49.152 137.979 48.624C138.907 48.08 139.995 47.808 141.243 47.808C142.411 47.808 143.443 48.064 144.339 48.576C145.235 49.088 145.931 49.792 146.427 50.688C146.939 51.568 147.195 52.552 147.195 53.64C147.195 53.816 147.187 54 147.171 54.192C147.171 54.384 147.163 54.584 147.147 54.792H138.099C138.163 55.72 138.483 56.448 139.059 56.976C139.651 57.504 140.363 57.768 141.195 57.768C141.819 57.768 142.339 57.632 142.755 57.36C143.187 57.072 143.507 56.704 143.715 56.256H146.835C146.611 57.008 146.235 57.696 145.707 58.32C145.195 58.928 144.555 59.408 143.787 59.76C143.035 60.112 142.179 60.288 141.219 60.288ZM141.243 50.304C140.491 50.304 139.827 50.52 139.251 50.952C138.675 51.368 138.307 52.008 138.147 52.872H144.075C144.027 52.088 143.739 51.464 143.211 51C142.683 50.536 142.027 50.304 141.243 50.304ZM149.779 60V42.72H152.851V60H149.779ZM59.7804 91V74.2H63.4284L68.7804 84.856L74.0604 74.2H77.7084V91H74.6364V79.408L69.9564 88.6H67.5324L62.8524 79.408V91H59.7804ZM86.6079 91.288C85.4559 91.288 84.4159 91.024 83.4879 90.496C82.5759 89.968 81.8479 89.24 81.3039 88.312C80.7759 87.368 80.5119 86.28 80.5119 85.048C80.5119 83.816 80.7839 82.736 81.3279 81.808C81.8719 80.864 82.5999 80.128 83.5119 79.6C84.4399 79.072 85.4799 78.808 86.6319 78.808C87.7679 78.808 88.7919 79.072 89.7039 79.6C90.6319 80.128 91.3599 80.864 91.8879 81.808C92.4319 82.736 92.7039 83.816 92.7039 85.048C92.7039 86.28 92.4319 87.368 91.8879 88.312C91.3599 89.24 90.6319 89.968 89.7039 90.496C88.7759 91.024 87.7439 91.288 86.6079 91.288ZM86.6079 88.624C87.4079 88.624 88.1039 88.328 88.6959 87.736C89.2879 87.128 89.5839 86.232 89.5839 85.048C89.5839 83.864 89.2879 82.976 88.6959 82.384C88.1039 81.776 87.4159 81.472 86.6319 81.472C85.8159 81.472 85.1119 81.776 84.5199 82.384C83.9439 82.976 83.6559 83.864 83.6559 85.048C83.6559 86.232 83.9439 87.128 84.5199 87.736C85.1119 88.328 85.8079 88.624 86.6079 88.624ZM98.0807 91L93.7127 79.096H96.9287L99.9527 88.096L102.977 79.096H106.193L101.801 91H98.0807ZM113.328 91.288C112.128 91.288 111.064 91.032 110.136 90.52C109.208 90.008 108.48 89.288 107.952 88.36C107.424 87.432 107.16 86.36 107.16 85.144C107.16 83.912 107.416 82.816 107.928 81.856C108.456 80.896 109.176 80.152 110.088 79.624C111.016 79.08 112.104 78.808 113.352 78.808C114.52 78.808 115.552 79.064 116.448 79.576C117.344 80.088 118.04 80.792 118.536 81.688C119.048 82.568 119.304 83.552 119.304 84.64C119.304 84.816 119.296 85 119.28 85.192C119.28 85.384 119.272 85.584 119.256 85.792H110.208C110.272 86.72 110.592 87.448 111.168 87.976C111.76 88.504 112.472 88.768 113.304 88.768C113.928 88.768 114.448 88.632 114.864 88.36C115.296 88.072 115.616 87.704 115.824 87.256H118.944C118.72 88.008 118.344 88.696 117.816 89.32C117.304 89.928 116.664 90.408 115.896 90.76C115.144 91.112 114.288 91.288 113.328 91.288ZM113.352 81.304C112.6 81.304 111.936 81.52 111.36 81.952C110.784 82.368 110.416 83.008 110.256 83.872H116.184C116.136 83.088 115.848 82.464 115.32 82C114.792 81.536 114.136 81.304 113.352 81.304ZM121.888 91V79.096H124.6L124.864 80.704C125.248 80.128 125.752 79.672 126.376 79.336C127.016 78.984 127.752 78.808 128.584 78.808C130.424 78.808 131.728 79.52 132.496 80.944C132.928 80.288 133.504 79.768 134.224 79.384C134.96 79 135.76 78.808 136.624 78.808C138.176 78.808 139.368 79.272 140.2 80.2C141.032 81.128 141.448 82.488 141.448 84.28V91H138.376V84.568C138.376 83.544 138.176 82.76 137.776 82.216C137.392 81.672 136.792 81.4 135.976 81.4C135.144 81.4 134.472 81.704 133.96 82.312C133.464 82.92 133.216 83.768 133.216 84.856V91H130.144V84.568C130.144 83.544 129.944 82.76 129.544 82.216C129.144 81.672 128.528 81.4 127.696 81.4C126.88 81.4 126.216 81.704 125.704 82.312C125.208 82.92 124.96 83.768 124.96 84.856V91H121.888ZM150.149 91.288C148.949 91.288 147.885 91.032 146.957 90.52C146.029 90.008 145.301 89.288 144.773 88.36C144.245 87.432 143.981 86.36 143.981 85.144C143.981 83.912 144.237 82.816 144.749 81.856C145.277 80.896 145.997 80.152 146.909 79.624C147.837 79.08 148.925 78.808 150.173 78.808C151.341 78.808 152.373 79.064 153.269 79.576C154.165 80.088 154.861 80.792 155.357 81.688C155.869 82.568 156.125 83.552 156.125 84.64C156.125 84.816 156.117 85 156.101 85.192C156.101 85.384 156.093 85.584 156.077 85.792H147.029C147.093 86.72 147.413 87.448 147.989 87.976C148.581 88.504 149.293 88.768 150.125 88.768C150.749 88.768 151.269 88.632 151.685 88.36C152.117 88.072 152.437 87.704 152.645 87.256H155.765C155.541 88.008 155.165 88.696 154.637 89.32C154.125 89.928 153.485 90.408 152.717 90.76C151.965 91.112 151.109 91.288 150.149 91.288ZM150.173 81.304C149.421 81.304 148.757 81.52 148.181 81.952C147.605 82.368 147.237 83.008 147.077 83.872H153.005C152.957 83.088 152.669 82.464 152.141 82C151.613 81.536 150.957 81.304 150.173 81.304ZM158.708 91V79.096H161.42L161.66 81.112C162.028 80.408 162.556 79.848 163.244 79.432C163.948 79.016 164.772 78.808 165.716 78.808C167.188 78.808 168.332 79.272 169.148 80.2C169.964 81.128 170.372 82.488 170.372 84.28V91H167.3V84.568C167.3 83.544 167.092 82.76 166.676 82.216C166.26 81.672 165.612 81.4 164.732 81.4C163.868 81.4 163.156 81.704 162.596 82.312C162.052 82.92 161.78 83.768 161.78 84.856V91H158.708ZM178.614 91C177.366 91 176.366 90.696 175.614 90.088C174.862 89.48 174.486 88.4 174.486 86.848V81.664H172.446V79.096H174.486L174.846 75.904H177.558V79.096H180.774V81.664H177.558V86.872C177.558 87.448 177.678 87.848 177.918 88.072C178.174 88.28 178.606 88.384 179.214 88.384H180.702V91H178.614Z" fill="white"/>
<path fill-rule="evenodd" clip-rule="evenodd" d="M141.168 149.346C141.168 152.395 138.697 154.868 135.646 154.868C132.598 154.868 130.126 152.395 130.126 149.346C130.126 146.298 132.598 143.826 135.646 143.826C138.697 143.826 141.168 146.298 141.168 149.346ZM108.943 149.346C108.943 152.395 106.471 154.868 103.423 154.868C100.372 154.868 97.9009 152.395 97.9009 149.346C97.9009 146.298 100.372 143.826 103.423 143.826C106.471 143.826 108.943 146.298 108.943 149.346ZM173.009 185.533C169.59 188.964 164.828 190.711 159.985 190.711H132.225C135.848 187.62 138.156 183.03 138.157 177.907C138.156 167.846 130.308 160.981 118.166 160.417C97.8777 159.475 83.3039 173.023 75.7159 189.317C67.9214 186.425 62.2793 179.3 61.8674 170.743C61.4145 161.361 67.3083 152.736 76.199 149.768L76.8298 149.557C78.2352 149.089 79.0125 147.585 78.5828 146.166L78.3899 145.53C77.8753 143.84 77.7877 142.095 78.1258 140.339C78.8483 136.59 81.3854 133.541 85.0007 132.312C86.1995 131.906 87.4201 131.709 88.6216 131.709C90.9151 131.709 93.1306 132.431 94.9971 133.812L95.6485 134.295C97.0142 135.306 98.9601 134.842 99.7237 133.325L100.088 132.6C105.295 122.245 116.137 116.386 127.719 117.659C139.671 118.981 149.474 128.186 151.558 140.044C152.269 144.092 152.089 148.137 151.026 152.068L150.702 153.267C150.139 155.346 152.089 157.23 154.149 156.596L155.334 156.232C157.429 155.586 159.612 155.339 161.82 155.499C170.597 156.127 177.768 163.51 178.14 172.309C178.352 177.29 176.528 182.003 173.009 185.533ZM162.309 148.674C161.069 148.586 159.839 148.59 158.615 148.684C158.979 145.434 158.873 142.147 158.295 138.859C155.69 124.026 143.425 112.512 128.47 110.859C115.232 109.381 102.766 115.416 95.7635 126.38C92.7023 125.01 89.2949 124.55 85.8889 125.076C78.7402 126.183 72.9421 131.684 71.4629 138.768C71.0688 140.657 70.9798 142.543 71.1933 144.404C61.0122 149.11 54.4834 159.668 55.0321 171.072C55.5781 182.378 62.9512 191.801 73.1515 195.662C72.2073 198.406 71.4533 201.183 70.8963 203.941C70.5227 205.791 71.7215 207.598 73.573 207.97C75.4149 208.35 77.2281 207.146 77.603 205.293C77.6057 205.276 77.6099 205.258 77.614 205.241C81.4729 186.216 95.7087 166.234 117.85 167.251C121.008 167.399 131.314 168.6 131.315 177.907C131.314 183.42 126.825 187.907 121.312 187.907C105.89 187.907 102.192 202.9 100.613 209.303C100.597 209.368 100.597 209.434 100.584 209.501C100.257 211.269 101.348 213.007 103.116 213.444C103.391 213.511 103.666 213.544 103.938 213.544C105.475 213.544 106.872 212.501 107.257 210.941C108.714 205.033 110.515 200.338 113.574 197.553H160.529C167.263 197.553 173.538 194.875 178.199 190.012C182.857 185.15 185.264 178.761 184.977 172.017C184.458 159.798 174.502 149.545 162.309 148.674Z" fill="white"/>
<path d="M95.985 208.674L95.985 208.674C95.4176 211.029 95.0622 213.473 94.9405 216.001C94.8757 217.369 93.7473 218.432 92.3926 218.432C92.3491 218.432 92.3073 218.43 92.2764 218.429L92.2733 218.429L92.2705 218.429C90.8613 218.362 89.7739 217.164 89.8419 215.757L95.985 208.674ZM95.985 208.674C96.6415 205.948 97.585 203.345 98.8268 200.895C99.4651 199.637 98.9608 198.103 97.7055 197.465L97.7053 197.465C96.4482 196.827 94.9112 197.327 94.2729 198.586L94.2729 198.586M95.985 208.674L94.2729 198.586M94.2729 198.586C92.8158 201.462 91.7229 204.51 90.974 207.694M94.2729 198.586L90.974 207.694M90.974 207.694C90.3623 210.293 89.9748 212.982 89.8419 215.757L90.974 207.694Z" fill="#FFE500" stroke="#FFE500"/>
<path d="M108.457 173.842L108.456 173.842C108.136 173.95 101.393 176.252 94.6381 182.879C89.9425 187.484 84.5795 194.93 82.2377 206.086C81.4806 209.69 81.0352 213.674 81.0352 218.08C81.0352 219.489 82.177 220.633 83.5878 220.633C84.997 220.633 86.1405 219.489 86.1405 218.08C86.1405 216.878 86.1865 215.721 86.2532 214.58C87.9054 186.524 109.161 178.993 110.076 178.683C111.41 178.236 112.131 176.793 111.685 175.457C111.239 174.121 109.795 173.398 108.457 173.842Z" fill="#04CC78" stroke="#04CC78"/>
<path d="M124.287 180.778L124.287 180.777C124.25 179.392 123.115 178.293 121.737 178.293L121.734 178.293C121.72 178.293 121.69 178.293 121.658 178.295C120.984 178.314 108.434 178.81 100.864 189.202L100.864 189.203C100.035 190.343 100.287 191.939 101.427 192.769L101.428 192.77C101.879 193.097 102.406 193.258 102.927 193.258C103.714 193.258 104.492 192.894 104.992 192.208L104.992 192.208C108.026 188.042 112.181 185.838 115.62 184.675C119.026 183.523 121.699 183.401 121.81 183.397C123.217 183.357 124.325 182.185 124.287 180.778Z" fill="#F12587" stroke="#F12587"/>
<path d="M116.863 170.99C115.454 170.99 114.311 172.134 114.311 173.543C114.311 174.952 115.454 176.096 116.863 176.096H117.036C118.445 176.096 119.588 174.952 119.588 173.543C119.588 172.134 118.445 170.99 117.036 170.99H116.863Z" fill="#4EA1FF" stroke="#4EA1FF"/>
<circle cx="102" cy="151" r="2" fill="black"/>
<circle cx="134" cy="151" r="2" fill="black"/>
<defs>
<filter id="filter0_d" x="0" y="21" width="240" height="244" filterUnits="userSpaceOnUse" color-interpolation-filters="sRGB">
<feFlood flood-opacity="0" result="BackgroundImageFix"/>
<feColorMatrix in="SourceAlpha" type="matrix" values="0 0 0 0 0 0 0 0 0 0 0 0 0 0 0 0 0 0 127 0"/>
<feOffset dy="1"/>
<feGaussianBlur stdDeviation="1"/>
<feColorMatrix type="matrix" values="0 0 0 0 0.0588235 0 0 0 0 0.0588235 0 0 0 0 0.0588235 0 0 0 0.1 0"/>
<feBlend mode="normal" in2="BackgroundImageFix" result="effect1_dropShadow"/>
<feBlend mode="normal" in="SourceGraphic" in2="effect1_dropShadow" result="shape"/>
</filter>
</defs>
</svg>
