<svg width="214" height="237" viewBox="0 0 214 237" fill="none" xmlns="http://www.w3.org/2000/svg">
<g filter="url(#filter0_d)">
<rect x="2" y="19.5762" width="210" height="213.559" rx="20" fill="#E359D6"/>
</g>
<path d="M33.1445 10C33.1445 4.47715 37.6217 0 43.1445 0H170.856C176.379 0 180.856 4.47715 180.856 10V19.5763H33.1445V10Z" fill="#F12587"/>
<path d="M92.044 14.9473C91.12 14.9473 90.3127 14.7373 89.622 14.3173C88.9313 13.8973 88.3947 13.314 88.012 12.5673C87.6293 11.8113 87.438 10.934 87.438 9.9353C87.438 8.9273 87.634 8.04063 88.026 7.2753C88.4273 6.50063 88.992 5.89863 89.72 5.4693C90.4573 5.03063 91.33 4.8113 92.338 4.8113C93.486 4.8113 94.438 5.08663 95.194 5.6373C95.95 6.18796 96.44 6.94863 96.664 7.9193H94.662C94.5127 7.46196 94.242 7.1073 93.85 6.8553C93.458 6.59396 92.954 6.4633 92.338 6.4633C91.358 6.4633 90.602 6.77596 90.07 7.4013C89.538 8.0173 89.272 8.86663 89.272 9.9493C89.272 11.032 89.5333 11.872 90.056 12.4693C90.588 13.0573 91.3067 13.3513 92.212 13.3513C93.0987 13.3513 93.766 13.1133 94.214 12.6373C94.6713 12.152 94.9467 11.5173 95.04 10.7333H92.562V9.3893H96.846V14.7793H95.194L95.054 13.4913C94.7367 13.958 94.34 14.3173 93.864 14.5693C93.388 14.8213 92.7813 14.9473 92.044 14.9473ZM100.94 14.9473C100.343 14.9473 99.8528 14.854 99.4701 14.6673C99.0875 14.4713 98.8028 14.2146 98.6161 13.8973C98.4295 13.58 98.3361 13.23 98.3361 12.8473C98.3361 12.2033 98.5881 11.6806 99.0921 11.2793C99.5961 10.878 100.352 10.6773 101.36 10.6773H103.124V10.5093C103.124 10.0333 102.989 9.6833 102.718 9.4593C102.447 9.2353 102.111 9.1233 101.71 9.1233C101.346 9.1233 101.029 9.21196 100.758 9.3893C100.487 9.5573 100.319 9.8093 100.254 10.1453H98.5041C98.5508 9.6413 98.7188 9.20263 99.0081 8.8293C99.3068 8.45596 99.6895 8.1713 100.156 7.9753C100.623 7.76996 101.145 7.6673 101.724 7.6673C102.713 7.6673 103.493 7.91463 104.062 8.4093C104.631 8.90396 104.916 9.60396 104.916 10.5093V14.7793H103.39L103.222 13.6593C103.017 14.0326 102.727 14.3406 102.354 14.5833C101.99 14.826 101.519 14.9473 100.94 14.9473ZM101.346 13.5473C101.859 13.5473 102.256 13.3793 102.536 13.0433C102.825 12.7073 103.007 12.292 103.082 11.7973H101.556C101.08 11.7973 100.739 11.886 100.534 12.0633C100.329 12.2313 100.226 12.4413 100.226 12.6933C100.226 12.964 100.329 13.174 100.534 13.3233C100.739 13.4726 101.01 13.5473 101.346 13.5473ZM106.626 14.7793V7.8353H108.208L108.362 8.7733C108.586 8.4373 108.88 8.1713 109.244 7.9753C109.618 7.76996 110.047 7.6673 110.532 7.6673C111.606 7.6673 112.366 8.08263 112.814 8.9133C113.066 8.53063 113.402 8.2273 113.822 8.0033C114.252 7.7793 114.718 7.6673 115.222 7.6673C116.128 7.6673 116.823 7.93796 117.308 8.4793C117.794 9.02063 118.036 9.81396 118.036 10.8593V14.7793H116.244V11.0273C116.244 10.43 116.128 9.97263 115.894 9.6553C115.67 9.33796 115.32 9.1793 114.844 9.1793C114.359 9.1793 113.967 9.35663 113.668 9.7113C113.379 10.066 113.234 10.5606 113.234 11.1953V14.7793H111.442V11.0273C111.442 10.43 111.326 9.97263 111.092 9.6553C110.859 9.33796 110.5 9.1793 110.014 9.1793C109.538 9.1793 109.151 9.35663 108.852 9.7113C108.563 10.066 108.418 10.5606 108.418 11.1953V14.7793H106.626ZM123.112 14.9473C122.412 14.9473 121.791 14.798 121.25 14.4993C120.708 14.2006 120.284 13.7806 119.976 13.2393C119.668 12.698 119.514 12.0726 119.514 11.3633C119.514 10.6446 119.663 10.0053 119.962 9.4453C120.27 8.8853 120.69 8.4513 121.222 8.1433C121.763 7.82596 122.398 7.6673 123.126 7.6673C123.807 7.6673 124.409 7.81663 124.932 8.1153C125.454 8.41396 125.86 8.82463 126.15 9.3473C126.448 9.86063 126.598 10.4346 126.598 11.0693C126.598 11.172 126.593 11.2793 126.584 11.3913C126.584 11.5033 126.579 11.62 126.57 11.7413H121.292C121.329 12.2826 121.516 12.7073 121.852 13.0153C122.197 13.3233 122.612 13.4773 123.098 13.4773C123.462 13.4773 123.765 13.398 124.008 13.2393C124.26 13.0713 124.446 12.8566 124.568 12.5953H126.388C126.257 13.034 126.038 13.4353 125.73 13.7993C125.431 14.154 125.058 14.434 124.61 14.6393C124.171 14.8446 123.672 14.9473 123.112 14.9473ZM123.126 9.1233C122.687 9.1233 122.3 9.2493 121.964 9.5013C121.628 9.74396 121.413 10.1173 121.32 10.6213H124.778C124.75 10.164 124.582 9.79996 124.274 9.5293C123.966 9.25863 123.583 9.1233 123.126 9.1233Z" fill="white"/>
<path d="M33.6627 61.8145L28.7987 48.5145H31.4017L35.1637 59.3255L38.9447 48.5145H41.5097L36.6457 61.8145H33.6627ZM46.424 62.0425C45.512 62.0425 44.6887 61.8335 43.954 61.4155C43.232 60.9975 42.6557 60.4211 42.225 59.6865C41.807 58.9391 41.598 58.0778 41.598 57.1025C41.598 56.1271 41.8133 55.2721 42.244 54.5375C42.6747 53.7901 43.251 53.2075 43.973 52.7895C44.7077 52.3715 45.531 52.1625 46.443 52.1625C47.3423 52.1625 48.153 52.3715 48.875 52.7895C49.6097 53.2075 50.186 53.7901 50.604 54.5375C51.0347 55.2721 51.25 56.1271 51.25 57.1025C51.25 58.0778 51.0347 58.9391 50.604 59.6865C50.186 60.4211 49.6097 60.9975 48.875 61.4155C48.1403 61.8335 47.3233 62.0425 46.424 62.0425ZM46.424 59.9335C47.0573 59.9335 47.6083 59.6991 48.077 59.2305C48.5457 58.7491 48.78 58.0398 48.78 57.1025C48.78 56.1651 48.5457 55.4621 48.077 54.9935C47.6083 54.5121 47.0637 54.2715 46.443 54.2715C45.797 54.2715 45.2397 54.5121 44.771 54.9935C44.315 55.4621 44.087 56.1651 44.087 57.1025C44.087 58.0398 44.315 58.7491 44.771 59.2305C45.2397 59.6991 45.7907 59.9335 46.424 59.9335ZM54.9335 61.8145L52.1785 52.3905H54.5915L56.2255 59.1735L58.1255 52.3905H60.8235L62.7235 59.1735L64.3765 52.3905H66.7895L64.0155 61.8145H61.4885L59.4745 54.7655L57.4605 61.8145H54.9335ZM72.5689 62.0425C71.6189 62.0425 70.7765 61.8398 70.0419 61.4345C69.3072 61.0291 68.7309 60.4591 68.3129 59.7245C67.8949 58.9898 67.6859 58.1411 67.6859 57.1785C67.6859 56.2031 67.8885 55.3355 68.2939 54.5755C68.7119 53.8155 69.2819 53.2265 70.0039 52.8085C70.7385 52.3778 71.5999 52.1625 72.5879 52.1625C73.5125 52.1625 74.3295 52.3651 75.0389 52.7705C75.7482 53.1758 76.2992 53.7331 76.6919 54.4425C77.0972 55.1391 77.2999 55.9181 77.2999 56.7795C77.2999 56.9188 77.2935 57.0645 77.2809 57.2165C77.2809 57.3685 77.2745 57.5268 77.2619 57.6915H70.0989C70.1495 58.4261 70.4029 59.0025 70.8589 59.4205C71.3275 59.8385 71.8912 60.0475 72.5499 60.0475C73.0439 60.0475 73.4555 59.9398 73.7849 59.7245C74.1269 59.4965 74.3802 59.2051 74.5449 58.8505H77.0149C76.8375 59.4458 76.5399 59.9905 76.1219 60.4845C75.7165 60.9658 75.2099 61.3458 74.6019 61.6245C74.0065 61.9031 73.3289 62.0425 72.5689 62.0425ZM72.5879 54.1385C71.9925 54.1385 71.4669 54.3095 71.0109 54.6515C70.5549 54.9808 70.2635 55.4875 70.1369 56.1715H74.8299C74.7919 55.5508 74.5639 55.0568 74.1459 54.6895C73.7279 54.3221 73.2085 54.1385 72.5879 54.1385ZM79.3454 61.8145V48.1345H81.7774V61.8145H79.3454ZM88.8467 61.8145V48.5145H91.7347L95.9717 56.9505L100.152 48.5145H103.04V61.8145H100.608V52.6375L96.9027 59.9145H94.9837L91.2787 52.6375V61.8145H88.8467ZM110.085 62.0425C109.173 62.0425 108.35 61.8335 107.615 61.4155C106.893 60.9975 106.317 60.4211 105.886 59.6865C105.468 58.9391 105.259 58.0778 105.259 57.1025C105.259 56.1271 105.474 55.2721 105.905 54.5375C106.336 53.7901 106.912 53.2075 107.634 52.7895C108.369 52.3715 109.192 52.1625 110.104 52.1625C111.003 52.1625 111.814 52.3715 112.536 52.7895C113.271 53.2075 113.847 53.7901 114.265 54.5375C114.696 55.2721 114.911 56.1271 114.911 57.1025C114.911 58.0778 114.696 58.9391 114.265 59.6865C113.847 60.4211 113.271 60.9975 112.536 61.4155C111.801 61.8335 110.984 62.0425 110.085 62.0425ZM110.085 59.9335C110.718 59.9335 111.269 59.6991 111.738 59.2305C112.207 58.7491 112.441 58.0398 112.441 57.1025C112.441 56.1651 112.207 55.4621 111.738 54.9935C111.269 54.5121 110.725 54.2715 110.104 54.2715C109.458 54.2715 108.901 54.5121 108.432 54.9935C107.976 55.4621 107.748 56.1651 107.748 57.1025C107.748 58.0398 107.976 58.7491 108.432 59.2305C108.901 59.6991 109.452 59.9335 110.085 59.9335ZM119.168 61.8145L115.71 52.3905H118.256L120.65 59.5155L123.044 52.3905H125.59L122.113 61.8145H119.168ZM131.239 62.0425C130.289 62.0425 129.446 61.8398 128.712 61.4345C127.977 61.0291 127.401 60.4591 126.983 59.7245C126.565 58.9898 126.356 58.1411 126.356 57.1785C126.356 56.2031 126.558 55.3355 126.964 54.5755C127.382 53.8155 127.952 53.2265 128.674 52.8085C129.408 52.3778 130.27 52.1625 131.258 52.1625C132.182 52.1625 132.999 52.3651 133.709 52.7705C134.418 53.1758 134.969 53.7331 135.362 54.4425C135.767 55.1391 135.97 55.9181 135.97 56.7795C135.97 56.9188 135.963 57.0645 135.951 57.2165C135.951 57.3685 135.944 57.5268 135.932 57.6915H128.769C128.819 58.4261 129.073 59.0025 129.529 59.4205C129.997 59.8385 130.561 60.0475 131.22 60.0475C131.714 60.0475 132.125 59.9398 132.455 59.7245C132.797 59.4965 133.05 59.2051 133.215 58.8505H135.685C135.507 59.4458 135.21 59.9905 134.792 60.4845C134.386 60.9658 133.88 61.3458 133.272 61.6245C132.676 61.9031 131.999 62.0425 131.239 62.0425ZM131.258 54.1385C130.662 54.1385 130.137 54.3095 129.681 54.6515C129.225 54.9808 128.933 55.4875 128.807 56.1715H133.5C133.462 55.5508 133.234 55.0568 132.816 54.6895C132.398 54.3221 131.878 54.1385 131.258 54.1385ZM138.015 61.8145V52.3905H140.162L140.371 53.6635C140.675 53.2075 141.074 52.8465 141.568 52.5805C142.075 52.3018 142.658 52.1625 143.316 52.1625C144.773 52.1625 145.805 52.7261 146.413 53.8535C146.755 53.3341 147.211 52.9225 147.781 52.6185C148.364 52.3145 148.997 52.1625 149.681 52.1625C150.91 52.1625 151.854 52.5298 152.512 53.2645C153.171 53.9991 153.5 55.0758 153.5 56.4945V61.8145H151.068V56.7225C151.068 55.9118 150.91 55.2911 150.593 54.8605C150.289 54.4298 149.814 54.2145 149.168 54.2145C148.51 54.2145 147.978 54.4551 147.572 54.9365C147.18 55.4178 146.983 56.0891 146.983 56.9505V61.8145H144.551V56.7225C144.551 55.9118 144.393 55.2911 144.076 54.8605C143.76 54.4298 143.272 54.2145 142.613 54.2145C141.967 54.2145 141.442 54.4551 141.036 54.9365C140.644 55.4178 140.447 56.0891 140.447 56.9505V61.8145H138.015ZM160.388 62.0425C159.438 62.0425 158.596 61.8398 157.861 61.4345C157.127 61.0291 156.55 60.4591 156.132 59.7245C155.714 58.9898 155.505 58.1411 155.505 57.1785C155.505 56.2031 155.708 55.3355 156.113 54.5755C156.531 53.8155 157.101 53.2265 157.823 52.8085C158.558 52.3778 159.419 52.1625 160.407 52.1625C161.332 52.1625 162.149 52.3651 162.858 52.7705C163.568 53.1758 164.119 53.7331 164.511 54.4425C164.917 55.1391 165.119 55.9181 165.119 56.7795C165.119 56.9188 165.113 57.0645 165.1 57.2165C165.1 57.3685 165.094 57.5268 165.081 57.6915H157.918C157.969 58.4261 158.222 59.0025 158.678 59.4205C159.147 59.8385 159.711 60.0475 160.369 60.0475C160.863 60.0475 161.275 59.9398 161.604 59.7245C161.946 59.4965 162.2 59.2051 162.364 58.8505H164.834C164.657 59.4458 164.359 59.9905 163.941 60.4845C163.536 60.9658 163.029 61.3458 162.421 61.6245C161.826 61.9031 161.148 62.0425 160.388 62.0425ZM160.407 54.1385C159.812 54.1385 159.286 54.3095 158.83 54.6515C158.374 54.9808 158.083 55.4875 157.956 56.1715H162.649C162.611 55.5508 162.383 55.0568 161.965 54.6895C161.547 54.3221 161.028 54.1385 160.407 54.1385ZM167.165 61.8145V52.3905H169.312L169.502 53.9865C169.793 53.4291 170.211 52.9858 170.756 52.6565C171.313 52.3271 171.965 52.1625 172.713 52.1625C173.878 52.1625 174.784 52.5298 175.43 53.2645C176.076 53.9991 176.399 55.0758 176.399 56.4945V61.8145H173.967V56.7225C173.967 55.9118 173.802 55.2911 173.473 54.8605C173.143 54.4298 172.63 54.2145 171.934 54.2145C171.25 54.2145 170.686 54.4551 170.243 54.9365C169.812 55.4178 169.597 56.0891 169.597 56.9505V61.8145H167.165ZM182.923 61.8145C181.935 61.8145 181.144 61.5738 180.548 61.0925C179.953 60.6111 179.655 59.7561 179.655 58.5275V54.4235H178.04V52.3905H179.655L179.94 49.8635H182.087V52.3905H184.633V54.4235H182.087V58.5465C182.087 59.0025 182.182 59.3191 182.372 59.4965C182.575 59.6611 182.917 59.7435 183.398 59.7435H184.576V61.8145H182.923Z" fill="white"/>
<path fill-rule="evenodd" clip-rule="evenodd" d="M122.531 114.627C122.531 116.91 120.68 118.762 118.396 118.762C116.113 118.762 114.262 116.91 114.262 114.627C114.262 112.344 116.113 110.493 118.396 110.493C120.68 110.493 122.531 112.344 122.531 114.627ZM98.3977 114.627C98.3977 116.91 96.5469 118.762 94.2636 118.762C91.9793 118.762 90.1284 116.91 90.1284 114.627C90.1284 112.344 91.9793 110.493 94.2636 110.493C96.5469 110.493 98.3977 112.344 98.3977 114.627ZM146.376 141.727C143.816 144.296 140.25 145.605 136.623 145.605H115.834C118.547 143.29 120.275 139.853 120.276 136.016C120.275 128.481 114.398 123.34 105.305 122.918C90.111 122.212 79.1967 132.358 73.5141 144.561C67.6768 142.395 63.4515 137.059 63.143 130.651C62.8038 123.625 67.2177 117.165 73.8759 114.942L74.3483 114.785C75.4008 114.434 75.9829 113.308 75.6611 112.245L75.5166 111.769C75.1313 110.503 75.0657 109.196 75.3188 107.881C75.8599 105.073 77.7599 102.79 80.4675 101.87C81.3652 101.566 82.2794 101.418 83.1792 101.418C84.8968 101.418 86.5559 101.959 87.9538 102.993L88.4416 103.355C89.4644 104.112 90.9217 103.765 91.4935 102.628L91.7661 102.085C95.6655 94.3303 103.785 89.9431 112.459 90.8962C121.41 91.8861 128.752 98.7801 130.312 107.66C130.844 110.692 130.71 113.721 129.914 116.665L129.671 117.563C129.25 119.12 130.71 120.531 132.252 120.056L133.14 119.784C134.709 119.3 136.344 119.114 137.998 119.234C144.571 119.705 149.941 125.234 150.22 131.823C150.378 135.554 149.012 139.083 146.376 141.727ZM138.363 114.124C137.435 114.057 136.514 114.06 135.597 114.131C135.87 111.697 135.79 109.235 135.358 106.773C133.406 95.6646 124.221 87.0418 113.022 85.8039C103.108 84.6971 93.7717 89.2165 88.5277 97.4273C86.2352 96.4015 83.6834 96.0571 81.1326 96.4507C75.779 97.2797 71.4368 101.4 70.329 106.705C70.0339 108.119 69.9673 109.531 70.1271 110.925C62.5025 114.45 57.6131 122.357 58.024 130.897C58.4329 139.364 63.9547 146.421 71.5936 149.313C70.8865 151.367 70.3218 153.447 69.9047 155.513C69.625 156.898 70.5227 158.251 71.9093 158.53C73.2887 158.815 74.6466 157.913 74.9274 156.525C74.9294 156.512 74.9325 156.499 74.9356 156.486C77.8255 142.238 88.4867 127.274 105.068 128.035C107.433 128.146 115.151 129.046 115.152 136.016C115.151 140.145 111.79 143.505 107.661 143.505C96.1113 143.505 93.3423 154.733 92.1596 159.528C92.1473 159.577 92.1473 159.626 92.1381 159.677C91.8932 161.001 92.71 162.302 94.034 162.629C94.24 162.679 94.446 162.704 94.6499 162.704C95.8008 162.704 96.8471 161.923 97.1351 160.755C98.2265 156.331 99.5752 152.815 101.866 150.729H137.03C142.073 150.729 146.773 148.723 150.264 145.081C153.752 141.44 155.555 136.655 155.34 131.605C154.951 122.454 147.495 114.775 138.363 114.124Z" fill="white"/>
<path d="M88.8153 159.087L88.8153 159.087C88.3922 160.843 88.1272 162.665 88.0365 164.55L88.8153 159.087ZM88.8153 159.087C89.3047 157.055 90.008 155.115 90.9333 153.289M88.8153 159.087L87.2991 151.446M85.9083 166.489L85.9056 166.489C84.7808 166.436 83.913 165.48 83.9672 164.356L85.9083 166.489ZM85.9083 166.489L85.9111 166.489C85.934 166.49 85.9676 166.491 86.0029 166.491C87.084 166.491 87.9846 165.643 88.0364 164.551L85.9083 166.489ZM87.2991 151.446L87.2991 151.446C87.8085 150.441 89.0352 150.042 90.0384 150.551L90.0386 150.551C91.0404 151.06 91.4429 152.285 90.9333 153.289M87.2991 151.446C86.203 153.609 85.3813 155.901 84.8183 158.295L87.2991 151.446ZM90.9333 153.289L90.4875 153.063L90.9334 153.289C90.9334 153.289 90.9334 153.289 90.9333 153.289ZM84.8183 158.295C84.3584 160.249 84.0671 162.27 83.9673 164.356L84.8183 158.295Z" fill="#FFE500" stroke="#FFE500"/>
<path d="M99.2873 136.716C100.351 136.359 100.927 135.208 100.571 134.141C100.216 133.075 99.0628 132.498 97.9956 132.852L97.9936 132.853C97.745 132.937 92.6752 134.669 87.5979 139.65C84.0668 143.113 80.036 148.71 78.2763 157.093C77.7075 159.801 77.373 162.793 77.373 166.101C77.373 167.226 78.2843 168.139 79.4103 168.139C80.535 168.139 81.4475 167.226 81.4475 166.101C81.4475 165.204 81.4818 164.34 81.5317 163.488L81.0326 163.458L81.5317 163.488C82.7644 142.556 98.6159 136.943 99.2873 136.716ZM99.2873 136.716C99.2871 136.716 99.2869 136.716 99.2867 136.716L99.1277 136.242L99.2878 136.716C99.2877 136.716 99.2875 136.716 99.2873 136.716Z" fill="#01AD5A" stroke="#01AD5A"/>
<path d="M108.038 140.251C109.16 140.219 110.043 139.283 110.014 138.161L110.014 138.16C109.984 137.055 109.078 136.178 107.979 136.178L107.976 136.178C107.966 136.178 107.941 136.178 107.914 136.179C107.382 136.194 97.9441 136.575 92.2453 144.399L92.245 144.4C91.5835 145.31 91.7847 146.584 92.6943 147.246L92.695 147.247C93.0552 147.508 93.4752 147.636 93.8915 147.636C94.5191 147.636 95.1403 147.346 95.5396 146.798L95.5398 146.798C97.7915 143.706 100.877 142.068 103.438 141.201C105.965 140.346 107.95 140.255 108.038 140.251ZM108.038 140.251C108.036 140.251 108.035 140.251 108.034 140.251L108.021 139.751L108.04 140.251C108.04 140.251 108.039 140.251 108.038 140.251Z" fill="#F12587" stroke="#F12587"/>
<path d="M104.328 130.711C103.204 130.711 102.291 131.623 102.291 132.748C102.291 133.873 103.204 134.785 104.328 134.785H104.457C105.582 134.785 106.495 133.873 106.495 132.748C106.495 131.623 105.582 130.711 104.457 130.711H104.328Z" fill="#3895FF" stroke="#3895FF"/>
<circle cx="93.197" cy="115.865" r="1.4978" fill="black"/>
<circle cx="117.164" cy="115.865" r="1.4978" fill="black"/>
<defs>
<filter id="filter0_d" x="0" y="18.5762" width="214" height="217.559" filterUnits="userSpaceOnUse" color-interpolation-filters="sRGB">
<feFlood flood-opacity="0" result="BackgroundImageFix"/>
<feColorMatrix in="SourceAlpha" type="matrix" values="0 0 0 0 0 0 0 0 0 0 0 0 0 0 0 0 0 0 127 0"/>
<feOffset dy="1"/>
<feGaussianBlur stdDeviation="1"/>
<feColorMatrix type="matrix" values="0 0 0 0 0.0588235 0 0 0 0 0.0588235 0 0 0 0 0.0588235 0 0 0 0.1 0"/>
<feBlend mode="normal" in2="BackgroundImageFix" result="effect1_dropShadow"/>
<feBlend mode="normal" in="SourceGraphic" in2="effect1_dropShadow" result="shape"/>
</filter>
</defs>
</svg>
