<svg width="214" height="237" viewBox="0 0 214 237" fill="none" xmlns="http://www.w3.org/2000/svg">
<g filter="url(#filter0_d)">
<rect x="2" y="19.5762" width="210" height="213.559" rx="20" fill="#5B59E3"/>
</g>
<path d="M33.1445 10C33.1445 4.47715 37.6217 0 43.1445 0H170.856C176.379 0 180.856 4.47715 180.856 10V19.5763H33.1445V10Z" fill="#01BDD7"/>
<path d="M71.5725 14.7793V4.9793H73.3645V14.7793H71.5725ZM78.6239 14.9473C77.9146 14.9473 77.2892 14.7933 76.7479 14.4853C76.2066 14.1773 75.7772 13.748 75.4599 13.1973C75.1519 12.6466 74.9979 12.0166 74.9979 11.3073C74.9979 10.598 75.1519 9.96796 75.4599 9.4173C75.7772 8.86663 76.2066 8.4373 76.7479 8.1293C77.2892 7.8213 77.9146 7.6673 78.6239 7.6673C79.5106 7.6673 80.2572 7.90063 80.8639 8.3673C81.4706 8.82463 81.8579 9.4593 82.0259 10.2713H80.1359C80.0426 9.9353 79.8559 9.67396 79.5759 9.4873C79.3052 9.2913 78.9832 9.1933 78.6099 9.1933C78.1152 9.1933 77.6952 9.37996 77.3499 9.7533C77.0046 10.1266 76.8319 10.6446 76.8319 11.3073C76.8319 11.97 77.0046 12.488 77.3499 12.8613C77.6952 13.2346 78.1152 13.4213 78.6099 13.4213C78.9832 13.4213 79.3052 13.328 79.5759 13.1413C79.8559 12.9546 80.0426 12.6886 80.1359 12.3433H82.0259C81.8579 13.1273 81.4706 13.7573 80.8639 14.2333C80.2572 14.7093 79.5106 14.9473 78.6239 14.9473ZM86.9904 14.9473C86.2904 14.9473 85.6698 14.798 85.1284 14.4993C84.5871 14.2006 84.1624 13.7806 83.8544 13.2393C83.5464 12.698 83.3924 12.0726 83.3924 11.3633C83.3924 10.6446 83.5418 10.0053 83.8404 9.4453C84.1484 8.8853 84.5684 8.4513 85.1004 8.1433C85.6418 7.82596 86.2764 7.6673 87.0044 7.6673C87.6858 7.6673 88.2878 7.81663 88.8104 8.1153C89.3331 8.41396 89.7391 8.82463 90.0284 9.3473C90.3271 9.86063 90.4764 10.4346 90.4764 11.0693C90.4764 11.172 90.4718 11.2793 90.4624 11.3913C90.4624 11.5033 90.4578 11.62 90.4484 11.7413H85.1704C85.2078 12.2826 85.3944 12.7073 85.7304 13.0153C86.0758 13.3233 86.4911 13.4773 86.9764 13.4773C87.3404 13.4773 87.6438 13.398 87.8864 13.2393C88.1384 13.0713 88.3251 12.8566 88.4464 12.5953H90.2664C90.1358 13.034 89.9164 13.4353 89.6084 13.7993C89.3098 14.154 88.9364 14.434 88.4884 14.6393C88.0498 14.8446 87.5504 14.9473 86.9904 14.9473ZM87.0044 9.1233C86.5658 9.1233 86.1784 9.2493 85.8424 9.5013C85.5064 9.74396 85.2918 10.1173 85.1984 10.6213H88.6564C88.6284 10.164 88.4604 9.79996 88.1524 9.5293C87.8444 9.25863 87.4618 9.1233 87.0044 9.1233ZM96.0996 14.9473C95.577 14.9473 95.1196 14.8493 94.7276 14.6533C94.3356 14.4573 94.0183 14.182 93.7756 13.8273L93.5796 14.7793H91.9836V4.6993H93.7756V8.8293C93.9996 8.5213 94.2936 8.25063 94.6576 8.0173C95.031 7.78396 95.5116 7.6673 96.0996 7.6673C96.753 7.6673 97.3363 7.82596 97.8496 8.1433C98.363 8.46063 98.769 8.89463 99.0676 9.4453C99.3663 9.99596 99.5156 10.6213 99.5156 11.3213C99.5156 12.0213 99.3663 12.6466 99.0676 13.1973C98.769 13.7386 98.363 14.168 97.8496 14.4853C97.3363 14.7933 96.753 14.9473 96.0996 14.9473ZM95.7216 13.3793C96.291 13.3793 96.7623 13.188 97.1356 12.8053C97.509 12.4226 97.6956 11.928 97.6956 11.3213C97.6956 10.7146 97.509 10.2153 97.1356 9.8233C96.7623 9.4313 96.291 9.2353 95.7216 9.2353C95.143 9.2353 94.667 9.4313 94.2936 9.8233C93.9296 10.206 93.7476 10.7006 93.7476 11.3073C93.7476 11.914 93.9296 12.4133 94.2936 12.8053C94.667 13.188 95.143 13.3793 95.7216 13.3793ZM101.116 14.7793V7.8353H102.712L102.88 9.1373C103.132 8.6893 103.473 8.33463 103.902 8.0733C104.341 7.80263 104.854 7.6673 105.442 7.6673V9.5573H104.938C104.546 9.5573 104.196 9.61796 103.888 9.7393C103.58 9.86063 103.338 10.0706 103.16 10.3693C102.992 10.668 102.908 11.0833 102.908 11.6153V14.7793H101.116ZM109.918 14.9473C109.218 14.9473 108.598 14.798 108.056 14.4993C107.515 14.2006 107.09 13.7806 106.782 13.2393C106.474 12.698 106.32 12.0726 106.32 11.3633C106.32 10.6446 106.47 10.0053 106.768 9.4453C107.076 8.8853 107.496 8.4513 108.028 8.1433C108.57 7.82596 109.204 7.6673 109.932 7.6673C110.614 7.6673 111.216 7.81663 111.738 8.1153C112.261 8.41396 112.667 8.82463 112.956 9.3473C113.255 9.86063 113.404 10.4346 113.404 11.0693C113.404 11.172 113.4 11.2793 113.39 11.3913C113.39 11.5033 113.386 11.62 113.376 11.7413H108.098C108.136 12.2826 108.322 12.7073 108.658 13.0153C109.004 13.3233 109.419 13.4773 109.904 13.4773C110.268 13.4773 110.572 13.398 110.814 13.2393C111.066 13.0713 111.253 12.8566 111.374 12.5953H113.194C113.064 13.034 112.844 13.4353 112.536 13.7993C112.238 14.154 111.864 14.434 111.416 14.6393C110.978 14.8446 110.478 14.9473 109.918 14.9473ZM109.932 9.1233C109.494 9.1233 109.106 9.2493 108.77 9.5013C108.434 9.74396 108.22 10.1173 108.126 10.6213H111.584C111.556 10.164 111.388 9.79996 111.08 9.5293C110.772 9.25863 110.39 9.1233 109.932 9.1233ZM117.305 14.9473C116.708 14.9473 116.218 14.854 115.835 14.6673C115.453 14.4713 115.168 14.2146 114.981 13.8973C114.795 13.58 114.701 13.23 114.701 12.8473C114.701 12.2033 114.953 11.6806 115.457 11.2793C115.961 10.878 116.717 10.6773 117.725 10.6773H119.489V10.5093C119.489 10.0333 119.354 9.6833 119.083 9.4593C118.813 9.2353 118.477 9.1233 118.075 9.1233C117.711 9.1233 117.394 9.21196 117.123 9.3893C116.853 9.5573 116.685 9.8093 116.619 10.1453H114.869C114.916 9.6413 115.084 9.20263 115.373 8.8293C115.672 8.45596 116.055 8.1713 116.521 7.9753C116.988 7.76996 117.511 7.6673 118.089 7.6673C119.079 7.6673 119.858 7.91463 120.427 8.4093C120.997 8.90396 121.281 9.60396 121.281 10.5093V14.7793H119.755L119.587 13.6593C119.382 14.0326 119.093 14.3406 118.719 14.5833C118.355 14.826 117.884 14.9473 117.305 14.9473ZM117.711 13.5473C118.225 13.5473 118.621 13.3793 118.901 13.0433C119.191 12.7073 119.373 12.292 119.447 11.7973H117.921C117.445 11.7973 117.105 11.886 116.899 12.0633C116.694 12.2313 116.591 12.4413 116.591 12.6933C116.591 12.964 116.694 13.174 116.899 13.3233C117.105 13.4726 117.375 13.5473 117.711 13.5473ZM122.991 14.7793V4.6993H124.783V10.6493L127.247 7.8353H129.375L126.533 10.9993L129.837 14.7793H127.597L124.783 11.2933V14.7793H122.991ZM133.748 14.9473C133.048 14.9473 132.428 14.798 131.886 14.4993C131.345 14.2006 130.92 13.7806 130.612 13.2393C130.304 12.698 130.15 12.0726 130.15 11.3633C130.15 10.6446 130.3 10.0053 130.598 9.4453C130.906 8.8853 131.326 8.4513 131.858 8.1433C132.4 7.82596 133.034 7.6673 133.762 7.6673C134.444 7.6673 135.046 7.81663 135.568 8.1153C136.091 8.41396 136.497 8.82463 136.786 9.3473C137.085 9.86063 137.234 10.4346 137.234 11.0693C137.234 11.172 137.23 11.2793 137.22 11.3913C137.22 11.5033 137.216 11.62 137.206 11.7413H131.928C131.966 12.2826 132.152 12.7073 132.488 13.0153C132.834 13.3233 133.249 13.4773 133.734 13.4773C134.098 13.4773 134.402 13.398 134.644 13.2393C134.896 13.0713 135.083 12.8566 135.204 12.5953H137.024C136.894 13.034 136.674 13.4353 136.366 13.7993C136.068 14.154 135.694 14.434 135.246 14.6393C134.808 14.8446 134.308 14.9473 133.748 14.9473ZM133.762 9.1233C133.324 9.1233 132.936 9.2493 132.6 9.5013C132.264 9.74396 132.05 10.1173 131.956 10.6213H135.414C135.386 10.164 135.218 9.79996 134.91 9.5293C134.602 9.25863 134.22 9.1233 133.762 9.1233ZM138.741 14.7793V7.8353H140.337L140.505 9.1373C140.757 8.6893 141.098 8.33463 141.527 8.0733C141.966 7.80263 142.479 7.6673 143.067 7.6673V9.5573H142.563C142.171 9.5573 141.821 9.61796 141.513 9.7393C141.205 9.86063 140.963 10.0706 140.785 10.3693C140.617 10.668 140.533 11.0833 140.533 11.6153V14.7793H138.741Z" fill="white"/>
<path d="M33.9228 88.8145V79.3495H30.7878V78.3145H38.3178V79.3495H35.1828V88.8145H33.9228ZM40.4904 88.8145L38.3154 81.3745H39.5754L41.1504 87.2095L42.8904 81.3745H44.3154L46.0704 87.2095L47.6304 81.3745H48.9054L46.7304 88.8145H45.4404L43.6104 82.6795L41.7804 88.8145H40.4904ZM53.4106 88.9945C52.7106 88.9945 52.0806 88.8345 51.5206 88.5145C50.9606 88.1945 50.5156 87.7445 50.1856 87.1645C49.8656 86.5745 49.7056 85.8845 49.7056 85.0945C49.7056 84.3045 49.8706 83.6195 50.2006 83.0395C50.5306 82.4495 50.9756 81.9945 51.5356 81.6745C52.1056 81.3545 52.7406 81.1945 53.4406 81.1945C54.1406 81.1945 54.7706 81.3545 55.3306 81.6745C55.8906 81.9945 56.3306 82.4495 56.6506 83.0395C56.9806 83.6195 57.1456 84.3045 57.1456 85.0945C57.1456 85.8845 56.9806 86.5745 56.6506 87.1645C56.3206 87.7445 55.8706 88.1945 55.3006 88.5145C54.7406 88.8345 54.1106 88.9945 53.4106 88.9945ZM53.4106 87.9145C53.8406 87.9145 54.2406 87.8095 54.6106 87.5995C54.9806 87.3895 55.2806 87.0745 55.5106 86.6545C55.7406 86.2345 55.8556 85.7145 55.8556 85.0945C55.8556 84.4745 55.7406 83.9545 55.5106 83.5345C55.2906 83.1145 54.9956 82.7995 54.6256 82.5895C54.2556 82.3795 53.8606 82.2745 53.4406 82.2745C53.0106 82.2745 52.6106 82.3795 52.2406 82.5895C51.8706 82.7995 51.5706 83.1145 51.3406 83.5345C51.1106 83.9545 50.9956 84.4745 50.9956 85.0945C50.9956 85.7145 51.1106 86.2345 51.3406 86.6545C51.5706 87.0745 51.8656 87.3895 52.2256 87.5995C52.5956 87.8095 52.9906 87.9145 53.4106 87.9145ZM66.2873 88.9945C65.5773 88.9945 64.9373 88.8345 64.3673 88.5145C63.8073 88.1845 63.3623 87.7295 63.0323 87.1495C62.7123 86.5595 62.5523 85.8745 62.5523 85.0945C62.5523 84.3145 62.7123 83.6345 63.0323 83.0545C63.3623 82.4645 63.8073 82.0095 64.3673 81.6895C64.9373 81.3595 65.5773 81.1945 66.2873 81.1945C67.1673 81.1945 67.9073 81.4245 68.5073 81.8845C69.1173 82.3445 69.5023 82.9595 69.6623 83.7295H68.3723C68.2723 83.2695 68.0273 82.9145 67.6373 82.6645C67.2473 82.4045 66.7923 82.2745 66.2723 82.2745C65.8523 82.2745 65.4573 82.3795 65.0873 82.5895C64.7173 82.7995 64.4173 83.1145 64.1873 83.5345C63.9573 83.9545 63.8423 84.4745 63.8423 85.0945C63.8423 85.7145 63.9573 86.2345 64.1873 86.6545C64.4173 87.0745 64.7173 87.3945 65.0873 87.6145C65.4573 87.8245 65.8523 87.9295 66.2723 87.9295C66.7923 87.9295 67.2473 87.8045 67.6373 87.5545C68.0273 87.2945 68.2723 86.9295 68.3723 86.4595H69.6623C69.5123 87.2095 69.1323 87.8195 68.5223 88.2895C67.9123 88.7595 67.1673 88.9945 66.2873 88.9945ZM74.137 88.9945C73.257 88.9945 72.557 88.7295 72.037 88.1995C71.517 87.6595 71.257 86.8345 71.257 85.7245V81.3745H72.517V85.5895C72.517 87.1395 73.152 87.9145 74.422 87.9145C75.072 87.9145 75.607 87.6845 76.027 87.2245C76.457 86.7545 76.672 86.0895 76.672 85.2295V81.3745H77.932V88.8145H76.792L76.702 87.4795C76.472 87.9495 76.127 88.3195 75.667 88.5895C75.217 88.8595 74.707 88.9945 74.137 88.9945ZM80.006 88.8145V81.3745H81.146L81.251 82.7995C81.481 82.3095 81.831 81.9195 82.301 81.6295C82.771 81.3395 83.351 81.1945 84.041 81.1945V82.5145H83.696C83.256 82.5145 82.851 82.5945 82.481 82.7545C82.111 82.9045 81.816 83.1645 81.596 83.5345C81.376 83.9045 81.266 84.4145 81.266 85.0645V88.8145H80.006ZM86.2202 79.7245C85.9702 79.7245 85.7602 79.6445 85.5902 79.4845C85.4302 79.3145 85.3502 79.1045 85.3502 78.8545C85.3502 78.6145 85.4302 78.4145 85.5902 78.2545C85.7602 78.0945 85.9702 78.0145 86.2202 78.0145C86.4602 78.0145 86.6652 78.0945 86.8352 78.2545C87.0052 78.4145 87.0902 78.6145 87.0902 78.8545C87.0902 79.1045 87.0052 79.3145 86.8352 79.4845C86.6652 79.6445 86.4602 79.7245 86.2202 79.7245ZM85.5902 88.8145V81.3745H86.8502V88.8145H85.5902ZM92.4341 88.9945C91.7341 88.9945 91.1041 88.8345 90.5441 88.5145C89.9841 88.1945 89.5391 87.7445 89.2091 87.1645C88.8891 86.5745 88.7291 85.8845 88.7291 85.0945C88.7291 84.3045 88.8941 83.6195 89.2241 83.0395C89.5541 82.4495 89.9991 81.9945 90.5591 81.6745C91.1291 81.3545 91.7641 81.1945 92.4641 81.1945C93.1641 81.1945 93.7941 81.3545 94.3541 81.6745C94.9141 81.9945 95.3541 82.4495 95.6741 83.0395C96.0041 83.6195 96.1691 84.3045 96.1691 85.0945C96.1691 85.8845 96.0041 86.5745 95.6741 87.1645C95.3441 87.7445 94.8941 88.1945 94.3241 88.5145C93.7641 88.8345 93.1341 88.9945 92.4341 88.9945ZM92.4341 87.9145C92.8641 87.9145 93.2641 87.8095 93.6341 87.5995C94.0041 87.3895 94.3041 87.0745 94.5341 86.6545C94.7641 86.2345 94.8791 85.7145 94.8791 85.0945C94.8791 84.4745 94.7641 83.9545 94.5341 83.5345C94.3141 83.1145 94.0191 82.7995 93.6491 82.5895C93.2791 82.3795 92.8841 82.2745 92.4641 82.2745C92.0341 82.2745 91.6341 82.3795 91.2641 82.5895C90.8941 82.7995 90.5941 83.1145 90.3641 83.5345C90.1341 83.9545 90.0191 84.4745 90.0191 85.0945C90.0191 85.7145 90.1341 86.2345 90.3641 86.6545C90.5941 87.0745 90.8891 87.3895 91.2491 87.5995C91.6191 87.8095 92.0141 87.9145 92.4341 87.9145ZM100.636 88.9945C99.756 88.9945 99.056 88.7295 98.536 88.1995C98.016 87.6595 97.756 86.8345 97.756 85.7245V81.3745H99.016V85.5895C99.016 87.1395 99.651 87.9145 100.921 87.9145C101.571 87.9145 102.106 87.6845 102.526 87.2245C102.956 86.7545 103.171 86.0895 103.171 85.2295V81.3745H104.431V88.8145H103.291L103.201 87.4795C102.971 87.9495 102.626 88.3195 102.166 88.5895C101.716 88.8595 101.206 88.9945 100.636 88.9945ZM109.355 88.9945C108.465 88.9945 107.725 88.7695 107.135 88.3195C106.545 87.8695 106.2 87.2595 106.1 86.4895H107.39C107.47 86.8795 107.675 87.2195 108.005 87.5095C108.345 87.7895 108.8 87.9295 109.37 87.9295C109.9 87.9295 110.29 87.8195 110.54 87.5995C110.79 87.3695 110.915 87.0995 110.915 86.7895C110.915 86.3395 110.75 86.0395 110.42 85.8895C110.1 85.7395 109.645 85.6045 109.055 85.4845C108.655 85.4045 108.255 85.2895 107.855 85.1395C107.455 84.9895 107.12 84.7795 106.85 84.5095C106.58 84.2295 106.445 83.8645 106.445 83.4145C106.445 82.7645 106.685 82.2345 107.165 81.8245C107.655 81.4045 108.315 81.1945 109.145 81.1945C109.935 81.1945 110.58 81.3945 111.08 81.7945C111.59 82.1845 111.885 82.7445 111.965 83.4745H110.72C110.67 83.0945 110.505 82.7995 110.225 82.5895C109.955 82.3695 109.59 82.2595 109.13 82.2595C108.68 82.2595 108.33 82.3545 108.08 82.5445C107.84 82.7345 107.72 82.9845 107.72 83.2945C107.72 83.5945 107.875 83.8295 108.185 83.9995C108.505 84.1695 108.935 84.3145 109.475 84.4345C109.935 84.5345 110.37 84.6595 110.78 84.8095C111.2 84.9495 111.54 85.1645 111.8 85.4545C112.07 85.7345 112.205 86.1445 112.205 86.6845C112.215 87.3545 111.96 87.9095 111.44 88.3495C110.93 88.7795 110.235 88.9945 109.355 88.9945ZM120.825 88.9945C119.935 88.9945 119.195 88.7695 118.605 88.3195C118.015 87.8695 117.67 87.2595 117.57 86.4895H118.86C118.94 86.8795 119.145 87.2195 119.475 87.5095C119.815 87.7895 120.27 87.9295 120.84 87.9295C121.37 87.9295 121.76 87.8195 122.01 87.5995C122.26 87.3695 122.385 87.0995 122.385 86.7895C122.385 86.3395 122.22 86.0395 121.89 85.8895C121.57 85.7395 121.115 85.6045 120.525 85.4845C120.125 85.4045 119.725 85.2895 119.325 85.1395C118.925 84.9895 118.59 84.7795 118.32 84.5095C118.05 84.2295 117.915 83.8645 117.915 83.4145C117.915 82.7645 118.155 82.2345 118.635 81.8245C119.125 81.4045 119.785 81.1945 120.615 81.1945C121.405 81.1945 122.05 81.3945 122.55 81.7945C123.06 82.1845 123.355 82.7445 123.435 83.4745H122.19C122.14 83.0945 121.975 82.7995 121.695 82.5895C121.425 82.3695 121.06 82.2595 120.6 82.2595C120.15 82.2595 119.8 82.3545 119.55 82.5445C119.31 82.7345 119.19 82.9845 119.19 83.2945C119.19 83.5945 119.345 83.8295 119.655 83.9995C119.975 84.1695 120.405 84.3145 120.945 84.4345C121.405 84.5345 121.84 84.6595 122.25 84.8095C122.67 84.9495 123.01 85.1645 123.27 85.4545C123.54 85.7345 123.675 86.1445 123.675 86.6845C123.685 87.3545 123.43 87.9095 122.91 88.3495C122.4 88.7795 121.705 88.9945 120.825 88.9945ZM128.895 88.9945C128.185 88.9945 127.545 88.8345 126.975 88.5145C126.415 88.1845 125.97 87.7295 125.64 87.1495C125.32 86.5595 125.16 85.8745 125.16 85.0945C125.16 84.3145 125.32 83.6345 125.64 83.0545C125.97 82.4645 126.415 82.0095 126.975 81.6895C127.545 81.3595 128.185 81.1945 128.895 81.1945C129.775 81.1945 130.515 81.4245 131.115 81.8845C131.725 82.3445 132.11 82.9595 132.27 83.7295H130.98C130.88 83.2695 130.635 82.9145 130.245 82.6645C129.855 82.4045 129.4 82.2745 128.88 82.2745C128.46 82.2745 128.065 82.3795 127.695 82.5895C127.325 82.7995 127.025 83.1145 126.795 83.5345C126.565 83.9545 126.45 84.4745 126.45 85.0945C126.45 85.7145 126.565 86.2345 126.795 86.6545C127.025 87.0745 127.325 87.3945 127.695 87.6145C128.065 87.8245 128.46 87.9295 128.88 87.9295C129.4 87.9295 129.855 87.8045 130.245 87.5545C130.635 87.2945 130.88 86.9295 130.98 86.4595H132.27C132.12 87.2095 131.74 87.8195 131.13 88.2895C130.52 88.7595 129.775 88.9945 128.895 88.9945ZM137.374 88.9945C136.664 88.9945 136.034 88.8345 135.484 88.5145C134.934 88.1845 134.499 87.7295 134.179 87.1495C133.869 86.5695 133.714 85.8845 133.714 85.0945C133.714 84.3145 133.869 83.6345 134.179 83.0545C134.489 82.4645 134.919 82.0095 135.469 81.6895C136.029 81.3595 136.674 81.1945 137.404 81.1945C138.124 81.1945 138.744 81.3595 139.264 81.6895C139.794 82.0095 140.199 82.4345 140.479 82.9645C140.759 83.4945 140.899 84.0645 140.899 84.6745C140.899 84.7845 140.894 84.8945 140.884 85.0045C140.884 85.1145 140.884 85.2395 140.884 85.3795H134.959C134.989 85.9495 135.119 86.4245 135.349 86.8045C135.589 87.1745 135.884 87.4545 136.234 87.6445C136.594 87.8345 136.974 87.9295 137.374 87.9295C137.894 87.9295 138.329 87.8095 138.679 87.5695C139.029 87.3295 139.284 87.0045 139.444 86.5945H140.689C140.489 87.2845 140.104 87.8595 139.534 88.3195C138.974 88.7695 138.254 88.9945 137.374 88.9945ZM137.374 82.2595C136.774 82.2595 136.239 82.4445 135.769 82.8145C135.309 83.1745 135.044 83.7045 134.974 84.4045H139.654C139.624 83.7345 139.394 83.2095 138.964 82.8295C138.534 82.4495 138.004 82.2595 137.374 82.2595ZM142.569 88.8145V81.3745H143.709L143.784 82.7095C144.024 82.2395 144.369 81.8695 144.819 81.5995C145.269 81.3295 145.779 81.1945 146.349 81.1945C147.229 81.1945 147.929 81.4645 148.449 82.0045C148.979 82.5345 149.244 83.3545 149.244 84.4645V88.8145H147.984V84.5995C147.984 83.0495 147.344 82.2745 146.064 82.2745C145.424 82.2745 144.889 82.5095 144.459 82.9795C144.039 83.4395 143.829 84.0995 143.829 84.9595V88.8145H142.569ZM153.628 88.9945C153.008 88.9945 152.493 88.8895 152.083 88.6795C151.673 88.4695 151.368 88.1895 151.168 87.8395C150.968 87.4895 150.868 87.1095 150.868 86.6995C150.868 85.9395 151.158 85.3545 151.738 84.9445C152.318 84.5345 153.108 84.3295 154.108 84.3295H156.118V84.2395C156.118 83.5895 155.948 83.0995 155.608 82.7695C155.268 82.4295 154.813 82.2595 154.243 82.2595C153.753 82.2595 153.328 82.3845 152.968 82.6345C152.618 82.8745 152.398 83.2295 152.308 83.6995H151.018C151.068 83.1595 151.248 82.7045 151.558 82.3345C151.878 81.9645 152.273 81.6845 152.743 81.4945C153.213 81.2945 153.713 81.1945 154.243 81.1945C155.283 81.1945 156.063 81.4745 156.583 82.0345C157.113 82.5845 157.378 83.3195 157.378 84.2395V88.8145H156.253L156.178 87.4795C155.968 87.8995 155.658 88.2595 155.248 88.5595C154.848 88.8495 154.308 88.9945 153.628 88.9945ZM153.823 87.9295C154.303 87.9295 154.713 87.8045 155.053 87.5545C155.403 87.3045 155.668 86.9795 155.848 86.5795C156.028 86.1795 156.118 85.7595 156.118 85.3195V85.3045H154.213C153.473 85.3045 152.948 85.4345 152.638 85.6945C152.338 85.9445 152.188 86.2595 152.188 86.6395C152.188 87.0295 152.328 87.3445 152.608 87.5845C152.898 87.8145 153.303 87.9295 153.823 87.9295ZM159.269 88.8145V81.3745H160.409L160.514 82.7995C160.744 82.3095 161.094 81.9195 161.564 81.6295C162.034 81.3395 162.614 81.1945 163.304 81.1945V82.5145H162.959C162.519 82.5145 162.114 82.5945 161.744 82.7545C161.374 82.9045 161.079 83.1645 160.859 83.5345C160.639 83.9045 160.529 84.4145 160.529 85.0645V88.8145H159.269ZM165.483 79.7245C165.233 79.7245 165.023 79.6445 164.853 79.4845C164.693 79.3145 164.613 79.1045 164.613 78.8545C164.613 78.6145 164.693 78.4145 164.853 78.2545C165.023 78.0945 165.233 78.0145 165.483 78.0145C165.723 78.0145 165.928 78.0945 166.098 78.2545C166.268 78.4145 166.353 78.6145 166.353 78.8545C166.353 79.1045 166.268 79.3145 166.098 79.4845C165.928 79.6445 165.723 79.7245 165.483 79.7245ZM164.853 88.8145V81.3745H166.113V88.8145H164.853ZM171.697 88.9945C170.997 88.9945 170.367 88.8345 169.807 88.5145C169.247 88.1945 168.802 87.7445 168.472 87.1645C168.152 86.5745 167.992 85.8845 167.992 85.0945C167.992 84.3045 168.157 83.6195 168.487 83.0395C168.817 82.4495 169.262 81.9945 169.822 81.6745C170.392 81.3545 171.027 81.1945 171.727 81.1945C172.427 81.1945 173.057 81.3545 173.617 81.6745C174.177 81.9945 174.617 82.4495 174.937 83.0395C175.267 83.6195 175.432 84.3045 175.432 85.0945C175.432 85.8845 175.267 86.5745 174.937 87.1645C174.607 87.7445 174.157 88.1945 173.587 88.5145C173.027 88.8345 172.397 88.9945 171.697 88.9945ZM171.697 87.9145C172.127 87.9145 172.527 87.8095 172.897 87.5995C173.267 87.3895 173.567 87.0745 173.797 86.6545C174.027 86.2345 174.142 85.7145 174.142 85.0945C174.142 84.4745 174.027 83.9545 173.797 83.5345C173.577 83.1145 173.282 82.7995 172.912 82.5895C172.542 82.3795 172.147 82.2745 171.727 82.2745C171.297 82.2745 170.897 82.3795 170.527 82.5895C170.157 82.7995 169.857 83.1145 169.627 83.5345C169.397 83.9545 169.282 84.4745 169.282 85.0945C169.282 85.7145 169.397 86.2345 169.627 86.6545C169.857 87.0745 170.152 87.3895 170.512 87.5995C170.882 87.8095 171.277 87.9145 171.697 87.9145ZM180.034 88.9945C179.144 88.9945 178.404 88.7695 177.814 88.3195C177.224 87.8695 176.879 87.2595 176.779 86.4895H178.069C178.149 86.8795 178.354 87.2195 178.684 87.5095C179.024 87.7895 179.479 87.9295 180.049 87.9295C180.579 87.9295 180.969 87.8195 181.219 87.5995C181.469 87.3695 181.594 87.0995 181.594 86.7895C181.594 86.3395 181.429 86.0395 181.099 85.8895C180.779 85.7395 180.324 85.6045 179.734 85.4845C179.334 85.4045 178.934 85.2895 178.534 85.1395C178.134 84.9895 177.799 84.7795 177.529 84.5095C177.259 84.2295 177.124 83.8645 177.124 83.4145C177.124 82.7645 177.364 82.2345 177.844 81.8245C178.334 81.4045 178.994 81.1945 179.824 81.1945C180.614 81.1945 181.259 81.3945 181.759 81.7945C182.269 82.1845 182.564 82.7445 182.644 83.4745H181.399C181.349 83.0945 181.184 82.7995 180.904 82.5895C180.634 82.3695 180.269 82.2595 179.809 82.2595C179.359 82.2595 179.009 82.3545 178.759 82.5445C178.519 82.7345 178.399 82.9845 178.399 83.2945C178.399 83.5945 178.554 83.8295 178.864 83.9995C179.184 84.1695 179.614 84.3145 180.154 84.4345C180.614 84.5345 181.049 84.6595 181.459 84.8095C181.879 84.9495 182.219 85.1645 182.479 85.4545C182.749 85.7345 182.884 86.1445 182.884 86.6845C182.894 87.3545 182.639 87.9095 182.119 88.3495C181.609 88.7795 180.914 88.9945 180.034 88.9945ZM46.9146 108.994C46.2946 108.994 45.7796 108.889 45.3696 108.679C44.9596 108.469 44.6546 108.189 44.4546 107.839C44.2546 107.489 44.1546 107.109 44.1546 106.699C44.1546 105.939 44.4446 105.354 45.0246 104.944C45.6046 104.534 46.3946 104.329 47.3946 104.329H49.4046V104.239C49.4046 103.589 49.2346 103.099 48.8946 102.769C48.5546 102.429 48.0996 102.259 47.5296 102.259C47.0396 102.259 46.6146 102.384 46.2546 102.634C45.9046 102.874 45.6846 103.229 45.5946 103.699H44.3046C44.3546 103.159 44.5346 102.704 44.8446 102.334C45.1646 101.964 45.5596 101.684 46.0296 101.494C46.4996 101.294 46.9996 101.194 47.5296 101.194C48.5696 101.194 49.3496 101.474 49.8696 102.034C50.3996 102.584 50.6646 103.319 50.6646 104.239V108.814H49.5396L49.4646 107.479C49.2546 107.899 48.9446 108.259 48.5346 108.559C48.1346 108.849 47.5946 108.994 46.9146 108.994ZM47.1096 107.929C47.5896 107.929 47.9996 107.804 48.3396 107.554C48.6896 107.304 48.9546 106.979 49.1346 106.579C49.3146 106.179 49.4046 105.759 49.4046 105.319V105.304H47.4996C46.7596 105.304 46.2346 105.434 45.9246 105.694C45.6246 105.944 45.4746 106.259 45.4746 106.639C45.4746 107.029 45.6146 107.344 45.8946 107.584C46.1846 107.814 46.5896 107.929 47.1096 107.929ZM52.5548 108.814V101.374H53.6948L53.7998 102.799C54.0298 102.309 54.3798 101.919 54.8498 101.629C55.3198 101.339 55.8998 101.194 56.5898 101.194V102.514H56.2448C55.8048 102.514 55.3998 102.594 55.0298 102.754C54.6598 102.904 54.3648 103.164 54.1448 103.534C53.9248 103.904 53.8148 104.414 53.8148 105.064V108.814H52.5548ZM61.0707 108.994C60.3607 108.994 59.7307 108.834 59.1807 108.514C58.6307 108.184 58.1957 107.729 57.8757 107.149C57.5657 106.569 57.4107 105.884 57.4107 105.094C57.4107 104.314 57.5657 103.634 57.8757 103.054C58.1857 102.464 58.6157 102.009 59.1657 101.689C59.7257 101.359 60.3707 101.194 61.1007 101.194C61.8207 101.194 62.4407 101.359 62.9607 101.689C63.4907 102.009 63.8957 102.434 64.1757 102.964C64.4557 103.494 64.5957 104.064 64.5957 104.674C64.5957 104.784 64.5907 104.894 64.5807 105.004C64.5807 105.114 64.5807 105.239 64.5807 105.379H58.6557C58.6857 105.949 58.8157 106.424 59.0457 106.804C59.2857 107.174 59.5807 107.454 59.9307 107.644C60.2907 107.834 60.6707 107.929 61.0707 107.929C61.5907 107.929 62.0257 107.809 62.3757 107.569C62.7257 107.329 62.9807 107.004 63.1407 106.594H64.3857C64.1857 107.284 63.8007 107.859 63.2307 108.319C62.6707 108.769 61.9507 108.994 61.0707 108.994ZM61.0707 102.259C60.4707 102.259 59.9357 102.444 59.4657 102.814C59.0057 103.174 58.7407 103.704 58.6707 104.404H63.3507C63.3207 103.734 63.0907 103.209 62.6607 102.829C62.2307 102.449 61.7007 102.259 61.0707 102.259ZM70.2355 112.114V101.374H71.3755L71.4955 102.604C71.7355 102.244 72.0755 101.919 72.5155 101.629C72.9655 101.339 73.5355 101.194 74.2255 101.194C74.9655 101.194 75.6105 101.364 76.1605 101.704C76.7105 102.044 77.1355 102.509 77.4355 103.099C77.7455 103.689 77.9005 104.359 77.9005 105.109C77.9005 105.859 77.7455 106.529 77.4355 107.119C77.1355 107.699 76.7055 108.159 76.1455 108.499C75.5955 108.829 74.9505 108.994 74.2105 108.994C73.6005 108.994 73.0555 108.869 72.5755 108.619C72.1055 108.369 71.7455 108.019 71.4955 107.569V112.114H70.2355ZM74.0755 107.899C74.5755 107.899 75.0155 107.784 75.3955 107.554C75.7755 107.314 76.0755 106.984 76.2955 106.564C76.5155 106.144 76.6255 105.654 76.6255 105.094C76.6255 104.534 76.5155 104.044 76.2955 103.624C76.0755 103.204 75.7755 102.879 75.3955 102.649C75.0155 102.409 74.5755 102.289 74.0755 102.289C73.5755 102.289 73.1355 102.409 72.7555 102.649C72.3755 102.879 72.0755 103.204 71.8555 103.624C71.6355 104.044 71.5255 104.534 71.5255 105.094C71.5255 105.654 71.6355 106.144 71.8555 106.564C72.0755 106.984 72.3755 107.314 72.7555 107.554C73.1355 107.784 73.5755 107.899 74.0755 107.899ZM79.6544 108.814V101.374H80.7944L80.8994 102.799C81.1294 102.309 81.4794 101.919 81.9494 101.629C82.4194 101.339 82.9994 101.194 83.6894 101.194V102.514H83.3444C82.9044 102.514 82.4994 102.594 82.1294 102.754C81.7594 102.904 81.4644 103.164 81.2444 103.534C81.0244 103.904 80.9144 104.414 80.9144 105.064V108.814H79.6544ZM88.1703 108.994C87.4603 108.994 86.8303 108.834 86.2803 108.514C85.7303 108.184 85.2953 107.729 84.9753 107.149C84.6653 106.569 84.5103 105.884 84.5103 105.094C84.5103 104.314 84.6653 103.634 84.9753 103.054C85.2853 102.464 85.7153 102.009 86.2653 101.689C86.8253 101.359 87.4703 101.194 88.2003 101.194C88.9203 101.194 89.5403 101.359 90.0603 101.689C90.5903 102.009 90.9953 102.434 91.2753 102.964C91.5553 103.494 91.6953 104.064 91.6953 104.674C91.6953 104.784 91.6903 104.894 91.6803 105.004C91.6803 105.114 91.6803 105.239 91.6803 105.379H85.7553C85.7853 105.949 85.9153 106.424 86.1453 106.804C86.3853 107.174 86.6803 107.454 87.0303 107.644C87.3903 107.834 87.7703 107.929 88.1703 107.929C88.6903 107.929 89.1253 107.809 89.4753 107.569C89.8253 107.329 90.0803 107.004 90.2403 106.594H91.4853C91.2853 107.284 90.9003 107.859 90.3303 108.319C89.7703 108.769 89.0503 108.994 88.1703 108.994ZM88.1703 102.259C87.5703 102.259 87.0353 102.444 86.5653 102.814C86.1053 103.174 85.8403 103.704 85.7703 104.404H90.4503C90.4203 103.734 90.1903 103.209 89.7603 102.829C89.3303 102.449 88.8003 102.259 88.1703 102.259ZM96.2154 108.994C95.3254 108.994 94.5854 108.769 93.9954 108.319C93.4054 107.869 93.0604 107.259 92.9604 106.489H94.2504C94.3304 106.879 94.5354 107.219 94.8654 107.509C95.2054 107.789 95.6604 107.929 96.2304 107.929C96.7604 107.929 97.1504 107.819 97.4004 107.599C97.6504 107.369 97.7754 107.099 97.7754 106.789C97.7754 106.339 97.6104 106.039 97.2804 105.889C96.9604 105.739 96.5054 105.604 95.9154 105.484C95.5154 105.404 95.1154 105.289 94.7154 105.139C94.3154 104.989 93.9804 104.779 93.7104 104.509C93.4404 104.229 93.3054 103.864 93.3054 103.414C93.3054 102.764 93.5454 102.234 94.0254 101.824C94.5154 101.404 95.1754 101.194 96.0054 101.194C96.7954 101.194 97.4404 101.394 97.9404 101.794C98.4504 102.184 98.7454 102.744 98.8254 103.474H97.5804C97.5304 103.094 97.3654 102.799 97.0854 102.589C96.8154 102.369 96.4504 102.259 95.9904 102.259C95.5404 102.259 95.1904 102.354 94.9404 102.544C94.7004 102.734 94.5804 102.984 94.5804 103.294C94.5804 103.594 94.7354 103.829 95.0454 103.999C95.3654 104.169 95.7954 104.314 96.3354 104.434C96.7954 104.534 97.2304 104.659 97.6404 104.809C98.0604 104.949 98.4004 105.164 98.6604 105.454C98.9304 105.734 99.0654 106.144 99.0654 106.684C99.0754 107.354 98.8204 107.909 98.3004 108.349C97.7904 108.779 97.0954 108.994 96.2154 108.994ZM104.21 108.994C103.5 108.994 102.87 108.834 102.32 108.514C101.77 108.184 101.335 107.729 101.015 107.149C100.705 106.569 100.55 105.884 100.55 105.094C100.55 104.314 100.705 103.634 101.015 103.054C101.325 102.464 101.755 102.009 102.305 101.689C102.865 101.359 103.51 101.194 104.24 101.194C104.96 101.194 105.58 101.359 106.1 101.689C106.63 102.009 107.035 102.434 107.315 102.964C107.595 103.494 107.735 104.064 107.735 104.674C107.735 104.784 107.73 104.894 107.72 105.004C107.72 105.114 107.72 105.239 107.72 105.379H101.795C101.825 105.949 101.955 106.424 102.185 106.804C102.425 107.174 102.72 107.454 103.07 107.644C103.43 107.834 103.81 107.929 104.21 107.929C104.73 107.929 105.165 107.809 105.515 107.569C105.865 107.329 106.12 107.004 106.28 106.594H107.525C107.325 107.284 106.94 107.859 106.37 108.319C105.81 108.769 105.09 108.994 104.21 108.994ZM104.21 102.259C103.61 102.259 103.075 102.444 102.605 102.814C102.145 103.174 101.88 103.704 101.81 104.404H106.49C106.46 103.734 106.23 103.209 105.8 102.829C105.37 102.449 104.84 102.259 104.21 102.259ZM109.405 108.814V101.374H110.545L110.62 102.709C110.86 102.239 111.205 101.869 111.655 101.599C112.105 101.329 112.615 101.194 113.185 101.194C114.065 101.194 114.765 101.464 115.285 102.004C115.815 102.534 116.08 103.354 116.08 104.464V108.814H114.82V104.599C114.82 103.049 114.18 102.274 112.9 102.274C112.26 102.274 111.725 102.509 111.295 102.979C110.875 103.439 110.665 104.099 110.665 104.959V108.814H109.405ZM120.929 108.814C120.249 108.814 119.714 108.649 119.324 108.319C118.934 107.989 118.739 107.394 118.739 106.534V102.439H117.449V101.374H118.739L118.904 99.5895H119.999V101.374H122.189V102.439H119.999V106.534C119.999 107.004 120.094 107.324 120.284 107.494C120.474 107.654 120.809 107.734 121.289 107.734H122.069V108.814H120.929ZM126.93 108.994C126.22 108.994 125.59 108.834 125.04 108.514C124.49 108.184 124.055 107.729 123.735 107.149C123.425 106.569 123.27 105.884 123.27 105.094C123.27 104.314 123.425 103.634 123.735 103.054C124.045 102.464 124.475 102.009 125.025 101.689C125.585 101.359 126.23 101.194 126.96 101.194C127.68 101.194 128.3 101.359 128.82 101.689C129.35 102.009 129.755 102.434 130.035 102.964C130.315 103.494 130.455 104.064 130.455 104.674C130.455 104.784 130.45 104.894 130.44 105.004C130.44 105.114 130.44 105.239 130.44 105.379H124.515C124.545 105.949 124.675 106.424 124.905 106.804C125.145 107.174 125.44 107.454 125.79 107.644C126.15 107.834 126.53 107.929 126.93 107.929C127.45 107.929 127.885 107.809 128.235 107.569C128.585 107.329 128.84 107.004 129 106.594H130.245C130.045 107.284 129.66 107.859 129.09 108.319C128.53 108.769 127.81 108.994 126.93 108.994ZM126.93 102.259C126.33 102.259 125.795 102.444 125.325 102.814C124.865 103.174 124.6 103.704 124.53 104.404H129.21C129.18 103.734 128.95 103.209 128.52 102.829C128.09 102.449 127.56 102.259 126.93 102.259ZM135.5 108.994C134.76 108.994 134.11 108.824 133.55 108.484C133 108.144 132.57 107.679 132.26 107.089C131.96 106.499 131.81 105.829 131.81 105.079C131.81 104.329 131.965 103.664 132.275 103.084C132.585 102.494 133.015 102.034 133.565 101.704C134.115 101.364 134.765 101.194 135.515 101.194C136.125 101.194 136.665 101.319 137.135 101.569C137.605 101.819 137.97 102.169 138.23 102.619V98.0145H139.49V108.814H138.35L138.23 107.584C137.99 107.944 137.645 108.269 137.195 108.559C136.745 108.849 136.18 108.994 135.5 108.994ZM135.635 107.899C136.135 107.899 136.575 107.784 136.955 107.554C137.345 107.314 137.645 106.984 137.855 106.564C138.075 106.144 138.185 105.654 138.185 105.094C138.185 104.534 138.075 104.044 137.855 103.624C137.645 103.204 137.345 102.879 136.955 102.649C136.575 102.409 136.135 102.289 135.635 102.289C135.145 102.289 134.705 102.409 134.315 102.649C133.935 102.879 133.635 103.204 133.415 103.624C133.205 104.044 133.1 104.534 133.1 105.094C133.1 105.654 133.205 106.144 133.415 106.564C133.635 106.984 133.935 107.314 134.315 107.554C134.705 107.784 135.145 107.899 135.635 107.899ZM147.989 108.994C147.369 108.994 146.854 108.889 146.444 108.679C146.034 108.469 145.729 108.189 145.529 107.839C145.329 107.489 145.229 107.109 145.229 106.699C145.229 105.939 145.519 105.354 146.099 104.944C146.679 104.534 147.469 104.329 148.469 104.329H150.479V104.239C150.479 103.589 150.309 103.099 149.969 102.769C149.629 102.429 149.174 102.259 148.604 102.259C148.114 102.259 147.689 102.384 147.329 102.634C146.979 102.874 146.759 103.229 146.669 103.699H145.379C145.429 103.159 145.609 102.704 145.919 102.334C146.239 101.964 146.634 101.684 147.104 101.494C147.574 101.294 148.074 101.194 148.604 101.194C149.644 101.194 150.424 101.474 150.944 102.034C151.474 102.584 151.739 103.319 151.739 104.239V108.814H150.614L150.539 107.479C150.329 107.899 150.019 108.259 149.609 108.559C149.209 108.849 148.669 108.994 147.989 108.994ZM148.184 107.929C148.664 107.929 149.074 107.804 149.414 107.554C149.764 107.304 150.029 106.979 150.209 106.579C150.389 106.179 150.479 105.759 150.479 105.319V105.304H148.574C147.834 105.304 147.309 105.434 146.999 105.694C146.699 105.944 146.549 106.259 146.549 106.639C146.549 107.029 146.689 107.344 146.969 107.584C147.259 107.814 147.664 107.929 148.184 107.929ZM153.629 108.814V101.374H154.769L154.844 102.709C155.084 102.239 155.429 101.869 155.879 101.599C156.329 101.329 156.839 101.194 157.409 101.194C158.289 101.194 158.989 101.464 159.509 102.004C160.039 102.534 160.304 103.354 160.304 104.464V108.814H159.044V104.599C159.044 103.049 158.404 102.274 157.124 102.274C156.484 102.274 155.949 102.509 155.519 102.979C155.099 103.439 154.889 104.099 154.889 104.959V108.814H153.629ZM165.588 108.994C164.848 108.994 164.198 108.824 163.638 108.484C163.088 108.144 162.658 107.679 162.348 107.089C162.048 106.499 161.898 105.829 161.898 105.079C161.898 104.329 162.053 103.664 162.363 103.084C162.673 102.494 163.103 102.034 163.653 101.704C164.203 101.364 164.853 101.194 165.603 101.194C166.213 101.194 166.753 101.319 167.223 101.569C167.693 101.819 168.058 102.169 168.318 102.619V98.0145H169.578V108.814H168.438L168.318 107.584C168.078 107.944 167.733 108.269 167.283 108.559C166.833 108.849 166.268 108.994 165.588 108.994ZM165.723 107.899C166.223 107.899 166.663 107.784 167.043 107.554C167.433 107.314 167.733 106.984 167.943 106.564C168.163 106.144 168.273 105.654 168.273 105.094C168.273 104.534 168.163 104.044 167.943 103.624C167.733 103.204 167.433 102.879 167.043 102.649C166.663 102.409 166.223 102.289 165.723 102.289C165.233 102.289 164.793 102.409 164.403 102.649C164.023 102.879 163.723 103.204 163.503 103.624C163.293 104.044 163.188 104.534 163.188 105.094C163.188 105.654 163.293 106.144 163.503 106.564C163.723 106.984 164.023 107.314 164.403 107.554C164.793 107.784 165.233 107.899 165.723 107.899ZM42.5697 128.994C41.8597 128.994 41.2297 128.834 40.6797 128.514C40.1297 128.184 39.6947 127.729 39.3747 127.149C39.0647 126.569 38.9097 125.884 38.9097 125.094C38.9097 124.314 39.0647 123.634 39.3747 123.054C39.6847 122.464 40.1147 122.009 40.6647 121.689C41.2247 121.359 41.8697 121.194 42.5997 121.194C43.3197 121.194 43.9397 121.359 44.4597 121.689C44.9897 122.009 45.3947 122.434 45.6747 122.964C45.9547 123.494 46.0947 124.064 46.0947 124.674C46.0947 124.784 46.0897 124.894 46.0797 125.004C46.0797 125.114 46.0797 125.239 46.0797 125.379H40.1547C40.1847 125.949 40.3147 126.424 40.5447 126.804C40.7847 127.174 41.0797 127.454 41.4297 127.644C41.7897 127.834 42.1697 127.929 42.5697 127.929C43.0897 127.929 43.5247 127.809 43.8747 127.569C44.2247 127.329 44.4797 127.004 44.6397 126.594H45.8847C45.6847 127.284 45.2997 127.859 44.7297 128.319C44.1697 128.769 43.4497 128.994 42.5697 128.994ZM42.5697 122.259C41.9697 122.259 41.4347 122.444 40.9647 122.814C40.5047 123.174 40.2397 123.704 40.1697 124.404H44.8497C44.8197 123.734 44.5897 123.209 44.1597 122.829C43.7297 122.449 43.1997 122.259 42.5697 122.259ZM49.6168 128.814L46.7968 121.374H48.1168L50.3518 127.599L52.6018 121.374H53.8918L51.0718 128.814H49.6168ZM58.2582 128.994C57.5482 128.994 56.9182 128.834 56.3682 128.514C55.8182 128.184 55.3832 127.729 55.0632 127.149C54.7532 126.569 54.5982 125.884 54.5982 125.094C54.5982 124.314 54.7532 123.634 55.0632 123.054C55.3732 122.464 55.8032 122.009 56.3532 121.689C56.9132 121.359 57.5582 121.194 58.2882 121.194C59.0082 121.194 59.6282 121.359 60.1482 121.689C60.6782 122.009 61.0832 122.434 61.3632 122.964C61.6432 123.494 61.7832 124.064 61.7832 124.674C61.7832 124.784 61.7782 124.894 61.7682 125.004C61.7682 125.114 61.7682 125.239 61.7682 125.379H55.8432C55.8732 125.949 56.0032 126.424 56.2332 126.804C56.4732 127.174 56.7682 127.454 57.1182 127.644C57.4782 127.834 57.8582 127.929 58.2582 127.929C58.7782 127.929 59.2132 127.809 59.5632 127.569C59.9132 127.329 60.1682 127.004 60.3282 126.594H61.5732C61.3732 127.284 60.9882 127.859 60.4182 128.319C59.8582 128.769 59.1382 128.994 58.2582 128.994ZM58.2582 122.259C57.6582 122.259 57.1232 122.444 56.6532 122.814C56.1932 123.174 55.9282 123.704 55.8582 124.404H60.5382C60.5082 123.734 60.2782 123.209 59.8482 122.829C59.4182 122.449 58.8882 122.259 58.2582 122.259ZM63.4532 128.814V121.374H64.5932L64.6982 122.799C64.9282 122.309 65.2782 121.919 65.7482 121.629C66.2182 121.339 66.7982 121.194 67.4882 121.194V122.514H67.1432C66.7032 122.514 66.2982 122.594 65.9282 122.754C65.5582 122.904 65.2632 123.164 65.0432 123.534C64.8232 123.904 64.7132 124.414 64.7132 125.064V128.814H63.4532ZM69.7125 132.114L71.5575 128.094H71.1225L68.1675 121.374H69.5325L71.9925 127.164L74.6025 121.374H75.9075L71.0325 132.114H69.7125ZM79.9243 128.994C79.2243 128.994 78.5943 128.834 78.0343 128.514C77.4743 128.194 77.0293 127.744 76.6993 127.164C76.3793 126.574 76.2193 125.884 76.2193 125.094C76.2193 124.304 76.3843 123.619 76.7143 123.039C77.0443 122.449 77.4893 121.994 78.0493 121.674C78.6193 121.354 79.2543 121.194 79.9543 121.194C80.6543 121.194 81.2843 121.354 81.8443 121.674C82.4043 121.994 82.8443 122.449 83.1643 123.039C83.4943 123.619 83.6593 124.304 83.6593 125.094C83.6593 125.884 83.4943 126.574 83.1643 127.164C82.8343 127.744 82.3843 128.194 81.8143 128.514C81.2543 128.834 80.6243 128.994 79.9243 128.994ZM79.9243 127.914C80.3543 127.914 80.7543 127.809 81.1243 127.599C81.4943 127.389 81.7943 127.074 82.0243 126.654C82.2543 126.234 82.3693 125.714 82.3693 125.094C82.3693 124.474 82.2543 123.954 82.0243 123.534C81.8043 123.114 81.5093 122.799 81.1393 122.589C80.7693 122.379 80.3743 122.274 79.9543 122.274C79.5243 122.274 79.1243 122.379 78.7543 122.589C78.3843 122.799 78.0843 123.114 77.8543 123.534C77.6243 123.954 77.5093 124.474 77.5093 125.094C77.5093 125.714 77.6243 126.234 77.8543 126.654C78.0843 127.074 78.3793 127.389 78.7393 127.599C79.1093 127.809 79.5043 127.914 79.9243 127.914ZM85.4113 128.814V121.374H86.5513L86.6263 122.709C86.8663 122.239 87.2113 121.869 87.6613 121.599C88.1113 121.329 88.6213 121.194 89.1913 121.194C90.0713 121.194 90.7713 121.464 91.2913 122.004C91.8213 122.534 92.0863 123.354 92.0863 124.464V128.814H90.8263V124.599C90.8263 123.049 90.1863 122.274 88.9063 122.274C88.2663 122.274 87.7313 122.509 87.3013 122.979C86.8813 123.439 86.6713 124.099 86.6713 124.959V128.814H85.4113ZM97.3402 128.994C96.6302 128.994 96.0002 128.834 95.4502 128.514C94.9002 128.184 94.4652 127.729 94.1452 127.149C93.8352 126.569 93.6802 125.884 93.6802 125.094C93.6802 124.314 93.8352 123.634 94.1452 123.054C94.4552 122.464 94.8852 122.009 95.4352 121.689C95.9952 121.359 96.6402 121.194 97.3702 121.194C98.0902 121.194 98.7102 121.359 99.2302 121.689C99.7602 122.009 100.165 122.434 100.445 122.964C100.725 123.494 100.865 124.064 100.865 124.674C100.865 124.784 100.86 124.894 100.85 125.004C100.85 125.114 100.85 125.239 100.85 125.379H94.9252C94.9552 125.949 95.0852 126.424 95.3152 126.804C95.5552 127.174 95.8502 127.454 96.2002 127.644C96.5602 127.834 96.9402 127.929 97.3402 127.929C97.8602 127.929 98.2952 127.809 98.6452 127.569C98.9952 127.329 99.2502 127.004 99.4102 126.594H100.655C100.455 127.284 100.07 127.859 99.5002 128.319C98.9402 128.769 98.2202 128.994 97.3402 128.994ZM97.3402 122.259C96.7402 122.259 96.2052 122.444 95.7352 122.814C95.2752 123.174 95.0102 123.704 94.9402 124.404H99.6202C99.5902 123.734 99.3602 123.209 98.9302 122.829C98.5002 122.449 97.9702 122.259 97.3402 122.259ZM106.505 128.814V118.014H107.765V122.649C108.015 122.189 108.37 121.834 108.83 121.584C109.29 121.324 109.79 121.194 110.33 121.194C111.19 121.194 111.88 121.464 112.4 122.004C112.92 122.534 113.18 123.354 113.18 124.464V128.814H111.935V124.599C111.935 123.049 111.31 122.274 110.06 122.274C109.41 122.274 108.865 122.509 108.425 122.979C107.985 123.439 107.765 124.099 107.765 124.959V128.814H106.505ZM117.564 128.994C116.944 128.994 116.429 128.889 116.019 128.679C115.609 128.469 115.304 128.189 115.104 127.839C114.904 127.489 114.804 127.109 114.804 126.699C114.804 125.939 115.094 125.354 115.674 124.944C116.254 124.534 117.044 124.329 118.044 124.329H120.054V124.239C120.054 123.589 119.884 123.099 119.544 122.769C119.204 122.429 118.749 122.259 118.179 122.259C117.689 122.259 117.264 122.384 116.904 122.634C116.554 122.874 116.334 123.229 116.244 123.699H114.954C115.004 123.159 115.184 122.704 115.494 122.334C115.814 121.964 116.209 121.684 116.679 121.494C117.149 121.294 117.649 121.194 118.179 121.194C119.219 121.194 119.999 121.474 120.519 122.034C121.049 122.584 121.314 123.319 121.314 124.239V128.814H120.189L120.114 127.479C119.904 127.899 119.594 128.259 119.184 128.559C118.784 128.849 118.244 128.994 117.564 128.994ZM117.759 127.929C118.239 127.929 118.649 127.804 118.989 127.554C119.339 127.304 119.604 126.979 119.784 126.579C119.964 126.179 120.054 125.759 120.054 125.319V125.304H118.149C117.409 125.304 116.884 125.434 116.574 125.694C116.274 125.944 116.124 126.259 116.124 126.639C116.124 127.029 116.264 127.344 116.544 127.584C116.834 127.814 117.239 127.929 117.759 127.929ZM126.054 128.994C125.164 128.994 124.424 128.769 123.834 128.319C123.244 127.869 122.899 127.259 122.799 126.489H124.089C124.169 126.879 124.374 127.219 124.704 127.509C125.044 127.789 125.499 127.929 126.069 127.929C126.599 127.929 126.989 127.819 127.239 127.599C127.489 127.369 127.614 127.099 127.614 126.789C127.614 126.339 127.449 126.039 127.119 125.889C126.799 125.739 126.344 125.604 125.754 125.484C125.354 125.404 124.954 125.289 124.554 125.139C124.154 124.989 123.819 124.779 123.549 124.509C123.279 124.229 123.144 123.864 123.144 123.414C123.144 122.764 123.384 122.234 123.864 121.824C124.354 121.404 125.014 121.194 125.844 121.194C126.634 121.194 127.279 121.394 127.779 121.794C128.289 122.184 128.584 122.744 128.664 123.474H127.419C127.369 123.094 127.204 122.799 126.924 122.589C126.654 122.369 126.289 122.259 125.829 122.259C125.379 122.259 125.029 122.354 124.779 122.544C124.539 122.734 124.419 122.984 124.419 123.294C124.419 123.594 124.574 123.829 124.884 123.999C125.204 124.169 125.634 124.314 126.174 124.434C126.634 124.534 127.069 124.659 127.479 124.809C127.899 124.949 128.239 125.164 128.499 125.454C128.769 125.734 128.904 126.144 128.904 126.684C128.914 127.354 128.659 127.909 128.139 128.349C127.629 128.779 126.934 128.994 126.054 128.994ZM137.614 128.814C136.934 128.814 136.399 128.649 136.009 128.319C135.619 127.989 135.424 127.394 135.424 126.534V122.439H134.134V121.374H135.424L135.589 119.589H136.684V121.374H138.874V122.439H136.684V126.534C136.684 127.004 136.779 127.324 136.969 127.494C137.159 127.654 137.494 127.734 137.974 127.734H138.754V128.814H137.614ZM143.66 128.994C142.96 128.994 142.33 128.834 141.77 128.514C141.21 128.194 140.765 127.744 140.435 127.164C140.115 126.574 139.955 125.884 139.955 125.094C139.955 124.304 140.12 123.619 140.45 123.039C140.78 122.449 141.225 121.994 141.785 121.674C142.355 121.354 142.99 121.194 143.69 121.194C144.39 121.194 145.02 121.354 145.58 121.674C146.14 121.994 146.58 122.449 146.9 123.039C147.23 123.619 147.395 124.304 147.395 125.094C147.395 125.884 147.23 126.574 146.9 127.164C146.57 127.744 146.12 128.194 145.55 128.514C144.99 128.834 144.36 128.994 143.66 128.994ZM143.66 127.914C144.09 127.914 144.49 127.809 144.86 127.599C145.23 127.389 145.53 127.074 145.76 126.654C145.99 126.234 146.105 125.714 146.105 125.094C146.105 124.474 145.99 123.954 145.76 123.534C145.54 123.114 145.245 122.799 144.875 122.589C144.505 122.379 144.11 122.274 143.69 122.274C143.26 122.274 142.86 122.379 142.49 122.589C142.12 122.799 141.82 123.114 141.59 123.534C141.36 123.954 141.245 124.474 141.245 125.094C141.245 125.714 141.36 126.234 141.59 126.654C141.82 127.074 142.115 127.389 142.475 127.599C142.845 127.809 143.24 127.914 143.66 127.914ZM155.966 128.994C155.076 128.994 154.336 128.769 153.746 128.319C153.156 127.869 152.811 127.259 152.711 126.489H154.001C154.081 126.879 154.286 127.219 154.616 127.509C154.956 127.789 155.411 127.929 155.981 127.929C156.511 127.929 156.901 127.819 157.151 127.599C157.401 127.369 157.526 127.099 157.526 126.789C157.526 126.339 157.361 126.039 157.031 125.889C156.711 125.739 156.256 125.604 155.666 125.484C155.266 125.404 154.866 125.289 154.466 125.139C154.066 124.989 153.731 124.779 153.461 124.509C153.191 124.229 153.056 123.864 153.056 123.414C153.056 122.764 153.296 122.234 153.776 121.824C154.266 121.404 154.926 121.194 155.756 121.194C156.546 121.194 157.191 121.394 157.691 121.794C158.201 122.184 158.496 122.744 158.576 123.474H157.331C157.281 123.094 157.116 122.799 156.836 122.589C156.566 122.369 156.201 122.259 155.741 122.259C155.291 122.259 154.941 122.354 154.691 122.544C154.451 122.734 154.331 122.984 154.331 123.294C154.331 123.594 154.486 123.829 154.796 123.999C155.116 124.169 155.546 124.314 156.086 124.434C156.546 124.534 156.981 124.659 157.391 124.809C157.811 124.949 158.151 125.164 158.411 125.454C158.681 125.734 158.816 126.144 158.816 126.684C158.826 127.354 158.571 127.909 158.051 128.349C157.541 128.779 156.846 128.994 155.966 128.994ZM163.091 128.994C162.471 128.994 161.956 128.889 161.546 128.679C161.136 128.469 160.831 128.189 160.631 127.839C160.431 127.489 160.331 127.109 160.331 126.699C160.331 125.939 160.621 125.354 161.201 124.944C161.781 124.534 162.571 124.329 163.571 124.329H165.581V124.239C165.581 123.589 165.411 123.099 165.071 122.769C164.731 122.429 164.276 122.259 163.706 122.259C163.216 122.259 162.791 122.384 162.431 122.634C162.081 122.874 161.861 123.229 161.771 123.699H160.481C160.531 123.159 160.711 122.704 161.021 122.334C161.341 121.964 161.736 121.684 162.206 121.494C162.676 121.294 163.176 121.194 163.706 121.194C164.746 121.194 165.526 121.474 166.046 122.034C166.576 122.584 166.841 123.319 166.841 124.239V128.814H165.716L165.641 127.479C165.431 127.899 165.121 128.259 164.711 128.559C164.311 128.849 163.771 128.994 163.091 128.994ZM163.286 127.929C163.766 127.929 164.176 127.804 164.516 127.554C164.866 127.304 165.131 126.979 165.311 126.579C165.491 126.179 165.581 125.759 165.581 125.319V125.304H163.676C162.936 125.304 162.411 125.434 162.101 125.694C161.801 125.944 161.651 126.259 161.651 126.639C161.651 127.029 161.791 127.344 162.071 127.584C162.361 127.814 162.766 127.929 163.286 127.929ZM169.322 132.114L171.167 128.094H170.732L167.777 121.374H169.142L171.602 127.164L174.212 121.374H175.517L170.642 132.114H169.322ZM50.4659 148.814L48.2909 141.374H49.5509L51.1259 147.209L52.8659 141.374H54.2909L56.0459 147.209L57.6059 141.374H58.8809L56.7059 148.814H55.4159L53.5859 142.679L51.7559 148.814H50.4659ZM60.2745 148.814V138.014H61.5345V142.649C61.7845 142.189 62.1395 141.834 62.5995 141.584C63.0595 141.324 63.5595 141.194 64.0995 141.194C64.9595 141.194 65.6495 141.464 66.1695 142.004C66.6895 142.534 66.9495 143.354 66.9495 144.464V148.814H65.7045V144.599C65.7045 143.049 65.0795 142.274 63.8295 142.274C63.1795 142.274 62.6345 142.509 62.1945 142.979C61.7545 143.439 61.5345 144.099 61.5345 144.959V148.814H60.2745ZM69.6235 139.724C69.3735 139.724 69.1635 139.644 68.9935 139.484C68.8335 139.314 68.7535 139.104 68.7535 138.854C68.7535 138.614 68.8335 138.414 68.9935 138.254C69.1635 138.094 69.3735 138.014 69.6235 138.014C69.8635 138.014 70.0685 138.094 70.2385 138.254C70.4085 138.414 70.4935 138.614 70.4935 138.854C70.4935 139.104 70.4085 139.314 70.2385 139.484C70.0685 139.644 69.8635 139.724 69.6235 139.724ZM68.9935 148.814V141.374H70.2535V148.814H68.9935ZM75.8674 148.994C75.1574 148.994 74.5174 148.834 73.9474 148.514C73.3874 148.184 72.9424 147.729 72.6124 147.149C72.2924 146.559 72.1324 145.874 72.1324 145.094C72.1324 144.314 72.2924 143.634 72.6124 143.054C72.9424 142.464 73.3874 142.009 73.9474 141.689C74.5174 141.359 75.1574 141.194 75.8674 141.194C76.7474 141.194 77.4874 141.424 78.0874 141.884C78.6974 142.344 79.0824 142.959 79.2424 143.729H77.9524C77.8524 143.269 77.6074 142.914 77.2174 142.664C76.8274 142.404 76.3724 142.274 75.8524 142.274C75.4324 142.274 75.0374 142.379 74.6674 142.589C74.2974 142.799 73.9974 143.114 73.7674 143.534C73.5374 143.954 73.4224 144.474 73.4224 145.094C73.4224 145.714 73.5374 146.234 73.7674 146.654C73.9974 147.074 74.2974 147.394 74.6674 147.614C75.0374 147.824 75.4324 147.929 75.8524 147.929C76.3724 147.929 76.8274 147.804 77.2174 147.554C77.6074 147.294 77.8524 146.929 77.9524 146.459H79.2424C79.0924 147.209 78.7124 147.819 78.1024 148.289C77.4924 148.759 76.7474 148.994 75.8674 148.994ZM81.0021 148.814V138.014H82.2621V142.649C82.5121 142.189 82.8671 141.834 83.3271 141.584C83.7871 141.324 84.2871 141.194 84.8271 141.194C85.6871 141.194 86.3771 141.464 86.8971 142.004C87.4171 142.534 87.6771 143.354 87.6771 144.464V148.814H86.4321V144.599C86.4321 143.049 85.8071 142.274 84.5571 142.274C83.9071 142.274 83.3621 142.509 82.9221 142.979C82.4821 143.439 82.2621 144.099 82.2621 144.959V148.814H81.0021ZM96.9458 148.994C96.2458 148.994 95.6158 148.834 95.0558 148.514C94.4958 148.194 94.0508 147.744 93.7208 147.164C93.4008 146.574 93.2408 145.884 93.2408 145.094C93.2408 144.304 93.4058 143.619 93.7358 143.039C94.0658 142.449 94.5108 141.994 95.0708 141.674C95.6408 141.354 96.2758 141.194 96.9758 141.194C97.6758 141.194 98.3058 141.354 98.8658 141.674C99.4258 141.994 99.8658 142.449 100.186 143.039C100.516 143.619 100.681 144.304 100.681 145.094C100.681 145.884 100.516 146.574 100.186 147.164C99.8558 147.744 99.4058 148.194 98.8358 148.514C98.2758 148.834 97.6458 148.994 96.9458 148.994ZM96.9458 147.914C97.3758 147.914 97.7758 147.809 98.1458 147.599C98.5158 147.389 98.8158 147.074 99.0458 146.654C99.2758 146.234 99.3908 145.714 99.3908 145.094C99.3908 144.474 99.2758 143.954 99.0458 143.534C98.8258 143.114 98.5308 142.799 98.1608 142.589C97.7908 142.379 97.3958 142.274 96.9758 142.274C96.5458 142.274 96.1458 142.379 95.7758 142.589C95.4058 142.799 95.1058 143.114 94.8758 143.534C94.6458 143.954 94.5308 144.474 94.5308 145.094C94.5308 145.714 94.6458 146.234 94.8758 146.654C95.1058 147.074 95.4008 147.389 95.7608 147.599C96.1308 147.809 96.5258 147.914 96.9458 147.914ZM102.433 148.814V141.374H103.573L103.648 142.709C103.888 142.239 104.233 141.869 104.683 141.599C105.133 141.329 105.643 141.194 106.213 141.194C107.093 141.194 107.793 141.464 108.313 142.004C108.843 142.534 109.108 143.354 109.108 144.464V148.814H107.848V144.599C107.848 143.049 107.208 142.274 105.928 142.274C105.288 142.274 104.753 142.509 104.323 142.979C103.903 143.439 103.693 144.099 103.693 144.959V148.814H102.433ZM114.362 148.994C113.652 148.994 113.022 148.834 112.472 148.514C111.922 148.184 111.487 147.729 111.167 147.149C110.857 146.569 110.702 145.884 110.702 145.094C110.702 144.314 110.857 143.634 111.167 143.054C111.477 142.464 111.907 142.009 112.457 141.689C113.017 141.359 113.662 141.194 114.392 141.194C115.112 141.194 115.732 141.359 116.252 141.689C116.782 142.009 117.187 142.434 117.467 142.964C117.747 143.494 117.887 144.064 117.887 144.674C117.887 144.784 117.882 144.894 117.872 145.004C117.872 145.114 117.872 145.239 117.872 145.379H111.947C111.977 145.949 112.107 146.424 112.337 146.804C112.577 147.174 112.872 147.454 113.222 147.644C113.582 147.834 113.962 147.929 114.362 147.929C114.882 147.929 115.317 147.809 115.667 147.569C116.017 147.329 116.272 147.004 116.432 146.594H117.677C117.477 147.284 117.092 147.859 116.522 148.319C115.962 148.769 115.242 148.994 114.362 148.994ZM114.362 142.259C113.762 142.259 113.227 142.444 112.757 142.814C112.297 143.174 112.032 143.704 111.962 144.404H116.642C116.612 143.734 116.382 143.209 115.952 142.829C115.522 142.449 114.992 142.259 114.362 142.259ZM126.466 148.814C125.786 148.814 125.251 148.649 124.861 148.319C124.471 147.989 124.276 147.394 124.276 146.534V142.439H122.986V141.374H124.276L124.441 139.589H125.536V141.374H127.726V142.439H125.536V146.534C125.536 147.004 125.631 147.324 125.821 147.494C126.011 147.654 126.346 147.734 126.826 147.734H127.606V148.814H126.466ZM129.327 148.814V138.014H130.587V142.649C130.837 142.189 131.192 141.834 131.652 141.584C132.112 141.324 132.612 141.194 133.152 141.194C134.012 141.194 134.702 141.464 135.222 142.004C135.742 142.534 136.002 143.354 136.002 144.464V148.814H134.757V144.599C134.757 143.049 134.132 142.274 132.882 142.274C132.232 142.274 131.687 142.509 131.247 142.979C130.807 143.439 130.587 144.099 130.587 144.959V148.814H129.327ZM141.256 148.994C140.546 148.994 139.916 148.834 139.366 148.514C138.816 148.184 138.381 147.729 138.061 147.149C137.751 146.569 137.596 145.884 137.596 145.094C137.596 144.314 137.751 143.634 138.061 143.054C138.371 142.464 138.801 142.009 139.351 141.689C139.911 141.359 140.556 141.194 141.286 141.194C142.006 141.194 142.626 141.359 143.146 141.689C143.676 142.009 144.081 142.434 144.361 142.964C144.641 143.494 144.781 144.064 144.781 144.674C144.781 144.784 144.776 144.894 144.766 145.004C144.766 145.114 144.766 145.239 144.766 145.379H138.841C138.871 145.949 139.001 146.424 139.231 146.804C139.471 147.174 139.766 147.454 140.116 147.644C140.476 147.834 140.856 147.929 141.256 147.929C141.776 147.929 142.211 147.809 142.561 147.569C142.911 147.329 143.166 147.004 143.326 146.594H144.571C144.371 147.284 143.986 147.859 143.416 148.319C142.856 148.769 142.136 148.994 141.256 148.994ZM141.256 142.259C140.656 142.259 140.121 142.444 139.651 142.814C139.191 143.174 138.926 143.704 138.856 144.404H143.536C143.506 143.734 143.276 143.209 142.846 142.829C142.416 142.449 141.886 142.259 141.256 142.259ZM146.968 152.114L148.813 148.094H148.378L145.423 141.374H146.788L149.248 147.164L151.858 141.374H153.163L148.288 152.114H146.968ZM153.953 141.659L154.823 138.314H156.233L154.853 141.659H153.953ZM161.062 148.994C160.322 148.994 159.672 148.824 159.112 148.484C158.562 148.144 158.132 147.679 157.822 147.089C157.522 146.499 157.372 145.829 157.372 145.079C157.372 144.329 157.527 143.664 157.837 143.084C158.147 142.494 158.577 142.034 159.127 141.704C159.677 141.364 160.327 141.194 161.077 141.194C161.687 141.194 162.227 141.319 162.697 141.569C163.167 141.819 163.532 142.169 163.792 142.619V138.014H165.052V148.814H163.912L163.792 147.584C163.552 147.944 163.207 148.269 162.757 148.559C162.307 148.849 161.742 148.994 161.062 148.994ZM161.197 147.899C161.697 147.899 162.137 147.784 162.517 147.554C162.907 147.314 163.207 146.984 163.417 146.564C163.637 146.144 163.747 145.654 163.747 145.094C163.747 144.534 163.637 144.044 163.417 143.624C163.207 143.204 162.907 142.879 162.517 142.649C162.137 142.409 161.697 142.289 161.197 142.289C160.707 142.289 160.267 142.409 159.877 142.649C159.497 142.879 159.197 143.204 158.977 143.624C158.767 144.044 158.662 144.534 158.662 145.094C158.662 145.654 158.767 146.144 158.977 146.564C159.197 146.984 159.497 147.314 159.877 147.554C160.267 147.784 160.707 147.899 161.197 147.899ZM53.0964 168.994C52.3864 168.994 51.7464 168.834 51.1764 168.514C50.6164 168.184 50.1714 167.729 49.8414 167.149C49.5214 166.559 49.3614 165.874 49.3614 165.094C49.3614 164.314 49.5214 163.634 49.8414 163.054C50.1714 162.464 50.6164 162.009 51.1764 161.689C51.7464 161.359 52.3864 161.194 53.0964 161.194C53.9764 161.194 54.7164 161.424 55.3164 161.884C55.9264 162.344 56.3114 162.959 56.4714 163.729H55.1814C55.0814 163.269 54.8364 162.914 54.4464 162.664C54.0564 162.404 53.6014 162.274 53.0814 162.274C52.6614 162.274 52.2664 162.379 51.8964 162.589C51.5264 162.799 51.2264 163.114 50.9964 163.534C50.7664 163.954 50.6514 164.474 50.6514 165.094C50.6514 165.714 50.7664 166.234 50.9964 166.654C51.2264 167.074 51.5264 167.394 51.8964 167.614C52.2664 167.824 52.6614 167.929 53.0814 167.929C53.6014 167.929 54.0564 167.804 54.4464 167.554C54.8364 167.294 55.0814 166.929 55.1814 166.459H56.4714C56.3214 167.209 55.9414 167.819 55.3314 168.289C54.7214 168.759 53.9764 168.994 53.0964 168.994ZM58.2311 168.814V158.014H59.4911V162.649C59.7411 162.189 60.0961 161.834 60.5561 161.584C61.0161 161.324 61.5161 161.194 62.0561 161.194C62.9161 161.194 63.6061 161.464 64.1261 162.004C64.6461 162.534 64.9061 163.354 64.9061 164.464V168.814H63.6611V164.599C63.6611 163.049 63.0361 162.274 61.7861 162.274C61.1361 162.274 60.5911 162.509 60.1511 162.979C59.7111 163.439 59.4911 164.099 59.4911 164.959V168.814H58.2311ZM70.2051 168.994C69.5051 168.994 68.8751 168.834 68.3151 168.514C67.7551 168.194 67.3101 167.744 66.9801 167.164C66.6601 166.574 66.5001 165.884 66.5001 165.094C66.5001 164.304 66.6651 163.619 66.9951 163.039C67.3251 162.449 67.7701 161.994 68.3301 161.674C68.9001 161.354 69.5351 161.194 70.2351 161.194C70.9351 161.194 71.5651 161.354 72.1251 161.674C72.6851 161.994 73.1251 162.449 73.4451 163.039C73.7751 163.619 73.9401 164.304 73.9401 165.094C73.9401 165.884 73.7751 166.574 73.4451 167.164C73.1151 167.744 72.6651 168.194 72.0951 168.514C71.5351 168.834 70.9051 168.994 70.2051 168.994ZM70.2051 167.914C70.6351 167.914 71.0351 167.809 71.4051 167.599C71.7751 167.389 72.0751 167.074 72.3051 166.654C72.5351 166.234 72.6501 165.714 72.6501 165.094C72.6501 164.474 72.5351 163.954 72.3051 163.534C72.0851 163.114 71.7901 162.799 71.4201 162.589C71.0501 162.379 70.6551 162.274 70.2351 162.274C69.8051 162.274 69.4051 162.379 69.0351 162.589C68.6651 162.799 68.3651 163.114 68.1351 163.534C67.9051 163.954 67.7901 164.474 67.7901 165.094C67.7901 165.714 67.9051 166.234 68.1351 166.654C68.3651 167.074 68.6601 167.389 69.0201 167.599C69.3901 167.809 69.7851 167.914 70.2051 167.914ZM79.082 168.994C78.382 168.994 77.752 168.834 77.192 168.514C76.632 168.194 76.187 167.744 75.857 167.164C75.537 166.574 75.377 165.884 75.377 165.094C75.377 164.304 75.542 163.619 75.872 163.039C76.202 162.449 76.647 161.994 77.207 161.674C77.777 161.354 78.412 161.194 79.112 161.194C79.812 161.194 80.442 161.354 81.002 161.674C81.562 161.994 82.002 162.449 82.322 163.039C82.652 163.619 82.817 164.304 82.817 165.094C82.817 165.884 82.652 166.574 82.322 167.164C81.992 167.744 81.542 168.194 80.972 168.514C80.412 168.834 79.782 168.994 79.082 168.994ZM79.082 167.914C79.512 167.914 79.912 167.809 80.282 167.599C80.652 167.389 80.952 167.074 81.182 166.654C81.412 166.234 81.527 165.714 81.527 165.094C81.527 164.474 81.412 163.954 81.182 163.534C80.962 163.114 80.667 162.799 80.297 162.589C79.927 162.379 79.532 162.274 79.112 162.274C78.682 162.274 78.282 162.379 77.912 162.589C77.542 162.799 77.242 163.114 77.012 163.534C76.782 163.954 76.667 164.474 76.667 165.094C76.667 165.714 76.782 166.234 77.012 166.654C77.242 167.074 77.537 167.389 77.897 167.599C78.267 167.809 78.662 167.914 79.082 167.914ZM87.419 168.994C86.529 168.994 85.789 168.769 85.199 168.319C84.609 167.869 84.264 167.259 84.164 166.489H85.454C85.534 166.879 85.739 167.219 86.069 167.509C86.409 167.789 86.864 167.929 87.434 167.929C87.964 167.929 88.354 167.819 88.604 167.599C88.854 167.369 88.979 167.099 88.979 166.789C88.979 166.339 88.814 166.039 88.484 165.889C88.164 165.739 87.709 165.604 87.119 165.484C86.719 165.404 86.319 165.289 85.919 165.139C85.519 164.989 85.184 164.779 84.914 164.509C84.644 164.229 84.509 163.864 84.509 163.414C84.509 162.764 84.749 162.234 85.229 161.824C85.719 161.404 86.379 161.194 87.209 161.194C87.999 161.194 88.644 161.394 89.144 161.794C89.654 162.184 89.949 162.744 90.029 163.474H88.784C88.734 163.094 88.569 162.799 88.289 162.589C88.019 162.369 87.654 162.259 87.194 162.259C86.744 162.259 86.394 162.354 86.144 162.544C85.904 162.734 85.784 162.984 85.784 163.294C85.784 163.594 85.939 163.829 86.249 163.999C86.569 164.169 86.999 164.314 87.539 164.434C87.999 164.534 88.434 164.659 88.844 164.809C89.264 164.949 89.604 165.164 89.864 165.454C90.134 165.734 90.269 166.144 90.269 166.684C90.279 167.354 90.024 167.909 89.504 168.349C88.994 168.779 88.299 168.994 87.419 168.994ZM95.414 168.994C94.704 168.994 94.074 168.834 93.524 168.514C92.974 168.184 92.539 167.729 92.219 167.149C91.909 166.569 91.754 165.884 91.754 165.094C91.754 164.314 91.909 163.634 92.219 163.054C92.529 162.464 92.959 162.009 93.509 161.689C94.069 161.359 94.714 161.194 95.444 161.194C96.164 161.194 96.784 161.359 97.304 161.689C97.834 162.009 98.239 162.434 98.519 162.964C98.799 163.494 98.939 164.064 98.939 164.674C98.939 164.784 98.934 164.894 98.924 165.004C98.924 165.114 98.924 165.239 98.924 165.379H92.999C93.029 165.949 93.159 166.424 93.389 166.804C93.629 167.174 93.924 167.454 94.274 167.644C94.634 167.834 95.014 167.929 95.414 167.929C95.934 167.929 96.369 167.809 96.719 167.569C97.069 167.329 97.324 167.004 97.484 166.594H98.729C98.529 167.284 98.144 167.859 97.574 168.319C97.014 168.769 96.294 168.994 95.414 168.994ZM95.414 162.259C94.814 162.259 94.279 162.444 93.809 162.814C93.349 163.174 93.084 163.704 93.014 164.404H97.694C97.664 163.734 97.434 163.209 97.004 162.829C96.574 162.449 96.044 162.259 95.414 162.259ZM107.054 168.994C106.434 168.994 105.919 168.889 105.509 168.679C105.099 168.469 104.794 168.189 104.594 167.839C104.394 167.489 104.294 167.109 104.294 166.699C104.294 165.939 104.584 165.354 105.164 164.944C105.744 164.534 106.534 164.329 107.534 164.329H109.544V164.239C109.544 163.589 109.374 163.099 109.034 162.769C108.694 162.429 108.239 162.259 107.669 162.259C107.179 162.259 106.754 162.384 106.394 162.634C106.044 162.874 105.824 163.229 105.734 163.699H104.444C104.494 163.159 104.674 162.704 104.984 162.334C105.304 161.964 105.699 161.684 106.169 161.494C106.639 161.294 107.139 161.194 107.669 161.194C108.709 161.194 109.489 161.474 110.009 162.034C110.539 162.584 110.804 163.319 110.804 164.239V168.814H109.679L109.604 167.479C109.394 167.899 109.084 168.259 108.674 168.559C108.274 168.849 107.734 168.994 107.054 168.994ZM107.249 167.929C107.729 167.929 108.139 167.804 108.479 167.554C108.829 167.304 109.094 166.979 109.274 166.579C109.454 166.179 109.544 165.759 109.544 165.319V165.304H107.639C106.899 165.304 106.374 165.434 106.064 165.694C105.764 165.944 105.614 166.259 105.614 166.639C105.614 167.029 105.754 167.344 106.034 167.584C106.324 167.814 106.729 167.929 107.249 167.929ZM112.694 168.814V161.374H113.834L113.909 162.709C114.149 162.239 114.494 161.869 114.944 161.599C115.394 161.329 115.904 161.194 116.474 161.194C117.354 161.194 118.054 161.464 118.574 162.004C119.104 162.534 119.369 163.354 119.369 164.464V168.814H118.109V164.599C118.109 163.049 117.469 162.274 116.189 162.274C115.549 162.274 115.014 162.509 114.584 162.979C114.164 163.439 113.954 164.099 113.954 164.959V168.814H112.694ZM124.653 168.994C123.913 168.994 123.263 168.824 122.703 168.484C122.153 168.144 121.723 167.679 121.413 167.089C121.113 166.499 120.963 165.829 120.963 165.079C120.963 164.329 121.118 163.664 121.428 163.084C121.738 162.494 122.168 162.034 122.718 161.704C123.268 161.364 123.918 161.194 124.668 161.194C125.278 161.194 125.818 161.319 126.288 161.569C126.758 161.819 127.123 162.169 127.383 162.619V158.014H128.643V168.814H127.503L127.383 167.584C127.143 167.944 126.798 168.269 126.348 168.559C125.898 168.849 125.333 168.994 124.653 168.994ZM124.788 167.899C125.288 167.899 125.728 167.784 126.108 167.554C126.498 167.314 126.798 166.984 127.008 166.564C127.228 166.144 127.338 165.654 127.338 165.094C127.338 164.534 127.228 164.044 127.008 163.624C126.798 163.204 126.498 162.879 126.108 162.649C125.728 162.409 125.288 162.289 124.788 162.289C124.298 162.289 123.858 162.409 123.468 162.649C123.088 162.879 122.788 163.204 122.568 163.624C122.358 164.044 122.253 164.534 122.253 165.094C122.253 165.654 122.358 166.144 122.568 166.564C122.788 166.984 123.088 167.314 123.468 167.554C123.858 167.784 124.298 167.899 124.788 167.899ZM136.167 168.814L133.992 161.374H135.252L136.827 167.209L138.567 161.374H139.992L141.747 167.209L143.307 161.374H144.582L142.407 168.814H141.117L139.287 162.679L137.457 168.814H136.167ZM145.975 168.814V158.014H147.235V162.649C147.485 162.189 147.84 161.834 148.3 161.584C148.76 161.324 149.26 161.194 149.8 161.194C150.66 161.194 151.35 161.464 151.87 162.004C152.39 162.534 152.65 163.354 152.65 164.464V168.814H151.405V164.599C151.405 163.049 150.78 162.274 149.53 162.274C148.88 162.274 148.335 162.509 147.895 162.979C147.455 163.439 147.235 164.099 147.235 164.959V168.814H145.975ZM155.149 172.114L156.994 168.094H156.559L153.604 161.374H154.969L157.429 167.164L160.039 161.374H161.344L156.469 172.114H155.149ZM162.944 165.904L162.794 158.314H164.159L164.009 165.904H162.944ZM163.514 168.889C163.264 168.889 163.054 168.809 162.884 168.649C162.724 168.479 162.644 168.274 162.644 168.034C162.644 167.794 162.724 167.594 162.884 167.434C163.054 167.264 163.264 167.179 163.514 167.179C163.754 167.179 163.954 167.264 164.114 167.434C164.284 167.594 164.369 167.794 164.369 168.034C164.369 168.274 164.284 168.479 164.114 168.649C163.954 168.809 163.754 168.889 163.514 168.889Z" fill="white"/>
<defs>
<filter id="filter0_d" x="0" y="18.5762" width="214" height="217.559" filterUnits="userSpaceOnUse" color-interpolation-filters="sRGB">
<feFlood flood-opacity="0" result="BackgroundImageFix"/>
<feColorMatrix in="SourceAlpha" type="matrix" values="0 0 0 0 0 0 0 0 0 0 0 0 0 0 0 0 0 0 127 0"/>
<feOffset dy="1"/>
<feGaussianBlur stdDeviation="1"/>
<feColorMatrix type="matrix" values="0 0 0 0 0.0588235 0 0 0 0 0.0588235 0 0 0 0 0.0588235 0 0 0 0.1 0"/>
<feBlend mode="normal" in2="BackgroundImageFix" result="effect1_dropShadow"/>
<feBlend mode="normal" in="SourceGraphic" in2="effect1_dropShadow" result="shape"/>
</filter>
</defs>
</svg>
