<svg width="240" height="265" viewBox="0 0 240 265" fill="none" xmlns="http://www.w3.org/2000/svg">
<g filter="url(#filter0_d)">
<rect x="2" y="22" width="236" height="240" rx="20" fill="#6C63FF"/>
</g>
<path fill-rule="evenodd" clip-rule="evenodd" d="M221 29C216.032 29 212 33.032 212 38C212 42.968 216.032 47 221 47C225.968 47 230 42.968 230 38C230 33.032 225.968 29 221 29ZM220.1 33.5V35.3H221.9V33.5H220.1ZM220.1 37.1V42.5H221.9V37.1H220.1ZM213.8 38C213.8 41.969 217.031 45.2 221 45.2C224.969 45.2 228.2 41.969 228.2 38C228.2 34.031 224.969 30.8 221 30.8C217.031 30.8 213.8 34.031 213.8 38Z" fill="white"/>
<path d="M37 10C37 4.47715 41.4772 0 47 0H193C198.523 0 203 4.47715 203 10V22H37V10Z" fill="#00D5E0"/>
<path d="M79.5099 16V4.8H81.5579V16H79.5099ZM87.5686 16.192C86.758 16.192 86.0433 16.016 85.4246 15.664C84.806 15.312 84.3153 14.8213 83.9526 14.192C83.6006 13.5627 83.4246 12.8427 83.4246 12.032C83.4246 11.2213 83.6006 10.5013 83.9526 9.872C84.3153 9.24267 84.806 8.752 85.4246 8.4C86.0433 8.048 86.758 7.872 87.5686 7.872C88.582 7.872 89.4353 8.13867 90.1286 8.672C90.822 9.19467 91.2646 9.92 91.4566 10.848H89.2966C89.19 10.464 88.9766 10.1653 88.6566 9.952C88.3473 9.728 87.9793 9.616 87.5526 9.616C86.9873 9.616 86.5073 9.82933 86.1126 10.256C85.718 10.6827 85.5206 11.2747 85.5206 12.032C85.5206 12.7893 85.718 13.3813 86.1126 13.808C86.5073 14.2347 86.9873 14.448 87.5526 14.448C87.9793 14.448 88.3473 14.3413 88.6566 14.128C88.9766 13.9147 89.19 13.6107 89.2966 13.216H91.4566C91.2646 14.112 90.822 14.832 90.1286 15.376C89.4353 15.92 88.582 16.192 87.5686 16.192ZM97.1304 16.192C96.3304 16.192 95.621 16.0213 95.0024 15.68C94.3837 15.3387 93.8984 14.8587 93.5464 14.24C93.1944 13.6213 93.0184 12.9067 93.0184 12.096C93.0184 11.2747 93.189 10.544 93.5304 9.904C93.8824 9.264 94.3624 8.768 94.9704 8.416C95.589 8.05333 96.3144 7.872 97.1464 7.872C97.925 7.872 98.613 8.04267 99.2104 8.384C99.8077 8.72533 100.272 9.19467 100.602 9.792C100.944 10.3787 101.114 11.0347 101.114 11.76C101.114 11.8773 101.109 12 101.098 12.128C101.098 12.256 101.093 12.3893 101.082 12.528H95.0504C95.093 13.1467 95.3064 13.632 95.6904 13.984C96.085 14.336 96.5597 14.512 97.1144 14.512C97.5304 14.512 97.877 14.4213 98.1544 14.24C98.4424 14.048 98.6557 13.8027 98.7944 13.504H100.874C100.725 14.0053 100.474 14.464 100.122 14.88C99.781 15.2853 99.3544 15.6053 98.8424 15.84C98.341 16.0747 97.7704 16.192 97.1304 16.192ZM97.1464 9.536C96.645 9.536 96.2024 9.68 95.8184 9.968C95.4344 10.2453 95.189 10.672 95.0824 11.248H99.0344C99.0024 10.7253 98.8104 10.3093 98.4584 10C98.1064 9.69067 97.669 9.536 97.1464 9.536ZM107.541 16.192C106.944 16.192 106.421 16.08 105.973 15.856C105.525 15.632 105.162 15.3173 104.885 14.912L104.661 16H102.837V4.48H104.885V9.2C105.141 8.848 105.477 8.53867 105.893 8.272C106.32 8.00533 106.869 7.872 107.541 7.872C108.288 7.872 108.954 8.05333 109.541 8.416C110.128 8.77867 110.592 9.27467 110.933 9.904C111.274 10.5333 111.445 11.248 111.445 12.048C111.445 12.848 111.274 13.5627 110.933 14.192C110.592 14.8107 110.128 15.3013 109.541 15.664C108.954 16.016 108.288 16.192 107.541 16.192ZM107.109 14.4C107.76 14.4 108.298 14.1813 108.725 13.744C109.152 13.3067 109.365 12.7413 109.365 12.048C109.365 11.3547 109.152 10.784 108.725 10.336C108.298 9.888 107.76 9.664 107.109 9.664C106.448 9.664 105.904 9.888 105.477 10.336C105.061 10.7733 104.853 11.3387 104.853 12.032C104.853 12.7253 105.061 13.296 105.477 13.744C105.904 14.1813 106.448 14.4 107.109 14.4ZM113.274 16V8.064H115.098L115.29 9.552C115.578 9.04 115.968 8.63467 116.458 8.336C116.96 8.02667 117.546 7.872 118.218 7.872V10.032H117.642C117.194 10.032 116.794 10.1013 116.442 10.24C116.09 10.3787 115.813 10.6187 115.61 10.96C115.418 11.3013 115.322 11.776 115.322 12.384V16H113.274ZM123.334 16.192C122.534 16.192 121.824 16.0213 121.206 15.68C120.587 15.3387 120.102 14.8587 119.75 14.24C119.398 13.6213 119.222 12.9067 119.222 12.096C119.222 11.2747 119.392 10.544 119.734 9.904C120.086 9.264 120.566 8.768 121.174 8.416C121.792 8.05333 122.518 7.872 123.35 7.872C124.128 7.872 124.816 8.04267 125.414 8.384C126.011 8.72533 126.475 9.19467 126.806 9.792C127.147 10.3787 127.318 11.0347 127.318 11.76C127.318 11.8773 127.312 12 127.302 12.128C127.302 12.256 127.296 12.3893 127.286 12.528H121.254C121.296 13.1467 121.51 13.632 121.894 13.984C122.288 14.336 122.763 14.512 123.318 14.512C123.734 14.512 124.08 14.4213 124.358 14.24C124.646 14.048 124.859 13.8027 124.998 13.504H127.078C126.928 14.0053 126.678 14.464 126.326 14.88C125.984 15.2853 125.558 15.6053 125.046 15.84C124.544 16.0747 123.974 16.192 123.334 16.192ZM123.35 9.536C122.848 9.536 122.406 9.68 122.022 9.968C121.638 10.2453 121.392 10.672 121.286 11.248H125.238C125.206 10.7253 125.014 10.3093 124.662 10C124.31 9.69067 123.872 9.536 123.35 9.536ZM131.776 16.192C131.093 16.192 130.533 16.0853 130.096 15.872C129.659 15.648 129.333 15.3547 129.12 14.992C128.907 14.6293 128.8 14.2293 128.8 13.792C128.8 13.056 129.088 12.4587 129.664 12C130.24 11.5413 131.104 11.312 132.256 11.312H134.272V11.12C134.272 10.576 134.117 10.176 133.808 9.92C133.499 9.664 133.115 9.536 132.656 9.536C132.24 9.536 131.877 9.63733 131.568 9.84C131.259 10.032 131.067 10.32 130.992 10.704H128.992C129.045 10.128 129.237 9.62667 129.568 9.2C129.909 8.77333 130.347 8.448 130.88 8.224C131.413 7.98933 132.011 7.872 132.672 7.872C133.803 7.872 134.693 8.15467 135.344 8.72C135.995 9.28533 136.32 10.0853 136.32 11.12V16H134.576L134.384 14.72C134.149 15.1467 133.819 15.4987 133.392 15.776C132.976 16.0533 132.437 16.192 131.776 16.192ZM132.24 14.592C132.827 14.592 133.28 14.4 133.6 14.016C133.931 13.632 134.139 13.1573 134.224 12.592H132.48C131.936 12.592 131.547 12.6933 131.312 12.896C131.077 13.088 130.96 13.328 130.96 13.616C130.96 13.9253 131.077 14.1653 131.312 14.336C131.547 14.5067 131.856 14.592 132.24 14.592ZM138.274 16V4.48H140.322V11.28L143.138 8.064H145.57L142.322 11.68L146.098 16H143.538L140.322 12.016V16H138.274ZM150.568 16.192C149.768 16.192 149.059 16.0213 148.44 15.68C147.821 15.3387 147.336 14.8587 146.984 14.24C146.632 13.6213 146.456 12.9067 146.456 12.096C146.456 11.2747 146.627 10.544 146.968 9.904C147.32 9.264 147.8 8.768 148.408 8.416C149.027 8.05333 149.752 7.872 150.584 7.872C151.363 7.872 152.051 8.04267 152.648 8.384C153.245 8.72533 153.709 9.19467 154.04 9.792C154.381 10.3787 154.552 11.0347 154.552 11.76C154.552 11.8773 154.547 12 154.536 12.128C154.536 12.256 154.531 12.3893 154.52 12.528H148.488C148.531 13.1467 148.744 13.632 149.128 13.984C149.523 14.336 149.997 14.512 150.552 14.512C150.968 14.512 151.315 14.4213 151.592 14.24C151.88 14.048 152.093 13.8027 152.232 13.504H154.312C154.163 14.0053 153.912 14.464 153.56 14.88C153.219 15.2853 152.792 15.6053 152.28 15.84C151.779 16.0747 151.208 16.192 150.568 16.192ZM150.584 9.536C150.083 9.536 149.64 9.68 149.256 9.968C148.872 10.2453 148.627 10.672 148.52 11.248H152.472C152.44 10.7253 152.248 10.3093 151.896 10C151.544 9.69067 151.107 9.536 150.584 9.536ZM156.274 16V8.064H158.098L158.29 9.552C158.578 9.04 158.968 8.63467 159.458 8.336C159.96 8.02667 160.546 7.872 161.218 7.872V10.032H160.642C160.194 10.032 159.794 10.1013 159.442 10.24C159.09 10.3787 158.813 10.6187 158.61 10.96C158.418 11.3013 158.322 11.776 158.322 12.384V16H156.274Z" fill="white"/>
<path d="M63.9619 60L59.5219 43.2H62.8099L65.8339 56.568L69.3859 43.2H72.7699L76.2259 56.568L79.2499 43.2H82.5619L78.0019 60H74.3539L71.0179 47.544L67.5859 60H63.9619ZM89.1626 60.288C88.0106 60.288 86.9706 60.024 86.0426 59.496C85.1306 58.968 84.4026 58.24 83.8586 57.312C83.3306 56.368 83.0666 55.28 83.0666 54.048C83.0666 52.816 83.3386 51.736 83.8826 50.808C84.4266 49.864 85.1546 49.128 86.0666 48.6C86.9946 48.072 88.0346 47.808 89.1866 47.808C90.3226 47.808 91.3466 48.072 92.2586 48.6C93.1866 49.128 93.9146 49.864 94.4426 50.808C94.9866 51.736 95.2586 52.816 95.2586 54.048C95.2586 55.28 94.9866 56.368 94.4426 57.312C93.9146 58.24 93.1866 58.968 92.2586 59.496C91.3306 60.024 90.2986 60.288 89.1626 60.288ZM89.1626 57.624C89.9626 57.624 90.6586 57.328 91.2506 56.736C91.8426 56.128 92.1386 55.232 92.1386 54.048C92.1386 52.864 91.8426 51.976 91.2506 51.384C90.6586 50.776 89.9706 50.472 89.1866 50.472C88.3706 50.472 87.6666 50.776 87.0746 51.384C86.4986 51.976 86.2106 52.864 86.2106 54.048C86.2106 55.232 86.4986 56.128 87.0746 56.736C87.6666 57.328 88.3626 57.624 89.1626 57.624ZM102.469 60.288C100.981 60.288 99.8293 59.824 99.0133 58.896C98.2133 57.968 97.8133 56.608 97.8133 54.816V48.096H100.861V54.528C100.861 55.552 101.069 56.336 101.485 56.88C101.901 57.424 102.557 57.696 103.453 57.696C104.301 57.696 104.997 57.392 105.541 56.784C106.101 56.176 106.381 55.328 106.381 54.24V48.096H109.453V60H106.741L106.501 57.984C106.133 58.688 105.597 59.248 104.893 59.664C104.205 60.08 103.397 60.288 102.469 60.288ZM112.607 60V42.72H115.679V60H112.607ZM124.29 60.288C123.17 60.288 122.17 60.016 121.29 59.472C120.41 58.928 119.714 58.184 119.202 57.24C118.69 56.296 118.434 55.224 118.434 54.024C118.434 52.824 118.69 51.76 119.202 50.832C119.714 49.888 120.41 49.152 121.29 48.624C122.17 48.08 123.17 47.808 124.29 47.808C125.186 47.808 125.97 47.976 126.642 48.312C127.314 48.648 127.858 49.12 128.274 49.728V42.72H131.346V60H128.61L128.274 58.296C127.89 58.824 127.378 59.288 126.738 59.688C126.114 60.088 125.298 60.288 124.29 60.288ZM124.938 57.6C125.93 57.6 126.738 57.272 127.362 56.616C128.002 55.944 128.322 55.088 128.322 54.048C128.322 53.008 128.002 52.16 127.362 51.504C126.738 50.832 125.93 50.496 124.938 50.496C123.962 50.496 123.154 50.824 122.514 51.48C121.874 52.136 121.554 52.984 121.554 54.024C121.554 55.064 121.874 55.92 122.514 56.592C123.154 57.264 123.962 57.6 124.938 57.6ZM141.681 65.28L144.441 59.208H143.721L139.089 48.096H142.425L145.761 56.472L149.241 48.096H152.505L144.945 65.28H141.681ZM159.194 60.288C158.042 60.288 157.002 60.024 156.074 59.496C155.162 58.968 154.434 58.24 153.89 57.312C153.362 56.368 153.098 55.28 153.098 54.048C153.098 52.816 153.37 51.736 153.914 50.808C154.458 49.864 155.186 49.128 156.098 48.6C157.026 48.072 158.066 47.808 159.218 47.808C160.354 47.808 161.378 48.072 162.29 48.6C163.218 49.128 163.946 49.864 164.474 50.808C165.018 51.736 165.29 52.816 165.29 54.048C165.29 55.28 165.018 56.368 164.474 57.312C163.946 58.24 163.218 58.968 162.29 59.496C161.362 60.024 160.33 60.288 159.194 60.288ZM159.194 57.624C159.994 57.624 160.69 57.328 161.282 56.736C161.874 56.128 162.17 55.232 162.17 54.048C162.17 52.864 161.874 51.976 161.282 51.384C160.69 50.776 160.002 50.472 159.218 50.472C158.402 50.472 157.698 50.776 157.106 51.384C156.53 51.976 156.242 52.864 156.242 54.048C156.242 55.232 156.53 56.128 157.106 56.736C157.698 57.328 158.394 57.624 159.194 57.624ZM172.501 60.288C171.013 60.288 169.861 59.824 169.045 58.896C168.245 57.968 167.845 56.608 167.845 54.816V48.096H170.893V54.528C170.893 55.552 171.101 56.336 171.517 56.88C171.933 57.424 172.589 57.696 173.485 57.696C174.333 57.696 175.029 57.392 175.573 56.784C176.133 56.176 176.413 55.328 176.413 54.24V48.096H179.485V60H176.773L176.533 57.984C176.165 58.688 175.629 59.248 174.925 59.664C174.237 60.08 173.429 60.288 172.501 60.288ZM85.6772 91V79.096H88.4132L88.7012 81.328C89.1332 80.56 89.7172 79.952 90.4532 79.504C91.2052 79.04 92.0852 78.808 93.0932 78.808V82.048H92.2292C91.5572 82.048 90.9572 82.152 90.4292 82.36C89.9012 82.568 89.4852 82.928 89.1812 83.44C88.8932 83.952 88.7492 84.664 88.7492 85.576V91H85.6772ZM99.2968 91.288C98.2728 91.288 97.4328 91.128 96.7768 90.808C96.1208 90.472 95.6328 90.032 95.3128 89.488C94.9928 88.944 94.8328 88.344 94.8328 87.688C94.8328 86.584 95.2648 85.688 96.1288 85C96.9928 84.312 98.2888 83.968 100.017 83.968H103.041V83.68C103.041 82.864 102.809 82.264 102.345 81.88C101.881 81.496 101.305 81.304 100.617 81.304C99.9928 81.304 99.4488 81.456 98.9848 81.76C98.5208 82.048 98.2328 82.48 98.1208 83.056H95.1208C95.2008 82.192 95.4888 81.44 95.9848 80.8C96.4968 80.16 97.1528 79.672 97.9528 79.336C98.7528 78.984 99.6488 78.808 100.641 78.808C102.337 78.808 103.673 79.232 104.649 80.08C105.625 80.928 106.113 82.128 106.113 83.68V91H103.497L103.209 89.08C102.857 89.72 102.361 90.248 101.721 90.664C101.097 91.08 100.289 91.288 99.2968 91.288ZM99.9928 88.888C100.873 88.888 101.553 88.6 102.033 88.024C102.529 87.448 102.841 86.736 102.969 85.888H100.353C99.5368 85.888 98.9528 86.04 98.6008 86.344C98.2488 86.632 98.0728 86.992 98.0728 87.424C98.0728 87.888 98.2488 88.248 98.6008 88.504C98.9528 88.76 99.4168 88.888 99.9928 88.888ZM114.184 91C112.936 91 111.936 90.696 111.184 90.088C110.432 89.48 110.056 88.4 110.056 86.848V81.664H108.016V79.096H110.056L110.416 75.904H113.128V79.096H116.344V81.664H113.128V86.872C113.128 87.448 113.248 87.848 113.488 88.072C113.744 88.28 114.176 88.384 114.784 88.384H116.272V91H114.184ZM118.982 91V73.72H122.054V80.92C122.454 80.264 122.99 79.752 123.662 79.384C124.35 79 125.134 78.808 126.014 78.808C127.486 78.808 128.622 79.272 129.422 80.2C130.238 81.128 130.646 82.488 130.646 84.28V91H127.598V84.568C127.598 83.544 127.39 82.76 126.974 82.216C126.574 81.672 125.934 81.4 125.054 81.4C124.19 81.4 123.47 81.704 122.894 82.312C122.334 82.92 122.054 83.768 122.054 84.856V91H118.982ZM139.367 91.288C138.167 91.288 137.103 91.032 136.175 90.52C135.247 90.008 134.519 89.288 133.991 88.36C133.463 87.432 133.199 86.36 133.199 85.144C133.199 83.912 133.455 82.816 133.967 81.856C134.495 80.896 135.215 80.152 136.127 79.624C137.055 79.08 138.143 78.808 139.391 78.808C140.559 78.808 141.591 79.064 142.487 79.576C143.383 80.088 144.079 80.792 144.575 81.688C145.087 82.568 145.343 83.552 145.343 84.64C145.343 84.816 145.335 85 145.319 85.192C145.319 85.384 145.311 85.584 145.295 85.792H136.247C136.311 86.72 136.631 87.448 137.207 87.976C137.799 88.504 138.511 88.768 139.343 88.768C139.967 88.768 140.487 88.632 140.903 88.36C141.335 88.072 141.655 87.704 141.863 87.256H144.983C144.759 88.008 144.383 88.696 143.855 89.32C143.343 89.928 142.703 90.408 141.935 90.76C141.183 91.112 140.327 91.288 139.367 91.288ZM139.391 81.304C138.639 81.304 137.975 81.52 137.399 81.952C136.823 82.368 136.455 83.008 136.295 83.872H142.223C142.175 83.088 141.887 82.464 141.359 82C140.831 81.536 140.175 81.304 139.391 81.304ZM147.927 91V79.096H150.663L150.951 81.328C151.383 80.56 151.967 79.952 152.703 79.504C153.455 79.04 154.335 78.808 155.343 78.808V82.048H154.479C153.807 82.048 153.207 82.152 152.679 82.36C152.151 82.568 151.735 82.928 151.431 83.44C151.143 83.952 150.999 84.664 150.999 85.576V91H147.927Z" fill="white"/>
<path d="M150.622 146.078H152.358C152.358 146.078 153.949 158.376 152.792 159.534C151.634 160.691 148.451 161.415 148.017 159.534C147.583 157.653 148.017 150.708 148.017 150.708L150.622 146.078Z" fill="#FF6584"/>
<path d="M139.261 147.742C145.095 147.742 149.824 142.203 149.824 135.371C149.824 128.539 145.095 123 139.261 123C133.428 123 128.699 128.539 128.699 135.371C128.699 142.203 133.428 147.742 139.261 147.742Z" fill="#2F2E41"/>
<path d="M136.873 137.686C136.873 137.686 137.452 142.461 135.716 143.473C133.979 144.486 137.741 150.274 137.741 150.274L142.227 151.431L145.265 147.235L144.686 142.895C144.686 142.895 141.214 139.422 142.805 136.239L136.873 137.686Z" fill="#FFC1C7"/>
<path opacity="0.1" d="M136.873 137.686C136.873 137.686 137.452 142.461 135.716 143.473C133.979 144.486 137.741 150.274 137.741 150.274L142.227 151.431L145.265 147.235L144.686 142.895C144.686 142.895 141.214 139.422 142.805 136.239L136.873 137.686Z" fill="black"/>
<path d="M130.365 189.516C130.365 189.516 128.629 205.287 130.365 209.049C132.102 212.811 136.732 223.373 136.732 223.373L135.285 226.412L139.191 225.544L140.783 222.505C140.783 222.505 138.902 215.126 138.613 212.522C138.323 209.917 136.153 205.143 136.153 205.143L140.204 187.925L130.365 189.516Z" fill="#FFC1C7"/>
<path d="M144.109 186.88C144.109 186.88 144.254 202.796 145.267 205.265L144.688 226.823L147.871 227.248C147.871 227.248 152.501 209.162 151.778 204.821C151.054 200.481 151.923 184.854 151.923 184.854L144.109 186.88Z" fill="#FFC1C7"/>
<path d="M139.264 139.639C142.3 139.639 144.762 137.178 144.762 134.141C144.762 131.104 142.3 128.643 139.264 128.643C136.227 128.643 133.766 131.104 133.766 134.141C133.766 137.178 136.227 139.639 139.264 139.639Z" fill="#FFC1C7"/>
<path d="M157.999 188.906C157.999 188.906 154.092 191.51 152.501 189.629C150.909 187.748 131.376 190.787 128.916 190.208C126.457 189.629 130.219 180.369 130.219 175.594C130.219 172.022 131.515 166.587 132.168 164.076C132.387 163.231 132.534 162.717 132.534 162.717C132.534 162.717 134.018 158.493 133.74 156.738C133.722 156.605 133.685 156.475 133.632 156.352C133.609 156.3 133.58 156.251 133.546 156.206C132.853 155.281 130.867 148.539 130.096 145.644C129.97 145.215 129.866 144.781 129.785 144.342C129.785 143.907 135.138 142.605 136.476 142.543C137.816 142.481 138.176 144.342 138.176 144.342C138.611 144.631 140.636 149.695 140.636 149.695L142.517 144.92C142.517 144.92 142.372 143.907 142.228 143.907C142.083 143.907 144.368 142.542 144.368 142.542C144.368 142.542 146.713 144.197 148.015 143.907C149.317 143.618 152.356 146.222 152.356 146.222C152.356 146.222 147.002 159.678 149.173 162.572C151.343 165.466 157.999 188.906 157.999 188.906Z" fill="#FF6584"/>
<path d="M140.346 221.926C140.346 221.926 137.887 224.386 137.887 224.676L135.861 223.807C135.861 223.807 134.993 226.991 134.848 227.425C134.703 227.859 132.244 231.765 129.784 233.502C127.324 235.238 129.784 237.408 131.954 236.974C134.125 236.54 139.623 231.621 139.623 231.621C139.623 231.621 143.385 231.621 144.687 228.727C144.687 228.727 141.214 221.637 140.346 221.926Z" fill="#2F2E41"/>
<path d="M147.583 226.1C147.583 226.1 143.866 223.399 143.627 225.907C143.387 228.415 143.387 233.913 143.387 233.913C143.387 233.913 142.23 237.53 145.847 237.096C149.464 236.662 149.754 235.649 149.754 235.649L148.017 228.704V225.666L147.583 226.1Z" fill="#2F2E41"/>
<path opacity="0.1" d="M133.548 156.206C132.855 155.281 130.869 148.539 130.098 145.644H130.799C130.799 145.644 132.562 152.541 133.634 156.352C133.611 156.301 133.582 156.252 133.548 156.206Z" fill="black"/>
<path opacity="0.1" d="M143.096 165.756C143.096 165.756 141.071 165.9 133.692 164.453C133.177 164.355 132.669 164.229 132.168 164.076C132.388 163.231 132.534 162.717 132.534 162.717C132.534 162.717 134.019 158.494 133.741 156.739C134.087 157.954 134.344 158.774 134.415 158.81C134.704 158.955 143.964 160.547 145.267 161.125C146.569 161.704 143.096 165.756 143.096 165.756Z" fill="black"/>
<path opacity="0.1" d="M145.703 146.819C145.703 146.819 149.694 146.326 149.941 146.973C150.188 147.62 151.201 153.874 151.635 154.676C152.069 155.478 152.214 160.448 150.478 160.609C148.742 160.769 146.427 159.005 146.861 157.562C147.295 156.119 145.703 146.819 145.703 146.819Z" fill="black"/>
<path d="M143.677 160.113C143.677 160.113 149.754 160.836 150.767 160.113C151.78 159.389 155.976 159.389 155.108 161.415C154.239 163.44 146.716 163.585 146.716 163.585H142.375L143.677 160.113Z" fill="#FFC1C7"/>
<path d="M130.798 144.631H129.786C129.786 144.631 127.76 145.065 128.049 151.431C128.339 157.798 126.313 161.994 133.692 163.44C141.071 164.887 143.097 164.743 143.097 164.743C143.097 164.743 146.569 160.691 145.267 160.113C143.965 159.534 134.705 157.942 134.416 157.798C134.126 157.653 130.798 144.631 130.798 144.631Z" fill="#FF6584"/>
<path d="M149.831 147.487C149.831 147.487 147.295 137.975 145.27 137.975C143.244 137.975 140.929 138.409 142.665 140.29C144.401 142.171 146.572 144.197 146.716 145.21C146.861 146.222 147.44 147.669 147.44 147.669L149.831 147.487Z" fill="#FFC1C7"/>
<path d="M146.281 146.819C146.281 146.819 150.272 146.326 150.519 146.973C150.767 147.62 151.779 153.874 152.213 154.676C152.648 155.478 152.792 160.448 151.056 160.609C149.32 160.769 147.005 159.005 147.439 157.562C147.873 156.119 146.281 146.819 146.281 146.819Z" fill="#FF6584"/>
<path d="M137.814 134.141C140.691 134.141 143.023 131.809 143.023 128.932C143.023 126.055 140.691 123.723 137.814 123.723C134.938 123.723 132.605 126.055 132.605 128.932C132.605 131.809 134.938 134.141 137.814 134.141Z" fill="#2F2E41"/>
<path d="M70.2754 166.482C70.2754 165.895 70.5027 165.47 70.9574 165.206C71.4267 164.942 72.0134 164.81 72.7174 164.81C74.448 164.81 75.3134 165.367 75.3134 166.482C75.3134 167.025 75.0787 167.443 74.6094 167.736C74.1547 168.015 73.524 168.154 72.7174 168.154C71.9547 168.154 71.3534 168 70.9134 167.692C70.488 167.369 70.2754 166.966 70.2754 166.482ZM78.7234 156.758C78.7234 157.711 78.496 158.657 78.0414 159.596C77.6014 160.52 77.066 161.297 76.4354 161.928C75.8047 162.559 75.1594 163.072 74.4994 163.468C73.854 163.864 73.3114 164.062 72.8714 164.062C71.8007 164.062 71.2654 163.688 71.2654 162.94C71.2654 162.559 71.4194 162.148 71.7274 161.708C72.0354 161.253 72.3727 160.843 72.7394 160.476C73.106 160.095 73.4434 159.611 73.7514 159.024C74.0594 158.437 74.2134 157.843 74.2134 157.242C74.2134 156.699 74.096 156.208 73.8614 155.768C73.6414 155.328 73.3554 155.108 73.0034 155.108C72.622 155.108 72.4314 155.291 72.4314 155.658C72.4314 155.731 72.4827 155.907 72.5854 156.186C72.7027 156.45 72.7614 156.677 72.7614 156.868C72.7614 157.337 72.6 157.645 72.2774 157.792C71.9694 157.924 71.5 157.99 70.8694 157.99C69.7547 157.99 68.9407 157.726 68.4274 157.198C67.9287 156.67 67.6794 156.105 67.6794 155.504C67.6794 153.7 69.388 152.798 72.8054 152.798C74.7267 152.798 76.1934 153.128 77.2054 153.788C78.2174 154.448 78.7234 155.438 78.7234 156.758Z" fill="white"/>
<path d="M163.715 169.689C163.715 169.182 163.911 168.815 164.304 168.587C164.709 168.359 165.216 168.245 165.824 168.245C167.319 168.245 168.066 168.726 168.066 169.689C168.066 170.158 167.863 170.519 167.458 170.772C167.065 171.013 166.521 171.133 165.824 171.133C165.165 171.133 164.646 171 164.266 170.734C163.899 170.455 163.715 170.107 163.715 169.689ZM171.011 161.291C171.011 162.114 170.815 162.931 170.422 163.742C170.042 164.54 169.58 165.211 169.035 165.756C168.49 166.301 167.933 166.744 167.363 167.086C166.806 167.428 166.337 167.599 165.957 167.599C165.032 167.599 164.57 167.276 164.57 166.63C164.57 166.301 164.703 165.946 164.969 165.566C165.235 165.173 165.526 164.819 165.843 164.502C166.16 164.173 166.451 163.755 166.717 163.248C166.983 162.741 167.116 162.228 167.116 161.709C167.116 161.24 167.015 160.816 166.812 160.436C166.622 160.056 166.375 159.866 166.071 159.866C165.742 159.866 165.577 160.024 165.577 160.341C165.577 160.404 165.621 160.556 165.71 160.797C165.811 161.025 165.862 161.221 165.862 161.386C165.862 161.791 165.723 162.057 165.444 162.184C165.178 162.298 164.773 162.355 164.228 162.355C163.265 162.355 162.562 162.127 162.119 161.671C161.688 161.215 161.473 160.727 161.473 160.208C161.473 158.65 162.949 157.871 165.9 157.871C167.559 157.871 168.826 158.156 169.7 158.726C170.574 159.296 171.011 160.151 171.011 161.291Z" fill="white"/>
<path d="M113.836 134.275C113.836 133.608 114.094 133.125 114.611 132.825C115.144 132.525 115.811 132.375 116.611 132.375C118.577 132.375 119.561 133.008 119.561 134.275C119.561 134.892 119.294 135.367 118.761 135.7C118.244 136.017 117.527 136.175 116.611 136.175C115.744 136.175 115.061 136 114.561 135.65C114.077 135.283 113.836 134.825 113.836 134.275ZM123.436 123.225C123.436 124.308 123.177 125.383 122.661 126.45C122.161 127.5 121.552 128.383 120.836 129.1C120.119 129.817 119.386 130.4 118.636 130.85C117.902 131.3 117.286 131.525 116.786 131.525C115.569 131.525 114.961 131.1 114.961 130.25C114.961 129.817 115.136 129.35 115.486 128.85C115.836 128.333 116.219 127.867 116.636 127.45C117.052 127.017 117.436 126.467 117.786 125.8C118.136 125.133 118.311 124.458 118.311 123.775C118.311 123.158 118.177 122.6 117.911 122.1C117.661 121.6 117.336 121.35 116.936 121.35C116.502 121.35 116.286 121.558 116.286 121.975C116.286 122.058 116.344 122.258 116.461 122.575C116.594 122.875 116.661 123.133 116.661 123.35C116.661 123.883 116.477 124.233 116.111 124.4C115.761 124.55 115.227 124.625 114.511 124.625C113.244 124.625 112.319 124.325 111.736 123.725C111.169 123.125 110.886 122.483 110.886 121.8C110.886 119.75 112.827 118.725 116.711 118.725C118.894 118.725 120.561 119.1 121.711 119.85C122.861 120.6 123.436 121.725 123.436 123.225Z" fill="white"/>
<path d="M90.2664 234.114H86.8095L86.293 220.781L90.267 220.781L90.2664 234.114Z" fill="#FFB8B8"/>
<path d="M91.1462 237.466L80 237.465V237.324C80 236.754 80.1122 236.19 80.3302 235.664C80.5483 235.137 80.8678 234.659 81.2707 234.256C81.6736 233.854 82.1518 233.534 82.6782 233.316C83.2046 233.098 83.7687 232.986 84.3385 232.986H84.3387L91.1465 232.986L91.1462 237.466Z" fill="#2F2E41"/>
<path d="M109.735 234.114H113.192L113.709 220.781L109.734 220.781L109.735 234.114Z" fill="#FFB8B8"/>
<path d="M108.855 232.986L115.663 232.986H115.663C116.233 232.986 116.797 233.098 117.324 233.316C117.85 233.534 118.328 233.854 118.731 234.256C119.134 234.659 119.454 235.137 119.672 235.664C119.89 236.19 120.002 236.754 120.002 237.324V237.465L108.856 237.466L108.855 232.986Z" fill="#2F2E41"/>
<path d="M109.826 232.406C109.538 232.405 109.258 232.306 109.033 232.126C108.808 231.945 108.651 231.694 108.587 231.413L100.019 194.041C100.001 193.946 99.9489 193.861 99.8734 193.8C99.7979 193.74 99.7034 193.708 99.6066 193.71H99.6045C99.5073 193.708 99.4127 193.741 99.3373 193.802C99.262 193.864 99.2107 193.95 99.1928 194.045L91.3247 231.165C91.2633 231.449 91.1068 231.703 90.881 231.886C90.6553 232.069 90.3739 232.169 90.0834 232.17H86.3353C86.1623 232.17 85.9912 232.135 85.8324 232.066C85.6737 231.998 85.5306 231.898 85.412 231.772C85.2933 231.646 85.2017 231.497 85.1427 231.335C85.0836 231.172 85.0584 230.999 85.0686 230.827L87.8603 183.779L88.9837 183.447L89.0048 183.447L111.071 183.64L115.771 230.636C115.787 230.803 115.77 230.973 115.72 231.134C115.67 231.294 115.589 231.444 115.481 231.573C115.373 231.702 115.24 231.809 115.091 231.886C114.941 231.963 114.778 232.01 114.61 232.024L109.928 232.402C109.894 232.404 109.86 232.406 109.826 232.406Z" fill="#2F2E41"/>
<path d="M100.714 140.382C104.539 140.382 107.64 137.282 107.64 133.457C107.64 129.632 104.539 126.532 100.714 126.532C96.8897 126.532 93.7891 129.632 93.7891 133.457C93.7891 137.282 96.8897 140.382 100.714 140.382Z" fill="#A0616A"/>
<path d="M96.4718 188.937C95.2568 188.952 94.0467 188.782 92.8831 188.432C91.8481 188.12 90.888 187.6 90.0618 186.903C89.2356 186.205 88.5608 185.347 88.0789 184.379C87.9262 184.088 87.8924 183.749 87.9845 183.433C88.7482 180.826 92.4391 167.276 90.0842 156.505C89.7518 155.008 89.7242 153.46 90.003 151.953C90.2818 150.446 90.8613 149.01 91.7069 147.732C92.5329 146.463 93.6059 145.374 94.8619 144.529C96.1179 143.684 97.5312 143.101 99.0175 142.814L99.0175 142.814C99.4081 142.738 99.8009 142.675 100.185 142.628C101.828 142.426 103.495 142.589 105.067 143.107C106.64 143.624 108.078 144.482 109.28 145.621C110.518 146.781 111.484 148.201 112.108 149.778C112.733 151.356 113.001 153.052 112.894 154.745L111.084 183.789C111.071 184.006 111.003 184.217 110.884 184.4C110.765 184.583 110.601 184.732 110.408 184.833C108.323 185.925 102.062 188.937 96.4718 188.937Z" fill="#CCCCCC"/>
<path d="M89.5996 184.168C89.9961 183.971 90.3444 183.689 90.6202 183.343C90.896 182.996 91.0924 182.594 91.1957 182.163C91.2989 181.732 91.3065 181.284 91.2179 180.85C91.1293 180.417 90.9466 180.007 90.6828 179.652L92.9478 157.506H88.0529L86.2528 179.13C85.6847 179.613 85.3135 180.288 85.2095 181.026C85.1055 181.764 85.2759 182.515 85.6884 183.136C86.1009 183.757 86.7269 184.205 87.4478 184.395C88.1687 184.586 88.9343 184.505 89.5996 184.168Z" fill="#A0616A"/>
<path d="M93.2963 147.022C94.2522 147.214 95.1054 147.748 95.6965 148.523C96.2876 149.298 96.5761 150.263 96.5082 151.235L95.8336 160.891C95.8217 161.06 95.7718 161.224 95.6876 161.372C95.6034 161.519 95.487 161.645 95.3471 161.741C95.2072 161.838 95.0475 161.901 94.8797 161.927C94.712 161.952 94.5406 161.94 94.3783 161.89L86.2509 159.402C86.1029 159.357 85.9658 159.282 85.8481 159.181C85.7305 159.081 85.6348 158.957 85.567 158.818C85.4992 158.679 85.4608 158.527 85.4542 158.372C85.4475 158.218 85.4728 158.063 85.5283 157.919L88.7614 149.515C89.1014 148.631 89.7432 147.896 90.5732 147.44C91.4032 146.983 92.3678 146.836 93.2963 147.022Z" fill="#CCCCCC"/>
<path d="M108.539 128.359C107.819 126.551 106.501 125.045 104.805 124.091C103.109 123.138 101.137 122.795 99.2189 123.119L101.402 124.884C98.6895 124.975 95.8337 124.781 93.8967 126.683C94.5133 126.665 95.3216 127.984 95.9383 127.967C94.7853 127.99 93.7399 128.8 93.2306 129.835C92.759 130.898 92.6486 132.086 92.9165 133.218C93.1442 134.348 94.8813 136.996 95.3488 138.051C95.2684 135.296 100.692 128.725 103.34 129.41C101.995 129.91 100.827 130.796 99.9847 131.958C101.786 131.049 103.824 130.715 105.822 131.003C106.278 131.108 106.748 131.134 107.213 131.081C107.498 131.025 107.764 130.896 107.985 130.708C108.206 130.519 108.375 130.278 108.476 130.005C108.577 129.733 108.607 129.439 108.562 129.152C108.517 128.865 108.4 128.595 108.22 128.366L108.539 128.359Z" fill="#2F2E41"/>
<path d="M99.8578 171.883C100.013 171.901 100.166 171.931 100.316 171.973L110.931 162.87L110.311 159.53L115.229 157.935L116.902 163.741C117.037 164.21 117.017 164.71 116.843 165.167C116.67 165.623 116.353 166.011 115.941 166.272L102.497 174.779C102.507 175.38 102.333 175.97 102 176.469C101.666 176.969 101.188 177.356 100.629 177.577C100.07 177.799 99.4573 177.845 98.8717 177.71C98.2861 177.574 97.7555 177.264 97.3506 176.82C96.9457 176.376 96.6856 175.819 96.6049 175.223C96.5242 174.628 96.6268 174.021 96.899 173.486C97.1712 172.95 97.6001 172.509 98.1286 172.223C98.6571 171.937 99.2603 171.818 99.8578 171.883Z" fill="#A0616A"/>
<path d="M108.955 147.37C109.91 147.171 110.904 147.327 111.752 147.807C112.601 148.288 113.245 149.061 113.564 149.983L116.737 159.127C116.792 159.287 116.811 159.458 116.791 159.626C116.772 159.795 116.714 159.957 116.624 160.1C116.533 160.244 116.411 160.365 116.267 160.454C116.122 160.544 115.96 160.6 115.791 160.618L107.34 161.523C107.186 161.539 107.03 161.524 106.882 161.477C106.735 161.431 106.598 161.355 106.481 161.254C106.364 161.152 106.269 161.028 106.202 160.888C106.136 160.749 106.098 160.597 106.093 160.442L105.764 151.444C105.73 150.497 106.031 149.569 106.615 148.824C107.199 148.078 108.028 147.563 108.955 147.37Z" fill="#CCCCCC"/>
<defs>
<filter id="filter0_d" x="0" y="21" width="240" height="244" filterUnits="userSpaceOnUse" color-interpolation-filters="sRGB">
<feFlood flood-opacity="0" result="BackgroundImageFix"/>
<feColorMatrix in="SourceAlpha" type="matrix" values="0 0 0 0 0 0 0 0 0 0 0 0 0 0 0 0 0 0 127 0"/>
<feOffset dy="1"/>
<feGaussianBlur stdDeviation="1"/>
<feColorMatrix type="matrix" values="0 0 0 0 0.0588235 0 0 0 0 0.0588235 0 0 0 0 0.0588235 0 0 0 0.1 0"/>
<feBlend mode="normal" in2="BackgroundImageFix" result="effect1_dropShadow"/>
<feBlend mode="normal" in="SourceGraphic" in2="effect1_dropShadow" result="shape"/>
</filter>
</defs>
</svg>
