<svg width="214" height="237" viewBox="0 0 214 237" fill="none" xmlns="http://www.w3.org/2000/svg">
<g filter="url(#filter0_d)">
<rect x="2" y="19.5762" width="210" height="213.559" rx="20" fill="#5B59E3"/>
</g>
<path d="M33.1445 10C33.1445 4.47715 37.6217 0 43.1445 0H170.856C176.379 0 180.856 4.47715 180.856 10V19.5763H33.1445V10Z" fill="#01BDD7"/>
<path d="M71.5725 14.7793V4.9793H73.3645V14.7793H71.5725ZM78.6239 14.9473C77.9146 14.9473 77.2892 14.7933 76.7479 14.4853C76.2066 14.1773 75.7772 13.748 75.4599 13.1973C75.1519 12.6466 74.9979 12.0166 74.9979 11.3073C74.9979 10.598 75.1519 9.96796 75.4599 9.4173C75.7772 8.86663 76.2066 8.4373 76.7479 8.1293C77.2892 7.8213 77.9146 7.6673 78.6239 7.6673C79.5106 7.6673 80.2572 7.90063 80.8639 8.3673C81.4706 8.82463 81.8579 9.4593 82.0259 10.2713H80.1359C80.0426 9.9353 79.8559 9.67396 79.5759 9.4873C79.3052 9.2913 78.9832 9.1933 78.6099 9.1933C78.1152 9.1933 77.6952 9.37996 77.3499 9.7533C77.0046 10.1266 76.8319 10.6446 76.8319 11.3073C76.8319 11.97 77.0046 12.488 77.3499 12.8613C77.6952 13.2346 78.1152 13.4213 78.6099 13.4213C78.9832 13.4213 79.3052 13.328 79.5759 13.1413C79.8559 12.9546 80.0426 12.6886 80.1359 12.3433H82.0259C81.8579 13.1273 81.4706 13.7573 80.8639 14.2333C80.2572 14.7093 79.5106 14.9473 78.6239 14.9473ZM86.9904 14.9473C86.2904 14.9473 85.6698 14.798 85.1284 14.4993C84.5871 14.2006 84.1624 13.7806 83.8544 13.2393C83.5464 12.698 83.3924 12.0726 83.3924 11.3633C83.3924 10.6446 83.5418 10.0053 83.8404 9.4453C84.1484 8.8853 84.5684 8.4513 85.1004 8.1433C85.6418 7.82596 86.2764 7.6673 87.0044 7.6673C87.6858 7.6673 88.2878 7.81663 88.8104 8.1153C89.3331 8.41396 89.7391 8.82463 90.0284 9.3473C90.3271 9.86063 90.4764 10.4346 90.4764 11.0693C90.4764 11.172 90.4718 11.2793 90.4624 11.3913C90.4624 11.5033 90.4578 11.62 90.4484 11.7413H85.1704C85.2078 12.2826 85.3944 12.7073 85.7304 13.0153C86.0758 13.3233 86.4911 13.4773 86.9764 13.4773C87.3404 13.4773 87.6438 13.398 87.8864 13.2393C88.1384 13.0713 88.3251 12.8566 88.4464 12.5953H90.2664C90.1358 13.034 89.9164 13.4353 89.6084 13.7993C89.3098 14.154 88.9364 14.434 88.4884 14.6393C88.0498 14.8446 87.5504 14.9473 86.9904 14.9473ZM87.0044 9.1233C86.5658 9.1233 86.1784 9.2493 85.8424 9.5013C85.5064 9.74396 85.2918 10.1173 85.1984 10.6213H88.6564C88.6284 10.164 88.4604 9.79996 88.1524 9.5293C87.8444 9.25863 87.4618 9.1233 87.0044 9.1233ZM96.0996 14.9473C95.577 14.9473 95.1196 14.8493 94.7276 14.6533C94.3356 14.4573 94.0183 14.182 93.7756 13.8273L93.5796 14.7793H91.9836V4.6993H93.7756V8.8293C93.9996 8.5213 94.2936 8.25063 94.6576 8.0173C95.031 7.78396 95.5116 7.6673 96.0996 7.6673C96.753 7.6673 97.3363 7.82596 97.8496 8.1433C98.363 8.46063 98.769 8.89463 99.0676 9.4453C99.3663 9.99596 99.5156 10.6213 99.5156 11.3213C99.5156 12.0213 99.3663 12.6466 99.0676 13.1973C98.769 13.7386 98.363 14.168 97.8496 14.4853C97.3363 14.7933 96.753 14.9473 96.0996 14.9473ZM95.7216 13.3793C96.291 13.3793 96.7623 13.188 97.1356 12.8053C97.509 12.4226 97.6956 11.928 97.6956 11.3213C97.6956 10.7146 97.509 10.2153 97.1356 9.8233C96.7623 9.4313 96.291 9.2353 95.7216 9.2353C95.143 9.2353 94.667 9.4313 94.2936 9.8233C93.9296 10.206 93.7476 10.7006 93.7476 11.3073C93.7476 11.914 93.9296 12.4133 94.2936 12.8053C94.667 13.188 95.143 13.3793 95.7216 13.3793ZM101.116 14.7793V7.8353H102.712L102.88 9.1373C103.132 8.6893 103.473 8.33463 103.902 8.0733C104.341 7.80263 104.854 7.6673 105.442 7.6673V9.5573H104.938C104.546 9.5573 104.196 9.61796 103.888 9.7393C103.58 9.86063 103.338 10.0706 103.16 10.3693C102.992 10.668 102.908 11.0833 102.908 11.6153V14.7793H101.116ZM109.918 14.9473C109.218 14.9473 108.598 14.798 108.056 14.4993C107.515 14.2006 107.09 13.7806 106.782 13.2393C106.474 12.698 106.32 12.0726 106.32 11.3633C106.32 10.6446 106.47 10.0053 106.768 9.4453C107.076 8.8853 107.496 8.4513 108.028 8.1433C108.57 7.82596 109.204 7.6673 109.932 7.6673C110.614 7.6673 111.216 7.81663 111.738 8.1153C112.261 8.41396 112.667 8.82463 112.956 9.3473C113.255 9.86063 113.404 10.4346 113.404 11.0693C113.404 11.172 113.4 11.2793 113.39 11.3913C113.39 11.5033 113.386 11.62 113.376 11.7413H108.098C108.136 12.2826 108.322 12.7073 108.658 13.0153C109.004 13.3233 109.419 13.4773 109.904 13.4773C110.268 13.4773 110.572 13.398 110.814 13.2393C111.066 13.0713 111.253 12.8566 111.374 12.5953H113.194C113.064 13.034 112.844 13.4353 112.536 13.7993C112.238 14.154 111.864 14.434 111.416 14.6393C110.978 14.8446 110.478 14.9473 109.918 14.9473ZM109.932 9.1233C109.494 9.1233 109.106 9.2493 108.77 9.5013C108.434 9.74396 108.22 10.1173 108.126 10.6213H111.584C111.556 10.164 111.388 9.79996 111.08 9.5293C110.772 9.25863 110.39 9.1233 109.932 9.1233ZM117.305 14.9473C116.708 14.9473 116.218 14.854 115.835 14.6673C115.453 14.4713 115.168 14.2146 114.981 13.8973C114.795 13.58 114.701 13.23 114.701 12.8473C114.701 12.2033 114.953 11.6806 115.457 11.2793C115.961 10.878 116.717 10.6773 117.725 10.6773H119.489V10.5093C119.489 10.0333 119.354 9.6833 119.083 9.4593C118.813 9.2353 118.477 9.1233 118.075 9.1233C117.711 9.1233 117.394 9.21196 117.123 9.3893C116.853 9.5573 116.685 9.8093 116.619 10.1453H114.869C114.916 9.6413 115.084 9.20263 115.373 8.8293C115.672 8.45596 116.055 8.1713 116.521 7.9753C116.988 7.76996 117.511 7.6673 118.089 7.6673C119.079 7.6673 119.858 7.91463 120.427 8.4093C120.997 8.90396 121.281 9.60396 121.281 10.5093V14.7793H119.755L119.587 13.6593C119.382 14.0326 119.093 14.3406 118.719 14.5833C118.355 14.826 117.884 14.9473 117.305 14.9473ZM117.711 13.5473C118.225 13.5473 118.621 13.3793 118.901 13.0433C119.191 12.7073 119.373 12.292 119.447 11.7973H117.921C117.445 11.7973 117.105 11.886 116.899 12.0633C116.694 12.2313 116.591 12.4413 116.591 12.6933C116.591 12.964 116.694 13.174 116.899 13.3233C117.105 13.4726 117.375 13.5473 117.711 13.5473ZM122.991 14.7793V4.6993H124.783V10.6493L127.247 7.8353H129.375L126.533 10.9993L129.837 14.7793H127.597L124.783 11.2933V14.7793H122.991ZM133.748 14.9473C133.048 14.9473 132.428 14.798 131.886 14.4993C131.345 14.2006 130.92 13.7806 130.612 13.2393C130.304 12.698 130.15 12.0726 130.15 11.3633C130.15 10.6446 130.3 10.0053 130.598 9.4453C130.906 8.8853 131.326 8.4513 131.858 8.1433C132.4 7.82596 133.034 7.6673 133.762 7.6673C134.444 7.6673 135.046 7.81663 135.568 8.1153C136.091 8.41396 136.497 8.82463 136.786 9.3473C137.085 9.86063 137.234 10.4346 137.234 11.0693C137.234 11.172 137.23 11.2793 137.22 11.3913C137.22 11.5033 137.216 11.62 137.206 11.7413H131.928C131.966 12.2826 132.152 12.7073 132.488 13.0153C132.834 13.3233 133.249 13.4773 133.734 13.4773C134.098 13.4773 134.402 13.398 134.644 13.2393C134.896 13.0713 135.083 12.8566 135.204 12.5953H137.024C136.894 13.034 136.674 13.4353 136.366 13.7993C136.068 14.154 135.694 14.434 135.246 14.6393C134.808 14.8446 134.308 14.9473 133.748 14.9473ZM133.762 9.1233C133.324 9.1233 132.936 9.2493 132.6 9.5013C132.264 9.74396 132.05 10.1173 131.956 10.6213H135.414C135.386 10.164 135.218 9.79996 134.91 9.5293C134.602 9.25863 134.22 9.1233 133.762 9.1233ZM138.741 14.7793V7.8353H140.337L140.505 9.1373C140.757 8.6893 141.098 8.33463 141.527 8.0733C141.966 7.80263 142.479 7.6673 143.067 7.6673V9.5573H142.563C142.171 9.5573 141.821 9.61796 141.513 9.7393C141.205 9.86063 140.963 10.0706 140.785 10.3693C140.617 10.668 140.533 11.0833 140.533 11.6153V14.7793H138.741Z" fill="white"/>
<path d="M34.2009 61L30.8709 48.4H33.3369L35.6049 58.426L38.2689 48.4H40.8069L43.3989 58.426L45.6669 48.4H48.1509L44.7309 61H41.9949L39.4929 51.658L36.9189 61H34.2009ZM53.1015 61.216C52.2375 61.216 51.4575 61.018 50.7615 60.622C50.0775 60.226 49.5315 59.68 49.1235 58.984C48.7275 58.276 48.5295 57.46 48.5295 56.536C48.5295 55.612 48.7335 54.802 49.1415 54.106C49.5495 53.398 50.0955 52.846 50.7795 52.45C51.4755 52.054 52.2555 51.856 53.1195 51.856C53.9715 51.856 54.7395 52.054 55.4235 52.45C56.1195 52.846 56.6655 53.398 57.0615 54.106C57.4695 54.802 57.6735 55.612 57.6735 56.536C57.6735 57.46 57.4695 58.276 57.0615 58.984C56.6655 59.68 56.1195 60.226 55.4235 60.622C54.7275 61.018 53.9535 61.216 53.1015 61.216ZM53.1015 59.218C53.7015 59.218 54.2235 58.996 54.6675 58.552C55.1115 58.096 55.3335 57.424 55.3335 56.536C55.3335 55.648 55.1115 54.982 54.6675 54.538C54.2235 54.082 53.7075 53.854 53.1195 53.854C52.5075 53.854 51.9795 54.082 51.5355 54.538C51.1035 54.982 50.8875 55.648 50.8875 56.536C50.8875 57.424 51.1035 58.096 51.5355 58.552C51.9795 58.996 52.5015 59.218 53.1015 59.218ZM63.0815 61.216C61.9655 61.216 61.1015 60.868 60.4895 60.172C59.8895 59.476 59.5895 58.456 59.5895 57.112V52.072H61.8755V56.896C61.8755 57.664 62.0315 58.252 62.3435 58.66C62.6555 59.068 63.1475 59.272 63.8195 59.272C64.4555 59.272 64.9775 59.044 65.3855 58.588C65.8055 58.132 66.0155 57.496 66.0155 56.68V52.072H68.3195V61H66.2855L66.1055 59.488C65.8295 60.016 65.4275 60.436 64.8995 60.748C64.3835 61.06 63.7775 61.216 63.0815 61.216ZM70.6846 61V48.04H72.9886V61H70.6846ZM79.4469 61.216C78.6069 61.216 77.8569 61.012 77.1969 60.604C76.5369 60.196 76.0149 59.638 75.6309 58.93C75.2469 58.222 75.0549 57.418 75.0549 56.518C75.0549 55.618 75.2469 54.82 75.6309 54.124C76.0149 53.416 76.5369 52.864 77.1969 52.468C77.8569 52.06 78.6069 51.856 79.4469 51.856C80.1189 51.856 80.7069 51.982 81.2109 52.234C81.7149 52.486 82.1229 52.84 82.4349 53.296V48.04H84.7389V61H82.6869L82.4349 59.722C82.1469 60.118 81.7629 60.466 81.2829 60.766C80.8149 61.066 80.2029 61.216 79.4469 61.216ZM79.9329 59.2C80.6769 59.2 81.2829 58.954 81.7509 58.462C82.2309 57.958 82.4709 57.316 82.4709 56.536C82.4709 55.756 82.2309 55.12 81.7509 54.628C81.2829 54.124 80.6769 53.872 79.9329 53.872C79.2009 53.872 78.5949 54.118 78.1149 54.61C77.6349 55.102 77.3949 55.738 77.3949 56.518C77.3949 57.298 77.6349 57.94 78.1149 58.444C78.5949 58.948 79.2009 59.2 79.9329 59.2ZM94.6861 61V56.518L90.4561 48.4H93.0661L95.8561 54.214L98.6281 48.4H101.202L96.9901 56.518V61H94.6861ZM105.308 61.216C104.444 61.216 103.664 61.018 102.968 60.622C102.284 60.226 101.738 59.68 101.33 58.984C100.934 58.276 100.736 57.46 100.736 56.536C100.736 55.612 100.94 54.802 101.348 54.106C101.756 53.398 102.302 52.846 102.986 52.45C103.682 52.054 104.462 51.856 105.326 51.856C106.178 51.856 106.946 52.054 107.63 52.45C108.326 52.846 108.872 53.398 109.268 54.106C109.676 54.802 109.88 55.612 109.88 56.536C109.88 57.46 109.676 58.276 109.268 58.984C108.872 59.68 108.326 60.226 107.63 60.622C106.934 61.018 106.16 61.216 105.308 61.216ZM105.308 59.218C105.908 59.218 106.43 58.996 106.874 58.552C107.318 58.096 107.54 57.424 107.54 56.536C107.54 55.648 107.318 54.982 106.874 54.538C106.43 54.082 105.914 53.854 105.326 53.854C104.714 53.854 104.186 54.082 103.742 54.538C103.31 54.982 103.094 55.648 103.094 56.536C103.094 57.424 103.31 58.096 103.742 58.552C104.186 58.996 104.708 59.218 105.308 59.218ZM115.289 61.216C114.173 61.216 113.309 60.868 112.697 60.172C112.097 59.476 111.797 58.456 111.797 57.112V52.072H114.083V56.896C114.083 57.664 114.239 58.252 114.551 58.66C114.863 59.068 115.355 59.272 116.027 59.272C116.663 59.272 117.185 59.044 117.593 58.588C118.013 58.132 118.223 57.496 118.223 56.68V52.072H120.527V61H118.493L118.313 59.488C118.037 60.016 117.635 60.436 117.107 60.748C116.591 61.06 115.985 61.216 115.289 61.216ZM127.235 61V48.4H131.861C132.869 48.4 133.697 48.574 134.345 48.922C135.005 49.258 135.497 49.72 135.821 50.308C136.145 50.884 136.307 51.526 136.307 52.234C136.307 53.002 136.103 53.704 135.695 54.34C135.299 54.976 134.675 55.438 133.823 55.726L136.433 61H133.787L131.447 56.032H129.539V61H127.235ZM129.539 54.34H131.717C132.485 54.34 133.049 54.154 133.409 53.782C133.769 53.41 133.949 52.918 133.949 52.306C133.949 51.706 133.769 51.226 133.409 50.866C133.061 50.506 132.491 50.326 131.699 50.326H129.539V54.34ZM141.14 61.216C140.372 61.216 139.742 61.096 139.25 60.856C138.758 60.604 138.392 60.274 138.152 59.866C137.912 59.458 137.792 59.008 137.792 58.516C137.792 57.688 138.116 57.016 138.764 56.5C139.412 55.984 140.384 55.726 141.68 55.726H143.948V55.51C143.948 54.898 143.774 54.448 143.426 54.16C143.078 53.872 142.646 53.728 142.13 53.728C141.662 53.728 141.254 53.842 140.906 54.07C140.558 54.286 140.342 54.61 140.258 55.042H138.008C138.068 54.394 138.284 53.83 138.656 53.35C139.04 52.87 139.532 52.504 140.132 52.252C140.732 51.988 141.404 51.856 142.148 51.856C143.42 51.856 144.422 52.174 145.154 52.81C145.886 53.446 146.252 54.346 146.252 55.51V61H144.29L144.074 59.56C143.81 60.04 143.438 60.436 142.958 60.748C142.49 61.06 141.884 61.216 141.14 61.216ZM141.662 59.416C142.322 59.416 142.832 59.2 143.192 58.768C143.564 58.336 143.798 57.802 143.894 57.166H141.932C141.32 57.166 140.882 57.28 140.618 57.508C140.354 57.724 140.222 57.994 140.222 58.318C140.222 58.666 140.354 58.936 140.618 59.128C140.882 59.32 141.23 59.416 141.662 59.416ZM152.305 61C151.369 61 150.619 60.772 150.055 60.316C149.491 59.86 149.209 59.05 149.209 57.886V53.998H147.679V52.072H149.209L149.479 49.678H151.513V52.072H153.925V53.998H151.513V57.904C151.513 58.336 151.603 58.636 151.783 58.804C151.975 58.96 152.299 59.038 152.755 59.038H153.871V61H152.305ZM155.903 61V48.04H158.207V53.44C158.507 52.948 158.909 52.564 159.413 52.288C159.929 52 160.517 51.856 161.177 51.856C162.281 51.856 163.133 52.204 163.733 52.9C164.345 53.596 164.651 54.616 164.651 55.96V61H162.365V56.176C162.365 55.408 162.209 54.82 161.897 54.412C161.597 54.004 161.117 53.8 160.457 53.8C159.809 53.8 159.269 54.028 158.837 54.484C158.417 54.94 158.207 55.576 158.207 56.392V61H155.903ZM171.193 61.216C170.293 61.216 169.495 61.024 168.799 60.64C168.103 60.256 167.557 59.716 167.161 59.02C166.765 58.324 166.567 57.52 166.567 56.608C166.567 55.684 166.759 54.862 167.143 54.142C167.539 53.422 168.079 52.864 168.763 52.468C169.459 52.06 170.275 51.856 171.211 51.856C172.087 51.856 172.861 52.048 173.533 52.432C174.205 52.816 174.727 53.344 175.099 54.016C175.483 54.676 175.675 55.414 175.675 56.23C175.675 56.362 175.669 56.5 175.657 56.644C175.657 56.788 175.651 56.938 175.639 57.094H168.853C168.901 57.79 169.141 58.336 169.573 58.732C170.017 59.128 170.551 59.326 171.175 59.326C171.643 59.326 172.033 59.224 172.345 59.02C172.669 58.804 172.909 58.528 173.065 58.192H175.405C175.237 58.756 174.955 59.272 174.559 59.74C174.175 60.196 173.695 60.556 173.119 60.82C172.555 61.084 171.913 61.216 171.193 61.216ZM171.211 53.728C170.647 53.728 170.149 53.89 169.717 54.214C169.285 54.526 169.009 55.006 168.889 55.654H173.335C173.299 55.066 173.083 54.598 172.687 54.25C172.291 53.902 171.799 53.728 171.211 53.728ZM177.612 61V52.072H179.664L179.88 53.746C180.204 53.17 180.642 52.714 181.194 52.378C181.758 52.03 182.418 51.856 183.174 51.856V54.286H182.526C182.022 54.286 181.572 54.364 181.176 54.52C180.78 54.676 180.468 54.946 180.24 55.33C180.024 55.714 179.916 56.248 179.916 56.932V61H177.612Z" fill="white"/>
<path d="M130.619 99.2832H131.944C131.944 99.2832 133.158 108.471 132.275 109.336C131.392 110.201 128.963 110.741 128.632 109.336C128.3 107.931 128.632 102.742 128.632 102.742L130.619 99.2832Z" fill="#FF576D"/>
<path d="M121.952 100.525C126.403 100.525 130.011 96.3873 130.011 91.283C130.011 86.1788 126.403 82.041 121.952 82.041C117.501 82.041 113.893 86.1788 113.893 91.283C113.893 96.3873 117.501 100.525 121.952 100.525Z" fill="#2F2E41"/>
<path d="M120.131 93.0165C120.131 93.0165 120.573 96.5836 119.248 97.3402C117.923 98.0969 120.793 102.421 120.793 102.421L124.216 103.285L126.534 100.151L126.092 96.9079C126.092 96.9079 123.443 94.3136 124.657 91.9355L120.131 93.0165Z" fill="#FFC1C7"/>
<path opacity="0.1" d="M120.131 93.0165C120.131 93.0165 120.573 96.5836 119.248 97.3402C117.923 98.0969 120.793 102.421 120.793 102.421L124.216 103.285L126.534 100.151L126.092 96.9079C126.092 96.9079 123.443 94.3136 124.657 91.9355L120.131 93.0165Z" fill="black"/>
<path d="M115.163 131.734C115.163 131.734 113.838 143.516 115.163 146.327C116.488 149.137 120.021 157.028 120.021 157.028L118.917 159.298L121.897 158.649L123.112 156.379C123.112 156.379 121.677 150.867 121.456 148.921C121.235 146.975 119.579 143.408 119.579 143.408L122.67 130.545L115.163 131.734Z" fill="#FFC1C7"/>
<path d="M125.648 129.765C125.648 129.765 125.759 141.656 126.532 143.5L126.09 159.606L128.519 159.923C128.519 159.923 132.052 146.412 131.5 143.169C130.948 139.926 131.61 128.252 131.61 128.252L125.648 129.765Z" fill="#FFC1C7"/>
<path d="M121.951 94.4729C124.268 94.4729 126.146 92.6339 126.146 90.3654C126.146 88.0968 124.268 86.2578 121.951 86.2578C119.634 86.2578 117.756 88.0968 117.756 90.3654C117.756 92.6339 119.634 94.4729 121.951 94.4729Z" fill="#FFC1C7"/>
<path d="M136.251 131.276C136.251 131.276 133.27 133.222 132.055 131.817C130.841 130.412 115.937 132.682 114.06 132.249C112.184 131.817 115.054 124.899 115.054 121.332C115.054 118.663 116.043 114.603 116.541 112.726C116.709 112.095 116.82 111.711 116.82 111.711C116.82 111.711 117.953 108.556 117.741 107.245C117.727 107.146 117.699 107.048 117.658 106.956C117.641 106.918 117.619 106.881 117.593 106.847C117.064 106.156 115.549 101.119 114.96 98.9563C114.864 98.6362 114.785 98.3115 114.723 97.9834C114.723 97.6591 118.808 96.6863 119.829 96.6398C120.851 96.5933 121.126 97.9834 121.126 97.9834C121.457 98.1996 123.003 101.983 123.003 101.983L124.438 98.4158C124.438 98.4158 124.328 97.6591 124.217 97.6591C124.107 97.6591 125.85 96.6387 125.85 96.6387C125.85 96.6387 127.639 97.8753 128.633 97.6591C129.627 97.4429 131.945 99.3886 131.945 99.3886C131.945 99.3886 127.86 109.441 129.516 111.603C131.172 113.765 136.251 131.276 136.251 131.276Z" fill="#FF576D"/>
<path d="M122.782 155.948C122.782 155.948 120.905 157.785 120.905 158.002L119.359 157.353C119.359 157.353 118.697 159.731 118.586 160.055C118.476 160.38 116.599 163.298 114.722 164.595C112.846 165.892 114.722 167.514 116.378 167.19C118.034 166.865 122.23 163.19 122.23 163.19C122.23 163.19 125.1 163.19 126.094 161.028C126.094 161.028 123.444 155.732 122.782 155.948Z" fill="#2F2E41"/>
<path d="M128.299 159.066C128.299 159.066 125.463 157.048 125.28 158.922C125.097 160.795 125.097 164.903 125.097 164.903C125.097 164.903 124.214 167.605 126.974 167.281C129.734 166.957 129.955 166.2 129.955 166.2L128.63 161.012V158.742L128.299 159.066Z" fill="#2F2E41"/>
<path opacity="0.1" d="M117.592 106.85C117.063 106.159 115.547 101.122 114.959 98.959H115.494C115.494 98.959 116.839 104.112 117.657 106.959C117.639 106.92 117.618 106.884 117.592 106.85Z" fill="black"/>
<path opacity="0.1" d="M124.879 113.983C124.879 113.983 123.334 114.091 117.704 113.01C117.311 112.936 116.923 112.842 116.541 112.728C116.709 112.096 116.82 111.713 116.82 111.713C116.82 111.713 117.953 108.557 117.741 107.246C118.005 108.154 118.201 108.767 118.256 108.794C118.476 108.902 125.542 110.091 126.535 110.523C127.529 110.956 124.879 113.983 124.879 113.983Z" fill="black"/>
<path opacity="0.1" d="M126.867 99.8371C126.867 99.8371 129.912 99.4692 130.101 99.9526C130.29 100.436 131.062 105.108 131.394 105.707C131.725 106.306 131.835 110.02 130.51 110.139C129.186 110.259 127.419 108.941 127.75 107.863C128.082 106.785 126.867 99.8371 126.867 99.8371Z" fill="black"/>
<path d="M125.322 109.766C125.322 109.766 129.958 110.307 130.731 109.766C131.504 109.226 134.706 109.226 134.043 110.739C133.381 112.252 127.64 112.36 127.64 112.36H124.328L125.322 109.766Z" fill="#FFC1C7"/>
<path d="M115.495 98.1992H114.722C114.722 98.1992 113.176 98.5235 113.397 103.28C113.618 108.036 112.072 111.17 117.703 112.251C123.333 113.332 124.879 113.224 124.879 113.224C124.879 113.224 127.528 110.198 126.535 109.765C125.541 109.333 118.475 108.144 118.255 108.036C118.034 107.928 115.495 98.1992 115.495 98.1992Z" fill="#FF576D"/>
<path d="M130.015 100.334C130.015 100.334 128.081 93.2285 126.535 93.2285C124.989 93.2285 123.223 93.5528 124.548 94.958C125.873 96.3632 127.529 97.8765 127.639 98.6332C127.749 99.3899 128.191 100.471 128.191 100.471L130.015 100.334Z" fill="#FFC1C7"/>
<path d="M127.305 99.8371C127.305 99.8371 130.35 99.4692 130.538 99.9526C130.727 100.436 131.5 105.108 131.831 105.707C132.162 106.306 132.273 110.02 130.948 110.139C129.623 110.259 127.857 108.941 128.188 107.863C128.519 106.785 127.305 99.8371 127.305 99.8371Z" fill="#FF576D"/>
<path d="M120.849 90.3648C123.044 90.3648 124.824 88.6226 124.824 86.4734C124.824 84.3243 123.044 82.582 120.849 82.582C118.654 82.582 116.875 84.3243 116.875 86.4734C116.875 88.6226 118.654 90.3648 120.849 90.3648Z" fill="#2F2E41"/>
<path d="M68.55 116.691C68.55 116.104 68.7773 115.679 69.232 115.415C69.7013 115.151 70.288 115.019 70.992 115.019C72.7226 115.019 73.588 115.576 73.588 116.691C73.588 117.234 73.3533 117.652 72.884 117.945C72.4293 118.224 71.7986 118.363 70.992 118.363C70.2293 118.363 69.628 118.209 69.188 117.901C68.7626 117.578 68.55 117.175 68.55 116.691ZM76.998 106.967C76.998 107.92 76.7706 108.866 76.316 109.805C75.876 110.729 75.3406 111.506 74.71 112.137C74.0793 112.768 73.434 113.281 72.774 113.677C72.1286 114.073 71.586 114.271 71.146 114.271C70.0753 114.271 69.54 113.897 69.54 113.149C69.54 112.768 69.694 112.357 70.002 111.917C70.31 111.462 70.6473 111.052 71.014 110.685C71.3806 110.304 71.718 109.82 72.026 109.233C72.334 108.646 72.488 108.052 72.488 107.451C72.488 106.908 72.3706 106.417 72.136 105.977C71.916 105.537 71.63 105.317 71.278 105.317C70.8966 105.317 70.706 105.5 70.706 105.867C70.706 105.94 70.7573 106.116 70.86 106.395C70.9773 106.659 71.036 106.886 71.036 107.077C71.036 107.546 70.8746 107.854 70.552 108.001C70.244 108.133 69.7746 108.199 69.144 108.199C68.0293 108.199 67.2153 107.935 66.702 107.407C66.2033 106.879 65.954 106.314 65.954 105.713C65.954 103.909 67.6626 103.007 71.08 103.007C73.0013 103.007 74.468 103.337 75.48 103.997C76.492 104.657 76.998 105.647 76.998 106.967Z" fill="white"/>
<path d="M139.947 118.892C139.947 118.385 140.143 118.018 140.536 117.79C140.941 117.562 141.448 117.448 142.056 117.448C143.55 117.448 144.298 117.929 144.298 118.892C144.298 119.361 144.095 119.722 143.69 119.975C143.297 120.216 142.752 120.336 142.056 120.336C141.397 120.336 140.878 120.203 140.498 119.937C140.13 119.658 139.947 119.31 139.947 118.892ZM147.243 110.494C147.243 111.317 147.046 112.134 146.654 112.945C146.274 113.743 145.811 114.414 145.267 114.959C144.722 115.504 144.165 115.947 143.595 116.289C143.037 116.631 142.569 116.802 142.189 116.802C141.264 116.802 140.802 116.479 140.802 115.833C140.802 115.504 140.935 115.149 141.201 114.769C141.467 114.376 141.758 114.022 142.075 113.705C142.391 113.376 142.683 112.958 142.949 112.451C143.215 111.944 143.348 111.431 143.348 110.912C143.348 110.443 143.246 110.019 143.044 109.639C142.854 109.259 142.607 109.069 142.303 109.069C141.973 109.069 141.809 109.227 141.809 109.544C141.809 109.607 141.853 109.759 141.942 110C142.043 110.228 142.094 110.424 142.094 110.589C142.094 110.994 141.954 111.26 141.676 111.387C141.41 111.501 141.004 111.558 140.46 111.558C139.497 111.558 138.794 111.33 138.351 110.874C137.92 110.418 137.705 109.93 137.705 109.411C137.705 107.853 139.18 107.074 142.132 107.074C143.791 107.074 145.058 107.359 145.932 107.929C146.806 108.499 147.243 109.354 147.243 110.494Z" fill="white"/>
<path d="M101.684 92.8316C101.684 92.165 101.943 91.6816 102.459 91.3816C102.993 91.0816 103.659 90.9316 104.459 90.9316C106.426 90.9316 107.409 91.565 107.409 92.8316C107.409 93.4483 107.143 93.9233 106.609 94.2566C106.093 94.5733 105.376 94.7316 104.459 94.7316C103.593 94.7316 102.909 94.5566 102.409 94.2066C101.926 93.84 101.684 93.3816 101.684 92.8316ZM111.284 81.7816C111.284 82.865 111.026 83.94 110.509 85.0066C110.009 86.0566 109.401 86.94 108.684 87.6566C107.968 88.3733 107.234 88.9566 106.484 89.4066C105.751 89.8566 105.134 90.0816 104.634 90.0816C103.418 90.0816 102.809 89.6566 102.809 88.8066C102.809 88.3733 102.984 87.9066 103.334 87.4066C103.684 86.89 104.068 86.4233 104.484 86.0066C104.901 85.5733 105.284 85.0233 105.634 84.3566C105.984 83.69 106.159 83.015 106.159 82.3316C106.159 81.715 106.026 81.1566 105.759 80.6566C105.509 80.1566 105.184 79.9066 104.784 79.9066C104.351 79.9066 104.134 80.115 104.134 80.5316C104.134 80.615 104.193 80.815 104.309 81.1316C104.443 81.4316 104.509 81.69 104.509 81.9066C104.509 82.44 104.326 82.79 103.959 82.9566C103.609 83.1066 103.076 83.1816 102.359 83.1816C101.093 83.1816 100.168 82.8816 99.5845 82.2816C99.0178 81.6816 98.7345 81.04 98.7345 80.3566C98.7345 78.3066 100.676 77.2816 104.559 77.2816C106.743 77.2816 108.409 77.6566 109.559 78.4066C110.709 79.1566 111.284 80.2816 111.284 81.7816Z" fill="white"/>
<path d="M84.5689 165.053H81.9312L81.5371 155.092L84.5693 155.092L84.5689 165.053Z" fill="#FFB8B8"/>
<path d="M85.243 167.558L76.7383 167.557V167.452C76.7383 167.026 76.8239 166.605 76.9903 166.212C77.1566 165.818 77.4004 165.461 77.7078 165.16C78.0152 164.859 78.3802 164.621 78.7818 164.458C79.1834 164.295 79.6139 164.211 80.0486 164.211H80.0488L85.2431 164.211L85.243 167.558Z" fill="#2F2E41"/>
<path d="M99.4284 165.053H102.066L102.46 155.092L99.4277 155.092L99.4284 165.053Z" fill="#FFB8B8"/>
<path d="M98.7539 164.211L103.948 164.211H103.948C104.383 164.211 104.814 164.295 105.215 164.458C105.617 164.621 105.982 164.859 106.289 165.16C106.597 165.461 106.84 165.818 107.007 166.212C107.173 166.605 107.259 167.026 107.259 167.452V167.557L98.7541 167.558L98.7539 164.211Z" fill="#2F2E41"/>
<path d="M99.4956 163.776C99.2755 163.775 99.0622 163.701 98.8905 163.566C98.7188 163.432 98.5988 163.244 98.5502 163.034L92.0128 135.114C91.9985 135.043 91.959 134.979 91.9014 134.934C91.8438 134.889 91.7717 134.865 91.6978 134.867H91.6962C91.6221 134.865 91.5499 134.89 91.4924 134.936C91.4348 134.982 91.3958 135.046 91.3821 135.117L85.3786 162.848C85.3318 163.061 85.2124 163.251 85.0401 163.387C84.8679 163.524 84.6532 163.599 84.4315 163.6H81.5717C81.4397 163.6 81.3092 163.573 81.188 163.522C81.0669 163.471 80.9577 163.396 80.8672 163.302C80.7767 163.208 80.7067 163.097 80.6617 162.975C80.6166 162.854 80.5974 162.725 80.6052 162.596L82.7353 127.448L83.5925 127.199L83.6085 127.199L100.445 127.344L104.031 162.453C104.044 162.578 104.03 162.705 103.993 162.825C103.955 162.945 103.893 163.057 103.81 163.153C103.728 163.25 103.627 163.329 103.512 163.387C103.398 163.445 103.273 163.48 103.145 163.49L99.5732 163.772C99.5472 163.775 99.5213 163.776 99.4956 163.776Z" fill="#2F2E41"/>
<path d="M92.5419 95.0253C95.4603 95.0253 97.826 92.7089 97.826 89.8515C97.826 86.9941 95.4603 84.6777 92.5419 84.6777C89.6236 84.6777 87.2578 86.9941 87.2578 89.8515C87.2578 92.7089 89.6236 95.0253 92.5419 95.0253Z" fill="#A0616A"/>
<path d="M89.3077 131.304C88.3807 131.315 87.4573 131.188 86.5695 130.927C85.7798 130.694 85.0472 130.305 84.4168 129.784C83.7864 129.263 83.2715 128.622 82.9039 127.899C82.7873 127.681 82.7615 127.428 82.8318 127.192C83.4145 125.245 86.2307 115.122 84.4339 107.074C84.1803 105.956 84.1592 104.8 84.3719 103.674C84.5846 102.548 85.0268 101.475 85.6721 100.52C86.3023 99.5724 87.121 98.7588 88.0793 98.1277C89.0377 97.4966 90.116 97.0609 91.2501 96.8467L91.2501 96.8464C91.5481 96.7895 91.8478 96.7428 92.1406 96.7074C93.3942 96.5563 94.6664 96.6784 95.8661 97.0649C97.0659 97.4514 98.1636 98.0927 99.0806 98.9431C100.025 99.8101 100.762 100.871 101.238 102.049C101.715 103.228 101.92 104.495 101.838 105.76L100.457 127.458C100.447 127.62 100.395 127.778 100.304 127.915C100.214 128.051 100.089 128.163 99.9409 128.238C98.3505 129.054 93.5728 131.304 89.3077 131.304Z" fill="#CCCCCC"/>
<path d="M84.0658 127.737C84.3683 127.59 84.6341 127.379 84.8445 127.12C85.0549 126.862 85.2048 126.561 85.2836 126.239C85.3624 125.917 85.3682 125.583 85.3006 125.258C85.233 124.934 85.0936 124.629 84.8923 124.363L86.6206 107.818H82.8856L81.5122 123.973C81.0787 124.334 80.7955 124.838 80.7161 125.389C80.6367 125.941 80.7667 126.502 81.0815 126.966C81.3963 127.43 81.8739 127.765 82.424 127.907C82.974 128.049 83.5582 127.989 84.0658 127.737Z" fill="#A0616A"/>
<path d="M86.8848 99.9845C87.6141 100.128 88.2652 100.527 88.7162 101.106C89.1672 101.685 89.3873 102.405 89.3355 103.132L88.8208 110.345C88.8117 110.472 88.7737 110.595 88.7094 110.705C88.6451 110.815 88.5563 110.909 88.4496 110.981C88.3429 111.053 88.221 111.1 88.093 111.119C87.965 111.139 87.8342 111.129 87.7104 111.092L81.5091 109.234C81.3961 109.2 81.2915 109.144 81.2018 109.068C81.112 108.993 81.039 108.901 80.9873 108.797C80.9356 108.693 80.9063 108.58 80.9012 108.464C80.8961 108.349 80.9154 108.233 80.9578 108.125L83.4246 101.847C83.6841 101.187 84.1738 100.637 84.8071 100.296C85.4403 99.9556 86.1763 99.8451 86.8848 99.9845Z" fill="#CCCCCC"/>
<path d="M98.5113 86.0448C97.9624 84.6941 96.957 83.5686 95.6629 82.8562C94.3687 82.1438 92.8642 81.8875 91.4003 82.1301L93.0664 83.4484C90.9964 83.5166 88.8174 83.3715 87.3395 84.7922C87.81 84.7794 88.4267 85.7648 88.8972 85.752C88.0175 85.7691 87.2198 86.3743 86.8312 87.1472C86.4714 87.9413 86.3872 88.829 86.5916 89.6744C86.7653 90.519 88.0907 92.4975 88.4475 93.285C88.3861 91.2269 92.5242 86.3178 94.545 86.8302C93.5183 87.2031 92.6274 87.8654 91.9847 88.7334C93.3594 88.0541 94.9142 87.8051 96.4383 88.02C96.7863 88.0981 97.1453 88.1178 97.5 88.0781C97.7174 88.036 97.9202 87.9401 98.0889 87.7994C98.2577 87.6587 98.3867 87.478 98.4638 87.2745C98.5409 87.0711 98.5634 86.8517 98.5292 86.6373C98.4951 86.4229 98.4053 86.2206 98.2685 86.0499L98.5113 86.0448Z" fill="#2F2E41"/>
<path d="M91.8911 118.561C92.0094 118.574 92.1264 118.597 92.241 118.628L100.34 111.828L99.8669 109.332L103.62 108.141L104.896 112.478C104.999 112.829 104.983 113.202 104.851 113.543C104.719 113.884 104.477 114.174 104.163 114.369L93.9051 120.724C93.9124 121.173 93.7799 121.614 93.5252 121.987C93.2706 122.361 92.9058 122.649 92.4795 122.815C92.0532 122.98 91.5855 123.015 91.1387 122.914C90.6919 122.813 90.287 122.581 89.9781 122.249C89.6691 121.917 89.4707 121.501 89.4091 121.056C89.3476 120.611 89.4258 120.158 89.6335 119.758C89.8412 119.358 90.1684 119.029 90.5717 118.815C90.975 118.601 91.4352 118.513 91.8911 118.561Z" fill="#A0616A"/>
<path d="M98.8314 100.249C99.5597 100.1 100.318 100.216 100.965 100.575C101.613 100.935 102.104 101.512 102.348 102.2L104.768 109.032C104.811 109.152 104.825 109.279 104.81 109.405C104.795 109.531 104.752 109.652 104.682 109.759C104.613 109.866 104.52 109.957 104.41 110.024C104.3 110.091 104.176 110.132 104.047 110.146L97.5985 110.822C97.4811 110.834 97.3624 110.823 97.2497 110.788C97.137 110.753 97.0327 110.697 96.9435 110.621C96.8542 110.545 96.7818 110.452 96.7308 110.348C96.6798 110.244 96.6512 110.13 96.6469 110.015L96.3966 103.292C96.3702 102.585 96.6002 101.892 97.0458 101.335C97.4915 100.778 98.124 100.393 98.8314 100.249Z" fill="#CCCCCC"/>
<defs>
<filter id="filter0_d" x="0" y="18.5762" width="214" height="217.559" filterUnits="userSpaceOnUse" color-interpolation-filters="sRGB">
<feFlood flood-opacity="0" result="BackgroundImageFix"/>
<feColorMatrix in="SourceAlpha" type="matrix" values="0 0 0 0 0 0 0 0 0 0 0 0 0 0 0 0 0 0 127 0"/>
<feOffset dy="1"/>
<feGaussianBlur stdDeviation="1"/>
<feColorMatrix type="matrix" values="0 0 0 0 0.0588235 0 0 0 0 0.0588235 0 0 0 0 0.0588235 0 0 0 0.1 0"/>
<feBlend mode="normal" in2="BackgroundImageFix" result="effect1_dropShadow"/>
<feBlend mode="normal" in="SourceGraphic" in2="effect1_dropShadow" result="shape"/>
</filter>
</defs>
</svg>
