<svg width="240" height="260" viewBox="0 0 240 260" fill="none" xmlns="http://www.w3.org/2000/svg">
<g filter="url(#filter0_d)">
<rect x="2" y="21.9023" width="236" height="234.99" rx="20" fill="#FC6C7F"/>
</g>
<path fill-rule="evenodd" clip-rule="evenodd" d="M221 28.7559C216.032 28.7559 212 32.7037 212 37.568C212 42.4322 216.032 46.3801 221 46.3801C225.968 46.3801 230 42.4322 230 37.568C230 32.7037 225.968 28.7559 221 28.7559ZM220.1 33.1619V34.9243H221.9V33.1619H220.1ZM220.1 36.6868V41.974H221.9V36.6868H220.1ZM213.8 37.568C213.8 41.4541 217.031 44.6177 221 44.6177C224.969 44.6177 228.2 41.4541 228.2 37.568C228.2 33.6818 224.969 30.5183 221 30.5183C217.031 30.5183 213.8 33.6818 213.8 37.568Z" fill="white"/>
<path d="M37 10.3613C37 4.83848 41.4772 0.361328 47 0.361328H193C198.523 0.361328 203 4.83848 203 10.3613V21.902H37V10.3613Z" fill="#F12587"/>
<path d="M102.906 16.5123C101.85 16.5123 100.927 16.2723 100.138 15.7923C99.3485 15.3123 98.7352 14.6456 98.2979 13.7923C97.8605 12.9283 97.6419 11.9256 97.6419 10.7843C97.6419 9.63231 97.8659 8.61898 98.3139 7.74431C98.7725 6.85898 99.4179 6.17098 100.25 5.68031C101.093 5.17898 102.09 4.92831 103.242 4.92831C104.554 4.92831 105.642 5.24298 106.506 5.87231C107.37 6.50165 107.93 7.37098 108.186 8.48031H105.898C105.727 7.95765 105.418 7.55231 104.97 7.26431C104.522 6.96565 103.946 6.81631 103.242 6.81631C102.122 6.81631 101.258 7.17365 100.65 7.88831C100.042 8.59231 99.7379 9.56298 99.7379 10.8003C99.7379 12.0376 100.037 12.9976 100.634 13.6803C101.242 14.3523 102.063 14.6883 103.098 14.6883C104.111 14.6883 104.874 14.4163 105.386 13.8723C105.909 13.3176 106.223 12.5923 106.33 11.6963H103.498V10.1603H108.394V16.3203H106.506L106.346 14.8483C105.983 15.3816 105.53 15.7923 104.986 16.0803C104.442 16.3683 103.749 16.5123 102.906 16.5123ZM113.073 16.5123C112.39 16.5123 111.83 16.4056 111.393 16.1923C110.956 15.9683 110.63 15.675 110.417 15.3123C110.204 14.9496 110.097 14.5496 110.097 14.1123C110.097 13.3763 110.385 12.779 110.961 12.3203C111.537 11.8616 112.401 11.6323 113.553 11.6323H115.569V11.4403C115.569 10.8963 115.414 10.4963 115.105 10.2403C114.796 9.98431 114.412 9.85631 113.953 9.85631C113.537 9.85631 113.174 9.95765 112.865 10.1603C112.556 10.3523 112.364 10.6403 112.289 11.0243H110.289C110.342 10.4483 110.534 9.94698 110.865 9.52031C111.206 9.09365 111.644 8.76831 112.177 8.54431C112.71 8.30965 113.308 8.19231 113.969 8.19231C115.1 8.19231 115.99 8.47498 116.641 9.04031C117.292 9.60565 117.617 10.4056 117.617 11.4403V16.3203H115.873L115.681 15.0403C115.446 15.467 115.116 15.819 114.689 16.0963C114.273 16.3736 113.734 16.5123 113.073 16.5123ZM113.537 14.9123C114.124 14.9123 114.577 14.7203 114.897 14.3363C115.228 13.9523 115.436 13.4776 115.521 12.9123H113.777C113.233 12.9123 112.844 13.0136 112.609 13.2163C112.374 13.4083 112.257 13.6483 112.257 13.9363C112.257 14.2456 112.374 14.4856 112.609 14.6563C112.844 14.827 113.153 14.9123 113.537 14.9123ZM119.571 16.3203V8.38431H121.379L121.555 9.45631C121.811 9.07231 122.147 8.76831 122.563 8.54431C122.99 8.30965 123.481 8.19231 124.035 8.19231C125.262 8.19231 126.131 8.66698 126.643 9.61631C126.931 9.17898 127.315 8.83231 127.795 8.57631C128.286 8.32031 128.819 8.19231 129.395 8.19231C130.43 8.19231 131.225 8.50165 131.779 9.12031C132.334 9.73898 132.611 10.6456 132.611 11.8403V16.3203H130.563V12.0323C130.563 11.3496 130.43 10.827 130.163 10.4643C129.907 10.1016 129.507 9.92031 128.963 9.92031C128.409 9.92031 127.961 10.123 127.619 10.5283C127.289 10.9336 127.123 11.499 127.123 12.2243V16.3203H125.075V12.0323C125.075 11.3496 124.942 10.827 124.675 10.4643C124.409 10.1016 123.998 9.92031 123.443 9.92031C122.899 9.92031 122.457 10.123 122.115 10.5283C121.785 10.9336 121.619 11.499 121.619 12.2243V16.3203H119.571ZM138.412 16.5123C137.612 16.5123 136.902 16.3416 136.284 16.0003C135.665 15.659 135.18 15.179 134.828 14.5603C134.476 13.9416 134.3 13.227 134.3 12.4163C134.3 11.595 134.47 10.8643 134.812 10.2243C135.164 9.58431 135.644 9.08831 136.252 8.73631C136.87 8.37365 137.596 8.19231 138.428 8.19231C139.206 8.19231 139.894 8.36298 140.492 8.70431C141.089 9.04565 141.553 9.51498 141.884 10.1123C142.225 10.699 142.396 11.355 142.396 12.0803C142.396 12.1976 142.39 12.3203 142.38 12.4483C142.38 12.5763 142.374 12.7096 142.364 12.8483H136.332C136.374 13.467 136.588 13.9523 136.972 14.3043C137.366 14.6563 137.841 14.8323 138.396 14.8323C138.812 14.8323 139.158 14.7416 139.436 14.5603C139.724 14.3683 139.937 14.123 140.076 13.8243H142.156C142.006 14.3256 141.756 14.7843 141.404 15.2003C141.062 15.6056 140.636 15.9256 140.124 16.1603C139.622 16.395 139.052 16.5123 138.412 16.5123ZM138.428 9.85631C137.926 9.85631 137.484 10.0003 137.1 10.2883C136.716 10.5656 136.47 10.9923 136.364 11.5683H140.316C140.284 11.0456 140.092 10.6296 139.74 10.3203C139.388 10.011 138.95 9.85631 138.428 9.85631Z" fill="white"/>
<path d="M52.3354 74.5684V68.5924L46.6954 57.7684H50.1754L53.8954 65.5204L57.5914 57.7684H61.0234L55.4074 68.5924V74.5684H52.3354ZM66.5706 74.8564C65.3706 74.8564 64.3066 74.6004 63.3786 74.0884C62.4506 73.5764 61.7226 72.8564 61.1946 71.9284C60.6666 71.0004 60.4026 69.9284 60.4026 68.7124C60.4026 67.4804 60.6586 66.3844 61.1706 65.4244C61.6986 64.4644 62.4186 63.7204 63.3306 63.1924C64.2586 62.6484 65.3466 62.3764 66.5946 62.3764C67.7626 62.3764 68.7946 62.6324 69.6906 63.1444C70.5866 63.6564 71.2826 64.3604 71.7786 65.2564C72.2906 66.1364 72.5466 67.1204 72.5466 68.2084C72.5466 68.3844 72.5386 68.5684 72.5226 68.7604C72.5226 68.9524 72.5146 69.1524 72.4986 69.3604H63.4506C63.5146 70.2884 63.8346 71.0164 64.4106 71.5444C65.0026 72.0724 65.7146 72.3364 66.5466 72.3364C67.1706 72.3364 67.6906 72.2004 68.1066 71.9284C68.5386 71.6404 68.8586 71.2724 69.0666 70.8244H72.1866C71.9626 71.5764 71.5866 72.2644 71.0586 72.8884C70.5466 73.4964 69.9066 73.9764 69.1386 74.3284C68.3866 74.6804 67.5306 74.8564 66.5706 74.8564ZM66.5946 64.8724C65.8426 64.8724 65.1786 65.0884 64.6026 65.5204C64.0266 65.9364 63.6586 66.5764 63.4986 67.4404H69.4266C69.3786 66.6564 69.0906 66.0324 68.5626 65.5684C68.0346 65.1044 67.3786 64.8724 66.5946 64.8724ZM80.0503 74.8564C78.9943 74.8564 78.0663 74.6884 77.2663 74.3524C76.4663 74.0004 75.8263 73.5204 75.3463 72.9124C74.8663 72.3044 74.5783 71.6004 74.4823 70.8004H77.5783C77.6743 71.2644 77.9303 71.6644 78.3463 72.0004C78.7783 72.3204 79.3303 72.4804 80.0023 72.4804C80.6743 72.4804 81.1623 72.3444 81.4663 72.0724C81.7863 71.8004 81.9463 71.4884 81.9463 71.1364C81.9463 70.6244 81.7223 70.2804 81.2743 70.1044C80.8263 69.9124 80.2023 69.7284 79.4023 69.5524C78.8903 69.4404 78.3703 69.3044 77.8423 69.1444C77.3143 68.9844 76.8263 68.7844 76.3783 68.5444C75.9463 68.2884 75.5943 67.9684 75.3223 67.5844C75.0503 67.1844 74.9143 66.6964 74.9143 66.1204C74.9143 65.0644 75.3303 64.1764 76.1623 63.4564C77.0103 62.7364 78.1943 62.3764 79.7143 62.3764C81.1223 62.3764 82.2423 62.7044 83.0743 63.3604C83.9223 64.0164 84.4263 64.9204 84.5863 66.0724H81.6823C81.5063 65.1924 80.8423 64.7524 79.6903 64.7524C79.1143 64.7524 78.6663 64.8644 78.3463 65.0884C78.0423 65.3124 77.8903 65.5924 77.8903 65.9284C77.8903 66.2804 78.1223 66.5604 78.5863 66.7684C79.0503 66.9764 79.6663 67.1684 80.4343 67.3444C81.2663 67.5364 82.0263 67.7524 82.7143 67.9924C83.4183 68.2164 83.9783 68.5604 84.3943 69.0244C84.8103 69.4724 85.0183 70.1204 85.0183 70.9684C85.0343 71.7044 84.8423 72.3684 84.4423 72.9604C84.0423 73.5524 83.4663 74.0164 82.7143 74.3524C81.9623 74.6884 81.0743 74.8564 80.0503 74.8564ZM86.5157 77.3524L87.8837 71.3764H90.8597L88.5317 77.3524H86.5157ZM99.0851 74.5684V57.7684H102.157L110.053 69.6004V57.7684H113.125V74.5684H110.053L102.157 62.7604V74.5684H99.0851ZM122.022 74.8564C120.87 74.8564 119.83 74.5924 118.902 74.0644C117.99 73.5364 117.262 72.8084 116.718 71.8804C116.19 70.9364 115.926 69.8484 115.926 68.6164C115.926 67.3844 116.198 66.3044 116.742 65.3764C117.286 64.4324 118.014 63.6964 118.926 63.1684C119.854 62.6404 120.894 62.3764 122.046 62.3764C123.182 62.3764 124.206 62.6404 125.118 63.1684C126.046 63.6964 126.774 64.4324 127.302 65.3764C127.846 66.3044 128.118 67.3844 128.118 68.6164C128.118 69.8484 127.846 70.9364 127.302 71.8804C126.774 72.8084 126.046 73.5364 125.118 74.0644C124.19 74.5924 123.158 74.8564 122.022 74.8564ZM122.022 72.1924C122.822 72.1924 123.518 71.8964 124.11 71.3044C124.702 70.6964 124.998 69.8004 124.998 68.6164C124.998 67.4324 124.702 66.5444 124.11 65.9524C123.518 65.3444 122.83 65.0404 122.046 65.0404C121.23 65.0404 120.526 65.3444 119.934 65.9524C119.358 66.5444 119.07 67.4324 119.07 68.6164C119.07 69.8004 119.358 70.6964 119.934 71.3044C120.526 71.8964 121.222 72.1924 122.022 72.1924ZM132.185 74.7364C131.625 74.7364 131.161 74.5604 130.793 74.2084C130.441 73.8564 130.265 73.4324 130.265 72.9364C130.265 72.4244 130.441 71.9924 130.793 71.6404C131.161 71.2884 131.625 71.1124 132.185 71.1124C132.745 71.1124 133.201 71.2884 133.553 71.6404C133.921 71.9924 134.105 72.4244 134.105 72.9364C134.105 73.4324 133.921 73.8564 133.553 74.2084C133.201 74.5604 132.745 74.7364 132.185 74.7364ZM137.95 74.7364C137.39 74.7364 136.926 74.5604 136.558 74.2084C136.206 73.8564 136.03 73.4324 136.03 72.9364C136.03 72.4244 136.206 71.9924 136.558 71.6404C136.926 71.2884 137.39 71.1124 137.95 71.1124C138.51 71.1124 138.966 71.2884 139.318 71.6404C139.686 71.9924 139.87 72.4244 139.87 72.9364C139.87 73.4324 139.686 73.8564 139.318 74.2084C138.966 74.5604 138.51 74.7364 137.95 74.7364ZM147.107 74.5684L153.251 57.7684H156.707L162.851 74.5684H159.587L158.243 70.6804H151.691L150.323 74.5684H147.107ZM152.531 68.2804H157.403L154.955 61.2964L152.531 68.2804ZM164.943 74.5684V62.6644H167.655L167.895 64.6804C168.263 63.9764 168.791 63.4164 169.479 63.0004C170.183 62.5844 171.007 62.3764 171.951 62.3764C173.423 62.3764 174.567 62.8404 175.383 63.7684C176.199 64.6964 176.607 66.0564 176.607 67.8484V74.5684H173.535V68.1364C173.535 67.1124 173.327 66.3284 172.911 65.7844C172.495 65.2404 171.847 64.9684 170.967 64.9684C170.103 64.9684 169.391 65.2724 168.831 65.8804C168.287 66.4884 168.015 67.3364 168.015 68.4244V74.5684H164.943ZM185.016 74.8564C183.896 74.8564 182.896 74.5844 182.016 74.0404C181.136 73.4964 180.44 72.7524 179.928 71.8084C179.416 70.8644 179.16 69.7924 179.16 68.5924C179.16 67.3924 179.416 66.3284 179.928 65.4004C180.44 64.4564 181.136 63.7204 182.016 63.1924C182.896 62.6484 183.896 62.3764 185.016 62.3764C185.912 62.3764 186.696 62.5444 187.368 62.8804C188.04 63.2164 188.584 63.6884 189 64.2964V57.2884H192.072V74.5684H189.336L189 72.8644C188.616 73.3924 188.104 73.8564 187.464 74.2564C186.84 74.6564 186.024 74.8564 185.016 74.8564ZM185.664 72.1684C186.656 72.1684 187.464 71.8404 188.088 71.1844C188.728 70.5124 189.048 69.6564 189.048 68.6164C189.048 67.5764 188.728 66.7284 188.088 66.0724C187.464 65.4004 186.656 65.0644 185.664 65.0644C184.688 65.0644 183.88 65.3924 183.24 66.0484C182.6 66.7044 182.28 67.5524 182.28 68.5924C182.28 69.6324 182.6 70.4884 183.24 71.1604C183.88 71.8324 184.688 72.1684 185.664 72.1684Z" fill="white"/>
<path d="M81.2766 144.024V166.533L76.2732 214.135C75.9231 217.467 78.3982 220.445 81.8001 220.788C85.2019 221.13 88.2451 218.709 88.5952 215.377L93.299 170.631H96.3517L101.055 215.377C101.406 218.709 104.449 221.131 107.851 220.788C111.252 220.445 113.728 217.467 113.377 214.135L108.373 166.523V147.694L96.7129 130.248C90.1611 136.708 84.9845 141.326 81.2766 144.024Z" fill="#FFE500"/>
<path d="M88.268 124.648C89.0976 123.839 89.9722 122.977 90.8944 122.059C90.8363 121.435 90.8979 120.79 91.1003 120.154C91.7585 118.096 93.6791 116.714 95.8797 116.714C96.3867 116.714 96.8911 116.79 97.3775 116.939L105.433 119.407C105.86 118.241 106.095 116.984 106.095 115.674C106.095 109.579 101.049 104.639 94.8238 104.639C88.5991 104.639 83.5527 109.579 83.5527 115.674C83.5532 119.375 85.4137 122.646 88.268 124.648Z" fill="#FFE500"/>
<path d="M92.058 120.446C91.9964 120.639 91.9563 120.832 91.9258 121.026C92.1312 120.819 92.331 120.621 92.5419 120.408C93.3164 119.626 94.3082 119.136 95.3872 118.979C96.1687 118.517 97.0533 118.266 97.9655 118.266C98.1328 118.266 98.2982 118.281 98.4625 118.297L97.0799 117.873C94.9679 117.226 92.7193 118.378 92.058 120.446Z" fill="#00D5E0"/>
<path d="M158.497 161.547V141.642C158.793 142.238 159.093 142.922 159.388 143.72C160.8 147.552 161.988 153.839 161.983 163.652C161.984 166.357 161.895 169.329 161.7 172.591C161.571 174.754 163.258 176.61 165.468 176.736C165.548 176.741 165.627 176.743 165.705 176.743C167.812 176.743 169.578 175.134 169.702 173.048C169.905 169.647 169.998 166.524 169.999 163.652C169.979 148.848 167.564 140.656 164.271 135.729C162.626 133.284 160.7 131.716 158.922 130.847C157.223 130.009 155.73 129.815 154.825 129.801C154.758 129.797 154.692 129.791 154.625 129.791H138.392H137.448L158.497 161.547Z" fill="black"/>
<path d="M133.328 128.981L100.42 118.898C101.111 119.278 101.712 119.815 102.161 120.487L108.186 129.501L131.4 136.612V137.64V165.782L127.508 214.648C127.242 217.988 129.792 220.905 133.2 221.165C136.611 221.426 139.591 218.931 139.857 215.591L143.17 174.007H146.893L150.204 215.591C150.47 218.932 153.451 221.426 156.861 221.165C160.271 220.905 162.82 217.988 162.554 214.648L158.79 167.396L133.328 128.981Z" fill="black"/>
<path d="M134.023 111.057C134.064 111.355 134.225 111.642 134.494 111.916C134.022 113.133 133.76 114.453 133.76 115.834C133.76 121.93 138.807 126.87 145.031 126.87C151.255 126.87 156.301 121.93 156.301 115.834C156.301 114.454 156.04 113.134 155.568 111.916C155.837 111.642 155.998 111.355 156.038 111.057C157.35 111.102 158.359 110.895 158.805 110.208C160.299 107.902 156.469 98.2734 145.031 98.2734C133.593 98.2734 129.763 107.902 131.258 110.208C131.703 110.895 132.711 111.102 134.023 111.057ZM145.031 100.281C146.092 100.281 146.976 101.001 147.216 101.967C148.48 101.795 150.04 101.549 150.04 101.549C150.04 101.549 148.578 102.715 147.128 103.286C146.801 104.11 145.988 104.696 145.031 104.696C144.073 104.696 143.261 104.11 142.934 103.286C141.483 102.716 140.022 101.549 140.022 101.549C140.022 101.549 141.582 101.795 142.847 101.968C143.087 101.001 143.97 100.281 145.031 100.281ZM145.031 105.841C151.117 105.841 156.051 107.378 156.051 109.273C156.051 109.555 155.939 109.829 155.734 110.09C154.556 108.59 150.212 107.475 145.031 107.475C139.85 107.475 135.506 108.59 134.328 110.09C134.123 109.828 134.011 109.555 134.011 109.273C134.011 107.378 138.945 105.841 145.031 105.841Z" fill="black"/>
<path d="M70.6337 139.261C70.4093 139.734 70.1919 140.233 70.0631 140.986C70.0631 140.987 70.0626 140.988 70.0626 140.989H70.0611C70.0276 141.204 70 141.451 70 141.747C70.001 142.148 70.0491 142.632 70.2379 143.182C70.4974 144.002 71.2173 144.957 72.1064 145.457C72.9901 145.971 73.8311 146.078 74.4418 146.079C75.5343 146.059 76.1725 145.809 76.8057 145.565C77.8787 145.115 78.875 144.505 80.1349 143.63C83.4516 141.297 88.4769 136.985 96.1508 129.408L93.7788 125.859C92.7274 124.286 92.7234 122.336 93.592 120.795C93.4773 120.888 93.3661 120.986 93.2599 121.093C89.9091 124.469 87.0267 127.259 84.5672 129.548C83.9675 129.589 83.39 129.678 82.8304 129.803C81.6888 130.057 80.6273 130.459 79.644 130.93C77.1649 132.14 75.1 133.816 73.477 135.467C72.9475 136.01 72.4741 136.55 72.0468 137.091C71.8209 137.378 71.6035 137.665 71.4061 137.953C71.1201 138.372 70.8631 138.792 70.6337 139.261Z" fill="#FFE500"/>
<path d="M95.7767 119.889C93.9242 121.076 93.4057 123.509 94.6175 125.321L109.479 147.556C110.248 148.707 111.529 149.331 112.835 149.331C113.588 149.331 114.349 149.124 115.027 148.69C116.878 147.504 117.397 145.072 116.185 143.259L101.324 121.024C100.112 119.211 97.6281 118.702 95.7767 119.889Z" fill="#FFE500"/>
<path d="M80.2969 119.272C79.9037 119.98 79.7354 120.637 79.7354 121.224C79.7704 123.311 81.684 124.179 81.7176 124.206C81.7887 124.239 81.8634 124.255 81.937 124.255C82.1228 124.255 82.3007 124.154 82.3878 123.98C82.5091 123.736 82.4044 123.443 82.1564 123.324C82.1564 123.324 82.0848 123.29 81.947 123.202C81.5217 122.927 80.7282 122.261 80.7372 121.224C80.7382 120.819 80.8499 120.331 81.1771 119.74C81.3098 119.502 81.2191 119.204 80.9762 119.075C80.7322 118.946 80.4287 119.034 80.2969 119.272Z" fill="#00D5E0"/>
<path d="M78.9221 118.26C78.6841 118.122 78.3771 118.199 78.2363 118.432C77.5485 119.562 77.2715 120.599 77.2715 121.512C77.302 124.39 79.8789 125.749 79.9144 125.779C79.9911 125.82 80.0742 125.84 80.1564 125.84C80.3327 125.84 80.503 125.75 80.5947 125.588C80.7289 125.351 80.6418 125.052 80.4008 124.921H80.3998C80.3998 124.921 80.2831 124.859 80.0807 124.714C79.4616 124.268 78.2648 123.174 78.2729 121.513C78.2739 120.794 78.4863 119.942 79.0969 118.933C79.2382 118.699 79.16 118.398 78.9221 118.26Z" fill="#00D5E0"/>
<path d="M108.048 114.109C107.984 114.373 108.149 114.637 108.418 114.701V114.7C108.418 114.7 108.519 114.723 108.704 114.796C109.282 115.038 110.326 115.606 110.323 116.983C110.323 117.273 110.276 117.607 110.165 117.994C110.088 118.255 110.242 118.526 110.509 118.601C110.555 118.614 110.601 118.62 110.646 118.62C110.865 118.62 111.065 118.479 111.128 118.264C111.263 117.801 111.325 117.375 111.325 116.984C111.331 115.696 110.634 114.838 109.977 114.375C109.318 113.902 108.69 113.757 108.652 113.746C108.383 113.682 108.113 113.845 108.048 114.109Z" fill="#00D5E0"/>
<path d="M109.442 112.162C109.363 112.422 109.515 112.695 109.78 112.772C109.781 112.772 109.943 112.818 110.223 112.945C111.081 113.346 112.705 114.349 112.701 116.514C112.701 117.04 112.606 117.645 112.374 118.342C112.286 118.6 112.43 118.877 112.694 118.961C112.745 118.978 112.797 118.985 112.849 118.985C113.06 118.985 113.256 118.855 113.326 118.648C113.587 117.865 113.704 117.155 113.704 116.514C113.709 114.714 112.775 113.502 111.877 112.803C110.975 112.096 110.102 111.844 110.065 111.831C109.799 111.754 109.521 111.902 109.442 112.162Z" fill="#00D5E0"/>
<defs>
<filter id="filter0_d" x="0" y="20.9023" width="240" height="238.99" filterUnits="userSpaceOnUse" color-interpolation-filters="sRGB">
<feFlood flood-opacity="0" result="BackgroundImageFix"/>
<feColorMatrix in="SourceAlpha" type="matrix" values="0 0 0 0 0 0 0 0 0 0 0 0 0 0 0 0 0 0 127 0"/>
<feOffset dy="1"/>
<feGaussianBlur stdDeviation="1"/>
<feColorMatrix type="matrix" values="0 0 0 0 0.0588235 0 0 0 0 0.0588235 0 0 0 0 0.0588235 0 0 0 0.1 0"/>
<feBlend mode="normal" in2="BackgroundImageFix" result="effect1_dropShadow"/>
<feBlend mode="normal" in="SourceGraphic" in2="effect1_dropShadow" result="shape"/>
</filter>
</defs>
</svg>
